%TF.GenerationSoftware,KiCad,Pcbnew,7.0.8-7.0.8~ubuntu22.04.1*%
%TF.CreationDate,2023-12-11T11:20:47-08:00*%
%TF.ProjectId,SimplifiedTrigger,53696d70-6c69-4666-9965-645472696767,rev?*%
%TF.SameCoordinates,Original*%
%TF.FileFunction,Copper,L2,Bot*%
%TF.FilePolarity,Positive*%
%FSLAX46Y46*%
G04 Gerber Fmt 4.6, Leading zero omitted, Abs format (unit mm)*
G04 Created by KiCad (PCBNEW 7.0.8-7.0.8~ubuntu22.04.1) date 2023-12-11 11:20:47*
%MOMM*%
%LPD*%
G01*
G04 APERTURE LIST*
G04 Aperture macros list*
%AMRoundRect*
0 Rectangle with rounded corners*
0 $1 Rounding radius*
0 $2 $3 $4 $5 $6 $7 $8 $9 X,Y pos of 4 corners*
0 Add a 4 corners polygon primitive as box body*
4,1,4,$2,$3,$4,$5,$6,$7,$8,$9,$2,$3,0*
0 Add four circle primitives for the rounded corners*
1,1,$1+$1,$2,$3*
1,1,$1+$1,$4,$5*
1,1,$1+$1,$6,$7*
1,1,$1+$1,$8,$9*
0 Add four rect primitives between the rounded corners*
20,1,$1+$1,$2,$3,$4,$5,0*
20,1,$1+$1,$4,$5,$6,$7,0*
20,1,$1+$1,$6,$7,$8,$9,0*
20,1,$1+$1,$8,$9,$2,$3,0*%
G04 Aperture macros list end*
%TA.AperFunction,ComponentPad*%
%ADD10RoundRect,0.250000X-0.750000X0.600000X-0.750000X-0.600000X0.750000X-0.600000X0.750000X0.600000X0*%
%TD*%
%TA.AperFunction,ComponentPad*%
%ADD11O,2.000000X1.700000*%
%TD*%
%TA.AperFunction,ComponentPad*%
%ADD12C,1.600000*%
%TD*%
%TA.AperFunction,ComponentPad*%
%ADD13RoundRect,0.250000X0.750000X-0.600000X0.750000X0.600000X-0.750000X0.600000X-0.750000X-0.600000X0*%
%TD*%
%TA.AperFunction,ComponentPad*%
%ADD14RoundRect,0.250000X0.600000X0.750000X-0.600000X0.750000X-0.600000X-0.750000X0.600000X-0.750000X0*%
%TD*%
%TA.AperFunction,ComponentPad*%
%ADD15O,1.700000X2.000000*%
%TD*%
%TA.AperFunction,ComponentPad*%
%ADD16R,1.600000X1.600000*%
%TD*%
%TA.AperFunction,ComponentPad*%
%ADD17O,1.600000X1.600000*%
%TD*%
%TA.AperFunction,ComponentPad*%
%ADD18C,1.400000*%
%TD*%
%TA.AperFunction,ComponentPad*%
%ADD19O,1.400000X1.400000*%
%TD*%
%TA.AperFunction,ComponentPad*%
%ADD20C,1.440000*%
%TD*%
%TA.AperFunction,ComponentPad*%
%ADD21RoundRect,0.250000X-0.725000X0.600000X-0.725000X-0.600000X0.725000X-0.600000X0.725000X0.600000X0*%
%TD*%
%TA.AperFunction,ComponentPad*%
%ADD22O,1.950000X1.700000*%
%TD*%
%TA.AperFunction,ViaPad*%
%ADD23C,0.800000*%
%TD*%
%TA.AperFunction,Conductor*%
%ADD24C,0.250000*%
%TD*%
G04 APERTURE END LIST*
D10*
%TO.P,J1,1,Pin_1*%
%TO.N,Net-(J1-Pin_1)*%
X103805000Y-67965000D03*
D11*
%TO.P,J1,2,Pin_2*%
%TO.N,Net-(J1-Pin_2)*%
X103805000Y-70465000D03*
%TD*%
D12*
%TO.P,0.1uF,1*%
%TO.N,Net-(U1-CV)*%
X121920000Y-48895000D03*
%TO.P,0.1uF,2*%
%TO.N,GND*%
X121920000Y-46395000D03*
%TD*%
D13*
%TO.P,Brain1,1,Pin_1*%
%TO.N,GND*%
X167005000Y-56475000D03*
D11*
%TO.P,Brain1,2,Pin_2*%
%TO.N,Net-(J10-Pin_2)*%
X167005000Y-53975000D03*
%TD*%
D14*
%TO.P,Bhv5,1,Pin_1*%
%TO.N,GND*%
X149840000Y-77770000D03*
D15*
%TO.P,Bhv5,2,Pin_2*%
%TO.N,Net-(J3-Pin_2)*%
X147340000Y-77770000D03*
%TD*%
D16*
%TO.P,SW1,1*%
%TO.N,Net-(U2A--)*%
X123190000Y-59690000D03*
D17*
%TO.P,SW1,2*%
%TO.N,Net-(U2B--)*%
X125730000Y-59690000D03*
%TO.P,SW1,3*%
%TO.N,Net-(U3-CV)*%
X125730000Y-52070000D03*
%TO.P,SW1,4*%
%TO.N,Net-(U1-CV)*%
X123190000Y-52070000D03*
%TD*%
D18*
%TO.P,33k,1*%
%TO.N,Net-(J1-Pin_2)*%
X107315000Y-72390000D03*
D19*
%TO.P,33k,2*%
%TO.N,Net-(U2B-+)*%
X112395000Y-72390000D03*
%TD*%
D16*
%TO.P,555,1,GND*%
%TO.N,GND*%
X139690000Y-60950000D03*
D17*
%TO.P,555,2,TR*%
%TO.N,VAC*%
X139690000Y-58410000D03*
%TO.P,555,3,Q*%
%TO.N,Net-(U1-Q)*%
X139690000Y-55870000D03*
%TO.P,555,4,R*%
%TO.N,GND*%
X139690000Y-53330000D03*
%TO.P,555,5,CV*%
%TO.N,Net-(U1-CV)*%
X132070000Y-53330000D03*
%TO.P,555,6,THR*%
%TO.N,Net-(U1-DIS)*%
X132070000Y-55870000D03*
%TO.P,555,7,DIS*%
X132070000Y-58410000D03*
%TO.P,555,8,VCC*%
%TO.N,+5V*%
X132070000Y-60950000D03*
%TD*%
D18*
%TO.P,33k,1*%
%TO.N,+5V*%
X132080000Y-66040000D03*
D19*
%TO.P,33k,2*%
%TO.N,Net-(U4A-+)*%
X137160000Y-66040000D03*
%TD*%
D16*
%TO.P,LM358,1*%
%TO.N,Net-(U2A--)*%
X120650000Y-63500000D03*
D17*
%TO.P,LM358,2,-*%
X120650000Y-66040000D03*
%TO.P,LM358,3,+*%
%TO.N,Net-(U2A-+)*%
X120650000Y-68580000D03*
%TO.P,LM358,4,V-*%
%TO.N,GND*%
X120650000Y-71120000D03*
%TO.P,LM358,5,+*%
%TO.N,Net-(U2B-+)*%
X128270000Y-71120000D03*
%TO.P,LM358,6,-*%
%TO.N,Net-(U2B--)*%
X128270000Y-68580000D03*
%TO.P,LM358,7*%
X128270000Y-66040000D03*
%TO.P,LM358,8,V+*%
%TO.N,+5V*%
X128270000Y-63500000D03*
%TD*%
D12*
%TO.P,0.1uF,1*%
%TO.N,Net-(U2A-+)*%
X114955000Y-67310000D03*
%TO.P,0.1uF,2*%
%TO.N,GND*%
X117455000Y-67310000D03*
%TD*%
D18*
%TO.P,33K,1*%
%TO.N,Net-(J1-Pin_1)*%
X107315000Y-67310000D03*
D19*
%TO.P,33K,2*%
%TO.N,Net-(U2A-+)*%
X112395000Y-67310000D03*
%TD*%
D14*
%TO.P,Bhv3,1,Pin_1*%
%TO.N,GND*%
X132060000Y-77770000D03*
D15*
%TO.P,Bhv3,2,Pin_2*%
%TO.N,Net-(J3-Pin_2)*%
X129560000Y-77770000D03*
%TD*%
D20*
%TO.P,10k Pot,1,1*%
%TO.N,Net-(U3-DIS)*%
X106045000Y-43180000D03*
%TO.P,10k Pot,2,2*%
X103505000Y-45720000D03*
%TO.P,10k Pot,3,3*%
%TO.N,+5V*%
X106045000Y-48260000D03*
%TD*%
D13*
%TO.P,Strb2,1,Pin_1*%
%TO.N,GND*%
X167005000Y-66655000D03*
D11*
%TO.P,Strb2,2,Pin_2*%
%TO.N,Net-(J11-Pin_2)*%
X167005000Y-64155000D03*
%TD*%
D14*
%TO.P,Bhv6,1,Pin_1*%
%TO.N,GND*%
X159365000Y-78070000D03*
D15*
%TO.P,Bhv6,2,Pin_2*%
%TO.N,Net-(J3-Pin_2)*%
X156865000Y-78070000D03*
%TD*%
D12*
%TO.P,0.1uF,1*%
%TO.N,Net-(U3-CV)*%
X128270000Y-48875000D03*
%TO.P,0.1uF,2*%
%TO.N,GND*%
X128270000Y-46375000D03*
%TD*%
D18*
%TO.P,33k,1*%
%TO.N,Net-(U4A-+)*%
X144780000Y-66040000D03*
D19*
%TO.P,33k,2*%
%TO.N,GND*%
X139700000Y-66040000D03*
%TD*%
D14*
%TO.P,Bhv4,1,Pin_1*%
%TO.N,GND*%
X140950000Y-77770000D03*
D15*
%TO.P,Bhv4,2,Pin_2*%
%TO.N,Net-(J3-Pin_2)*%
X138450000Y-77770000D03*
%TD*%
D16*
%TO.P,LM358,1*%
%TO.N,Net-(J3-Pin_2)*%
X143520000Y-53985000D03*
D17*
%TO.P,LM358,2,-*%
%TO.N,Net-(U1-Q)*%
X143520000Y-56525000D03*
%TO.P,LM358,3,+*%
%TO.N,Net-(U4A-+)*%
X143520000Y-59065000D03*
%TO.P,LM358,4,V-*%
%TO.N,GND*%
X143520000Y-61605000D03*
%TO.P,LM358,5,+*%
%TO.N,Net-(U4A-+)*%
X151140000Y-61605000D03*
%TO.P,LM358,6,-*%
%TO.N,Net-(U3-Q)*%
X151140000Y-59065000D03*
%TO.P,LM358,7*%
%TO.N,Net-(J10-Pin_2)*%
X151140000Y-56525000D03*
%TO.P,LM358,8,V+*%
%TO.N,+5V*%
X151140000Y-53985000D03*
%TD*%
D20*
%TO.P,10k Pot,1,1*%
%TO.N,Net-(U1-DIS)*%
X147955000Y-46355000D03*
%TO.P,10k Pot,2,2*%
X145415000Y-43815000D03*
%TO.P,10k Pot,3,3*%
%TO.N,+5V*%
X142875000Y-46355000D03*
%TD*%
D12*
%TO.P,2.2uF,1*%
%TO.N,Net-(U3-DIS)*%
X115570000Y-48855000D03*
%TO.P,2.2uF,2*%
%TO.N,GND*%
X115570000Y-46355000D03*
%TD*%
D21*
%TO.P,J2,1,Pin_1*%
%TO.N,+5V*%
X103805000Y-56555000D03*
D22*
%TO.P,J2,2,Pin_2*%
%TO.N,GND*%
X103805000Y-59055000D03*
%TO.P,J2,3,Pin_3*%
%TO.N,VAC*%
X103805000Y-61555000D03*
%TD*%
D13*
%TO.P,Strb1,1,Pin_1*%
%TO.N,GND*%
X167005000Y-75652000D03*
D11*
%TO.P,Strb1,2,Pin_2*%
%TO.N,Net-(J12-Pin_2)*%
X167005000Y-73152000D03*
%TD*%
D14*
%TO.P,Bhv2,1,Pin_1*%
%TO.N,GND*%
X123170000Y-77770000D03*
D15*
%TO.P,Bhv2,2,Pin_2*%
%TO.N,Net-(J3-Pin_2)*%
X120670000Y-77770000D03*
%TD*%
D13*
%TO.P,Brain2,1,Pin_1*%
%TO.N,GND*%
X167005000Y-46990000D03*
D11*
%TO.P,Brain2,2,Pin_2*%
%TO.N,Net-(J10-Pin_2)*%
X167005000Y-44490000D03*
%TD*%
D16*
%TO.P,555,1,GND*%
%TO.N,GND*%
X109230000Y-53340000D03*
D17*
%TO.P,555,2,TR*%
%TO.N,VAC*%
X109230000Y-55880000D03*
%TO.P,555,3,Q*%
%TO.N,Net-(U3-Q)*%
X109230000Y-58420000D03*
%TO.P,555,4,R*%
%TO.N,GND*%
X109230000Y-60960000D03*
%TO.P,555,5,CV*%
%TO.N,Net-(U3-CV)*%
X116850000Y-60960000D03*
%TO.P,555,6,THR*%
%TO.N,Net-(U3-DIS)*%
X116850000Y-58420000D03*
%TO.P,555,7,DIS*%
X116850000Y-55880000D03*
%TO.P,555,8,VCC*%
%TO.N,+5V*%
X116850000Y-53340000D03*
%TD*%
D16*
%TO.P,74HC74,1,~{R}*%
%TO.N,+5V*%
X154940000Y-46990000D03*
D17*
%TO.P,74HC74,2,D*%
%TO.N,Net-(J12-Pin_2)*%
X154940000Y-49530000D03*
%TO.P,74HC74,3,C*%
%TO.N,Net-(U3-Q)*%
X154940000Y-52070000D03*
%TO.P,74HC74,4,~{S}*%
%TO.N,+5V*%
X154940000Y-54610000D03*
%TO.P,74HC74,5,Q*%
%TO.N,Net-(J11-Pin_2)*%
X154940000Y-57150000D03*
%TO.P,74HC74,6,~{Q}*%
%TO.N,Net-(J12-Pin_2)*%
X154940000Y-59690000D03*
%TO.P,74HC74,7,GND*%
%TO.N,GND*%
X154940000Y-62230000D03*
%TO.P,74HC74,8*%
%TO.N,N/C*%
X162560000Y-62230000D03*
%TO.P,74HC74,9*%
X162560000Y-59690000D03*
%TO.P,74HC74,10*%
X162560000Y-57150000D03*
%TO.P,74HC74,11*%
X162560000Y-54610000D03*
%TO.P,74HC74,12*%
X162560000Y-52070000D03*
%TO.P,74HC74,13*%
X162560000Y-49530000D03*
%TO.P,74HC74,14,VCC*%
%TO.N,+5V*%
X162560000Y-46990000D03*
%TD*%
D14*
%TO.P,Bhv1,1,Pin_1*%
%TO.N,GND*%
X114280000Y-77770000D03*
D15*
%TO.P,Bhv1,2,Pin_2*%
%TO.N,Net-(J3-Pin_2)*%
X111780000Y-77770000D03*
%TD*%
D12*
%TO.P,0.1uF,1*%
%TO.N,Net-(U2B-+)*%
X114955000Y-72390000D03*
%TO.P,0.1uF,2*%
%TO.N,GND*%
X117455000Y-72390000D03*
%TD*%
%TO.P,2.2uF,1*%
%TO.N,Net-(U1-DIS)*%
X132735000Y-46355000D03*
%TO.P,2.2uF,2*%
%TO.N,GND*%
X135235000Y-46355000D03*
%TD*%
D23*
%TO.N,VAC*%
X114935000Y-58420000D03*
X118745000Y-58820500D03*
%TO.N,Net-(J3-Pin_2)*%
X156845000Y-58420000D03*
%TO.N,Net-(J11-Pin_2)*%
X156140500Y-66675000D03*
X160655000Y-67945000D03*
%TO.N,Net-(J12-Pin_2)*%
X158115000Y-66675000D03*
%TO.N,Net-(U3-Q)*%
X147955000Y-60880500D03*
X147320000Y-62329500D03*
%TD*%
D24*
%TO.N,GND*%
X109230000Y-53340000D02*
X109855000Y-53340000D01*
X111125000Y-54610000D02*
X111125000Y-59055000D01*
X109855000Y-53340000D02*
X111125000Y-54610000D01*
%TO.N,Net-(U3-CV)*%
X116850000Y-60960000D02*
X117650000Y-60960000D01*
X117650000Y-60960000D02*
X125730000Y-52880000D01*
X125730000Y-52070000D02*
X128270000Y-49530000D01*
X125730000Y-52880000D02*
X125730000Y-52070000D01*
X128270000Y-49530000D02*
X128270000Y-48875000D01*
%TO.N,+5V*%
X126038637Y-57873198D02*
X122212802Y-57873198D01*
X129520000Y-63500000D02*
X132070000Y-60950000D01*
X114210000Y-60616000D02*
X114210000Y-55980000D01*
X114210000Y-55980000D02*
X116850000Y-53340000D01*
X117602000Y-62484000D02*
X116078000Y-62484000D01*
X122212802Y-57873198D02*
X117602000Y-62484000D01*
X128270000Y-63500000D02*
X129520000Y-63500000D01*
X128270000Y-63500000D02*
X128270000Y-60104561D01*
X116078000Y-62484000D02*
X114210000Y-60616000D01*
X128270000Y-60104561D02*
X126038637Y-57873198D01*
%TO.N,VAC*%
X117620000Y-57295000D02*
X118745000Y-58420000D01*
X114935000Y-58420000D02*
X116060000Y-57295000D01*
X116060000Y-57295000D02*
X117620000Y-57295000D01*
X118745000Y-58420000D02*
X118745000Y-58820500D01*
%TO.N,Net-(J3-Pin_2)*%
X152790305Y-55245000D02*
X144780000Y-55245000D01*
X156845000Y-58420000D02*
X153670000Y-58420000D01*
X153670000Y-58420000D02*
X153670000Y-56124695D01*
X144780000Y-55245000D02*
X143520000Y-53985000D01*
X153670000Y-56124695D02*
X152790305Y-55245000D01*
%TO.N,Net-(J11-Pin_2)*%
X157410500Y-67945000D02*
X160655000Y-67945000D01*
X156140500Y-66675000D02*
X157410500Y-67945000D01*
%TO.N,Net-(J12-Pin_2)*%
X158115000Y-66675000D02*
X156065000Y-64625000D01*
X156065000Y-60815000D02*
X154940000Y-59690000D01*
X156065000Y-64625000D02*
X156065000Y-60815000D01*
%TO.N,Net-(U3-Q)*%
X147320000Y-61595000D02*
X147955000Y-60960000D01*
X147320000Y-62329500D02*
X147320000Y-61595000D01*
X147955000Y-60960000D02*
X147955000Y-60880500D01*
%TD*%
%TA.AperFunction,Conductor*%
%TO.N,GND*%
G36*
X102701726Y-57803461D02*
G01*
X102766557Y-57843448D01*
X102813283Y-57895395D01*
X102824506Y-57964357D01*
X102796663Y-58028440D01*
X102789144Y-58036668D01*
X102641891Y-58183921D01*
X102506399Y-58377421D01*
X102406570Y-58591507D01*
X102406567Y-58591513D01*
X102349364Y-58804999D01*
X102349364Y-58805000D01*
X103401031Y-58805000D01*
X103368481Y-58855649D01*
X103330000Y-58986705D01*
X103330000Y-59123295D01*
X103368481Y-59254351D01*
X103401031Y-59305000D01*
X102349364Y-59305000D01*
X102406567Y-59518486D01*
X102406570Y-59518492D01*
X102506399Y-59732577D01*
X102506400Y-59732579D01*
X102641886Y-59926073D01*
X102641891Y-59926079D01*
X102808920Y-60093108D01*
X102808926Y-60093113D01*
X102966031Y-60203119D01*
X103009656Y-60257696D01*
X103016850Y-60327194D01*
X102985327Y-60389549D01*
X102966032Y-60406269D01*
X102808594Y-60516508D01*
X102641506Y-60683597D01*
X102641501Y-60683604D01*
X102505967Y-60877165D01*
X102505965Y-60877169D01*
X102406098Y-61091335D01*
X102406094Y-61091344D01*
X102344938Y-61319586D01*
X102344936Y-61319596D01*
X102324341Y-61554999D01*
X102324341Y-61555000D01*
X102344936Y-61790403D01*
X102344938Y-61790413D01*
X102406094Y-62018655D01*
X102406096Y-62018659D01*
X102406097Y-62018663D01*
X102434964Y-62080567D01*
X102505964Y-62232828D01*
X102505965Y-62232830D01*
X102641505Y-62426402D01*
X102808597Y-62593494D01*
X103002169Y-62729034D01*
X103002171Y-62729035D01*
X103216337Y-62828903D01*
X103216343Y-62828904D01*
X103216344Y-62828905D01*
X103271285Y-62843626D01*
X103444592Y-62890063D01*
X103621034Y-62905500D01*
X103988966Y-62905500D01*
X104165408Y-62890063D01*
X104393663Y-62828903D01*
X104607829Y-62729035D01*
X104801401Y-62593495D01*
X104968495Y-62426401D01*
X105104035Y-62232830D01*
X105203903Y-62018663D01*
X105265063Y-61790408D01*
X105285659Y-61555000D01*
X105265063Y-61319592D01*
X105203903Y-61091337D01*
X105104035Y-60877171D01*
X105104034Y-60877169D01*
X104968494Y-60683597D01*
X104801403Y-60516506D01*
X104643967Y-60406269D01*
X104600342Y-60351692D01*
X104593148Y-60282194D01*
X104624671Y-60219839D01*
X104643967Y-60203119D01*
X104801073Y-60093113D01*
X104801079Y-60093108D01*
X104968105Y-59926082D01*
X105103600Y-59732578D01*
X105203429Y-59518492D01*
X105203432Y-59518486D01*
X105260636Y-59305000D01*
X104208969Y-59305000D01*
X104241519Y-59254351D01*
X104280000Y-59123295D01*
X104280000Y-58986705D01*
X104241519Y-58855649D01*
X104208969Y-58805000D01*
X105260636Y-58805000D01*
X105260635Y-58804999D01*
X105203432Y-58591513D01*
X105203429Y-58591507D01*
X105103600Y-58377422D01*
X105103599Y-58377420D01*
X104968113Y-58183926D01*
X104820856Y-58036668D01*
X104787372Y-57975345D01*
X104792356Y-57905653D01*
X104834228Y-57849720D01*
X104843443Y-57843448D01*
X104908274Y-57803461D01*
X104973369Y-57785000D01*
X107896521Y-57785000D01*
X107963560Y-57804685D01*
X108009315Y-57857489D01*
X108019259Y-57926647D01*
X108008903Y-57961405D01*
X108003262Y-57973502D01*
X108003258Y-57973511D01*
X107944366Y-58193302D01*
X107944364Y-58193313D01*
X107924532Y-58419998D01*
X107924532Y-58420001D01*
X107944364Y-58646686D01*
X107944366Y-58646697D01*
X108003258Y-58866488D01*
X108003261Y-58866497D01*
X108099431Y-59072732D01*
X108099432Y-59072734D01*
X108229954Y-59259141D01*
X108390858Y-59420045D01*
X108401805Y-59427710D01*
X108577266Y-59550568D01*
X108635865Y-59577893D01*
X108688305Y-59624065D01*
X108707457Y-59691258D01*
X108687242Y-59758139D01*
X108635867Y-59802657D01*
X108577515Y-59829867D01*
X108391179Y-59960342D01*
X108230342Y-60121179D01*
X108099865Y-60307517D01*
X108003734Y-60513673D01*
X108003730Y-60513682D01*
X107951127Y-60709999D01*
X107951128Y-60710000D01*
X108914314Y-60710000D01*
X108902359Y-60721955D01*
X108844835Y-60834852D01*
X108825014Y-60960000D01*
X108844835Y-61085148D01*
X108902359Y-61198045D01*
X108914314Y-61210000D01*
X107951128Y-61210000D01*
X108003730Y-61406317D01*
X108003734Y-61406326D01*
X108099865Y-61612482D01*
X108230342Y-61798820D01*
X108391179Y-61959657D01*
X108577517Y-62090134D01*
X108783673Y-62186265D01*
X108783682Y-62186269D01*
X108979999Y-62238872D01*
X108980000Y-62238871D01*
X108980000Y-61275686D01*
X108991955Y-61287641D01*
X109104852Y-61345165D01*
X109198519Y-61360000D01*
X109261481Y-61360000D01*
X109355148Y-61345165D01*
X109468045Y-61287641D01*
X109480000Y-61275686D01*
X109480000Y-62238872D01*
X109676317Y-62186269D01*
X109676326Y-62186265D01*
X109882482Y-62090134D01*
X110068820Y-61959657D01*
X110229657Y-61798820D01*
X110360134Y-61612482D01*
X110456265Y-61406326D01*
X110456269Y-61406317D01*
X110508872Y-61210000D01*
X109545686Y-61210000D01*
X109557641Y-61198045D01*
X109615165Y-61085148D01*
X109634986Y-60960000D01*
X109615165Y-60834852D01*
X109557641Y-60721955D01*
X109545686Y-60710000D01*
X110508872Y-60710000D01*
X110508872Y-60709999D01*
X110456269Y-60513682D01*
X110456265Y-60513673D01*
X110360134Y-60307517D01*
X110229657Y-60121179D01*
X110068820Y-59960342D01*
X109882482Y-59829865D01*
X109824133Y-59802657D01*
X109771694Y-59756484D01*
X109752542Y-59689291D01*
X109772758Y-59622410D01*
X109824129Y-59577895D01*
X109882734Y-59550568D01*
X110069139Y-59420047D01*
X110230047Y-59259139D01*
X110360568Y-59072734D01*
X110456739Y-58866496D01*
X110515635Y-58646692D01*
X110535468Y-58420000D01*
X110534791Y-58412267D01*
X110522084Y-58267021D01*
X110515635Y-58193308D01*
X110466672Y-58010575D01*
X110456741Y-57973511D01*
X110456740Y-57973510D01*
X110456739Y-57973504D01*
X110451096Y-57961404D01*
X110440605Y-57892327D01*
X110469125Y-57828543D01*
X110527602Y-57790304D01*
X110563479Y-57785000D01*
X113460500Y-57785000D01*
X113527539Y-57804685D01*
X113573294Y-57857489D01*
X113584500Y-57909000D01*
X113584500Y-60533255D01*
X113582775Y-60548872D01*
X113583061Y-60548899D01*
X113582326Y-60556665D01*
X113584500Y-60625814D01*
X113584500Y-60655343D01*
X113584501Y-60655360D01*
X113585368Y-60662231D01*
X113585826Y-60668050D01*
X113587290Y-60714624D01*
X113587291Y-60714627D01*
X113592880Y-60733867D01*
X113596824Y-60752911D01*
X113599336Y-60772792D01*
X113612168Y-60805203D01*
X113616490Y-60816119D01*
X113618382Y-60821647D01*
X113628822Y-60857581D01*
X113631382Y-60866390D01*
X113639726Y-60880500D01*
X113641580Y-60883634D01*
X113650136Y-60901100D01*
X113657514Y-60919732D01*
X113681150Y-60952265D01*
X113684898Y-60957423D01*
X113688106Y-60962307D01*
X113711827Y-61002416D01*
X113711833Y-61002424D01*
X113725990Y-61016580D01*
X113738627Y-61031375D01*
X113750406Y-61047587D01*
X113784870Y-61076098D01*
X113786309Y-61077288D01*
X113790620Y-61081210D01*
X115135804Y-62426395D01*
X115577197Y-62867788D01*
X115587022Y-62880051D01*
X115587243Y-62879869D01*
X115592214Y-62885878D01*
X115613043Y-62905437D01*
X115642635Y-62933226D01*
X115663529Y-62954120D01*
X115669011Y-62958373D01*
X115673443Y-62962157D01*
X115707418Y-62994062D01*
X115724976Y-63003714D01*
X115741233Y-63014393D01*
X115757064Y-63026673D01*
X115776737Y-63035186D01*
X115799833Y-63045182D01*
X115805077Y-63047750D01*
X115845908Y-63070197D01*
X115858523Y-63073435D01*
X115865305Y-63075177D01*
X115883719Y-63081481D01*
X115902104Y-63089438D01*
X115948157Y-63096732D01*
X115953826Y-63097906D01*
X115998981Y-63109500D01*
X116019016Y-63109500D01*
X116038413Y-63111026D01*
X116058196Y-63114160D01*
X116104584Y-63109775D01*
X116110422Y-63109500D01*
X117519257Y-63109500D01*
X117534877Y-63111224D01*
X117534904Y-63110939D01*
X117542660Y-63111671D01*
X117542667Y-63111673D01*
X117611814Y-63109500D01*
X117641350Y-63109500D01*
X117648228Y-63108630D01*
X117654041Y-63108172D01*
X117700627Y-63106709D01*
X117719869Y-63101117D01*
X117738912Y-63097174D01*
X117758792Y-63094664D01*
X117802122Y-63077507D01*
X117807646Y-63075617D01*
X117811396Y-63074527D01*
X117852390Y-63062618D01*
X117869629Y-63052422D01*
X117887103Y-63043862D01*
X117905727Y-63036488D01*
X117905727Y-63036487D01*
X117905732Y-63036486D01*
X117943449Y-63009082D01*
X117948305Y-63005892D01*
X117988420Y-62982170D01*
X118002589Y-62967999D01*
X118017379Y-62955368D01*
X118033587Y-62943594D01*
X118063299Y-62907676D01*
X118067212Y-62903376D01*
X121677821Y-59292767D01*
X121739142Y-59259284D01*
X121808834Y-59264268D01*
X121864767Y-59306140D01*
X121889184Y-59371604D01*
X121889500Y-59380450D01*
X121889500Y-60537870D01*
X121889501Y-60537876D01*
X121895908Y-60597483D01*
X121946202Y-60732328D01*
X121946206Y-60732335D01*
X122032452Y-60847544D01*
X122032455Y-60847547D01*
X122147664Y-60933793D01*
X122147671Y-60933797D01*
X122282517Y-60984091D01*
X122282516Y-60984091D01*
X122289444Y-60984835D01*
X122342127Y-60990500D01*
X124037872Y-60990499D01*
X124097483Y-60984091D01*
X124232331Y-60933796D01*
X124347546Y-60847546D01*
X124433796Y-60732331D01*
X124484091Y-60597483D01*
X124487862Y-60562401D01*
X124514599Y-60497855D01*
X124571990Y-60458006D01*
X124641816Y-60455511D01*
X124701905Y-60491163D01*
X124712725Y-60504535D01*
X124718103Y-60512216D01*
X124729956Y-60529143D01*
X124890858Y-60690045D01*
X124890861Y-60690047D01*
X125077266Y-60820568D01*
X125283504Y-60916739D01*
X125503308Y-60975635D01*
X125665230Y-60989801D01*
X125729998Y-60995468D01*
X125730000Y-60995468D01*
X125730002Y-60995468D01*
X125786807Y-60990498D01*
X125956692Y-60975635D01*
X126176496Y-60916739D01*
X126382734Y-60820568D01*
X126569139Y-60690047D01*
X126730047Y-60529139D01*
X126860568Y-60342734D01*
X126956739Y-60136496D01*
X126998489Y-59980680D01*
X127034852Y-59921023D01*
X127097699Y-59890493D01*
X127167075Y-59898787D01*
X127205944Y-59925095D01*
X127608181Y-60327332D01*
X127641666Y-60388655D01*
X127644500Y-60415013D01*
X127644500Y-62285811D01*
X127624815Y-62352850D01*
X127591623Y-62387386D01*
X127430859Y-62499953D01*
X127269954Y-62660858D01*
X127139432Y-62847265D01*
X127139431Y-62847267D01*
X127043261Y-63053502D01*
X127043258Y-63053511D01*
X126984366Y-63273302D01*
X126984364Y-63273313D01*
X126964532Y-63499998D01*
X126964532Y-63500001D01*
X126984364Y-63726686D01*
X126984366Y-63726697D01*
X127043258Y-63946488D01*
X127043261Y-63946497D01*
X127139431Y-64152732D01*
X127139432Y-64152734D01*
X127269954Y-64339141D01*
X127430858Y-64500045D01*
X127430861Y-64500047D01*
X127617266Y-64630568D01*
X127675275Y-64657618D01*
X127727714Y-64703791D01*
X127746866Y-64770984D01*
X127726650Y-64837865D01*
X127675275Y-64882382D01*
X127617267Y-64909431D01*
X127617265Y-64909432D01*
X127430858Y-65039954D01*
X127269954Y-65200858D01*
X127139432Y-65387265D01*
X127139431Y-65387267D01*
X127043261Y-65593502D01*
X127043258Y-65593511D01*
X126984366Y-65813302D01*
X126984364Y-65813313D01*
X126964532Y-66039998D01*
X126964532Y-66040001D01*
X126984364Y-66266686D01*
X126984366Y-66266697D01*
X127043258Y-66486488D01*
X127043261Y-66486497D01*
X127139431Y-66692732D01*
X127139432Y-66692734D01*
X127269954Y-66879141D01*
X127430858Y-67040045D01*
X127438886Y-67045666D01*
X127617266Y-67170568D01*
X127675275Y-67197618D01*
X127727714Y-67243791D01*
X127746866Y-67310984D01*
X127726650Y-67377865D01*
X127675275Y-67422382D01*
X127617267Y-67449431D01*
X127617265Y-67449432D01*
X127430858Y-67579954D01*
X127269954Y-67740858D01*
X127139432Y-67927265D01*
X127139431Y-67927267D01*
X127043261Y-68133502D01*
X127043258Y-68133511D01*
X126984366Y-68353302D01*
X126984364Y-68353313D01*
X126964532Y-68579998D01*
X126964532Y-68580001D01*
X126984364Y-68806686D01*
X126984366Y-68806697D01*
X127043258Y-69026488D01*
X127043261Y-69026497D01*
X127139431Y-69232732D01*
X127139432Y-69232734D01*
X127269954Y-69419141D01*
X127430858Y-69580045D01*
X127477693Y-69612839D01*
X127617266Y-69710568D01*
X127675275Y-69737618D01*
X127727714Y-69783791D01*
X127746866Y-69850984D01*
X127726650Y-69917865D01*
X127675275Y-69962382D01*
X127617267Y-69989431D01*
X127617265Y-69989432D01*
X127430858Y-70119954D01*
X127269954Y-70280858D01*
X127139432Y-70467265D01*
X127139431Y-70467267D01*
X127043261Y-70673502D01*
X127043258Y-70673511D01*
X126984366Y-70893302D01*
X126984364Y-70893313D01*
X126964532Y-71119998D01*
X126964532Y-71120001D01*
X126984364Y-71346686D01*
X126984366Y-71346697D01*
X127043258Y-71566488D01*
X127043261Y-71566497D01*
X127139431Y-71772732D01*
X127139432Y-71772734D01*
X127269954Y-71959141D01*
X127430858Y-72120045D01*
X127430861Y-72120047D01*
X127617266Y-72250568D01*
X127823504Y-72346739D01*
X128043308Y-72405635D01*
X128205230Y-72419801D01*
X128269998Y-72425468D01*
X128270000Y-72425468D01*
X128270002Y-72425468D01*
X128326673Y-72420509D01*
X128496692Y-72405635D01*
X128716496Y-72346739D01*
X128922734Y-72250568D01*
X129109139Y-72120047D01*
X129270047Y-71959139D01*
X129400568Y-71772734D01*
X129496739Y-71566496D01*
X129555635Y-71346692D01*
X129575468Y-71120000D01*
X129574143Y-71104860D01*
X129555635Y-70893313D01*
X129555635Y-70893308D01*
X129496739Y-70673504D01*
X129400568Y-70467266D01*
X129270047Y-70280861D01*
X129270045Y-70280858D01*
X129109141Y-70119954D01*
X128922734Y-69989432D01*
X128922728Y-69989429D01*
X128864725Y-69962382D01*
X128812285Y-69916210D01*
X128793133Y-69849017D01*
X128813348Y-69782135D01*
X128864725Y-69737618D01*
X128922734Y-69710568D01*
X129109139Y-69580047D01*
X129270047Y-69419139D01*
X129400568Y-69232734D01*
X129496739Y-69026496D01*
X129555635Y-68806692D01*
X129575468Y-68580000D01*
X129575044Y-68575159D01*
X129567390Y-68487672D01*
X129555635Y-68353308D01*
X129496739Y-68133504D01*
X129400568Y-67927266D01*
X129281168Y-67756744D01*
X129270045Y-67740858D01*
X129109141Y-67579954D01*
X128922734Y-67449432D01*
X128922728Y-67449429D01*
X128864725Y-67422382D01*
X128812285Y-67376210D01*
X128793133Y-67309017D01*
X128813348Y-67242135D01*
X128864725Y-67197618D01*
X128922734Y-67170568D01*
X129109139Y-67040047D01*
X129270047Y-66879139D01*
X129400568Y-66692734D01*
X129496739Y-66486496D01*
X129555635Y-66266692D01*
X129575468Y-66040000D01*
X130874357Y-66040000D01*
X130894884Y-66261535D01*
X130894885Y-66261537D01*
X130955769Y-66475523D01*
X130955775Y-66475538D01*
X131054938Y-66674683D01*
X131054943Y-66674691D01*
X131189020Y-66852238D01*
X131353437Y-67002123D01*
X131353439Y-67002125D01*
X131542595Y-67119245D01*
X131542596Y-67119245D01*
X131542599Y-67119247D01*
X131750060Y-67199618D01*
X131968757Y-67240500D01*
X131968759Y-67240500D01*
X132191241Y-67240500D01*
X132191243Y-67240500D01*
X132409940Y-67199618D01*
X132617401Y-67119247D01*
X132806562Y-67002124D01*
X132970981Y-66852236D01*
X133105058Y-66674689D01*
X133204229Y-66475528D01*
X133265115Y-66261536D01*
X133285643Y-66040000D01*
X135954357Y-66040000D01*
X135974884Y-66261535D01*
X135974885Y-66261537D01*
X136035769Y-66475523D01*
X136035775Y-66475538D01*
X136134938Y-66674683D01*
X136134943Y-66674691D01*
X136269020Y-66852238D01*
X136433437Y-67002123D01*
X136433439Y-67002125D01*
X136622595Y-67119245D01*
X136622596Y-67119245D01*
X136622599Y-67119247D01*
X136830060Y-67199618D01*
X137048757Y-67240500D01*
X137048759Y-67240500D01*
X137271241Y-67240500D01*
X137271243Y-67240500D01*
X137489940Y-67199618D01*
X137697401Y-67119247D01*
X137886562Y-67002124D01*
X138050981Y-66852236D01*
X138185058Y-66674689D01*
X138284229Y-66475528D01*
X138310995Y-66381455D01*
X138348272Y-66322367D01*
X138411581Y-66292809D01*
X138480821Y-66302171D01*
X138534007Y-66347480D01*
X138549525Y-66381460D01*
X138576236Y-66475342D01*
X138576239Y-66475348D01*
X138675368Y-66674425D01*
X138809391Y-66851900D01*
X138973738Y-67001721D01*
X139162820Y-67118797D01*
X139162822Y-67118798D01*
X139370195Y-67199135D01*
X139450000Y-67214052D01*
X139450000Y-66288938D01*
X139531115Y-66352072D01*
X139641595Y-66390000D01*
X139729005Y-66390000D01*
X139815216Y-66375614D01*
X139917947Y-66320019D01*
X139945581Y-66290000D01*
X139950000Y-66290000D01*
X139950000Y-67214052D01*
X140029804Y-67199135D01*
X140237177Y-67118798D01*
X140237179Y-67118797D01*
X140426261Y-67001721D01*
X140590608Y-66851900D01*
X140724631Y-66674425D01*
X140823760Y-66475349D01*
X140876495Y-66290000D01*
X139950000Y-66290000D01*
X139945581Y-66290000D01*
X139997060Y-66234079D01*
X140043982Y-66127108D01*
X140051200Y-66040000D01*
X143574357Y-66040000D01*
X143594884Y-66261535D01*
X143594885Y-66261537D01*
X143655769Y-66475523D01*
X143655775Y-66475538D01*
X143754938Y-66674683D01*
X143754943Y-66674691D01*
X143889020Y-66852238D01*
X144053437Y-67002123D01*
X144053439Y-67002125D01*
X144242595Y-67119245D01*
X144242596Y-67119245D01*
X144242599Y-67119247D01*
X144450060Y-67199618D01*
X144668757Y-67240500D01*
X144668759Y-67240500D01*
X144891241Y-67240500D01*
X144891243Y-67240500D01*
X145109940Y-67199618D01*
X145317401Y-67119247D01*
X145506562Y-67002124D01*
X145670981Y-66852236D01*
X145805058Y-66674689D01*
X145904229Y-66475528D01*
X145965115Y-66261536D01*
X145985643Y-66040000D01*
X145982356Y-66004532D01*
X145965115Y-65818464D01*
X145965114Y-65818462D01*
X145963803Y-65813856D01*
X145904229Y-65604472D01*
X145904224Y-65604461D01*
X145805061Y-65405316D01*
X145805056Y-65405308D01*
X145670979Y-65227761D01*
X145506562Y-65077876D01*
X145506560Y-65077874D01*
X145317404Y-64960754D01*
X145317398Y-64960752D01*
X145109940Y-64880382D01*
X144891243Y-64839500D01*
X144668757Y-64839500D01*
X144450060Y-64880382D01*
X144325255Y-64928732D01*
X144242601Y-64960752D01*
X144242595Y-64960754D01*
X144053439Y-65077874D01*
X144053437Y-65077876D01*
X143889020Y-65227761D01*
X143754943Y-65405308D01*
X143754938Y-65405316D01*
X143655775Y-65604461D01*
X143655769Y-65604476D01*
X143594885Y-65818462D01*
X143594884Y-65818464D01*
X143574357Y-66039999D01*
X143574357Y-66040000D01*
X140051200Y-66040000D01*
X140053628Y-66010698D01*
X140024953Y-65897462D01*
X139961064Y-65799673D01*
X139868885Y-65727928D01*
X139758405Y-65690000D01*
X139670995Y-65690000D01*
X139584784Y-65704386D01*
X139482053Y-65759981D01*
X139450000Y-65794799D01*
X139450000Y-64865946D01*
X139950000Y-64865946D01*
X139950000Y-65790000D01*
X140876495Y-65790000D01*
X140823760Y-65604650D01*
X140724631Y-65405574D01*
X140590608Y-65228099D01*
X140426261Y-65078278D01*
X140237179Y-64961202D01*
X140237177Y-64961201D01*
X140029799Y-64880864D01*
X139950000Y-64865946D01*
X139450000Y-64865946D01*
X139370200Y-64880864D01*
X139162822Y-64961201D01*
X139162820Y-64961202D01*
X138973738Y-65078278D01*
X138809391Y-65228099D01*
X138675368Y-65405574D01*
X138576239Y-65604651D01*
X138576237Y-65604655D01*
X138549525Y-65698540D01*
X138512246Y-65757633D01*
X138448936Y-65787190D01*
X138379697Y-65777828D01*
X138326510Y-65732518D01*
X138310994Y-65698541D01*
X138284229Y-65604472D01*
X138284224Y-65604461D01*
X138185061Y-65405316D01*
X138185056Y-65405308D01*
X138050979Y-65227761D01*
X137886562Y-65077876D01*
X137886560Y-65077874D01*
X137697404Y-64960754D01*
X137697398Y-64960752D01*
X137489940Y-64880382D01*
X137271243Y-64839500D01*
X137048757Y-64839500D01*
X136830060Y-64880382D01*
X136705255Y-64928732D01*
X136622601Y-64960752D01*
X136622595Y-64960754D01*
X136433439Y-65077874D01*
X136433437Y-65077876D01*
X136269020Y-65227761D01*
X136134943Y-65405308D01*
X136134938Y-65405316D01*
X136035775Y-65604461D01*
X136035769Y-65604476D01*
X135974885Y-65818462D01*
X135974884Y-65818464D01*
X135954357Y-66039999D01*
X135954357Y-66040000D01*
X133285643Y-66040000D01*
X133282356Y-66004532D01*
X133265115Y-65818464D01*
X133265114Y-65818462D01*
X133263803Y-65813856D01*
X133204229Y-65604472D01*
X133204224Y-65604461D01*
X133105061Y-65405316D01*
X133105056Y-65405308D01*
X132970979Y-65227761D01*
X132806562Y-65077876D01*
X132806560Y-65077874D01*
X132617404Y-64960754D01*
X132617398Y-64960752D01*
X132409940Y-64880382D01*
X132191243Y-64839500D01*
X131968757Y-64839500D01*
X131750060Y-64880382D01*
X131625255Y-64928732D01*
X131542601Y-64960752D01*
X131542595Y-64960754D01*
X131353439Y-65077874D01*
X131353437Y-65077876D01*
X131189020Y-65227761D01*
X131054943Y-65405308D01*
X131054938Y-65405316D01*
X130955775Y-65604461D01*
X130955769Y-65604476D01*
X130894885Y-65818462D01*
X130894884Y-65818464D01*
X130874357Y-66039999D01*
X130874357Y-66040000D01*
X129575468Y-66040000D01*
X129574143Y-66024860D01*
X129567847Y-65952892D01*
X129555635Y-65813308D01*
X129496739Y-65593504D01*
X129400568Y-65387266D01*
X129270047Y-65200861D01*
X129270045Y-65200858D01*
X129109141Y-65039954D01*
X128922734Y-64909432D01*
X128922728Y-64909429D01*
X128864725Y-64882382D01*
X128812285Y-64836210D01*
X128793133Y-64769017D01*
X128813348Y-64702135D01*
X128864725Y-64657618D01*
X128922734Y-64630568D01*
X129109139Y-64500047D01*
X129270047Y-64339139D01*
X129381545Y-64179901D01*
X129436118Y-64136280D01*
X129479219Y-64127089D01*
X129527972Y-64125557D01*
X129529815Y-64125500D01*
X129559347Y-64125500D01*
X129559350Y-64125500D01*
X129566228Y-64124630D01*
X129572041Y-64124172D01*
X129618627Y-64122709D01*
X129637869Y-64117117D01*
X129656912Y-64113174D01*
X129676792Y-64110664D01*
X129720122Y-64093507D01*
X129725646Y-64091617D01*
X129729396Y-64090527D01*
X129770390Y-64078618D01*
X129787629Y-64068422D01*
X129805103Y-64059862D01*
X129823727Y-64052488D01*
X129823727Y-64052487D01*
X129823732Y-64052486D01*
X129861449Y-64025082D01*
X129866305Y-64021892D01*
X129906420Y-63998170D01*
X129920589Y-63983999D01*
X129935379Y-63971368D01*
X129951587Y-63959594D01*
X129981299Y-63923676D01*
X129985212Y-63919376D01*
X131655178Y-62249410D01*
X131716499Y-62215927D01*
X131774946Y-62217317D01*
X131843308Y-62235635D01*
X132000780Y-62249412D01*
X132069998Y-62255468D01*
X132070000Y-62255468D01*
X132070002Y-62255468D01*
X132139220Y-62249412D01*
X132296692Y-62235635D01*
X132516496Y-62176739D01*
X132722734Y-62080568D01*
X132909139Y-61950047D01*
X133070047Y-61789139D01*
X133200568Y-61602734D01*
X133296739Y-61396496D01*
X133355635Y-61176692D01*
X133373225Y-60975633D01*
X133375468Y-60950001D01*
X133375468Y-60949998D01*
X133366511Y-60847618D01*
X133355635Y-60723308D01*
X133309198Y-60550000D01*
X133296741Y-60503511D01*
X133296738Y-60503502D01*
X133261802Y-60428582D01*
X133200568Y-60297266D01*
X133070047Y-60110861D01*
X133070045Y-60110858D01*
X132909141Y-59949954D01*
X132722734Y-59819432D01*
X132722728Y-59819429D01*
X132682840Y-59800829D01*
X132664724Y-59792381D01*
X132612285Y-59746210D01*
X132593133Y-59679017D01*
X132613348Y-59612135D01*
X132664725Y-59567618D01*
X132722734Y-59540568D01*
X132909139Y-59410047D01*
X133070047Y-59249139D01*
X133200568Y-59062734D01*
X133296739Y-58856496D01*
X133355635Y-58636692D01*
X133375468Y-58410000D01*
X133355635Y-58183308D01*
X133299420Y-57973511D01*
X133296741Y-57963511D01*
X133296738Y-57963502D01*
X133283181Y-57934429D01*
X133213501Y-57785000D01*
X138546499Y-57785000D01*
X138463261Y-57963502D01*
X138463258Y-57963511D01*
X138404366Y-58183302D01*
X138404364Y-58183313D01*
X138384532Y-58409998D01*
X138384532Y-58410001D01*
X138404364Y-58636686D01*
X138404366Y-58636697D01*
X138463258Y-58856488D01*
X138463261Y-58856497D01*
X138559431Y-59062732D01*
X138559432Y-59062734D01*
X138689954Y-59249141D01*
X138850858Y-59410045D01*
X138876086Y-59427710D01*
X138919711Y-59482287D01*
X138926905Y-59551785D01*
X138895382Y-59614140D01*
X138835153Y-59649554D01*
X138818221Y-59652574D01*
X138782626Y-59656401D01*
X138782620Y-59656403D01*
X138647913Y-59706645D01*
X138647906Y-59706649D01*
X138532812Y-59792809D01*
X138532809Y-59792812D01*
X138446649Y-59907906D01*
X138446645Y-59907913D01*
X138396403Y-60042620D01*
X138396401Y-60042627D01*
X138390000Y-60102155D01*
X138390000Y-60700000D01*
X139374314Y-60700000D01*
X139362359Y-60711955D01*
X139304835Y-60824852D01*
X139285014Y-60950000D01*
X139304835Y-61075148D01*
X139362359Y-61188045D01*
X139374314Y-61200000D01*
X138390000Y-61200000D01*
X138390000Y-61797844D01*
X138396401Y-61857372D01*
X138396403Y-61857379D01*
X138446645Y-61992086D01*
X138446649Y-61992093D01*
X138532809Y-62107187D01*
X138532812Y-62107190D01*
X138647906Y-62193350D01*
X138647913Y-62193354D01*
X138782620Y-62243596D01*
X138782627Y-62243598D01*
X138842155Y-62249999D01*
X138842172Y-62250000D01*
X139440000Y-62250000D01*
X139440000Y-61265686D01*
X139451955Y-61277641D01*
X139564852Y-61335165D01*
X139658519Y-61350000D01*
X139721481Y-61350000D01*
X139815148Y-61335165D01*
X139928045Y-61277641D01*
X139940000Y-61265686D01*
X139940000Y-62250000D01*
X140537828Y-62250000D01*
X140537844Y-62249999D01*
X140597372Y-62243598D01*
X140597379Y-62243596D01*
X140732086Y-62193354D01*
X140732093Y-62193350D01*
X140847187Y-62107190D01*
X140847190Y-62107187D01*
X140933350Y-61992093D01*
X140933354Y-61992086D01*
X140983596Y-61857379D01*
X140983598Y-61857372D01*
X140989999Y-61797844D01*
X140990000Y-61797827D01*
X140990000Y-61200000D01*
X140005686Y-61200000D01*
X140017641Y-61188045D01*
X140075165Y-61075148D01*
X140094986Y-60950000D01*
X140075165Y-60824852D01*
X140017641Y-60711955D01*
X140005686Y-60700000D01*
X140990000Y-60700000D01*
X140990000Y-60102172D01*
X140989999Y-60102155D01*
X140983598Y-60042627D01*
X140983596Y-60042620D01*
X140933354Y-59907913D01*
X140933350Y-59907906D01*
X140847190Y-59792812D01*
X140847187Y-59792809D01*
X140732093Y-59706649D01*
X140732086Y-59706645D01*
X140597379Y-59656403D01*
X140597373Y-59656401D01*
X140561778Y-59652574D01*
X140497228Y-59625835D01*
X140457381Y-59568441D01*
X140454888Y-59498616D01*
X140490542Y-59438528D01*
X140503913Y-59427710D01*
X140529139Y-59410047D01*
X140690047Y-59249139D01*
X140820568Y-59062734D01*
X140916739Y-58856496D01*
X140975635Y-58636692D01*
X140995468Y-58410000D01*
X140975635Y-58183308D01*
X140919420Y-57973511D01*
X140916741Y-57963511D01*
X140916738Y-57963502D01*
X140903181Y-57934429D01*
X140833501Y-57785000D01*
X142993735Y-57785000D01*
X142996866Y-57795984D01*
X142976650Y-57862865D01*
X142925275Y-57907382D01*
X142867267Y-57934431D01*
X142867265Y-57934432D01*
X142680858Y-58064954D01*
X142519954Y-58225858D01*
X142389432Y-58412265D01*
X142389431Y-58412267D01*
X142293261Y-58618502D01*
X142293258Y-58618511D01*
X142234366Y-58838302D01*
X142234364Y-58838313D01*
X142214532Y-59064998D01*
X142214532Y-59065001D01*
X142234364Y-59291686D01*
X142234366Y-59291697D01*
X142293258Y-59511488D01*
X142293261Y-59511497D01*
X142389431Y-59717732D01*
X142389432Y-59717734D01*
X142519954Y-59904141D01*
X142680858Y-60065045D01*
X142680861Y-60065047D01*
X142867266Y-60195568D01*
X142925865Y-60222893D01*
X142978305Y-60269065D01*
X142997457Y-60336258D01*
X142977242Y-60403139D01*
X142925867Y-60447657D01*
X142867515Y-60474867D01*
X142681179Y-60605342D01*
X142520342Y-60766179D01*
X142389865Y-60952517D01*
X142293734Y-61158673D01*
X142293730Y-61158682D01*
X142241127Y-61354999D01*
X142241128Y-61355000D01*
X143204314Y-61355000D01*
X143192359Y-61366955D01*
X143134835Y-61479852D01*
X143115014Y-61605000D01*
X143134835Y-61730148D01*
X143192359Y-61843045D01*
X143204314Y-61855000D01*
X142241128Y-61855000D01*
X142293730Y-62051317D01*
X142293734Y-62051326D01*
X142389865Y-62257482D01*
X142520342Y-62443820D01*
X142681179Y-62604657D01*
X142867517Y-62735134D01*
X143073673Y-62831265D01*
X143073682Y-62831269D01*
X143269999Y-62883872D01*
X143270000Y-62883871D01*
X143270000Y-61920686D01*
X143281955Y-61932641D01*
X143394852Y-61990165D01*
X143488519Y-62005000D01*
X143551481Y-62005000D01*
X143645148Y-61990165D01*
X143758045Y-61932641D01*
X143770000Y-61920686D01*
X143770000Y-62883872D01*
X143966317Y-62831269D01*
X143966326Y-62831265D01*
X144172482Y-62735134D01*
X144358820Y-62604657D01*
X144519657Y-62443820D01*
X144599706Y-62329500D01*
X146414540Y-62329500D01*
X146434326Y-62517756D01*
X146434327Y-62517759D01*
X146492818Y-62697777D01*
X146492821Y-62697784D01*
X146587467Y-62861716D01*
X146683178Y-62968013D01*
X146714129Y-63002388D01*
X146867265Y-63113648D01*
X146867270Y-63113651D01*
X147040192Y-63190642D01*
X147040197Y-63190644D01*
X147225354Y-63230000D01*
X147225355Y-63230000D01*
X147414644Y-63230000D01*
X147414646Y-63230000D01*
X147599803Y-63190644D01*
X147772730Y-63113651D01*
X147925871Y-63002388D01*
X148052533Y-62861716D01*
X148147179Y-62697784D01*
X148205674Y-62517756D01*
X148225460Y-62329500D01*
X148205674Y-62141244D01*
X148147179Y-61961216D01*
X148129178Y-61930038D01*
X148112705Y-61862140D01*
X148135557Y-61796113D01*
X148190477Y-61752922D01*
X148210775Y-61746751D01*
X148234803Y-61741644D01*
X148407730Y-61664651D01*
X148560871Y-61553388D01*
X148687533Y-61412716D01*
X148782179Y-61248784D01*
X148840674Y-61068756D01*
X148860460Y-60880500D01*
X148840674Y-60692244D01*
X148782600Y-60513511D01*
X148782181Y-60512222D01*
X148782180Y-60512221D01*
X148782179Y-60512216D01*
X148687533Y-60348284D01*
X148560871Y-60207612D01*
X148544294Y-60195568D01*
X148407734Y-60096351D01*
X148407729Y-60096348D01*
X148234807Y-60019357D01*
X148234802Y-60019355D01*
X148073395Y-59985048D01*
X148049646Y-59980000D01*
X147860354Y-59980000D01*
X147836605Y-59985048D01*
X147675197Y-60019355D01*
X147675192Y-60019357D01*
X147502270Y-60096348D01*
X147502265Y-60096351D01*
X147349129Y-60207611D01*
X147222466Y-60348285D01*
X147127821Y-60512215D01*
X147127818Y-60512222D01*
X147070040Y-60690047D01*
X147069326Y-60692244D01*
X147052996Y-60847618D01*
X147049540Y-60880501D01*
X147052903Y-60912504D01*
X147040332Y-60981234D01*
X147017263Y-61013144D01*
X146936208Y-61094199D01*
X146923951Y-61104020D01*
X146924134Y-61104241D01*
X146918123Y-61109213D01*
X146870772Y-61159636D01*
X146849889Y-61180519D01*
X146849877Y-61180532D01*
X146845621Y-61186017D01*
X146841837Y-61190447D01*
X146809937Y-61224418D01*
X146809936Y-61224420D01*
X146800284Y-61241976D01*
X146789610Y-61258226D01*
X146777329Y-61274061D01*
X146777324Y-61274068D01*
X146758815Y-61316838D01*
X146756245Y-61322084D01*
X146733803Y-61362906D01*
X146728822Y-61382307D01*
X146722521Y-61400710D01*
X146714562Y-61419102D01*
X146714561Y-61419105D01*
X146707271Y-61465127D01*
X146706087Y-61470846D01*
X146694501Y-61515972D01*
X146694500Y-61515982D01*
X146694500Y-61536016D01*
X146692973Y-61555413D01*
X146689840Y-61575196D01*
X146693365Y-61612482D01*
X146694225Y-61621583D01*
X146694500Y-61627421D01*
X146694500Y-61630812D01*
X146674815Y-61697851D01*
X146662650Y-61713784D01*
X146587466Y-61797284D01*
X146492821Y-61961215D01*
X146492818Y-61961222D01*
X146434327Y-62141240D01*
X146434326Y-62141244D01*
X146414540Y-62329500D01*
X144599706Y-62329500D01*
X144650134Y-62257482D01*
X144746265Y-62051326D01*
X144746269Y-62051317D01*
X144798872Y-61855000D01*
X143835686Y-61855000D01*
X143847641Y-61843045D01*
X143905165Y-61730148D01*
X143924986Y-61605000D01*
X143905165Y-61479852D01*
X143847641Y-61366955D01*
X143835686Y-61355000D01*
X144798872Y-61355000D01*
X144798872Y-61354999D01*
X144746269Y-61158682D01*
X144746265Y-61158673D01*
X144650134Y-60952517D01*
X144519657Y-60766179D01*
X144358820Y-60605342D01*
X144172482Y-60474865D01*
X144114133Y-60447657D01*
X144061694Y-60401484D01*
X144042542Y-60334291D01*
X144062758Y-60267410D01*
X144114129Y-60222895D01*
X144172734Y-60195568D01*
X144359139Y-60065047D01*
X144520047Y-59904139D01*
X144650568Y-59717734D01*
X144746739Y-59511496D01*
X144805635Y-59291692D01*
X144825468Y-59065000D01*
X144823041Y-59037265D01*
X144818618Y-58986705D01*
X144805635Y-58838308D01*
X144751614Y-58636697D01*
X144746741Y-58618511D01*
X144746738Y-58618502D01*
X144727288Y-58576792D01*
X144650568Y-58412266D01*
X144524166Y-58231744D01*
X144520045Y-58225858D01*
X144359141Y-58064954D01*
X144172734Y-57934432D01*
X144172728Y-57934429D01*
X144114725Y-57907382D01*
X144062285Y-57861210D01*
X144043133Y-57794017D01*
X144045858Y-57785000D01*
X149225001Y-57785000D01*
X150307398Y-57785000D01*
X150374437Y-57804685D01*
X150420192Y-57857489D01*
X150430136Y-57926647D01*
X150401111Y-57990203D01*
X150378521Y-58010575D01*
X150300858Y-58064954D01*
X150139954Y-58225858D01*
X150009432Y-58412265D01*
X150009431Y-58412267D01*
X149913261Y-58618502D01*
X149913258Y-58618511D01*
X149854366Y-58838302D01*
X149854364Y-58838313D01*
X149834532Y-59064998D01*
X149834532Y-59065001D01*
X149854364Y-59291686D01*
X149854366Y-59291697D01*
X149913258Y-59511488D01*
X149913261Y-59511497D01*
X150009431Y-59717732D01*
X150009432Y-59717734D01*
X150139954Y-59904141D01*
X150300858Y-60065045D01*
X150300861Y-60065047D01*
X150487266Y-60195568D01*
X150545275Y-60222618D01*
X150597714Y-60268791D01*
X150616866Y-60335984D01*
X150596650Y-60402865D01*
X150545275Y-60447382D01*
X150487267Y-60474431D01*
X150487265Y-60474432D01*
X150300858Y-60604954D01*
X150139954Y-60765858D01*
X150009432Y-60952265D01*
X150009431Y-60952267D01*
X149913261Y-61158502D01*
X149913258Y-61158511D01*
X149854366Y-61378302D01*
X149854364Y-61378313D01*
X149834532Y-61604998D01*
X149834532Y-61605001D01*
X149854364Y-61831686D01*
X149854366Y-61831697D01*
X149913258Y-62051488D01*
X149913261Y-62051497D01*
X150009431Y-62257732D01*
X150009432Y-62257734D01*
X150139954Y-62444141D01*
X150300858Y-62605045D01*
X150300861Y-62605047D01*
X150487266Y-62735568D01*
X150693504Y-62831739D01*
X150913308Y-62890635D01*
X151075230Y-62904801D01*
X151139998Y-62910468D01*
X151140000Y-62910468D01*
X151140002Y-62910468D01*
X151197505Y-62905437D01*
X151366692Y-62890635D01*
X151586496Y-62831739D01*
X151792734Y-62735568D01*
X151979139Y-62605047D01*
X152140047Y-62444139D01*
X152270568Y-62257734D01*
X152366739Y-62051496D01*
X152425635Y-61831692D01*
X152445468Y-61605000D01*
X152443041Y-61577265D01*
X152433731Y-61470846D01*
X152425635Y-61378308D01*
X152374728Y-61188319D01*
X152366741Y-61158511D01*
X152366738Y-61158502D01*
X152270568Y-60952266D01*
X152144899Y-60772791D01*
X152140045Y-60765858D01*
X151979141Y-60604954D01*
X151792734Y-60474432D01*
X151792728Y-60474429D01*
X151765038Y-60461517D01*
X151734724Y-60447381D01*
X151682285Y-60401210D01*
X151663133Y-60334017D01*
X151683348Y-60267135D01*
X151734725Y-60222618D01*
X151792734Y-60195568D01*
X151979139Y-60065047D01*
X152140047Y-59904139D01*
X152270568Y-59717734D01*
X152366739Y-59511496D01*
X152425635Y-59291692D01*
X152445468Y-59065000D01*
X152443041Y-59037265D01*
X152438618Y-58986705D01*
X152425635Y-58838308D01*
X152371614Y-58636697D01*
X152366741Y-58618511D01*
X152366738Y-58618502D01*
X152347288Y-58576792D01*
X152270568Y-58412266D01*
X152144166Y-58231744D01*
X152140045Y-58225858D01*
X151979141Y-58064954D01*
X151901479Y-58010575D01*
X151857854Y-57955998D01*
X151850660Y-57886500D01*
X151882183Y-57824145D01*
X151942412Y-57788731D01*
X151972602Y-57785000D01*
X152920500Y-57785000D01*
X152987539Y-57804685D01*
X153033294Y-57857489D01*
X153044500Y-57909000D01*
X153044500Y-58349152D01*
X153042305Y-58372379D01*
X153040773Y-58380412D01*
X153044378Y-58437724D01*
X153044500Y-58441595D01*
X153044500Y-58459356D01*
X153046725Y-58476968D01*
X153047091Y-58480843D01*
X153050696Y-58538138D01*
X153053222Y-58545914D01*
X153058309Y-58568672D01*
X153059334Y-58576784D01*
X153059336Y-58576792D01*
X153080469Y-58630170D01*
X153081788Y-58633833D01*
X153099532Y-58688440D01*
X153103907Y-58695333D01*
X153114503Y-58716129D01*
X153117511Y-58723726D01*
X153117513Y-58723731D01*
X153151265Y-58770187D01*
X153153455Y-58773409D01*
X153184213Y-58821876D01*
X153190164Y-58827464D01*
X153205604Y-58844978D01*
X153210403Y-58851585D01*
X153254647Y-58888187D01*
X153257567Y-58890761D01*
X153299418Y-58930062D01*
X153306578Y-58933998D01*
X153325879Y-58947114D01*
X153332177Y-58952324D01*
X153332178Y-58952324D01*
X153332179Y-58952325D01*
X153384125Y-58976769D01*
X153387597Y-58978538D01*
X153437903Y-59006195D01*
X153437905Y-59006195D01*
X153437908Y-59006197D01*
X153443205Y-59007556D01*
X153445814Y-59008227D01*
X153467777Y-59016133D01*
X153475174Y-59019614D01*
X153531576Y-59030373D01*
X153535362Y-59031219D01*
X153590981Y-59045500D01*
X153599153Y-59045500D01*
X153622380Y-59047694D01*
X153630412Y-59049227D01*
X153630414Y-59049226D01*
X153633215Y-59049761D01*
X153695380Y-59081655D01*
X153730434Y-59142095D01*
X153727247Y-59211892D01*
X153722370Y-59223969D01*
X153713262Y-59243501D01*
X153713258Y-59243511D01*
X153654366Y-59463302D01*
X153654364Y-59463313D01*
X153634532Y-59689998D01*
X153634532Y-59690001D01*
X153654364Y-59916686D01*
X153654366Y-59916697D01*
X153713258Y-60136488D01*
X153713261Y-60136497D01*
X153809431Y-60342732D01*
X153809432Y-60342734D01*
X153939954Y-60529141D01*
X154100858Y-60690045D01*
X154100861Y-60690047D01*
X154287266Y-60820568D01*
X154345865Y-60847893D01*
X154398305Y-60894065D01*
X154417457Y-60961258D01*
X154397242Y-61028139D01*
X154345867Y-61072657D01*
X154287515Y-61099867D01*
X154101179Y-61230342D01*
X153940342Y-61391179D01*
X153809865Y-61577517D01*
X153713734Y-61783673D01*
X153713730Y-61783682D01*
X153661127Y-61979999D01*
X153661128Y-61980000D01*
X154624314Y-61980000D01*
X154612359Y-61991955D01*
X154554835Y-62104852D01*
X154535014Y-62230000D01*
X154554835Y-62355148D01*
X154612359Y-62468045D01*
X154624314Y-62480000D01*
X153661128Y-62480000D01*
X153713730Y-62676317D01*
X153713734Y-62676326D01*
X153809865Y-62882482D01*
X153940342Y-63068820D01*
X154101179Y-63229657D01*
X154287517Y-63360134D01*
X154493673Y-63456265D01*
X154493682Y-63456269D01*
X154689999Y-63508872D01*
X154690000Y-63508871D01*
X154690000Y-62545686D01*
X154701955Y-62557641D01*
X154814852Y-62615165D01*
X154908519Y-62630000D01*
X154971481Y-62630000D01*
X155065148Y-62615165D01*
X155178045Y-62557641D01*
X155190000Y-62545686D01*
X155190000Y-63508871D01*
X155283406Y-63483844D01*
X155353256Y-63485507D01*
X155411119Y-63524669D01*
X155438623Y-63588898D01*
X155439500Y-63603619D01*
X155439500Y-64542255D01*
X155437775Y-64557872D01*
X155438061Y-64557899D01*
X155437326Y-64565665D01*
X155439500Y-64634814D01*
X155439500Y-64664343D01*
X155439501Y-64664360D01*
X155440368Y-64671231D01*
X155440826Y-64677050D01*
X155442290Y-64723624D01*
X155442291Y-64723627D01*
X155447880Y-64742867D01*
X155451824Y-64761911D01*
X155454336Y-64781792D01*
X155461743Y-64800500D01*
X155471490Y-64825119D01*
X155473382Y-64830647D01*
X155486381Y-64875388D01*
X155496580Y-64892634D01*
X155505136Y-64910100D01*
X155512514Y-64928732D01*
X155535778Y-64960753D01*
X155539898Y-64966423D01*
X155543106Y-64971307D01*
X155566827Y-65011416D01*
X155566833Y-65011424D01*
X155580990Y-65025580D01*
X155593628Y-65040376D01*
X155605405Y-65056586D01*
X155605406Y-65056587D01*
X155641309Y-65086288D01*
X155645620Y-65090210D01*
X155884445Y-65329035D01*
X156119066Y-65563656D01*
X156152551Y-65624979D01*
X156147567Y-65694671D01*
X156105695Y-65750604D01*
X156051903Y-65771702D01*
X156052211Y-65773149D01*
X156045855Y-65774500D01*
X156045854Y-65774500D01*
X156030197Y-65777828D01*
X155860697Y-65813855D01*
X155860692Y-65813857D01*
X155687770Y-65890848D01*
X155687765Y-65890851D01*
X155534629Y-66002111D01*
X155407966Y-66142785D01*
X155313321Y-66306715D01*
X155313318Y-66306722D01*
X155254906Y-66486497D01*
X155254826Y-66486744D01*
X155235040Y-66675000D01*
X155254826Y-66863256D01*
X155254964Y-66863682D01*
X155313318Y-67043277D01*
X155313321Y-67043284D01*
X155407967Y-67207216D01*
X155509068Y-67319500D01*
X155534629Y-67347888D01*
X155687765Y-67459148D01*
X155687770Y-67459151D01*
X155860692Y-67536142D01*
X155860697Y-67536144D01*
X156045854Y-67575500D01*
X156105048Y-67575500D01*
X156172087Y-67595185D01*
X156192728Y-67611818D01*
X156575414Y-67994505D01*
X156909697Y-68328788D01*
X156919522Y-68341051D01*
X156919743Y-68340869D01*
X156924714Y-68346878D01*
X156950717Y-68371295D01*
X156975135Y-68394226D01*
X156996029Y-68415120D01*
X157001511Y-68419373D01*
X157005943Y-68423157D01*
X157039918Y-68455062D01*
X157057476Y-68464714D01*
X157073735Y-68475395D01*
X157089564Y-68487673D01*
X157132338Y-68506182D01*
X157137556Y-68508738D01*
X157178408Y-68531197D01*
X157197816Y-68536180D01*
X157216217Y-68542480D01*
X157234604Y-68550437D01*
X157277988Y-68557308D01*
X157280619Y-68557725D01*
X157286339Y-68558909D01*
X157331481Y-68570500D01*
X157351516Y-68570500D01*
X157370914Y-68572026D01*
X157390694Y-68575159D01*
X157390695Y-68575160D01*
X157390695Y-68575159D01*
X157390696Y-68575160D01*
X157437084Y-68570775D01*
X157442922Y-68570500D01*
X159951252Y-68570500D01*
X160018291Y-68590185D01*
X160043400Y-68611526D01*
X160049126Y-68617885D01*
X160049130Y-68617889D01*
X160202265Y-68729148D01*
X160202270Y-68729151D01*
X160375192Y-68806142D01*
X160375197Y-68806144D01*
X160560354Y-68845500D01*
X160560355Y-68845500D01*
X160749644Y-68845500D01*
X160749646Y-68845500D01*
X160934803Y-68806144D01*
X161107730Y-68729151D01*
X161260871Y-68617888D01*
X161387533Y-68477216D01*
X161482179Y-68313284D01*
X161540674Y-68133256D01*
X161560460Y-67945000D01*
X161540674Y-67756744D01*
X161482179Y-67576716D01*
X161387533Y-67412784D01*
X161260871Y-67272112D01*
X161260870Y-67272111D01*
X161107734Y-67160851D01*
X161107729Y-67160848D01*
X160934807Y-67083857D01*
X160934802Y-67083855D01*
X160789001Y-67052865D01*
X160749646Y-67044500D01*
X160560354Y-67044500D01*
X160527897Y-67051398D01*
X160375197Y-67083855D01*
X160375192Y-67083857D01*
X160202270Y-67160848D01*
X160202265Y-67160851D01*
X160049130Y-67272110D01*
X160049126Y-67272114D01*
X160043400Y-67278474D01*
X159983913Y-67315121D01*
X159951252Y-67319500D01*
X158997480Y-67319500D01*
X158930441Y-67299815D01*
X158884686Y-67247011D01*
X158874742Y-67177853D01*
X158890093Y-67133500D01*
X158916094Y-67088464D01*
X158942179Y-67043284D01*
X159000674Y-66863256D01*
X159020460Y-66675000D01*
X159000674Y-66486744D01*
X158942179Y-66306716D01*
X158847533Y-66142784D01*
X158720871Y-66002112D01*
X158720870Y-66002111D01*
X158567734Y-65890851D01*
X158567729Y-65890848D01*
X158394807Y-65813857D01*
X158394802Y-65813855D01*
X158225303Y-65777828D01*
X158209646Y-65774500D01*
X158209645Y-65774500D01*
X158150452Y-65774500D01*
X158083413Y-65754815D01*
X158062771Y-65738181D01*
X156726819Y-64402228D01*
X156693334Y-64340905D01*
X156690500Y-64314547D01*
X156690500Y-64155000D01*
X165499341Y-64155000D01*
X165519936Y-64390403D01*
X165519938Y-64390413D01*
X165581094Y-64618655D01*
X165581096Y-64618659D01*
X165581097Y-64618663D01*
X165602406Y-64664360D01*
X165680964Y-64832828D01*
X165680965Y-64832830D01*
X165816505Y-65026402D01*
X165964067Y-65173964D01*
X165997552Y-65235287D01*
X165992568Y-65304979D01*
X165950696Y-65360912D01*
X165941483Y-65367183D01*
X165786659Y-65462680D01*
X165786655Y-65462683D01*
X165662684Y-65586654D01*
X165570643Y-65735875D01*
X165570641Y-65735880D01*
X165515494Y-65902302D01*
X165515493Y-65902309D01*
X165505000Y-66005013D01*
X165505000Y-66405000D01*
X166571314Y-66405000D01*
X166545507Y-66445156D01*
X166505000Y-66583111D01*
X166505000Y-66726889D01*
X166545507Y-66864844D01*
X166571314Y-66905000D01*
X165505001Y-66905000D01*
X165505001Y-67304986D01*
X165515494Y-67407697D01*
X165570641Y-67574119D01*
X165570643Y-67574124D01*
X165662684Y-67723345D01*
X165786654Y-67847315D01*
X165935875Y-67939356D01*
X165935880Y-67939358D01*
X166102302Y-67994505D01*
X166102309Y-67994506D01*
X166205019Y-68004999D01*
X166754999Y-68004999D01*
X166755000Y-68004998D01*
X166755000Y-67090501D01*
X166862685Y-67139680D01*
X166969237Y-67155000D01*
X167040763Y-67155000D01*
X167147315Y-67139680D01*
X167255000Y-67090501D01*
X167255000Y-68004999D01*
X167804972Y-68004999D01*
X167804986Y-68004998D01*
X167907697Y-67994505D01*
X168074119Y-67939358D01*
X168074124Y-67939356D01*
X168223345Y-67847315D01*
X168347315Y-67723345D01*
X168439356Y-67574124D01*
X168439358Y-67574119D01*
X168494505Y-67407697D01*
X168494506Y-67407690D01*
X168504999Y-67304986D01*
X168505000Y-67304973D01*
X168505000Y-66905000D01*
X167438686Y-66905000D01*
X167464493Y-66864844D01*
X167505000Y-66726889D01*
X167505000Y-66583111D01*
X167464493Y-66445156D01*
X167438686Y-66405000D01*
X168504999Y-66405000D01*
X168504999Y-66005028D01*
X168504998Y-66005013D01*
X168494505Y-65902302D01*
X168439358Y-65735880D01*
X168439356Y-65735875D01*
X168347315Y-65586654D01*
X168223344Y-65462683D01*
X168223340Y-65462680D01*
X168068516Y-65367183D01*
X168021791Y-65315235D01*
X168010570Y-65246273D01*
X168038413Y-65182191D01*
X168045932Y-65173964D01*
X168193495Y-65026401D01*
X168329035Y-64832830D01*
X168428903Y-64618663D01*
X168490063Y-64390408D01*
X168510659Y-64155000D01*
X168490063Y-63919592D01*
X168428903Y-63691337D01*
X168329035Y-63477171D01*
X168329034Y-63477169D01*
X168193494Y-63283597D01*
X168026402Y-63116505D01*
X167832830Y-62980965D01*
X167832828Y-62980964D01*
X167725746Y-62931031D01*
X167618663Y-62881097D01*
X167618659Y-62881096D01*
X167618655Y-62881094D01*
X167390413Y-62819938D01*
X167390403Y-62819936D01*
X167213966Y-62804500D01*
X166796034Y-62804500D01*
X166619596Y-62819936D01*
X166619586Y-62819938D01*
X166391344Y-62881094D01*
X166391337Y-62881096D01*
X166391337Y-62881097D01*
X166385388Y-62883871D01*
X166177171Y-62980964D01*
X166177169Y-62980965D01*
X165983597Y-63116505D01*
X165816506Y-63283597D01*
X165816501Y-63283604D01*
X165680967Y-63477165D01*
X165680965Y-63477169D01*
X165581098Y-63691335D01*
X165581094Y-63691344D01*
X165519938Y-63919586D01*
X165519936Y-63919596D01*
X165499341Y-64154999D01*
X165499341Y-64155000D01*
X156690500Y-64155000D01*
X156690500Y-60897737D01*
X156692224Y-60882123D01*
X156691938Y-60882096D01*
X156692672Y-60874333D01*
X156690500Y-60805203D01*
X156690500Y-60775651D01*
X156690500Y-60775650D01*
X156689629Y-60768759D01*
X156689172Y-60762945D01*
X156688210Y-60732335D01*
X156687709Y-60716373D01*
X156686425Y-60711955D01*
X156682122Y-60697144D01*
X156678174Y-60678084D01*
X156675664Y-60658208D01*
X156658507Y-60614875D01*
X156656619Y-60609359D01*
X156643619Y-60564612D01*
X156640891Y-60560000D01*
X156638919Y-60556665D01*
X156633418Y-60547363D01*
X156624860Y-60529894D01*
X156617486Y-60511268D01*
X156617483Y-60511264D01*
X156617483Y-60511263D01*
X156590098Y-60473571D01*
X156586890Y-60468687D01*
X156563172Y-60428582D01*
X156563163Y-60428571D01*
X156549005Y-60414413D01*
X156536370Y-60399620D01*
X156524593Y-60383412D01*
X156488693Y-60353713D01*
X156484381Y-60349790D01*
X156239413Y-60104822D01*
X156205928Y-60043499D01*
X156207319Y-59985048D01*
X156216722Y-59949954D01*
X156225635Y-59916692D01*
X156245468Y-59690000D01*
X156243978Y-59672974D01*
X156233269Y-59550566D01*
X156225635Y-59463308D01*
X156189755Y-59329401D01*
X156191418Y-59259553D01*
X156230580Y-59201690D01*
X156294809Y-59174186D01*
X156363711Y-59185772D01*
X156382413Y-59196990D01*
X156388883Y-59201690D01*
X156392269Y-59204150D01*
X156392270Y-59204151D01*
X156565192Y-59281142D01*
X156565197Y-59281144D01*
X156750354Y-59320500D01*
X156750355Y-59320500D01*
X156939644Y-59320500D01*
X156939646Y-59320500D01*
X157124803Y-59281144D01*
X157297730Y-59204151D01*
X157450871Y-59092888D01*
X157577533Y-58952216D01*
X157672179Y-58788284D01*
X157730674Y-58608256D01*
X157750460Y-58420000D01*
X157730674Y-58231744D01*
X157672179Y-58051716D01*
X157625576Y-57970998D01*
X157609105Y-57903099D01*
X157631958Y-57837072D01*
X157686880Y-57793882D01*
X157732965Y-57785000D01*
X161352464Y-57785000D01*
X161419503Y-57804685D01*
X161454039Y-57837877D01*
X161559954Y-57989141D01*
X161720858Y-58150045D01*
X161720861Y-58150047D01*
X161907266Y-58280568D01*
X161965275Y-58307618D01*
X162017714Y-58353791D01*
X162036866Y-58420984D01*
X162016650Y-58487865D01*
X161965275Y-58532381D01*
X161959626Y-58535016D01*
X161907267Y-58559431D01*
X161907265Y-58559432D01*
X161720858Y-58689954D01*
X161559954Y-58850858D01*
X161429432Y-59037265D01*
X161429431Y-59037267D01*
X161333261Y-59243502D01*
X161333258Y-59243511D01*
X161274366Y-59463302D01*
X161274364Y-59463313D01*
X161254532Y-59689998D01*
X161254532Y-59690001D01*
X161274364Y-59916686D01*
X161274366Y-59916697D01*
X161333258Y-60136488D01*
X161333261Y-60136497D01*
X161429431Y-60342732D01*
X161429432Y-60342734D01*
X161559954Y-60529141D01*
X161720858Y-60690045D01*
X161720861Y-60690047D01*
X161907266Y-60820568D01*
X161965275Y-60847618D01*
X162017714Y-60893791D01*
X162036866Y-60960984D01*
X162016650Y-61027865D01*
X161965275Y-61072382D01*
X161907267Y-61099431D01*
X161907265Y-61099432D01*
X161720858Y-61229954D01*
X161559954Y-61390858D01*
X161429432Y-61577265D01*
X161429431Y-61577267D01*
X161333261Y-61783502D01*
X161333258Y-61783511D01*
X161274366Y-62003302D01*
X161274364Y-62003313D01*
X161254532Y-62229998D01*
X161254532Y-62230001D01*
X161274364Y-62456686D01*
X161274366Y-62456697D01*
X161333258Y-62676488D01*
X161333261Y-62676497D01*
X161429431Y-62882732D01*
X161429432Y-62882734D01*
X161559954Y-63069141D01*
X161720858Y-63230045D01*
X161720861Y-63230047D01*
X161907266Y-63360568D01*
X162113504Y-63456739D01*
X162333308Y-63515635D01*
X162495230Y-63529801D01*
X162559998Y-63535468D01*
X162560000Y-63535468D01*
X162560002Y-63535468D01*
X162616673Y-63530509D01*
X162786692Y-63515635D01*
X163006496Y-63456739D01*
X163212734Y-63360568D01*
X163399139Y-63230047D01*
X163560047Y-63069139D01*
X163690568Y-62882734D01*
X163786739Y-62676496D01*
X163845635Y-62456692D01*
X163865220Y-62232830D01*
X163865468Y-62230001D01*
X163865468Y-62229998D01*
X163857702Y-62141240D01*
X163845635Y-62003308D01*
X163788588Y-61790403D01*
X163786741Y-61783511D01*
X163786738Y-61783502D01*
X163767218Y-61741642D01*
X163690568Y-61577266D01*
X163592839Y-61437693D01*
X163560045Y-61390858D01*
X163399141Y-61229954D01*
X163212734Y-61099432D01*
X163212728Y-61099429D01*
X163182102Y-61085148D01*
X163154724Y-61072381D01*
X163102285Y-61026210D01*
X163083133Y-60959017D01*
X163103348Y-60892135D01*
X163154725Y-60847618D01*
X163212734Y-60820568D01*
X163399139Y-60690047D01*
X163560047Y-60529139D01*
X163690568Y-60342734D01*
X163786739Y-60136496D01*
X163845635Y-59916692D01*
X163865468Y-59690000D01*
X163863978Y-59672974D01*
X163853269Y-59550566D01*
X163845635Y-59463308D01*
X163790928Y-59259139D01*
X163786741Y-59243511D01*
X163786738Y-59243502D01*
X163719920Y-59100211D01*
X163690568Y-59037266D01*
X163560047Y-58850861D01*
X163560045Y-58850858D01*
X163399141Y-58689954D01*
X163212734Y-58559432D01*
X163212728Y-58559429D01*
X163160374Y-58535016D01*
X163154724Y-58532381D01*
X163102285Y-58486210D01*
X163083133Y-58419017D01*
X163103348Y-58352135D01*
X163154725Y-58307618D01*
X163212734Y-58280568D01*
X163399139Y-58150047D01*
X163560047Y-57989139D01*
X163649623Y-57861210D01*
X163665961Y-57837877D01*
X163720537Y-57794252D01*
X163767536Y-57785000D01*
X165100000Y-57785000D01*
X166013262Y-57785000D01*
X166102302Y-57814505D01*
X166102309Y-57814506D01*
X166205019Y-57824999D01*
X166754999Y-57824999D01*
X166755000Y-57824998D01*
X166755000Y-57785000D01*
X167255000Y-57785000D01*
X167255000Y-57824999D01*
X167804972Y-57824999D01*
X167804986Y-57824998D01*
X167907697Y-57814505D01*
X167996737Y-57785000D01*
X170179500Y-57785000D01*
X170179500Y-81663500D01*
X170159815Y-81730539D01*
X170107011Y-81776294D01*
X170055500Y-81787500D01*
X101724000Y-81787500D01*
X101656961Y-81767815D01*
X101611206Y-81715011D01*
X101600000Y-81663500D01*
X101600000Y-77978966D01*
X110429500Y-77978966D01*
X110444936Y-78155403D01*
X110444938Y-78155413D01*
X110506094Y-78383655D01*
X110506096Y-78383659D01*
X110506097Y-78383663D01*
X110539555Y-78455413D01*
X110605964Y-78597828D01*
X110605965Y-78597830D01*
X110741505Y-78791402D01*
X110847932Y-78897828D01*
X110908599Y-78958495D01*
X111005384Y-79026265D01*
X111102165Y-79094032D01*
X111102167Y-79094033D01*
X111102170Y-79094035D01*
X111316337Y-79193903D01*
X111316343Y-79193904D01*
X111316344Y-79193905D01*
X111355356Y-79204358D01*
X111544592Y-79255063D01*
X111732918Y-79271539D01*
X111779999Y-79275659D01*
X111780000Y-79275659D01*
X111780001Y-79275659D01*
X111819234Y-79272226D01*
X112015408Y-79255063D01*
X112243663Y-79193903D01*
X112457829Y-79094035D01*
X112651401Y-78958495D01*
X112798965Y-78810930D01*
X112860287Y-78777447D01*
X112929978Y-78782431D01*
X112985912Y-78824302D01*
X112992183Y-78833516D01*
X113087680Y-78988340D01*
X113087683Y-78988344D01*
X113211654Y-79112315D01*
X113360875Y-79204356D01*
X113360880Y-79204358D01*
X113527302Y-79259505D01*
X113527309Y-79259506D01*
X113630019Y-79269999D01*
X114029999Y-79269999D01*
X114030000Y-79269998D01*
X114030000Y-78205501D01*
X114137685Y-78254680D01*
X114244237Y-78270000D01*
X114315763Y-78270000D01*
X114422315Y-78254680D01*
X114530000Y-78205501D01*
X114530000Y-79269999D01*
X114929972Y-79269999D01*
X114929986Y-79269998D01*
X115032697Y-79259505D01*
X115199119Y-79204358D01*
X115199124Y-79204356D01*
X115348345Y-79112315D01*
X115472315Y-78988345D01*
X115564356Y-78839124D01*
X115564358Y-78839119D01*
X115619505Y-78672697D01*
X115619506Y-78672690D01*
X115629999Y-78569986D01*
X115630000Y-78569973D01*
X115630000Y-78020000D01*
X114713686Y-78020000D01*
X114739493Y-77979844D01*
X114739751Y-77978966D01*
X119319500Y-77978966D01*
X119334936Y-78155403D01*
X119334938Y-78155413D01*
X119396094Y-78383655D01*
X119396096Y-78383659D01*
X119396097Y-78383663D01*
X119429555Y-78455413D01*
X119495964Y-78597828D01*
X119495965Y-78597830D01*
X119631505Y-78791402D01*
X119737932Y-78897828D01*
X119798599Y-78958495D01*
X119895384Y-79026265D01*
X119992165Y-79094032D01*
X119992167Y-79094033D01*
X119992170Y-79094035D01*
X120206337Y-79193903D01*
X120206343Y-79193904D01*
X120206344Y-79193905D01*
X120245356Y-79204358D01*
X120434592Y-79255063D01*
X120622918Y-79271539D01*
X120669999Y-79275659D01*
X120670000Y-79275659D01*
X120670001Y-79275659D01*
X120709234Y-79272226D01*
X120905408Y-79255063D01*
X121133663Y-79193903D01*
X121347829Y-79094035D01*
X121541401Y-78958495D01*
X121688965Y-78810930D01*
X121750287Y-78777447D01*
X121819978Y-78782431D01*
X121875912Y-78824302D01*
X121882183Y-78833516D01*
X121977680Y-78988340D01*
X121977683Y-78988344D01*
X122101654Y-79112315D01*
X122250875Y-79204356D01*
X122250880Y-79204358D01*
X122417302Y-79259505D01*
X122417309Y-79259506D01*
X122520019Y-79269999D01*
X122919999Y-79269999D01*
X122920000Y-79269998D01*
X122920000Y-78205501D01*
X123027685Y-78254680D01*
X123134237Y-78270000D01*
X123205763Y-78270000D01*
X123312315Y-78254680D01*
X123420000Y-78205501D01*
X123420000Y-79269999D01*
X123819972Y-79269999D01*
X123819986Y-79269998D01*
X123922697Y-79259505D01*
X124089119Y-79204358D01*
X124089124Y-79204356D01*
X124238345Y-79112315D01*
X124362315Y-78988345D01*
X124454356Y-78839124D01*
X124454358Y-78839119D01*
X124509505Y-78672697D01*
X124509506Y-78672690D01*
X124519999Y-78569986D01*
X124520000Y-78569973D01*
X124520000Y-78020000D01*
X123603686Y-78020000D01*
X123629493Y-77979844D01*
X123629751Y-77978966D01*
X128209500Y-77978966D01*
X128224936Y-78155403D01*
X128224938Y-78155413D01*
X128286094Y-78383655D01*
X128286096Y-78383659D01*
X128286097Y-78383663D01*
X128319555Y-78455413D01*
X128385964Y-78597828D01*
X128385965Y-78597830D01*
X128521505Y-78791402D01*
X128627932Y-78897828D01*
X128688599Y-78958495D01*
X128785384Y-79026265D01*
X128882165Y-79094032D01*
X128882167Y-79094033D01*
X128882170Y-79094035D01*
X129096337Y-79193903D01*
X129096343Y-79193904D01*
X129096344Y-79193905D01*
X129135356Y-79204358D01*
X129324592Y-79255063D01*
X129512918Y-79271539D01*
X129559999Y-79275659D01*
X129560000Y-79275659D01*
X129560001Y-79275659D01*
X129599234Y-79272226D01*
X129795408Y-79255063D01*
X130023663Y-79193903D01*
X130237829Y-79094035D01*
X130431401Y-78958495D01*
X130578965Y-78810930D01*
X130640287Y-78777447D01*
X130709978Y-78782431D01*
X130765912Y-78824302D01*
X130772183Y-78833516D01*
X130867680Y-78988340D01*
X130867683Y-78988344D01*
X130991654Y-79112315D01*
X131140875Y-79204356D01*
X131140880Y-79204358D01*
X131307302Y-79259505D01*
X131307309Y-79259506D01*
X131410019Y-79269999D01*
X131809999Y-79269999D01*
X131810000Y-79269998D01*
X131810000Y-78205501D01*
X131917685Y-78254680D01*
X132024237Y-78270000D01*
X132095763Y-78270000D01*
X132202315Y-78254680D01*
X132310000Y-78205501D01*
X132310000Y-79269999D01*
X132709972Y-79269999D01*
X132709986Y-79269998D01*
X132812697Y-79259505D01*
X132979119Y-79204358D01*
X132979124Y-79204356D01*
X133128345Y-79112315D01*
X133252315Y-78988345D01*
X133344356Y-78839124D01*
X133344358Y-78839119D01*
X133399505Y-78672697D01*
X133399506Y-78672690D01*
X133409999Y-78569986D01*
X133410000Y-78569973D01*
X133410000Y-78020000D01*
X132493686Y-78020000D01*
X132519493Y-77979844D01*
X132519751Y-77978966D01*
X137099500Y-77978966D01*
X137114936Y-78155403D01*
X137114938Y-78155413D01*
X137176094Y-78383655D01*
X137176096Y-78383659D01*
X137176097Y-78383663D01*
X137209555Y-78455413D01*
X137275964Y-78597828D01*
X137275965Y-78597830D01*
X137411505Y-78791402D01*
X137517932Y-78897828D01*
X137578599Y-78958495D01*
X137675384Y-79026265D01*
X137772165Y-79094032D01*
X137772167Y-79094033D01*
X137772170Y-79094035D01*
X137986337Y-79193903D01*
X137986343Y-79193904D01*
X137986344Y-79193905D01*
X138025356Y-79204358D01*
X138214592Y-79255063D01*
X138402918Y-79271539D01*
X138449999Y-79275659D01*
X138450000Y-79275659D01*
X138450001Y-79275659D01*
X138489234Y-79272226D01*
X138685408Y-79255063D01*
X138913663Y-79193903D01*
X139127829Y-79094035D01*
X139321401Y-78958495D01*
X139468965Y-78810930D01*
X139530287Y-78777447D01*
X139599978Y-78782431D01*
X139655912Y-78824302D01*
X139662183Y-78833516D01*
X139757680Y-78988340D01*
X139757683Y-78988344D01*
X139881654Y-79112315D01*
X140030875Y-79204356D01*
X140030880Y-79204358D01*
X140197302Y-79259505D01*
X140197309Y-79259506D01*
X140300019Y-79269999D01*
X140699999Y-79269999D01*
X140700000Y-79269998D01*
X140700000Y-78205501D01*
X140807685Y-78254680D01*
X140914237Y-78270000D01*
X140985763Y-78270000D01*
X141092315Y-78254680D01*
X141200000Y-78205501D01*
X141200000Y-79269999D01*
X141599972Y-79269999D01*
X141599986Y-79269998D01*
X141702697Y-79259505D01*
X141869119Y-79204358D01*
X141869124Y-79204356D01*
X142018345Y-79112315D01*
X142142315Y-78988345D01*
X142234356Y-78839124D01*
X142234358Y-78839119D01*
X142289505Y-78672697D01*
X142289506Y-78672690D01*
X142299999Y-78569986D01*
X142300000Y-78569973D01*
X142300000Y-78020000D01*
X141383686Y-78020000D01*
X141409493Y-77979844D01*
X141409751Y-77978966D01*
X145989500Y-77978966D01*
X146004936Y-78155403D01*
X146004938Y-78155413D01*
X146066094Y-78383655D01*
X146066096Y-78383659D01*
X146066097Y-78383663D01*
X146099555Y-78455413D01*
X146165964Y-78597828D01*
X146165965Y-78597830D01*
X146301505Y-78791402D01*
X146407932Y-78897828D01*
X146468599Y-78958495D01*
X146565384Y-79026265D01*
X146662165Y-79094032D01*
X146662167Y-79094033D01*
X146662170Y-79094035D01*
X146876337Y-79193903D01*
X146876343Y-79193904D01*
X146876344Y-79193905D01*
X146915356Y-79204358D01*
X147104592Y-79255063D01*
X147292918Y-79271539D01*
X147339999Y-79275659D01*
X147340000Y-79275659D01*
X147340001Y-79275659D01*
X147379234Y-79272226D01*
X147575408Y-79255063D01*
X147803663Y-79193903D01*
X148017829Y-79094035D01*
X148211401Y-78958495D01*
X148358965Y-78810930D01*
X148420287Y-78777447D01*
X148489978Y-78782431D01*
X148545912Y-78824302D01*
X148552183Y-78833516D01*
X148647680Y-78988340D01*
X148647683Y-78988344D01*
X148771654Y-79112315D01*
X148920875Y-79204356D01*
X148920880Y-79204358D01*
X149087302Y-79259505D01*
X149087309Y-79259506D01*
X149190019Y-79269999D01*
X149589999Y-79269999D01*
X149590000Y-79269998D01*
X149590000Y-78205501D01*
X149697685Y-78254680D01*
X149804237Y-78270000D01*
X149875763Y-78270000D01*
X149982315Y-78254680D01*
X150090000Y-78205501D01*
X150090000Y-79269999D01*
X150489972Y-79269999D01*
X150489986Y-79269998D01*
X150592697Y-79259505D01*
X150759119Y-79204358D01*
X150759124Y-79204356D01*
X150908345Y-79112315D01*
X151032315Y-78988345D01*
X151124356Y-78839124D01*
X151124358Y-78839119D01*
X151179505Y-78672697D01*
X151179506Y-78672690D01*
X151189999Y-78569986D01*
X151190000Y-78569973D01*
X151190000Y-78278966D01*
X155514500Y-78278966D01*
X155529936Y-78455403D01*
X155529938Y-78455413D01*
X155591094Y-78683655D01*
X155591096Y-78683659D01*
X155591097Y-78683663D01*
X155634830Y-78777447D01*
X155690964Y-78897828D01*
X155690965Y-78897830D01*
X155826505Y-79091402D01*
X155929005Y-79193901D01*
X155993599Y-79258495D01*
X156090384Y-79326265D01*
X156187165Y-79394032D01*
X156187167Y-79394033D01*
X156187170Y-79394035D01*
X156401337Y-79493903D01*
X156401343Y-79493904D01*
X156401344Y-79493905D01*
X156440356Y-79504358D01*
X156629592Y-79555063D01*
X156817918Y-79571539D01*
X156864999Y-79575659D01*
X156865000Y-79575659D01*
X156865001Y-79575659D01*
X156904234Y-79572226D01*
X157100408Y-79555063D01*
X157328663Y-79493903D01*
X157542829Y-79394035D01*
X157736401Y-79258495D01*
X157883965Y-79110930D01*
X157945287Y-79077447D01*
X158014978Y-79082431D01*
X158070912Y-79124302D01*
X158077183Y-79133516D01*
X158172680Y-79288340D01*
X158172683Y-79288344D01*
X158296654Y-79412315D01*
X158445875Y-79504356D01*
X158445880Y-79504358D01*
X158612302Y-79559505D01*
X158612309Y-79559506D01*
X158715019Y-79569999D01*
X159114999Y-79569999D01*
X159115000Y-79569998D01*
X159115000Y-78505501D01*
X159222685Y-78554680D01*
X159329237Y-78570000D01*
X159400763Y-78570000D01*
X159507315Y-78554680D01*
X159615000Y-78505501D01*
X159615000Y-79569999D01*
X160014972Y-79569999D01*
X160014986Y-79569998D01*
X160117697Y-79559505D01*
X160284119Y-79504358D01*
X160284124Y-79504356D01*
X160433345Y-79412315D01*
X160557315Y-79288345D01*
X160649356Y-79139124D01*
X160649358Y-79139119D01*
X160704505Y-78972697D01*
X160704506Y-78972690D01*
X160714999Y-78869986D01*
X160715000Y-78869973D01*
X160715000Y-78320000D01*
X159798686Y-78320000D01*
X159824493Y-78279844D01*
X159865000Y-78141889D01*
X159865000Y-77998111D01*
X159824493Y-77860156D01*
X159798686Y-77820000D01*
X160714999Y-77820000D01*
X160714999Y-77270028D01*
X160714998Y-77270013D01*
X160704505Y-77167302D01*
X160649358Y-77000880D01*
X160649356Y-77000875D01*
X160557315Y-76851654D01*
X160433345Y-76727684D01*
X160284124Y-76635643D01*
X160284119Y-76635641D01*
X160117697Y-76580494D01*
X160117690Y-76580493D01*
X160014986Y-76570000D01*
X159615000Y-76570000D01*
X159615000Y-77634498D01*
X159507315Y-77585320D01*
X159400763Y-77570000D01*
X159329237Y-77570000D01*
X159222685Y-77585320D01*
X159115000Y-77634498D01*
X159115000Y-76570000D01*
X158715028Y-76570000D01*
X158715012Y-76570001D01*
X158612302Y-76580494D01*
X158445880Y-76635641D01*
X158445875Y-76635643D01*
X158296654Y-76727684D01*
X158172683Y-76851655D01*
X158172680Y-76851659D01*
X158077183Y-77006483D01*
X158025235Y-77053208D01*
X157956272Y-77064429D01*
X157892190Y-77036586D01*
X157883964Y-77029068D01*
X157824909Y-76970013D01*
X157736401Y-76881505D01*
X157736397Y-76881502D01*
X157736396Y-76881501D01*
X157542834Y-76745967D01*
X157542830Y-76745965D01*
X157487888Y-76720345D01*
X157328663Y-76646097D01*
X157328659Y-76646096D01*
X157328655Y-76646094D01*
X157100413Y-76584938D01*
X157100403Y-76584936D01*
X156865001Y-76564341D01*
X156864999Y-76564341D01*
X156629596Y-76584936D01*
X156629586Y-76584938D01*
X156401344Y-76646094D01*
X156401335Y-76646098D01*
X156187171Y-76745964D01*
X156187169Y-76745965D01*
X155993597Y-76881505D01*
X155826505Y-77048597D01*
X155690965Y-77242169D01*
X155690964Y-77242171D01*
X155591098Y-77456335D01*
X155591094Y-77456344D01*
X155529938Y-77684586D01*
X155529936Y-77684596D01*
X155514500Y-77861034D01*
X155514500Y-78278966D01*
X151190000Y-78278966D01*
X151190000Y-78020000D01*
X150273686Y-78020000D01*
X150299493Y-77979844D01*
X150340000Y-77841889D01*
X150340000Y-77698111D01*
X150299493Y-77560156D01*
X150273686Y-77520000D01*
X151189999Y-77520000D01*
X151189999Y-76970028D01*
X151189998Y-76970013D01*
X151179505Y-76867302D01*
X151124358Y-76700880D01*
X151124356Y-76700875D01*
X151032315Y-76551654D01*
X150908345Y-76427684D01*
X150759124Y-76335643D01*
X150759119Y-76335641D01*
X150592697Y-76280494D01*
X150592690Y-76280493D01*
X150489986Y-76270000D01*
X150090000Y-76270000D01*
X150090000Y-77334498D01*
X149982315Y-77285320D01*
X149875763Y-77270000D01*
X149804237Y-77270000D01*
X149697685Y-77285320D01*
X149590000Y-77334498D01*
X149590000Y-76270000D01*
X149190028Y-76270000D01*
X149190012Y-76270001D01*
X149087302Y-76280494D01*
X148920880Y-76335641D01*
X148920875Y-76335643D01*
X148771654Y-76427684D01*
X148647683Y-76551655D01*
X148647680Y-76551659D01*
X148552183Y-76706483D01*
X148500235Y-76753208D01*
X148431272Y-76764429D01*
X148367190Y-76736586D01*
X148358964Y-76729068D01*
X148330771Y-76700875D01*
X148211401Y-76581505D01*
X148211397Y-76581502D01*
X148211396Y-76581501D01*
X148017834Y-76445967D01*
X148017830Y-76445965D01*
X147978626Y-76427684D01*
X147803663Y-76346097D01*
X147803659Y-76346096D01*
X147803655Y-76346094D01*
X147575413Y-76284938D01*
X147575403Y-76284936D01*
X147340001Y-76264341D01*
X147339999Y-76264341D01*
X147104596Y-76284936D01*
X147104586Y-76284938D01*
X146876344Y-76346094D01*
X146876335Y-76346098D01*
X146662171Y-76445964D01*
X146662169Y-76445965D01*
X146468597Y-76581505D01*
X146301505Y-76748597D01*
X146165965Y-76942169D01*
X146165964Y-76942171D01*
X146066098Y-77156335D01*
X146066094Y-77156344D01*
X146004938Y-77384586D01*
X146004936Y-77384596D01*
X145989500Y-77561034D01*
X145989500Y-77978966D01*
X141409751Y-77978966D01*
X141450000Y-77841889D01*
X141450000Y-77698111D01*
X141409493Y-77560156D01*
X141383686Y-77520000D01*
X142299999Y-77520000D01*
X142299999Y-76970028D01*
X142299998Y-76970013D01*
X142289505Y-76867302D01*
X142234358Y-76700880D01*
X142234356Y-76700875D01*
X142142315Y-76551654D01*
X142018345Y-76427684D01*
X141869124Y-76335643D01*
X141869119Y-76335641D01*
X141702697Y-76280494D01*
X141702690Y-76280493D01*
X141599986Y-76270000D01*
X141200000Y-76270000D01*
X141200000Y-77334498D01*
X141092315Y-77285320D01*
X140985763Y-77270000D01*
X140914237Y-77270000D01*
X140807685Y-77285320D01*
X140700000Y-77334498D01*
X140700000Y-76270000D01*
X140300028Y-76270000D01*
X140300012Y-76270001D01*
X140197302Y-76280494D01*
X140030880Y-76335641D01*
X140030875Y-76335643D01*
X139881654Y-76427684D01*
X139757683Y-76551655D01*
X139757680Y-76551659D01*
X139662183Y-76706483D01*
X139610235Y-76753208D01*
X139541272Y-76764429D01*
X139477190Y-76736586D01*
X139468964Y-76729068D01*
X139440771Y-76700875D01*
X139321401Y-76581505D01*
X139321397Y-76581502D01*
X139321396Y-76581501D01*
X139127834Y-76445967D01*
X139127830Y-76445965D01*
X139088626Y-76427684D01*
X138913663Y-76346097D01*
X138913659Y-76346096D01*
X138913655Y-76346094D01*
X138685413Y-76284938D01*
X138685403Y-76284936D01*
X138450001Y-76264341D01*
X138449999Y-76264341D01*
X138214596Y-76284936D01*
X138214586Y-76284938D01*
X137986344Y-76346094D01*
X137986335Y-76346098D01*
X137772171Y-76445964D01*
X137772169Y-76445965D01*
X137578597Y-76581505D01*
X137411505Y-76748597D01*
X137275965Y-76942169D01*
X137275964Y-76942171D01*
X137176098Y-77156335D01*
X137176094Y-77156344D01*
X137114938Y-77384586D01*
X137114936Y-77384596D01*
X137099500Y-77561034D01*
X137099500Y-77978966D01*
X132519751Y-77978966D01*
X132560000Y-77841889D01*
X132560000Y-77698111D01*
X132519493Y-77560156D01*
X132493686Y-77520000D01*
X133409999Y-77520000D01*
X133409999Y-76970028D01*
X133409998Y-76970013D01*
X133399505Y-76867302D01*
X133344358Y-76700880D01*
X133344356Y-76700875D01*
X133252315Y-76551654D01*
X133128345Y-76427684D01*
X132979124Y-76335643D01*
X132979119Y-76335641D01*
X132812697Y-76280494D01*
X132812690Y-76280493D01*
X132709986Y-76270000D01*
X132310000Y-76270000D01*
X132310000Y-77334498D01*
X132202315Y-77285320D01*
X132095763Y-77270000D01*
X132024237Y-77270000D01*
X131917685Y-77285320D01*
X131810000Y-77334498D01*
X131810000Y-76270000D01*
X131410028Y-76270000D01*
X131410012Y-76270001D01*
X131307302Y-76280494D01*
X131140880Y-76335641D01*
X131140875Y-76335643D01*
X130991654Y-76427684D01*
X130867683Y-76551655D01*
X130867680Y-76551659D01*
X130772183Y-76706483D01*
X130720235Y-76753208D01*
X130651272Y-76764429D01*
X130587190Y-76736586D01*
X130578964Y-76729068D01*
X130550771Y-76700875D01*
X130431401Y-76581505D01*
X130431397Y-76581502D01*
X130431396Y-76581501D01*
X130237834Y-76445967D01*
X130237830Y-76445965D01*
X130198626Y-76427684D01*
X130023663Y-76346097D01*
X130023659Y-76346096D01*
X130023655Y-76346094D01*
X129795413Y-76284938D01*
X129795403Y-76284936D01*
X129560001Y-76264341D01*
X129559999Y-76264341D01*
X129324596Y-76284936D01*
X129324586Y-76284938D01*
X129096344Y-76346094D01*
X129096335Y-76346098D01*
X128882171Y-76445964D01*
X128882169Y-76445965D01*
X128688597Y-76581505D01*
X128521505Y-76748597D01*
X128385965Y-76942169D01*
X128385964Y-76942171D01*
X128286098Y-77156335D01*
X128286094Y-77156344D01*
X128224938Y-77384586D01*
X128224936Y-77384596D01*
X128209500Y-77561034D01*
X128209500Y-77978966D01*
X123629751Y-77978966D01*
X123670000Y-77841889D01*
X123670000Y-77698111D01*
X123629493Y-77560156D01*
X123603686Y-77520000D01*
X124519999Y-77520000D01*
X124519999Y-76970028D01*
X124519998Y-76970013D01*
X124509505Y-76867302D01*
X124454358Y-76700880D01*
X124454356Y-76700875D01*
X124362315Y-76551654D01*
X124238345Y-76427684D01*
X124089124Y-76335643D01*
X124089119Y-76335641D01*
X123922697Y-76280494D01*
X123922690Y-76280493D01*
X123819986Y-76270000D01*
X123420000Y-76270000D01*
X123420000Y-77334498D01*
X123312315Y-77285320D01*
X123205763Y-77270000D01*
X123134237Y-77270000D01*
X123027685Y-77285320D01*
X122920000Y-77334498D01*
X122920000Y-76270000D01*
X122520028Y-76270000D01*
X122520012Y-76270001D01*
X122417302Y-76280494D01*
X122250880Y-76335641D01*
X122250875Y-76335643D01*
X122101654Y-76427684D01*
X121977683Y-76551655D01*
X121977680Y-76551659D01*
X121882183Y-76706483D01*
X121830235Y-76753208D01*
X121761272Y-76764429D01*
X121697190Y-76736586D01*
X121688964Y-76729068D01*
X121660771Y-76700875D01*
X121541401Y-76581505D01*
X121541397Y-76581502D01*
X121541396Y-76581501D01*
X121347834Y-76445967D01*
X121347830Y-76445965D01*
X121308626Y-76427684D01*
X121133663Y-76346097D01*
X121133659Y-76346096D01*
X121133655Y-76346094D01*
X120905413Y-76284938D01*
X120905403Y-76284936D01*
X120670001Y-76264341D01*
X120669999Y-76264341D01*
X120434596Y-76284936D01*
X120434586Y-76284938D01*
X120206344Y-76346094D01*
X120206335Y-76346098D01*
X119992171Y-76445964D01*
X119992169Y-76445965D01*
X119798597Y-76581505D01*
X119631505Y-76748597D01*
X119495965Y-76942169D01*
X119495964Y-76942171D01*
X119396098Y-77156335D01*
X119396094Y-77156344D01*
X119334938Y-77384586D01*
X119334936Y-77384596D01*
X119319500Y-77561034D01*
X119319500Y-77978966D01*
X114739751Y-77978966D01*
X114780000Y-77841889D01*
X114780000Y-77698111D01*
X114739493Y-77560156D01*
X114713686Y-77520000D01*
X115629999Y-77520000D01*
X115629999Y-76970028D01*
X115629998Y-76970013D01*
X115619505Y-76867302D01*
X115564358Y-76700880D01*
X115564356Y-76700875D01*
X115472315Y-76551654D01*
X115348345Y-76427684D01*
X115199124Y-76335643D01*
X115199119Y-76335641D01*
X115032697Y-76280494D01*
X115032690Y-76280493D01*
X114929986Y-76270000D01*
X114530000Y-76270000D01*
X114530000Y-77334498D01*
X114422315Y-77285320D01*
X114315763Y-77270000D01*
X114244237Y-77270000D01*
X114137685Y-77285320D01*
X114030000Y-77334498D01*
X114030000Y-76270000D01*
X113630028Y-76270000D01*
X113630012Y-76270001D01*
X113527302Y-76280494D01*
X113360880Y-76335641D01*
X113360875Y-76335643D01*
X113211654Y-76427684D01*
X113087683Y-76551655D01*
X113087680Y-76551659D01*
X112992183Y-76706483D01*
X112940235Y-76753208D01*
X112871272Y-76764429D01*
X112807190Y-76736586D01*
X112798964Y-76729068D01*
X112770771Y-76700875D01*
X112651401Y-76581505D01*
X112651397Y-76581502D01*
X112651396Y-76581501D01*
X112457834Y-76445967D01*
X112457830Y-76445965D01*
X112418626Y-76427684D01*
X112243663Y-76346097D01*
X112243659Y-76346096D01*
X112243655Y-76346094D01*
X112015413Y-76284938D01*
X112015403Y-76284936D01*
X111780001Y-76264341D01*
X111779999Y-76264341D01*
X111544596Y-76284936D01*
X111544586Y-76284938D01*
X111316344Y-76346094D01*
X111316335Y-76346098D01*
X111102171Y-76445964D01*
X111102169Y-76445965D01*
X110908597Y-76581505D01*
X110741505Y-76748597D01*
X110605965Y-76942169D01*
X110605964Y-76942171D01*
X110506098Y-77156335D01*
X110506094Y-77156344D01*
X110444938Y-77384586D01*
X110444936Y-77384596D01*
X110429500Y-77561034D01*
X110429500Y-77978966D01*
X101600000Y-77978966D01*
X101600000Y-72390000D01*
X106109357Y-72390000D01*
X106129884Y-72611535D01*
X106129885Y-72611537D01*
X106190769Y-72825523D01*
X106190775Y-72825538D01*
X106289938Y-73024683D01*
X106289943Y-73024691D01*
X106424020Y-73202238D01*
X106588437Y-73352123D01*
X106588439Y-73352125D01*
X106777595Y-73469245D01*
X106777596Y-73469245D01*
X106777599Y-73469247D01*
X106985060Y-73549618D01*
X107203757Y-73590500D01*
X107203759Y-73590500D01*
X107426241Y-73590500D01*
X107426243Y-73590500D01*
X107644940Y-73549618D01*
X107852401Y-73469247D01*
X108041562Y-73352124D01*
X108205981Y-73202236D01*
X108340058Y-73024689D01*
X108439229Y-72825528D01*
X108500115Y-72611536D01*
X108520643Y-72390000D01*
X111189357Y-72390000D01*
X111209884Y-72611535D01*
X111209885Y-72611537D01*
X111270769Y-72825523D01*
X111270775Y-72825538D01*
X111369938Y-73024683D01*
X111369943Y-73024691D01*
X111504020Y-73202238D01*
X111668437Y-73352123D01*
X111668439Y-73352125D01*
X111857595Y-73469245D01*
X111857596Y-73469245D01*
X111857599Y-73469247D01*
X112065060Y-73549618D01*
X112283757Y-73590500D01*
X112283759Y-73590500D01*
X112506241Y-73590500D01*
X112506243Y-73590500D01*
X112724940Y-73549618D01*
X112932401Y-73469247D01*
X113121562Y-73352124D01*
X113285981Y-73202236D01*
X113420058Y-73024689D01*
X113509868Y-72844326D01*
X113557371Y-72793090D01*
X113625034Y-72775669D01*
X113691374Y-72797595D01*
X113733249Y-72847192D01*
X113783722Y-72955432D01*
X113824431Y-73042732D01*
X113824432Y-73042734D01*
X113954954Y-73229141D01*
X114115858Y-73390045D01*
X114115861Y-73390047D01*
X114302266Y-73520568D01*
X114508504Y-73616739D01*
X114728308Y-73675635D01*
X114890230Y-73689801D01*
X114954998Y-73695468D01*
X114955000Y-73695468D01*
X114955002Y-73695468D01*
X115011673Y-73690509D01*
X115181692Y-73675635D01*
X115401496Y-73616739D01*
X115607734Y-73520568D01*
X115794139Y-73390047D01*
X115955047Y-73229139D01*
X116085568Y-73042734D01*
X116092893Y-73027023D01*
X116139062Y-72974586D01*
X116206254Y-72955432D01*
X116273136Y-72975645D01*
X116317657Y-73027023D01*
X116324865Y-73042481D01*
X116324866Y-73042483D01*
X116375973Y-73115471D01*
X116375974Y-73115472D01*
X117057046Y-72434399D01*
X117069835Y-72515148D01*
X117127359Y-72628045D01*
X117216955Y-72717641D01*
X117329852Y-72775165D01*
X117410599Y-72787953D01*
X116729526Y-73469025D01*
X116729526Y-73469026D01*
X116802512Y-73520131D01*
X116802516Y-73520133D01*
X117008673Y-73616265D01*
X117008682Y-73616269D01*
X117228389Y-73675139D01*
X117228400Y-73675141D01*
X117454998Y-73694966D01*
X117455002Y-73694966D01*
X117681599Y-73675141D01*
X117681610Y-73675139D01*
X117901317Y-73616269D01*
X117901331Y-73616264D01*
X118107478Y-73520136D01*
X118180472Y-73469025D01*
X117863447Y-73152000D01*
X165499341Y-73152000D01*
X165519936Y-73387403D01*
X165519938Y-73387413D01*
X165581094Y-73615655D01*
X165581096Y-73615659D01*
X165581097Y-73615663D01*
X165608832Y-73675141D01*
X165680964Y-73829828D01*
X165680965Y-73829830D01*
X165816505Y-74023402D01*
X165964067Y-74170964D01*
X165997552Y-74232287D01*
X165992568Y-74301979D01*
X165950696Y-74357912D01*
X165941483Y-74364183D01*
X165786659Y-74459680D01*
X165786655Y-74459683D01*
X165662684Y-74583654D01*
X165570643Y-74732875D01*
X165570641Y-74732880D01*
X165515494Y-74899302D01*
X165515493Y-74899309D01*
X165505000Y-75002013D01*
X165505000Y-75402000D01*
X166571314Y-75402000D01*
X166545507Y-75442156D01*
X166505000Y-75580111D01*
X166505000Y-75723889D01*
X166545507Y-75861844D01*
X166571314Y-75902000D01*
X165505001Y-75902000D01*
X165505001Y-76301986D01*
X165515494Y-76404697D01*
X165570641Y-76571119D01*
X165570643Y-76571124D01*
X165662684Y-76720345D01*
X165786654Y-76844315D01*
X165935875Y-76936356D01*
X165935880Y-76936358D01*
X166102302Y-76991505D01*
X166102309Y-76991506D01*
X166205019Y-77001999D01*
X166754999Y-77001999D01*
X166755000Y-77001998D01*
X166755000Y-76087501D01*
X166862685Y-76136680D01*
X166969237Y-76152000D01*
X167040763Y-76152000D01*
X167147315Y-76136680D01*
X167255000Y-76087501D01*
X167255000Y-77001999D01*
X167804972Y-77001999D01*
X167804986Y-77001998D01*
X167907697Y-76991505D01*
X168074119Y-76936358D01*
X168074124Y-76936356D01*
X168223345Y-76844315D01*
X168347315Y-76720345D01*
X168439356Y-76571124D01*
X168439358Y-76571119D01*
X168494505Y-76404697D01*
X168494506Y-76404690D01*
X168504999Y-76301986D01*
X168505000Y-76301973D01*
X168505000Y-75902000D01*
X167438686Y-75902000D01*
X167464493Y-75861844D01*
X167505000Y-75723889D01*
X167505000Y-75580111D01*
X167464493Y-75442156D01*
X167438686Y-75402000D01*
X168504999Y-75402000D01*
X168504999Y-75002028D01*
X168504998Y-75002013D01*
X168494505Y-74899302D01*
X168439358Y-74732880D01*
X168439356Y-74732875D01*
X168347315Y-74583654D01*
X168223344Y-74459683D01*
X168223340Y-74459680D01*
X168068516Y-74364183D01*
X168021791Y-74312235D01*
X168010570Y-74243273D01*
X168038413Y-74179191D01*
X168045932Y-74170964D01*
X168193495Y-74023401D01*
X168329035Y-73829830D01*
X168428903Y-73615663D01*
X168490063Y-73387408D01*
X168510659Y-73152000D01*
X168490063Y-72916592D01*
X168428903Y-72688337D01*
X168329035Y-72474171D01*
X168329034Y-72474169D01*
X168193494Y-72280597D01*
X168026402Y-72113505D01*
X167832830Y-71977965D01*
X167832828Y-71977964D01*
X167725746Y-71928031D01*
X167618663Y-71878097D01*
X167618659Y-71878096D01*
X167618655Y-71878094D01*
X167390413Y-71816938D01*
X167390403Y-71816936D01*
X167213966Y-71801500D01*
X166796034Y-71801500D01*
X166619596Y-71816936D01*
X166619586Y-71816938D01*
X166391344Y-71878094D01*
X166391335Y-71878098D01*
X166177171Y-71977964D01*
X166177169Y-71977965D01*
X165983597Y-72113505D01*
X165816506Y-72280597D01*
X165816501Y-72280604D01*
X165680967Y-72474165D01*
X165680965Y-72474169D01*
X165581098Y-72688335D01*
X165581094Y-72688344D01*
X165519938Y-72916586D01*
X165519936Y-72916596D01*
X165499341Y-73151999D01*
X165499341Y-73152000D01*
X117863447Y-73152000D01*
X117499401Y-72787953D01*
X117580148Y-72775165D01*
X117693045Y-72717641D01*
X117782641Y-72628045D01*
X117840165Y-72515148D01*
X117852953Y-72434400D01*
X118534025Y-73115472D01*
X118585136Y-73042478D01*
X118681264Y-72836331D01*
X118681269Y-72836317D01*
X118740139Y-72616610D01*
X118740141Y-72616599D01*
X118759966Y-72390002D01*
X118759966Y-72389997D01*
X118740141Y-72163400D01*
X118740139Y-72163389D01*
X118681269Y-71943682D01*
X118681265Y-71943673D01*
X118585133Y-71737516D01*
X118585131Y-71737512D01*
X118534026Y-71664526D01*
X118534025Y-71664526D01*
X117852953Y-72345598D01*
X117840165Y-72264852D01*
X117782641Y-72151955D01*
X117693045Y-72062359D01*
X117580148Y-72004835D01*
X117499400Y-71992046D01*
X118180472Y-71310974D01*
X118180471Y-71310973D01*
X118107483Y-71259866D01*
X118107481Y-71259865D01*
X117901326Y-71163734D01*
X117901317Y-71163730D01*
X117681610Y-71104860D01*
X117681599Y-71104858D01*
X117455002Y-71085034D01*
X117454998Y-71085034D01*
X117228400Y-71104858D01*
X117228389Y-71104860D01*
X117008682Y-71163730D01*
X117008673Y-71163734D01*
X116802513Y-71259868D01*
X116729527Y-71310972D01*
X116729526Y-71310973D01*
X117410600Y-71992046D01*
X117329852Y-72004835D01*
X117216955Y-72062359D01*
X117127359Y-72151955D01*
X117069835Y-72264852D01*
X117057046Y-72345599D01*
X116375973Y-71664526D01*
X116375972Y-71664527D01*
X116324868Y-71737512D01*
X116317656Y-71752979D01*
X116271482Y-71805417D01*
X116204288Y-71824567D01*
X116137407Y-71804350D01*
X116092893Y-71752976D01*
X116085568Y-71737266D01*
X115955047Y-71550861D01*
X115955045Y-71550858D01*
X115794141Y-71389954D01*
X115607734Y-71259432D01*
X115607732Y-71259431D01*
X115401497Y-71163261D01*
X115401488Y-71163258D01*
X115181697Y-71104366D01*
X115181693Y-71104365D01*
X115181692Y-71104365D01*
X115181691Y-71104364D01*
X115181686Y-71104364D01*
X114955002Y-71084532D01*
X114954998Y-71084532D01*
X114728313Y-71104364D01*
X114728302Y-71104366D01*
X114508511Y-71163258D01*
X114508502Y-71163261D01*
X114302267Y-71259431D01*
X114302265Y-71259432D01*
X114115858Y-71389954D01*
X113954954Y-71550858D01*
X113824432Y-71737265D01*
X113824431Y-71737267D01*
X113733250Y-71932805D01*
X113687077Y-71985244D01*
X113619884Y-72004396D01*
X113553003Y-71984180D01*
X113509868Y-71935672D01*
X113420061Y-71755316D01*
X113420056Y-71755308D01*
X113285979Y-71577761D01*
X113121562Y-71427876D01*
X113121560Y-71427874D01*
X112932404Y-71310754D01*
X112932398Y-71310752D01*
X112724940Y-71230382D01*
X112506243Y-71189500D01*
X112283757Y-71189500D01*
X112065060Y-71230382D01*
X111988948Y-71259868D01*
X111857601Y-71310752D01*
X111857595Y-71310754D01*
X111668439Y-71427874D01*
X111668437Y-71427876D01*
X111504020Y-71577761D01*
X111369943Y-71755308D01*
X111369938Y-71755316D01*
X111270775Y-71954461D01*
X111270769Y-71954476D01*
X111209885Y-72168462D01*
X111209884Y-72168464D01*
X111189357Y-72389999D01*
X111189357Y-72390000D01*
X108520643Y-72390000D01*
X108510505Y-72280597D01*
X108500115Y-72168464D01*
X108500114Y-72168462D01*
X108495417Y-72151955D01*
X108439229Y-71954472D01*
X108439224Y-71954461D01*
X108340061Y-71755316D01*
X108340056Y-71755308D01*
X108205979Y-71577761D01*
X108041562Y-71427876D01*
X108041560Y-71427874D01*
X107852404Y-71310754D01*
X107852398Y-71310752D01*
X107644940Y-71230382D01*
X107426243Y-71189500D01*
X107203757Y-71189500D01*
X106985060Y-71230382D01*
X106908948Y-71259868D01*
X106777601Y-71310752D01*
X106777595Y-71310754D01*
X106588439Y-71427874D01*
X106588437Y-71427876D01*
X106424020Y-71577761D01*
X106289943Y-71755308D01*
X106289938Y-71755316D01*
X106190775Y-71954461D01*
X106190769Y-71954476D01*
X106129885Y-72168462D01*
X106129884Y-72168464D01*
X106109357Y-72389999D01*
X106109357Y-72390000D01*
X101600000Y-72390000D01*
X101600000Y-70465000D01*
X102299341Y-70465000D01*
X102319936Y-70700403D01*
X102319938Y-70700413D01*
X102381094Y-70928655D01*
X102381096Y-70928659D01*
X102381097Y-70928663D01*
X102411962Y-70994852D01*
X102480964Y-71142828D01*
X102480965Y-71142830D01*
X102616505Y-71336402D01*
X102783597Y-71503494D01*
X102977169Y-71639034D01*
X102977171Y-71639035D01*
X103191337Y-71738903D01*
X103419592Y-71800063D01*
X103596034Y-71815500D01*
X104013966Y-71815500D01*
X104190408Y-71800063D01*
X104418663Y-71738903D01*
X104632829Y-71639035D01*
X104826401Y-71503495D01*
X104993495Y-71336401D01*
X105129035Y-71142830D01*
X105228903Y-70928663D01*
X105290063Y-70700408D01*
X105310659Y-70465000D01*
X105290063Y-70229592D01*
X105228903Y-70001337D01*
X105129035Y-69787171D01*
X105129034Y-69787169D01*
X104993494Y-69593597D01*
X104846295Y-69446398D01*
X104812810Y-69385075D01*
X104817794Y-69315383D01*
X104859666Y-69259450D01*
X104868880Y-69253178D01*
X104902028Y-69232732D01*
X105023656Y-69157712D01*
X105147712Y-69033656D01*
X105239814Y-68884334D01*
X105294999Y-68717797D01*
X105305500Y-68615009D01*
X105305499Y-67314992D01*
X105304989Y-67310000D01*
X106109357Y-67310000D01*
X106129884Y-67531535D01*
X106129885Y-67531537D01*
X106190769Y-67745523D01*
X106190775Y-67745538D01*
X106289938Y-67944683D01*
X106289943Y-67944691D01*
X106424020Y-68122238D01*
X106588437Y-68272123D01*
X106588439Y-68272125D01*
X106777595Y-68389245D01*
X106777596Y-68389245D01*
X106777599Y-68389247D01*
X106985060Y-68469618D01*
X107203757Y-68510500D01*
X107203759Y-68510500D01*
X107426241Y-68510500D01*
X107426243Y-68510500D01*
X107644940Y-68469618D01*
X107852401Y-68389247D01*
X108041562Y-68272124D01*
X108205981Y-68122236D01*
X108340058Y-67944689D01*
X108439229Y-67745528D01*
X108500115Y-67531536D01*
X108520643Y-67310000D01*
X111189357Y-67310000D01*
X111209884Y-67531535D01*
X111209885Y-67531537D01*
X111270769Y-67745523D01*
X111270775Y-67745538D01*
X111369938Y-67944683D01*
X111369943Y-67944691D01*
X111504020Y-68122238D01*
X111668437Y-68272123D01*
X111668439Y-68272125D01*
X111857595Y-68389245D01*
X111857596Y-68389245D01*
X111857599Y-68389247D01*
X112065060Y-68469618D01*
X112283757Y-68510500D01*
X112283759Y-68510500D01*
X112506241Y-68510500D01*
X112506243Y-68510500D01*
X112724940Y-68469618D01*
X112932401Y-68389247D01*
X113121562Y-68272124D01*
X113285981Y-68122236D01*
X113420058Y-67944689D01*
X113509868Y-67764326D01*
X113557371Y-67713090D01*
X113625034Y-67695669D01*
X113691374Y-67717595D01*
X113733250Y-67767194D01*
X113824431Y-67962732D01*
X113824432Y-67962734D01*
X113954954Y-68149141D01*
X114115858Y-68310045D01*
X114115861Y-68310047D01*
X114302266Y-68440568D01*
X114508504Y-68536739D01*
X114508509Y-68536740D01*
X114508511Y-68536741D01*
X114559622Y-68550436D01*
X114728308Y-68595635D01*
X114890230Y-68609801D01*
X114954998Y-68615468D01*
X114955000Y-68615468D01*
X114955002Y-68615468D01*
X115011673Y-68610509D01*
X115181692Y-68595635D01*
X115401496Y-68536739D01*
X115607734Y-68440568D01*
X115794139Y-68310047D01*
X115955047Y-68149139D01*
X116085568Y-67962734D01*
X116092893Y-67947023D01*
X116139062Y-67894586D01*
X116206254Y-67875432D01*
X116273136Y-67895645D01*
X116317657Y-67947023D01*
X116324865Y-67962481D01*
X116324866Y-67962483D01*
X116375973Y-68035471D01*
X116375974Y-68035472D01*
X117057046Y-67354399D01*
X117069835Y-67435148D01*
X117127359Y-67548045D01*
X117216955Y-67637641D01*
X117329852Y-67695165D01*
X117410599Y-67707953D01*
X116729526Y-68389025D01*
X116729526Y-68389026D01*
X116802512Y-68440131D01*
X116802516Y-68440133D01*
X117008673Y-68536265D01*
X117008682Y-68536269D01*
X117228389Y-68595139D01*
X117228400Y-68595141D01*
X117454998Y-68614966D01*
X117455002Y-68614966D01*
X117681599Y-68595141D01*
X117681610Y-68595139D01*
X117738106Y-68580001D01*
X119344532Y-68580001D01*
X119364364Y-68806686D01*
X119364366Y-68806697D01*
X119423258Y-69026488D01*
X119423261Y-69026497D01*
X119519431Y-69232732D01*
X119519432Y-69232734D01*
X119649954Y-69419141D01*
X119810858Y-69580045D01*
X119857693Y-69612839D01*
X119997266Y-69710568D01*
X120055865Y-69737893D01*
X120108305Y-69784065D01*
X120127457Y-69851258D01*
X120107242Y-69918139D01*
X120055867Y-69962657D01*
X119997515Y-69989867D01*
X119811179Y-70120342D01*
X119650342Y-70281179D01*
X119519865Y-70467517D01*
X119423734Y-70673673D01*
X119423730Y-70673682D01*
X119371127Y-70869999D01*
X119371128Y-70870000D01*
X120334314Y-70870000D01*
X120322359Y-70881955D01*
X120264835Y-70994852D01*
X120245014Y-71120000D01*
X120264835Y-71245148D01*
X120322359Y-71358045D01*
X120334314Y-71370000D01*
X119371128Y-71370000D01*
X119423730Y-71566317D01*
X119423734Y-71566326D01*
X119519865Y-71772482D01*
X119650342Y-71958820D01*
X119811179Y-72119657D01*
X119997517Y-72250134D01*
X120203673Y-72346265D01*
X120203682Y-72346269D01*
X120399999Y-72398872D01*
X120400000Y-72398871D01*
X120400000Y-71435686D01*
X120411955Y-71447641D01*
X120524852Y-71505165D01*
X120618519Y-71520000D01*
X120681481Y-71520000D01*
X120775148Y-71505165D01*
X120888045Y-71447641D01*
X120900000Y-71435686D01*
X120900000Y-72398872D01*
X121096317Y-72346269D01*
X121096326Y-72346265D01*
X121302482Y-72250134D01*
X121488820Y-72119657D01*
X121649657Y-71958820D01*
X121780134Y-71772482D01*
X121876265Y-71566326D01*
X121876269Y-71566317D01*
X121928872Y-71370000D01*
X120965686Y-71370000D01*
X120977641Y-71358045D01*
X121035165Y-71245148D01*
X121054986Y-71120000D01*
X121035165Y-70994852D01*
X120977641Y-70881955D01*
X120965686Y-70870000D01*
X121928872Y-70870000D01*
X121928872Y-70869999D01*
X121876269Y-70673682D01*
X121876265Y-70673673D01*
X121780134Y-70467517D01*
X121649657Y-70281179D01*
X121488820Y-70120342D01*
X121302482Y-69989865D01*
X121244133Y-69962657D01*
X121191694Y-69916484D01*
X121172542Y-69849291D01*
X121192758Y-69782410D01*
X121244129Y-69737895D01*
X121302734Y-69710568D01*
X121489139Y-69580047D01*
X121650047Y-69419139D01*
X121780568Y-69232734D01*
X121876739Y-69026496D01*
X121935635Y-68806692D01*
X121955468Y-68580000D01*
X121955044Y-68575159D01*
X121947390Y-68487672D01*
X121935635Y-68353308D01*
X121876739Y-68133504D01*
X121780568Y-67927266D01*
X121661168Y-67756744D01*
X121650045Y-67740858D01*
X121489141Y-67579954D01*
X121302734Y-67449432D01*
X121302728Y-67449429D01*
X121244725Y-67422382D01*
X121192285Y-67376210D01*
X121173133Y-67309017D01*
X121193348Y-67242135D01*
X121244725Y-67197618D01*
X121302734Y-67170568D01*
X121489139Y-67040047D01*
X121650047Y-66879139D01*
X121780568Y-66692734D01*
X121876739Y-66486496D01*
X121935635Y-66266692D01*
X121955468Y-66040000D01*
X121954143Y-66024860D01*
X121947847Y-65952892D01*
X121935635Y-65813308D01*
X121876739Y-65593504D01*
X121780568Y-65387266D01*
X121650047Y-65200861D01*
X121650045Y-65200858D01*
X121489143Y-65039956D01*
X121469784Y-65026401D01*
X121464535Y-65022725D01*
X121420912Y-64968149D01*
X121413719Y-64898650D01*
X121445241Y-64836296D01*
X121505471Y-64800882D01*
X121522404Y-64797861D01*
X121557483Y-64794091D01*
X121692331Y-64743796D01*
X121807546Y-64657546D01*
X121893796Y-64542331D01*
X121944091Y-64407483D01*
X121950500Y-64347873D01*
X121950499Y-62652128D01*
X121944091Y-62592517D01*
X121893796Y-62457669D01*
X121893795Y-62457668D01*
X121893793Y-62457664D01*
X121807547Y-62342455D01*
X121807544Y-62342452D01*
X121692335Y-62256206D01*
X121692328Y-62256202D01*
X121557482Y-62205908D01*
X121557483Y-62205908D01*
X121497883Y-62199501D01*
X121497881Y-62199500D01*
X121497873Y-62199500D01*
X121497864Y-62199500D01*
X119802129Y-62199500D01*
X119802123Y-62199501D01*
X119742516Y-62205908D01*
X119607671Y-62256202D01*
X119607664Y-62256206D01*
X119492455Y-62342452D01*
X119492452Y-62342455D01*
X119406206Y-62457664D01*
X119406202Y-62457671D01*
X119355908Y-62592517D01*
X119351879Y-62630000D01*
X119349501Y-62652123D01*
X119349500Y-62652135D01*
X119349500Y-64347870D01*
X119349501Y-64347876D01*
X119355908Y-64407483D01*
X119406202Y-64542328D01*
X119406206Y-64542335D01*
X119492452Y-64657544D01*
X119492455Y-64657547D01*
X119607664Y-64743793D01*
X119607671Y-64743797D01*
X119652618Y-64760561D01*
X119742517Y-64794091D01*
X119777596Y-64797862D01*
X119842144Y-64824599D01*
X119881993Y-64881991D01*
X119884488Y-64951816D01*
X119848836Y-65011905D01*
X119835464Y-65022725D01*
X119810858Y-65039954D01*
X119649954Y-65200858D01*
X119519432Y-65387265D01*
X119519431Y-65387267D01*
X119423261Y-65593502D01*
X119423258Y-65593511D01*
X119364366Y-65813302D01*
X119364364Y-65813313D01*
X119344532Y-66039998D01*
X119344532Y-66040001D01*
X119364364Y-66266686D01*
X119364366Y-66266697D01*
X119423258Y-66486488D01*
X119423261Y-66486497D01*
X119519431Y-66692732D01*
X119519432Y-66692734D01*
X119649954Y-66879141D01*
X119810858Y-67040045D01*
X119818886Y-67045666D01*
X119997266Y-67170568D01*
X120055275Y-67197618D01*
X120107714Y-67243791D01*
X120126866Y-67310984D01*
X120106650Y-67377865D01*
X120055275Y-67422382D01*
X119997267Y-67449431D01*
X119997265Y-67449432D01*
X119810858Y-67579954D01*
X119649954Y-67740858D01*
X119519432Y-67927265D01*
X119519431Y-67927267D01*
X119423261Y-68133502D01*
X119423258Y-68133511D01*
X119364366Y-68353302D01*
X119364364Y-68353313D01*
X119344532Y-68579998D01*
X119344532Y-68580001D01*
X117738106Y-68580001D01*
X117901317Y-68536269D01*
X117901331Y-68536264D01*
X118107478Y-68440136D01*
X118180472Y-68389025D01*
X117499401Y-67707953D01*
X117580148Y-67695165D01*
X117693045Y-67637641D01*
X117782641Y-67548045D01*
X117840165Y-67435148D01*
X117852953Y-67354400D01*
X118534025Y-68035472D01*
X118585136Y-67962478D01*
X118681264Y-67756331D01*
X118681269Y-67756317D01*
X118740139Y-67536610D01*
X118740141Y-67536599D01*
X118759966Y-67310002D01*
X118759966Y-67309997D01*
X118740141Y-67083400D01*
X118740139Y-67083389D01*
X118681269Y-66863682D01*
X118681265Y-66863673D01*
X118585133Y-66657516D01*
X118585131Y-66657512D01*
X118534026Y-66584526D01*
X118534025Y-66584526D01*
X117852953Y-67265598D01*
X117840165Y-67184852D01*
X117782641Y-67071955D01*
X117693045Y-66982359D01*
X117580148Y-66924835D01*
X117499400Y-66912046D01*
X118180472Y-66230974D01*
X118180471Y-66230973D01*
X118107483Y-66179866D01*
X118107481Y-66179865D01*
X117901326Y-66083734D01*
X117901317Y-66083730D01*
X117681610Y-66024860D01*
X117681599Y-66024858D01*
X117455002Y-66005034D01*
X117454998Y-66005034D01*
X117228400Y-66024858D01*
X117228389Y-66024860D01*
X117008682Y-66083730D01*
X117008673Y-66083734D01*
X116802513Y-66179868D01*
X116729527Y-66230972D01*
X116729526Y-66230973D01*
X117410600Y-66912046D01*
X117329852Y-66924835D01*
X117216955Y-66982359D01*
X117127359Y-67071955D01*
X117069835Y-67184852D01*
X117057046Y-67265599D01*
X116375973Y-66584526D01*
X116375972Y-66584527D01*
X116324868Y-66657512D01*
X116317656Y-66672979D01*
X116271482Y-66725417D01*
X116204288Y-66744567D01*
X116137407Y-66724350D01*
X116092893Y-66672976D01*
X116085568Y-66657266D01*
X115966168Y-66486744D01*
X115955045Y-66470858D01*
X115794141Y-66309954D01*
X115607734Y-66179432D01*
X115607732Y-66179431D01*
X115401497Y-66083261D01*
X115401488Y-66083258D01*
X115181697Y-66024366D01*
X115181693Y-66024365D01*
X115181692Y-66024365D01*
X115181691Y-66024364D01*
X115181686Y-66024364D01*
X114955002Y-66004532D01*
X114954998Y-66004532D01*
X114728313Y-66024364D01*
X114728302Y-66024366D01*
X114508511Y-66083258D01*
X114508502Y-66083261D01*
X114302267Y-66179431D01*
X114302265Y-66179432D01*
X114115858Y-66309954D01*
X113954954Y-66470858D01*
X113824432Y-66657265D01*
X113824431Y-66657267D01*
X113733250Y-66852805D01*
X113687077Y-66905244D01*
X113619884Y-66924396D01*
X113553003Y-66904180D01*
X113509868Y-66855672D01*
X113420061Y-66675316D01*
X113420056Y-66675308D01*
X113285979Y-66497761D01*
X113121562Y-66347876D01*
X113121560Y-66347874D01*
X112932404Y-66230754D01*
X112932398Y-66230752D01*
X112930581Y-66230048D01*
X112724940Y-66150382D01*
X112506243Y-66109500D01*
X112283757Y-66109500D01*
X112065060Y-66150382D01*
X111988948Y-66179868D01*
X111857601Y-66230752D01*
X111857595Y-66230754D01*
X111668439Y-66347874D01*
X111668437Y-66347876D01*
X111504020Y-66497761D01*
X111369943Y-66675308D01*
X111369938Y-66675316D01*
X111270775Y-66874461D01*
X111270769Y-66874476D01*
X111209885Y-67088462D01*
X111209884Y-67088464D01*
X111189357Y-67309999D01*
X111189357Y-67310000D01*
X108520643Y-67310000D01*
X108514354Y-67242135D01*
X108500115Y-67088464D01*
X108500114Y-67088462D01*
X108498803Y-67083856D01*
X108439229Y-66874472D01*
X108434435Y-66864844D01*
X108340061Y-66675316D01*
X108340056Y-66675308D01*
X108205979Y-66497761D01*
X108041562Y-66347876D01*
X108041560Y-66347874D01*
X107852404Y-66230754D01*
X107852398Y-66230752D01*
X107850581Y-66230048D01*
X107644940Y-66150382D01*
X107426243Y-66109500D01*
X107203757Y-66109500D01*
X106985060Y-66150382D01*
X106908948Y-66179868D01*
X106777601Y-66230752D01*
X106777595Y-66230754D01*
X106588439Y-66347874D01*
X106588437Y-66347876D01*
X106424020Y-66497761D01*
X106289943Y-66675308D01*
X106289938Y-66675316D01*
X106190775Y-66874461D01*
X106190769Y-66874476D01*
X106129885Y-67088462D01*
X106129884Y-67088464D01*
X106109357Y-67309999D01*
X106109357Y-67310000D01*
X105304989Y-67310000D01*
X105294999Y-67212203D01*
X105239814Y-67045666D01*
X105147712Y-66896344D01*
X105023656Y-66772288D01*
X104894678Y-66692734D01*
X104874336Y-66680187D01*
X104874331Y-66680185D01*
X104852585Y-66672979D01*
X104707797Y-66625001D01*
X104707795Y-66625000D01*
X104605010Y-66614500D01*
X103004998Y-66614500D01*
X103004981Y-66614501D01*
X102902203Y-66625000D01*
X102902200Y-66625001D01*
X102735668Y-66680185D01*
X102735663Y-66680187D01*
X102586342Y-66772289D01*
X102462289Y-66896342D01*
X102370187Y-67045663D01*
X102370185Y-67045668D01*
X102357686Y-67083389D01*
X102315001Y-67212203D01*
X102315001Y-67212204D01*
X102315000Y-67212204D01*
X102304500Y-67314983D01*
X102304500Y-68615001D01*
X102304501Y-68615018D01*
X102315000Y-68717796D01*
X102315001Y-68717799D01*
X102357318Y-68845500D01*
X102370186Y-68884334D01*
X102457872Y-69026497D01*
X102462289Y-69033657D01*
X102586344Y-69157712D01*
X102741120Y-69253178D01*
X102787845Y-69305126D01*
X102799068Y-69374088D01*
X102771224Y-69438171D01*
X102763706Y-69446398D01*
X102616501Y-69593603D01*
X102616501Y-69593604D01*
X102480967Y-69787165D01*
X102480965Y-69787169D01*
X102451208Y-69850984D01*
X102386447Y-69989865D01*
X102381098Y-70001335D01*
X102381094Y-70001344D01*
X102319938Y-70229586D01*
X102319936Y-70229596D01*
X102299341Y-70464999D01*
X102299341Y-70465000D01*
X101600000Y-70465000D01*
X101600000Y-57909000D01*
X101619685Y-57841961D01*
X101672489Y-57796206D01*
X101724000Y-57785000D01*
X102636631Y-57785000D01*
X102701726Y-57803461D01*
G37*
%TD.AperFunction*%
%TA.AperFunction,Conductor*%
G36*
X130843261Y-57963502D02*
G01*
X130843258Y-57963511D01*
X130784366Y-58183302D01*
X130784364Y-58183313D01*
X130764532Y-58409998D01*
X130764532Y-58410001D01*
X130784364Y-58636686D01*
X130784366Y-58636697D01*
X130843258Y-58856488D01*
X130843261Y-58856497D01*
X130939431Y-59062732D01*
X130939432Y-59062734D01*
X131069954Y-59249141D01*
X131230858Y-59410045D01*
X131230861Y-59410047D01*
X131417266Y-59540568D01*
X131475275Y-59567618D01*
X131527714Y-59613791D01*
X131546866Y-59680984D01*
X131526650Y-59747865D01*
X131475275Y-59792381D01*
X131458272Y-59800310D01*
X131417267Y-59819431D01*
X131417265Y-59819432D01*
X131230858Y-59949954D01*
X131069954Y-60110858D01*
X130939432Y-60297265D01*
X130939431Y-60297267D01*
X130843261Y-60503502D01*
X130843258Y-60503511D01*
X130784366Y-60723302D01*
X130784364Y-60723313D01*
X130765513Y-60938790D01*
X130764532Y-60950000D01*
X130784364Y-61176686D01*
X130784365Y-61176691D01*
X130784366Y-61176697D01*
X130802680Y-61245048D01*
X130801017Y-61314897D01*
X130770586Y-61364821D01*
X129458762Y-62676645D01*
X129397439Y-62710130D01*
X129327747Y-62705146D01*
X129273809Y-62664767D01*
X129273526Y-62665006D01*
X129272509Y-62663794D01*
X129271814Y-62663274D01*
X129270177Y-62661015D01*
X129270048Y-62660861D01*
X129109140Y-62499953D01*
X128948377Y-62387386D01*
X128904752Y-62332809D01*
X128895500Y-62285811D01*
X128895500Y-60187303D01*
X128897224Y-60171683D01*
X128896939Y-60171657D01*
X128897671Y-60163901D01*
X128897673Y-60163894D01*
X128895500Y-60094746D01*
X128895500Y-60065211D01*
X128894631Y-60058333D01*
X128894172Y-60052504D01*
X128892709Y-60005933D01*
X128887122Y-59986705D01*
X128883174Y-59967645D01*
X128882203Y-59959954D01*
X128880664Y-59947769D01*
X128880663Y-59947767D01*
X128880663Y-59947765D01*
X128863512Y-59904448D01*
X128861619Y-59898919D01*
X128848618Y-59854170D01*
X128848616Y-59854167D01*
X128838423Y-59836932D01*
X128829861Y-59819455D01*
X128822487Y-59800831D01*
X128816661Y-59792812D01*
X128795079Y-59763106D01*
X128791888Y-59758247D01*
X128791824Y-59758139D01*
X128768170Y-59718141D01*
X128768168Y-59718139D01*
X128768165Y-59718135D01*
X128754006Y-59703976D01*
X128741368Y-59689180D01*
X128741250Y-59689017D01*
X128729594Y-59672974D01*
X128704934Y-59652574D01*
X128693688Y-59643270D01*
X128689376Y-59639347D01*
X126835030Y-57785000D01*
X130926499Y-57785000D01*
X130843261Y-57963502D01*
G37*
%TD.AperFunction*%
%TA.AperFunction,Conductor*%
G36*
X119550784Y-58174623D02*
G01*
X119489461Y-58208108D01*
X119419769Y-58203124D01*
X119370953Y-58169915D01*
X119350870Y-58147610D01*
X119301922Y-58112048D01*
X119274484Y-58084608D01*
X119270094Y-58078565D01*
X119266892Y-58073691D01*
X119243170Y-58033579D01*
X119243163Y-58033571D01*
X119229005Y-58019413D01*
X119216370Y-58004620D01*
X119200011Y-57982105D01*
X119202769Y-57980100D01*
X119178201Y-57931606D01*
X119185334Y-57862101D01*
X119228912Y-57807487D01*
X119295099Y-57785102D01*
X119300123Y-57785000D01*
X119380000Y-57785000D01*
X119940408Y-57785000D01*
X119550784Y-58174623D01*
G37*
%TD.AperFunction*%
%TD*%
%TA.AperFunction,Conductor*%
%TO.N,+5V*%
G36*
X164408039Y-41294685D02*
G01*
X164453794Y-41347489D01*
X164465000Y-41399000D01*
X164465000Y-48771000D01*
X164445315Y-48838039D01*
X164392511Y-48883794D01*
X164341000Y-48895000D01*
X163767536Y-48895000D01*
X163700497Y-48875315D01*
X163665961Y-48842123D01*
X163560045Y-48690858D01*
X163399141Y-48529954D01*
X163212734Y-48399432D01*
X163212732Y-48399431D01*
X163182102Y-48385148D01*
X163154132Y-48372105D01*
X163101694Y-48325934D01*
X163082542Y-48258740D01*
X163102758Y-48191859D01*
X163154134Y-48147341D01*
X163212484Y-48120132D01*
X163398820Y-47989657D01*
X163559657Y-47828820D01*
X163690134Y-47642482D01*
X163786265Y-47436326D01*
X163786269Y-47436317D01*
X163838872Y-47240000D01*
X162875686Y-47240000D01*
X162887641Y-47228045D01*
X162945165Y-47115148D01*
X162964986Y-46990000D01*
X162945165Y-46864852D01*
X162887641Y-46751955D01*
X162875686Y-46740000D01*
X163838872Y-46740000D01*
X163838872Y-46739999D01*
X163786269Y-46543682D01*
X163786265Y-46543673D01*
X163690134Y-46337517D01*
X163559657Y-46151179D01*
X163398820Y-45990342D01*
X163212482Y-45859865D01*
X163006328Y-45763734D01*
X162810000Y-45711127D01*
X162810000Y-46674314D01*
X162798045Y-46662359D01*
X162685148Y-46604835D01*
X162591481Y-46590000D01*
X162528519Y-46590000D01*
X162434852Y-46604835D01*
X162321955Y-46662359D01*
X162310000Y-46674314D01*
X162310000Y-45711127D01*
X162113671Y-45763734D01*
X161907517Y-45859865D01*
X161721179Y-45990342D01*
X161560342Y-46151179D01*
X161429865Y-46337517D01*
X161333734Y-46543673D01*
X161333730Y-46543682D01*
X161281127Y-46739999D01*
X161281128Y-46740000D01*
X162244314Y-46740000D01*
X162232359Y-46751955D01*
X162174835Y-46864852D01*
X162155014Y-46990000D01*
X162174835Y-47115148D01*
X162232359Y-47228045D01*
X162244314Y-47240000D01*
X161281128Y-47240000D01*
X161333730Y-47436317D01*
X161333734Y-47436326D01*
X161429865Y-47642482D01*
X161560342Y-47828820D01*
X161721179Y-47989657D01*
X161907518Y-48120134D01*
X161907520Y-48120135D01*
X161965865Y-48147342D01*
X162018305Y-48193514D01*
X162037457Y-48260707D01*
X162017242Y-48327589D01*
X161965867Y-48372105D01*
X161937898Y-48385148D01*
X161907264Y-48399433D01*
X161720858Y-48529954D01*
X161559954Y-48690858D01*
X161454039Y-48842123D01*
X161399463Y-48885748D01*
X161352464Y-48895000D01*
X159385000Y-48895000D01*
X159385000Y-55756000D01*
X159365315Y-55823039D01*
X159312511Y-55868794D01*
X159261000Y-55880000D01*
X155786011Y-55880000D01*
X155718972Y-55860315D01*
X155673217Y-55807511D01*
X155663273Y-55738353D01*
X155692298Y-55674797D01*
X155714887Y-55654426D01*
X155778816Y-55609661D01*
X155939657Y-55448820D01*
X156070134Y-55262482D01*
X156166265Y-55056326D01*
X156166269Y-55056317D01*
X156218872Y-54860000D01*
X155255686Y-54860000D01*
X155267641Y-54848045D01*
X155325165Y-54735148D01*
X155344986Y-54610000D01*
X155325165Y-54484852D01*
X155267641Y-54371955D01*
X155255686Y-54360000D01*
X156218872Y-54360000D01*
X156218872Y-54359999D01*
X156166269Y-54163682D01*
X156166265Y-54163673D01*
X156070134Y-53957517D01*
X155939657Y-53771179D01*
X155778820Y-53610342D01*
X155592482Y-53479865D01*
X155534133Y-53452657D01*
X155481694Y-53406484D01*
X155462542Y-53339291D01*
X155482758Y-53272410D01*
X155534129Y-53227895D01*
X155592734Y-53200568D01*
X155779139Y-53070047D01*
X155940047Y-52909139D01*
X156070568Y-52722734D01*
X156166739Y-52516496D01*
X156225635Y-52296692D01*
X156245468Y-52070000D01*
X156225635Y-51843308D01*
X156166739Y-51623504D01*
X156070568Y-51417266D01*
X155940047Y-51230861D01*
X155940045Y-51230858D01*
X155779141Y-51069954D01*
X155592734Y-50939432D01*
X155592728Y-50939429D01*
X155534725Y-50912382D01*
X155482285Y-50866210D01*
X155463133Y-50799017D01*
X155483348Y-50732135D01*
X155534725Y-50687618D01*
X155592734Y-50660568D01*
X155779139Y-50530047D01*
X155940047Y-50369139D01*
X156070568Y-50182734D01*
X156166739Y-49976496D01*
X156225635Y-49756692D01*
X156245468Y-49530000D01*
X156225635Y-49303308D01*
X156166739Y-49083504D01*
X156070568Y-48877266D01*
X155940047Y-48690861D01*
X155940045Y-48690858D01*
X155779143Y-48529956D01*
X155753912Y-48512289D01*
X155710287Y-48457712D01*
X155703095Y-48388213D01*
X155734617Y-48325859D01*
X155794847Y-48290445D01*
X155811781Y-48287424D01*
X155847380Y-48283596D01*
X155982086Y-48233354D01*
X155982093Y-48233350D01*
X156097187Y-48147190D01*
X156097190Y-48147187D01*
X156183350Y-48032093D01*
X156183354Y-48032086D01*
X156233596Y-47897379D01*
X156233598Y-47897372D01*
X156239999Y-47837844D01*
X156240000Y-47837827D01*
X156240000Y-47240000D01*
X155255686Y-47240000D01*
X155267641Y-47228045D01*
X155325165Y-47115148D01*
X155344986Y-46990000D01*
X155325165Y-46864852D01*
X155267641Y-46751955D01*
X155255686Y-46740000D01*
X156240000Y-46740000D01*
X156240000Y-46142172D01*
X156239999Y-46142155D01*
X156233598Y-46082627D01*
X156233596Y-46082620D01*
X156183354Y-45947913D01*
X156183350Y-45947906D01*
X156097190Y-45832812D01*
X156097187Y-45832809D01*
X155982093Y-45746649D01*
X155982086Y-45746645D01*
X155847379Y-45696403D01*
X155847372Y-45696401D01*
X155787844Y-45690000D01*
X155190000Y-45690000D01*
X155190000Y-46674314D01*
X155178045Y-46662359D01*
X155065148Y-46604835D01*
X154971481Y-46590000D01*
X154908519Y-46590000D01*
X154814852Y-46604835D01*
X154701955Y-46662359D01*
X154690000Y-46674314D01*
X154690000Y-45690000D01*
X154092155Y-45690000D01*
X154032627Y-45696401D01*
X154032620Y-45696403D01*
X153897913Y-45746645D01*
X153897906Y-45746649D01*
X153782812Y-45832809D01*
X153782809Y-45832812D01*
X153696649Y-45947906D01*
X153696645Y-45947913D01*
X153646403Y-46082620D01*
X153646401Y-46082627D01*
X153640000Y-46142155D01*
X153640000Y-46740000D01*
X154624314Y-46740000D01*
X154612359Y-46751955D01*
X154554835Y-46864852D01*
X154535014Y-46990000D01*
X154554835Y-47115148D01*
X154612359Y-47228045D01*
X154624314Y-47240000D01*
X153640000Y-47240000D01*
X153640000Y-47837844D01*
X153646401Y-47897372D01*
X153646403Y-47897379D01*
X153696645Y-48032086D01*
X153696649Y-48032093D01*
X153782809Y-48147187D01*
X153782812Y-48147190D01*
X153897906Y-48233350D01*
X153897913Y-48233354D01*
X154032620Y-48283596D01*
X154032627Y-48283598D01*
X154068218Y-48287425D01*
X154132769Y-48314163D01*
X154172618Y-48371555D01*
X154175111Y-48441380D01*
X154139459Y-48501469D01*
X154126088Y-48512287D01*
X154100861Y-48529951D01*
X153939954Y-48690858D01*
X153809432Y-48877265D01*
X153809431Y-48877267D01*
X153713261Y-49083502D01*
X153713258Y-49083511D01*
X153654366Y-49303302D01*
X153654364Y-49303313D01*
X153634532Y-49529998D01*
X153634532Y-49530001D01*
X153654364Y-49756686D01*
X153654366Y-49756697D01*
X153713258Y-49976488D01*
X153713261Y-49976497D01*
X153809431Y-50182732D01*
X153809432Y-50182734D01*
X153939954Y-50369141D01*
X154100858Y-50530045D01*
X154100861Y-50530047D01*
X154287266Y-50660568D01*
X154345275Y-50687618D01*
X154397714Y-50733791D01*
X154416866Y-50800984D01*
X154396650Y-50867865D01*
X154345275Y-50912382D01*
X154287267Y-50939431D01*
X154287265Y-50939432D01*
X154100858Y-51069954D01*
X153939954Y-51230858D01*
X153809432Y-51417265D01*
X153809431Y-51417267D01*
X153713261Y-51623502D01*
X153713258Y-51623511D01*
X153654366Y-51843302D01*
X153654364Y-51843313D01*
X153634532Y-52069998D01*
X153634532Y-52070001D01*
X153654364Y-52296686D01*
X153654366Y-52296697D01*
X153713258Y-52516488D01*
X153713261Y-52516497D01*
X153809431Y-52722732D01*
X153809432Y-52722734D01*
X153939954Y-52909141D01*
X154100858Y-53070045D01*
X154100861Y-53070047D01*
X154287266Y-53200568D01*
X154345865Y-53227893D01*
X154398305Y-53274065D01*
X154417457Y-53341258D01*
X154397242Y-53408139D01*
X154345867Y-53452657D01*
X154287515Y-53479867D01*
X154101179Y-53610342D01*
X153940342Y-53771179D01*
X153809865Y-53957517D01*
X153713734Y-54163673D01*
X153713730Y-54163682D01*
X153661127Y-54359999D01*
X153661128Y-54360000D01*
X154624314Y-54360000D01*
X154612359Y-54371955D01*
X154554835Y-54484852D01*
X154535014Y-54610000D01*
X154554835Y-54735148D01*
X154612359Y-54848045D01*
X154624314Y-54860000D01*
X153661128Y-54860000D01*
X153677233Y-54920107D01*
X153675570Y-54989957D01*
X153636407Y-55047819D01*
X153572179Y-55075323D01*
X153503277Y-55063736D01*
X153469777Y-55039881D01*
X153291108Y-54861212D01*
X153281285Y-54848950D01*
X153281064Y-54849134D01*
X153276091Y-54843123D01*
X153265067Y-54832771D01*
X153225669Y-54795773D01*
X153215224Y-54785328D01*
X153204780Y-54774883D01*
X153199291Y-54770625D01*
X153194866Y-54766847D01*
X153160887Y-54734938D01*
X153160885Y-54734936D01*
X153160882Y-54734935D01*
X153143334Y-54725288D01*
X153127068Y-54714604D01*
X153111238Y-54702325D01*
X153068473Y-54683818D01*
X153063227Y-54681248D01*
X153022398Y-54658803D01*
X153022397Y-54658802D01*
X153002998Y-54653822D01*
X152984586Y-54647518D01*
X152966203Y-54639562D01*
X152966197Y-54639560D01*
X152920179Y-54632272D01*
X152914457Y-54631087D01*
X152869326Y-54619500D01*
X152869324Y-54619500D01*
X152849289Y-54619500D01*
X152829891Y-54617973D01*
X152822467Y-54616797D01*
X152810110Y-54614840D01*
X152810109Y-54614840D01*
X152763721Y-54619225D01*
X152757883Y-54619500D01*
X152473160Y-54619500D01*
X152406121Y-54599815D01*
X152360366Y-54547011D01*
X152350422Y-54477853D01*
X152360779Y-54443093D01*
X152366266Y-54431326D01*
X152366269Y-54431317D01*
X152418872Y-54235000D01*
X151455686Y-54235000D01*
X151467641Y-54223045D01*
X151525165Y-54110148D01*
X151544986Y-53985000D01*
X151525165Y-53859852D01*
X151467641Y-53746955D01*
X151455686Y-53735000D01*
X152418872Y-53735000D01*
X152418872Y-53734999D01*
X152366269Y-53538682D01*
X152366265Y-53538673D01*
X152270134Y-53332517D01*
X152139657Y-53146179D01*
X151978820Y-52985342D01*
X151792482Y-52854865D01*
X151586328Y-52758734D01*
X151390000Y-52706127D01*
X151390000Y-53669314D01*
X151378045Y-53657359D01*
X151265148Y-53599835D01*
X151171481Y-53585000D01*
X151108519Y-53585000D01*
X151014852Y-53599835D01*
X150901955Y-53657359D01*
X150890000Y-53669314D01*
X150890000Y-52706127D01*
X150693671Y-52758734D01*
X150487517Y-52854865D01*
X150301179Y-52985342D01*
X150140342Y-53146179D01*
X150009865Y-53332517D01*
X149913734Y-53538673D01*
X149913730Y-53538682D01*
X149861127Y-53734999D01*
X149861128Y-53735000D01*
X150824314Y-53735000D01*
X150812359Y-53746955D01*
X150754835Y-53859852D01*
X150735014Y-53985000D01*
X150754835Y-54110148D01*
X150812359Y-54223045D01*
X150824314Y-54235000D01*
X149861128Y-54235000D01*
X149913730Y-54431317D01*
X149913733Y-54431326D01*
X149919221Y-54443093D01*
X149929714Y-54512170D01*
X149901196Y-54575955D01*
X149842720Y-54614196D01*
X149806840Y-54619500D01*
X147380862Y-54619500D01*
X147313823Y-54599815D01*
X147293181Y-54583181D01*
X139065002Y-46355002D01*
X141650340Y-46355002D01*
X141668944Y-46567654D01*
X141668945Y-46567662D01*
X141724194Y-46773853D01*
X141724197Y-46773859D01*
X141814412Y-46967328D01*
X141814413Y-46967330D01*
X141853415Y-47023030D01*
X141853416Y-47023031D01*
X142477046Y-46399400D01*
X142489835Y-46480148D01*
X142547359Y-46593045D01*
X142636955Y-46682641D01*
X142749852Y-46740165D01*
X142830599Y-46752953D01*
X142206967Y-47376583D01*
X142262670Y-47415586D01*
X142456140Y-47505802D01*
X142456146Y-47505805D01*
X142662337Y-47561054D01*
X142662345Y-47561055D01*
X142874998Y-47579660D01*
X142875002Y-47579660D01*
X143087654Y-47561055D01*
X143087662Y-47561054D01*
X143293853Y-47505805D01*
X143293859Y-47505802D01*
X143487330Y-47415586D01*
X143487336Y-47415582D01*
X143543031Y-47376584D01*
X142919401Y-46752953D01*
X143000148Y-46740165D01*
X143113045Y-46682641D01*
X143202641Y-46593045D01*
X143260165Y-46480148D01*
X143272953Y-46399400D01*
X143896584Y-47023031D01*
X143935582Y-46967336D01*
X143935586Y-46967330D01*
X144025802Y-46773859D01*
X144025805Y-46773853D01*
X144081054Y-46567662D01*
X144081055Y-46567654D01*
X144099660Y-46355002D01*
X144099660Y-46355001D01*
X146729838Y-46355001D01*
X146748450Y-46567741D01*
X146748452Y-46567752D01*
X146803721Y-46774022D01*
X146803723Y-46774026D01*
X146803724Y-46774030D01*
X146846075Y-46864852D01*
X146893977Y-46967578D01*
X147016472Y-47142521D01*
X147167478Y-47293527D01*
X147167481Y-47293529D01*
X147342419Y-47416021D01*
X147342421Y-47416022D01*
X147342420Y-47416022D01*
X147385963Y-47436326D01*
X147535970Y-47506276D01*
X147742253Y-47561549D01*
X147894215Y-47574844D01*
X147954998Y-47580162D01*
X147955000Y-47580162D01*
X147955002Y-47580162D01*
X148008186Y-47575508D01*
X148167747Y-47561549D01*
X148374030Y-47506276D01*
X148567581Y-47416021D01*
X148742519Y-47293529D01*
X148893529Y-47142519D01*
X149016021Y-46967581D01*
X149106276Y-46774030D01*
X149161549Y-46567747D01*
X149180162Y-46355000D01*
X149178632Y-46337517D01*
X149161549Y-46142258D01*
X149161549Y-46142253D01*
X149106276Y-45935970D01*
X149021380Y-45753913D01*
X149016022Y-45742421D01*
X149000321Y-45719998D01*
X148893529Y-45567481D01*
X148893527Y-45567478D01*
X148742521Y-45416472D01*
X148567578Y-45293977D01*
X148567579Y-45293977D01*
X148438547Y-45233809D01*
X148374030Y-45203724D01*
X148374026Y-45203723D01*
X148374022Y-45203721D01*
X148167752Y-45148452D01*
X148167748Y-45148451D01*
X148167747Y-45148451D01*
X148167746Y-45148450D01*
X148167741Y-45148450D01*
X147955002Y-45129838D01*
X147954998Y-45129838D01*
X147742258Y-45148450D01*
X147742247Y-45148452D01*
X147535977Y-45203721D01*
X147535968Y-45203725D01*
X147342421Y-45293977D01*
X147167478Y-45416472D01*
X147016472Y-45567478D01*
X146893977Y-45742421D01*
X146803725Y-45935968D01*
X146803721Y-45935977D01*
X146748452Y-46142247D01*
X146748450Y-46142258D01*
X146729838Y-46354998D01*
X146729838Y-46355001D01*
X144099660Y-46355001D01*
X144099660Y-46354997D01*
X144081055Y-46142345D01*
X144081054Y-46142337D01*
X144025805Y-45936146D01*
X144025802Y-45936140D01*
X143935586Y-45742670D01*
X143896583Y-45686967D01*
X143272953Y-46310598D01*
X143260165Y-46229852D01*
X143202641Y-46116955D01*
X143113045Y-46027359D01*
X143000148Y-45969835D01*
X142919401Y-45957046D01*
X143543031Y-45333416D01*
X143543030Y-45333415D01*
X143487330Y-45294413D01*
X143487328Y-45294412D01*
X143293859Y-45204197D01*
X143293853Y-45204194D01*
X143087662Y-45148945D01*
X143087654Y-45148944D01*
X142875002Y-45130340D01*
X142874998Y-45130340D01*
X142662345Y-45148944D01*
X142662337Y-45148945D01*
X142456146Y-45204194D01*
X142456140Y-45204197D01*
X142262667Y-45294414D01*
X142206967Y-45333414D01*
X142830599Y-45957046D01*
X142749852Y-45969835D01*
X142636955Y-46027359D01*
X142547359Y-46116955D01*
X142489835Y-46229852D01*
X142477046Y-46310599D01*
X141853414Y-45686967D01*
X141814414Y-45742667D01*
X141724197Y-45936140D01*
X141724194Y-45936146D01*
X141668945Y-46142337D01*
X141668944Y-46142345D01*
X141650340Y-46354997D01*
X141650340Y-46355002D01*
X139065002Y-46355002D01*
X139039822Y-46329822D01*
X138944850Y-46229852D01*
X137917520Y-45148452D01*
X137552710Y-44764441D01*
X137530543Y-44743746D01*
X137495999Y-44715172D01*
X137494635Y-44714175D01*
X137447107Y-44679436D01*
X137447101Y-44679433D01*
X137361304Y-44640249D01*
X137325137Y-44615137D01*
X137160000Y-44450000D01*
X113030000Y-44450000D01*
X113030000Y-50800000D01*
X118621000Y-50800000D01*
X118688039Y-50819685D01*
X118733794Y-50872489D01*
X118745000Y-50924000D01*
X118745000Y-57026000D01*
X118725315Y-57093039D01*
X118672511Y-57138794D01*
X118621000Y-57150000D01*
X118410953Y-57150000D01*
X118343914Y-57130315D01*
X118323272Y-57113681D01*
X118120803Y-56911212D01*
X118110980Y-56898950D01*
X118110759Y-56899134D01*
X118105786Y-56893123D01*
X118055364Y-56845773D01*
X118044919Y-56835328D01*
X118034475Y-56824883D01*
X118028986Y-56820625D01*
X118024561Y-56816847D01*
X117990582Y-56784938D01*
X117990580Y-56784936D01*
X117990577Y-56784934D01*
X117976946Y-56777441D01*
X117927682Y-56727895D01*
X117913025Y-56659580D01*
X117935107Y-56597658D01*
X117980568Y-56532734D01*
X118076739Y-56326496D01*
X118135635Y-56106692D01*
X118155468Y-55880000D01*
X118154791Y-55872266D01*
X118143075Y-55738353D01*
X118135635Y-55653308D01*
X118076739Y-55433504D01*
X117980568Y-55227266D01*
X117850047Y-55040861D01*
X117850045Y-55040858D01*
X117689141Y-54879954D01*
X117502734Y-54749432D01*
X117502732Y-54749431D01*
X117472102Y-54735148D01*
X117444132Y-54722105D01*
X117391694Y-54675934D01*
X117372542Y-54608740D01*
X117392758Y-54541859D01*
X117444134Y-54497341D01*
X117502484Y-54470132D01*
X117688820Y-54339657D01*
X117849657Y-54178820D01*
X117980134Y-53992482D01*
X118076265Y-53786326D01*
X118076269Y-53786317D01*
X118128872Y-53590000D01*
X117165686Y-53590000D01*
X117177641Y-53578045D01*
X117235165Y-53465148D01*
X117254986Y-53340000D01*
X117235165Y-53214852D01*
X117177641Y-53101955D01*
X117165686Y-53090000D01*
X118128872Y-53090000D01*
X118128872Y-53089999D01*
X118076269Y-52893682D01*
X118076265Y-52893673D01*
X117980134Y-52687517D01*
X117849657Y-52501179D01*
X117688820Y-52340342D01*
X117502482Y-52209865D01*
X117296328Y-52113734D01*
X117100000Y-52061127D01*
X117100000Y-53024314D01*
X117088045Y-53012359D01*
X116975148Y-52954835D01*
X116881481Y-52940000D01*
X116818519Y-52940000D01*
X116724852Y-52954835D01*
X116611955Y-53012359D01*
X116600000Y-53024314D01*
X116600000Y-52061127D01*
X116403671Y-52113734D01*
X116197517Y-52209865D01*
X116011179Y-52340342D01*
X115850342Y-52501179D01*
X115719865Y-52687517D01*
X115623734Y-52893673D01*
X115623730Y-52893682D01*
X115571127Y-53089999D01*
X115571128Y-53090000D01*
X116534314Y-53090000D01*
X116522359Y-53101955D01*
X116464835Y-53214852D01*
X116445014Y-53340000D01*
X116464835Y-53465148D01*
X116522359Y-53578045D01*
X116534314Y-53590000D01*
X115571128Y-53590000D01*
X115623730Y-53786317D01*
X115623734Y-53786326D01*
X115719865Y-53992482D01*
X115850342Y-54178820D01*
X116011179Y-54339657D01*
X116197518Y-54470134D01*
X116197520Y-54470135D01*
X116255865Y-54497342D01*
X116308305Y-54543514D01*
X116327457Y-54610707D01*
X116307242Y-54677589D01*
X116255867Y-54722105D01*
X116227898Y-54735148D01*
X116197264Y-54749433D01*
X116010858Y-54879954D01*
X115849954Y-55040858D01*
X115719432Y-55227265D01*
X115719431Y-55227267D01*
X115623261Y-55433502D01*
X115623258Y-55433511D01*
X115564366Y-55653302D01*
X115564364Y-55653313D01*
X115544532Y-55879998D01*
X115544532Y-55880000D01*
X115564364Y-56106686D01*
X115564366Y-56106697D01*
X115623258Y-56326488D01*
X115623261Y-56326497D01*
X115719431Y-56532732D01*
X115719432Y-56532734D01*
X115759319Y-56589699D01*
X115781646Y-56655906D01*
X115764635Y-56723673D01*
X115730631Y-56761139D01*
X115718579Y-56769895D01*
X115713695Y-56773104D01*
X115673579Y-56796829D01*
X115659408Y-56811000D01*
X115644623Y-56823628D01*
X115628412Y-56835407D01*
X115598709Y-56871310D01*
X115594777Y-56875631D01*
X115356727Y-57113681D01*
X115295404Y-57147166D01*
X115269046Y-57150000D01*
X111874500Y-57150000D01*
X111807461Y-57130315D01*
X111761706Y-57077511D01*
X111750500Y-57026000D01*
X111750500Y-54692737D01*
X111752224Y-54677123D01*
X111751938Y-54677096D01*
X111752672Y-54669333D01*
X111750500Y-54600203D01*
X111750500Y-54570651D01*
X111750500Y-54570650D01*
X111749629Y-54563759D01*
X111749172Y-54557945D01*
X111747709Y-54511372D01*
X111742122Y-54492144D01*
X111738174Y-54473084D01*
X111735664Y-54453208D01*
X111718507Y-54409875D01*
X111716619Y-54404359D01*
X111703619Y-54359612D01*
X111693418Y-54342363D01*
X111684860Y-54324894D01*
X111677486Y-54306268D01*
X111677483Y-54306264D01*
X111677483Y-54306263D01*
X111650098Y-54268571D01*
X111646890Y-54263687D01*
X111623172Y-54223582D01*
X111623163Y-54223571D01*
X111609005Y-54209413D01*
X111596370Y-54194620D01*
X111585228Y-54179286D01*
X111584594Y-54178413D01*
X111566787Y-54163682D01*
X111548693Y-54148713D01*
X111544381Y-54144790D01*
X110566818Y-53167227D01*
X110533333Y-53105904D01*
X110530499Y-53079546D01*
X110530499Y-52492129D01*
X110530498Y-52492123D01*
X110530497Y-52492116D01*
X110524091Y-52432517D01*
X110473796Y-52297669D01*
X110473795Y-52297668D01*
X110473793Y-52297664D01*
X110387547Y-52182455D01*
X110387544Y-52182452D01*
X110272335Y-52096206D01*
X110272328Y-52096202D01*
X110137482Y-52045908D01*
X110137483Y-52045908D01*
X110077883Y-52039501D01*
X110077881Y-52039500D01*
X110077873Y-52039500D01*
X110077864Y-52039500D01*
X108382129Y-52039500D01*
X108382123Y-52039501D01*
X108322516Y-52045908D01*
X108187671Y-52096202D01*
X108187664Y-52096206D01*
X108072455Y-52182452D01*
X108072452Y-52182455D01*
X107986206Y-52297664D01*
X107986202Y-52297671D01*
X107935908Y-52432517D01*
X107929501Y-52492116D01*
X107929501Y-52492123D01*
X107929500Y-52492135D01*
X107929500Y-54187870D01*
X107929501Y-54187876D01*
X107935908Y-54247483D01*
X107986202Y-54382328D01*
X107986206Y-54382335D01*
X108072452Y-54497544D01*
X108072455Y-54497547D01*
X108187664Y-54583793D01*
X108187671Y-54583797D01*
X108206367Y-54590770D01*
X108322517Y-54634091D01*
X108357596Y-54637862D01*
X108422144Y-54664599D01*
X108461993Y-54721991D01*
X108464488Y-54791816D01*
X108428836Y-54851905D01*
X108415464Y-54862725D01*
X108390858Y-54879954D01*
X108229954Y-55040858D01*
X108099432Y-55227265D01*
X108099431Y-55227267D01*
X108003261Y-55433502D01*
X108003258Y-55433511D01*
X107944366Y-55653302D01*
X107944364Y-55653313D01*
X107924532Y-55879998D01*
X107924532Y-55880000D01*
X107944364Y-56106686D01*
X107944366Y-56106697D01*
X108003258Y-56326488D01*
X108003261Y-56326497D01*
X108099431Y-56532732D01*
X108099432Y-56532734D01*
X108229954Y-56719141D01*
X108390858Y-56880045D01*
X108454240Y-56924425D01*
X108497865Y-56979001D01*
X108505059Y-57048499D01*
X108473537Y-57110854D01*
X108413307Y-57146269D01*
X108383117Y-57150000D01*
X105404000Y-57150000D01*
X105336961Y-57130315D01*
X105291206Y-57077511D01*
X105280000Y-57026000D01*
X105280000Y-56805000D01*
X104208969Y-56805000D01*
X104241519Y-56754351D01*
X104280000Y-56623295D01*
X104280000Y-56486705D01*
X104241519Y-56355649D01*
X104208969Y-56305000D01*
X105279999Y-56305000D01*
X105279999Y-55905028D01*
X105279998Y-55905013D01*
X105269505Y-55802302D01*
X105214358Y-55635880D01*
X105214356Y-55635875D01*
X105122315Y-55486654D01*
X104998345Y-55362684D01*
X104849124Y-55270643D01*
X104849119Y-55270641D01*
X104682697Y-55215494D01*
X104682690Y-55215493D01*
X104579986Y-55205000D01*
X104055000Y-55205000D01*
X104055000Y-56146981D01*
X103940199Y-56094554D01*
X103838975Y-56080000D01*
X103771025Y-56080000D01*
X103669801Y-56094554D01*
X103555000Y-56146981D01*
X103555000Y-55205000D01*
X103030028Y-55205000D01*
X103030012Y-55205001D01*
X102927302Y-55215494D01*
X102760880Y-55270641D01*
X102760875Y-55270643D01*
X102611654Y-55362684D01*
X102487684Y-55486654D01*
X102395643Y-55635875D01*
X102395641Y-55635880D01*
X102340494Y-55802302D01*
X102340493Y-55802309D01*
X102330000Y-55905013D01*
X102330000Y-56305000D01*
X103401031Y-56305000D01*
X103368481Y-56355649D01*
X103330000Y-56486705D01*
X103330000Y-56623295D01*
X103368481Y-56754351D01*
X103401031Y-56805000D01*
X102330001Y-56805000D01*
X102330001Y-57026000D01*
X102310316Y-57093039D01*
X102257512Y-57138794D01*
X102206001Y-57150000D01*
X101724000Y-57150000D01*
X101656961Y-57130315D01*
X101611206Y-57077511D01*
X101600000Y-57026000D01*
X101600000Y-48260002D01*
X104820340Y-48260002D01*
X104838944Y-48472654D01*
X104838945Y-48472662D01*
X104894194Y-48678853D01*
X104894197Y-48678859D01*
X104984412Y-48872328D01*
X104984413Y-48872330D01*
X105023415Y-48928030D01*
X105023416Y-48928031D01*
X105647046Y-48304400D01*
X105659835Y-48385148D01*
X105717359Y-48498045D01*
X105806955Y-48587641D01*
X105919852Y-48645165D01*
X106000599Y-48657953D01*
X105376967Y-49281583D01*
X105432670Y-49320586D01*
X105626140Y-49410802D01*
X105626146Y-49410805D01*
X105832337Y-49466054D01*
X105832345Y-49466055D01*
X106044998Y-49484660D01*
X106045002Y-49484660D01*
X106257654Y-49466055D01*
X106257662Y-49466054D01*
X106463853Y-49410805D01*
X106463859Y-49410802D01*
X106657330Y-49320586D01*
X106657336Y-49320582D01*
X106713031Y-49281584D01*
X106089401Y-48657953D01*
X106170148Y-48645165D01*
X106283045Y-48587641D01*
X106372641Y-48498045D01*
X106430165Y-48385148D01*
X106442953Y-48304400D01*
X107066584Y-48928031D01*
X107105582Y-48872336D01*
X107105586Y-48872330D01*
X107195802Y-48678859D01*
X107195805Y-48678853D01*
X107251054Y-48472662D01*
X107251055Y-48472654D01*
X107269660Y-48260002D01*
X107269660Y-48259997D01*
X107251055Y-48047345D01*
X107251054Y-48047337D01*
X107195805Y-47841146D01*
X107195802Y-47841140D01*
X107105586Y-47647670D01*
X107066583Y-47591967D01*
X106442953Y-48215598D01*
X106430165Y-48134852D01*
X106372641Y-48021955D01*
X106283045Y-47932359D01*
X106170148Y-47874835D01*
X106089401Y-47862046D01*
X106713031Y-47238416D01*
X106713030Y-47238415D01*
X106657330Y-47199413D01*
X106657328Y-47199412D01*
X106463859Y-47109197D01*
X106463853Y-47109194D01*
X106257662Y-47053945D01*
X106257654Y-47053944D01*
X106045002Y-47035340D01*
X106044998Y-47035340D01*
X105832345Y-47053944D01*
X105832337Y-47053945D01*
X105626146Y-47109194D01*
X105626140Y-47109197D01*
X105432667Y-47199414D01*
X105376967Y-47238414D01*
X106000599Y-47862046D01*
X105919852Y-47874835D01*
X105806955Y-47932359D01*
X105717359Y-48021955D01*
X105659835Y-48134852D01*
X105647046Y-48215599D01*
X105023414Y-47591967D01*
X104984414Y-47647667D01*
X104894197Y-47841140D01*
X104894194Y-47841146D01*
X104838945Y-48047337D01*
X104838944Y-48047345D01*
X104820340Y-48259997D01*
X104820340Y-48260002D01*
X101600000Y-48260002D01*
X101600000Y-45720001D01*
X102279838Y-45720001D01*
X102298450Y-45932741D01*
X102298452Y-45932752D01*
X102353721Y-46139022D01*
X102353723Y-46139026D01*
X102353724Y-46139030D01*
X102396075Y-46229852D01*
X102443977Y-46332578D01*
X102566472Y-46507521D01*
X102717478Y-46658527D01*
X102717481Y-46658529D01*
X102892419Y-46781021D01*
X102892421Y-46781022D01*
X102892420Y-46781022D01*
X102956936Y-46811106D01*
X103085970Y-46871276D01*
X103292253Y-46926549D01*
X103444215Y-46939844D01*
X103504998Y-46945162D01*
X103505000Y-46945162D01*
X103505002Y-46945162D01*
X103558186Y-46940508D01*
X103717747Y-46926549D01*
X103924030Y-46871276D01*
X104117581Y-46781021D01*
X104292519Y-46658529D01*
X104443529Y-46507519D01*
X104566021Y-46332581D01*
X104656276Y-46139030D01*
X104711549Y-45932747D01*
X104730162Y-45720000D01*
X104711549Y-45507253D01*
X104656276Y-45300970D01*
X104566021Y-45107419D01*
X104443529Y-44932481D01*
X104443527Y-44932478D01*
X104292521Y-44781472D01*
X104117578Y-44658977D01*
X104117579Y-44658977D01*
X103971914Y-44591053D01*
X103924030Y-44568724D01*
X103924026Y-44568723D01*
X103924022Y-44568721D01*
X103717752Y-44513452D01*
X103717748Y-44513451D01*
X103717747Y-44513451D01*
X103717746Y-44513450D01*
X103717741Y-44513450D01*
X103505002Y-44494838D01*
X103504998Y-44494838D01*
X103292258Y-44513450D01*
X103292247Y-44513452D01*
X103085977Y-44568721D01*
X103085968Y-44568725D01*
X102892421Y-44658977D01*
X102717478Y-44781472D01*
X102566472Y-44932478D01*
X102443977Y-45107421D01*
X102353725Y-45300968D01*
X102353721Y-45300977D01*
X102298452Y-45507247D01*
X102298450Y-45507258D01*
X102279838Y-45719998D01*
X102279838Y-45720001D01*
X101600000Y-45720001D01*
X101600000Y-43180001D01*
X104819838Y-43180001D01*
X104838450Y-43392741D01*
X104838452Y-43392752D01*
X104893721Y-43599022D01*
X104893723Y-43599026D01*
X104893724Y-43599030D01*
X104936171Y-43690058D01*
X104983977Y-43792578D01*
X105106472Y-43967521D01*
X105257478Y-44118527D01*
X105257481Y-44118529D01*
X105432419Y-44241021D01*
X105432421Y-44241022D01*
X105432420Y-44241022D01*
X105496936Y-44271106D01*
X105625970Y-44331276D01*
X105832253Y-44386549D01*
X105984215Y-44399844D01*
X106044998Y-44405162D01*
X106045000Y-44405162D01*
X106045002Y-44405162D01*
X106098186Y-44400508D01*
X106257747Y-44386549D01*
X106464030Y-44331276D01*
X106657581Y-44241021D01*
X106832519Y-44118529D01*
X106983529Y-43967519D01*
X107090322Y-43815001D01*
X144189838Y-43815001D01*
X144208450Y-44027741D01*
X144208452Y-44027752D01*
X144263721Y-44234022D01*
X144263723Y-44234026D01*
X144263724Y-44234030D01*
X144306171Y-44325058D01*
X144353977Y-44427578D01*
X144476472Y-44602521D01*
X144627478Y-44753527D01*
X144627481Y-44753529D01*
X144802419Y-44876021D01*
X144802421Y-44876022D01*
X144802420Y-44876022D01*
X144845437Y-44896081D01*
X144995970Y-44966276D01*
X145202253Y-45021549D01*
X145354215Y-45034844D01*
X145414998Y-45040162D01*
X145415000Y-45040162D01*
X145415002Y-45040162D01*
X145468186Y-45035508D01*
X145627747Y-45021549D01*
X145834030Y-44966276D01*
X146027581Y-44876021D01*
X146202519Y-44753529D01*
X146353529Y-44602519D01*
X146476021Y-44427581D01*
X146566276Y-44234030D01*
X146621549Y-44027747D01*
X146640162Y-43815000D01*
X146621549Y-43602253D01*
X146566276Y-43395970D01*
X146476021Y-43202419D01*
X146353529Y-43027481D01*
X146353527Y-43027478D01*
X146202521Y-42876472D01*
X146027578Y-42753977D01*
X146027579Y-42753977D01*
X145898547Y-42693809D01*
X145834030Y-42663724D01*
X145834026Y-42663723D01*
X145834022Y-42663721D01*
X145627752Y-42608452D01*
X145627748Y-42608451D01*
X145627747Y-42608451D01*
X145627746Y-42608450D01*
X145627741Y-42608450D01*
X145415002Y-42589838D01*
X145414998Y-42589838D01*
X145202258Y-42608450D01*
X145202247Y-42608452D01*
X144995977Y-42663721D01*
X144995968Y-42663725D01*
X144802421Y-42753977D01*
X144627478Y-42876472D01*
X144476472Y-43027478D01*
X144353977Y-43202421D01*
X144263725Y-43395968D01*
X144263721Y-43395977D01*
X144208452Y-43602247D01*
X144208450Y-43602258D01*
X144189838Y-43814998D01*
X144189838Y-43815001D01*
X107090322Y-43815001D01*
X107106021Y-43792581D01*
X107196276Y-43599030D01*
X107251549Y-43392747D01*
X107270162Y-43180000D01*
X107251549Y-42967253D01*
X107196276Y-42760970D01*
X107106021Y-42567419D01*
X106983529Y-42392481D01*
X106983527Y-42392478D01*
X106832521Y-42241472D01*
X106657578Y-42118977D01*
X106657579Y-42118977D01*
X106528547Y-42058809D01*
X106464030Y-42028724D01*
X106464026Y-42028723D01*
X106464022Y-42028721D01*
X106257752Y-41973452D01*
X106257748Y-41973451D01*
X106257747Y-41973451D01*
X106257746Y-41973450D01*
X106257741Y-41973450D01*
X106045002Y-41954838D01*
X106044998Y-41954838D01*
X105832258Y-41973450D01*
X105832247Y-41973452D01*
X105625977Y-42028721D01*
X105625968Y-42028725D01*
X105432421Y-42118977D01*
X105257478Y-42241472D01*
X105106472Y-42392478D01*
X104983977Y-42567421D01*
X104893725Y-42760968D01*
X104893721Y-42760977D01*
X104838452Y-42967247D01*
X104838450Y-42967258D01*
X104819838Y-43179998D01*
X104819838Y-43180001D01*
X101600000Y-43180001D01*
X101600000Y-41399000D01*
X101619685Y-41331961D01*
X101672489Y-41286206D01*
X101724000Y-41275000D01*
X164341000Y-41275000D01*
X164408039Y-41294685D01*
G37*
%TD.AperFunction*%
%TD*%
%TA.AperFunction,Conductor*%
%TO.N,GND*%
G36*
X170122539Y-41294685D02*
G01*
X170168294Y-41347489D01*
X170179500Y-41399000D01*
X170179500Y-57785000D01*
X167996739Y-57785000D01*
X168074119Y-57759358D01*
X168074124Y-57759356D01*
X168223345Y-57667315D01*
X168347315Y-57543345D01*
X168439356Y-57394124D01*
X168439358Y-57394119D01*
X168494505Y-57227697D01*
X168494506Y-57227690D01*
X168504999Y-57124986D01*
X168505000Y-57124973D01*
X168505000Y-56725000D01*
X167438686Y-56725000D01*
X167464493Y-56684844D01*
X167505000Y-56546889D01*
X167505000Y-56403111D01*
X167464493Y-56265156D01*
X167438686Y-56225000D01*
X168504999Y-56225000D01*
X168504999Y-55825028D01*
X168504998Y-55825013D01*
X168494505Y-55722302D01*
X168439358Y-55555880D01*
X168439356Y-55555875D01*
X168347315Y-55406654D01*
X168223344Y-55282683D01*
X168223340Y-55282680D01*
X168068516Y-55187183D01*
X168021791Y-55135235D01*
X168010570Y-55066273D01*
X168038413Y-55002191D01*
X168045932Y-54993964D01*
X168193495Y-54846401D01*
X168329035Y-54652830D01*
X168428903Y-54438663D01*
X168490063Y-54210408D01*
X168510659Y-53975000D01*
X168490063Y-53739592D01*
X168428903Y-53511337D01*
X168329035Y-53297171D01*
X168329034Y-53297169D01*
X168193494Y-53103597D01*
X168026402Y-52936505D01*
X167832830Y-52800965D01*
X167832828Y-52800964D01*
X167725746Y-52751031D01*
X167618663Y-52701097D01*
X167618659Y-52701096D01*
X167618655Y-52701094D01*
X167390413Y-52639938D01*
X167390403Y-52639936D01*
X167213966Y-52624500D01*
X166796034Y-52624500D01*
X166619596Y-52639936D01*
X166619586Y-52639938D01*
X166391344Y-52701094D01*
X166391335Y-52701098D01*
X166177171Y-52800964D01*
X166177169Y-52800965D01*
X165983597Y-52936505D01*
X165816506Y-53103597D01*
X165816501Y-53103604D01*
X165680967Y-53297165D01*
X165680965Y-53297169D01*
X165581098Y-53511335D01*
X165581094Y-53511344D01*
X165519938Y-53739586D01*
X165519936Y-53739596D01*
X165499341Y-53974999D01*
X165499341Y-53975000D01*
X165519936Y-54210403D01*
X165519938Y-54210413D01*
X165581094Y-54438655D01*
X165581096Y-54438659D01*
X165581097Y-54438663D01*
X165631031Y-54545746D01*
X165680964Y-54652828D01*
X165680965Y-54652830D01*
X165816505Y-54846402D01*
X165964067Y-54993964D01*
X165997552Y-55055287D01*
X165992568Y-55124979D01*
X165950696Y-55180912D01*
X165941483Y-55187183D01*
X165786659Y-55282680D01*
X165786655Y-55282683D01*
X165662684Y-55406654D01*
X165570643Y-55555875D01*
X165570641Y-55555880D01*
X165515494Y-55722302D01*
X165515493Y-55722309D01*
X165505000Y-55825013D01*
X165505000Y-56225000D01*
X166571314Y-56225000D01*
X166545507Y-56265156D01*
X166505000Y-56403111D01*
X166505000Y-56546889D01*
X166545507Y-56684844D01*
X166571314Y-56725000D01*
X165505001Y-56725000D01*
X165505001Y-57124986D01*
X165515494Y-57227697D01*
X165570641Y-57394119D01*
X165570643Y-57394124D01*
X165662684Y-57543345D01*
X165786654Y-57667315D01*
X165935875Y-57759356D01*
X165935880Y-57759358D01*
X166013262Y-57785000D01*
X165100000Y-57785000D01*
X165100000Y-44490000D01*
X165499341Y-44490000D01*
X165519936Y-44725403D01*
X165519938Y-44725413D01*
X165581094Y-44953655D01*
X165581096Y-44953659D01*
X165581097Y-44953663D01*
X165631031Y-45060746D01*
X165680964Y-45167828D01*
X165680965Y-45167830D01*
X165816505Y-45361402D01*
X165964067Y-45508964D01*
X165997552Y-45570287D01*
X165992568Y-45639979D01*
X165950696Y-45695912D01*
X165941483Y-45702183D01*
X165786659Y-45797680D01*
X165786655Y-45797683D01*
X165662684Y-45921654D01*
X165570643Y-46070875D01*
X165570641Y-46070880D01*
X165515494Y-46237302D01*
X165515493Y-46237309D01*
X165505000Y-46340013D01*
X165505000Y-46740000D01*
X166571314Y-46740000D01*
X166545507Y-46780156D01*
X166505000Y-46918111D01*
X166505000Y-47061889D01*
X166545507Y-47199844D01*
X166571314Y-47240000D01*
X165505001Y-47240000D01*
X165505001Y-47639986D01*
X165515494Y-47742697D01*
X165570641Y-47909119D01*
X165570643Y-47909124D01*
X165662684Y-48058345D01*
X165786654Y-48182315D01*
X165935875Y-48274356D01*
X165935880Y-48274358D01*
X166102302Y-48329505D01*
X166102309Y-48329506D01*
X166205019Y-48339999D01*
X166754999Y-48339999D01*
X166755000Y-48339998D01*
X166755000Y-47425501D01*
X166862685Y-47474680D01*
X166969237Y-47490000D01*
X167040763Y-47490000D01*
X167147315Y-47474680D01*
X167255000Y-47425501D01*
X167255000Y-48339999D01*
X167804972Y-48339999D01*
X167804986Y-48339998D01*
X167907697Y-48329505D01*
X168074119Y-48274358D01*
X168074124Y-48274356D01*
X168223345Y-48182315D01*
X168347315Y-48058345D01*
X168439356Y-47909124D01*
X168439358Y-47909119D01*
X168494505Y-47742697D01*
X168494506Y-47742690D01*
X168504999Y-47639986D01*
X168505000Y-47639973D01*
X168505000Y-47240000D01*
X167438686Y-47240000D01*
X167464493Y-47199844D01*
X167505000Y-47061889D01*
X167505000Y-46918111D01*
X167464493Y-46780156D01*
X167438686Y-46740000D01*
X168504999Y-46740000D01*
X168504999Y-46340028D01*
X168504998Y-46340013D01*
X168494505Y-46237302D01*
X168439358Y-46070880D01*
X168439356Y-46070875D01*
X168347315Y-45921654D01*
X168223344Y-45797683D01*
X168223340Y-45797680D01*
X168068516Y-45702183D01*
X168021791Y-45650235D01*
X168010570Y-45581273D01*
X168038413Y-45517191D01*
X168045932Y-45508964D01*
X168193495Y-45361401D01*
X168329035Y-45167830D01*
X168428903Y-44953663D01*
X168490063Y-44725408D01*
X168510659Y-44490000D01*
X168490063Y-44254592D01*
X168428903Y-44026337D01*
X168329035Y-43812171D01*
X168329034Y-43812169D01*
X168193494Y-43618597D01*
X168026402Y-43451505D01*
X167832830Y-43315965D01*
X167832828Y-43315964D01*
X167725746Y-43266031D01*
X167618663Y-43216097D01*
X167618659Y-43216096D01*
X167618655Y-43216094D01*
X167390413Y-43154938D01*
X167390403Y-43154936D01*
X167213966Y-43139500D01*
X166796034Y-43139500D01*
X166619596Y-43154936D01*
X166619586Y-43154938D01*
X166391344Y-43216094D01*
X166391335Y-43216098D01*
X166177171Y-43315964D01*
X166177169Y-43315965D01*
X165983597Y-43451505D01*
X165816506Y-43618597D01*
X165816501Y-43618604D01*
X165680967Y-43812165D01*
X165680965Y-43812169D01*
X165581098Y-44026335D01*
X165581094Y-44026344D01*
X165519938Y-44254586D01*
X165519936Y-44254596D01*
X165499341Y-44489999D01*
X165499341Y-44490000D01*
X165100000Y-44490000D01*
X165100000Y-41399000D01*
X165119685Y-41331961D01*
X165172489Y-41286206D01*
X165224000Y-41275000D01*
X170055500Y-41275000D01*
X170122539Y-41294685D01*
G37*
%TD.AperFunction*%
%TD*%
%TA.AperFunction,Conductor*%
%TO.N,GND*%
G36*
X121198152Y-45104685D02*
G01*
X121243907Y-45157489D01*
X121253851Y-45226647D01*
X121224826Y-45290203D01*
X121202236Y-45310575D01*
X121194527Y-45315972D01*
X121194526Y-45315973D01*
X121875600Y-45997046D01*
X121794852Y-46009835D01*
X121681955Y-46067359D01*
X121592359Y-46156955D01*
X121534835Y-46269852D01*
X121522046Y-46350599D01*
X120840973Y-45669526D01*
X120840972Y-45669527D01*
X120789868Y-45742513D01*
X120693734Y-45948673D01*
X120693730Y-45948682D01*
X120634860Y-46168389D01*
X120634858Y-46168400D01*
X120615034Y-46394997D01*
X120615034Y-46395002D01*
X120634858Y-46621599D01*
X120634860Y-46621610D01*
X120693730Y-46841317D01*
X120693734Y-46841326D01*
X120789865Y-47047481D01*
X120789866Y-47047483D01*
X120840973Y-47120471D01*
X120840974Y-47120472D01*
X121522046Y-46439399D01*
X121534835Y-46520148D01*
X121592359Y-46633045D01*
X121681955Y-46722641D01*
X121794852Y-46780165D01*
X121875599Y-46792953D01*
X121194526Y-47474025D01*
X121194526Y-47474026D01*
X121267512Y-47525131D01*
X121267515Y-47525132D01*
X121282974Y-47532341D01*
X121335414Y-47578513D01*
X121354567Y-47645706D01*
X121334352Y-47712587D01*
X121282978Y-47757105D01*
X121267269Y-47764430D01*
X121267265Y-47764432D01*
X121080858Y-47894954D01*
X120919954Y-48055858D01*
X120789432Y-48242265D01*
X120789431Y-48242267D01*
X120693261Y-48448502D01*
X120693258Y-48448511D01*
X120634366Y-48668302D01*
X120634364Y-48668313D01*
X120614532Y-48894998D01*
X120614532Y-48895001D01*
X120634364Y-49121686D01*
X120634366Y-49121697D01*
X120693258Y-49341488D01*
X120693261Y-49341497D01*
X120789431Y-49547732D01*
X120789432Y-49547734D01*
X120919954Y-49734141D01*
X121080858Y-49895045D01*
X121080861Y-49895047D01*
X121267266Y-50025568D01*
X121473504Y-50121739D01*
X121693308Y-50180635D01*
X121855230Y-50194801D01*
X121919998Y-50200468D01*
X121920000Y-50200468D01*
X121920002Y-50200468D01*
X121976673Y-50195509D01*
X122146692Y-50180635D01*
X122366496Y-50121739D01*
X122572734Y-50025568D01*
X122759139Y-49895047D01*
X122920047Y-49734139D01*
X123050568Y-49547734D01*
X123146739Y-49341496D01*
X123205635Y-49121692D01*
X123225468Y-48895000D01*
X123221968Y-48855000D01*
X123205635Y-48668313D01*
X123205635Y-48668308D01*
X123146739Y-48448504D01*
X123050568Y-48242266D01*
X122920047Y-48055861D01*
X122920045Y-48055858D01*
X122759141Y-47894954D01*
X122572734Y-47764432D01*
X122572730Y-47764430D01*
X122557022Y-47757105D01*
X122504583Y-47710931D01*
X122485433Y-47643737D01*
X122505650Y-47576857D01*
X122557028Y-47532340D01*
X122572481Y-47525134D01*
X122645472Y-47474025D01*
X121964401Y-46792953D01*
X122045148Y-46780165D01*
X122158045Y-46722641D01*
X122247641Y-46633045D01*
X122305165Y-46520148D01*
X122317953Y-46439400D01*
X122999025Y-47120472D01*
X123050136Y-47047478D01*
X123146264Y-46841331D01*
X123146269Y-46841317D01*
X123205139Y-46621610D01*
X123205141Y-46621599D01*
X123224966Y-46395002D01*
X123224966Y-46394997D01*
X123205141Y-46168400D01*
X123205139Y-46168389D01*
X123146269Y-45948682D01*
X123146265Y-45948673D01*
X123050133Y-45742516D01*
X123050131Y-45742512D01*
X122999026Y-45669526D01*
X122999025Y-45669526D01*
X122317953Y-46350598D01*
X122305165Y-46269852D01*
X122247641Y-46156955D01*
X122158045Y-46067359D01*
X122045148Y-46009835D01*
X121964400Y-45997046D01*
X122645472Y-45315974D01*
X122645471Y-45315972D01*
X122637763Y-45310575D01*
X122594138Y-45255998D01*
X122586944Y-45186500D01*
X122618467Y-45124145D01*
X122678696Y-45088731D01*
X122708886Y-45085000D01*
X127452550Y-45085000D01*
X127519589Y-45104685D01*
X127565344Y-45157489D01*
X127575288Y-45226647D01*
X127546263Y-45290203D01*
X127544926Y-45291408D01*
X127544526Y-45295973D01*
X128225600Y-45977046D01*
X128144852Y-45989835D01*
X128031955Y-46047359D01*
X127942359Y-46136955D01*
X127884835Y-46249852D01*
X127872046Y-46330599D01*
X127190973Y-45649526D01*
X127190972Y-45649527D01*
X127139868Y-45722513D01*
X127043734Y-45928673D01*
X127043730Y-45928682D01*
X126984860Y-46148389D01*
X126984858Y-46148400D01*
X126965034Y-46374997D01*
X126965034Y-46375002D01*
X126984858Y-46601599D01*
X126984860Y-46601610D01*
X127043730Y-46821317D01*
X127043734Y-46821326D01*
X127139865Y-47027481D01*
X127139866Y-47027483D01*
X127190973Y-47100471D01*
X127190974Y-47100472D01*
X127872046Y-46419399D01*
X127884835Y-46500148D01*
X127942359Y-46613045D01*
X128031955Y-46702641D01*
X128144852Y-46760165D01*
X128225599Y-46772953D01*
X127544526Y-47454025D01*
X127544526Y-47454026D01*
X127617512Y-47505131D01*
X127617515Y-47505132D01*
X127632974Y-47512341D01*
X127685414Y-47558513D01*
X127704567Y-47625706D01*
X127684352Y-47692587D01*
X127632978Y-47737105D01*
X127617269Y-47744430D01*
X127617265Y-47744432D01*
X127430858Y-47874954D01*
X127269954Y-48035858D01*
X127139432Y-48222265D01*
X127139431Y-48222267D01*
X127043261Y-48428502D01*
X127043258Y-48428511D01*
X126984366Y-48648302D01*
X126984364Y-48648313D01*
X126964532Y-48874998D01*
X126964532Y-48875001D01*
X126984364Y-49101686D01*
X126984366Y-49101697D01*
X127043258Y-49321488D01*
X127043261Y-49321497D01*
X127085276Y-49411598D01*
X127139432Y-49527734D01*
X127139433Y-49527736D01*
X127139434Y-49527737D01*
X127181987Y-49588510D01*
X127204314Y-49654716D01*
X127187304Y-49722483D01*
X127168093Y-49747314D01*
X126144821Y-50770586D01*
X126083498Y-50804071D01*
X126025048Y-50802680D01*
X125956697Y-50784366D01*
X125956693Y-50784365D01*
X125956692Y-50784365D01*
X125843346Y-50774448D01*
X125730001Y-50764532D01*
X125729998Y-50764532D01*
X125503313Y-50784364D01*
X125503302Y-50784366D01*
X125283511Y-50843258D01*
X125283502Y-50843261D01*
X125077267Y-50939431D01*
X125077265Y-50939432D01*
X124890858Y-51069954D01*
X124729954Y-51230858D01*
X124599432Y-51417265D01*
X124599431Y-51417267D01*
X124572382Y-51475275D01*
X124526209Y-51527714D01*
X124459016Y-51546866D01*
X124392135Y-51526650D01*
X124347618Y-51475275D01*
X124320568Y-51417267D01*
X124320567Y-51417265D01*
X124190045Y-51230858D01*
X124029141Y-51069954D01*
X123842734Y-50939432D01*
X123842732Y-50939431D01*
X123636497Y-50843261D01*
X123636488Y-50843258D01*
X123416697Y-50784366D01*
X123416693Y-50784365D01*
X123416692Y-50784365D01*
X123416691Y-50784364D01*
X123416686Y-50784364D01*
X123190002Y-50764532D01*
X123189998Y-50764532D01*
X122963313Y-50784364D01*
X122963302Y-50784366D01*
X122743511Y-50843258D01*
X122743502Y-50843261D01*
X122537267Y-50939431D01*
X122537265Y-50939432D01*
X122350858Y-51069954D01*
X122189954Y-51230858D01*
X122059432Y-51417265D01*
X122059431Y-51417267D01*
X121963261Y-51623502D01*
X121963258Y-51623511D01*
X121904366Y-51843302D01*
X121904364Y-51843313D01*
X121884532Y-52069998D01*
X121884532Y-52070001D01*
X121904364Y-52296686D01*
X121904366Y-52296697D01*
X121963258Y-52516488D01*
X121963261Y-52516497D01*
X122059431Y-52722732D01*
X122059432Y-52722734D01*
X122189954Y-52909141D01*
X122350858Y-53070045D01*
X122350861Y-53070047D01*
X122537266Y-53200568D01*
X122743504Y-53296739D01*
X122963308Y-53355635D01*
X123125230Y-53369801D01*
X123189998Y-53375468D01*
X123190000Y-53375468D01*
X123190002Y-53375468D01*
X123246673Y-53370509D01*
X123416692Y-53355635D01*
X123636496Y-53296739D01*
X123842734Y-53200568D01*
X124029139Y-53070047D01*
X124190047Y-52909139D01*
X124320568Y-52722734D01*
X124347618Y-52664724D01*
X124393790Y-52612285D01*
X124460983Y-52593133D01*
X124527865Y-52613348D01*
X124572381Y-52664724D01*
X124599432Y-52722734D01*
X124612365Y-52741204D01*
X124705822Y-52874677D01*
X124728149Y-52940883D01*
X124711137Y-53008650D01*
X124691927Y-53033480D01*
X119940408Y-57785000D01*
X119380000Y-57785000D01*
X119380000Y-50165000D01*
X116359756Y-50165000D01*
X116292717Y-50145315D01*
X116246962Y-50092511D01*
X116237018Y-50023353D01*
X116266043Y-49959797D01*
X116288630Y-49939426D01*
X116409139Y-49855047D01*
X116570047Y-49694139D01*
X116700568Y-49507734D01*
X116796739Y-49301496D01*
X116855635Y-49081692D01*
X116875468Y-48855000D01*
X116855635Y-48628308D01*
X116796739Y-48408504D01*
X116700568Y-48202266D01*
X116570047Y-48015861D01*
X116570045Y-48015858D01*
X116409141Y-47854954D01*
X116222734Y-47724432D01*
X116222730Y-47724430D01*
X116207022Y-47717105D01*
X116154583Y-47670931D01*
X116135433Y-47603737D01*
X116155650Y-47536857D01*
X116207028Y-47492340D01*
X116222481Y-47485134D01*
X116295472Y-47434025D01*
X115614401Y-46752953D01*
X115695148Y-46740165D01*
X115808045Y-46682641D01*
X115897641Y-46593045D01*
X115955165Y-46480148D01*
X115967953Y-46399400D01*
X116649025Y-47080472D01*
X116700136Y-47007478D01*
X116796264Y-46801331D01*
X116796269Y-46801317D01*
X116855139Y-46581610D01*
X116855141Y-46581599D01*
X116874966Y-46355002D01*
X116874966Y-46354997D01*
X116855141Y-46128400D01*
X116855139Y-46128389D01*
X116796269Y-45908682D01*
X116796265Y-45908673D01*
X116700133Y-45702516D01*
X116700131Y-45702512D01*
X116649026Y-45629526D01*
X116649025Y-45629526D01*
X115967953Y-46310598D01*
X115955165Y-46229852D01*
X115897641Y-46116955D01*
X115808045Y-46027359D01*
X115695148Y-45969835D01*
X115614400Y-45957046D01*
X116295472Y-45275973D01*
X116290558Y-45219808D01*
X116304324Y-45151308D01*
X116352939Y-45101125D01*
X116414086Y-45085000D01*
X121131113Y-45085000D01*
X121198152Y-45104685D01*
G37*
%TD.AperFunction*%
%TA.AperFunction,Conductor*%
G36*
X131955156Y-45104685D02*
G01*
X132000911Y-45157489D01*
X132010855Y-45226647D01*
X131981830Y-45290203D01*
X131959240Y-45310575D01*
X131895858Y-45354954D01*
X131734954Y-45515858D01*
X131604432Y-45702265D01*
X131604431Y-45702267D01*
X131508261Y-45908502D01*
X131508258Y-45908511D01*
X131449366Y-46128302D01*
X131449364Y-46128313D01*
X131429532Y-46354998D01*
X131429532Y-46355001D01*
X131449364Y-46581686D01*
X131449366Y-46581697D01*
X131508258Y-46801488D01*
X131508261Y-46801497D01*
X131604431Y-47007732D01*
X131604432Y-47007734D01*
X131734954Y-47194141D01*
X131895858Y-47355045D01*
X131895861Y-47355047D01*
X132082266Y-47485568D01*
X132288504Y-47581739D01*
X132508308Y-47640635D01*
X132670230Y-47654801D01*
X132734998Y-47660468D01*
X132735000Y-47660468D01*
X132735002Y-47660468D01*
X132791673Y-47655509D01*
X132961692Y-47640635D01*
X133181496Y-47581739D01*
X133387734Y-47485568D01*
X133574139Y-47355047D01*
X133735047Y-47194139D01*
X133865568Y-47007734D01*
X133872893Y-46992023D01*
X133919062Y-46939586D01*
X133986254Y-46920432D01*
X134053136Y-46940645D01*
X134097657Y-46992023D01*
X134104865Y-47007481D01*
X134104866Y-47007483D01*
X134155973Y-47080471D01*
X134155974Y-47080472D01*
X134837046Y-46399399D01*
X134849835Y-46480148D01*
X134907359Y-46593045D01*
X134996955Y-46682641D01*
X135109852Y-46740165D01*
X135190599Y-46752953D01*
X134509526Y-47434025D01*
X134509526Y-47434026D01*
X134582512Y-47485131D01*
X134582516Y-47485133D01*
X134788673Y-47581265D01*
X134788682Y-47581269D01*
X135008389Y-47640139D01*
X135008400Y-47640141D01*
X135234998Y-47659966D01*
X135235002Y-47659966D01*
X135461599Y-47640141D01*
X135461610Y-47640139D01*
X135681317Y-47581269D01*
X135681331Y-47581264D01*
X135887478Y-47485136D01*
X135960472Y-47434025D01*
X135279401Y-46752953D01*
X135360148Y-46740165D01*
X135473045Y-46682641D01*
X135562641Y-46593045D01*
X135620165Y-46480148D01*
X135632953Y-46399400D01*
X136314025Y-47080472D01*
X136365136Y-47007478D01*
X136461264Y-46801331D01*
X136461269Y-46801317D01*
X136520139Y-46581610D01*
X136520141Y-46581599D01*
X136539966Y-46355002D01*
X136539966Y-46354997D01*
X136520141Y-46128400D01*
X136520139Y-46128389D01*
X136461269Y-45908682D01*
X136461265Y-45908673D01*
X136365133Y-45702516D01*
X136365131Y-45702512D01*
X136314026Y-45629526D01*
X136314025Y-45629526D01*
X135632953Y-46310598D01*
X135620165Y-46229852D01*
X135562641Y-46116955D01*
X135473045Y-46027359D01*
X135360148Y-45969835D01*
X135279400Y-45957046D01*
X135960472Y-45275973D01*
X135955558Y-45219808D01*
X135969324Y-45151308D01*
X136017939Y-45101125D01*
X136079086Y-45085000D01*
X137106765Y-45085000D01*
X137173804Y-45104685D01*
X137196665Y-45123595D01*
X144180590Y-52475095D01*
X144212492Y-52537256D01*
X144205723Y-52606797D01*
X144162432Y-52661639D01*
X144096363Y-52684370D01*
X144090690Y-52684500D01*
X142672129Y-52684500D01*
X142672123Y-52684501D01*
X142612516Y-52690908D01*
X142477671Y-52741202D01*
X142477664Y-52741206D01*
X142362455Y-52827452D01*
X142362452Y-52827455D01*
X142276206Y-52942664D01*
X142276202Y-52942671D01*
X142225908Y-53077517D01*
X142219501Y-53137116D01*
X142219500Y-53137135D01*
X142219500Y-54832870D01*
X142219501Y-54832876D01*
X142225908Y-54892483D01*
X142276202Y-55027328D01*
X142276206Y-55027335D01*
X142362452Y-55142544D01*
X142362455Y-55142547D01*
X142477664Y-55228793D01*
X142477671Y-55228797D01*
X142522618Y-55245561D01*
X142612517Y-55279091D01*
X142647596Y-55282862D01*
X142712144Y-55309599D01*
X142751993Y-55366991D01*
X142754488Y-55436816D01*
X142718836Y-55496905D01*
X142705464Y-55507725D01*
X142680858Y-55524954D01*
X142519954Y-55685858D01*
X142389432Y-55872265D01*
X142389431Y-55872267D01*
X142293261Y-56078502D01*
X142293258Y-56078511D01*
X142234366Y-56298302D01*
X142234364Y-56298313D01*
X142214532Y-56524998D01*
X142214532Y-56525001D01*
X142234364Y-56751686D01*
X142234366Y-56751697D01*
X142293258Y-56971488D01*
X142293261Y-56971497D01*
X142389431Y-57177732D01*
X142389432Y-57177734D01*
X142519954Y-57364141D01*
X142680858Y-57525045D01*
X142680861Y-57525047D01*
X142867266Y-57655568D01*
X142925275Y-57682618D01*
X142977714Y-57728791D01*
X142993735Y-57785000D01*
X140833501Y-57785000D01*
X140820568Y-57757266D01*
X140690047Y-57570861D01*
X140690045Y-57570858D01*
X140529141Y-57409954D01*
X140342734Y-57279432D01*
X140342728Y-57279429D01*
X140284725Y-57252382D01*
X140232285Y-57206210D01*
X140213133Y-57139017D01*
X140233348Y-57072135D01*
X140284725Y-57027618D01*
X140342734Y-57000568D01*
X140529139Y-56870047D01*
X140690047Y-56709139D01*
X140820568Y-56522734D01*
X140916739Y-56316496D01*
X140975635Y-56096692D01*
X140995468Y-55870000D01*
X140994242Y-55855991D01*
X140979358Y-55685861D01*
X140975635Y-55643308D01*
X140925943Y-55457853D01*
X140916741Y-55423511D01*
X140916738Y-55423502D01*
X140852386Y-55285500D01*
X140820568Y-55217266D01*
X140690047Y-55030861D01*
X140690045Y-55030858D01*
X140529141Y-54869954D01*
X140342734Y-54739432D01*
X140342732Y-54739431D01*
X140284725Y-54712382D01*
X140284132Y-54712105D01*
X140231694Y-54665934D01*
X140212542Y-54598740D01*
X140232758Y-54531859D01*
X140284134Y-54487341D01*
X140342484Y-54460132D01*
X140528820Y-54329657D01*
X140689657Y-54168820D01*
X140820134Y-53982482D01*
X140916265Y-53776326D01*
X140916269Y-53776317D01*
X140968872Y-53580000D01*
X140005686Y-53580000D01*
X140017641Y-53568045D01*
X140075165Y-53455148D01*
X140094986Y-53330000D01*
X140075165Y-53204852D01*
X140017641Y-53091955D01*
X140005686Y-53080000D01*
X140968872Y-53080000D01*
X140968872Y-53079999D01*
X140916269Y-52883682D01*
X140916265Y-52883673D01*
X140820134Y-52677517D01*
X140689657Y-52491179D01*
X140528820Y-52330342D01*
X140342482Y-52199865D01*
X140136328Y-52103734D01*
X139940000Y-52051127D01*
X139940000Y-53014314D01*
X139928045Y-53002359D01*
X139815148Y-52944835D01*
X139721481Y-52930000D01*
X139658519Y-52930000D01*
X139564852Y-52944835D01*
X139451955Y-53002359D01*
X139440000Y-53014314D01*
X139440000Y-52051127D01*
X139243671Y-52103734D01*
X139037517Y-52199865D01*
X138851179Y-52330342D01*
X138690342Y-52491179D01*
X138559865Y-52677517D01*
X138463734Y-52883673D01*
X138463730Y-52883682D01*
X138411127Y-53079999D01*
X138411128Y-53080000D01*
X139374314Y-53080000D01*
X139362359Y-53091955D01*
X139304835Y-53204852D01*
X139285014Y-53330000D01*
X139304835Y-53455148D01*
X139362359Y-53568045D01*
X139374314Y-53580000D01*
X138411128Y-53580000D01*
X138463730Y-53776317D01*
X138463734Y-53776326D01*
X138559865Y-53982482D01*
X138690342Y-54168820D01*
X138851179Y-54329657D01*
X139037518Y-54460134D01*
X139037520Y-54460135D01*
X139095865Y-54487342D01*
X139148305Y-54533514D01*
X139167457Y-54600707D01*
X139147242Y-54667589D01*
X139095867Y-54712105D01*
X139037268Y-54739431D01*
X139037264Y-54739433D01*
X138850858Y-54869954D01*
X138689954Y-55030858D01*
X138559432Y-55217265D01*
X138559431Y-55217267D01*
X138463261Y-55423502D01*
X138463258Y-55423511D01*
X138404366Y-55643302D01*
X138404364Y-55643313D01*
X138384532Y-55869998D01*
X138384532Y-55870001D01*
X138404364Y-56096686D01*
X138404366Y-56096697D01*
X138463258Y-56316488D01*
X138463261Y-56316497D01*
X138559431Y-56522732D01*
X138559432Y-56522734D01*
X138689954Y-56709141D01*
X138850858Y-56870045D01*
X138850861Y-56870047D01*
X139037266Y-57000568D01*
X139095275Y-57027618D01*
X139147714Y-57073791D01*
X139166866Y-57140984D01*
X139146650Y-57207865D01*
X139095275Y-57252382D01*
X139037267Y-57279431D01*
X139037265Y-57279432D01*
X138850858Y-57409954D01*
X138689954Y-57570858D01*
X138559432Y-57757265D01*
X138559431Y-57757267D01*
X138546499Y-57785000D01*
X133213501Y-57785000D01*
X133200568Y-57757266D01*
X133070047Y-57570861D01*
X133070045Y-57570858D01*
X132909141Y-57409954D01*
X132722734Y-57279432D01*
X132722728Y-57279429D01*
X132664725Y-57252382D01*
X132612285Y-57206210D01*
X132593133Y-57139017D01*
X132613348Y-57072135D01*
X132664725Y-57027618D01*
X132722734Y-57000568D01*
X132909139Y-56870047D01*
X133070047Y-56709139D01*
X133200568Y-56522734D01*
X133296739Y-56316496D01*
X133355635Y-56096692D01*
X133375468Y-55870000D01*
X133374242Y-55855991D01*
X133359358Y-55685861D01*
X133355635Y-55643308D01*
X133305943Y-55457853D01*
X133296741Y-55423511D01*
X133296738Y-55423502D01*
X133232386Y-55285500D01*
X133200568Y-55217266D01*
X133070047Y-55030861D01*
X133070045Y-55030858D01*
X132909141Y-54869954D01*
X132722734Y-54739432D01*
X132722728Y-54739429D01*
X132664725Y-54712382D01*
X132612285Y-54666210D01*
X132593133Y-54599017D01*
X132613348Y-54532135D01*
X132664725Y-54487618D01*
X132665319Y-54487341D01*
X132722734Y-54460568D01*
X132909139Y-54330047D01*
X133070047Y-54169139D01*
X133200568Y-53982734D01*
X133296739Y-53776496D01*
X133355635Y-53556692D01*
X133375468Y-53330000D01*
X133355635Y-53103308D01*
X133303608Y-52909139D01*
X133296741Y-52883511D01*
X133296738Y-52883502D01*
X133221767Y-52722728D01*
X133200568Y-52677266D01*
X133070047Y-52490861D01*
X133070045Y-52490858D01*
X132909141Y-52329954D01*
X132722734Y-52199432D01*
X132722732Y-52199431D01*
X132516497Y-52103261D01*
X132516488Y-52103258D01*
X132296697Y-52044366D01*
X132296693Y-52044365D01*
X132296692Y-52044365D01*
X132296691Y-52044364D01*
X132296686Y-52044364D01*
X132070002Y-52024532D01*
X132069998Y-52024532D01*
X131843313Y-52044364D01*
X131843302Y-52044366D01*
X131623511Y-52103258D01*
X131623502Y-52103261D01*
X131417267Y-52199431D01*
X131417265Y-52199432D01*
X131230858Y-52329954D01*
X131069954Y-52490858D01*
X130939432Y-52677265D01*
X130939431Y-52677267D01*
X130843261Y-52883502D01*
X130843258Y-52883511D01*
X130784366Y-53103302D01*
X130784364Y-53103313D01*
X130764532Y-53329998D01*
X130764532Y-53330001D01*
X130784364Y-53556686D01*
X130784366Y-53556697D01*
X130843258Y-53776488D01*
X130843261Y-53776497D01*
X130939431Y-53982732D01*
X130939432Y-53982734D01*
X131069954Y-54169141D01*
X131230858Y-54330045D01*
X131230861Y-54330047D01*
X131417266Y-54460568D01*
X131474681Y-54487341D01*
X131475275Y-54487618D01*
X131527714Y-54533791D01*
X131546866Y-54600984D01*
X131526650Y-54667865D01*
X131475275Y-54712382D01*
X131417267Y-54739431D01*
X131417265Y-54739432D01*
X131230858Y-54869954D01*
X131069954Y-55030858D01*
X130939432Y-55217265D01*
X130939431Y-55217267D01*
X130843261Y-55423502D01*
X130843258Y-55423511D01*
X130784366Y-55643302D01*
X130784364Y-55643313D01*
X130764532Y-55869998D01*
X130764532Y-55870001D01*
X130784364Y-56096686D01*
X130784366Y-56096697D01*
X130843258Y-56316488D01*
X130843261Y-56316497D01*
X130939431Y-56522732D01*
X130939432Y-56522734D01*
X131069954Y-56709141D01*
X131230858Y-56870045D01*
X131230861Y-56870047D01*
X131417266Y-57000568D01*
X131475275Y-57027618D01*
X131527714Y-57073791D01*
X131546866Y-57140984D01*
X131526650Y-57207865D01*
X131475275Y-57252382D01*
X131417267Y-57279431D01*
X131417265Y-57279432D01*
X131230858Y-57409954D01*
X131069954Y-57570858D01*
X130939432Y-57757265D01*
X130939431Y-57757267D01*
X130926499Y-57785000D01*
X126835030Y-57785000D01*
X126539440Y-57489410D01*
X126529617Y-57477148D01*
X126529396Y-57477332D01*
X126524423Y-57471321D01*
X126474001Y-57423971D01*
X126459983Y-57409953D01*
X126453112Y-57403081D01*
X126447623Y-57398823D01*
X126443198Y-57395045D01*
X126409219Y-57363136D01*
X126409217Y-57363134D01*
X126409214Y-57363133D01*
X126391666Y-57353486D01*
X126375400Y-57342802D01*
X126359570Y-57330523D01*
X126316805Y-57312016D01*
X126311559Y-57309446D01*
X126270730Y-57287001D01*
X126270729Y-57287000D01*
X126251330Y-57282020D01*
X126232918Y-57275716D01*
X126214535Y-57267760D01*
X126214529Y-57267758D01*
X126168511Y-57260470D01*
X126162789Y-57259285D01*
X126117658Y-57247698D01*
X126117656Y-57247698D01*
X126097621Y-57247698D01*
X126078223Y-57246171D01*
X126070799Y-57244995D01*
X126058442Y-57243038D01*
X126058441Y-57243038D01*
X126012053Y-57247423D01*
X126006215Y-57247698D01*
X122546253Y-57247698D01*
X122479214Y-57228013D01*
X122433459Y-57175209D01*
X122423515Y-57106051D01*
X122452540Y-57042495D01*
X122458572Y-57036017D01*
X124277324Y-55217265D01*
X126113786Y-53380802D01*
X126126048Y-53370980D01*
X126125865Y-53370759D01*
X126131867Y-53365792D01*
X126131877Y-53365786D01*
X126179241Y-53315348D01*
X126200120Y-53294470D01*
X126200120Y-53294469D01*
X126201052Y-53293538D01*
X126236327Y-53268838D01*
X126382734Y-53200568D01*
X126569139Y-53070047D01*
X126730047Y-52909139D01*
X126860568Y-52722734D01*
X126956739Y-52516496D01*
X127015635Y-52296692D01*
X127035468Y-52070000D01*
X127015635Y-51843308D01*
X126997318Y-51774948D01*
X126998981Y-51705103D01*
X127029410Y-51655179D01*
X128510442Y-50174147D01*
X128566026Y-50142056D01*
X128665594Y-50115377D01*
X128716486Y-50101742D01*
X128716489Y-50101740D01*
X128716496Y-50101739D01*
X128922734Y-50005568D01*
X129109139Y-49875047D01*
X129270047Y-49714139D01*
X129400568Y-49527734D01*
X129496739Y-49321496D01*
X129555635Y-49101692D01*
X129575468Y-48875000D01*
X129555635Y-48648308D01*
X129496739Y-48428504D01*
X129400568Y-48222266D01*
X129270047Y-48035861D01*
X129270045Y-48035858D01*
X129109141Y-47874954D01*
X128922734Y-47744432D01*
X128922730Y-47744430D01*
X128907022Y-47737105D01*
X128854583Y-47690931D01*
X128835433Y-47623737D01*
X128855650Y-47556857D01*
X128907028Y-47512340D01*
X128922481Y-47505134D01*
X128995472Y-47454025D01*
X128314401Y-46772953D01*
X128395148Y-46760165D01*
X128508045Y-46702641D01*
X128597641Y-46613045D01*
X128655165Y-46500148D01*
X128667953Y-46419400D01*
X129349025Y-47100472D01*
X129400136Y-47027478D01*
X129496264Y-46821331D01*
X129496269Y-46821317D01*
X129555139Y-46601610D01*
X129555141Y-46601599D01*
X129574966Y-46375002D01*
X129574966Y-46374997D01*
X129555141Y-46148400D01*
X129555139Y-46148389D01*
X129496269Y-45928682D01*
X129496265Y-45928673D01*
X129400133Y-45722516D01*
X129400131Y-45722512D01*
X129349026Y-45649526D01*
X129349025Y-45649526D01*
X128667953Y-46330598D01*
X128655165Y-46249852D01*
X128597641Y-46136955D01*
X128508045Y-46047359D01*
X128395148Y-45989835D01*
X128314400Y-45977046D01*
X128995472Y-45295974D01*
X128994343Y-45283074D01*
X128972701Y-45255999D01*
X128965507Y-45186500D01*
X128997030Y-45124145D01*
X129057259Y-45088731D01*
X129087449Y-45085000D01*
X131888117Y-45085000D01*
X131955156Y-45104685D01*
G37*
%TD.AperFunction*%
%TA.AperFunction,Conductor*%
G36*
X147420029Y-55890185D02*
G01*
X147442890Y-55909095D01*
X149127737Y-57682618D01*
X149225000Y-57785000D01*
X144045858Y-57785000D01*
X144063348Y-57727135D01*
X144114725Y-57682618D01*
X144172734Y-57655568D01*
X144359139Y-57525047D01*
X144520047Y-57364139D01*
X144650568Y-57177734D01*
X144746739Y-56971496D01*
X144805635Y-56751692D01*
X144825468Y-56525000D01*
X144805635Y-56298308D01*
X144751614Y-56096697D01*
X144746741Y-56078511D01*
X144746740Y-56078510D01*
X144746739Y-56078504D01*
X144732003Y-56046904D01*
X144721512Y-55977827D01*
X144750032Y-55914043D01*
X144808508Y-55875804D01*
X144844386Y-55870500D01*
X147352990Y-55870500D01*
X147420029Y-55890185D01*
G37*
%TD.AperFunction*%
%TA.AperFunction,Conductor*%
G36*
X114792952Y-45104685D02*
G01*
X114838707Y-45157489D01*
X114849441Y-45219808D01*
X114844526Y-45275973D01*
X115525600Y-45957046D01*
X115444852Y-45969835D01*
X115331955Y-46027359D01*
X115242359Y-46116955D01*
X115184835Y-46229852D01*
X115172046Y-46310599D01*
X114490973Y-45629526D01*
X114490972Y-45629527D01*
X114439868Y-45702513D01*
X114343734Y-45908673D01*
X114343730Y-45908682D01*
X114284860Y-46128389D01*
X114284858Y-46128400D01*
X114265034Y-46354997D01*
X114265034Y-46355002D01*
X114284858Y-46581599D01*
X114284860Y-46581610D01*
X114343730Y-46801317D01*
X114343734Y-46801326D01*
X114439865Y-47007481D01*
X114439866Y-47007483D01*
X114490973Y-47080471D01*
X114490974Y-47080472D01*
X115172046Y-46399399D01*
X115184835Y-46480148D01*
X115242359Y-46593045D01*
X115331955Y-46682641D01*
X115444852Y-46740165D01*
X115525599Y-46752953D01*
X114844526Y-47434025D01*
X114844526Y-47434026D01*
X114917512Y-47485131D01*
X114917515Y-47485132D01*
X114932974Y-47492341D01*
X114985414Y-47538513D01*
X115004567Y-47605706D01*
X114984352Y-47672587D01*
X114932978Y-47717105D01*
X114917269Y-47724430D01*
X114917265Y-47724432D01*
X114730858Y-47854954D01*
X114569954Y-48015858D01*
X114439432Y-48202265D01*
X114439431Y-48202267D01*
X114343261Y-48408502D01*
X114343258Y-48408511D01*
X114284366Y-48628302D01*
X114284364Y-48628313D01*
X114264532Y-48854998D01*
X114264532Y-48855001D01*
X114284364Y-49081686D01*
X114284366Y-49081697D01*
X114343258Y-49301488D01*
X114343261Y-49301497D01*
X114439431Y-49507732D01*
X114439432Y-49507734D01*
X114569954Y-49694141D01*
X114730858Y-49855045D01*
X114730861Y-49855047D01*
X114851367Y-49939426D01*
X114894992Y-49994001D01*
X114902186Y-50063499D01*
X114870664Y-50125854D01*
X114810434Y-50161269D01*
X114780244Y-50165000D01*
X113789000Y-50165000D01*
X113721961Y-50145315D01*
X113676206Y-50092511D01*
X113665000Y-50041000D01*
X113665000Y-45209000D01*
X113684685Y-45141961D01*
X113737489Y-45096206D01*
X113789000Y-45085000D01*
X114725913Y-45085000D01*
X114792952Y-45104685D01*
G37*
%TD.AperFunction*%
%TA.AperFunction,Conductor*%
G36*
X134457952Y-45104685D02*
G01*
X134503707Y-45157489D01*
X134514441Y-45219808D01*
X134509526Y-45275973D01*
X135190600Y-45957046D01*
X135109852Y-45969835D01*
X134996955Y-46027359D01*
X134907359Y-46116955D01*
X134849835Y-46229852D01*
X134837046Y-46310599D01*
X134155973Y-45629526D01*
X134155972Y-45629527D01*
X134104868Y-45702512D01*
X134097656Y-45717979D01*
X134051482Y-45770417D01*
X133984288Y-45789567D01*
X133917407Y-45769350D01*
X133872893Y-45717976D01*
X133865568Y-45702266D01*
X133735047Y-45515861D01*
X133735045Y-45515858D01*
X133574141Y-45354954D01*
X133510760Y-45310575D01*
X133467135Y-45255999D01*
X133459941Y-45186501D01*
X133491463Y-45124146D01*
X133551693Y-45088731D01*
X133581883Y-45085000D01*
X134390913Y-45085000D01*
X134457952Y-45104685D01*
G37*
%TD.AperFunction*%
%TD*%
M02*
