%TF.GenerationSoftware,KiCad,Pcbnew,7.0.8-7.0.8~ubuntu22.04.1*%
%TF.CreationDate,2023-12-11T11:20:47-08:00*%
%TF.ProjectId,SimplifiedTrigger,53696d70-6c69-4666-9965-645472696767,rev?*%
%TF.SameCoordinates,Original*%
%TF.FileFunction,Copper,L1,Top*%
%TF.FilePolarity,Positive*%
%FSLAX46Y46*%
G04 Gerber Fmt 4.6, Leading zero omitted, Abs format (unit mm)*
G04 Created by KiCad (PCBNEW 7.0.8-7.0.8~ubuntu22.04.1) date 2023-12-11 11:20:47*
%MOMM*%
%LPD*%
G01*
G04 APERTURE LIST*
G04 Aperture macros list*
%AMRoundRect*
0 Rectangle with rounded corners*
0 $1 Rounding radius*
0 $2 $3 $4 $5 $6 $7 $8 $9 X,Y pos of 4 corners*
0 Add a 4 corners polygon primitive as box body*
4,1,4,$2,$3,$4,$5,$6,$7,$8,$9,$2,$3,0*
0 Add four circle primitives for the rounded corners*
1,1,$1+$1,$2,$3*
1,1,$1+$1,$4,$5*
1,1,$1+$1,$6,$7*
1,1,$1+$1,$8,$9*
0 Add four rect primitives between the rounded corners*
20,1,$1+$1,$2,$3,$4,$5,0*
20,1,$1+$1,$4,$5,$6,$7,0*
20,1,$1+$1,$6,$7,$8,$9,0*
20,1,$1+$1,$8,$9,$2,$3,0*%
G04 Aperture macros list end*
%TA.AperFunction,ComponentPad*%
%ADD10RoundRect,0.250000X-0.750000X0.600000X-0.750000X-0.600000X0.750000X-0.600000X0.750000X0.600000X0*%
%TD*%
%TA.AperFunction,ComponentPad*%
%ADD11O,2.000000X1.700000*%
%TD*%
%TA.AperFunction,ComponentPad*%
%ADD12C,1.600000*%
%TD*%
%TA.AperFunction,ComponentPad*%
%ADD13RoundRect,0.250000X0.750000X-0.600000X0.750000X0.600000X-0.750000X0.600000X-0.750000X-0.600000X0*%
%TD*%
%TA.AperFunction,ComponentPad*%
%ADD14RoundRect,0.250000X0.600000X0.750000X-0.600000X0.750000X-0.600000X-0.750000X0.600000X-0.750000X0*%
%TD*%
%TA.AperFunction,ComponentPad*%
%ADD15O,1.700000X2.000000*%
%TD*%
%TA.AperFunction,ComponentPad*%
%ADD16R,1.600000X1.600000*%
%TD*%
%TA.AperFunction,ComponentPad*%
%ADD17O,1.600000X1.600000*%
%TD*%
%TA.AperFunction,ComponentPad*%
%ADD18C,1.400000*%
%TD*%
%TA.AperFunction,ComponentPad*%
%ADD19O,1.400000X1.400000*%
%TD*%
%TA.AperFunction,ComponentPad*%
%ADD20C,1.440000*%
%TD*%
%TA.AperFunction,ComponentPad*%
%ADD21RoundRect,0.250000X-0.725000X0.600000X-0.725000X-0.600000X0.725000X-0.600000X0.725000X0.600000X0*%
%TD*%
%TA.AperFunction,ComponentPad*%
%ADD22O,1.950000X1.700000*%
%TD*%
%TA.AperFunction,ViaPad*%
%ADD23C,0.800000*%
%TD*%
%TA.AperFunction,Conductor*%
%ADD24C,0.250000*%
%TD*%
G04 APERTURE END LIST*
D10*
%TO.P,J1,1,Pin_1*%
%TO.N,Net-(J1-Pin_1)*%
X103805000Y-67965000D03*
D11*
%TO.P,J1,2,Pin_2*%
%TO.N,Net-(J1-Pin_2)*%
X103805000Y-70465000D03*
%TD*%
D12*
%TO.P,0.1uF,1*%
%TO.N,Net-(U1-CV)*%
X121920000Y-48895000D03*
%TO.P,0.1uF,2*%
%TO.N,GND*%
X121920000Y-46395000D03*
%TD*%
D13*
%TO.P,Brain1,1,Pin_1*%
%TO.N,GND*%
X167005000Y-56475000D03*
D11*
%TO.P,Brain1,2,Pin_2*%
%TO.N,Net-(J10-Pin_2)*%
X167005000Y-53975000D03*
%TD*%
D14*
%TO.P,Bhv5,1,Pin_1*%
%TO.N,GND*%
X149840000Y-77770000D03*
D15*
%TO.P,Bhv5,2,Pin_2*%
%TO.N,Net-(J3-Pin_2)*%
X147340000Y-77770000D03*
%TD*%
D16*
%TO.P,SW1,1*%
%TO.N,Net-(U2A--)*%
X123190000Y-59690000D03*
D17*
%TO.P,SW1,2*%
%TO.N,Net-(U2B--)*%
X125730000Y-59690000D03*
%TO.P,SW1,3*%
%TO.N,Net-(U3-CV)*%
X125730000Y-52070000D03*
%TO.P,SW1,4*%
%TO.N,Net-(U1-CV)*%
X123190000Y-52070000D03*
%TD*%
D18*
%TO.P,33k,1*%
%TO.N,Net-(J1-Pin_2)*%
X107315000Y-72390000D03*
D19*
%TO.P,33k,2*%
%TO.N,Net-(U2B-+)*%
X112395000Y-72390000D03*
%TD*%
D16*
%TO.P,555,1,GND*%
%TO.N,GND*%
X139690000Y-60950000D03*
D17*
%TO.P,555,2,TR*%
%TO.N,VAC*%
X139690000Y-58410000D03*
%TO.P,555,3,Q*%
%TO.N,Net-(U1-Q)*%
X139690000Y-55870000D03*
%TO.P,555,4,R*%
%TO.N,GND*%
X139690000Y-53330000D03*
%TO.P,555,5,CV*%
%TO.N,Net-(U1-CV)*%
X132070000Y-53330000D03*
%TO.P,555,6,THR*%
%TO.N,Net-(U1-DIS)*%
X132070000Y-55870000D03*
%TO.P,555,7,DIS*%
X132070000Y-58410000D03*
%TO.P,555,8,VCC*%
%TO.N,+5V*%
X132070000Y-60950000D03*
%TD*%
D18*
%TO.P,33k,1*%
%TO.N,+5V*%
X132080000Y-66040000D03*
D19*
%TO.P,33k,2*%
%TO.N,Net-(U4A-+)*%
X137160000Y-66040000D03*
%TD*%
D16*
%TO.P,LM358,1*%
%TO.N,Net-(U2A--)*%
X120650000Y-63500000D03*
D17*
%TO.P,LM358,2,-*%
X120650000Y-66040000D03*
%TO.P,LM358,3,+*%
%TO.N,Net-(U2A-+)*%
X120650000Y-68580000D03*
%TO.P,LM358,4,V-*%
%TO.N,GND*%
X120650000Y-71120000D03*
%TO.P,LM358,5,+*%
%TO.N,Net-(U2B-+)*%
X128270000Y-71120000D03*
%TO.P,LM358,6,-*%
%TO.N,Net-(U2B--)*%
X128270000Y-68580000D03*
%TO.P,LM358,7*%
X128270000Y-66040000D03*
%TO.P,LM358,8,V+*%
%TO.N,+5V*%
X128270000Y-63500000D03*
%TD*%
D12*
%TO.P,0.1uF,1*%
%TO.N,Net-(U2A-+)*%
X114955000Y-67310000D03*
%TO.P,0.1uF,2*%
%TO.N,GND*%
X117455000Y-67310000D03*
%TD*%
D18*
%TO.P,33K,1*%
%TO.N,Net-(J1-Pin_1)*%
X107315000Y-67310000D03*
D19*
%TO.P,33K,2*%
%TO.N,Net-(U2A-+)*%
X112395000Y-67310000D03*
%TD*%
D14*
%TO.P,Bhv3,1,Pin_1*%
%TO.N,GND*%
X132060000Y-77770000D03*
D15*
%TO.P,Bhv3,2,Pin_2*%
%TO.N,Net-(J3-Pin_2)*%
X129560000Y-77770000D03*
%TD*%
D20*
%TO.P,10k Pot,1,1*%
%TO.N,Net-(U3-DIS)*%
X106045000Y-43180000D03*
%TO.P,10k Pot,2,2*%
X103505000Y-45720000D03*
%TO.P,10k Pot,3,3*%
%TO.N,+5V*%
X106045000Y-48260000D03*
%TD*%
D13*
%TO.P,Strb2,1,Pin_1*%
%TO.N,GND*%
X167005000Y-66655000D03*
D11*
%TO.P,Strb2,2,Pin_2*%
%TO.N,Net-(J11-Pin_2)*%
X167005000Y-64155000D03*
%TD*%
D14*
%TO.P,Bhv6,1,Pin_1*%
%TO.N,GND*%
X159365000Y-78070000D03*
D15*
%TO.P,Bhv6,2,Pin_2*%
%TO.N,Net-(J3-Pin_2)*%
X156865000Y-78070000D03*
%TD*%
D12*
%TO.P,0.1uF,1*%
%TO.N,Net-(U3-CV)*%
X128270000Y-48875000D03*
%TO.P,0.1uF,2*%
%TO.N,GND*%
X128270000Y-46375000D03*
%TD*%
D18*
%TO.P,33k,1*%
%TO.N,Net-(U4A-+)*%
X144780000Y-66040000D03*
D19*
%TO.P,33k,2*%
%TO.N,GND*%
X139700000Y-66040000D03*
%TD*%
D14*
%TO.P,Bhv4,1,Pin_1*%
%TO.N,GND*%
X140950000Y-77770000D03*
D15*
%TO.P,Bhv4,2,Pin_2*%
%TO.N,Net-(J3-Pin_2)*%
X138450000Y-77770000D03*
%TD*%
D16*
%TO.P,LM358,1*%
%TO.N,Net-(J3-Pin_2)*%
X143520000Y-53985000D03*
D17*
%TO.P,LM358,2,-*%
%TO.N,Net-(U1-Q)*%
X143520000Y-56525000D03*
%TO.P,LM358,3,+*%
%TO.N,Net-(U4A-+)*%
X143520000Y-59065000D03*
%TO.P,LM358,4,V-*%
%TO.N,GND*%
X143520000Y-61605000D03*
%TO.P,LM358,5,+*%
%TO.N,Net-(U4A-+)*%
X151140000Y-61605000D03*
%TO.P,LM358,6,-*%
%TO.N,Net-(U3-Q)*%
X151140000Y-59065000D03*
%TO.P,LM358,7*%
%TO.N,Net-(J10-Pin_2)*%
X151140000Y-56525000D03*
%TO.P,LM358,8,V+*%
%TO.N,+5V*%
X151140000Y-53985000D03*
%TD*%
D20*
%TO.P,10k Pot,1,1*%
%TO.N,Net-(U1-DIS)*%
X147955000Y-46355000D03*
%TO.P,10k Pot,2,2*%
X145415000Y-43815000D03*
%TO.P,10k Pot,3,3*%
%TO.N,+5V*%
X142875000Y-46355000D03*
%TD*%
D12*
%TO.P,2.2uF,1*%
%TO.N,Net-(U3-DIS)*%
X115570000Y-48855000D03*
%TO.P,2.2uF,2*%
%TO.N,GND*%
X115570000Y-46355000D03*
%TD*%
D21*
%TO.P,J2,1,Pin_1*%
%TO.N,+5V*%
X103805000Y-56555000D03*
D22*
%TO.P,J2,2,Pin_2*%
%TO.N,GND*%
X103805000Y-59055000D03*
%TO.P,J2,3,Pin_3*%
%TO.N,VAC*%
X103805000Y-61555000D03*
%TD*%
D13*
%TO.P,Strb1,1,Pin_1*%
%TO.N,GND*%
X167005000Y-75652000D03*
D11*
%TO.P,Strb1,2,Pin_2*%
%TO.N,Net-(J12-Pin_2)*%
X167005000Y-73152000D03*
%TD*%
D14*
%TO.P,Bhv2,1,Pin_1*%
%TO.N,GND*%
X123170000Y-77770000D03*
D15*
%TO.P,Bhv2,2,Pin_2*%
%TO.N,Net-(J3-Pin_2)*%
X120670000Y-77770000D03*
%TD*%
D13*
%TO.P,Brain2,1,Pin_1*%
%TO.N,GND*%
X167005000Y-46990000D03*
D11*
%TO.P,Brain2,2,Pin_2*%
%TO.N,Net-(J10-Pin_2)*%
X167005000Y-44490000D03*
%TD*%
D16*
%TO.P,555,1,GND*%
%TO.N,GND*%
X109230000Y-53340000D03*
D17*
%TO.P,555,2,TR*%
%TO.N,VAC*%
X109230000Y-55880000D03*
%TO.P,555,3,Q*%
%TO.N,Net-(U3-Q)*%
X109230000Y-58420000D03*
%TO.P,555,4,R*%
%TO.N,GND*%
X109230000Y-60960000D03*
%TO.P,555,5,CV*%
%TO.N,Net-(U3-CV)*%
X116850000Y-60960000D03*
%TO.P,555,6,THR*%
%TO.N,Net-(U3-DIS)*%
X116850000Y-58420000D03*
%TO.P,555,7,DIS*%
X116850000Y-55880000D03*
%TO.P,555,8,VCC*%
%TO.N,+5V*%
X116850000Y-53340000D03*
%TD*%
D16*
%TO.P,74HC74,1,~{R}*%
%TO.N,+5V*%
X154940000Y-46990000D03*
D17*
%TO.P,74HC74,2,D*%
%TO.N,Net-(J12-Pin_2)*%
X154940000Y-49530000D03*
%TO.P,74HC74,3,C*%
%TO.N,Net-(U3-Q)*%
X154940000Y-52070000D03*
%TO.P,74HC74,4,~{S}*%
%TO.N,+5V*%
X154940000Y-54610000D03*
%TO.P,74HC74,5,Q*%
%TO.N,Net-(J11-Pin_2)*%
X154940000Y-57150000D03*
%TO.P,74HC74,6,~{Q}*%
%TO.N,Net-(J12-Pin_2)*%
X154940000Y-59690000D03*
%TO.P,74HC74,7,GND*%
%TO.N,GND*%
X154940000Y-62230000D03*
%TO.P,74HC74,8*%
%TO.N,N/C*%
X162560000Y-62230000D03*
%TO.P,74HC74,9*%
X162560000Y-59690000D03*
%TO.P,74HC74,10*%
X162560000Y-57150000D03*
%TO.P,74HC74,11*%
X162560000Y-54610000D03*
%TO.P,74HC74,12*%
X162560000Y-52070000D03*
%TO.P,74HC74,13*%
X162560000Y-49530000D03*
%TO.P,74HC74,14,VCC*%
%TO.N,+5V*%
X162560000Y-46990000D03*
%TD*%
D14*
%TO.P,Bhv1,1,Pin_1*%
%TO.N,GND*%
X114280000Y-77770000D03*
D15*
%TO.P,Bhv1,2,Pin_2*%
%TO.N,Net-(J3-Pin_2)*%
X111780000Y-77770000D03*
%TD*%
D12*
%TO.P,0.1uF,1*%
%TO.N,Net-(U2B-+)*%
X114955000Y-72390000D03*
%TO.P,0.1uF,2*%
%TO.N,GND*%
X117455000Y-72390000D03*
%TD*%
%TO.P,2.2uF,1*%
%TO.N,Net-(U1-DIS)*%
X132735000Y-46355000D03*
%TO.P,2.2uF,2*%
%TO.N,GND*%
X135235000Y-46355000D03*
%TD*%
D23*
%TO.N,VAC*%
X114935000Y-58420000D03*
X118745000Y-58820500D03*
%TO.N,Net-(J3-Pin_2)*%
X156845000Y-58420000D03*
%TO.N,Net-(J11-Pin_2)*%
X156140500Y-66675000D03*
X160655000Y-67945000D03*
%TO.N,Net-(J12-Pin_2)*%
X158115000Y-66675000D03*
%TO.N,Net-(U3-Q)*%
X147955000Y-60880500D03*
X147320000Y-62329500D03*
%TD*%
D24*
%TO.N,Net-(U1-DIS)*%
X135275000Y-43815000D02*
X145415000Y-43815000D01*
X132842000Y-56642000D02*
X133297129Y-56642000D01*
X132070000Y-55870000D02*
X132842000Y-56642000D01*
X145415000Y-43815000D02*
X147955000Y-46355000D01*
X133297129Y-57182871D02*
X132070000Y-58410000D01*
X132735000Y-46355000D02*
X135275000Y-43815000D01*
X133297129Y-46917129D02*
X133297129Y-56642000D01*
X133297129Y-56642000D02*
X133297129Y-57182871D01*
X132735000Y-46355000D02*
X133297129Y-46917129D01*
%TO.N,Net-(U2A-+)*%
X112395000Y-67310000D02*
X114955000Y-67310000D01*
X116225000Y-68580000D02*
X120650000Y-68580000D01*
X114955000Y-67310000D02*
X116225000Y-68580000D01*
%TO.N,Net-(U3-DIS)*%
X116850000Y-58420000D02*
X116850000Y-55880000D01*
X110490000Y-47625000D02*
X110490000Y-48260000D01*
X115570000Y-54600000D02*
X115570000Y-48855000D01*
X103505000Y-45720000D02*
X106045000Y-43180000D01*
X106045000Y-43180000D02*
X110490000Y-47625000D01*
X111085000Y-48855000D02*
X115570000Y-48855000D01*
X110490000Y-48260000D02*
X111085000Y-48855000D01*
X116850000Y-55880000D02*
X115570000Y-54600000D01*
%TO.N,Net-(U2B-+)*%
X125730000Y-74295000D02*
X127635000Y-72390000D01*
X127635000Y-71755000D02*
X128270000Y-71120000D01*
X116860000Y-74295000D02*
X125730000Y-74295000D01*
X127635000Y-72390000D02*
X127635000Y-71755000D01*
X114955000Y-72390000D02*
X116860000Y-74295000D01*
X112395000Y-72390000D02*
X114955000Y-72390000D01*
%TO.N,Net-(U1-CV)*%
X132070000Y-53330000D02*
X124450000Y-53330000D01*
X121920000Y-50800000D02*
X121920000Y-48895000D01*
X124450000Y-53330000D02*
X123190000Y-52070000D01*
X123190000Y-52070000D02*
X121920000Y-50800000D01*
%TO.N,Net-(J1-Pin_1)*%
X106660000Y-67965000D02*
X107315000Y-67310000D01*
X103805000Y-67965000D02*
X106660000Y-67965000D01*
%TO.N,Net-(J1-Pin_2)*%
X105390000Y-70465000D02*
X107315000Y-72390000D01*
X103805000Y-70465000D02*
X105390000Y-70465000D01*
%TO.N,+5V*%
X130810000Y-66040000D02*
X128270000Y-63500000D01*
X132080000Y-66040000D02*
X130810000Y-66040000D01*
%TO.N,VAC*%
X107950000Y-55880000D02*
X109230000Y-55880000D01*
X138565000Y-59535000D02*
X139690000Y-58410000D01*
X119450500Y-58115000D02*
X129743000Y-58115000D01*
X105525000Y-59835000D02*
X105525000Y-58305000D01*
X131163000Y-59535000D02*
X138565000Y-59535000D01*
X103805000Y-61555000D02*
X105525000Y-59835000D01*
X112395000Y-55880000D02*
X114935000Y-58420000D01*
X118745000Y-58820500D02*
X119450500Y-58115000D01*
X109230000Y-55880000D02*
X112395000Y-55880000D01*
X105525000Y-58305000D02*
X107950000Y-55880000D01*
X129743000Y-58115000D02*
X131163000Y-59535000D01*
%TO.N,Net-(J3-Pin_2)*%
X128235000Y-79095000D02*
X121995000Y-79095000D01*
X155840000Y-79095000D02*
X148665000Y-79095000D01*
X139775000Y-79095000D02*
X138450000Y-77770000D01*
X156845000Y-58420000D02*
X156865000Y-58440000D01*
X138450000Y-77770000D02*
X137125000Y-79095000D01*
X156865000Y-58440000D02*
X156865000Y-78070000D01*
X156865000Y-78070000D02*
X155840000Y-79095000D01*
X120670000Y-77770000D02*
X119345000Y-79095000D01*
X146015000Y-79095000D02*
X139775000Y-79095000D01*
X147340000Y-77770000D02*
X146015000Y-79095000D01*
X130885000Y-79095000D02*
X129560000Y-77770000D01*
X129560000Y-77770000D02*
X128235000Y-79095000D01*
X121995000Y-79095000D02*
X120670000Y-77770000D01*
X113105000Y-79095000D02*
X111780000Y-77770000D01*
X119345000Y-79095000D02*
X113105000Y-79095000D01*
X148665000Y-79095000D02*
X147340000Y-77770000D01*
X137125000Y-79095000D02*
X130885000Y-79095000D01*
%TO.N,Net-(J10-Pin_2)*%
X152850200Y-56330200D02*
X152850200Y-49270180D01*
X166705000Y-51985000D02*
X163125000Y-48405000D01*
X152655400Y-56525000D02*
X152850200Y-56330200D01*
X151140000Y-56525000D02*
X152655400Y-56525000D01*
X152850200Y-49270180D02*
X153715380Y-48405000D01*
X151334800Y-56330200D02*
X151140000Y-56525000D01*
X153715380Y-48405000D02*
X163125000Y-48405000D01*
X166705000Y-53995000D02*
X166705000Y-51985000D01*
X163125000Y-48405000D02*
X167040000Y-44490000D01*
%TO.N,Net-(J11-Pin_2)*%
X154940000Y-57150000D02*
X153815000Y-58275000D01*
X153815000Y-64349500D02*
X156140500Y-66675000D01*
X153815000Y-58275000D02*
X153815000Y-64349500D01*
X160655000Y-67945000D02*
X164445000Y-64155000D01*
X164445000Y-64155000D02*
X166670000Y-64155000D01*
%TO.N,Net-(J12-Pin_2)*%
X156065000Y-50655000D02*
X156065000Y-58565000D01*
X166370000Y-73152000D02*
X166370000Y-73660000D01*
X158115000Y-66675000D02*
X164592000Y-73152000D01*
X154940000Y-49530000D02*
X156065000Y-50655000D01*
X156065000Y-58565000D02*
X154940000Y-59690000D01*
X164592000Y-73152000D02*
X166370000Y-73152000D01*
%TO.N,Net-(U4A-+)*%
X138489056Y-64710944D02*
X143726123Y-64710944D01*
X149225000Y-66040000D02*
X144780000Y-66040000D01*
X151140000Y-62855000D02*
X150495000Y-63500000D01*
X150495000Y-64770000D02*
X149225000Y-66040000D01*
X143726123Y-64710944D02*
X143726123Y-64986123D01*
X150495000Y-63500000D02*
X150495000Y-64770000D01*
X146060000Y-61605000D02*
X143520000Y-59065000D01*
X151140000Y-61605000D02*
X151140000Y-62855000D01*
X137160000Y-66040000D02*
X138489056Y-64710944D01*
X143726123Y-64986123D02*
X144780000Y-66040000D01*
X151140000Y-61605000D02*
X146060000Y-61605000D01*
%TO.N,Net-(U2A--)*%
X120650000Y-66040000D02*
X120650000Y-63500000D01*
X120650000Y-63500000D02*
X120650000Y-62230000D01*
X120650000Y-62230000D02*
X123190000Y-59690000D01*
%TO.N,Net-(U2B--)*%
X128270000Y-66040000D02*
X125730000Y-63500000D01*
X128270000Y-68580000D02*
X128270000Y-66040000D01*
X125730000Y-63500000D02*
X125730000Y-59690000D01*
%TO.N,Net-(U1-Q)*%
X139690000Y-55870000D02*
X140960000Y-55870000D01*
X141615000Y-56525000D02*
X143520000Y-56525000D01*
X140960000Y-55870000D02*
X141615000Y-56525000D01*
%TO.N,Net-(U3-Q)*%
X151140000Y-59065000D02*
X153815000Y-56390000D01*
X132235524Y-62865000D02*
X146784500Y-62865000D01*
X146784500Y-62865000D02*
X147320000Y-62329500D01*
X127935524Y-58565000D02*
X132235524Y-62865000D01*
X147955000Y-60880500D02*
X149770500Y-59065000D01*
X110355000Y-59545000D02*
X121275380Y-59545000D01*
X153815000Y-53195000D02*
X154940000Y-52070000D01*
X109230000Y-58420000D02*
X110355000Y-59545000D01*
X153815000Y-56390000D02*
X153815000Y-53195000D01*
X121275380Y-59545000D02*
X122255380Y-58565000D01*
X122255380Y-58565000D02*
X127935524Y-58565000D01*
X149770500Y-59065000D02*
X151140000Y-59065000D01*
%TD*%
M02*
