%TF.GenerationSoftware,KiCad,Pcbnew,7.0.8-7.0.8~ubuntu22.04.1*%
%TF.CreationDate,2023-12-11T11:20:47-08:00*%
%TF.ProjectId,SimplifiedTrigger,53696d70-6c69-4666-9965-645472696767,rev?*%
%TF.SameCoordinates,Original*%
%TF.FileFunction,Legend,Top*%
%TF.FilePolarity,Positive*%
%FSLAX46Y46*%
G04 Gerber Fmt 4.6, Leading zero omitted, Abs format (unit mm)*
G04 Created by KiCad (PCBNEW 7.0.8-7.0.8~ubuntu22.04.1) date 2023-12-11 11:20:47*
%MOMM*%
%LPD*%
G01*
G04 APERTURE LIST*
%ADD10C,0.150000*%
%ADD11C,0.120000*%
G04 APERTURE END LIST*
D10*
X106059819Y-69548333D02*
X106774104Y-69548333D01*
X106774104Y-69548333D02*
X106916961Y-69595952D01*
X106916961Y-69595952D02*
X107012200Y-69691190D01*
X107012200Y-69691190D02*
X107059819Y-69834047D01*
X107059819Y-69834047D02*
X107059819Y-69929285D01*
X107059819Y-68548333D02*
X107059819Y-69119761D01*
X107059819Y-68834047D02*
X106059819Y-68834047D01*
X106059819Y-68834047D02*
X106202676Y-68929285D01*
X106202676Y-68929285D02*
X106297914Y-69024523D01*
X106297914Y-69024523D02*
X106345533Y-69119761D01*
X119074819Y-49287856D02*
X119074819Y-49192618D01*
X119074819Y-49192618D02*
X119122438Y-49097380D01*
X119122438Y-49097380D02*
X119170057Y-49049761D01*
X119170057Y-49049761D02*
X119265295Y-49002142D01*
X119265295Y-49002142D02*
X119455771Y-48954523D01*
X119455771Y-48954523D02*
X119693866Y-48954523D01*
X119693866Y-48954523D02*
X119884342Y-49002142D01*
X119884342Y-49002142D02*
X119979580Y-49049761D01*
X119979580Y-49049761D02*
X120027200Y-49097380D01*
X120027200Y-49097380D02*
X120074819Y-49192618D01*
X120074819Y-49192618D02*
X120074819Y-49287856D01*
X120074819Y-49287856D02*
X120027200Y-49383094D01*
X120027200Y-49383094D02*
X119979580Y-49430713D01*
X119979580Y-49430713D02*
X119884342Y-49478332D01*
X119884342Y-49478332D02*
X119693866Y-49525951D01*
X119693866Y-49525951D02*
X119455771Y-49525951D01*
X119455771Y-49525951D02*
X119265295Y-49478332D01*
X119265295Y-49478332D02*
X119170057Y-49430713D01*
X119170057Y-49430713D02*
X119122438Y-49383094D01*
X119122438Y-49383094D02*
X119074819Y-49287856D01*
X119979580Y-48525951D02*
X120027200Y-48478332D01*
X120027200Y-48478332D02*
X120074819Y-48525951D01*
X120074819Y-48525951D02*
X120027200Y-48573570D01*
X120027200Y-48573570D02*
X119979580Y-48525951D01*
X119979580Y-48525951D02*
X120074819Y-48525951D01*
X120074819Y-47525952D02*
X120074819Y-48097380D01*
X120074819Y-47811666D02*
X119074819Y-47811666D01*
X119074819Y-47811666D02*
X119217676Y-47906904D01*
X119217676Y-47906904D02*
X119312914Y-48002142D01*
X119312914Y-48002142D02*
X119360533Y-48097380D01*
X119408152Y-46668809D02*
X120074819Y-46668809D01*
X119408152Y-47097380D02*
X119931961Y-47097380D01*
X119931961Y-47097380D02*
X120027200Y-47049761D01*
X120027200Y-47049761D02*
X120074819Y-46954523D01*
X120074819Y-46954523D02*
X120074819Y-46811666D01*
X120074819Y-46811666D02*
X120027200Y-46716428D01*
X120027200Y-46716428D02*
X119979580Y-46668809D01*
X119551009Y-45859285D02*
X119551009Y-46192618D01*
X120074819Y-46192618D02*
X119074819Y-46192618D01*
X119074819Y-46192618D02*
X119074819Y-45716428D01*
X164136009Y-57082142D02*
X164183628Y-56939285D01*
X164183628Y-56939285D02*
X164231247Y-56891666D01*
X164231247Y-56891666D02*
X164326485Y-56844047D01*
X164326485Y-56844047D02*
X164469342Y-56844047D01*
X164469342Y-56844047D02*
X164564580Y-56891666D01*
X164564580Y-56891666D02*
X164612200Y-56939285D01*
X164612200Y-56939285D02*
X164659819Y-57034523D01*
X164659819Y-57034523D02*
X164659819Y-57415475D01*
X164659819Y-57415475D02*
X163659819Y-57415475D01*
X163659819Y-57415475D02*
X163659819Y-57082142D01*
X163659819Y-57082142D02*
X163707438Y-56986904D01*
X163707438Y-56986904D02*
X163755057Y-56939285D01*
X163755057Y-56939285D02*
X163850295Y-56891666D01*
X163850295Y-56891666D02*
X163945533Y-56891666D01*
X163945533Y-56891666D02*
X164040771Y-56939285D01*
X164040771Y-56939285D02*
X164088390Y-56986904D01*
X164088390Y-56986904D02*
X164136009Y-57082142D01*
X164136009Y-57082142D02*
X164136009Y-57415475D01*
X164659819Y-56415475D02*
X163993152Y-56415475D01*
X164183628Y-56415475D02*
X164088390Y-56367856D01*
X164088390Y-56367856D02*
X164040771Y-56320237D01*
X164040771Y-56320237D02*
X163993152Y-56224999D01*
X163993152Y-56224999D02*
X163993152Y-56129761D01*
X164659819Y-55367856D02*
X164136009Y-55367856D01*
X164136009Y-55367856D02*
X164040771Y-55415475D01*
X164040771Y-55415475D02*
X163993152Y-55510713D01*
X163993152Y-55510713D02*
X163993152Y-55701189D01*
X163993152Y-55701189D02*
X164040771Y-55796427D01*
X164612200Y-55367856D02*
X164659819Y-55463094D01*
X164659819Y-55463094D02*
X164659819Y-55701189D01*
X164659819Y-55701189D02*
X164612200Y-55796427D01*
X164612200Y-55796427D02*
X164516961Y-55844046D01*
X164516961Y-55844046D02*
X164421723Y-55844046D01*
X164421723Y-55844046D02*
X164326485Y-55796427D01*
X164326485Y-55796427D02*
X164278866Y-55701189D01*
X164278866Y-55701189D02*
X164278866Y-55463094D01*
X164278866Y-55463094D02*
X164231247Y-55367856D01*
X164659819Y-54891665D02*
X163993152Y-54891665D01*
X163659819Y-54891665D02*
X163707438Y-54939284D01*
X163707438Y-54939284D02*
X163755057Y-54891665D01*
X163755057Y-54891665D02*
X163707438Y-54844046D01*
X163707438Y-54844046D02*
X163659819Y-54891665D01*
X163659819Y-54891665D02*
X163755057Y-54891665D01*
X163993152Y-54415475D02*
X164659819Y-54415475D01*
X164088390Y-54415475D02*
X164040771Y-54367856D01*
X164040771Y-54367856D02*
X163993152Y-54272618D01*
X163993152Y-54272618D02*
X163993152Y-54129761D01*
X163993152Y-54129761D02*
X164040771Y-54034523D01*
X164040771Y-54034523D02*
X164136009Y-53986904D01*
X164136009Y-53986904D02*
X164659819Y-53986904D01*
X164659819Y-52986904D02*
X164659819Y-53558332D01*
X164659819Y-53272618D02*
X163659819Y-53272618D01*
X163659819Y-53272618D02*
X163802676Y-53367856D01*
X163802676Y-53367856D02*
X163897914Y-53463094D01*
X163897914Y-53463094D02*
X163945533Y-53558332D01*
X147351904Y-80501009D02*
X147494761Y-80548628D01*
X147494761Y-80548628D02*
X147542380Y-80596247D01*
X147542380Y-80596247D02*
X147589999Y-80691485D01*
X147589999Y-80691485D02*
X147589999Y-80834342D01*
X147589999Y-80834342D02*
X147542380Y-80929580D01*
X147542380Y-80929580D02*
X147494761Y-80977200D01*
X147494761Y-80977200D02*
X147399523Y-81024819D01*
X147399523Y-81024819D02*
X147018571Y-81024819D01*
X147018571Y-81024819D02*
X147018571Y-80024819D01*
X147018571Y-80024819D02*
X147351904Y-80024819D01*
X147351904Y-80024819D02*
X147447142Y-80072438D01*
X147447142Y-80072438D02*
X147494761Y-80120057D01*
X147494761Y-80120057D02*
X147542380Y-80215295D01*
X147542380Y-80215295D02*
X147542380Y-80310533D01*
X147542380Y-80310533D02*
X147494761Y-80405771D01*
X147494761Y-80405771D02*
X147447142Y-80453390D01*
X147447142Y-80453390D02*
X147351904Y-80501009D01*
X147351904Y-80501009D02*
X147018571Y-80501009D01*
X148018571Y-81024819D02*
X148018571Y-80024819D01*
X148447142Y-81024819D02*
X148447142Y-80501009D01*
X148447142Y-80501009D02*
X148399523Y-80405771D01*
X148399523Y-80405771D02*
X148304285Y-80358152D01*
X148304285Y-80358152D02*
X148161428Y-80358152D01*
X148161428Y-80358152D02*
X148066190Y-80405771D01*
X148066190Y-80405771D02*
X148018571Y-80453390D01*
X148828095Y-80358152D02*
X149066190Y-81024819D01*
X149066190Y-81024819D02*
X149304285Y-80358152D01*
X150161428Y-80024819D02*
X149685238Y-80024819D01*
X149685238Y-80024819D02*
X149637619Y-80501009D01*
X149637619Y-80501009D02*
X149685238Y-80453390D01*
X149685238Y-80453390D02*
X149780476Y-80405771D01*
X149780476Y-80405771D02*
X150018571Y-80405771D01*
X150018571Y-80405771D02*
X150113809Y-80453390D01*
X150113809Y-80453390D02*
X150161428Y-80501009D01*
X150161428Y-80501009D02*
X150209047Y-80596247D01*
X150209047Y-80596247D02*
X150209047Y-80834342D01*
X150209047Y-80834342D02*
X150161428Y-80929580D01*
X150161428Y-80929580D02*
X150113809Y-80977200D01*
X150113809Y-80977200D02*
X150018571Y-81024819D01*
X150018571Y-81024819D02*
X149780476Y-81024819D01*
X149780476Y-81024819D02*
X149685238Y-80977200D01*
X149685238Y-80977200D02*
X149637619Y-80929580D01*
X120177200Y-57213332D02*
X120224819Y-57070475D01*
X120224819Y-57070475D02*
X120224819Y-56832380D01*
X120224819Y-56832380D02*
X120177200Y-56737142D01*
X120177200Y-56737142D02*
X120129580Y-56689523D01*
X120129580Y-56689523D02*
X120034342Y-56641904D01*
X120034342Y-56641904D02*
X119939104Y-56641904D01*
X119939104Y-56641904D02*
X119843866Y-56689523D01*
X119843866Y-56689523D02*
X119796247Y-56737142D01*
X119796247Y-56737142D02*
X119748628Y-56832380D01*
X119748628Y-56832380D02*
X119701009Y-57022856D01*
X119701009Y-57022856D02*
X119653390Y-57118094D01*
X119653390Y-57118094D02*
X119605771Y-57165713D01*
X119605771Y-57165713D02*
X119510533Y-57213332D01*
X119510533Y-57213332D02*
X119415295Y-57213332D01*
X119415295Y-57213332D02*
X119320057Y-57165713D01*
X119320057Y-57165713D02*
X119272438Y-57118094D01*
X119272438Y-57118094D02*
X119224819Y-57022856D01*
X119224819Y-57022856D02*
X119224819Y-56784761D01*
X119224819Y-56784761D02*
X119272438Y-56641904D01*
X119224819Y-56308570D02*
X120224819Y-56070475D01*
X120224819Y-56070475D02*
X119510533Y-55879999D01*
X119510533Y-55879999D02*
X120224819Y-55689523D01*
X120224819Y-55689523D02*
X119224819Y-55451428D01*
X120224819Y-54546666D02*
X120224819Y-55118094D01*
X120224819Y-54832380D02*
X119224819Y-54832380D01*
X119224819Y-54832380D02*
X119367676Y-54927618D01*
X119367676Y-54927618D02*
X119462914Y-55022856D01*
X119462914Y-55022856D02*
X119510533Y-55118094D01*
X108640714Y-69924819D02*
X109259761Y-69924819D01*
X109259761Y-69924819D02*
X108926428Y-70305771D01*
X108926428Y-70305771D02*
X109069285Y-70305771D01*
X109069285Y-70305771D02*
X109164523Y-70353390D01*
X109164523Y-70353390D02*
X109212142Y-70401009D01*
X109212142Y-70401009D02*
X109259761Y-70496247D01*
X109259761Y-70496247D02*
X109259761Y-70734342D01*
X109259761Y-70734342D02*
X109212142Y-70829580D01*
X109212142Y-70829580D02*
X109164523Y-70877200D01*
X109164523Y-70877200D02*
X109069285Y-70924819D01*
X109069285Y-70924819D02*
X108783571Y-70924819D01*
X108783571Y-70924819D02*
X108688333Y-70877200D01*
X108688333Y-70877200D02*
X108640714Y-70829580D01*
X109593095Y-69924819D02*
X110212142Y-69924819D01*
X110212142Y-69924819D02*
X109878809Y-70305771D01*
X109878809Y-70305771D02*
X110021666Y-70305771D01*
X110021666Y-70305771D02*
X110116904Y-70353390D01*
X110116904Y-70353390D02*
X110164523Y-70401009D01*
X110164523Y-70401009D02*
X110212142Y-70496247D01*
X110212142Y-70496247D02*
X110212142Y-70734342D01*
X110212142Y-70734342D02*
X110164523Y-70829580D01*
X110164523Y-70829580D02*
X110116904Y-70877200D01*
X110116904Y-70877200D02*
X110021666Y-70924819D01*
X110021666Y-70924819D02*
X109735952Y-70924819D01*
X109735952Y-70924819D02*
X109640714Y-70877200D01*
X109640714Y-70877200D02*
X109593095Y-70829580D01*
X110640714Y-70924819D02*
X110640714Y-69924819D01*
X110735952Y-70543866D02*
X111021666Y-70924819D01*
X111021666Y-70258152D02*
X110640714Y-70639104D01*
X135165714Y-62734819D02*
X134689524Y-62734819D01*
X134689524Y-62734819D02*
X134641905Y-63211009D01*
X134641905Y-63211009D02*
X134689524Y-63163390D01*
X134689524Y-63163390D02*
X134784762Y-63115771D01*
X134784762Y-63115771D02*
X135022857Y-63115771D01*
X135022857Y-63115771D02*
X135118095Y-63163390D01*
X135118095Y-63163390D02*
X135165714Y-63211009D01*
X135165714Y-63211009D02*
X135213333Y-63306247D01*
X135213333Y-63306247D02*
X135213333Y-63544342D01*
X135213333Y-63544342D02*
X135165714Y-63639580D01*
X135165714Y-63639580D02*
X135118095Y-63687200D01*
X135118095Y-63687200D02*
X135022857Y-63734819D01*
X135022857Y-63734819D02*
X134784762Y-63734819D01*
X134784762Y-63734819D02*
X134689524Y-63687200D01*
X134689524Y-63687200D02*
X134641905Y-63639580D01*
X136118095Y-62734819D02*
X135641905Y-62734819D01*
X135641905Y-62734819D02*
X135594286Y-63211009D01*
X135594286Y-63211009D02*
X135641905Y-63163390D01*
X135641905Y-63163390D02*
X135737143Y-63115771D01*
X135737143Y-63115771D02*
X135975238Y-63115771D01*
X135975238Y-63115771D02*
X136070476Y-63163390D01*
X136070476Y-63163390D02*
X136118095Y-63211009D01*
X136118095Y-63211009D02*
X136165714Y-63306247D01*
X136165714Y-63306247D02*
X136165714Y-63544342D01*
X136165714Y-63544342D02*
X136118095Y-63639580D01*
X136118095Y-63639580D02*
X136070476Y-63687200D01*
X136070476Y-63687200D02*
X135975238Y-63734819D01*
X135975238Y-63734819D02*
X135737143Y-63734819D01*
X135737143Y-63734819D02*
X135641905Y-63687200D01*
X135641905Y-63687200D02*
X135594286Y-63639580D01*
X137070476Y-62734819D02*
X136594286Y-62734819D01*
X136594286Y-62734819D02*
X136546667Y-63211009D01*
X136546667Y-63211009D02*
X136594286Y-63163390D01*
X136594286Y-63163390D02*
X136689524Y-63115771D01*
X136689524Y-63115771D02*
X136927619Y-63115771D01*
X136927619Y-63115771D02*
X137022857Y-63163390D01*
X137022857Y-63163390D02*
X137070476Y-63211009D01*
X137070476Y-63211009D02*
X137118095Y-63306247D01*
X137118095Y-63306247D02*
X137118095Y-63544342D01*
X137118095Y-63544342D02*
X137070476Y-63639580D01*
X137070476Y-63639580D02*
X137022857Y-63687200D01*
X137022857Y-63687200D02*
X136927619Y-63734819D01*
X136927619Y-63734819D02*
X136689524Y-63734819D01*
X136689524Y-63734819D02*
X136594286Y-63687200D01*
X136594286Y-63687200D02*
X136546667Y-63639580D01*
X133405714Y-67399819D02*
X134024761Y-67399819D01*
X134024761Y-67399819D02*
X133691428Y-67780771D01*
X133691428Y-67780771D02*
X133834285Y-67780771D01*
X133834285Y-67780771D02*
X133929523Y-67828390D01*
X133929523Y-67828390D02*
X133977142Y-67876009D01*
X133977142Y-67876009D02*
X134024761Y-67971247D01*
X134024761Y-67971247D02*
X134024761Y-68209342D01*
X134024761Y-68209342D02*
X133977142Y-68304580D01*
X133977142Y-68304580D02*
X133929523Y-68352200D01*
X133929523Y-68352200D02*
X133834285Y-68399819D01*
X133834285Y-68399819D02*
X133548571Y-68399819D01*
X133548571Y-68399819D02*
X133453333Y-68352200D01*
X133453333Y-68352200D02*
X133405714Y-68304580D01*
X134358095Y-67399819D02*
X134977142Y-67399819D01*
X134977142Y-67399819D02*
X134643809Y-67780771D01*
X134643809Y-67780771D02*
X134786666Y-67780771D01*
X134786666Y-67780771D02*
X134881904Y-67828390D01*
X134881904Y-67828390D02*
X134929523Y-67876009D01*
X134929523Y-67876009D02*
X134977142Y-67971247D01*
X134977142Y-67971247D02*
X134977142Y-68209342D01*
X134977142Y-68209342D02*
X134929523Y-68304580D01*
X134929523Y-68304580D02*
X134881904Y-68352200D01*
X134881904Y-68352200D02*
X134786666Y-68399819D01*
X134786666Y-68399819D02*
X134500952Y-68399819D01*
X134500952Y-68399819D02*
X134405714Y-68352200D01*
X134405714Y-68352200D02*
X134358095Y-68304580D01*
X135405714Y-68399819D02*
X135405714Y-67399819D01*
X135500952Y-68018866D02*
X135786666Y-68399819D01*
X135786666Y-67733152D02*
X135405714Y-68114104D01*
X122769523Y-73860819D02*
X122293333Y-73860819D01*
X122293333Y-73860819D02*
X122293333Y-72860819D01*
X123102857Y-73860819D02*
X123102857Y-72860819D01*
X123102857Y-72860819D02*
X123436190Y-73575104D01*
X123436190Y-73575104D02*
X123769523Y-72860819D01*
X123769523Y-72860819D02*
X123769523Y-73860819D01*
X124150476Y-72860819D02*
X124769523Y-72860819D01*
X124769523Y-72860819D02*
X124436190Y-73241771D01*
X124436190Y-73241771D02*
X124579047Y-73241771D01*
X124579047Y-73241771D02*
X124674285Y-73289390D01*
X124674285Y-73289390D02*
X124721904Y-73337009D01*
X124721904Y-73337009D02*
X124769523Y-73432247D01*
X124769523Y-73432247D02*
X124769523Y-73670342D01*
X124769523Y-73670342D02*
X124721904Y-73765580D01*
X124721904Y-73765580D02*
X124674285Y-73813200D01*
X124674285Y-73813200D02*
X124579047Y-73860819D01*
X124579047Y-73860819D02*
X124293333Y-73860819D01*
X124293333Y-73860819D02*
X124198095Y-73813200D01*
X124198095Y-73813200D02*
X124150476Y-73765580D01*
X125674285Y-72860819D02*
X125198095Y-72860819D01*
X125198095Y-72860819D02*
X125150476Y-73337009D01*
X125150476Y-73337009D02*
X125198095Y-73289390D01*
X125198095Y-73289390D02*
X125293333Y-73241771D01*
X125293333Y-73241771D02*
X125531428Y-73241771D01*
X125531428Y-73241771D02*
X125626666Y-73289390D01*
X125626666Y-73289390D02*
X125674285Y-73337009D01*
X125674285Y-73337009D02*
X125721904Y-73432247D01*
X125721904Y-73432247D02*
X125721904Y-73670342D01*
X125721904Y-73670342D02*
X125674285Y-73765580D01*
X125674285Y-73765580D02*
X125626666Y-73813200D01*
X125626666Y-73813200D02*
X125531428Y-73860819D01*
X125531428Y-73860819D02*
X125293333Y-73860819D01*
X125293333Y-73860819D02*
X125198095Y-73813200D01*
X125198095Y-73813200D02*
X125150476Y-73765580D01*
X126293333Y-73289390D02*
X126198095Y-73241771D01*
X126198095Y-73241771D02*
X126150476Y-73194152D01*
X126150476Y-73194152D02*
X126102857Y-73098914D01*
X126102857Y-73098914D02*
X126102857Y-73051295D01*
X126102857Y-73051295D02*
X126150476Y-72956057D01*
X126150476Y-72956057D02*
X126198095Y-72908438D01*
X126198095Y-72908438D02*
X126293333Y-72860819D01*
X126293333Y-72860819D02*
X126483809Y-72860819D01*
X126483809Y-72860819D02*
X126579047Y-72908438D01*
X126579047Y-72908438D02*
X126626666Y-72956057D01*
X126626666Y-72956057D02*
X126674285Y-73051295D01*
X126674285Y-73051295D02*
X126674285Y-73098914D01*
X126674285Y-73098914D02*
X126626666Y-73194152D01*
X126626666Y-73194152D02*
X126579047Y-73241771D01*
X126579047Y-73241771D02*
X126483809Y-73289390D01*
X126483809Y-73289390D02*
X126293333Y-73289390D01*
X126293333Y-73289390D02*
X126198095Y-73337009D01*
X126198095Y-73337009D02*
X126150476Y-73384628D01*
X126150476Y-73384628D02*
X126102857Y-73479866D01*
X126102857Y-73479866D02*
X126102857Y-73670342D01*
X126102857Y-73670342D02*
X126150476Y-73765580D01*
X126150476Y-73765580D02*
X126198095Y-73813200D01*
X126198095Y-73813200D02*
X126293333Y-73860819D01*
X126293333Y-73860819D02*
X126483809Y-73860819D01*
X126483809Y-73860819D02*
X126579047Y-73813200D01*
X126579047Y-73813200D02*
X126626666Y-73765580D01*
X126626666Y-73765580D02*
X126674285Y-73670342D01*
X126674285Y-73670342D02*
X126674285Y-73479866D01*
X126674285Y-73479866D02*
X126626666Y-73384628D01*
X126626666Y-73384628D02*
X126579047Y-73337009D01*
X126579047Y-73337009D02*
X126483809Y-73289390D01*
X114562143Y-64464819D02*
X114657381Y-64464819D01*
X114657381Y-64464819D02*
X114752619Y-64512438D01*
X114752619Y-64512438D02*
X114800238Y-64560057D01*
X114800238Y-64560057D02*
X114847857Y-64655295D01*
X114847857Y-64655295D02*
X114895476Y-64845771D01*
X114895476Y-64845771D02*
X114895476Y-65083866D01*
X114895476Y-65083866D02*
X114847857Y-65274342D01*
X114847857Y-65274342D02*
X114800238Y-65369580D01*
X114800238Y-65369580D02*
X114752619Y-65417200D01*
X114752619Y-65417200D02*
X114657381Y-65464819D01*
X114657381Y-65464819D02*
X114562143Y-65464819D01*
X114562143Y-65464819D02*
X114466905Y-65417200D01*
X114466905Y-65417200D02*
X114419286Y-65369580D01*
X114419286Y-65369580D02*
X114371667Y-65274342D01*
X114371667Y-65274342D02*
X114324048Y-65083866D01*
X114324048Y-65083866D02*
X114324048Y-64845771D01*
X114324048Y-64845771D02*
X114371667Y-64655295D01*
X114371667Y-64655295D02*
X114419286Y-64560057D01*
X114419286Y-64560057D02*
X114466905Y-64512438D01*
X114466905Y-64512438D02*
X114562143Y-64464819D01*
X115324048Y-65369580D02*
X115371667Y-65417200D01*
X115371667Y-65417200D02*
X115324048Y-65464819D01*
X115324048Y-65464819D02*
X115276429Y-65417200D01*
X115276429Y-65417200D02*
X115324048Y-65369580D01*
X115324048Y-65369580D02*
X115324048Y-65464819D01*
X116324047Y-65464819D02*
X115752619Y-65464819D01*
X116038333Y-65464819D02*
X116038333Y-64464819D01*
X116038333Y-64464819D02*
X115943095Y-64607676D01*
X115943095Y-64607676D02*
X115847857Y-64702914D01*
X115847857Y-64702914D02*
X115752619Y-64750533D01*
X117181190Y-64798152D02*
X117181190Y-65464819D01*
X116752619Y-64798152D02*
X116752619Y-65321961D01*
X116752619Y-65321961D02*
X116800238Y-65417200D01*
X116800238Y-65417200D02*
X116895476Y-65464819D01*
X116895476Y-65464819D02*
X117038333Y-65464819D01*
X117038333Y-65464819D02*
X117133571Y-65417200D01*
X117133571Y-65417200D02*
X117181190Y-65369580D01*
X117990714Y-64941009D02*
X117657381Y-64941009D01*
X117657381Y-65464819D02*
X117657381Y-64464819D01*
X117657381Y-64464819D02*
X118133571Y-64464819D01*
X108545476Y-64844819D02*
X109164523Y-64844819D01*
X109164523Y-64844819D02*
X108831190Y-65225771D01*
X108831190Y-65225771D02*
X108974047Y-65225771D01*
X108974047Y-65225771D02*
X109069285Y-65273390D01*
X109069285Y-65273390D02*
X109116904Y-65321009D01*
X109116904Y-65321009D02*
X109164523Y-65416247D01*
X109164523Y-65416247D02*
X109164523Y-65654342D01*
X109164523Y-65654342D02*
X109116904Y-65749580D01*
X109116904Y-65749580D02*
X109069285Y-65797200D01*
X109069285Y-65797200D02*
X108974047Y-65844819D01*
X108974047Y-65844819D02*
X108688333Y-65844819D01*
X108688333Y-65844819D02*
X108593095Y-65797200D01*
X108593095Y-65797200D02*
X108545476Y-65749580D01*
X109497857Y-64844819D02*
X110116904Y-64844819D01*
X110116904Y-64844819D02*
X109783571Y-65225771D01*
X109783571Y-65225771D02*
X109926428Y-65225771D01*
X109926428Y-65225771D02*
X110021666Y-65273390D01*
X110021666Y-65273390D02*
X110069285Y-65321009D01*
X110069285Y-65321009D02*
X110116904Y-65416247D01*
X110116904Y-65416247D02*
X110116904Y-65654342D01*
X110116904Y-65654342D02*
X110069285Y-65749580D01*
X110069285Y-65749580D02*
X110021666Y-65797200D01*
X110021666Y-65797200D02*
X109926428Y-65844819D01*
X109926428Y-65844819D02*
X109640714Y-65844819D01*
X109640714Y-65844819D02*
X109545476Y-65797200D01*
X109545476Y-65797200D02*
X109497857Y-65749580D01*
X110545476Y-65844819D02*
X110545476Y-64844819D01*
X111116904Y-65844819D02*
X110688333Y-65273390D01*
X111116904Y-64844819D02*
X110545476Y-65416247D01*
X129571904Y-80501009D02*
X129714761Y-80548628D01*
X129714761Y-80548628D02*
X129762380Y-80596247D01*
X129762380Y-80596247D02*
X129809999Y-80691485D01*
X129809999Y-80691485D02*
X129809999Y-80834342D01*
X129809999Y-80834342D02*
X129762380Y-80929580D01*
X129762380Y-80929580D02*
X129714761Y-80977200D01*
X129714761Y-80977200D02*
X129619523Y-81024819D01*
X129619523Y-81024819D02*
X129238571Y-81024819D01*
X129238571Y-81024819D02*
X129238571Y-80024819D01*
X129238571Y-80024819D02*
X129571904Y-80024819D01*
X129571904Y-80024819D02*
X129667142Y-80072438D01*
X129667142Y-80072438D02*
X129714761Y-80120057D01*
X129714761Y-80120057D02*
X129762380Y-80215295D01*
X129762380Y-80215295D02*
X129762380Y-80310533D01*
X129762380Y-80310533D02*
X129714761Y-80405771D01*
X129714761Y-80405771D02*
X129667142Y-80453390D01*
X129667142Y-80453390D02*
X129571904Y-80501009D01*
X129571904Y-80501009D02*
X129238571Y-80501009D01*
X130238571Y-81024819D02*
X130238571Y-80024819D01*
X130667142Y-81024819D02*
X130667142Y-80501009D01*
X130667142Y-80501009D02*
X130619523Y-80405771D01*
X130619523Y-80405771D02*
X130524285Y-80358152D01*
X130524285Y-80358152D02*
X130381428Y-80358152D01*
X130381428Y-80358152D02*
X130286190Y-80405771D01*
X130286190Y-80405771D02*
X130238571Y-80453390D01*
X131048095Y-80358152D02*
X131286190Y-81024819D01*
X131286190Y-81024819D02*
X131524285Y-80358152D01*
X131810000Y-80024819D02*
X132429047Y-80024819D01*
X132429047Y-80024819D02*
X132095714Y-80405771D01*
X132095714Y-80405771D02*
X132238571Y-80405771D01*
X132238571Y-80405771D02*
X132333809Y-80453390D01*
X132333809Y-80453390D02*
X132381428Y-80501009D01*
X132381428Y-80501009D02*
X132429047Y-80596247D01*
X132429047Y-80596247D02*
X132429047Y-80834342D01*
X132429047Y-80834342D02*
X132381428Y-80929580D01*
X132381428Y-80929580D02*
X132333809Y-80977200D01*
X132333809Y-80977200D02*
X132238571Y-81024819D01*
X132238571Y-81024819D02*
X131952857Y-81024819D01*
X131952857Y-81024819D02*
X131857619Y-80977200D01*
X131857619Y-80977200D02*
X131810000Y-80929580D01*
X102433713Y-52016819D02*
X101862285Y-52016819D01*
X102147999Y-52016819D02*
X102147999Y-51016819D01*
X102147999Y-51016819D02*
X102052761Y-51159676D01*
X102052761Y-51159676D02*
X101957523Y-51254914D01*
X101957523Y-51254914D02*
X101862285Y-51302533D01*
X103052761Y-51016819D02*
X103147999Y-51016819D01*
X103147999Y-51016819D02*
X103243237Y-51064438D01*
X103243237Y-51064438D02*
X103290856Y-51112057D01*
X103290856Y-51112057D02*
X103338475Y-51207295D01*
X103338475Y-51207295D02*
X103386094Y-51397771D01*
X103386094Y-51397771D02*
X103386094Y-51635866D01*
X103386094Y-51635866D02*
X103338475Y-51826342D01*
X103338475Y-51826342D02*
X103290856Y-51921580D01*
X103290856Y-51921580D02*
X103243237Y-51969200D01*
X103243237Y-51969200D02*
X103147999Y-52016819D01*
X103147999Y-52016819D02*
X103052761Y-52016819D01*
X103052761Y-52016819D02*
X102957523Y-51969200D01*
X102957523Y-51969200D02*
X102909904Y-51921580D01*
X102909904Y-51921580D02*
X102862285Y-51826342D01*
X102862285Y-51826342D02*
X102814666Y-51635866D01*
X102814666Y-51635866D02*
X102814666Y-51397771D01*
X102814666Y-51397771D02*
X102862285Y-51207295D01*
X102862285Y-51207295D02*
X102909904Y-51112057D01*
X102909904Y-51112057D02*
X102957523Y-51064438D01*
X102957523Y-51064438D02*
X103052761Y-51016819D01*
X103814666Y-52016819D02*
X103814666Y-51016819D01*
X103909904Y-51635866D02*
X104195618Y-52016819D01*
X104195618Y-51350152D02*
X103814666Y-51731104D01*
X105386095Y-52016819D02*
X105386095Y-51016819D01*
X105386095Y-51016819D02*
X105767047Y-51016819D01*
X105767047Y-51016819D02*
X105862285Y-51064438D01*
X105862285Y-51064438D02*
X105909904Y-51112057D01*
X105909904Y-51112057D02*
X105957523Y-51207295D01*
X105957523Y-51207295D02*
X105957523Y-51350152D01*
X105957523Y-51350152D02*
X105909904Y-51445390D01*
X105909904Y-51445390D02*
X105862285Y-51493009D01*
X105862285Y-51493009D02*
X105767047Y-51540628D01*
X105767047Y-51540628D02*
X105386095Y-51540628D01*
X106528952Y-52016819D02*
X106433714Y-51969200D01*
X106433714Y-51969200D02*
X106386095Y-51921580D01*
X106386095Y-51921580D02*
X106338476Y-51826342D01*
X106338476Y-51826342D02*
X106338476Y-51540628D01*
X106338476Y-51540628D02*
X106386095Y-51445390D01*
X106386095Y-51445390D02*
X106433714Y-51397771D01*
X106433714Y-51397771D02*
X106528952Y-51350152D01*
X106528952Y-51350152D02*
X106671809Y-51350152D01*
X106671809Y-51350152D02*
X106767047Y-51397771D01*
X106767047Y-51397771D02*
X106814666Y-51445390D01*
X106814666Y-51445390D02*
X106862285Y-51540628D01*
X106862285Y-51540628D02*
X106862285Y-51826342D01*
X106862285Y-51826342D02*
X106814666Y-51921580D01*
X106814666Y-51921580D02*
X106767047Y-51969200D01*
X106767047Y-51969200D02*
X106671809Y-52016819D01*
X106671809Y-52016819D02*
X106528952Y-52016819D01*
X107148000Y-51350152D02*
X107528952Y-51350152D01*
X107290857Y-51016819D02*
X107290857Y-51873961D01*
X107290857Y-51873961D02*
X107338476Y-51969200D01*
X107338476Y-51969200D02*
X107433714Y-52016819D01*
X107433714Y-52016819D02*
X107528952Y-52016819D01*
X164612200Y-67214523D02*
X164659819Y-67071666D01*
X164659819Y-67071666D02*
X164659819Y-66833571D01*
X164659819Y-66833571D02*
X164612200Y-66738333D01*
X164612200Y-66738333D02*
X164564580Y-66690714D01*
X164564580Y-66690714D02*
X164469342Y-66643095D01*
X164469342Y-66643095D02*
X164374104Y-66643095D01*
X164374104Y-66643095D02*
X164278866Y-66690714D01*
X164278866Y-66690714D02*
X164231247Y-66738333D01*
X164231247Y-66738333D02*
X164183628Y-66833571D01*
X164183628Y-66833571D02*
X164136009Y-67024047D01*
X164136009Y-67024047D02*
X164088390Y-67119285D01*
X164088390Y-67119285D02*
X164040771Y-67166904D01*
X164040771Y-67166904D02*
X163945533Y-67214523D01*
X163945533Y-67214523D02*
X163850295Y-67214523D01*
X163850295Y-67214523D02*
X163755057Y-67166904D01*
X163755057Y-67166904D02*
X163707438Y-67119285D01*
X163707438Y-67119285D02*
X163659819Y-67024047D01*
X163659819Y-67024047D02*
X163659819Y-66785952D01*
X163659819Y-66785952D02*
X163707438Y-66643095D01*
X163993152Y-66357380D02*
X163993152Y-65976428D01*
X163659819Y-66214523D02*
X164516961Y-66214523D01*
X164516961Y-66214523D02*
X164612200Y-66166904D01*
X164612200Y-66166904D02*
X164659819Y-66071666D01*
X164659819Y-66071666D02*
X164659819Y-65976428D01*
X164659819Y-65643094D02*
X163993152Y-65643094D01*
X164183628Y-65643094D02*
X164088390Y-65595475D01*
X164088390Y-65595475D02*
X164040771Y-65547856D01*
X164040771Y-65547856D02*
X163993152Y-65452618D01*
X163993152Y-65452618D02*
X163993152Y-65357380D01*
X164659819Y-65024046D02*
X163659819Y-65024046D01*
X164040771Y-65024046D02*
X163993152Y-64928808D01*
X163993152Y-64928808D02*
X163993152Y-64738332D01*
X163993152Y-64738332D02*
X164040771Y-64643094D01*
X164040771Y-64643094D02*
X164088390Y-64595475D01*
X164088390Y-64595475D02*
X164183628Y-64547856D01*
X164183628Y-64547856D02*
X164469342Y-64547856D01*
X164469342Y-64547856D02*
X164564580Y-64595475D01*
X164564580Y-64595475D02*
X164612200Y-64643094D01*
X164612200Y-64643094D02*
X164659819Y-64738332D01*
X164659819Y-64738332D02*
X164659819Y-64928808D01*
X164659819Y-64928808D02*
X164612200Y-65024046D01*
X163755057Y-64166903D02*
X163707438Y-64119284D01*
X163707438Y-64119284D02*
X163659819Y-64024046D01*
X163659819Y-64024046D02*
X163659819Y-63785951D01*
X163659819Y-63785951D02*
X163707438Y-63690713D01*
X163707438Y-63690713D02*
X163755057Y-63643094D01*
X163755057Y-63643094D02*
X163850295Y-63595475D01*
X163850295Y-63595475D02*
X163945533Y-63595475D01*
X163945533Y-63595475D02*
X164088390Y-63643094D01*
X164088390Y-63643094D02*
X164659819Y-64214522D01*
X164659819Y-64214522D02*
X164659819Y-63595475D01*
X156876904Y-80801009D02*
X157019761Y-80848628D01*
X157019761Y-80848628D02*
X157067380Y-80896247D01*
X157067380Y-80896247D02*
X157114999Y-80991485D01*
X157114999Y-80991485D02*
X157114999Y-81134342D01*
X157114999Y-81134342D02*
X157067380Y-81229580D01*
X157067380Y-81229580D02*
X157019761Y-81277200D01*
X157019761Y-81277200D02*
X156924523Y-81324819D01*
X156924523Y-81324819D02*
X156543571Y-81324819D01*
X156543571Y-81324819D02*
X156543571Y-80324819D01*
X156543571Y-80324819D02*
X156876904Y-80324819D01*
X156876904Y-80324819D02*
X156972142Y-80372438D01*
X156972142Y-80372438D02*
X157019761Y-80420057D01*
X157019761Y-80420057D02*
X157067380Y-80515295D01*
X157067380Y-80515295D02*
X157067380Y-80610533D01*
X157067380Y-80610533D02*
X157019761Y-80705771D01*
X157019761Y-80705771D02*
X156972142Y-80753390D01*
X156972142Y-80753390D02*
X156876904Y-80801009D01*
X156876904Y-80801009D02*
X156543571Y-80801009D01*
X157543571Y-81324819D02*
X157543571Y-80324819D01*
X157972142Y-81324819D02*
X157972142Y-80801009D01*
X157972142Y-80801009D02*
X157924523Y-80705771D01*
X157924523Y-80705771D02*
X157829285Y-80658152D01*
X157829285Y-80658152D02*
X157686428Y-80658152D01*
X157686428Y-80658152D02*
X157591190Y-80705771D01*
X157591190Y-80705771D02*
X157543571Y-80753390D01*
X158353095Y-80658152D02*
X158591190Y-81324819D01*
X158591190Y-81324819D02*
X158829285Y-80658152D01*
X159638809Y-80324819D02*
X159448333Y-80324819D01*
X159448333Y-80324819D02*
X159353095Y-80372438D01*
X159353095Y-80372438D02*
X159305476Y-80420057D01*
X159305476Y-80420057D02*
X159210238Y-80562914D01*
X159210238Y-80562914D02*
X159162619Y-80753390D01*
X159162619Y-80753390D02*
X159162619Y-81134342D01*
X159162619Y-81134342D02*
X159210238Y-81229580D01*
X159210238Y-81229580D02*
X159257857Y-81277200D01*
X159257857Y-81277200D02*
X159353095Y-81324819D01*
X159353095Y-81324819D02*
X159543571Y-81324819D01*
X159543571Y-81324819D02*
X159638809Y-81277200D01*
X159638809Y-81277200D02*
X159686428Y-81229580D01*
X159686428Y-81229580D02*
X159734047Y-81134342D01*
X159734047Y-81134342D02*
X159734047Y-80896247D01*
X159734047Y-80896247D02*
X159686428Y-80801009D01*
X159686428Y-80801009D02*
X159638809Y-80753390D01*
X159638809Y-80753390D02*
X159543571Y-80705771D01*
X159543571Y-80705771D02*
X159353095Y-80705771D01*
X159353095Y-80705771D02*
X159257857Y-80753390D01*
X159257857Y-80753390D02*
X159210238Y-80801009D01*
X159210238Y-80801009D02*
X159162619Y-80896247D01*
X125424819Y-49267856D02*
X125424819Y-49172618D01*
X125424819Y-49172618D02*
X125472438Y-49077380D01*
X125472438Y-49077380D02*
X125520057Y-49029761D01*
X125520057Y-49029761D02*
X125615295Y-48982142D01*
X125615295Y-48982142D02*
X125805771Y-48934523D01*
X125805771Y-48934523D02*
X126043866Y-48934523D01*
X126043866Y-48934523D02*
X126234342Y-48982142D01*
X126234342Y-48982142D02*
X126329580Y-49029761D01*
X126329580Y-49029761D02*
X126377200Y-49077380D01*
X126377200Y-49077380D02*
X126424819Y-49172618D01*
X126424819Y-49172618D02*
X126424819Y-49267856D01*
X126424819Y-49267856D02*
X126377200Y-49363094D01*
X126377200Y-49363094D02*
X126329580Y-49410713D01*
X126329580Y-49410713D02*
X126234342Y-49458332D01*
X126234342Y-49458332D02*
X126043866Y-49505951D01*
X126043866Y-49505951D02*
X125805771Y-49505951D01*
X125805771Y-49505951D02*
X125615295Y-49458332D01*
X125615295Y-49458332D02*
X125520057Y-49410713D01*
X125520057Y-49410713D02*
X125472438Y-49363094D01*
X125472438Y-49363094D02*
X125424819Y-49267856D01*
X126329580Y-48505951D02*
X126377200Y-48458332D01*
X126377200Y-48458332D02*
X126424819Y-48505951D01*
X126424819Y-48505951D02*
X126377200Y-48553570D01*
X126377200Y-48553570D02*
X126329580Y-48505951D01*
X126329580Y-48505951D02*
X126424819Y-48505951D01*
X126424819Y-47505952D02*
X126424819Y-48077380D01*
X126424819Y-47791666D02*
X125424819Y-47791666D01*
X125424819Y-47791666D02*
X125567676Y-47886904D01*
X125567676Y-47886904D02*
X125662914Y-47982142D01*
X125662914Y-47982142D02*
X125710533Y-48077380D01*
X125758152Y-46648809D02*
X126424819Y-46648809D01*
X125758152Y-47077380D02*
X126281961Y-47077380D01*
X126281961Y-47077380D02*
X126377200Y-47029761D01*
X126377200Y-47029761D02*
X126424819Y-46934523D01*
X126424819Y-46934523D02*
X126424819Y-46791666D01*
X126424819Y-46791666D02*
X126377200Y-46696428D01*
X126377200Y-46696428D02*
X126329580Y-46648809D01*
X125901009Y-45839285D02*
X125901009Y-46172618D01*
X126424819Y-46172618D02*
X125424819Y-46172618D01*
X125424819Y-46172618D02*
X125424819Y-45696428D01*
X141025714Y-67414819D02*
X141644761Y-67414819D01*
X141644761Y-67414819D02*
X141311428Y-67795771D01*
X141311428Y-67795771D02*
X141454285Y-67795771D01*
X141454285Y-67795771D02*
X141549523Y-67843390D01*
X141549523Y-67843390D02*
X141597142Y-67891009D01*
X141597142Y-67891009D02*
X141644761Y-67986247D01*
X141644761Y-67986247D02*
X141644761Y-68224342D01*
X141644761Y-68224342D02*
X141597142Y-68319580D01*
X141597142Y-68319580D02*
X141549523Y-68367200D01*
X141549523Y-68367200D02*
X141454285Y-68414819D01*
X141454285Y-68414819D02*
X141168571Y-68414819D01*
X141168571Y-68414819D02*
X141073333Y-68367200D01*
X141073333Y-68367200D02*
X141025714Y-68319580D01*
X141978095Y-67414819D02*
X142597142Y-67414819D01*
X142597142Y-67414819D02*
X142263809Y-67795771D01*
X142263809Y-67795771D02*
X142406666Y-67795771D01*
X142406666Y-67795771D02*
X142501904Y-67843390D01*
X142501904Y-67843390D02*
X142549523Y-67891009D01*
X142549523Y-67891009D02*
X142597142Y-67986247D01*
X142597142Y-67986247D02*
X142597142Y-68224342D01*
X142597142Y-68224342D02*
X142549523Y-68319580D01*
X142549523Y-68319580D02*
X142501904Y-68367200D01*
X142501904Y-68367200D02*
X142406666Y-68414819D01*
X142406666Y-68414819D02*
X142120952Y-68414819D01*
X142120952Y-68414819D02*
X142025714Y-68367200D01*
X142025714Y-68367200D02*
X141978095Y-68319580D01*
X143025714Y-68414819D02*
X143025714Y-67414819D01*
X143120952Y-68033866D02*
X143406666Y-68414819D01*
X143406666Y-67748152D02*
X143025714Y-68129104D01*
X138461904Y-80501009D02*
X138604761Y-80548628D01*
X138604761Y-80548628D02*
X138652380Y-80596247D01*
X138652380Y-80596247D02*
X138699999Y-80691485D01*
X138699999Y-80691485D02*
X138699999Y-80834342D01*
X138699999Y-80834342D02*
X138652380Y-80929580D01*
X138652380Y-80929580D02*
X138604761Y-80977200D01*
X138604761Y-80977200D02*
X138509523Y-81024819D01*
X138509523Y-81024819D02*
X138128571Y-81024819D01*
X138128571Y-81024819D02*
X138128571Y-80024819D01*
X138128571Y-80024819D02*
X138461904Y-80024819D01*
X138461904Y-80024819D02*
X138557142Y-80072438D01*
X138557142Y-80072438D02*
X138604761Y-80120057D01*
X138604761Y-80120057D02*
X138652380Y-80215295D01*
X138652380Y-80215295D02*
X138652380Y-80310533D01*
X138652380Y-80310533D02*
X138604761Y-80405771D01*
X138604761Y-80405771D02*
X138557142Y-80453390D01*
X138557142Y-80453390D02*
X138461904Y-80501009D01*
X138461904Y-80501009D02*
X138128571Y-80501009D01*
X139128571Y-81024819D02*
X139128571Y-80024819D01*
X139557142Y-81024819D02*
X139557142Y-80501009D01*
X139557142Y-80501009D02*
X139509523Y-80405771D01*
X139509523Y-80405771D02*
X139414285Y-80358152D01*
X139414285Y-80358152D02*
X139271428Y-80358152D01*
X139271428Y-80358152D02*
X139176190Y-80405771D01*
X139176190Y-80405771D02*
X139128571Y-80453390D01*
X139938095Y-80358152D02*
X140176190Y-81024819D01*
X140176190Y-81024819D02*
X140414285Y-80358152D01*
X141223809Y-80358152D02*
X141223809Y-81024819D01*
X140985714Y-79977200D02*
X140747619Y-80691485D01*
X140747619Y-80691485D02*
X141366666Y-80691485D01*
X146264523Y-64589819D02*
X145788333Y-64589819D01*
X145788333Y-64589819D02*
X145788333Y-63589819D01*
X146597857Y-64589819D02*
X146597857Y-63589819D01*
X146597857Y-63589819D02*
X146931190Y-64304104D01*
X146931190Y-64304104D02*
X147264523Y-63589819D01*
X147264523Y-63589819D02*
X147264523Y-64589819D01*
X147645476Y-63589819D02*
X148264523Y-63589819D01*
X148264523Y-63589819D02*
X147931190Y-63970771D01*
X147931190Y-63970771D02*
X148074047Y-63970771D01*
X148074047Y-63970771D02*
X148169285Y-64018390D01*
X148169285Y-64018390D02*
X148216904Y-64066009D01*
X148216904Y-64066009D02*
X148264523Y-64161247D01*
X148264523Y-64161247D02*
X148264523Y-64399342D01*
X148264523Y-64399342D02*
X148216904Y-64494580D01*
X148216904Y-64494580D02*
X148169285Y-64542200D01*
X148169285Y-64542200D02*
X148074047Y-64589819D01*
X148074047Y-64589819D02*
X147788333Y-64589819D01*
X147788333Y-64589819D02*
X147693095Y-64542200D01*
X147693095Y-64542200D02*
X147645476Y-64494580D01*
X149169285Y-63589819D02*
X148693095Y-63589819D01*
X148693095Y-63589819D02*
X148645476Y-64066009D01*
X148645476Y-64066009D02*
X148693095Y-64018390D01*
X148693095Y-64018390D02*
X148788333Y-63970771D01*
X148788333Y-63970771D02*
X149026428Y-63970771D01*
X149026428Y-63970771D02*
X149121666Y-64018390D01*
X149121666Y-64018390D02*
X149169285Y-64066009D01*
X149169285Y-64066009D02*
X149216904Y-64161247D01*
X149216904Y-64161247D02*
X149216904Y-64399342D01*
X149216904Y-64399342D02*
X149169285Y-64494580D01*
X149169285Y-64494580D02*
X149121666Y-64542200D01*
X149121666Y-64542200D02*
X149026428Y-64589819D01*
X149026428Y-64589819D02*
X148788333Y-64589819D01*
X148788333Y-64589819D02*
X148693095Y-64542200D01*
X148693095Y-64542200D02*
X148645476Y-64494580D01*
X149788333Y-64018390D02*
X149693095Y-63970771D01*
X149693095Y-63970771D02*
X149645476Y-63923152D01*
X149645476Y-63923152D02*
X149597857Y-63827914D01*
X149597857Y-63827914D02*
X149597857Y-63780295D01*
X149597857Y-63780295D02*
X149645476Y-63685057D01*
X149645476Y-63685057D02*
X149693095Y-63637438D01*
X149693095Y-63637438D02*
X149788333Y-63589819D01*
X149788333Y-63589819D02*
X149978809Y-63589819D01*
X149978809Y-63589819D02*
X150074047Y-63637438D01*
X150074047Y-63637438D02*
X150121666Y-63685057D01*
X150121666Y-63685057D02*
X150169285Y-63780295D01*
X150169285Y-63780295D02*
X150169285Y-63827914D01*
X150169285Y-63827914D02*
X150121666Y-63923152D01*
X150121666Y-63923152D02*
X150074047Y-63970771D01*
X150074047Y-63970771D02*
X149978809Y-64018390D01*
X149978809Y-64018390D02*
X149788333Y-64018390D01*
X149788333Y-64018390D02*
X149693095Y-64066009D01*
X149693095Y-64066009D02*
X149645476Y-64113628D01*
X149645476Y-64113628D02*
X149597857Y-64208866D01*
X149597857Y-64208866D02*
X149597857Y-64399342D01*
X149597857Y-64399342D02*
X149645476Y-64494580D01*
X149645476Y-64494580D02*
X149693095Y-64542200D01*
X149693095Y-64542200D02*
X149788333Y-64589819D01*
X149788333Y-64589819D02*
X149978809Y-64589819D01*
X149978809Y-64589819D02*
X150074047Y-64542200D01*
X150074047Y-64542200D02*
X150121666Y-64494580D01*
X150121666Y-64494580D02*
X150169285Y-64399342D01*
X150169285Y-64399342D02*
X150169285Y-64208866D01*
X150169285Y-64208866D02*
X150121666Y-64113628D01*
X150121666Y-64113628D02*
X150074047Y-64066009D01*
X150074047Y-64066009D02*
X149978809Y-64018390D01*
X139854819Y-48584286D02*
X139854819Y-49155714D01*
X139854819Y-48870000D02*
X138854819Y-48870000D01*
X138854819Y-48870000D02*
X138997676Y-48965238D01*
X138997676Y-48965238D02*
X139092914Y-49060476D01*
X139092914Y-49060476D02*
X139140533Y-49155714D01*
X138854819Y-47965238D02*
X138854819Y-47870000D01*
X138854819Y-47870000D02*
X138902438Y-47774762D01*
X138902438Y-47774762D02*
X138950057Y-47727143D01*
X138950057Y-47727143D02*
X139045295Y-47679524D01*
X139045295Y-47679524D02*
X139235771Y-47631905D01*
X139235771Y-47631905D02*
X139473866Y-47631905D01*
X139473866Y-47631905D02*
X139664342Y-47679524D01*
X139664342Y-47679524D02*
X139759580Y-47727143D01*
X139759580Y-47727143D02*
X139807200Y-47774762D01*
X139807200Y-47774762D02*
X139854819Y-47870000D01*
X139854819Y-47870000D02*
X139854819Y-47965238D01*
X139854819Y-47965238D02*
X139807200Y-48060476D01*
X139807200Y-48060476D02*
X139759580Y-48108095D01*
X139759580Y-48108095D02*
X139664342Y-48155714D01*
X139664342Y-48155714D02*
X139473866Y-48203333D01*
X139473866Y-48203333D02*
X139235771Y-48203333D01*
X139235771Y-48203333D02*
X139045295Y-48155714D01*
X139045295Y-48155714D02*
X138950057Y-48108095D01*
X138950057Y-48108095D02*
X138902438Y-48060476D01*
X138902438Y-48060476D02*
X138854819Y-47965238D01*
X139854819Y-47203333D02*
X138854819Y-47203333D01*
X139473866Y-47108095D02*
X139854819Y-46822381D01*
X139188152Y-46822381D02*
X139569104Y-47203333D01*
X139854819Y-45631904D02*
X138854819Y-45631904D01*
X138854819Y-45631904D02*
X138854819Y-45250952D01*
X138854819Y-45250952D02*
X138902438Y-45155714D01*
X138902438Y-45155714D02*
X138950057Y-45108095D01*
X138950057Y-45108095D02*
X139045295Y-45060476D01*
X139045295Y-45060476D02*
X139188152Y-45060476D01*
X139188152Y-45060476D02*
X139283390Y-45108095D01*
X139283390Y-45108095D02*
X139331009Y-45155714D01*
X139331009Y-45155714D02*
X139378628Y-45250952D01*
X139378628Y-45250952D02*
X139378628Y-45631904D01*
X139854819Y-44489047D02*
X139807200Y-44584285D01*
X139807200Y-44584285D02*
X139759580Y-44631904D01*
X139759580Y-44631904D02*
X139664342Y-44679523D01*
X139664342Y-44679523D02*
X139378628Y-44679523D01*
X139378628Y-44679523D02*
X139283390Y-44631904D01*
X139283390Y-44631904D02*
X139235771Y-44584285D01*
X139235771Y-44584285D02*
X139188152Y-44489047D01*
X139188152Y-44489047D02*
X139188152Y-44346190D01*
X139188152Y-44346190D02*
X139235771Y-44250952D01*
X139235771Y-44250952D02*
X139283390Y-44203333D01*
X139283390Y-44203333D02*
X139378628Y-44155714D01*
X139378628Y-44155714D02*
X139664342Y-44155714D01*
X139664342Y-44155714D02*
X139759580Y-44203333D01*
X139759580Y-44203333D02*
X139807200Y-44250952D01*
X139807200Y-44250952D02*
X139854819Y-44346190D01*
X139854819Y-44346190D02*
X139854819Y-44489047D01*
X139188152Y-43869999D02*
X139188152Y-43489047D01*
X138854819Y-43727142D02*
X139711961Y-43727142D01*
X139711961Y-43727142D02*
X139807200Y-43679523D01*
X139807200Y-43679523D02*
X139854819Y-43584285D01*
X139854819Y-43584285D02*
X139854819Y-43489047D01*
X112820057Y-49485951D02*
X112772438Y-49438332D01*
X112772438Y-49438332D02*
X112724819Y-49343094D01*
X112724819Y-49343094D02*
X112724819Y-49104999D01*
X112724819Y-49104999D02*
X112772438Y-49009761D01*
X112772438Y-49009761D02*
X112820057Y-48962142D01*
X112820057Y-48962142D02*
X112915295Y-48914523D01*
X112915295Y-48914523D02*
X113010533Y-48914523D01*
X113010533Y-48914523D02*
X113153390Y-48962142D01*
X113153390Y-48962142D02*
X113724819Y-49533570D01*
X113724819Y-49533570D02*
X113724819Y-48914523D01*
X113629580Y-48485951D02*
X113677200Y-48438332D01*
X113677200Y-48438332D02*
X113724819Y-48485951D01*
X113724819Y-48485951D02*
X113677200Y-48533570D01*
X113677200Y-48533570D02*
X113629580Y-48485951D01*
X113629580Y-48485951D02*
X113724819Y-48485951D01*
X112820057Y-48057380D02*
X112772438Y-48009761D01*
X112772438Y-48009761D02*
X112724819Y-47914523D01*
X112724819Y-47914523D02*
X112724819Y-47676428D01*
X112724819Y-47676428D02*
X112772438Y-47581190D01*
X112772438Y-47581190D02*
X112820057Y-47533571D01*
X112820057Y-47533571D02*
X112915295Y-47485952D01*
X112915295Y-47485952D02*
X113010533Y-47485952D01*
X113010533Y-47485952D02*
X113153390Y-47533571D01*
X113153390Y-47533571D02*
X113724819Y-48104999D01*
X113724819Y-48104999D02*
X113724819Y-47485952D01*
X113058152Y-46628809D02*
X113724819Y-46628809D01*
X113058152Y-47057380D02*
X113581961Y-47057380D01*
X113581961Y-47057380D02*
X113677200Y-47009761D01*
X113677200Y-47009761D02*
X113724819Y-46914523D01*
X113724819Y-46914523D02*
X113724819Y-46771666D01*
X113724819Y-46771666D02*
X113677200Y-46676428D01*
X113677200Y-46676428D02*
X113629580Y-46628809D01*
X113201009Y-45819285D02*
X113201009Y-46152618D01*
X113724819Y-46152618D02*
X112724819Y-46152618D01*
X112724819Y-46152618D02*
X112724819Y-45676428D01*
X106769819Y-59388333D02*
X107484104Y-59388333D01*
X107484104Y-59388333D02*
X107626961Y-59435952D01*
X107626961Y-59435952D02*
X107722200Y-59531190D01*
X107722200Y-59531190D02*
X107769819Y-59674047D01*
X107769819Y-59674047D02*
X107769819Y-59769285D01*
X106865057Y-58959761D02*
X106817438Y-58912142D01*
X106817438Y-58912142D02*
X106769819Y-58816904D01*
X106769819Y-58816904D02*
X106769819Y-58578809D01*
X106769819Y-58578809D02*
X106817438Y-58483571D01*
X106817438Y-58483571D02*
X106865057Y-58435952D01*
X106865057Y-58435952D02*
X106960295Y-58388333D01*
X106960295Y-58388333D02*
X107055533Y-58388333D01*
X107055533Y-58388333D02*
X107198390Y-58435952D01*
X107198390Y-58435952D02*
X107769819Y-59007380D01*
X107769819Y-59007380D02*
X107769819Y-58388333D01*
X164612200Y-76211523D02*
X164659819Y-76068666D01*
X164659819Y-76068666D02*
X164659819Y-75830571D01*
X164659819Y-75830571D02*
X164612200Y-75735333D01*
X164612200Y-75735333D02*
X164564580Y-75687714D01*
X164564580Y-75687714D02*
X164469342Y-75640095D01*
X164469342Y-75640095D02*
X164374104Y-75640095D01*
X164374104Y-75640095D02*
X164278866Y-75687714D01*
X164278866Y-75687714D02*
X164231247Y-75735333D01*
X164231247Y-75735333D02*
X164183628Y-75830571D01*
X164183628Y-75830571D02*
X164136009Y-76021047D01*
X164136009Y-76021047D02*
X164088390Y-76116285D01*
X164088390Y-76116285D02*
X164040771Y-76163904D01*
X164040771Y-76163904D02*
X163945533Y-76211523D01*
X163945533Y-76211523D02*
X163850295Y-76211523D01*
X163850295Y-76211523D02*
X163755057Y-76163904D01*
X163755057Y-76163904D02*
X163707438Y-76116285D01*
X163707438Y-76116285D02*
X163659819Y-76021047D01*
X163659819Y-76021047D02*
X163659819Y-75782952D01*
X163659819Y-75782952D02*
X163707438Y-75640095D01*
X163993152Y-75354380D02*
X163993152Y-74973428D01*
X163659819Y-75211523D02*
X164516961Y-75211523D01*
X164516961Y-75211523D02*
X164612200Y-75163904D01*
X164612200Y-75163904D02*
X164659819Y-75068666D01*
X164659819Y-75068666D02*
X164659819Y-74973428D01*
X164659819Y-74640094D02*
X163993152Y-74640094D01*
X164183628Y-74640094D02*
X164088390Y-74592475D01*
X164088390Y-74592475D02*
X164040771Y-74544856D01*
X164040771Y-74544856D02*
X163993152Y-74449618D01*
X163993152Y-74449618D02*
X163993152Y-74354380D01*
X164659819Y-74021046D02*
X163659819Y-74021046D01*
X164040771Y-74021046D02*
X163993152Y-73925808D01*
X163993152Y-73925808D02*
X163993152Y-73735332D01*
X163993152Y-73735332D02*
X164040771Y-73640094D01*
X164040771Y-73640094D02*
X164088390Y-73592475D01*
X164088390Y-73592475D02*
X164183628Y-73544856D01*
X164183628Y-73544856D02*
X164469342Y-73544856D01*
X164469342Y-73544856D02*
X164564580Y-73592475D01*
X164564580Y-73592475D02*
X164612200Y-73640094D01*
X164612200Y-73640094D02*
X164659819Y-73735332D01*
X164659819Y-73735332D02*
X164659819Y-73925808D01*
X164659819Y-73925808D02*
X164612200Y-74021046D01*
X164659819Y-72592475D02*
X164659819Y-73163903D01*
X164659819Y-72878189D02*
X163659819Y-72878189D01*
X163659819Y-72878189D02*
X163802676Y-72973427D01*
X163802676Y-72973427D02*
X163897914Y-73068665D01*
X163897914Y-73068665D02*
X163945533Y-73163903D01*
X120681904Y-80501009D02*
X120824761Y-80548628D01*
X120824761Y-80548628D02*
X120872380Y-80596247D01*
X120872380Y-80596247D02*
X120919999Y-80691485D01*
X120919999Y-80691485D02*
X120919999Y-80834342D01*
X120919999Y-80834342D02*
X120872380Y-80929580D01*
X120872380Y-80929580D02*
X120824761Y-80977200D01*
X120824761Y-80977200D02*
X120729523Y-81024819D01*
X120729523Y-81024819D02*
X120348571Y-81024819D01*
X120348571Y-81024819D02*
X120348571Y-80024819D01*
X120348571Y-80024819D02*
X120681904Y-80024819D01*
X120681904Y-80024819D02*
X120777142Y-80072438D01*
X120777142Y-80072438D02*
X120824761Y-80120057D01*
X120824761Y-80120057D02*
X120872380Y-80215295D01*
X120872380Y-80215295D02*
X120872380Y-80310533D01*
X120872380Y-80310533D02*
X120824761Y-80405771D01*
X120824761Y-80405771D02*
X120777142Y-80453390D01*
X120777142Y-80453390D02*
X120681904Y-80501009D01*
X120681904Y-80501009D02*
X120348571Y-80501009D01*
X121348571Y-81024819D02*
X121348571Y-80024819D01*
X121777142Y-81024819D02*
X121777142Y-80501009D01*
X121777142Y-80501009D02*
X121729523Y-80405771D01*
X121729523Y-80405771D02*
X121634285Y-80358152D01*
X121634285Y-80358152D02*
X121491428Y-80358152D01*
X121491428Y-80358152D02*
X121396190Y-80405771D01*
X121396190Y-80405771D02*
X121348571Y-80453390D01*
X122158095Y-80358152D02*
X122396190Y-81024819D01*
X122396190Y-81024819D02*
X122634285Y-80358152D01*
X122967619Y-80120057D02*
X123015238Y-80072438D01*
X123015238Y-80072438D02*
X123110476Y-80024819D01*
X123110476Y-80024819D02*
X123348571Y-80024819D01*
X123348571Y-80024819D02*
X123443809Y-80072438D01*
X123443809Y-80072438D02*
X123491428Y-80120057D01*
X123491428Y-80120057D02*
X123539047Y-80215295D01*
X123539047Y-80215295D02*
X123539047Y-80310533D01*
X123539047Y-80310533D02*
X123491428Y-80453390D01*
X123491428Y-80453390D02*
X122920000Y-81024819D01*
X122920000Y-81024819D02*
X123539047Y-81024819D01*
X164136009Y-47597142D02*
X164183628Y-47454285D01*
X164183628Y-47454285D02*
X164231247Y-47406666D01*
X164231247Y-47406666D02*
X164326485Y-47359047D01*
X164326485Y-47359047D02*
X164469342Y-47359047D01*
X164469342Y-47359047D02*
X164564580Y-47406666D01*
X164564580Y-47406666D02*
X164612200Y-47454285D01*
X164612200Y-47454285D02*
X164659819Y-47549523D01*
X164659819Y-47549523D02*
X164659819Y-47930475D01*
X164659819Y-47930475D02*
X163659819Y-47930475D01*
X163659819Y-47930475D02*
X163659819Y-47597142D01*
X163659819Y-47597142D02*
X163707438Y-47501904D01*
X163707438Y-47501904D02*
X163755057Y-47454285D01*
X163755057Y-47454285D02*
X163850295Y-47406666D01*
X163850295Y-47406666D02*
X163945533Y-47406666D01*
X163945533Y-47406666D02*
X164040771Y-47454285D01*
X164040771Y-47454285D02*
X164088390Y-47501904D01*
X164088390Y-47501904D02*
X164136009Y-47597142D01*
X164136009Y-47597142D02*
X164136009Y-47930475D01*
X164659819Y-46930475D02*
X163993152Y-46930475D01*
X164183628Y-46930475D02*
X164088390Y-46882856D01*
X164088390Y-46882856D02*
X164040771Y-46835237D01*
X164040771Y-46835237D02*
X163993152Y-46739999D01*
X163993152Y-46739999D02*
X163993152Y-46644761D01*
X164659819Y-45882856D02*
X164136009Y-45882856D01*
X164136009Y-45882856D02*
X164040771Y-45930475D01*
X164040771Y-45930475D02*
X163993152Y-46025713D01*
X163993152Y-46025713D02*
X163993152Y-46216189D01*
X163993152Y-46216189D02*
X164040771Y-46311427D01*
X164612200Y-45882856D02*
X164659819Y-45978094D01*
X164659819Y-45978094D02*
X164659819Y-46216189D01*
X164659819Y-46216189D02*
X164612200Y-46311427D01*
X164612200Y-46311427D02*
X164516961Y-46359046D01*
X164516961Y-46359046D02*
X164421723Y-46359046D01*
X164421723Y-46359046D02*
X164326485Y-46311427D01*
X164326485Y-46311427D02*
X164278866Y-46216189D01*
X164278866Y-46216189D02*
X164278866Y-45978094D01*
X164278866Y-45978094D02*
X164231247Y-45882856D01*
X164659819Y-45406665D02*
X163993152Y-45406665D01*
X163659819Y-45406665D02*
X163707438Y-45454284D01*
X163707438Y-45454284D02*
X163755057Y-45406665D01*
X163755057Y-45406665D02*
X163707438Y-45359046D01*
X163707438Y-45359046D02*
X163659819Y-45406665D01*
X163659819Y-45406665D02*
X163755057Y-45406665D01*
X163993152Y-44930475D02*
X164659819Y-44930475D01*
X164088390Y-44930475D02*
X164040771Y-44882856D01*
X164040771Y-44882856D02*
X163993152Y-44787618D01*
X163993152Y-44787618D02*
X163993152Y-44644761D01*
X163993152Y-44644761D02*
X164040771Y-44549523D01*
X164040771Y-44549523D02*
X164136009Y-44501904D01*
X164136009Y-44501904D02*
X164659819Y-44501904D01*
X163755057Y-44073332D02*
X163707438Y-44025713D01*
X163707438Y-44025713D02*
X163659819Y-43930475D01*
X163659819Y-43930475D02*
X163659819Y-43692380D01*
X163659819Y-43692380D02*
X163707438Y-43597142D01*
X163707438Y-43597142D02*
X163755057Y-43549523D01*
X163755057Y-43549523D02*
X163850295Y-43501904D01*
X163850295Y-43501904D02*
X163945533Y-43501904D01*
X163945533Y-43501904D02*
X164088390Y-43549523D01*
X164088390Y-43549523D02*
X164659819Y-44120951D01*
X164659819Y-44120951D02*
X164659819Y-43501904D01*
X112325714Y-50464819D02*
X111849524Y-50464819D01*
X111849524Y-50464819D02*
X111801905Y-50941009D01*
X111801905Y-50941009D02*
X111849524Y-50893390D01*
X111849524Y-50893390D02*
X111944762Y-50845771D01*
X111944762Y-50845771D02*
X112182857Y-50845771D01*
X112182857Y-50845771D02*
X112278095Y-50893390D01*
X112278095Y-50893390D02*
X112325714Y-50941009D01*
X112325714Y-50941009D02*
X112373333Y-51036247D01*
X112373333Y-51036247D02*
X112373333Y-51274342D01*
X112373333Y-51274342D02*
X112325714Y-51369580D01*
X112325714Y-51369580D02*
X112278095Y-51417200D01*
X112278095Y-51417200D02*
X112182857Y-51464819D01*
X112182857Y-51464819D02*
X111944762Y-51464819D01*
X111944762Y-51464819D02*
X111849524Y-51417200D01*
X111849524Y-51417200D02*
X111801905Y-51369580D01*
X113278095Y-50464819D02*
X112801905Y-50464819D01*
X112801905Y-50464819D02*
X112754286Y-50941009D01*
X112754286Y-50941009D02*
X112801905Y-50893390D01*
X112801905Y-50893390D02*
X112897143Y-50845771D01*
X112897143Y-50845771D02*
X113135238Y-50845771D01*
X113135238Y-50845771D02*
X113230476Y-50893390D01*
X113230476Y-50893390D02*
X113278095Y-50941009D01*
X113278095Y-50941009D02*
X113325714Y-51036247D01*
X113325714Y-51036247D02*
X113325714Y-51274342D01*
X113325714Y-51274342D02*
X113278095Y-51369580D01*
X113278095Y-51369580D02*
X113230476Y-51417200D01*
X113230476Y-51417200D02*
X113135238Y-51464819D01*
X113135238Y-51464819D02*
X112897143Y-51464819D01*
X112897143Y-51464819D02*
X112801905Y-51417200D01*
X112801905Y-51417200D02*
X112754286Y-51369580D01*
X114230476Y-50464819D02*
X113754286Y-50464819D01*
X113754286Y-50464819D02*
X113706667Y-50941009D01*
X113706667Y-50941009D02*
X113754286Y-50893390D01*
X113754286Y-50893390D02*
X113849524Y-50845771D01*
X113849524Y-50845771D02*
X114087619Y-50845771D01*
X114087619Y-50845771D02*
X114182857Y-50893390D01*
X114182857Y-50893390D02*
X114230476Y-50941009D01*
X114230476Y-50941009D02*
X114278095Y-51036247D01*
X114278095Y-51036247D02*
X114278095Y-51274342D01*
X114278095Y-51274342D02*
X114230476Y-51369580D01*
X114230476Y-51369580D02*
X114182857Y-51417200D01*
X114182857Y-51417200D02*
X114087619Y-51464819D01*
X114087619Y-51464819D02*
X113849524Y-51464819D01*
X113849524Y-51464819D02*
X113754286Y-51417200D01*
X113754286Y-51417200D02*
X113706667Y-51369580D01*
X155964286Y-44114819D02*
X156630952Y-44114819D01*
X156630952Y-44114819D02*
X156202381Y-45114819D01*
X157440476Y-44448152D02*
X157440476Y-45114819D01*
X157202381Y-44067200D02*
X156964286Y-44781485D01*
X156964286Y-44781485D02*
X157583333Y-44781485D01*
X157964286Y-45114819D02*
X157964286Y-44114819D01*
X157964286Y-44591009D02*
X158535714Y-44591009D01*
X158535714Y-45114819D02*
X158535714Y-44114819D01*
X159583333Y-45019580D02*
X159535714Y-45067200D01*
X159535714Y-45067200D02*
X159392857Y-45114819D01*
X159392857Y-45114819D02*
X159297619Y-45114819D01*
X159297619Y-45114819D02*
X159154762Y-45067200D01*
X159154762Y-45067200D02*
X159059524Y-44971961D01*
X159059524Y-44971961D02*
X159011905Y-44876723D01*
X159011905Y-44876723D02*
X158964286Y-44686247D01*
X158964286Y-44686247D02*
X158964286Y-44543390D01*
X158964286Y-44543390D02*
X159011905Y-44352914D01*
X159011905Y-44352914D02*
X159059524Y-44257676D01*
X159059524Y-44257676D02*
X159154762Y-44162438D01*
X159154762Y-44162438D02*
X159297619Y-44114819D01*
X159297619Y-44114819D02*
X159392857Y-44114819D01*
X159392857Y-44114819D02*
X159535714Y-44162438D01*
X159535714Y-44162438D02*
X159583333Y-44210057D01*
X159916667Y-44114819D02*
X160583333Y-44114819D01*
X160583333Y-44114819D02*
X160154762Y-45114819D01*
X161392857Y-44448152D02*
X161392857Y-45114819D01*
X161154762Y-44067200D02*
X160916667Y-44781485D01*
X160916667Y-44781485D02*
X161535714Y-44781485D01*
X111791904Y-80501009D02*
X111934761Y-80548628D01*
X111934761Y-80548628D02*
X111982380Y-80596247D01*
X111982380Y-80596247D02*
X112029999Y-80691485D01*
X112029999Y-80691485D02*
X112029999Y-80834342D01*
X112029999Y-80834342D02*
X111982380Y-80929580D01*
X111982380Y-80929580D02*
X111934761Y-80977200D01*
X111934761Y-80977200D02*
X111839523Y-81024819D01*
X111839523Y-81024819D02*
X111458571Y-81024819D01*
X111458571Y-81024819D02*
X111458571Y-80024819D01*
X111458571Y-80024819D02*
X111791904Y-80024819D01*
X111791904Y-80024819D02*
X111887142Y-80072438D01*
X111887142Y-80072438D02*
X111934761Y-80120057D01*
X111934761Y-80120057D02*
X111982380Y-80215295D01*
X111982380Y-80215295D02*
X111982380Y-80310533D01*
X111982380Y-80310533D02*
X111934761Y-80405771D01*
X111934761Y-80405771D02*
X111887142Y-80453390D01*
X111887142Y-80453390D02*
X111791904Y-80501009D01*
X111791904Y-80501009D02*
X111458571Y-80501009D01*
X112458571Y-81024819D02*
X112458571Y-80024819D01*
X112887142Y-81024819D02*
X112887142Y-80501009D01*
X112887142Y-80501009D02*
X112839523Y-80405771D01*
X112839523Y-80405771D02*
X112744285Y-80358152D01*
X112744285Y-80358152D02*
X112601428Y-80358152D01*
X112601428Y-80358152D02*
X112506190Y-80405771D01*
X112506190Y-80405771D02*
X112458571Y-80453390D01*
X113268095Y-80358152D02*
X113506190Y-81024819D01*
X113506190Y-81024819D02*
X113744285Y-80358152D01*
X114649047Y-81024819D02*
X114077619Y-81024819D01*
X114363333Y-81024819D02*
X114363333Y-80024819D01*
X114363333Y-80024819D02*
X114268095Y-80167676D01*
X114268095Y-80167676D02*
X114172857Y-80262914D01*
X114172857Y-80262914D02*
X114077619Y-80310533D01*
X114562143Y-69544819D02*
X114657381Y-69544819D01*
X114657381Y-69544819D02*
X114752619Y-69592438D01*
X114752619Y-69592438D02*
X114800238Y-69640057D01*
X114800238Y-69640057D02*
X114847857Y-69735295D01*
X114847857Y-69735295D02*
X114895476Y-69925771D01*
X114895476Y-69925771D02*
X114895476Y-70163866D01*
X114895476Y-70163866D02*
X114847857Y-70354342D01*
X114847857Y-70354342D02*
X114800238Y-70449580D01*
X114800238Y-70449580D02*
X114752619Y-70497200D01*
X114752619Y-70497200D02*
X114657381Y-70544819D01*
X114657381Y-70544819D02*
X114562143Y-70544819D01*
X114562143Y-70544819D02*
X114466905Y-70497200D01*
X114466905Y-70497200D02*
X114419286Y-70449580D01*
X114419286Y-70449580D02*
X114371667Y-70354342D01*
X114371667Y-70354342D02*
X114324048Y-70163866D01*
X114324048Y-70163866D02*
X114324048Y-69925771D01*
X114324048Y-69925771D02*
X114371667Y-69735295D01*
X114371667Y-69735295D02*
X114419286Y-69640057D01*
X114419286Y-69640057D02*
X114466905Y-69592438D01*
X114466905Y-69592438D02*
X114562143Y-69544819D01*
X115324048Y-70449580D02*
X115371667Y-70497200D01*
X115371667Y-70497200D02*
X115324048Y-70544819D01*
X115324048Y-70544819D02*
X115276429Y-70497200D01*
X115276429Y-70497200D02*
X115324048Y-70449580D01*
X115324048Y-70449580D02*
X115324048Y-70544819D01*
X116324047Y-70544819D02*
X115752619Y-70544819D01*
X116038333Y-70544819D02*
X116038333Y-69544819D01*
X116038333Y-69544819D02*
X115943095Y-69687676D01*
X115943095Y-69687676D02*
X115847857Y-69782914D01*
X115847857Y-69782914D02*
X115752619Y-69830533D01*
X117181190Y-69878152D02*
X117181190Y-70544819D01*
X116752619Y-69878152D02*
X116752619Y-70401961D01*
X116752619Y-70401961D02*
X116800238Y-70497200D01*
X116800238Y-70497200D02*
X116895476Y-70544819D01*
X116895476Y-70544819D02*
X117038333Y-70544819D01*
X117038333Y-70544819D02*
X117133571Y-70497200D01*
X117133571Y-70497200D02*
X117181190Y-70449580D01*
X117990714Y-70021009D02*
X117657381Y-70021009D01*
X117657381Y-70544819D02*
X117657381Y-69544819D01*
X117657381Y-69544819D02*
X118133571Y-69544819D01*
X132104048Y-43605057D02*
X132151667Y-43557438D01*
X132151667Y-43557438D02*
X132246905Y-43509819D01*
X132246905Y-43509819D02*
X132485000Y-43509819D01*
X132485000Y-43509819D02*
X132580238Y-43557438D01*
X132580238Y-43557438D02*
X132627857Y-43605057D01*
X132627857Y-43605057D02*
X132675476Y-43700295D01*
X132675476Y-43700295D02*
X132675476Y-43795533D01*
X132675476Y-43795533D02*
X132627857Y-43938390D01*
X132627857Y-43938390D02*
X132056429Y-44509819D01*
X132056429Y-44509819D02*
X132675476Y-44509819D01*
X133104048Y-44414580D02*
X133151667Y-44462200D01*
X133151667Y-44462200D02*
X133104048Y-44509819D01*
X133104048Y-44509819D02*
X133056429Y-44462200D01*
X133056429Y-44462200D02*
X133104048Y-44414580D01*
X133104048Y-44414580D02*
X133104048Y-44509819D01*
X133532619Y-43605057D02*
X133580238Y-43557438D01*
X133580238Y-43557438D02*
X133675476Y-43509819D01*
X133675476Y-43509819D02*
X133913571Y-43509819D01*
X133913571Y-43509819D02*
X134008809Y-43557438D01*
X134008809Y-43557438D02*
X134056428Y-43605057D01*
X134056428Y-43605057D02*
X134104047Y-43700295D01*
X134104047Y-43700295D02*
X134104047Y-43795533D01*
X134104047Y-43795533D02*
X134056428Y-43938390D01*
X134056428Y-43938390D02*
X133485000Y-44509819D01*
X133485000Y-44509819D02*
X134104047Y-44509819D01*
X134961190Y-43843152D02*
X134961190Y-44509819D01*
X134532619Y-43843152D02*
X134532619Y-44366961D01*
X134532619Y-44366961D02*
X134580238Y-44462200D01*
X134580238Y-44462200D02*
X134675476Y-44509819D01*
X134675476Y-44509819D02*
X134818333Y-44509819D01*
X134818333Y-44509819D02*
X134913571Y-44462200D01*
X134913571Y-44462200D02*
X134961190Y-44414580D01*
X135770714Y-43986009D02*
X135437381Y-43986009D01*
X135437381Y-44509819D02*
X135437381Y-43509819D01*
X135437381Y-43509819D02*
X135913571Y-43509819D01*
D11*
%TO.C,J1*%
X103695000Y-65055000D02*
X101195000Y-65055000D01*
X101195000Y-65055000D02*
X101195000Y-67555000D01*
X105515000Y-65355000D02*
X101495000Y-65355000D01*
X103805000Y-65355000D02*
X103805000Y-65855000D01*
X102995000Y-65355000D02*
X102995000Y-66355000D01*
X101495000Y-65355000D02*
X101495000Y-73075000D01*
X105015000Y-65855000D02*
X105015000Y-72575000D01*
X103805000Y-65855000D02*
X105015000Y-65855000D01*
X102995000Y-66355000D02*
X101495000Y-66355000D01*
X102995000Y-72075000D02*
X101495000Y-72075000D01*
X105015000Y-72575000D02*
X103805000Y-72575000D01*
X103805000Y-72575000D02*
X103805000Y-73075000D01*
X105515000Y-73075000D02*
X105515000Y-65355000D01*
X102995000Y-73075000D02*
X102995000Y-72075000D01*
X101495000Y-73075000D02*
X105515000Y-73075000D01*
%TO.C,0.1uF*%
X120750000Y-49465000D02*
X120995000Y-49465000D01*
X120750000Y-49465000D02*
X120750000Y-45825000D01*
X122845000Y-49465000D02*
X123090000Y-49465000D01*
X123090000Y-49465000D02*
X123090000Y-45825000D01*
X120750000Y-45825000D02*
X120995000Y-45825000D01*
X122845000Y-45825000D02*
X123090000Y-45825000D01*
%TO.C,Brain1*%
X167115000Y-59385000D02*
X169615000Y-59385000D01*
X169615000Y-59385000D02*
X169615000Y-56885000D01*
X165295000Y-59085000D02*
X169315000Y-59085000D01*
X167005000Y-59085000D02*
X167005000Y-58585000D01*
X167815000Y-59085000D02*
X167815000Y-58085000D01*
X169315000Y-59085000D02*
X169315000Y-51365000D01*
X165795000Y-58585000D02*
X165795000Y-51865000D01*
X167005000Y-58585000D02*
X165795000Y-58585000D01*
X167815000Y-58085000D02*
X169315000Y-58085000D01*
X167815000Y-52365000D02*
X169315000Y-52365000D01*
X165795000Y-51865000D02*
X167005000Y-51865000D01*
X167005000Y-51865000D02*
X167005000Y-51365000D01*
X165295000Y-51365000D02*
X165295000Y-59085000D01*
X167815000Y-51365000D02*
X167815000Y-52365000D01*
X169315000Y-51365000D02*
X165295000Y-51365000D01*
%TO.C,Bhv5*%
X152750000Y-77660000D02*
X152750000Y-75160000D01*
X152750000Y-75160000D02*
X150250000Y-75160000D01*
X152450000Y-79480000D02*
X152450000Y-75460000D01*
X152450000Y-77770000D02*
X151950000Y-77770000D01*
X152450000Y-76960000D02*
X151450000Y-76960000D01*
X152450000Y-75460000D02*
X144730000Y-75460000D01*
X151950000Y-78980000D02*
X145230000Y-78980000D01*
X151950000Y-77770000D02*
X151950000Y-78980000D01*
X151450000Y-76960000D02*
X151450000Y-75460000D01*
X145730000Y-76960000D02*
X145730000Y-75460000D01*
X145230000Y-78980000D02*
X145230000Y-77770000D01*
X145230000Y-77770000D02*
X144730000Y-77770000D01*
X144730000Y-79480000D02*
X152450000Y-79480000D01*
X144730000Y-76960000D02*
X145730000Y-76960000D01*
X144730000Y-75460000D02*
X144730000Y-79480000D01*
%TO.C,SW1*%
X120530000Y-61070000D02*
X121913000Y-61070000D01*
X120530000Y-61070000D02*
X120530000Y-59686000D01*
X120770000Y-60830000D02*
X128150000Y-60830000D01*
X120770000Y-60830000D02*
X120770000Y-50930000D01*
X128150000Y-60830000D02*
X128150000Y-50930000D01*
X122555000Y-57910000D02*
X123825000Y-57910000D01*
X122675000Y-57910000D02*
X122675000Y-56556667D01*
X122795000Y-57910000D02*
X122795000Y-56556667D01*
X122915000Y-57910000D02*
X122915000Y-56556667D01*
X123035000Y-57910000D02*
X123035000Y-56556667D01*
X123155000Y-57910000D02*
X123155000Y-56556667D01*
X123275000Y-57910000D02*
X123275000Y-56556667D01*
X123395000Y-57910000D02*
X123395000Y-56556667D01*
X123515000Y-57910000D02*
X123515000Y-56556667D01*
X123635000Y-57910000D02*
X123635000Y-56556667D01*
X123755000Y-57910000D02*
X123755000Y-56556667D01*
X123825000Y-57910000D02*
X123825000Y-53850000D01*
X125095000Y-57910000D02*
X126365000Y-57910000D01*
X125215000Y-57910000D02*
X125215000Y-56556667D01*
X125335000Y-57910000D02*
X125335000Y-56556667D01*
X125455000Y-57910000D02*
X125455000Y-56556667D01*
X125575000Y-57910000D02*
X125575000Y-56556667D01*
X125695000Y-57910000D02*
X125695000Y-56556667D01*
X125815000Y-57910000D02*
X125815000Y-56556667D01*
X125935000Y-57910000D02*
X125935000Y-56556667D01*
X126055000Y-57910000D02*
X126055000Y-56556667D01*
X126175000Y-57910000D02*
X126175000Y-56556667D01*
X126295000Y-57910000D02*
X126295000Y-56556667D01*
X126365000Y-57910000D02*
X126365000Y-53850000D01*
X122555000Y-56556667D02*
X123825000Y-56556667D01*
X125095000Y-56556667D02*
X126365000Y-56556667D01*
X122555000Y-53850000D02*
X122555000Y-57910000D01*
X123825000Y-53850000D02*
X122555000Y-53850000D01*
X125095000Y-53850000D02*
X125095000Y-57910000D01*
X126365000Y-53850000D02*
X125095000Y-53850000D01*
X120770000Y-50930000D02*
X128150000Y-50930000D01*
%TO.C,33k*%
X107935000Y-71470000D02*
X111775000Y-71470000D01*
X107935000Y-73310000D02*
X111775000Y-73310000D01*
%TO.C,555*%
X138530000Y-62280000D02*
X138530000Y-52000000D01*
X138530000Y-52000000D02*
X133230000Y-52000000D01*
X136880000Y-62280000D02*
X138530000Y-62280000D01*
X133230000Y-62280000D02*
X134880000Y-62280000D01*
X133230000Y-52000000D02*
X133230000Y-62280000D01*
X136880000Y-62280000D02*
G75*
G03*
X134880000Y-62280000I-1000000J0D01*
G01*
%TO.C,33k*%
X132700000Y-65120000D02*
X136540000Y-65120000D01*
X132700000Y-66960000D02*
X136540000Y-66960000D01*
%TO.C,LM358*%
X121810000Y-62170000D02*
X121810000Y-72450000D01*
X121810000Y-72450000D02*
X127110000Y-72450000D01*
X123460000Y-62170000D02*
X121810000Y-62170000D01*
X127110000Y-62170000D02*
X125460000Y-62170000D01*
X127110000Y-72450000D02*
X127110000Y-62170000D01*
X123460000Y-62170000D02*
G75*
G03*
X125460000Y-62170000I1000000J0D01*
G01*
%TO.C,0.1uF*%
X114385000Y-66140000D02*
X114385000Y-66385000D01*
X114385000Y-66140000D02*
X118025000Y-66140000D01*
X114385000Y-68235000D02*
X114385000Y-68480000D01*
X114385000Y-68480000D02*
X118025000Y-68480000D01*
X118025000Y-66140000D02*
X118025000Y-66385000D01*
X118025000Y-68235000D02*
X118025000Y-68480000D01*
%TO.C,33K*%
X107935000Y-66390000D02*
X111775000Y-66390000D01*
X107935000Y-68230000D02*
X111775000Y-68230000D01*
%TO.C,Bhv3*%
X134970000Y-77660000D02*
X134970000Y-75160000D01*
X134970000Y-75160000D02*
X132470000Y-75160000D01*
X134670000Y-79480000D02*
X134670000Y-75460000D01*
X134670000Y-77770000D02*
X134170000Y-77770000D01*
X134670000Y-76960000D02*
X133670000Y-76960000D01*
X134670000Y-75460000D02*
X126950000Y-75460000D01*
X134170000Y-78980000D02*
X127450000Y-78980000D01*
X134170000Y-77770000D02*
X134170000Y-78980000D01*
X133670000Y-76960000D02*
X133670000Y-75460000D01*
X127950000Y-76960000D02*
X127950000Y-75460000D01*
X127450000Y-78980000D02*
X127450000Y-77770000D01*
X127450000Y-77770000D02*
X126950000Y-77770000D01*
X126950000Y-79480000D02*
X134670000Y-79480000D01*
X126950000Y-76960000D02*
X127950000Y-76960000D01*
X126950000Y-75460000D02*
X126950000Y-79480000D01*
%TO.C,10k Pot*%
X110945000Y-50605000D02*
X110945000Y-40835000D01*
X110945000Y-50605000D02*
X101175000Y-50605000D01*
X110945000Y-40835000D02*
X101175000Y-40835000D01*
X101175000Y-50605000D02*
X101175000Y-40835000D01*
%TO.C,Strb2*%
X167115000Y-69565000D02*
X169615000Y-69565000D01*
X169615000Y-69565000D02*
X169615000Y-67065000D01*
X165295000Y-69265000D02*
X169315000Y-69265000D01*
X167005000Y-69265000D02*
X167005000Y-68765000D01*
X167815000Y-69265000D02*
X167815000Y-68265000D01*
X169315000Y-69265000D02*
X169315000Y-61545000D01*
X165795000Y-68765000D02*
X165795000Y-62045000D01*
X167005000Y-68765000D02*
X165795000Y-68765000D01*
X167815000Y-68265000D02*
X169315000Y-68265000D01*
X167815000Y-62545000D02*
X169315000Y-62545000D01*
X165795000Y-62045000D02*
X167005000Y-62045000D01*
X167005000Y-62045000D02*
X167005000Y-61545000D01*
X165295000Y-61545000D02*
X165295000Y-69265000D01*
X167815000Y-61545000D02*
X167815000Y-62545000D01*
X169315000Y-61545000D02*
X165295000Y-61545000D01*
%TO.C,Bhv6*%
X162275000Y-77960000D02*
X162275000Y-75460000D01*
X162275000Y-75460000D02*
X159775000Y-75460000D01*
X161975000Y-79780000D02*
X161975000Y-75760000D01*
X161975000Y-78070000D02*
X161475000Y-78070000D01*
X161975000Y-77260000D02*
X160975000Y-77260000D01*
X161975000Y-75760000D02*
X154255000Y-75760000D01*
X161475000Y-79280000D02*
X154755000Y-79280000D01*
X161475000Y-78070000D02*
X161475000Y-79280000D01*
X160975000Y-77260000D02*
X160975000Y-75760000D01*
X155255000Y-77260000D02*
X155255000Y-75760000D01*
X154755000Y-79280000D02*
X154755000Y-78070000D01*
X154755000Y-78070000D02*
X154255000Y-78070000D01*
X154255000Y-79780000D02*
X161975000Y-79780000D01*
X154255000Y-77260000D02*
X155255000Y-77260000D01*
X154255000Y-75760000D02*
X154255000Y-79780000D01*
%TO.C,0.1uF*%
X127100000Y-49445000D02*
X127345000Y-49445000D01*
X127100000Y-49445000D02*
X127100000Y-45805000D01*
X129195000Y-49445000D02*
X129440000Y-49445000D01*
X129440000Y-49445000D02*
X129440000Y-45805000D01*
X127100000Y-45805000D02*
X127345000Y-45805000D01*
X129195000Y-45805000D02*
X129440000Y-45805000D01*
%TO.C,33k*%
X144160000Y-66960000D02*
X140320000Y-66960000D01*
X144160000Y-65120000D02*
X140320000Y-65120000D01*
%TO.C,Bhv4*%
X143860000Y-77660000D02*
X143860000Y-75160000D01*
X143860000Y-75160000D02*
X141360000Y-75160000D01*
X143560000Y-79480000D02*
X143560000Y-75460000D01*
X143560000Y-77770000D02*
X143060000Y-77770000D01*
X143560000Y-76960000D02*
X142560000Y-76960000D01*
X143560000Y-75460000D02*
X135840000Y-75460000D01*
X143060000Y-78980000D02*
X136340000Y-78980000D01*
X143060000Y-77770000D02*
X143060000Y-78980000D01*
X142560000Y-76960000D02*
X142560000Y-75460000D01*
X136840000Y-76960000D02*
X136840000Y-75460000D01*
X136340000Y-78980000D02*
X136340000Y-77770000D01*
X136340000Y-77770000D02*
X135840000Y-77770000D01*
X135840000Y-79480000D02*
X143560000Y-79480000D01*
X135840000Y-76960000D02*
X136840000Y-76960000D01*
X135840000Y-75460000D02*
X135840000Y-79480000D01*
%TO.C,LM358*%
X144680000Y-52655000D02*
X144680000Y-62935000D01*
X144680000Y-62935000D02*
X149980000Y-62935000D01*
X146330000Y-52655000D02*
X144680000Y-52655000D01*
X149980000Y-52655000D02*
X148330000Y-52655000D01*
X149980000Y-62935000D02*
X149980000Y-52655000D01*
X146330000Y-52655000D02*
G75*
G03*
X148330000Y-52655000I1000000J0D01*
G01*
%TO.C,10k Pot*%
X140530000Y-51255000D02*
X150300000Y-51255000D01*
X140530000Y-51255000D02*
X140530000Y-41485000D01*
X150300000Y-51255000D02*
X150300000Y-41485000D01*
X140530000Y-41485000D02*
X150300000Y-41485000D01*
%TO.C,2.2uF*%
X114400000Y-49425000D02*
X114645000Y-49425000D01*
X114400000Y-49425000D02*
X114400000Y-45785000D01*
X116495000Y-49425000D02*
X116740000Y-49425000D01*
X116740000Y-49425000D02*
X116740000Y-45785000D01*
X114400000Y-45785000D02*
X114645000Y-45785000D01*
X116495000Y-45785000D02*
X116740000Y-45785000D01*
%TO.C,J2*%
X103695000Y-53645000D02*
X101195000Y-53645000D01*
X101195000Y-53645000D02*
X101195000Y-56145000D01*
X105515000Y-53945000D02*
X101495000Y-53945000D01*
X103805000Y-53945000D02*
X103805000Y-54445000D01*
X102995000Y-53945000D02*
X102995000Y-54945000D01*
X101495000Y-53945000D02*
X101495000Y-64165000D01*
X105015000Y-54445000D02*
X105015000Y-63665000D01*
X103805000Y-54445000D02*
X105015000Y-54445000D01*
X102995000Y-54945000D02*
X101495000Y-54945000D01*
X102995000Y-63165000D02*
X101495000Y-63165000D01*
X105015000Y-63665000D02*
X103805000Y-63665000D01*
X103805000Y-63665000D02*
X103805000Y-64165000D01*
X105515000Y-64165000D02*
X105515000Y-53945000D01*
X102995000Y-64165000D02*
X102995000Y-63165000D01*
X101495000Y-64165000D02*
X105515000Y-64165000D01*
%TO.C,Strb1*%
X167115000Y-78562000D02*
X169615000Y-78562000D01*
X169615000Y-78562000D02*
X169615000Y-76062000D01*
X165295000Y-78262000D02*
X169315000Y-78262000D01*
X167005000Y-78262000D02*
X167005000Y-77762000D01*
X167815000Y-78262000D02*
X167815000Y-77262000D01*
X169315000Y-78262000D02*
X169315000Y-70542000D01*
X165795000Y-77762000D02*
X165795000Y-71042000D01*
X167005000Y-77762000D02*
X165795000Y-77762000D01*
X167815000Y-77262000D02*
X169315000Y-77262000D01*
X167815000Y-71542000D02*
X169315000Y-71542000D01*
X165795000Y-71042000D02*
X167005000Y-71042000D01*
X167005000Y-71042000D02*
X167005000Y-70542000D01*
X165295000Y-70542000D02*
X165295000Y-78262000D01*
X167815000Y-70542000D02*
X167815000Y-71542000D01*
X169315000Y-70542000D02*
X165295000Y-70542000D01*
%TO.C,Bhv2*%
X126080000Y-77660000D02*
X126080000Y-75160000D01*
X126080000Y-75160000D02*
X123580000Y-75160000D01*
X125780000Y-79480000D02*
X125780000Y-75460000D01*
X125780000Y-77770000D02*
X125280000Y-77770000D01*
X125780000Y-76960000D02*
X124780000Y-76960000D01*
X125780000Y-75460000D02*
X118060000Y-75460000D01*
X125280000Y-78980000D02*
X118560000Y-78980000D01*
X125280000Y-77770000D02*
X125280000Y-78980000D01*
X124780000Y-76960000D02*
X124780000Y-75460000D01*
X119060000Y-76960000D02*
X119060000Y-75460000D01*
X118560000Y-78980000D02*
X118560000Y-77770000D01*
X118560000Y-77770000D02*
X118060000Y-77770000D01*
X118060000Y-79480000D02*
X125780000Y-79480000D01*
X118060000Y-76960000D02*
X119060000Y-76960000D01*
X118060000Y-75460000D02*
X118060000Y-79480000D01*
%TO.C,Brain2*%
X167115000Y-49900000D02*
X169615000Y-49900000D01*
X169615000Y-49900000D02*
X169615000Y-47400000D01*
X165295000Y-49600000D02*
X169315000Y-49600000D01*
X167005000Y-49600000D02*
X167005000Y-49100000D01*
X167815000Y-49600000D02*
X167815000Y-48600000D01*
X169315000Y-49600000D02*
X169315000Y-41880000D01*
X165795000Y-49100000D02*
X165795000Y-42380000D01*
X167005000Y-49100000D02*
X165795000Y-49100000D01*
X167815000Y-48600000D02*
X169315000Y-48600000D01*
X167815000Y-42880000D02*
X169315000Y-42880000D01*
X165795000Y-42380000D02*
X167005000Y-42380000D01*
X167005000Y-42380000D02*
X167005000Y-41880000D01*
X165295000Y-41880000D02*
X165295000Y-49600000D01*
X167815000Y-41880000D02*
X167815000Y-42880000D01*
X169315000Y-41880000D02*
X165295000Y-41880000D01*
%TO.C,555*%
X110390000Y-52010000D02*
X110390000Y-62290000D01*
X110390000Y-62290000D02*
X115690000Y-62290000D01*
X112040000Y-52010000D02*
X110390000Y-52010000D01*
X115690000Y-52010000D02*
X114040000Y-52010000D01*
X115690000Y-62290000D02*
X115690000Y-52010000D01*
X112040000Y-52010000D02*
G75*
G03*
X114040000Y-52010000I1000000J0D01*
G01*
%TO.C,74HC74*%
X156100000Y-45660000D02*
X156100000Y-63560000D01*
X156100000Y-63560000D02*
X161400000Y-63560000D01*
X157750000Y-45660000D02*
X156100000Y-45660000D01*
X161400000Y-45660000D02*
X159750000Y-45660000D01*
X161400000Y-63560000D02*
X161400000Y-45660000D01*
X157750000Y-45660000D02*
G75*
G03*
X159750000Y-45660000I1000000J0D01*
G01*
%TO.C,Bhv1*%
X117190000Y-77660000D02*
X117190000Y-75160000D01*
X117190000Y-75160000D02*
X114690000Y-75160000D01*
X116890000Y-79480000D02*
X116890000Y-75460000D01*
X116890000Y-77770000D02*
X116390000Y-77770000D01*
X116890000Y-76960000D02*
X115890000Y-76960000D01*
X116890000Y-75460000D02*
X109170000Y-75460000D01*
X116390000Y-78980000D02*
X109670000Y-78980000D01*
X116390000Y-77770000D02*
X116390000Y-78980000D01*
X115890000Y-76960000D02*
X115890000Y-75460000D01*
X110170000Y-76960000D02*
X110170000Y-75460000D01*
X109670000Y-78980000D02*
X109670000Y-77770000D01*
X109670000Y-77770000D02*
X109170000Y-77770000D01*
X109170000Y-79480000D02*
X116890000Y-79480000D01*
X109170000Y-76960000D02*
X110170000Y-76960000D01*
X109170000Y-75460000D02*
X109170000Y-79480000D01*
%TO.C,0.1uF*%
X114385000Y-71220000D02*
X114385000Y-71465000D01*
X114385000Y-71220000D02*
X118025000Y-71220000D01*
X114385000Y-73315000D02*
X114385000Y-73560000D01*
X114385000Y-73560000D02*
X118025000Y-73560000D01*
X118025000Y-71220000D02*
X118025000Y-71465000D01*
X118025000Y-73315000D02*
X118025000Y-73560000D01*
%TO.C,2.2uF*%
X132165000Y-45185000D02*
X132165000Y-45430000D01*
X132165000Y-45185000D02*
X135805000Y-45185000D01*
X132165000Y-47280000D02*
X132165000Y-47525000D01*
X132165000Y-47525000D02*
X135805000Y-47525000D01*
X135805000Y-45185000D02*
X135805000Y-45430000D01*
X135805000Y-47280000D02*
X135805000Y-47525000D01*
%TD*%
M02*
