M48
; DRILL file {KiCad 7.0.8-7.0.8~ubuntu22.04.1} date Mon 11 Dec 2023 11:20:50 AM
; FORMAT={-:-/ absolute / metric / decimal}
; #@! TF.CreationDate,2023-12-11T11:20:50-08:00
; #@! TF.GenerationSoftware,Kicad,Pcbnew,7.0.8-7.0.8~ubuntu22.04.1
; #@! TF.FileFunction,Plated,1,2,PTH
FMAT,2
METRIC
; #@! TA.AperFunction,Plated,PTH,ViaDrill
T1C0.400
; #@! TA.AperFunction,Plated,PTH,ComponentDrill
T2C0.700
; #@! TA.AperFunction,Plated,PTH,ComponentDrill
T3C0.800
; #@! TA.AperFunction,Plated,PTH,ComponentDrill
T4C0.950
; #@! TA.AperFunction,Plated,PTH,ComponentDrill
T5C1.000
%
G90
G05
T1
X114.935Y-58.42
X118.745Y-58.82
X147.32Y-62.329
X147.955Y-60.88
X156.141Y-66.675
X156.845Y-58.42
X158.115Y-66.675
X160.655Y-67.945
T2
X107.315Y-67.31
X107.315Y-72.39
X112.395Y-67.31
X112.395Y-72.39
X132.08Y-66.04
X137.16Y-66.04
X139.7Y-66.04
X144.78Y-66.04
T3
X103.505Y-45.72
X106.045Y-43.18
X106.045Y-48.26
X109.23Y-53.34
X109.23Y-55.88
X109.23Y-58.42
X109.23Y-60.96
X114.955Y-67.31
X114.955Y-72.39
X115.57Y-46.355
X115.57Y-48.855
X116.85Y-53.34
X116.85Y-55.88
X116.85Y-58.42
X116.85Y-60.96
X117.455Y-67.31
X117.455Y-72.39
X120.65Y-63.5
X120.65Y-66.04
X120.65Y-68.58
X120.65Y-71.12
X121.92Y-46.395
X121.92Y-48.895
X123.19Y-52.07
X123.19Y-59.69
X125.73Y-52.07
X125.73Y-59.69
X128.27Y-46.375
X128.27Y-48.875
X128.27Y-63.5
X128.27Y-66.04
X128.27Y-68.58
X128.27Y-71.12
X132.07Y-53.33
X132.07Y-55.87
X132.07Y-58.41
X132.07Y-60.95
X132.735Y-46.355
X135.235Y-46.355
X139.69Y-53.33
X139.69Y-55.87
X139.69Y-58.41
X139.69Y-60.95
X142.875Y-46.355
X143.52Y-53.985
X143.52Y-56.525
X143.52Y-59.065
X143.52Y-61.605
X145.415Y-43.815
X147.955Y-46.355
X151.14Y-53.985
X151.14Y-56.525
X151.14Y-59.065
X151.14Y-61.605
X154.94Y-46.99
X154.94Y-49.53
X154.94Y-52.07
X154.94Y-54.61
X154.94Y-57.15
X154.94Y-59.69
X154.94Y-62.23
X162.56Y-46.99
X162.56Y-49.53
X162.56Y-52.07
X162.56Y-54.61
X162.56Y-57.15
X162.56Y-59.69
X162.56Y-62.23
T4
X103.805Y-56.555
X103.805Y-59.055
X103.805Y-61.555
T5
X103.805Y-67.965
X103.805Y-70.465
X111.78Y-77.77
X114.28Y-77.77
X120.67Y-77.77
X123.17Y-77.77
X129.56Y-77.77
X132.06Y-77.77
X138.45Y-77.77
X140.95Y-77.77
X147.34Y-77.77
X149.84Y-77.77
X156.865Y-78.07
X159.365Y-78.07
X167.005Y-44.49
X167.005Y-46.99
X167.005Y-53.975
X167.005Y-56.475
X167.005Y-64.155
X167.005Y-66.655
X167.005Y-73.152
X167.005Y-75.652
T0
M30
