%TF.GenerationSoftware,KiCad,Pcbnew,7.0.8-7.0.8~ubuntu22.04.1*%
%TF.CreationDate,2023-12-11T11:20:47-08:00*%
%TF.ProjectId,SimplifiedTrigger,53696d70-6c69-4666-9965-645472696767,rev?*%
%TF.SameCoordinates,Original*%
%TF.FileFunction,Soldermask,Bot*%
%TF.FilePolarity,Negative*%
%FSLAX46Y46*%
G04 Gerber Fmt 4.6, Leading zero omitted, Abs format (unit mm)*
G04 Created by KiCad (PCBNEW 7.0.8-7.0.8~ubuntu22.04.1) date 2023-12-11 11:20:47*
%MOMM*%
%LPD*%
G01*
G04 APERTURE LIST*
G04 Aperture macros list*
%AMRoundRect*
0 Rectangle with rounded corners*
0 $1 Rounding radius*
0 $2 $3 $4 $5 $6 $7 $8 $9 X,Y pos of 4 corners*
0 Add a 4 corners polygon primitive as box body*
4,1,4,$2,$3,$4,$5,$6,$7,$8,$9,$2,$3,0*
0 Add four circle primitives for the rounded corners*
1,1,$1+$1,$2,$3*
1,1,$1+$1,$4,$5*
1,1,$1+$1,$6,$7*
1,1,$1+$1,$8,$9*
0 Add four rect primitives between the rounded corners*
20,1,$1+$1,$2,$3,$4,$5,0*
20,1,$1+$1,$4,$5,$6,$7,0*
20,1,$1+$1,$6,$7,$8,$9,0*
20,1,$1+$1,$8,$9,$2,$3,0*%
G04 Aperture macros list end*
%ADD10RoundRect,0.250000X-0.750000X0.600000X-0.750000X-0.600000X0.750000X-0.600000X0.750000X0.600000X0*%
%ADD11O,2.000000X1.700000*%
%ADD12C,1.600000*%
%ADD13RoundRect,0.250000X0.750000X-0.600000X0.750000X0.600000X-0.750000X0.600000X-0.750000X-0.600000X0*%
%ADD14RoundRect,0.250000X0.600000X0.750000X-0.600000X0.750000X-0.600000X-0.750000X0.600000X-0.750000X0*%
%ADD15O,1.700000X2.000000*%
%ADD16R,1.600000X1.600000*%
%ADD17O,1.600000X1.600000*%
%ADD18C,1.400000*%
%ADD19O,1.400000X1.400000*%
%ADD20C,1.440000*%
%ADD21RoundRect,0.250000X-0.725000X0.600000X-0.725000X-0.600000X0.725000X-0.600000X0.725000X0.600000X0*%
%ADD22O,1.950000X1.700000*%
G04 APERTURE END LIST*
D10*
%TO.C,J1*%
X103805000Y-67965000D03*
D11*
X103805000Y-70465000D03*
%TD*%
D12*
%TO.C,0.1uF*%
X121920000Y-48895000D03*
X121920000Y-46395000D03*
%TD*%
D13*
%TO.C,Brain1*%
X167005000Y-56475000D03*
D11*
X167005000Y-53975000D03*
%TD*%
D14*
%TO.C,Bhv5*%
X149840000Y-77770000D03*
D15*
X147340000Y-77770000D03*
%TD*%
D16*
%TO.C,SW1*%
X123190000Y-59690000D03*
D17*
X125730000Y-59690000D03*
X125730000Y-52070000D03*
X123190000Y-52070000D03*
%TD*%
D18*
%TO.C,33k*%
X107315000Y-72390000D03*
D19*
X112395000Y-72390000D03*
%TD*%
D16*
%TO.C,555*%
X139690000Y-60950000D03*
D17*
X139690000Y-58410000D03*
X139690000Y-55870000D03*
X139690000Y-53330000D03*
X132070000Y-53330000D03*
X132070000Y-55870000D03*
X132070000Y-58410000D03*
X132070000Y-60950000D03*
%TD*%
D18*
%TO.C,33k*%
X132080000Y-66040000D03*
D19*
X137160000Y-66040000D03*
%TD*%
D16*
%TO.C,LM358*%
X120650000Y-63500000D03*
D17*
X120650000Y-66040000D03*
X120650000Y-68580000D03*
X120650000Y-71120000D03*
X128270000Y-71120000D03*
X128270000Y-68580000D03*
X128270000Y-66040000D03*
X128270000Y-63500000D03*
%TD*%
D12*
%TO.C,0.1uF*%
X114955000Y-67310000D03*
X117455000Y-67310000D03*
%TD*%
D18*
%TO.C,33K*%
X107315000Y-67310000D03*
D19*
X112395000Y-67310000D03*
%TD*%
D14*
%TO.C,Bhv3*%
X132060000Y-77770000D03*
D15*
X129560000Y-77770000D03*
%TD*%
D20*
%TO.C,10k Pot*%
X106045000Y-43180000D03*
X103505000Y-45720000D03*
X106045000Y-48260000D03*
%TD*%
D13*
%TO.C,Strb2*%
X167005000Y-66655000D03*
D11*
X167005000Y-64155000D03*
%TD*%
D14*
%TO.C,Bhv6*%
X159365000Y-78070000D03*
D15*
X156865000Y-78070000D03*
%TD*%
D12*
%TO.C,0.1uF*%
X128270000Y-48875000D03*
X128270000Y-46375000D03*
%TD*%
D18*
%TO.C,33k*%
X144780000Y-66040000D03*
D19*
X139700000Y-66040000D03*
%TD*%
D14*
%TO.C,Bhv4*%
X140950000Y-77770000D03*
D15*
X138450000Y-77770000D03*
%TD*%
D16*
%TO.C,LM358*%
X143520000Y-53985000D03*
D17*
X143520000Y-56525000D03*
X143520000Y-59065000D03*
X143520000Y-61605000D03*
X151140000Y-61605000D03*
X151140000Y-59065000D03*
X151140000Y-56525000D03*
X151140000Y-53985000D03*
%TD*%
D20*
%TO.C,10k Pot*%
X147955000Y-46355000D03*
X145415000Y-43815000D03*
X142875000Y-46355000D03*
%TD*%
D12*
%TO.C,2.2uF*%
X115570000Y-48855000D03*
X115570000Y-46355000D03*
%TD*%
D21*
%TO.C,J2*%
X103805000Y-56555000D03*
D22*
X103805000Y-59055000D03*
X103805000Y-61555000D03*
%TD*%
D13*
%TO.C,Strb1*%
X167005000Y-75652000D03*
D11*
X167005000Y-73152000D03*
%TD*%
D14*
%TO.C,Bhv2*%
X123170000Y-77770000D03*
D15*
X120670000Y-77770000D03*
%TD*%
D13*
%TO.C,Brain2*%
X167005000Y-46990000D03*
D11*
X167005000Y-44490000D03*
%TD*%
D16*
%TO.C,555*%
X109230000Y-53340000D03*
D17*
X109230000Y-55880000D03*
X109230000Y-58420000D03*
X109230000Y-60960000D03*
X116850000Y-60960000D03*
X116850000Y-58420000D03*
X116850000Y-55880000D03*
X116850000Y-53340000D03*
%TD*%
D16*
%TO.C,74HC74*%
X154940000Y-46990000D03*
D17*
X154940000Y-49530000D03*
X154940000Y-52070000D03*
X154940000Y-54610000D03*
X154940000Y-57150000D03*
X154940000Y-59690000D03*
X154940000Y-62230000D03*
X162560000Y-62230000D03*
X162560000Y-59690000D03*
X162560000Y-57150000D03*
X162560000Y-54610000D03*
X162560000Y-52070000D03*
X162560000Y-49530000D03*
X162560000Y-46990000D03*
%TD*%
D14*
%TO.C,Bhv1*%
X114280000Y-77770000D03*
D15*
X111780000Y-77770000D03*
%TD*%
D12*
%TO.C,0.1uF*%
X114955000Y-72390000D03*
X117455000Y-72390000D03*
%TD*%
%TO.C,2.2uF*%
X132735000Y-46355000D03*
X135235000Y-46355000D03*
%TD*%
M02*
