%TF.GenerationSoftware,KiCad,Pcbnew,7.0.8-7.0.8~ubuntu22.04.1*%
%TF.CreationDate,2023-10-18T14:35:01-07:00*%
%TF.ProjectId,SolenoidDriver,536f6c65-6e6f-4696-9444-72697665722e,rev?*%
%TF.SameCoordinates,Original*%
%TF.FileFunction,Copper,L1,Top*%
%TF.FilePolarity,Positive*%
%FSLAX46Y46*%
G04 Gerber Fmt 4.6, Leading zero omitted, Abs format (unit mm)*
G04 Created by KiCad (PCBNEW 7.0.8-7.0.8~ubuntu22.04.1) date 2023-10-18 14:35:01*
%MOMM*%
%LPD*%
G01*
G04 APERTURE LIST*
G04 Aperture macros list*
%AMRoundRect*
0 Rectangle with rounded corners*
0 $1 Rounding radius*
0 $2 $3 $4 $5 $6 $7 $8 $9 X,Y pos of 4 corners*
0 Add a 4 corners polygon primitive as box body*
4,1,4,$2,$3,$4,$5,$6,$7,$8,$9,$2,$3,0*
0 Add four circle primitives for the rounded corners*
1,1,$1+$1,$2,$3*
1,1,$1+$1,$4,$5*
1,1,$1+$1,$6,$7*
1,1,$1+$1,$8,$9*
0 Add four rect primitives between the rounded corners*
20,1,$1+$1,$2,$3,$4,$5,0*
20,1,$1+$1,$4,$5,$6,$7,0*
20,1,$1+$1,$6,$7,$8,$9,0*
20,1,$1+$1,$8,$9,$2,$3,0*%
G04 Aperture macros list end*
%TA.AperFunction,ComponentPad*%
%ADD10R,1.700000X1.700000*%
%TD*%
%TA.AperFunction,ComponentPad*%
%ADD11O,1.700000X1.700000*%
%TD*%
%TA.AperFunction,SMDPad,CuDef*%
%ADD12RoundRect,0.200000X0.275000X-0.200000X0.275000X0.200000X-0.275000X0.200000X-0.275000X-0.200000X0*%
%TD*%
%TA.AperFunction,SMDPad,CuDef*%
%ADD13R,0.700000X0.450000*%
%TD*%
%TA.AperFunction,SMDPad,CuDef*%
%ADD14RoundRect,0.250000X-1.000000X-0.900000X1.000000X-0.900000X1.000000X0.900000X-1.000000X0.900000X0*%
%TD*%
%TA.AperFunction,ViaPad*%
%ADD15C,0.800000*%
%TD*%
%TA.AperFunction,Conductor*%
%ADD16C,0.250000*%
%TD*%
G04 APERTURE END LIST*
D10*
%TO.P,J2,1,Pin_1*%
%TO.N,Net-(D4-A)*%
X100330000Y-42450000D03*
D11*
%TO.P,J2,2,Pin_2*%
%TO.N,+12V*%
X100330000Y-44990000D03*
%TO.P,J2,3,Pin_3*%
%TO.N,Net-(D3-A)*%
X100330000Y-47530000D03*
%TO.P,J2,4,Pin_4*%
%TO.N,+12V*%
X100330000Y-50070000D03*
%TO.P,J2,5,Pin_5*%
%TO.N,Net-(D2-A)*%
X100330000Y-52610000D03*
%TO.P,J2,6,Pin_6*%
%TO.N,+12V*%
X100330000Y-55150000D03*
%TO.P,J2,7,Pin_7*%
%TO.N,Net-(D1-A)*%
X100330000Y-57690000D03*
%TO.P,J2,8,Pin_8*%
%TO.N,+12V*%
X100330000Y-60230000D03*
%TD*%
%TO.P,J1,8,Pin_8*%
%TO.N,GND*%
X80010000Y-42450000D03*
%TO.P,J1,7,Pin_7*%
X80010000Y-44990000D03*
%TO.P,J1,6,Pin_6*%
X80010000Y-47530000D03*
%TO.P,J1,5,Pin_5*%
%TO.N,Net-(J1-Pin_5)*%
X80010000Y-50070000D03*
%TO.P,J1,4,Pin_4*%
%TO.N,Net-(J1-Pin_4)*%
X80010000Y-52610000D03*
%TO.P,J1,3,Pin_3*%
%TO.N,Net-(J1-Pin_3)*%
X80010000Y-55150000D03*
%TO.P,J1,2,Pin_2*%
%TO.N,Net-(J1-Pin_2)*%
X80010000Y-57690000D03*
D10*
%TO.P,J1,1,Pin_1*%
%TO.N,+12V*%
X80010000Y-60230000D03*
%TD*%
D12*
%TO.P,R1,1*%
%TO.N,Net-(J1-Pin_2)*%
X84582000Y-59531000D03*
%TO.P,R1,2*%
%TO.N,Net-(Q1-B)*%
X84582000Y-57881000D03*
%TD*%
D13*
%TO.P,Q1,1,B*%
%TO.N,Net-(Q1-B)*%
X86360000Y-58310000D03*
%TO.P,Q1,2,E*%
%TO.N,GND*%
X86360000Y-59610000D03*
%TO.P,Q1,3,C*%
%TO.N,Net-(D1-A)*%
X88360000Y-58960000D03*
%TD*%
D14*
%TO.P,D1,2,A*%
%TO.N,Net-(D1-A)*%
X95250000Y-57690000D03*
%TO.P,D1,1,K*%
%TO.N,+12V*%
X90950000Y-57690000D03*
%TD*%
D12*
%TO.P,R4,1*%
%TO.N,Net-(J1-Pin_5)*%
X84074000Y-44053305D03*
%TO.P,R4,2*%
%TO.N,Net-(Q4-B)*%
X84074000Y-42403305D03*
%TD*%
%TO.P,R3,2*%
%TO.N,Net-(Q3-B)*%
X84582000Y-47308083D03*
%TO.P,R3,1*%
%TO.N,Net-(J1-Pin_4)*%
X84582000Y-48958083D03*
%TD*%
%TO.P,R2,2*%
%TO.N,Net-(Q2-B)*%
X84582000Y-52801000D03*
%TO.P,R2,1*%
%TO.N,Net-(J1-Pin_3)*%
X84582000Y-54451000D03*
%TD*%
D13*
%TO.P,Q4,1,B*%
%TO.N,Net-(Q4-B)*%
X85941111Y-42573861D03*
%TO.P,Q4,2,E*%
%TO.N,GND*%
X85941111Y-43873861D03*
%TO.P,Q4,3,C*%
%TO.N,Net-(D4-A)*%
X87941111Y-43223861D03*
%TD*%
%TO.P,Q3,1,B*%
%TO.N,Net-(Q3-B)*%
X86286359Y-47436503D03*
%TO.P,Q3,2,E*%
%TO.N,GND*%
X86286359Y-48736503D03*
%TO.P,Q3,3,C*%
%TO.N,Net-(D3-A)*%
X88286359Y-48086503D03*
%TD*%
%TO.P,Q2,1,B*%
%TO.N,Net-(Q2-B)*%
X86537800Y-52808600D03*
%TO.P,Q2,2,E*%
%TO.N,GND*%
X86537800Y-54108600D03*
%TO.P,Q2,3,C*%
%TO.N,Net-(D2-A)*%
X88537800Y-53458600D03*
%TD*%
D14*
%TO.P,D4,2,A*%
%TO.N,Net-(D4-A)*%
X94860000Y-42450000D03*
%TO.P,D4,1,K*%
%TO.N,+12V*%
X90560000Y-42450000D03*
%TD*%
%TO.P,D3,1,K*%
%TO.N,+12V*%
X90950000Y-47530000D03*
%TO.P,D3,2,A*%
%TO.N,Net-(D3-A)*%
X95250000Y-47530000D03*
%TD*%
%TO.P,D2,1,K*%
%TO.N,+12V*%
X91009719Y-52742740D03*
%TO.P,D2,2,A*%
%TO.N,Net-(D2-A)*%
X95309719Y-52742740D03*
%TD*%
D15*
%TO.N,Net-(D3-A)*%
X88851164Y-46893788D03*
X95250000Y-47530000D03*
%TO.N,Net-(D2-A)*%
X92859219Y-52610000D03*
X89057607Y-52591612D03*
%TO.N,Net-(D1-A)*%
X92799500Y-57690000D03*
X89100500Y-57690000D03*
%TO.N,GND*%
X86614000Y-60738000D03*
X86554776Y-55278860D03*
X86315838Y-50308938D03*
X85927944Y-45031482D03*
%TD*%
D16*
%TO.N,Net-(J1-Pin_2)*%
X84582000Y-59531000D02*
X84133027Y-59531000D01*
X84133027Y-59531000D02*
X82292027Y-57690000D01*
X82292027Y-57690000D02*
X80010000Y-57690000D01*
%TO.N,+12V*%
X90950000Y-61145230D02*
X90632230Y-61463000D01*
X90632230Y-61463000D02*
X83663896Y-61463000D01*
X83663896Y-61463000D02*
X82430896Y-60230000D01*
X82430896Y-60230000D02*
X80010000Y-60230000D01*
%TO.N,Net-(J1-Pin_3)*%
X81489575Y-55150000D02*
X80010000Y-55150000D01*
%TO.N,Net-(J1-Pin_4)*%
X83426055Y-48958083D02*
X81708028Y-48958083D01*
X81708028Y-48958083D02*
X81632790Y-49033321D01*
X81632790Y-49033321D02*
X81632790Y-50987210D01*
X81632790Y-50987210D02*
X80010000Y-52610000D01*
%TO.N,Net-(J1-Pin_5)*%
X81621361Y-47524330D02*
X81621361Y-48327636D01*
X82501073Y-46644618D02*
X81621361Y-47524330D01*
X80010000Y-49938997D02*
X80010000Y-50070000D01*
X82501073Y-44053305D02*
X82501073Y-46644618D01*
X81621361Y-48327636D02*
X80010000Y-49938997D01*
%TO.N,GND*%
X86360000Y-59610000D02*
X86360000Y-60484000D01*
X86360000Y-60484000D02*
X86614000Y-60738000D01*
X79911540Y-46626830D02*
X79927548Y-46626830D01*
%TO.N,Net-(J1-Pin_5)*%
X82501073Y-44053305D02*
X84074000Y-44053305D01*
%TO.N,Net-(Q4-B)*%
X84610243Y-42403305D02*
X84074000Y-42403305D01*
%TO.N,+12V*%
X102870000Y-50070000D02*
X102870000Y-55150000D01*
X102870000Y-50070000D02*
X102870000Y-44990000D01*
X102870000Y-44990000D02*
X100330000Y-44990000D01*
X102870000Y-50070000D02*
X100330000Y-50070000D01*
X102870000Y-55150000D02*
X100330000Y-55150000D01*
%TO.N,Net-(J1-Pin_3)*%
X81489575Y-55150000D02*
X82341222Y-54298353D01*
X82341222Y-54298353D02*
X83613006Y-54298353D01*
%TO.N,+12V*%
X102870000Y-55150000D02*
X102870000Y-60230000D01*
X102870000Y-60230000D02*
X101215000Y-60230000D01*
%TO.N,Net-(D4-A)*%
X94860000Y-42450000D02*
X100330000Y-42450000D01*
X100330000Y-42450000D02*
X101215000Y-42450000D01*
%TO.N,Net-(D3-A)*%
X95250000Y-47530000D02*
X100330000Y-47530000D01*
X100330000Y-47530000D02*
X101215000Y-47530000D01*
%TO.N,Net-(D2-A)*%
X95309719Y-52742740D02*
X95442459Y-52610000D01*
X95442459Y-52610000D02*
X101215000Y-52610000D01*
%TO.N,Net-(D1-A)*%
X95250000Y-57690000D02*
X100330000Y-57690000D01*
X100330000Y-57690000D02*
X101215000Y-57690000D01*
%TO.N,+12V*%
X90950000Y-61145230D02*
X91865230Y-60230000D01*
X91865230Y-60230000D02*
X101215000Y-60230000D01*
%TO.N,Net-(D3-A)*%
X88286359Y-47458593D02*
X88851164Y-46893788D01*
X88286359Y-48086503D02*
X88286359Y-47458593D01*
%TO.N,Net-(D2-A)*%
X88537800Y-53458600D02*
X88537800Y-53111419D01*
X92991959Y-52742740D02*
X95309719Y-52742740D01*
X88537800Y-53111419D02*
X89057607Y-52591612D01*
X92859219Y-52610000D02*
X92991959Y-52742740D01*
%TO.N,Net-(D1-A)*%
X88360000Y-58960000D02*
X88360000Y-58430500D01*
X88360000Y-58430500D02*
X89100500Y-57690000D01*
X92799500Y-57690000D02*
X95250000Y-57690000D01*
%TO.N,Net-(D4-A)*%
X87941111Y-43223861D02*
X87941111Y-42355715D01*
X87941111Y-42355715D02*
X89348593Y-40948233D01*
X89348593Y-40948233D02*
X93358233Y-40948233D01*
X93358233Y-40948233D02*
X94860000Y-42450000D01*
%TO.N,+12V*%
X90950000Y-47530000D02*
X90950000Y-42840000D01*
X90950000Y-42840000D02*
X90560000Y-42450000D01*
X91009719Y-52742740D02*
X91009719Y-47589719D01*
X91009719Y-47589719D02*
X90950000Y-47530000D01*
X90950000Y-57690000D02*
X90950000Y-52802459D01*
X90950000Y-52802459D02*
X91009719Y-52742740D01*
X90950000Y-61145230D02*
X90950000Y-57690000D01*
%TO.N,Net-(Q4-B)*%
X84610243Y-42403305D02*
X84780799Y-42573861D01*
X84780799Y-42573861D02*
X85941111Y-42573861D01*
%TO.N,Net-(Q3-B)*%
X84996087Y-47436503D02*
X86286359Y-47436503D01*
%TO.N,Net-(Q2-B)*%
X83613006Y-52648353D02*
X85022970Y-52648353D01*
X85022970Y-52648353D02*
X85183217Y-52808600D01*
X85183217Y-52808600D02*
X86537800Y-52808600D01*
%TO.N,Net-(Q1-B)*%
X84623818Y-57995673D02*
X84938145Y-58310000D01*
X84938145Y-58310000D02*
X86360000Y-58310000D01*
%TO.N,GND*%
X86537800Y-55261884D02*
X86554776Y-55278860D01*
X86537800Y-54108600D02*
X86537800Y-55261884D01*
X86286359Y-50279459D02*
X86315838Y-50308938D01*
X86286359Y-48736503D02*
X86286359Y-50279459D01*
X85941111Y-45018315D02*
X85927944Y-45031482D01*
X85941111Y-43873861D02*
X85941111Y-45018315D01*
%TD*%
%TA.AperFunction,Conductor*%
%TO.N,+12V*%
G36*
X90810000Y-44099999D02*
G01*
X91316000Y-44099999D01*
X91383039Y-44119684D01*
X91428794Y-44172488D01*
X91440000Y-44223999D01*
X91440000Y-45625000D01*
X91470596Y-45716788D01*
X91473121Y-45786612D01*
X91437496Y-45846717D01*
X91375031Y-45878020D01*
X91352959Y-45880000D01*
X91200000Y-45880000D01*
X91200000Y-49179999D01*
X91951000Y-49179999D01*
X92018039Y-49199684D01*
X92063794Y-49252488D01*
X92075000Y-49303999D01*
X92075000Y-50968740D01*
X92055315Y-51035779D01*
X92002511Y-51081534D01*
X91951000Y-51092740D01*
X91259719Y-51092740D01*
X91259719Y-54392739D01*
X91951000Y-54392739D01*
X92018039Y-54412424D01*
X92063794Y-54465228D01*
X92075000Y-54516739D01*
X92075000Y-55916000D01*
X92055315Y-55983039D01*
X92002511Y-56028794D01*
X91951000Y-56040000D01*
X91200000Y-56040000D01*
X91200000Y-57690000D01*
X90700000Y-57690000D01*
X90700000Y-56040000D01*
X89900028Y-56040000D01*
X89900012Y-56040001D01*
X89797301Y-56050494D01*
X89698003Y-56083398D01*
X89628175Y-56085800D01*
X89568133Y-56050068D01*
X89536941Y-55987547D01*
X89535000Y-55965692D01*
X89535000Y-54447257D01*
X89554685Y-54380218D01*
X89607489Y-54334463D01*
X89676647Y-54324519D01*
X89698005Y-54329551D01*
X89857024Y-54382245D01*
X89857028Y-54382246D01*
X89959738Y-54392739D01*
X90759718Y-54392739D01*
X90759719Y-54392738D01*
X90759719Y-51092740D01*
X89959747Y-51092740D01*
X89959731Y-51092741D01*
X89857021Y-51103234D01*
X89698004Y-51155927D01*
X89628175Y-51158329D01*
X89568134Y-51122597D01*
X89536941Y-51060076D01*
X89535000Y-51038221D01*
X89535000Y-49254306D01*
X89554685Y-49187267D01*
X89607489Y-49141512D01*
X89676647Y-49131568D01*
X89698005Y-49136600D01*
X89797305Y-49169505D01*
X89797309Y-49169506D01*
X89900019Y-49179999D01*
X90699999Y-49179999D01*
X90700000Y-49179998D01*
X90700000Y-45880000D01*
X89900028Y-45880000D01*
X89900012Y-45880001D01*
X89797301Y-45890494D01*
X89698003Y-45923398D01*
X89628175Y-45925800D01*
X89568133Y-45890068D01*
X89536941Y-45827547D01*
X89535000Y-45805692D01*
X89535000Y-44223999D01*
X89554685Y-44156960D01*
X89607489Y-44111205D01*
X89659000Y-44099999D01*
X90310000Y-44099999D01*
X90310000Y-42450000D01*
X90810000Y-42450000D01*
X90810000Y-44099999D01*
G37*
%TD.AperFunction*%
%TD*%
M02*
