M48
; DRILL file {KiCad 7.0.8-7.0.8~ubuntu22.04.1} date Wed 18 Oct 2023 02:34:58 PM
; FORMAT={-:-/ absolute / metric / decimal}
; #@! TF.CreationDate,2023-10-18T14:34:58-07:00
; #@! TF.GenerationSoftware,Kicad,Pcbnew,7.0.8-7.0.8~ubuntu22.04.1
; #@! TF.FileFunction,Plated,1,2,PTH
FMAT,2
METRIC
; #@! TA.AperFunction,Plated,PTH,ViaDrill
T1C0.400
; #@! TA.AperFunction,Plated,PTH,ComponentDrill
T2C1.000
%
G90
G05
T1
X85.928Y-45.031
X86.316Y-50.309
X86.555Y-55.279
X86.614Y-60.738
X88.851Y-46.894
X89.058Y-52.592
X89.1Y-57.69
X92.799Y-57.69
X92.859Y-52.61
X95.25Y-47.53
T2
X80.01Y-42.45
X80.01Y-44.99
X80.01Y-47.53
X80.01Y-50.07
X80.01Y-52.61
X80.01Y-55.15
X80.01Y-57.69
X80.01Y-60.23
X100.33Y-42.45
X100.33Y-44.99
X100.33Y-47.53
X100.33Y-50.07
X100.33Y-52.61
X100.33Y-55.15
X100.33Y-57.69
X100.33Y-60.23
T0
M30
