%TF.GenerationSoftware,KiCad,Pcbnew,7.0.8-7.0.8~ubuntu22.04.1*%
%TF.CreationDate,2023-10-18T14:35:01-07:00*%
%TF.ProjectId,SolenoidDriver,536f6c65-6e6f-4696-9444-72697665722e,rev?*%
%TF.SameCoordinates,Original*%
%TF.FileFunction,Copper,L2,Bot*%
%TF.FilePolarity,Positive*%
%FSLAX46Y46*%
G04 Gerber Fmt 4.6, Leading zero omitted, Abs format (unit mm)*
G04 Created by KiCad (PCBNEW 7.0.8-7.0.8~ubuntu22.04.1) date 2023-10-18 14:35:01*
%MOMM*%
%LPD*%
G01*
G04 APERTURE LIST*
%TA.AperFunction,ComponentPad*%
%ADD10R,1.700000X1.700000*%
%TD*%
%TA.AperFunction,ComponentPad*%
%ADD11O,1.700000X1.700000*%
%TD*%
%TA.AperFunction,ViaPad*%
%ADD12C,0.800000*%
%TD*%
%TA.AperFunction,Conductor*%
%ADD13C,0.250000*%
%TD*%
G04 APERTURE END LIST*
D10*
%TO.P,J2,1,Pin_1*%
%TO.N,Net-(D4-A)*%
X100330000Y-42450000D03*
D11*
%TO.P,J2,2,Pin_2*%
%TO.N,+12V*%
X100330000Y-44990000D03*
%TO.P,J2,3,Pin_3*%
%TO.N,Net-(D3-A)*%
X100330000Y-47530000D03*
%TO.P,J2,4,Pin_4*%
%TO.N,+12V*%
X100330000Y-50070000D03*
%TO.P,J2,5,Pin_5*%
%TO.N,Net-(D2-A)*%
X100330000Y-52610000D03*
%TO.P,J2,6,Pin_6*%
%TO.N,+12V*%
X100330000Y-55150000D03*
%TO.P,J2,7,Pin_7*%
%TO.N,Net-(D1-A)*%
X100330000Y-57690000D03*
%TO.P,J2,8,Pin_8*%
%TO.N,+12V*%
X100330000Y-60230000D03*
%TD*%
%TO.P,J1,8,Pin_8*%
%TO.N,GND*%
X80010000Y-42450000D03*
%TO.P,J1,7,Pin_7*%
X80010000Y-44990000D03*
%TO.P,J1,6,Pin_6*%
X80010000Y-47530000D03*
%TO.P,J1,5,Pin_5*%
%TO.N,Net-(J1-Pin_5)*%
X80010000Y-50070000D03*
%TO.P,J1,4,Pin_4*%
%TO.N,Net-(J1-Pin_4)*%
X80010000Y-52610000D03*
%TO.P,J1,3,Pin_3*%
%TO.N,Net-(J1-Pin_3)*%
X80010000Y-55150000D03*
%TO.P,J1,2,Pin_2*%
%TO.N,Net-(J1-Pin_2)*%
X80010000Y-57690000D03*
D10*
%TO.P,J1,1,Pin_1*%
%TO.N,+12V*%
X80010000Y-60230000D03*
%TD*%
D12*
%TO.N,Net-(D3-A)*%
X88851164Y-46893788D03*
X95250000Y-47530000D03*
%TO.N,Net-(D2-A)*%
X92859219Y-52610000D03*
X89057607Y-52591612D03*
%TO.N,Net-(D1-A)*%
X92799500Y-57690000D03*
X89100500Y-57690000D03*
%TO.N,GND*%
X86614000Y-60738000D03*
X86554776Y-55278860D03*
X86315838Y-50308938D03*
X85927944Y-45031482D03*
%TD*%
D13*
%TO.N,Net-(D3-A)*%
X88851164Y-46893788D02*
X89487376Y-47530000D01*
X89487376Y-47530000D02*
X95250000Y-47530000D01*
%TO.N,Net-(D2-A)*%
X92840831Y-52591612D02*
X92859219Y-52610000D01*
X89057607Y-52591612D02*
X92840831Y-52591612D01*
%TO.N,Net-(D1-A)*%
X89100500Y-57690000D02*
X92799500Y-57690000D01*
%TD*%
%TA.AperFunction,Conductor*%
%TO.N,GND*%
G36*
X80260000Y-47094498D02*
G01*
X80152315Y-47045320D01*
X80045763Y-47030000D01*
X79974237Y-47030000D01*
X79867685Y-47045320D01*
X79760000Y-47094498D01*
X79760000Y-45425501D01*
X79867685Y-45474680D01*
X79974237Y-45490000D01*
X80045763Y-45490000D01*
X80152315Y-45474680D01*
X80260000Y-45425501D01*
X80260000Y-47094498D01*
G37*
%TD.AperFunction*%
%TA.AperFunction,Conductor*%
G36*
X80260000Y-44554498D02*
G01*
X80152315Y-44505320D01*
X80045763Y-44490000D01*
X79974237Y-44490000D01*
X79867685Y-44505320D01*
X79760000Y-44554498D01*
X79760000Y-42885501D01*
X79867685Y-42934680D01*
X79974237Y-42950000D01*
X80045763Y-42950000D01*
X80152315Y-42934680D01*
X80260000Y-42885501D01*
X80260000Y-44554498D01*
G37*
%TD.AperFunction*%
%TA.AperFunction,Conductor*%
G36*
X102813039Y-39929685D02*
G01*
X102858794Y-39982489D01*
X102870000Y-40034000D01*
X102870000Y-62646000D01*
X102850315Y-62713039D01*
X102797511Y-62758794D01*
X102746000Y-62770000D01*
X77594000Y-62770000D01*
X77526961Y-62750315D01*
X77481206Y-62697511D01*
X77470000Y-62646000D01*
X77470000Y-57690000D01*
X78654341Y-57690000D01*
X78674936Y-57925403D01*
X78674938Y-57925413D01*
X78736094Y-58153655D01*
X78736096Y-58153659D01*
X78736097Y-58153663D01*
X78768063Y-58222214D01*
X78835965Y-58367830D01*
X78835967Y-58367834D01*
X78910412Y-58474151D01*
X78971501Y-58561396D01*
X78971506Y-58561402D01*
X79093430Y-58683326D01*
X79126915Y-58744649D01*
X79121931Y-58814341D01*
X79080059Y-58870274D01*
X79049083Y-58887189D01*
X78917669Y-58936203D01*
X78917664Y-58936206D01*
X78802455Y-59022452D01*
X78802452Y-59022455D01*
X78716206Y-59137664D01*
X78716202Y-59137671D01*
X78665908Y-59272517D01*
X78659501Y-59332116D01*
X78659501Y-59332123D01*
X78659500Y-59332135D01*
X78659500Y-61127870D01*
X78659501Y-61127876D01*
X78665908Y-61187483D01*
X78716202Y-61322328D01*
X78716206Y-61322335D01*
X78802452Y-61437544D01*
X78802455Y-61437547D01*
X78917664Y-61523793D01*
X78917671Y-61523797D01*
X79052517Y-61574091D01*
X79052516Y-61574091D01*
X79059444Y-61574835D01*
X79112127Y-61580500D01*
X80907872Y-61580499D01*
X80967483Y-61574091D01*
X81102331Y-61523796D01*
X81217546Y-61437546D01*
X81303796Y-61322331D01*
X81354091Y-61187483D01*
X81360500Y-61127873D01*
X81360499Y-60230000D01*
X98974341Y-60230000D01*
X98994936Y-60465403D01*
X98994938Y-60465413D01*
X99056094Y-60693655D01*
X99056096Y-60693659D01*
X99056097Y-60693663D01*
X99155965Y-60907830D01*
X99155967Y-60907834D01*
X99264281Y-61062521D01*
X99291505Y-61101401D01*
X99458599Y-61268495D01*
X99555384Y-61336265D01*
X99652165Y-61404032D01*
X99652167Y-61404033D01*
X99652170Y-61404035D01*
X99866337Y-61503903D01*
X100094592Y-61565063D01*
X100271034Y-61580500D01*
X100329999Y-61585659D01*
X100330000Y-61585659D01*
X100330001Y-61585659D01*
X100388966Y-61580500D01*
X100565408Y-61565063D01*
X100793663Y-61503903D01*
X101007830Y-61404035D01*
X101201401Y-61268495D01*
X101368495Y-61101401D01*
X101504035Y-60907830D01*
X101603903Y-60693663D01*
X101665063Y-60465408D01*
X101685659Y-60230000D01*
X101665063Y-59994592D01*
X101603903Y-59766337D01*
X101504035Y-59552171D01*
X101368495Y-59358599D01*
X101368494Y-59358597D01*
X101201402Y-59191506D01*
X101201396Y-59191501D01*
X101015842Y-59061575D01*
X100972217Y-59006998D01*
X100965023Y-58937500D01*
X100996546Y-58875145D01*
X101015842Y-58858425D01*
X101128054Y-58779853D01*
X101201401Y-58728495D01*
X101368495Y-58561401D01*
X101504035Y-58367830D01*
X101603903Y-58153663D01*
X101665063Y-57925408D01*
X101685659Y-57690000D01*
X101665063Y-57454592D01*
X101603903Y-57226337D01*
X101504035Y-57012171D01*
X101429590Y-56905851D01*
X101368494Y-56818597D01*
X101201402Y-56651506D01*
X101201396Y-56651501D01*
X101015842Y-56521575D01*
X100972217Y-56466998D01*
X100965023Y-56397500D01*
X100996546Y-56335145D01*
X101015842Y-56318425D01*
X101038026Y-56302891D01*
X101201401Y-56188495D01*
X101368495Y-56021401D01*
X101504035Y-55827830D01*
X101603903Y-55613663D01*
X101665063Y-55385408D01*
X101685659Y-55150000D01*
X101665063Y-54914592D01*
X101603903Y-54686337D01*
X101504035Y-54472171D01*
X101368495Y-54278599D01*
X101368494Y-54278597D01*
X101201402Y-54111506D01*
X101201396Y-54111501D01*
X101015842Y-53981575D01*
X100972217Y-53926998D01*
X100965023Y-53857500D01*
X100996546Y-53795145D01*
X101015842Y-53778425D01*
X101038026Y-53762891D01*
X101201401Y-53648495D01*
X101368495Y-53481401D01*
X101504035Y-53287830D01*
X101603903Y-53073663D01*
X101665063Y-52845408D01*
X101685659Y-52610000D01*
X101665063Y-52374592D01*
X101603903Y-52146337D01*
X101504035Y-51932171D01*
X101494620Y-51918724D01*
X101368494Y-51738597D01*
X101201402Y-51571506D01*
X101201396Y-51571501D01*
X101015842Y-51441575D01*
X100972217Y-51386998D01*
X100965023Y-51317500D01*
X100996546Y-51255145D01*
X101015842Y-51238425D01*
X101038026Y-51222891D01*
X101201401Y-51108495D01*
X101368495Y-50941401D01*
X101504035Y-50747830D01*
X101603903Y-50533663D01*
X101665063Y-50305408D01*
X101685659Y-50070000D01*
X101665063Y-49834592D01*
X101603903Y-49606337D01*
X101504035Y-49392171D01*
X101368495Y-49198599D01*
X101368494Y-49198597D01*
X101201402Y-49031506D01*
X101201396Y-49031501D01*
X101015842Y-48901575D01*
X100972217Y-48846998D01*
X100965023Y-48777500D01*
X100996546Y-48715145D01*
X101015842Y-48698425D01*
X101038026Y-48682891D01*
X101201401Y-48568495D01*
X101368495Y-48401401D01*
X101504035Y-48207830D01*
X101603903Y-47993663D01*
X101665063Y-47765408D01*
X101685659Y-47530000D01*
X101665063Y-47294592D01*
X101614275Y-47105048D01*
X101603905Y-47066344D01*
X101603904Y-47066343D01*
X101603903Y-47066337D01*
X101504035Y-46852171D01*
X101429590Y-46745851D01*
X101368494Y-46658597D01*
X101201402Y-46491506D01*
X101201396Y-46491501D01*
X101015842Y-46361575D01*
X100972217Y-46306998D01*
X100965023Y-46237500D01*
X100996546Y-46175145D01*
X101015842Y-46158425D01*
X101195474Y-46032645D01*
X101201401Y-46028495D01*
X101368495Y-45861401D01*
X101504035Y-45667830D01*
X101603903Y-45453663D01*
X101665063Y-45225408D01*
X101685659Y-44990000D01*
X101665063Y-44754592D01*
X101603903Y-44526337D01*
X101504035Y-44312171D01*
X101368495Y-44118599D01*
X101246567Y-43996671D01*
X101213084Y-43935351D01*
X101218068Y-43865659D01*
X101259939Y-43809725D01*
X101290915Y-43792810D01*
X101422331Y-43743796D01*
X101537546Y-43657546D01*
X101623796Y-43542331D01*
X101674091Y-43407483D01*
X101680500Y-43347873D01*
X101680499Y-41552128D01*
X101674091Y-41492517D01*
X101644019Y-41411891D01*
X101623797Y-41357671D01*
X101623793Y-41357664D01*
X101537547Y-41242455D01*
X101537544Y-41242452D01*
X101422335Y-41156206D01*
X101422328Y-41156202D01*
X101287482Y-41105908D01*
X101287483Y-41105908D01*
X101227883Y-41099501D01*
X101227881Y-41099500D01*
X101227873Y-41099500D01*
X101227864Y-41099500D01*
X99432129Y-41099500D01*
X99432123Y-41099501D01*
X99372516Y-41105908D01*
X99237671Y-41156202D01*
X99237664Y-41156206D01*
X99122455Y-41242452D01*
X99122452Y-41242455D01*
X99036206Y-41357664D01*
X99036202Y-41357671D01*
X98985908Y-41492517D01*
X98979501Y-41552116D01*
X98979501Y-41552123D01*
X98979500Y-41552135D01*
X98979500Y-43347870D01*
X98979501Y-43347876D01*
X98985908Y-43407483D01*
X99036202Y-43542328D01*
X99036206Y-43542335D01*
X99122452Y-43657544D01*
X99122455Y-43657547D01*
X99237664Y-43743793D01*
X99237671Y-43743797D01*
X99369081Y-43792810D01*
X99425015Y-43834681D01*
X99449432Y-43900145D01*
X99434580Y-43968418D01*
X99413430Y-43996673D01*
X99291503Y-44118600D01*
X99155965Y-44312169D01*
X99155964Y-44312171D01*
X99056098Y-44526335D01*
X99056094Y-44526344D01*
X98994938Y-44754586D01*
X98994936Y-44754596D01*
X98974341Y-44989999D01*
X98974341Y-44990000D01*
X98994936Y-45225403D01*
X98994938Y-45225413D01*
X99056094Y-45453655D01*
X99056096Y-45453659D01*
X99056097Y-45453663D01*
X99155847Y-45667578D01*
X99155965Y-45667830D01*
X99155967Y-45667834D01*
X99291501Y-45861395D01*
X99291506Y-45861402D01*
X99458597Y-46028493D01*
X99458603Y-46028498D01*
X99644158Y-46158425D01*
X99687783Y-46213002D01*
X99694977Y-46282500D01*
X99663454Y-46344855D01*
X99644158Y-46361575D01*
X99458597Y-46491505D01*
X99291505Y-46658597D01*
X99155965Y-46852169D01*
X99155964Y-46852171D01*
X99056098Y-47066335D01*
X99056094Y-47066344D01*
X98994938Y-47294586D01*
X98994936Y-47294596D01*
X98974341Y-47529999D01*
X98974341Y-47530000D01*
X98994936Y-47765403D01*
X98994938Y-47765413D01*
X99056094Y-47993655D01*
X99056096Y-47993659D01*
X99056097Y-47993663D01*
X99125820Y-48143184D01*
X99155965Y-48207830D01*
X99155967Y-48207834D01*
X99291501Y-48401395D01*
X99291506Y-48401402D01*
X99458597Y-48568493D01*
X99458603Y-48568498D01*
X99644158Y-48698425D01*
X99687783Y-48753002D01*
X99694977Y-48822500D01*
X99663454Y-48884855D01*
X99644158Y-48901575D01*
X99458597Y-49031505D01*
X99291505Y-49198597D01*
X99155965Y-49392169D01*
X99155964Y-49392171D01*
X99056098Y-49606335D01*
X99056094Y-49606344D01*
X98994938Y-49834586D01*
X98994936Y-49834596D01*
X98974341Y-50069999D01*
X98974341Y-50070000D01*
X98994936Y-50305403D01*
X98994938Y-50305413D01*
X99056094Y-50533655D01*
X99056096Y-50533659D01*
X99056097Y-50533663D01*
X99155965Y-50747830D01*
X99155967Y-50747834D01*
X99291501Y-50941395D01*
X99291506Y-50941402D01*
X99458597Y-51108493D01*
X99458603Y-51108498D01*
X99644158Y-51238425D01*
X99687783Y-51293002D01*
X99694977Y-51362500D01*
X99663454Y-51424855D01*
X99644158Y-51441575D01*
X99458597Y-51571505D01*
X99291505Y-51738597D01*
X99155965Y-51932169D01*
X99155964Y-51932171D01*
X99056098Y-52146335D01*
X99056094Y-52146344D01*
X98994938Y-52374586D01*
X98994936Y-52374596D01*
X98974341Y-52609999D01*
X98974341Y-52610000D01*
X98994936Y-52845403D01*
X98994938Y-52845413D01*
X99056094Y-53073655D01*
X99056096Y-53073659D01*
X99056097Y-53073663D01*
X99153658Y-53282883D01*
X99155965Y-53287830D01*
X99155967Y-53287834D01*
X99291501Y-53481395D01*
X99291506Y-53481402D01*
X99458597Y-53648493D01*
X99458603Y-53648498D01*
X99644158Y-53778425D01*
X99687783Y-53833002D01*
X99694977Y-53902500D01*
X99663454Y-53964855D01*
X99644158Y-53981575D01*
X99458597Y-54111505D01*
X99291505Y-54278597D01*
X99155965Y-54472169D01*
X99155964Y-54472171D01*
X99056098Y-54686335D01*
X99056094Y-54686344D01*
X98994938Y-54914586D01*
X98994936Y-54914596D01*
X98974341Y-55149999D01*
X98974341Y-55150000D01*
X98994936Y-55385403D01*
X98994938Y-55385413D01*
X99056094Y-55613655D01*
X99056096Y-55613659D01*
X99056097Y-55613663D01*
X99155965Y-55827830D01*
X99155967Y-55827834D01*
X99291501Y-56021395D01*
X99291506Y-56021402D01*
X99458597Y-56188493D01*
X99458603Y-56188498D01*
X99644158Y-56318425D01*
X99687783Y-56373002D01*
X99694977Y-56442500D01*
X99663454Y-56504855D01*
X99644158Y-56521575D01*
X99458597Y-56651505D01*
X99291505Y-56818597D01*
X99155965Y-57012169D01*
X99155964Y-57012171D01*
X99056098Y-57226335D01*
X99056094Y-57226344D01*
X98994938Y-57454586D01*
X98994936Y-57454596D01*
X98974341Y-57689999D01*
X98974341Y-57690000D01*
X98994936Y-57925403D01*
X98994938Y-57925413D01*
X99056094Y-58153655D01*
X99056096Y-58153659D01*
X99056097Y-58153663D01*
X99088063Y-58222214D01*
X99155965Y-58367830D01*
X99155967Y-58367834D01*
X99230412Y-58474151D01*
X99291501Y-58561396D01*
X99291506Y-58561402D01*
X99458597Y-58728493D01*
X99458603Y-58728498D01*
X99644158Y-58858425D01*
X99687783Y-58913002D01*
X99694977Y-58982500D01*
X99663454Y-59044855D01*
X99644158Y-59061575D01*
X99458597Y-59191505D01*
X99291505Y-59358597D01*
X99155965Y-59552169D01*
X99155964Y-59552171D01*
X99056098Y-59766335D01*
X99056094Y-59766344D01*
X98994938Y-59994586D01*
X98994936Y-59994596D01*
X98974341Y-60229999D01*
X98974341Y-60230000D01*
X81360499Y-60230000D01*
X81360499Y-59332128D01*
X81354091Y-59272517D01*
X81303796Y-59137669D01*
X81303795Y-59137668D01*
X81303793Y-59137664D01*
X81217547Y-59022455D01*
X81217544Y-59022452D01*
X81102335Y-58936206D01*
X81102328Y-58936202D01*
X80970917Y-58887189D01*
X80914983Y-58845318D01*
X80890566Y-58779853D01*
X80905418Y-58711580D01*
X80926563Y-58683332D01*
X81048495Y-58561401D01*
X81184035Y-58367830D01*
X81283903Y-58153663D01*
X81345063Y-57925408D01*
X81365659Y-57690000D01*
X88195040Y-57690000D01*
X88214826Y-57878256D01*
X88214827Y-57878259D01*
X88273318Y-58058277D01*
X88273321Y-58058284D01*
X88367967Y-58222216D01*
X88469685Y-58335185D01*
X88494629Y-58362888D01*
X88647765Y-58474148D01*
X88647770Y-58474151D01*
X88820692Y-58551142D01*
X88820697Y-58551144D01*
X89005854Y-58590500D01*
X89005855Y-58590500D01*
X89195144Y-58590500D01*
X89195146Y-58590500D01*
X89380303Y-58551144D01*
X89553230Y-58474151D01*
X89706371Y-58362888D01*
X89709288Y-58359647D01*
X89712100Y-58356526D01*
X89771587Y-58319879D01*
X89804248Y-58315500D01*
X92095752Y-58315500D01*
X92162791Y-58335185D01*
X92187900Y-58356526D01*
X92193626Y-58362885D01*
X92193630Y-58362889D01*
X92346765Y-58474148D01*
X92346770Y-58474151D01*
X92519692Y-58551142D01*
X92519697Y-58551144D01*
X92704854Y-58590500D01*
X92704855Y-58590500D01*
X92894144Y-58590500D01*
X92894146Y-58590500D01*
X93079303Y-58551144D01*
X93252230Y-58474151D01*
X93405371Y-58362888D01*
X93532033Y-58222216D01*
X93626679Y-58058284D01*
X93685174Y-57878256D01*
X93704960Y-57690000D01*
X93685174Y-57501744D01*
X93626679Y-57321716D01*
X93532033Y-57157784D01*
X93405371Y-57017112D01*
X93405370Y-57017111D01*
X93252234Y-56905851D01*
X93252229Y-56905848D01*
X93079307Y-56828857D01*
X93079302Y-56828855D01*
X92933501Y-56797865D01*
X92894146Y-56789500D01*
X92704854Y-56789500D01*
X92672397Y-56796398D01*
X92519697Y-56828855D01*
X92519692Y-56828857D01*
X92346770Y-56905848D01*
X92346765Y-56905851D01*
X92193630Y-57017110D01*
X92193626Y-57017114D01*
X92187900Y-57023474D01*
X92128413Y-57060121D01*
X92095752Y-57064500D01*
X89804248Y-57064500D01*
X89737209Y-57044815D01*
X89712100Y-57023474D01*
X89706373Y-57017114D01*
X89706369Y-57017110D01*
X89553234Y-56905851D01*
X89553229Y-56905848D01*
X89380307Y-56828857D01*
X89380302Y-56828855D01*
X89234501Y-56797865D01*
X89195146Y-56789500D01*
X89005854Y-56789500D01*
X88973397Y-56796398D01*
X88820697Y-56828855D01*
X88820692Y-56828857D01*
X88647770Y-56905848D01*
X88647765Y-56905851D01*
X88494629Y-57017111D01*
X88367966Y-57157785D01*
X88273321Y-57321715D01*
X88273318Y-57321722D01*
X88230145Y-57454596D01*
X88214826Y-57501744D01*
X88195040Y-57690000D01*
X81365659Y-57690000D01*
X81345063Y-57454592D01*
X81283903Y-57226337D01*
X81184035Y-57012171D01*
X81109590Y-56905851D01*
X81048494Y-56818597D01*
X80881402Y-56651506D01*
X80881396Y-56651501D01*
X80695842Y-56521575D01*
X80652217Y-56466998D01*
X80645023Y-56397500D01*
X80676546Y-56335145D01*
X80695842Y-56318425D01*
X80718026Y-56302891D01*
X80881401Y-56188495D01*
X81048495Y-56021401D01*
X81184035Y-55827830D01*
X81283903Y-55613663D01*
X81345063Y-55385408D01*
X81365659Y-55150000D01*
X81345063Y-54914592D01*
X81283903Y-54686337D01*
X81184035Y-54472171D01*
X81048495Y-54278599D01*
X81048494Y-54278597D01*
X80881402Y-54111506D01*
X80881396Y-54111501D01*
X80695842Y-53981575D01*
X80652217Y-53926998D01*
X80645023Y-53857500D01*
X80676546Y-53795145D01*
X80695842Y-53778425D01*
X80718026Y-53762891D01*
X80881401Y-53648495D01*
X81048495Y-53481401D01*
X81184035Y-53287830D01*
X81283903Y-53073663D01*
X81345063Y-52845408D01*
X81365659Y-52610000D01*
X81364050Y-52591612D01*
X88152147Y-52591612D01*
X88171933Y-52779868D01*
X88171934Y-52779871D01*
X88230425Y-52959889D01*
X88230428Y-52959896D01*
X88325074Y-53123828D01*
X88426792Y-53236797D01*
X88451736Y-53264500D01*
X88604872Y-53375760D01*
X88604877Y-53375763D01*
X88777799Y-53452754D01*
X88777804Y-53452756D01*
X88962961Y-53492112D01*
X88962962Y-53492112D01*
X89152251Y-53492112D01*
X89152253Y-53492112D01*
X89337410Y-53452756D01*
X89510337Y-53375763D01*
X89663478Y-53264500D01*
X89669205Y-53258140D01*
X89669207Y-53258138D01*
X89728694Y-53221491D01*
X89761355Y-53217112D01*
X92138914Y-53217112D01*
X92205953Y-53236797D01*
X92231064Y-53258140D01*
X92253342Y-53282883D01*
X92253349Y-53282889D01*
X92406484Y-53394148D01*
X92406489Y-53394151D01*
X92579411Y-53471142D01*
X92579416Y-53471144D01*
X92764573Y-53510500D01*
X92764574Y-53510500D01*
X92953863Y-53510500D01*
X92953865Y-53510500D01*
X93139022Y-53471144D01*
X93311949Y-53394151D01*
X93465090Y-53282888D01*
X93591752Y-53142216D01*
X93686398Y-52978284D01*
X93744893Y-52798256D01*
X93764679Y-52610000D01*
X93744893Y-52421744D01*
X93686398Y-52241716D01*
X93591752Y-52077784D01*
X93465090Y-51937112D01*
X93465089Y-51937111D01*
X93311953Y-51825851D01*
X93311948Y-51825848D01*
X93139026Y-51748857D01*
X93139021Y-51748855D01*
X92993220Y-51717865D01*
X92953865Y-51709500D01*
X92764573Y-51709500D01*
X92732116Y-51716398D01*
X92579416Y-51748855D01*
X92579411Y-51748857D01*
X92406489Y-51825848D01*
X92406484Y-51825851D01*
X92248090Y-51940931D01*
X92246675Y-51938984D01*
X92193514Y-51964493D01*
X92173540Y-51966112D01*
X89761355Y-51966112D01*
X89694316Y-51946427D01*
X89669207Y-51925086D01*
X89663480Y-51918726D01*
X89663476Y-51918722D01*
X89510341Y-51807463D01*
X89510336Y-51807460D01*
X89337414Y-51730469D01*
X89337409Y-51730467D01*
X89191608Y-51699477D01*
X89152253Y-51691112D01*
X88962961Y-51691112D01*
X88930504Y-51698010D01*
X88777804Y-51730467D01*
X88777799Y-51730469D01*
X88604877Y-51807460D01*
X88604872Y-51807463D01*
X88451736Y-51918723D01*
X88325073Y-52059397D01*
X88230428Y-52223327D01*
X88230425Y-52223334D01*
X88171934Y-52403352D01*
X88171933Y-52403356D01*
X88152147Y-52591612D01*
X81364050Y-52591612D01*
X81345063Y-52374592D01*
X81283903Y-52146337D01*
X81184035Y-51932171D01*
X81174620Y-51918724D01*
X81048494Y-51738597D01*
X80881402Y-51571506D01*
X80881396Y-51571501D01*
X80695842Y-51441575D01*
X80652217Y-51386998D01*
X80645023Y-51317500D01*
X80676546Y-51255145D01*
X80695842Y-51238425D01*
X80718026Y-51222891D01*
X80881401Y-51108495D01*
X81048495Y-50941401D01*
X81184035Y-50747830D01*
X81283903Y-50533663D01*
X81345063Y-50305408D01*
X81365659Y-50070000D01*
X81345063Y-49834592D01*
X81283903Y-49606337D01*
X81184035Y-49392171D01*
X81048495Y-49198599D01*
X81048494Y-49198597D01*
X80881402Y-49031506D01*
X80881401Y-49031505D01*
X80695405Y-48901269D01*
X80651781Y-48846692D01*
X80644588Y-48777193D01*
X80676110Y-48714839D01*
X80695405Y-48698119D01*
X80881082Y-48568105D01*
X81048105Y-48401082D01*
X81183600Y-48207578D01*
X81283429Y-47993492D01*
X81283432Y-47993486D01*
X81340636Y-47780000D01*
X80443686Y-47780000D01*
X80469493Y-47739844D01*
X80510000Y-47601889D01*
X80510000Y-47458111D01*
X80469493Y-47320156D01*
X80443686Y-47280000D01*
X81340636Y-47280000D01*
X81340635Y-47279999D01*
X81283432Y-47066513D01*
X81283429Y-47066507D01*
X81202889Y-46893788D01*
X87945704Y-46893788D01*
X87965490Y-47082044D01*
X87965491Y-47082047D01*
X88023982Y-47262065D01*
X88023985Y-47262072D01*
X88118631Y-47426004D01*
X88212269Y-47529999D01*
X88245293Y-47566676D01*
X88398429Y-47677936D01*
X88398434Y-47677939D01*
X88571356Y-47754930D01*
X88571361Y-47754932D01*
X88756518Y-47794288D01*
X88815712Y-47794288D01*
X88882751Y-47813973D01*
X88903393Y-47830607D01*
X88986570Y-47913784D01*
X88996395Y-47926048D01*
X88996616Y-47925866D01*
X89001586Y-47931873D01*
X89001589Y-47931876D01*
X89001590Y-47931877D01*
X89052027Y-47979241D01*
X89072906Y-48000120D01*
X89078380Y-48004366D01*
X89082818Y-48008156D01*
X89116794Y-48040062D01*
X89116798Y-48040064D01*
X89134349Y-48049713D01*
X89150607Y-48060392D01*
X89166440Y-48072674D01*
X89188391Y-48082172D01*
X89209213Y-48091183D01*
X89214457Y-48093752D01*
X89255284Y-48116197D01*
X89274688Y-48121179D01*
X89293086Y-48127478D01*
X89311481Y-48135438D01*
X89357505Y-48142726D01*
X89363208Y-48143907D01*
X89408357Y-48155500D01*
X89428392Y-48155500D01*
X89447789Y-48157026D01*
X89467572Y-48160160D01*
X89513960Y-48155775D01*
X89519798Y-48155500D01*
X94546252Y-48155500D01*
X94613291Y-48175185D01*
X94638400Y-48196526D01*
X94644126Y-48202885D01*
X94644130Y-48202889D01*
X94797265Y-48314148D01*
X94797270Y-48314151D01*
X94970192Y-48391142D01*
X94970197Y-48391144D01*
X95155354Y-48430500D01*
X95155355Y-48430500D01*
X95344644Y-48430500D01*
X95344646Y-48430500D01*
X95529803Y-48391144D01*
X95702730Y-48314151D01*
X95855871Y-48202888D01*
X95982533Y-48062216D01*
X96077179Y-47898284D01*
X96135674Y-47718256D01*
X96155460Y-47530000D01*
X96135674Y-47341744D01*
X96077179Y-47161716D01*
X95982533Y-46997784D01*
X95855871Y-46857112D01*
X95855870Y-46857111D01*
X95702734Y-46745851D01*
X95702729Y-46745848D01*
X95529807Y-46668857D01*
X95529802Y-46668855D01*
X95384001Y-46637865D01*
X95344646Y-46629500D01*
X95155354Y-46629500D01*
X95122897Y-46636398D01*
X94970197Y-46668855D01*
X94970192Y-46668857D01*
X94797270Y-46745848D01*
X94797265Y-46745851D01*
X94644130Y-46857110D01*
X94644129Y-46857112D01*
X94638400Y-46863474D01*
X94578913Y-46900121D01*
X94546252Y-46904500D01*
X89869400Y-46904500D01*
X89802361Y-46884815D01*
X89756606Y-46832011D01*
X89746079Y-46793465D01*
X89736838Y-46705532D01*
X89678343Y-46525504D01*
X89583697Y-46361572D01*
X89457035Y-46220900D01*
X89446166Y-46213003D01*
X89303898Y-46109639D01*
X89303893Y-46109636D01*
X89130971Y-46032645D01*
X89130966Y-46032643D01*
X88985165Y-46001653D01*
X88945810Y-45993288D01*
X88756518Y-45993288D01*
X88724061Y-46000186D01*
X88571361Y-46032643D01*
X88571356Y-46032645D01*
X88398434Y-46109636D01*
X88398429Y-46109639D01*
X88245293Y-46220899D01*
X88118630Y-46361573D01*
X88023985Y-46525503D01*
X88023982Y-46525510D01*
X87965491Y-46705528D01*
X87965490Y-46705532D01*
X87945704Y-46893788D01*
X81202889Y-46893788D01*
X81183600Y-46852422D01*
X81183599Y-46852420D01*
X81048113Y-46658926D01*
X81048108Y-46658920D01*
X80881082Y-46491894D01*
X80694968Y-46361575D01*
X80651344Y-46306998D01*
X80644151Y-46237499D01*
X80675673Y-46175145D01*
X80694968Y-46158425D01*
X80881082Y-46028105D01*
X81048105Y-45861082D01*
X81183600Y-45667578D01*
X81283429Y-45453492D01*
X81283432Y-45453486D01*
X81340636Y-45240000D01*
X80443686Y-45240000D01*
X80469493Y-45199844D01*
X80510000Y-45061889D01*
X80510000Y-44918111D01*
X80469493Y-44780156D01*
X80443686Y-44740000D01*
X81340636Y-44740000D01*
X81340635Y-44739999D01*
X81283432Y-44526513D01*
X81283429Y-44526507D01*
X81183600Y-44312422D01*
X81183599Y-44312420D01*
X81048113Y-44118926D01*
X81048108Y-44118920D01*
X80881082Y-43951894D01*
X80694968Y-43821575D01*
X80651344Y-43766998D01*
X80644151Y-43697499D01*
X80675673Y-43635145D01*
X80694968Y-43618425D01*
X80881082Y-43488105D01*
X81048105Y-43321082D01*
X81183600Y-43127578D01*
X81283429Y-42913492D01*
X81283432Y-42913486D01*
X81340636Y-42700000D01*
X80443686Y-42700000D01*
X80469493Y-42659844D01*
X80510000Y-42521889D01*
X80510000Y-42378111D01*
X80469493Y-42240156D01*
X80443686Y-42200000D01*
X81340636Y-42200000D01*
X81340635Y-42199999D01*
X81283432Y-41986513D01*
X81283429Y-41986507D01*
X81183600Y-41772422D01*
X81183599Y-41772420D01*
X81048113Y-41578926D01*
X81048108Y-41578920D01*
X80881082Y-41411894D01*
X80687578Y-41276399D01*
X80473492Y-41176570D01*
X80473486Y-41176567D01*
X80260000Y-41119364D01*
X80260000Y-42014498D01*
X80152315Y-41965320D01*
X80045763Y-41950000D01*
X79974237Y-41950000D01*
X79867685Y-41965320D01*
X79760000Y-42014498D01*
X79760000Y-41119364D01*
X79759999Y-41119364D01*
X79546513Y-41176567D01*
X79546507Y-41176570D01*
X79332422Y-41276399D01*
X79332420Y-41276400D01*
X79138926Y-41411886D01*
X79138920Y-41411891D01*
X78971891Y-41578920D01*
X78971886Y-41578926D01*
X78836400Y-41772420D01*
X78836399Y-41772422D01*
X78736570Y-41986507D01*
X78736567Y-41986513D01*
X78679364Y-42199999D01*
X78679364Y-42200000D01*
X79576314Y-42200000D01*
X79550507Y-42240156D01*
X79510000Y-42378111D01*
X79510000Y-42521889D01*
X79550507Y-42659844D01*
X79576314Y-42700000D01*
X78679364Y-42700000D01*
X78736567Y-42913486D01*
X78736570Y-42913492D01*
X78836399Y-43127578D01*
X78971894Y-43321082D01*
X79138917Y-43488105D01*
X79325031Y-43618425D01*
X79368656Y-43673003D01*
X79375848Y-43742501D01*
X79344326Y-43804856D01*
X79325031Y-43821575D01*
X79138922Y-43951890D01*
X79138920Y-43951891D01*
X78971891Y-44118920D01*
X78971886Y-44118926D01*
X78836400Y-44312420D01*
X78836399Y-44312422D01*
X78736570Y-44526507D01*
X78736567Y-44526513D01*
X78679364Y-44739999D01*
X78679364Y-44740000D01*
X79576314Y-44740000D01*
X79550507Y-44780156D01*
X79510000Y-44918111D01*
X79510000Y-45061889D01*
X79550507Y-45199844D01*
X79576314Y-45240000D01*
X78679364Y-45240000D01*
X78736567Y-45453486D01*
X78736570Y-45453492D01*
X78836399Y-45667578D01*
X78971894Y-45861082D01*
X79138917Y-46028105D01*
X79325031Y-46158425D01*
X79368656Y-46213003D01*
X79375848Y-46282501D01*
X79344326Y-46344856D01*
X79325031Y-46361575D01*
X79138922Y-46491890D01*
X79138920Y-46491891D01*
X78971891Y-46658920D01*
X78971886Y-46658926D01*
X78836400Y-46852420D01*
X78836399Y-46852422D01*
X78736570Y-47066507D01*
X78736567Y-47066513D01*
X78679364Y-47279999D01*
X78679364Y-47280000D01*
X79576314Y-47280000D01*
X79550507Y-47320156D01*
X79510000Y-47458111D01*
X79510000Y-47601889D01*
X79550507Y-47739844D01*
X79576314Y-47780000D01*
X78679364Y-47780000D01*
X78736567Y-47993486D01*
X78736570Y-47993492D01*
X78836399Y-48207578D01*
X78971894Y-48401082D01*
X79138917Y-48568105D01*
X79324595Y-48698119D01*
X79368219Y-48752696D01*
X79375412Y-48822195D01*
X79343890Y-48884549D01*
X79324595Y-48901269D01*
X79138594Y-49031508D01*
X78971505Y-49198597D01*
X78835965Y-49392169D01*
X78835964Y-49392171D01*
X78736098Y-49606335D01*
X78736094Y-49606344D01*
X78674938Y-49834586D01*
X78674936Y-49834596D01*
X78654341Y-50069999D01*
X78654341Y-50070000D01*
X78674936Y-50305403D01*
X78674938Y-50305413D01*
X78736094Y-50533655D01*
X78736096Y-50533659D01*
X78736097Y-50533663D01*
X78835965Y-50747830D01*
X78835967Y-50747834D01*
X78971501Y-50941395D01*
X78971506Y-50941402D01*
X79138597Y-51108493D01*
X79138603Y-51108498D01*
X79324158Y-51238425D01*
X79367783Y-51293002D01*
X79374977Y-51362500D01*
X79343454Y-51424855D01*
X79324158Y-51441575D01*
X79138597Y-51571505D01*
X78971505Y-51738597D01*
X78835965Y-51932169D01*
X78835964Y-51932171D01*
X78736098Y-52146335D01*
X78736094Y-52146344D01*
X78674938Y-52374586D01*
X78674936Y-52374596D01*
X78654341Y-52609999D01*
X78654341Y-52610000D01*
X78674936Y-52845403D01*
X78674938Y-52845413D01*
X78736094Y-53073655D01*
X78736096Y-53073659D01*
X78736097Y-53073663D01*
X78833658Y-53282883D01*
X78835965Y-53287830D01*
X78835967Y-53287834D01*
X78971501Y-53481395D01*
X78971506Y-53481402D01*
X79138597Y-53648493D01*
X79138603Y-53648498D01*
X79324158Y-53778425D01*
X79367783Y-53833002D01*
X79374977Y-53902500D01*
X79343454Y-53964855D01*
X79324158Y-53981575D01*
X79138597Y-54111505D01*
X78971505Y-54278597D01*
X78835965Y-54472169D01*
X78835964Y-54472171D01*
X78736098Y-54686335D01*
X78736094Y-54686344D01*
X78674938Y-54914586D01*
X78674936Y-54914596D01*
X78654341Y-55149999D01*
X78654341Y-55150000D01*
X78674936Y-55385403D01*
X78674938Y-55385413D01*
X78736094Y-55613655D01*
X78736096Y-55613659D01*
X78736097Y-55613663D01*
X78835965Y-55827830D01*
X78835967Y-55827834D01*
X78971501Y-56021395D01*
X78971506Y-56021402D01*
X79138597Y-56188493D01*
X79138603Y-56188498D01*
X79324158Y-56318425D01*
X79367783Y-56373002D01*
X79374977Y-56442500D01*
X79343454Y-56504855D01*
X79324158Y-56521575D01*
X79138597Y-56651505D01*
X78971505Y-56818597D01*
X78835965Y-57012169D01*
X78835964Y-57012171D01*
X78736098Y-57226335D01*
X78736094Y-57226344D01*
X78674938Y-57454586D01*
X78674936Y-57454596D01*
X78654341Y-57689999D01*
X78654341Y-57690000D01*
X77470000Y-57690000D01*
X77470000Y-40034000D01*
X77489685Y-39966961D01*
X77542489Y-39921206D01*
X77594000Y-39910000D01*
X102746000Y-39910000D01*
X102813039Y-39929685D01*
G37*
%TD.AperFunction*%
%TD*%
M02*
