%TF.GenerationSoftware,KiCad,Pcbnew,7.0.8-7.0.8~ubuntu22.04.1*%
%TF.CreationDate,2023-10-18T14:35:01-07:00*%
%TF.ProjectId,SolenoidDriver,536f6c65-6e6f-4696-9444-72697665722e,rev?*%
%TF.SameCoordinates,Original*%
%TF.FileFunction,Legend,Top*%
%TF.FilePolarity,Positive*%
%FSLAX46Y46*%
G04 Gerber Fmt 4.6, Leading zero omitted, Abs format (unit mm)*
G04 Created by KiCad (PCBNEW 7.0.8-7.0.8~ubuntu22.04.1) date 2023-10-18 14:35:01*
%MOMM*%
%LPD*%
G01*
G04 APERTURE LIST*
%ADD10C,0.150000*%
%ADD11C,0.120000*%
G04 APERTURE END LIST*
D10*
X102484700Y-61984744D02*
X102484700Y-61413316D01*
X102770414Y-61699030D02*
X102198985Y-61699030D01*
X102770414Y-60663316D02*
X102770414Y-61091887D01*
X102770414Y-60877602D02*
X102020414Y-60877602D01*
X102020414Y-60877602D02*
X102127557Y-60949030D01*
X102127557Y-60949030D02*
X102198985Y-61020459D01*
X102198985Y-61020459D02*
X102234700Y-61091887D01*
X102091842Y-60377601D02*
X102056128Y-60341887D01*
X102056128Y-60341887D02*
X102020414Y-60270459D01*
X102020414Y-60270459D02*
X102020414Y-60091887D01*
X102020414Y-60091887D02*
X102056128Y-60020459D01*
X102056128Y-60020459D02*
X102091842Y-59984744D01*
X102091842Y-59984744D02*
X102163271Y-59949030D01*
X102163271Y-59949030D02*
X102234700Y-59949030D01*
X102234700Y-59949030D02*
X102341842Y-59984744D01*
X102341842Y-59984744D02*
X102770414Y-60413316D01*
X102770414Y-60413316D02*
X102770414Y-59949030D01*
X102020414Y-59734744D02*
X102770414Y-59484744D01*
X102770414Y-59484744D02*
X102020414Y-59234744D01*
X102668200Y-58464458D02*
X102703914Y-58357316D01*
X102703914Y-58357316D02*
X102703914Y-58178744D01*
X102703914Y-58178744D02*
X102668200Y-58107316D01*
X102668200Y-58107316D02*
X102632485Y-58071601D01*
X102632485Y-58071601D02*
X102561057Y-58035887D01*
X102561057Y-58035887D02*
X102489628Y-58035887D01*
X102489628Y-58035887D02*
X102418200Y-58071601D01*
X102418200Y-58071601D02*
X102382485Y-58107316D01*
X102382485Y-58107316D02*
X102346771Y-58178744D01*
X102346771Y-58178744D02*
X102311057Y-58321601D01*
X102311057Y-58321601D02*
X102275342Y-58393030D01*
X102275342Y-58393030D02*
X102239628Y-58428744D01*
X102239628Y-58428744D02*
X102168200Y-58464458D01*
X102168200Y-58464458D02*
X102096771Y-58464458D01*
X102096771Y-58464458D02*
X102025342Y-58428744D01*
X102025342Y-58428744D02*
X101989628Y-58393030D01*
X101989628Y-58393030D02*
X101953914Y-58321601D01*
X101953914Y-58321601D02*
X101953914Y-58143030D01*
X101953914Y-58143030D02*
X101989628Y-58035887D01*
X101953914Y-57571601D02*
X101953914Y-57500172D01*
X101953914Y-57500172D02*
X101989628Y-57428744D01*
X101989628Y-57428744D02*
X102025342Y-57393030D01*
X102025342Y-57393030D02*
X102096771Y-57357315D01*
X102096771Y-57357315D02*
X102239628Y-57321601D01*
X102239628Y-57321601D02*
X102418200Y-57321601D01*
X102418200Y-57321601D02*
X102561057Y-57357315D01*
X102561057Y-57357315D02*
X102632485Y-57393030D01*
X102632485Y-57393030D02*
X102668200Y-57428744D01*
X102668200Y-57428744D02*
X102703914Y-57500172D01*
X102703914Y-57500172D02*
X102703914Y-57571601D01*
X102703914Y-57571601D02*
X102668200Y-57643030D01*
X102668200Y-57643030D02*
X102632485Y-57678744D01*
X102632485Y-57678744D02*
X102561057Y-57714458D01*
X102561057Y-57714458D02*
X102418200Y-57750172D01*
X102418200Y-57750172D02*
X102239628Y-57750172D01*
X102239628Y-57750172D02*
X102096771Y-57714458D01*
X102096771Y-57714458D02*
X102025342Y-57678744D01*
X102025342Y-57678744D02*
X101989628Y-57643030D01*
X101989628Y-57643030D02*
X101953914Y-57571601D01*
X102703914Y-56607315D02*
X102703914Y-57035886D01*
X102703914Y-56821601D02*
X101953914Y-56821601D01*
X101953914Y-56821601D02*
X102061057Y-56893029D01*
X102061057Y-56893029D02*
X102132485Y-56964458D01*
X102132485Y-56964458D02*
X102168200Y-57035886D01*
X102605700Y-53384458D02*
X102641414Y-53277316D01*
X102641414Y-53277316D02*
X102641414Y-53098744D01*
X102641414Y-53098744D02*
X102605700Y-53027316D01*
X102605700Y-53027316D02*
X102569985Y-52991601D01*
X102569985Y-52991601D02*
X102498557Y-52955887D01*
X102498557Y-52955887D02*
X102427128Y-52955887D01*
X102427128Y-52955887D02*
X102355700Y-52991601D01*
X102355700Y-52991601D02*
X102319985Y-53027316D01*
X102319985Y-53027316D02*
X102284271Y-53098744D01*
X102284271Y-53098744D02*
X102248557Y-53241601D01*
X102248557Y-53241601D02*
X102212842Y-53313030D01*
X102212842Y-53313030D02*
X102177128Y-53348744D01*
X102177128Y-53348744D02*
X102105700Y-53384458D01*
X102105700Y-53384458D02*
X102034271Y-53384458D01*
X102034271Y-53384458D02*
X101962842Y-53348744D01*
X101962842Y-53348744D02*
X101927128Y-53313030D01*
X101927128Y-53313030D02*
X101891414Y-53241601D01*
X101891414Y-53241601D02*
X101891414Y-53063030D01*
X101891414Y-53063030D02*
X101927128Y-52955887D01*
X101891414Y-52491601D02*
X101891414Y-52420172D01*
X101891414Y-52420172D02*
X101927128Y-52348744D01*
X101927128Y-52348744D02*
X101962842Y-52313030D01*
X101962842Y-52313030D02*
X102034271Y-52277315D01*
X102034271Y-52277315D02*
X102177128Y-52241601D01*
X102177128Y-52241601D02*
X102355700Y-52241601D01*
X102355700Y-52241601D02*
X102498557Y-52277315D01*
X102498557Y-52277315D02*
X102569985Y-52313030D01*
X102569985Y-52313030D02*
X102605700Y-52348744D01*
X102605700Y-52348744D02*
X102641414Y-52420172D01*
X102641414Y-52420172D02*
X102641414Y-52491601D01*
X102641414Y-52491601D02*
X102605700Y-52563030D01*
X102605700Y-52563030D02*
X102569985Y-52598744D01*
X102569985Y-52598744D02*
X102498557Y-52634458D01*
X102498557Y-52634458D02*
X102355700Y-52670172D01*
X102355700Y-52670172D02*
X102177128Y-52670172D01*
X102177128Y-52670172D02*
X102034271Y-52634458D01*
X102034271Y-52634458D02*
X101962842Y-52598744D01*
X101962842Y-52598744D02*
X101927128Y-52563030D01*
X101927128Y-52563030D02*
X101891414Y-52491601D01*
X101962842Y-51955886D02*
X101927128Y-51920172D01*
X101927128Y-51920172D02*
X101891414Y-51848744D01*
X101891414Y-51848744D02*
X101891414Y-51670172D01*
X101891414Y-51670172D02*
X101927128Y-51598744D01*
X101927128Y-51598744D02*
X101962842Y-51563029D01*
X101962842Y-51563029D02*
X102034271Y-51527315D01*
X102034271Y-51527315D02*
X102105700Y-51527315D01*
X102105700Y-51527315D02*
X102212842Y-51563029D01*
X102212842Y-51563029D02*
X102641414Y-51991601D01*
X102641414Y-51991601D02*
X102641414Y-51527315D01*
X102543200Y-48304458D02*
X102578914Y-48197316D01*
X102578914Y-48197316D02*
X102578914Y-48018744D01*
X102578914Y-48018744D02*
X102543200Y-47947316D01*
X102543200Y-47947316D02*
X102507485Y-47911601D01*
X102507485Y-47911601D02*
X102436057Y-47875887D01*
X102436057Y-47875887D02*
X102364628Y-47875887D01*
X102364628Y-47875887D02*
X102293200Y-47911601D01*
X102293200Y-47911601D02*
X102257485Y-47947316D01*
X102257485Y-47947316D02*
X102221771Y-48018744D01*
X102221771Y-48018744D02*
X102186057Y-48161601D01*
X102186057Y-48161601D02*
X102150342Y-48233030D01*
X102150342Y-48233030D02*
X102114628Y-48268744D01*
X102114628Y-48268744D02*
X102043200Y-48304458D01*
X102043200Y-48304458D02*
X101971771Y-48304458D01*
X101971771Y-48304458D02*
X101900342Y-48268744D01*
X101900342Y-48268744D02*
X101864628Y-48233030D01*
X101864628Y-48233030D02*
X101828914Y-48161601D01*
X101828914Y-48161601D02*
X101828914Y-47983030D01*
X101828914Y-47983030D02*
X101864628Y-47875887D01*
X101828914Y-47411601D02*
X101828914Y-47340172D01*
X101828914Y-47340172D02*
X101864628Y-47268744D01*
X101864628Y-47268744D02*
X101900342Y-47233030D01*
X101900342Y-47233030D02*
X101971771Y-47197315D01*
X101971771Y-47197315D02*
X102114628Y-47161601D01*
X102114628Y-47161601D02*
X102293200Y-47161601D01*
X102293200Y-47161601D02*
X102436057Y-47197315D01*
X102436057Y-47197315D02*
X102507485Y-47233030D01*
X102507485Y-47233030D02*
X102543200Y-47268744D01*
X102543200Y-47268744D02*
X102578914Y-47340172D01*
X102578914Y-47340172D02*
X102578914Y-47411601D01*
X102578914Y-47411601D02*
X102543200Y-47483030D01*
X102543200Y-47483030D02*
X102507485Y-47518744D01*
X102507485Y-47518744D02*
X102436057Y-47554458D01*
X102436057Y-47554458D02*
X102293200Y-47590172D01*
X102293200Y-47590172D02*
X102114628Y-47590172D01*
X102114628Y-47590172D02*
X101971771Y-47554458D01*
X101971771Y-47554458D02*
X101900342Y-47518744D01*
X101900342Y-47518744D02*
X101864628Y-47483030D01*
X101864628Y-47483030D02*
X101828914Y-47411601D01*
X101828914Y-46911601D02*
X101828914Y-46447315D01*
X101828914Y-46447315D02*
X102114628Y-46697315D01*
X102114628Y-46697315D02*
X102114628Y-46590172D01*
X102114628Y-46590172D02*
X102150342Y-46518744D01*
X102150342Y-46518744D02*
X102186057Y-46483029D01*
X102186057Y-46483029D02*
X102257485Y-46447315D01*
X102257485Y-46447315D02*
X102436057Y-46447315D01*
X102436057Y-46447315D02*
X102507485Y-46483029D01*
X102507485Y-46483029D02*
X102543200Y-46518744D01*
X102543200Y-46518744D02*
X102578914Y-46590172D01*
X102578914Y-46590172D02*
X102578914Y-46804458D01*
X102578914Y-46804458D02*
X102543200Y-46875886D01*
X102543200Y-46875886D02*
X102507485Y-46911601D01*
X102734700Y-43224458D02*
X102770414Y-43117316D01*
X102770414Y-43117316D02*
X102770414Y-42938744D01*
X102770414Y-42938744D02*
X102734700Y-42867316D01*
X102734700Y-42867316D02*
X102698985Y-42831601D01*
X102698985Y-42831601D02*
X102627557Y-42795887D01*
X102627557Y-42795887D02*
X102556128Y-42795887D01*
X102556128Y-42795887D02*
X102484700Y-42831601D01*
X102484700Y-42831601D02*
X102448985Y-42867316D01*
X102448985Y-42867316D02*
X102413271Y-42938744D01*
X102413271Y-42938744D02*
X102377557Y-43081601D01*
X102377557Y-43081601D02*
X102341842Y-43153030D01*
X102341842Y-43153030D02*
X102306128Y-43188744D01*
X102306128Y-43188744D02*
X102234700Y-43224458D01*
X102234700Y-43224458D02*
X102163271Y-43224458D01*
X102163271Y-43224458D02*
X102091842Y-43188744D01*
X102091842Y-43188744D02*
X102056128Y-43153030D01*
X102056128Y-43153030D02*
X102020414Y-43081601D01*
X102020414Y-43081601D02*
X102020414Y-42903030D01*
X102020414Y-42903030D02*
X102056128Y-42795887D01*
X102020414Y-42331601D02*
X102020414Y-42260172D01*
X102020414Y-42260172D02*
X102056128Y-42188744D01*
X102056128Y-42188744D02*
X102091842Y-42153030D01*
X102091842Y-42153030D02*
X102163271Y-42117315D01*
X102163271Y-42117315D02*
X102306128Y-42081601D01*
X102306128Y-42081601D02*
X102484700Y-42081601D01*
X102484700Y-42081601D02*
X102627557Y-42117315D01*
X102627557Y-42117315D02*
X102698985Y-42153030D01*
X102698985Y-42153030D02*
X102734700Y-42188744D01*
X102734700Y-42188744D02*
X102770414Y-42260172D01*
X102770414Y-42260172D02*
X102770414Y-42331601D01*
X102770414Y-42331601D02*
X102734700Y-42403030D01*
X102734700Y-42403030D02*
X102698985Y-42438744D01*
X102698985Y-42438744D02*
X102627557Y-42474458D01*
X102627557Y-42474458D02*
X102484700Y-42510172D01*
X102484700Y-42510172D02*
X102306128Y-42510172D01*
X102306128Y-42510172D02*
X102163271Y-42474458D01*
X102163271Y-42474458D02*
X102091842Y-42438744D01*
X102091842Y-42438744D02*
X102056128Y-42403030D01*
X102056128Y-42403030D02*
X102020414Y-42331601D01*
X102270414Y-41438744D02*
X102770414Y-41438744D01*
X101984700Y-41617315D02*
X102520414Y-41795886D01*
X102520414Y-41795886D02*
X102520414Y-41331601D01*
X77855300Y-59491255D02*
X77855300Y-60062684D01*
X77569585Y-59776969D02*
X78141014Y-59776969D01*
X77569585Y-60812683D02*
X77569585Y-60384112D01*
X77569585Y-60598397D02*
X78319585Y-60598397D01*
X78319585Y-60598397D02*
X78212442Y-60526969D01*
X78212442Y-60526969D02*
X78141014Y-60455540D01*
X78141014Y-60455540D02*
X78105300Y-60384112D01*
X78248157Y-61098398D02*
X78283871Y-61134112D01*
X78283871Y-61134112D02*
X78319585Y-61205541D01*
X78319585Y-61205541D02*
X78319585Y-61384112D01*
X78319585Y-61384112D02*
X78283871Y-61455541D01*
X78283871Y-61455541D02*
X78248157Y-61491255D01*
X78248157Y-61491255D02*
X78176728Y-61526969D01*
X78176728Y-61526969D02*
X78105300Y-61526969D01*
X78105300Y-61526969D02*
X77998157Y-61491255D01*
X77998157Y-61491255D02*
X77569585Y-61062683D01*
X77569585Y-61062683D02*
X77569585Y-61526969D01*
X78319585Y-61741255D02*
X77569585Y-61991255D01*
X77569585Y-61991255D02*
X78319585Y-62241255D01*
X77605300Y-56915541D02*
X77569585Y-57022684D01*
X77569585Y-57022684D02*
X77569585Y-57201255D01*
X77569585Y-57201255D02*
X77605300Y-57272684D01*
X77605300Y-57272684D02*
X77641014Y-57308398D01*
X77641014Y-57308398D02*
X77712442Y-57344112D01*
X77712442Y-57344112D02*
X77783871Y-57344112D01*
X77783871Y-57344112D02*
X77855300Y-57308398D01*
X77855300Y-57308398D02*
X77891014Y-57272684D01*
X77891014Y-57272684D02*
X77926728Y-57201255D01*
X77926728Y-57201255D02*
X77962442Y-57058398D01*
X77962442Y-57058398D02*
X77998157Y-56986969D01*
X77998157Y-56986969D02*
X78033871Y-56951255D01*
X78033871Y-56951255D02*
X78105300Y-56915541D01*
X78105300Y-56915541D02*
X78176728Y-56915541D01*
X78176728Y-56915541D02*
X78248157Y-56951255D01*
X78248157Y-56951255D02*
X78283871Y-56986969D01*
X78283871Y-56986969D02*
X78319585Y-57058398D01*
X78319585Y-57058398D02*
X78319585Y-57236969D01*
X78319585Y-57236969D02*
X78283871Y-57344112D01*
X77569585Y-58058398D02*
X77569585Y-57629827D01*
X77569585Y-57844112D02*
X78319585Y-57844112D01*
X78319585Y-57844112D02*
X78212442Y-57772684D01*
X78212442Y-57772684D02*
X78141014Y-57701255D01*
X78141014Y-57701255D02*
X78105300Y-57629827D01*
X77605300Y-54375541D02*
X77569585Y-54482684D01*
X77569585Y-54482684D02*
X77569585Y-54661255D01*
X77569585Y-54661255D02*
X77605300Y-54732684D01*
X77605300Y-54732684D02*
X77641014Y-54768398D01*
X77641014Y-54768398D02*
X77712442Y-54804112D01*
X77712442Y-54804112D02*
X77783871Y-54804112D01*
X77783871Y-54804112D02*
X77855300Y-54768398D01*
X77855300Y-54768398D02*
X77891014Y-54732684D01*
X77891014Y-54732684D02*
X77926728Y-54661255D01*
X77926728Y-54661255D02*
X77962442Y-54518398D01*
X77962442Y-54518398D02*
X77998157Y-54446969D01*
X77998157Y-54446969D02*
X78033871Y-54411255D01*
X78033871Y-54411255D02*
X78105300Y-54375541D01*
X78105300Y-54375541D02*
X78176728Y-54375541D01*
X78176728Y-54375541D02*
X78248157Y-54411255D01*
X78248157Y-54411255D02*
X78283871Y-54446969D01*
X78283871Y-54446969D02*
X78319585Y-54518398D01*
X78319585Y-54518398D02*
X78319585Y-54696969D01*
X78319585Y-54696969D02*
X78283871Y-54804112D01*
X78248157Y-55089827D02*
X78283871Y-55125541D01*
X78283871Y-55125541D02*
X78319585Y-55196970D01*
X78319585Y-55196970D02*
X78319585Y-55375541D01*
X78319585Y-55375541D02*
X78283871Y-55446970D01*
X78283871Y-55446970D02*
X78248157Y-55482684D01*
X78248157Y-55482684D02*
X78176728Y-55518398D01*
X78176728Y-55518398D02*
X78105300Y-55518398D01*
X78105300Y-55518398D02*
X77998157Y-55482684D01*
X77998157Y-55482684D02*
X77569585Y-55054112D01*
X77569585Y-55054112D02*
X77569585Y-55518398D01*
X77605300Y-51835541D02*
X77569585Y-51942684D01*
X77569585Y-51942684D02*
X77569585Y-52121255D01*
X77569585Y-52121255D02*
X77605300Y-52192684D01*
X77605300Y-52192684D02*
X77641014Y-52228398D01*
X77641014Y-52228398D02*
X77712442Y-52264112D01*
X77712442Y-52264112D02*
X77783871Y-52264112D01*
X77783871Y-52264112D02*
X77855300Y-52228398D01*
X77855300Y-52228398D02*
X77891014Y-52192684D01*
X77891014Y-52192684D02*
X77926728Y-52121255D01*
X77926728Y-52121255D02*
X77962442Y-51978398D01*
X77962442Y-51978398D02*
X77998157Y-51906969D01*
X77998157Y-51906969D02*
X78033871Y-51871255D01*
X78033871Y-51871255D02*
X78105300Y-51835541D01*
X78105300Y-51835541D02*
X78176728Y-51835541D01*
X78176728Y-51835541D02*
X78248157Y-51871255D01*
X78248157Y-51871255D02*
X78283871Y-51906969D01*
X78283871Y-51906969D02*
X78319585Y-51978398D01*
X78319585Y-51978398D02*
X78319585Y-52156969D01*
X78319585Y-52156969D02*
X78283871Y-52264112D01*
X78319585Y-52514112D02*
X78319585Y-52978398D01*
X78319585Y-52978398D02*
X78033871Y-52728398D01*
X78033871Y-52728398D02*
X78033871Y-52835541D01*
X78033871Y-52835541D02*
X77998157Y-52906970D01*
X77998157Y-52906970D02*
X77962442Y-52942684D01*
X77962442Y-52942684D02*
X77891014Y-52978398D01*
X77891014Y-52978398D02*
X77712442Y-52978398D01*
X77712442Y-52978398D02*
X77641014Y-52942684D01*
X77641014Y-52942684D02*
X77605300Y-52906970D01*
X77605300Y-52906970D02*
X77569585Y-52835541D01*
X77569585Y-52835541D02*
X77569585Y-52621255D01*
X77569585Y-52621255D02*
X77605300Y-52549827D01*
X77605300Y-52549827D02*
X77641014Y-52514112D01*
X77605300Y-49295541D02*
X77569585Y-49402684D01*
X77569585Y-49402684D02*
X77569585Y-49581255D01*
X77569585Y-49581255D02*
X77605300Y-49652684D01*
X77605300Y-49652684D02*
X77641014Y-49688398D01*
X77641014Y-49688398D02*
X77712442Y-49724112D01*
X77712442Y-49724112D02*
X77783871Y-49724112D01*
X77783871Y-49724112D02*
X77855300Y-49688398D01*
X77855300Y-49688398D02*
X77891014Y-49652684D01*
X77891014Y-49652684D02*
X77926728Y-49581255D01*
X77926728Y-49581255D02*
X77962442Y-49438398D01*
X77962442Y-49438398D02*
X77998157Y-49366969D01*
X77998157Y-49366969D02*
X78033871Y-49331255D01*
X78033871Y-49331255D02*
X78105300Y-49295541D01*
X78105300Y-49295541D02*
X78176728Y-49295541D01*
X78176728Y-49295541D02*
X78248157Y-49331255D01*
X78248157Y-49331255D02*
X78283871Y-49366969D01*
X78283871Y-49366969D02*
X78319585Y-49438398D01*
X78319585Y-49438398D02*
X78319585Y-49616969D01*
X78319585Y-49616969D02*
X78283871Y-49724112D01*
X78069585Y-50366970D02*
X77569585Y-50366970D01*
X78355300Y-50188398D02*
X77819585Y-50009827D01*
X77819585Y-50009827D02*
X77819585Y-50474112D01*
X78283871Y-46676112D02*
X78319585Y-46604684D01*
X78319585Y-46604684D02*
X78319585Y-46497541D01*
X78319585Y-46497541D02*
X78283871Y-46390398D01*
X78283871Y-46390398D02*
X78212442Y-46318969D01*
X78212442Y-46318969D02*
X78141014Y-46283255D01*
X78141014Y-46283255D02*
X77998157Y-46247541D01*
X77998157Y-46247541D02*
X77891014Y-46247541D01*
X77891014Y-46247541D02*
X77748157Y-46283255D01*
X77748157Y-46283255D02*
X77676728Y-46318969D01*
X77676728Y-46318969D02*
X77605300Y-46390398D01*
X77605300Y-46390398D02*
X77569585Y-46497541D01*
X77569585Y-46497541D02*
X77569585Y-46568969D01*
X77569585Y-46568969D02*
X77605300Y-46676112D01*
X77605300Y-46676112D02*
X77641014Y-46711826D01*
X77641014Y-46711826D02*
X77891014Y-46711826D01*
X77891014Y-46711826D02*
X77891014Y-46568969D01*
X77569585Y-47033255D02*
X78319585Y-47033255D01*
X78319585Y-47033255D02*
X77569585Y-47461826D01*
X77569585Y-47461826D02*
X78319585Y-47461826D01*
X77569585Y-47818969D02*
X78319585Y-47818969D01*
X78319585Y-47818969D02*
X78319585Y-47997540D01*
X78319585Y-47997540D02*
X78283871Y-48104683D01*
X78283871Y-48104683D02*
X78212442Y-48176112D01*
X78212442Y-48176112D02*
X78141014Y-48211826D01*
X78141014Y-48211826D02*
X77998157Y-48247540D01*
X77998157Y-48247540D02*
X77891014Y-48247540D01*
X77891014Y-48247540D02*
X77748157Y-48211826D01*
X77748157Y-48211826D02*
X77676728Y-48176112D01*
X77676728Y-48176112D02*
X77605300Y-48104683D01*
X77605300Y-48104683D02*
X77569585Y-47997540D01*
X77569585Y-47997540D02*
X77569585Y-47818969D01*
X78283871Y-44136112D02*
X78319585Y-44064684D01*
X78319585Y-44064684D02*
X78319585Y-43957541D01*
X78319585Y-43957541D02*
X78283871Y-43850398D01*
X78283871Y-43850398D02*
X78212442Y-43778969D01*
X78212442Y-43778969D02*
X78141014Y-43743255D01*
X78141014Y-43743255D02*
X77998157Y-43707541D01*
X77998157Y-43707541D02*
X77891014Y-43707541D01*
X77891014Y-43707541D02*
X77748157Y-43743255D01*
X77748157Y-43743255D02*
X77676728Y-43778969D01*
X77676728Y-43778969D02*
X77605300Y-43850398D01*
X77605300Y-43850398D02*
X77569585Y-43957541D01*
X77569585Y-43957541D02*
X77569585Y-44028969D01*
X77569585Y-44028969D02*
X77605300Y-44136112D01*
X77605300Y-44136112D02*
X77641014Y-44171826D01*
X77641014Y-44171826D02*
X77891014Y-44171826D01*
X77891014Y-44171826D02*
X77891014Y-44028969D01*
X77569585Y-44493255D02*
X78319585Y-44493255D01*
X78319585Y-44493255D02*
X77569585Y-44921826D01*
X77569585Y-44921826D02*
X78319585Y-44921826D01*
X77569585Y-45278969D02*
X78319585Y-45278969D01*
X78319585Y-45278969D02*
X78319585Y-45457540D01*
X78319585Y-45457540D02*
X78283871Y-45564683D01*
X78283871Y-45564683D02*
X78212442Y-45636112D01*
X78212442Y-45636112D02*
X78141014Y-45671826D01*
X78141014Y-45671826D02*
X77998157Y-45707540D01*
X77998157Y-45707540D02*
X77891014Y-45707540D01*
X77891014Y-45707540D02*
X77748157Y-45671826D01*
X77748157Y-45671826D02*
X77676728Y-45636112D01*
X77676728Y-45636112D02*
X77605300Y-45564683D01*
X77605300Y-45564683D02*
X77569585Y-45457540D01*
X77569585Y-45457540D02*
X77569585Y-45278969D01*
X78283871Y-41596112D02*
X78319585Y-41524684D01*
X78319585Y-41524684D02*
X78319585Y-41417541D01*
X78319585Y-41417541D02*
X78283871Y-41310398D01*
X78283871Y-41310398D02*
X78212442Y-41238969D01*
X78212442Y-41238969D02*
X78141014Y-41203255D01*
X78141014Y-41203255D02*
X77998157Y-41167541D01*
X77998157Y-41167541D02*
X77891014Y-41167541D01*
X77891014Y-41167541D02*
X77748157Y-41203255D01*
X77748157Y-41203255D02*
X77676728Y-41238969D01*
X77676728Y-41238969D02*
X77605300Y-41310398D01*
X77605300Y-41310398D02*
X77569585Y-41417541D01*
X77569585Y-41417541D02*
X77569585Y-41488969D01*
X77569585Y-41488969D02*
X77605300Y-41596112D01*
X77605300Y-41596112D02*
X77641014Y-41631826D01*
X77641014Y-41631826D02*
X77891014Y-41631826D01*
X77891014Y-41631826D02*
X77891014Y-41488969D01*
X77569585Y-41953255D02*
X78319585Y-41953255D01*
X78319585Y-41953255D02*
X77569585Y-42381826D01*
X77569585Y-42381826D02*
X78319585Y-42381826D01*
X77569585Y-42738969D02*
X78319585Y-42738969D01*
X78319585Y-42738969D02*
X78319585Y-42917540D01*
X78319585Y-42917540D02*
X78283871Y-43024683D01*
X78283871Y-43024683D02*
X78212442Y-43096112D01*
X78212442Y-43096112D02*
X78141014Y-43131826D01*
X78141014Y-43131826D02*
X77998157Y-43167540D01*
X77998157Y-43167540D02*
X77891014Y-43167540D01*
X77891014Y-43167540D02*
X77748157Y-43131826D01*
X77748157Y-43131826D02*
X77676728Y-43096112D01*
X77676728Y-43096112D02*
X77605300Y-43024683D01*
X77605300Y-43024683D02*
X77569585Y-42917540D01*
X77569585Y-42917540D02*
X77569585Y-42738969D01*
X99996666Y-39574819D02*
X99996666Y-40289104D01*
X99996666Y-40289104D02*
X99949047Y-40431961D01*
X99949047Y-40431961D02*
X99853809Y-40527200D01*
X99853809Y-40527200D02*
X99710952Y-40574819D01*
X99710952Y-40574819D02*
X99615714Y-40574819D01*
X100425238Y-39670057D02*
X100472857Y-39622438D01*
X100472857Y-39622438D02*
X100568095Y-39574819D01*
X100568095Y-39574819D02*
X100806190Y-39574819D01*
X100806190Y-39574819D02*
X100901428Y-39622438D01*
X100901428Y-39622438D02*
X100949047Y-39670057D01*
X100949047Y-39670057D02*
X100996666Y-39765295D01*
X100996666Y-39765295D02*
X100996666Y-39860533D01*
X100996666Y-39860533D02*
X100949047Y-40003390D01*
X100949047Y-40003390D02*
X100377619Y-40574819D01*
X100377619Y-40574819D02*
X100996666Y-40574819D01*
X79676666Y-62014819D02*
X79676666Y-62729104D01*
X79676666Y-62729104D02*
X79629047Y-62871961D01*
X79629047Y-62871961D02*
X79533809Y-62967200D01*
X79533809Y-62967200D02*
X79390952Y-63014819D01*
X79390952Y-63014819D02*
X79295714Y-63014819D01*
X80676666Y-63014819D02*
X80105238Y-63014819D01*
X80390952Y-63014819D02*
X80390952Y-62014819D01*
X80390952Y-62014819D02*
X80295714Y-62157676D01*
X80295714Y-62157676D02*
X80200476Y-62252914D01*
X80200476Y-62252914D02*
X80105238Y-62300533D01*
X83606819Y-58872666D02*
X83130628Y-59205999D01*
X83606819Y-59444094D02*
X82606819Y-59444094D01*
X82606819Y-59444094D02*
X82606819Y-59063142D01*
X82606819Y-59063142D02*
X82654438Y-58967904D01*
X82654438Y-58967904D02*
X82702057Y-58920285D01*
X82702057Y-58920285D02*
X82797295Y-58872666D01*
X82797295Y-58872666D02*
X82940152Y-58872666D01*
X82940152Y-58872666D02*
X83035390Y-58920285D01*
X83035390Y-58920285D02*
X83083009Y-58967904D01*
X83083009Y-58967904D02*
X83130628Y-59063142D01*
X83130628Y-59063142D02*
X83130628Y-59444094D01*
X83606819Y-57920285D02*
X83606819Y-58491713D01*
X83606819Y-58205999D02*
X82606819Y-58205999D01*
X82606819Y-58205999D02*
X82749676Y-58301237D01*
X82749676Y-58301237D02*
X82844914Y-58396475D01*
X82844914Y-58396475D02*
X82892533Y-58491713D01*
X87214761Y-57560057D02*
X87119523Y-57512438D01*
X87119523Y-57512438D02*
X87024285Y-57417200D01*
X87024285Y-57417200D02*
X86881428Y-57274342D01*
X86881428Y-57274342D02*
X86786190Y-57226723D01*
X86786190Y-57226723D02*
X86690952Y-57226723D01*
X86738571Y-57464819D02*
X86643333Y-57417200D01*
X86643333Y-57417200D02*
X86548095Y-57321961D01*
X86548095Y-57321961D02*
X86500476Y-57131485D01*
X86500476Y-57131485D02*
X86500476Y-56798152D01*
X86500476Y-56798152D02*
X86548095Y-56607676D01*
X86548095Y-56607676D02*
X86643333Y-56512438D01*
X86643333Y-56512438D02*
X86738571Y-56464819D01*
X86738571Y-56464819D02*
X86929047Y-56464819D01*
X86929047Y-56464819D02*
X87024285Y-56512438D01*
X87024285Y-56512438D02*
X87119523Y-56607676D01*
X87119523Y-56607676D02*
X87167142Y-56798152D01*
X87167142Y-56798152D02*
X87167142Y-57131485D01*
X87167142Y-57131485D02*
X87119523Y-57321961D01*
X87119523Y-57321961D02*
X87024285Y-57417200D01*
X87024285Y-57417200D02*
X86929047Y-57464819D01*
X86929047Y-57464819D02*
X86738571Y-57464819D01*
X88119523Y-57464819D02*
X87548095Y-57464819D01*
X87833809Y-57464819D02*
X87833809Y-56464819D01*
X87833809Y-56464819D02*
X87738571Y-56607676D01*
X87738571Y-56607676D02*
X87643333Y-56702914D01*
X87643333Y-56702914D02*
X87548095Y-56750533D01*
X97692620Y-54839070D02*
X96692620Y-54839070D01*
X96692620Y-54839070D02*
X96692620Y-54600975D01*
X96692620Y-54600975D02*
X96740239Y-54458118D01*
X96740239Y-54458118D02*
X96835477Y-54362880D01*
X96835477Y-54362880D02*
X96930715Y-54315261D01*
X96930715Y-54315261D02*
X97121191Y-54267642D01*
X97121191Y-54267642D02*
X97264048Y-54267642D01*
X97264048Y-54267642D02*
X97454524Y-54315261D01*
X97454524Y-54315261D02*
X97549762Y-54362880D01*
X97549762Y-54362880D02*
X97645001Y-54458118D01*
X97645001Y-54458118D02*
X97692620Y-54600975D01*
X97692620Y-54600975D02*
X97692620Y-54839070D01*
X97692620Y-53315261D02*
X97692620Y-53886689D01*
X97692620Y-53600975D02*
X96692620Y-53600975D01*
X96692620Y-53600975D02*
X96835477Y-53696213D01*
X96835477Y-53696213D02*
X96930715Y-53791451D01*
X96930715Y-53791451D02*
X96978334Y-53886689D01*
X83098819Y-43394971D02*
X82622628Y-43728304D01*
X83098819Y-43966399D02*
X82098819Y-43966399D01*
X82098819Y-43966399D02*
X82098819Y-43585447D01*
X82098819Y-43585447D02*
X82146438Y-43490209D01*
X82146438Y-43490209D02*
X82194057Y-43442590D01*
X82194057Y-43442590D02*
X82289295Y-43394971D01*
X82289295Y-43394971D02*
X82432152Y-43394971D01*
X82432152Y-43394971D02*
X82527390Y-43442590D01*
X82527390Y-43442590D02*
X82575009Y-43490209D01*
X82575009Y-43490209D02*
X82622628Y-43585447D01*
X82622628Y-43585447D02*
X82622628Y-43966399D01*
X82432152Y-42537828D02*
X83098819Y-42537828D01*
X82051200Y-42775923D02*
X82765485Y-43014018D01*
X82765485Y-43014018D02*
X82765485Y-42394971D01*
X83606819Y-48299749D02*
X83130628Y-48633082D01*
X83606819Y-48871177D02*
X82606819Y-48871177D01*
X82606819Y-48871177D02*
X82606819Y-48490225D01*
X82606819Y-48490225D02*
X82654438Y-48394987D01*
X82654438Y-48394987D02*
X82702057Y-48347368D01*
X82702057Y-48347368D02*
X82797295Y-48299749D01*
X82797295Y-48299749D02*
X82940152Y-48299749D01*
X82940152Y-48299749D02*
X83035390Y-48347368D01*
X83035390Y-48347368D02*
X83083009Y-48394987D01*
X83083009Y-48394987D02*
X83130628Y-48490225D01*
X83130628Y-48490225D02*
X83130628Y-48871177D01*
X82606819Y-47966415D02*
X82606819Y-47347368D01*
X82606819Y-47347368D02*
X82987771Y-47680701D01*
X82987771Y-47680701D02*
X82987771Y-47537844D01*
X82987771Y-47537844D02*
X83035390Y-47442606D01*
X83035390Y-47442606D02*
X83083009Y-47394987D01*
X83083009Y-47394987D02*
X83178247Y-47347368D01*
X83178247Y-47347368D02*
X83416342Y-47347368D01*
X83416342Y-47347368D02*
X83511580Y-47394987D01*
X83511580Y-47394987D02*
X83559200Y-47442606D01*
X83559200Y-47442606D02*
X83606819Y-47537844D01*
X83606819Y-47537844D02*
X83606819Y-47823558D01*
X83606819Y-47823558D02*
X83559200Y-47918796D01*
X83559200Y-47918796D02*
X83511580Y-47966415D01*
X83606819Y-53792666D02*
X83130628Y-54125999D01*
X83606819Y-54364094D02*
X82606819Y-54364094D01*
X82606819Y-54364094D02*
X82606819Y-53983142D01*
X82606819Y-53983142D02*
X82654438Y-53887904D01*
X82654438Y-53887904D02*
X82702057Y-53840285D01*
X82702057Y-53840285D02*
X82797295Y-53792666D01*
X82797295Y-53792666D02*
X82940152Y-53792666D01*
X82940152Y-53792666D02*
X83035390Y-53840285D01*
X83035390Y-53840285D02*
X83083009Y-53887904D01*
X83083009Y-53887904D02*
X83130628Y-53983142D01*
X83130628Y-53983142D02*
X83130628Y-54364094D01*
X82702057Y-53411713D02*
X82654438Y-53364094D01*
X82654438Y-53364094D02*
X82606819Y-53268856D01*
X82606819Y-53268856D02*
X82606819Y-53030761D01*
X82606819Y-53030761D02*
X82654438Y-52935523D01*
X82654438Y-52935523D02*
X82702057Y-52887904D01*
X82702057Y-52887904D02*
X82797295Y-52840285D01*
X82797295Y-52840285D02*
X82892533Y-52840285D01*
X82892533Y-52840285D02*
X83035390Y-52887904D01*
X83035390Y-52887904D02*
X83606819Y-53459332D01*
X83606819Y-53459332D02*
X83606819Y-52840285D01*
X86795872Y-41823918D02*
X86700634Y-41776299D01*
X86700634Y-41776299D02*
X86605396Y-41681061D01*
X86605396Y-41681061D02*
X86462539Y-41538203D01*
X86462539Y-41538203D02*
X86367301Y-41490584D01*
X86367301Y-41490584D02*
X86272063Y-41490584D01*
X86319682Y-41728680D02*
X86224444Y-41681061D01*
X86224444Y-41681061D02*
X86129206Y-41585822D01*
X86129206Y-41585822D02*
X86081587Y-41395346D01*
X86081587Y-41395346D02*
X86081587Y-41062013D01*
X86081587Y-41062013D02*
X86129206Y-40871537D01*
X86129206Y-40871537D02*
X86224444Y-40776299D01*
X86224444Y-40776299D02*
X86319682Y-40728680D01*
X86319682Y-40728680D02*
X86510158Y-40728680D01*
X86510158Y-40728680D02*
X86605396Y-40776299D01*
X86605396Y-40776299D02*
X86700634Y-40871537D01*
X86700634Y-40871537D02*
X86748253Y-41062013D01*
X86748253Y-41062013D02*
X86748253Y-41395346D01*
X86748253Y-41395346D02*
X86700634Y-41585822D01*
X86700634Y-41585822D02*
X86605396Y-41681061D01*
X86605396Y-41681061D02*
X86510158Y-41728680D01*
X86510158Y-41728680D02*
X86319682Y-41728680D01*
X87605396Y-41062013D02*
X87605396Y-41728680D01*
X87367301Y-40681061D02*
X87129206Y-41395346D01*
X87129206Y-41395346D02*
X87748253Y-41395346D01*
X87141120Y-46686560D02*
X87045882Y-46638941D01*
X87045882Y-46638941D02*
X86950644Y-46543703D01*
X86950644Y-46543703D02*
X86807787Y-46400845D01*
X86807787Y-46400845D02*
X86712549Y-46353226D01*
X86712549Y-46353226D02*
X86617311Y-46353226D01*
X86664930Y-46591322D02*
X86569692Y-46543703D01*
X86569692Y-46543703D02*
X86474454Y-46448464D01*
X86474454Y-46448464D02*
X86426835Y-46257988D01*
X86426835Y-46257988D02*
X86426835Y-45924655D01*
X86426835Y-45924655D02*
X86474454Y-45734179D01*
X86474454Y-45734179D02*
X86569692Y-45638941D01*
X86569692Y-45638941D02*
X86664930Y-45591322D01*
X86664930Y-45591322D02*
X86855406Y-45591322D01*
X86855406Y-45591322D02*
X86950644Y-45638941D01*
X86950644Y-45638941D02*
X87045882Y-45734179D01*
X87045882Y-45734179D02*
X87093501Y-45924655D01*
X87093501Y-45924655D02*
X87093501Y-46257988D01*
X87093501Y-46257988D02*
X87045882Y-46448464D01*
X87045882Y-46448464D02*
X86950644Y-46543703D01*
X86950644Y-46543703D02*
X86855406Y-46591322D01*
X86855406Y-46591322D02*
X86664930Y-46591322D01*
X87426835Y-45591322D02*
X88045882Y-45591322D01*
X88045882Y-45591322D02*
X87712549Y-45972274D01*
X87712549Y-45972274D02*
X87855406Y-45972274D01*
X87855406Y-45972274D02*
X87950644Y-46019893D01*
X87950644Y-46019893D02*
X87998263Y-46067512D01*
X87998263Y-46067512D02*
X88045882Y-46162750D01*
X88045882Y-46162750D02*
X88045882Y-46400845D01*
X88045882Y-46400845D02*
X87998263Y-46496083D01*
X87998263Y-46496083D02*
X87950644Y-46543703D01*
X87950644Y-46543703D02*
X87855406Y-46591322D01*
X87855406Y-46591322D02*
X87569692Y-46591322D01*
X87569692Y-46591322D02*
X87474454Y-46543703D01*
X87474454Y-46543703D02*
X87426835Y-46496083D01*
X87392561Y-52058657D02*
X87297323Y-52011038D01*
X87297323Y-52011038D02*
X87202085Y-51915800D01*
X87202085Y-51915800D02*
X87059228Y-51772942D01*
X87059228Y-51772942D02*
X86963990Y-51725323D01*
X86963990Y-51725323D02*
X86868752Y-51725323D01*
X86916371Y-51963419D02*
X86821133Y-51915800D01*
X86821133Y-51915800D02*
X86725895Y-51820561D01*
X86725895Y-51820561D02*
X86678276Y-51630085D01*
X86678276Y-51630085D02*
X86678276Y-51296752D01*
X86678276Y-51296752D02*
X86725895Y-51106276D01*
X86725895Y-51106276D02*
X86821133Y-51011038D01*
X86821133Y-51011038D02*
X86916371Y-50963419D01*
X86916371Y-50963419D02*
X87106847Y-50963419D01*
X87106847Y-50963419D02*
X87202085Y-51011038D01*
X87202085Y-51011038D02*
X87297323Y-51106276D01*
X87297323Y-51106276D02*
X87344942Y-51296752D01*
X87344942Y-51296752D02*
X87344942Y-51630085D01*
X87344942Y-51630085D02*
X87297323Y-51820561D01*
X87297323Y-51820561D02*
X87202085Y-51915800D01*
X87202085Y-51915800D02*
X87106847Y-51963419D01*
X87106847Y-51963419D02*
X86916371Y-51963419D01*
X87725895Y-51058657D02*
X87773514Y-51011038D01*
X87773514Y-51011038D02*
X87868752Y-50963419D01*
X87868752Y-50963419D02*
X88106847Y-50963419D01*
X88106847Y-50963419D02*
X88202085Y-51011038D01*
X88202085Y-51011038D02*
X88249704Y-51058657D01*
X88249704Y-51058657D02*
X88297323Y-51153895D01*
X88297323Y-51153895D02*
X88297323Y-51249133D01*
X88297323Y-51249133D02*
X88249704Y-51391990D01*
X88249704Y-51391990D02*
X87678276Y-51963419D01*
X87678276Y-51963419D02*
X88297323Y-51963419D01*
X91971905Y-39904819D02*
X91971905Y-38904819D01*
X91971905Y-38904819D02*
X92210000Y-38904819D01*
X92210000Y-38904819D02*
X92352857Y-38952438D01*
X92352857Y-38952438D02*
X92448095Y-39047676D01*
X92448095Y-39047676D02*
X92495714Y-39142914D01*
X92495714Y-39142914D02*
X92543333Y-39333390D01*
X92543333Y-39333390D02*
X92543333Y-39476247D01*
X92543333Y-39476247D02*
X92495714Y-39666723D01*
X92495714Y-39666723D02*
X92448095Y-39761961D01*
X92448095Y-39761961D02*
X92352857Y-39857200D01*
X92352857Y-39857200D02*
X92210000Y-39904819D01*
X92210000Y-39904819D02*
X91971905Y-39904819D01*
X93400476Y-39238152D02*
X93400476Y-39904819D01*
X93162381Y-38857200D02*
X92924286Y-39571485D01*
X92924286Y-39571485D02*
X93543333Y-39571485D01*
X97563594Y-44473916D02*
X96563594Y-44473916D01*
X96563594Y-44473916D02*
X96563594Y-44235821D01*
X96563594Y-44235821D02*
X96611213Y-44092964D01*
X96611213Y-44092964D02*
X96706451Y-43997726D01*
X96706451Y-43997726D02*
X96801689Y-43950107D01*
X96801689Y-43950107D02*
X96992165Y-43902488D01*
X96992165Y-43902488D02*
X97135022Y-43902488D01*
X97135022Y-43902488D02*
X97325498Y-43950107D01*
X97325498Y-43950107D02*
X97420736Y-43997726D01*
X97420736Y-43997726D02*
X97515975Y-44092964D01*
X97515975Y-44092964D02*
X97563594Y-44235821D01*
X97563594Y-44235821D02*
X97563594Y-44473916D01*
X96563594Y-43569154D02*
X96563594Y-42950107D01*
X96563594Y-42950107D02*
X96944546Y-43283440D01*
X96944546Y-43283440D02*
X96944546Y-43140583D01*
X96944546Y-43140583D02*
X96992165Y-43045345D01*
X96992165Y-43045345D02*
X97039784Y-42997726D01*
X97039784Y-42997726D02*
X97135022Y-42950107D01*
X97135022Y-42950107D02*
X97373117Y-42950107D01*
X97373117Y-42950107D02*
X97468355Y-42997726D01*
X97468355Y-42997726D02*
X97515975Y-43045345D01*
X97515975Y-43045345D02*
X97563594Y-43140583D01*
X97563594Y-43140583D02*
X97563594Y-43426297D01*
X97563594Y-43426297D02*
X97515975Y-43521535D01*
X97515975Y-43521535D02*
X97468355Y-43569154D01*
X97678284Y-49462953D02*
X96678284Y-49462953D01*
X96678284Y-49462953D02*
X96678284Y-49224858D01*
X96678284Y-49224858D02*
X96725903Y-49082001D01*
X96725903Y-49082001D02*
X96821141Y-48986763D01*
X96821141Y-48986763D02*
X96916379Y-48939144D01*
X96916379Y-48939144D02*
X97106855Y-48891525D01*
X97106855Y-48891525D02*
X97249712Y-48891525D01*
X97249712Y-48891525D02*
X97440188Y-48939144D01*
X97440188Y-48939144D02*
X97535426Y-48986763D01*
X97535426Y-48986763D02*
X97630665Y-49082001D01*
X97630665Y-49082001D02*
X97678284Y-49224858D01*
X97678284Y-49224858D02*
X97678284Y-49462953D01*
X96773522Y-48510572D02*
X96725903Y-48462953D01*
X96725903Y-48462953D02*
X96678284Y-48367715D01*
X96678284Y-48367715D02*
X96678284Y-48129620D01*
X96678284Y-48129620D02*
X96725903Y-48034382D01*
X96725903Y-48034382D02*
X96773522Y-47986763D01*
X96773522Y-47986763D02*
X96868760Y-47939144D01*
X96868760Y-47939144D02*
X96963998Y-47939144D01*
X96963998Y-47939144D02*
X97106855Y-47986763D01*
X97106855Y-47986763D02*
X97678284Y-48558191D01*
X97678284Y-48558191D02*
X97678284Y-47939144D01*
D11*
%TO.C,J2*%
X99000000Y-43720000D02*
X101660000Y-43720000D01*
X99000000Y-61560000D02*
X101660000Y-61560000D01*
X99000000Y-43720000D02*
X99000000Y-61560000D01*
X99000000Y-42450000D02*
X99000000Y-41120000D01*
X101660000Y-43720000D02*
X101660000Y-61560000D01*
X99000000Y-41120000D02*
X100330000Y-41120000D01*
%TO.C,J1*%
X81340000Y-61560000D02*
X80010000Y-61560000D01*
X78680000Y-58960000D02*
X78680000Y-41120000D01*
X81340000Y-60230000D02*
X81340000Y-61560000D01*
X81340000Y-58960000D02*
X81340000Y-41120000D01*
X81340000Y-41120000D02*
X78680000Y-41120000D01*
X81340000Y-58960000D02*
X78680000Y-58960000D01*
%TO.C,R1*%
X85104500Y-58943258D02*
X85104500Y-58468742D01*
X84059500Y-58943258D02*
X84059500Y-58468742D01*
%TO.C,Q1*%
X88090000Y-57800000D02*
X88090000Y-58460000D01*
X86680000Y-60120000D02*
X88090000Y-60120000D01*
X88090000Y-59460000D02*
X88090000Y-60120000D01*
X88090000Y-57800000D02*
X86060000Y-57800000D01*
%TO.C,D1*%
X89440000Y-55540000D02*
X95250000Y-55540000D01*
X89440000Y-55540000D02*
X89440000Y-59840000D01*
X89440000Y-59840000D02*
X95250000Y-59840000D01*
%TO.C,R4*%
X84596500Y-43465563D02*
X84596500Y-42991047D01*
X83551500Y-43465563D02*
X83551500Y-42991047D01*
%TO.C,R3*%
X84059500Y-48370341D02*
X84059500Y-47895825D01*
X85104500Y-48370341D02*
X85104500Y-47895825D01*
%TO.C,R2*%
X84059500Y-53863258D02*
X84059500Y-53388742D01*
X85104500Y-53863258D02*
X85104500Y-53388742D01*
%TO.C,Q4*%
X87671111Y-42063861D02*
X87671111Y-42723861D01*
X86261111Y-44383861D02*
X87671111Y-44383861D01*
X87671111Y-43723861D02*
X87671111Y-44383861D01*
X87671111Y-42063861D02*
X85641111Y-42063861D01*
%TO.C,Q3*%
X88016359Y-46926503D02*
X88016359Y-47586503D01*
X86606359Y-49246503D02*
X88016359Y-49246503D01*
X88016359Y-48586503D02*
X88016359Y-49246503D01*
X88016359Y-46926503D02*
X85986359Y-46926503D01*
%TO.C,Q2*%
X88267800Y-52298600D02*
X88267800Y-52958600D01*
X86857800Y-54618600D02*
X88267800Y-54618600D01*
X88267800Y-53958600D02*
X88267800Y-54618600D01*
X88267800Y-52298600D02*
X86237800Y-52298600D01*
%TO.C,D4*%
X89050000Y-40300000D02*
X94860000Y-40300000D01*
X89050000Y-40300000D02*
X89050000Y-44600000D01*
X89050000Y-44600000D02*
X94860000Y-44600000D01*
%TO.C,D3*%
X89440000Y-49680000D02*
X95250000Y-49680000D01*
X89440000Y-45380000D02*
X89440000Y-49680000D01*
X89440000Y-45380000D02*
X95250000Y-45380000D01*
%TO.C,D2*%
X89499719Y-54892740D02*
X95309719Y-54892740D01*
X89499719Y-50592740D02*
X89499719Y-54892740D01*
X89499719Y-50592740D02*
X95309719Y-50592740D01*
%TD*%
M02*
