M48
; DRILL file {KiCad 7.0.8-7.0.8~ubuntu22.04.1} date Wed 06 Dec 2023 01:38:47 PM
; FORMAT={-:-/ absolute / metric / decimal}
; #@! TF.CreationDate,2023-12-06T13:38:47-08:00
; #@! TF.GenerationSoftware,Kicad,Pcbnew,7.0.8-7.0.8~ubuntu22.04.1
; #@! TF.FileFunction,Plated,1,2,PTH
FMAT,2
METRIC
; #@! TA.AperFunction,Plated,PTH,ViaDrill
T1C0.400
; #@! TA.AperFunction,Plated,PTH,ComponentDrill
T2C1.000
%
G90
G05
T1
X89.467Y-45.557
X89.535Y-48.165
X89.535Y-50.705
X89.535Y-53.88
X89.535Y-57.69
X90.805Y-47.53
X99.06Y-44.99
X99.06Y-50.07
X99.06Y-53.88
X99.06Y-57.69
T2
X81.28Y-44.624
X81.28Y-47.164
X81.28Y-49.704
X81.28Y-52.244
X81.28Y-54.784
X81.28Y-57.324
X81.28Y-59.864
X81.28Y-62.404
X103.632Y-44.609
X103.632Y-47.149
X103.632Y-49.689
X103.632Y-52.229
X103.632Y-54.769
X103.632Y-57.309
X103.632Y-59.849
X103.632Y-62.389
T0
M30
