%TF.GenerationSoftware,KiCad,Pcbnew,7.0.8-7.0.8~ubuntu22.04.1*%
%TF.CreationDate,2023-12-06T13:38:49-08:00*%
%TF.ProjectId,SolenoidDriver,536f6c65-6e6f-4696-9444-72697665722e,rev?*%
%TF.SameCoordinates,Original*%
%TF.FileFunction,Copper,L1,Top*%
%TF.FilePolarity,Positive*%
%FSLAX46Y46*%
G04 Gerber Fmt 4.6, Leading zero omitted, Abs format (unit mm)*
G04 Created by KiCad (PCBNEW 7.0.8-7.0.8~ubuntu22.04.1) date 2023-12-06 13:38:49*
%MOMM*%
%LPD*%
G01*
G04 APERTURE LIST*
G04 Aperture macros list*
%AMRoundRect*
0 Rectangle with rounded corners*
0 $1 Rounding radius*
0 $2 $3 $4 $5 $6 $7 $8 $9 X,Y pos of 4 corners*
0 Add a 4 corners polygon primitive as box body*
4,1,4,$2,$3,$4,$5,$6,$7,$8,$9,$2,$3,0*
0 Add four circle primitives for the rounded corners*
1,1,$1+$1,$2,$3*
1,1,$1+$1,$4,$5*
1,1,$1+$1,$6,$7*
1,1,$1+$1,$8,$9*
0 Add four rect primitives between the rounded corners*
20,1,$1+$1,$2,$3,$4,$5,0*
20,1,$1+$1,$4,$5,$6,$7,0*
20,1,$1+$1,$6,$7,$8,$9,0*
20,1,$1+$1,$8,$9,$2,$3,0*%
G04 Aperture macros list end*
%TA.AperFunction,SMDPad,CuDef*%
%ADD10RoundRect,0.200000X-0.200000X-0.275000X0.200000X-0.275000X0.200000X0.275000X-0.200000X0.275000X0*%
%TD*%
%TA.AperFunction,SMDPad,CuDef*%
%ADD11RoundRect,0.150000X-0.587500X-0.150000X0.587500X-0.150000X0.587500X0.150000X-0.587500X0.150000X0*%
%TD*%
%TA.AperFunction,ComponentPad*%
%ADD12R,1.700000X1.700000*%
%TD*%
%TA.AperFunction,ComponentPad*%
%ADD13O,1.700000X1.700000*%
%TD*%
%TA.AperFunction,SMDPad,CuDef*%
%ADD14RoundRect,0.250000X0.500000X1.100000X-0.500000X1.100000X-0.500000X-1.100000X0.500000X-1.100000X0*%
%TD*%
%TA.AperFunction,ViaPad*%
%ADD15C,0.800000*%
%TD*%
%TA.AperFunction,Conductor*%
%ADD16C,0.250000*%
%TD*%
G04 APERTURE END LIST*
D10*
%TO.P,R8,1*%
%TO.N,Net-(J1-Pin_2)*%
X87123000Y-46006000D03*
%TO.P,R8,2*%
%TO.N,GND*%
X88773000Y-46006000D03*
%TD*%
%TO.P,R7,1*%
%TO.N,Net-(J1-Pin_5)*%
X87059000Y-53626000D03*
%TO.P,R7,2*%
%TO.N,GND*%
X88709000Y-53626000D03*
%TD*%
%TO.P,R6,1*%
%TO.N,Net-(J1-Pin_4)*%
X87059000Y-51086000D03*
%TO.P,R6,2*%
%TO.N,GND*%
X88709000Y-51086000D03*
%TD*%
%TO.P,R5,1*%
%TO.N,Net-(J1-Pin_3)*%
X87123000Y-48419000D03*
%TO.P,R5,2*%
%TO.N,GND*%
X88773000Y-48419000D03*
%TD*%
%TO.P,R4,1*%
%TO.N,Net-(J1-Pin_5)*%
X83948000Y-54769000D03*
%TO.P,R4,2*%
%TO.N,Net-(Q3-G)*%
X85598000Y-54769000D03*
%TD*%
%TO.P,R3,1*%
%TO.N,Net-(J1-Pin_4)*%
X83948000Y-52229000D03*
%TO.P,R3,2*%
%TO.N,Net-(Q2-G)*%
X85598000Y-52229000D03*
%TD*%
%TO.P,R2,1*%
%TO.N,Net-(J1-Pin_3)*%
X83948000Y-49689000D03*
%TO.P,R2,2*%
%TO.N,Net-(Q1-G)*%
X85598000Y-49689000D03*
%TD*%
%TO.P,R1,1*%
%TO.N,Net-(J1-Pin_2)*%
X83948000Y-47149000D03*
%TO.P,R1,2*%
%TO.N,Net-(Q4-G)*%
X85598000Y-47149000D03*
%TD*%
D11*
%TO.P,Q4,1,G*%
%TO.N,Net-(Q4-G)*%
X91216000Y-44675000D03*
%TO.P,Q4,2,S*%
%TO.N,GND*%
X91216000Y-46575000D03*
%TO.P,Q4,3,D*%
%TO.N,Net-(D1-A)*%
X93091000Y-45625000D03*
%TD*%
%TO.P,Q3,1,G*%
%TO.N,Net-(Q3-G)*%
X90708000Y-56613000D03*
%TO.P,Q3,2,S*%
%TO.N,GND*%
X90708000Y-58513000D03*
%TO.P,Q3,3,D*%
%TO.N,Net-(D4-A)*%
X92583000Y-57563000D03*
%TD*%
%TO.P,Q2,1,G*%
%TO.N,Net-(Q2-G)*%
X90708000Y-52930000D03*
%TO.P,Q2,2,S*%
%TO.N,GND*%
X90708000Y-54830000D03*
%TO.P,Q2,3,D*%
%TO.N,Net-(D3-A)*%
X92583000Y-53880000D03*
%TD*%
%TO.P,Q1,1,G*%
%TO.N,Net-(Q1-G)*%
X90708000Y-49374000D03*
%TO.P,Q1,2,S*%
%TO.N,GND*%
X90708000Y-51274000D03*
%TO.P,Q1,3,D*%
%TO.N,Net-(D2-A)*%
X92583000Y-50324000D03*
%TD*%
D12*
%TO.P,J2,1,Pin_1*%
%TO.N,Net-(D4-A)*%
X103632000Y-62389000D03*
D13*
%TO.P,J2,2,Pin_2*%
%TO.N,+12V*%
X103632000Y-59849000D03*
%TO.P,J2,3,Pin_3*%
%TO.N,Net-(D3-A)*%
X103632000Y-57309000D03*
%TO.P,J2,4,Pin_4*%
%TO.N,+12V*%
X103632000Y-54769000D03*
%TO.P,J2,5,Pin_5*%
%TO.N,Net-(D2-A)*%
X103632000Y-52229000D03*
%TO.P,J2,6,Pin_6*%
%TO.N,+12V*%
X103632000Y-49689000D03*
%TO.P,J2,7,Pin_7*%
%TO.N,Net-(D1-A)*%
X103632000Y-47149000D03*
%TO.P,J2,8,Pin_8*%
%TO.N,+12V*%
X103632000Y-44609000D03*
%TD*%
D12*
%TO.P,J1,1,Pin_1*%
%TO.N,+12V*%
X81280000Y-44624000D03*
D13*
%TO.P,J1,2,Pin_2*%
%TO.N,Net-(J1-Pin_2)*%
X81280000Y-47164000D03*
%TO.P,J1,3,Pin_3*%
%TO.N,Net-(J1-Pin_3)*%
X81280000Y-49704000D03*
%TO.P,J1,4,Pin_4*%
%TO.N,Net-(J1-Pin_4)*%
X81280000Y-52244000D03*
%TO.P,J1,5,Pin_5*%
%TO.N,Net-(J1-Pin_5)*%
X81280000Y-54784000D03*
%TO.P,J1,6,Pin_6*%
%TO.N,GND*%
X81280000Y-57324000D03*
%TO.P,J1,7,Pin_7*%
X81280000Y-59864000D03*
%TO.P,J1,8,Pin_8*%
X81280000Y-62404000D03*
%TD*%
D14*
%TO.P,D4,1,K*%
%TO.N,+12V*%
X99809000Y-57690000D03*
%TO.P,D4,2,A*%
%TO.N,Net-(D4-A)*%
X95009000Y-57690000D03*
%TD*%
%TO.P,D3,1,K*%
%TO.N,+12V*%
X99796000Y-54007000D03*
%TO.P,D3,2,A*%
%TO.N,Net-(D3-A)*%
X94996000Y-54007000D03*
%TD*%
%TO.P,D2,1,K*%
%TO.N,+12V*%
X99936000Y-50197000D03*
%TO.P,D2,2,A*%
%TO.N,Net-(D2-A)*%
X95136000Y-50197000D03*
%TD*%
%TO.P,D1,1,K*%
%TO.N,+12V*%
X100063000Y-45371000D03*
%TO.P,D1,2,A*%
%TO.N,Net-(D1-A)*%
X95263000Y-45371000D03*
%TD*%
D15*
%TO.N,+12V*%
X99060000Y-44990000D03*
X99060000Y-50070000D03*
X99060000Y-53880000D03*
X99060000Y-57690000D03*
%TO.N,GND*%
X89535000Y-57690000D03*
X89535000Y-53880000D03*
X89535000Y-50705000D03*
X89467200Y-45557200D03*
X89535000Y-48165000D03*
X90805000Y-47530000D03*
%TD*%
D16*
%TO.N,Net-(D1-A)*%
X93091000Y-45625000D02*
X95009000Y-45625000D01*
X95009000Y-45625000D02*
X95263000Y-45371000D01*
X103632000Y-47149000D02*
X97041000Y-47149000D01*
X97041000Y-47149000D02*
X95263000Y-45371000D01*
%TO.N,Net-(D2-A)*%
X103632000Y-52229000D02*
X97168000Y-52229000D01*
X97168000Y-52229000D02*
X95136000Y-50197000D01*
%TO.N,Net-(D3-A)*%
X103632000Y-57309000D02*
X102005000Y-55682000D01*
X102005000Y-55682000D02*
X96671000Y-55682000D01*
X96671000Y-55682000D02*
X94996000Y-54007000D01*
%TO.N,Net-(D4-A)*%
X103632000Y-62389000D02*
X99708000Y-62389000D01*
X99708000Y-62389000D02*
X95009000Y-57690000D01*
%TO.N,+12V*%
X99441000Y-45371000D02*
X99060000Y-44990000D01*
X100063000Y-45371000D02*
X99441000Y-45371000D01*
X99187000Y-50197000D02*
X99060000Y-50070000D01*
X99936000Y-50197000D02*
X99187000Y-50197000D01*
X99187000Y-54007000D02*
X99060000Y-53880000D01*
X99796000Y-54007000D02*
X99187000Y-54007000D01*
X99809000Y-57690000D02*
X99060000Y-57690000D01*
%TO.N,Net-(D4-A)*%
X92583000Y-57563000D02*
X94882000Y-57563000D01*
X94882000Y-57563000D02*
X95009000Y-57690000D01*
%TO.N,Net-(D3-A)*%
X92583000Y-53880000D02*
X94869000Y-53880000D01*
X94869000Y-53880000D02*
X94996000Y-54007000D01*
%TO.N,Net-(D2-A)*%
X92583000Y-50324000D02*
X95009000Y-50324000D01*
X95009000Y-50324000D02*
X95136000Y-50197000D01*
%TO.N,GND*%
X90358000Y-58513000D02*
X89535000Y-57690000D01*
X90708000Y-58513000D02*
X90358000Y-58513000D01*
X90708000Y-54830000D02*
X90485000Y-54830000D01*
X90485000Y-54830000D02*
X89535000Y-53880000D01*
X89281000Y-53626000D02*
X89535000Y-53880000D01*
X88709000Y-53626000D02*
X89281000Y-53626000D01*
X90708000Y-51274000D02*
X90104000Y-51274000D01*
X90104000Y-51274000D02*
X89535000Y-50705000D01*
X89154000Y-51086000D02*
X89535000Y-50705000D01*
X88709000Y-51086000D02*
X89154000Y-51086000D01*
X89018400Y-46006000D02*
X89467200Y-45557200D01*
X88773000Y-46006000D02*
X89018400Y-46006000D01*
X89281000Y-48419000D02*
X89535000Y-48165000D01*
X88773000Y-48419000D02*
X89281000Y-48419000D01*
X91216000Y-47119000D02*
X90805000Y-47530000D01*
X91216000Y-46575000D02*
X91216000Y-47119000D01*
%TO.N,Net-(Q3-G)*%
X90708000Y-56613000D02*
X89728000Y-56613000D01*
X89728000Y-56613000D02*
X87884000Y-54769000D01*
X87884000Y-54769000D02*
X85598000Y-54769000D01*
%TO.N,Net-(Q2-G)*%
X90708000Y-52930000D02*
X90007000Y-52229000D01*
X90007000Y-52229000D02*
X85598000Y-52229000D01*
%TO.N,Net-(Q1-G)*%
X90708000Y-49374000D02*
X90393000Y-49689000D01*
X90393000Y-49689000D02*
X85598000Y-49689000D01*
%TO.N,Net-(Q4-G)*%
X89789000Y-47022000D02*
X89662000Y-47149000D01*
X89789000Y-46260000D02*
X89789000Y-47022000D01*
X91216000Y-45341000D02*
X91059000Y-45498000D01*
X91216000Y-44675000D02*
X91216000Y-45341000D01*
X91059000Y-45498000D02*
X90551000Y-45498000D01*
X90551000Y-45498000D02*
X89789000Y-46260000D01*
X89662000Y-47149000D02*
X85598000Y-47149000D01*
%TO.N,Net-(J1-Pin_5)*%
X83948000Y-54769000D02*
X83948000Y-54387000D01*
X83948000Y-54387000D02*
X84709000Y-53626000D01*
X84709000Y-53626000D02*
X87059000Y-53626000D01*
%TO.N,Net-(J1-Pin_4)*%
X83948000Y-51720000D02*
X84582000Y-51086000D01*
X83948000Y-52229000D02*
X83948000Y-51720000D01*
X84582000Y-51086000D02*
X87059000Y-51086000D01*
%TO.N,Net-(J1-Pin_2)*%
X83948000Y-46513000D02*
X84455000Y-46006000D01*
X83948000Y-47149000D02*
X83948000Y-46513000D01*
X84455000Y-46006000D02*
X87123000Y-46006000D01*
%TO.N,Net-(J1-Pin_3)*%
X83948000Y-49689000D02*
X83948000Y-48926000D01*
X83948000Y-48926000D02*
X84455000Y-48419000D01*
X84455000Y-48419000D02*
X87123000Y-48419000D01*
%TO.N,Net-(J1-Pin_5)*%
X81280000Y-54784000D02*
X83933000Y-54784000D01*
X83933000Y-54784000D02*
X83948000Y-54769000D01*
%TO.N,Net-(J1-Pin_4)*%
X81280000Y-52244000D02*
X83933000Y-52244000D01*
X83933000Y-52244000D02*
X83948000Y-52229000D01*
%TO.N,Net-(J1-Pin_3)*%
X81280000Y-49704000D02*
X83933000Y-49704000D01*
X83933000Y-49704000D02*
X83948000Y-49689000D01*
%TO.N,Net-(J1-Pin_2)*%
X81280000Y-47164000D02*
X83933000Y-47164000D01*
X83933000Y-47164000D02*
X83948000Y-47149000D01*
%TD*%
M02*
