%TF.GenerationSoftware,KiCad,Pcbnew,7.0.8-7.0.8~ubuntu22.04.1*%
%TF.CreationDate,2023-12-06T13:38:50-08:00*%
%TF.ProjectId,SolenoidDriver,536f6c65-6e6f-4696-9444-72697665722e,rev?*%
%TF.SameCoordinates,Original*%
%TF.FileFunction,Legend,Top*%
%TF.FilePolarity,Positive*%
%FSLAX46Y46*%
G04 Gerber Fmt 4.6, Leading zero omitted, Abs format (unit mm)*
G04 Created by KiCad (PCBNEW 7.0.8-7.0.8~ubuntu22.04.1) date 2023-12-06 13:38:50*
%MOMM*%
%LPD*%
G01*
G04 APERTURE LIST*
%ADD10C,0.150000*%
%ADD11C,0.120000*%
G04 APERTURE END LIST*
D10*
X83676541Y-61347914D02*
X83676541Y-61883628D01*
X83676541Y-61883628D02*
X83640826Y-61990771D01*
X83640826Y-61990771D02*
X83569398Y-62062200D01*
X83569398Y-62062200D02*
X83462255Y-62097914D01*
X83462255Y-62097914D02*
X83390826Y-62097914D01*
X84140827Y-62097914D02*
X84069398Y-62062200D01*
X84069398Y-62062200D02*
X84033684Y-62026485D01*
X84033684Y-62026485D02*
X83997970Y-61955057D01*
X83997970Y-61955057D02*
X83997970Y-61740771D01*
X83997970Y-61740771D02*
X84033684Y-61669342D01*
X84033684Y-61669342D02*
X84069398Y-61633628D01*
X84069398Y-61633628D02*
X84140827Y-61597914D01*
X84140827Y-61597914D02*
X84247970Y-61597914D01*
X84247970Y-61597914D02*
X84319398Y-61633628D01*
X84319398Y-61633628D02*
X84355113Y-61669342D01*
X84355113Y-61669342D02*
X84390827Y-61740771D01*
X84390827Y-61740771D02*
X84390827Y-61955057D01*
X84390827Y-61955057D02*
X84355113Y-62026485D01*
X84355113Y-62026485D02*
X84319398Y-62062200D01*
X84319398Y-62062200D02*
X84247970Y-62097914D01*
X84247970Y-62097914D02*
X84140827Y-62097914D01*
X84997969Y-62062200D02*
X84926541Y-62097914D01*
X84926541Y-62097914D02*
X84783684Y-62097914D01*
X84783684Y-62097914D02*
X84712255Y-62062200D01*
X84712255Y-62062200D02*
X84676541Y-61990771D01*
X84676541Y-61990771D02*
X84676541Y-61705057D01*
X84676541Y-61705057D02*
X84712255Y-61633628D01*
X84712255Y-61633628D02*
X84783684Y-61597914D01*
X84783684Y-61597914D02*
X84926541Y-61597914D01*
X84926541Y-61597914D02*
X84997969Y-61633628D01*
X84997969Y-61633628D02*
X85033684Y-61705057D01*
X85033684Y-61705057D02*
X85033684Y-61776485D01*
X85033684Y-61776485D02*
X84676541Y-61847914D01*
X85462255Y-62097914D02*
X85390826Y-62062200D01*
X85390826Y-62062200D02*
X85355112Y-61990771D01*
X85355112Y-61990771D02*
X85355112Y-61347914D01*
X86212255Y-61347914D02*
X86640827Y-61347914D01*
X86426541Y-62097914D02*
X86426541Y-61347914D01*
X86855113Y-62062200D02*
X86926541Y-62097914D01*
X86926541Y-62097914D02*
X87069398Y-62097914D01*
X87069398Y-62097914D02*
X87140827Y-62062200D01*
X87140827Y-62062200D02*
X87176541Y-61990771D01*
X87176541Y-61990771D02*
X87176541Y-61955057D01*
X87176541Y-61955057D02*
X87140827Y-61883628D01*
X87140827Y-61883628D02*
X87069398Y-61847914D01*
X87069398Y-61847914D02*
X86962256Y-61847914D01*
X86962256Y-61847914D02*
X86890827Y-61812200D01*
X86890827Y-61812200D02*
X86855113Y-61740771D01*
X86855113Y-61740771D02*
X86855113Y-61705057D01*
X86855113Y-61705057D02*
X86890827Y-61633628D01*
X86890827Y-61633628D02*
X86962256Y-61597914D01*
X86962256Y-61597914D02*
X87069398Y-61597914D01*
X87069398Y-61597914D02*
X87140827Y-61633628D01*
X87819399Y-61597914D02*
X87819399Y-62097914D01*
X87497970Y-61597914D02*
X87497970Y-61990771D01*
X87497970Y-61990771D02*
X87533684Y-62062200D01*
X87533684Y-62062200D02*
X87605113Y-62097914D01*
X87605113Y-62097914D02*
X87712256Y-62097914D01*
X87712256Y-62097914D02*
X87783684Y-62062200D01*
X87783684Y-62062200D02*
X87819399Y-62026485D01*
X88497970Y-62062200D02*
X88426541Y-62097914D01*
X88426541Y-62097914D02*
X88283684Y-62097914D01*
X88283684Y-62097914D02*
X88212255Y-62062200D01*
X88212255Y-62062200D02*
X88176541Y-62026485D01*
X88176541Y-62026485D02*
X88140827Y-61955057D01*
X88140827Y-61955057D02*
X88140827Y-61740771D01*
X88140827Y-61740771D02*
X88176541Y-61669342D01*
X88176541Y-61669342D02*
X88212255Y-61633628D01*
X88212255Y-61633628D02*
X88283684Y-61597914D01*
X88283684Y-61597914D02*
X88426541Y-61597914D01*
X88426541Y-61597914D02*
X88497970Y-61633628D01*
X88819398Y-62097914D02*
X88819398Y-61347914D01*
X89140827Y-62097914D02*
X89140827Y-61705057D01*
X89140827Y-61705057D02*
X89105112Y-61633628D01*
X89105112Y-61633628D02*
X89033684Y-61597914D01*
X89033684Y-61597914D02*
X88926541Y-61597914D01*
X88926541Y-61597914D02*
X88855112Y-61633628D01*
X88855112Y-61633628D02*
X88819398Y-61669342D01*
X89497969Y-62097914D02*
X89497969Y-61597914D01*
X89497969Y-61347914D02*
X89462255Y-61383628D01*
X89462255Y-61383628D02*
X89497969Y-61419342D01*
X89497969Y-61419342D02*
X89533683Y-61383628D01*
X89533683Y-61383628D02*
X89497969Y-61347914D01*
X89497969Y-61347914D02*
X89497969Y-61419342D01*
X89747969Y-61597914D02*
X90033683Y-61597914D01*
X89855112Y-61347914D02*
X89855112Y-61990771D01*
X89855112Y-61990771D02*
X89890826Y-62062200D01*
X89890826Y-62062200D02*
X89962255Y-62097914D01*
X89962255Y-62097914D02*
X90033683Y-62097914D01*
X90390826Y-62097914D02*
X90319397Y-62062200D01*
X90319397Y-62062200D02*
X90283683Y-62026485D01*
X90283683Y-62026485D02*
X90247969Y-61955057D01*
X90247969Y-61955057D02*
X90247969Y-61740771D01*
X90247969Y-61740771D02*
X90283683Y-61669342D01*
X90283683Y-61669342D02*
X90319397Y-61633628D01*
X90319397Y-61633628D02*
X90390826Y-61597914D01*
X90390826Y-61597914D02*
X90497969Y-61597914D01*
X90497969Y-61597914D02*
X90569397Y-61633628D01*
X90569397Y-61633628D02*
X90605112Y-61669342D01*
X90605112Y-61669342D02*
X90640826Y-61740771D01*
X90640826Y-61740771D02*
X90640826Y-61955057D01*
X90640826Y-61955057D02*
X90605112Y-62026485D01*
X90605112Y-62026485D02*
X90569397Y-62062200D01*
X90569397Y-62062200D02*
X90497969Y-62097914D01*
X90497969Y-62097914D02*
X90390826Y-62097914D01*
X90962254Y-62097914D02*
X90962254Y-61597914D01*
X90962254Y-61740771D02*
X90997968Y-61669342D01*
X90997968Y-61669342D02*
X91033683Y-61633628D01*
X91033683Y-61633628D02*
X91105111Y-61597914D01*
X91105111Y-61597914D02*
X91176540Y-61597914D01*
X91426540Y-62097914D02*
X91426540Y-61597914D01*
X91426540Y-61347914D02*
X91390826Y-61383628D01*
X91390826Y-61383628D02*
X91426540Y-61419342D01*
X91426540Y-61419342D02*
X91462254Y-61383628D01*
X91462254Y-61383628D02*
X91426540Y-61347914D01*
X91426540Y-61347914D02*
X91426540Y-61419342D01*
X83355112Y-62555414D02*
X83783684Y-62555414D01*
X83569398Y-63305414D02*
X83569398Y-62555414D01*
X83997970Y-63269700D02*
X84069398Y-63305414D01*
X84069398Y-63305414D02*
X84212255Y-63305414D01*
X84212255Y-63305414D02*
X84283684Y-63269700D01*
X84283684Y-63269700D02*
X84319398Y-63198271D01*
X84319398Y-63198271D02*
X84319398Y-63162557D01*
X84319398Y-63162557D02*
X84283684Y-63091128D01*
X84283684Y-63091128D02*
X84212255Y-63055414D01*
X84212255Y-63055414D02*
X84105113Y-63055414D01*
X84105113Y-63055414D02*
X84033684Y-63019700D01*
X84033684Y-63019700D02*
X83997970Y-62948271D01*
X83997970Y-62948271D02*
X83997970Y-62912557D01*
X83997970Y-62912557D02*
X84033684Y-62841128D01*
X84033684Y-62841128D02*
X84105113Y-62805414D01*
X84105113Y-62805414D02*
X84212255Y-62805414D01*
X84212255Y-62805414D02*
X84283684Y-62841128D01*
X84962256Y-62805414D02*
X84962256Y-63305414D01*
X84640827Y-62805414D02*
X84640827Y-63198271D01*
X84640827Y-63198271D02*
X84676541Y-63269700D01*
X84676541Y-63269700D02*
X84747970Y-63305414D01*
X84747970Y-63305414D02*
X84855113Y-63305414D01*
X84855113Y-63305414D02*
X84926541Y-63269700D01*
X84926541Y-63269700D02*
X84962256Y-63233985D01*
X85640827Y-63269700D02*
X85569398Y-63305414D01*
X85569398Y-63305414D02*
X85426541Y-63305414D01*
X85426541Y-63305414D02*
X85355112Y-63269700D01*
X85355112Y-63269700D02*
X85319398Y-63233985D01*
X85319398Y-63233985D02*
X85283684Y-63162557D01*
X85283684Y-63162557D02*
X85283684Y-62948271D01*
X85283684Y-62948271D02*
X85319398Y-62876842D01*
X85319398Y-62876842D02*
X85355112Y-62841128D01*
X85355112Y-62841128D02*
X85426541Y-62805414D01*
X85426541Y-62805414D02*
X85569398Y-62805414D01*
X85569398Y-62805414D02*
X85640827Y-62841128D01*
X85962255Y-63305414D02*
X85962255Y-62555414D01*
X86283684Y-63305414D02*
X86283684Y-62912557D01*
X86283684Y-62912557D02*
X86247969Y-62841128D01*
X86247969Y-62841128D02*
X86176541Y-62805414D01*
X86176541Y-62805414D02*
X86069398Y-62805414D01*
X86069398Y-62805414D02*
X85997969Y-62841128D01*
X85997969Y-62841128D02*
X85962255Y-62876842D01*
X86640826Y-63305414D02*
X86640826Y-62805414D01*
X86640826Y-62555414D02*
X86605112Y-62591128D01*
X86605112Y-62591128D02*
X86640826Y-62626842D01*
X86640826Y-62626842D02*
X86676540Y-62591128D01*
X86676540Y-62591128D02*
X86640826Y-62555414D01*
X86640826Y-62555414D02*
X86640826Y-62626842D01*
X86890826Y-62805414D02*
X87176540Y-62805414D01*
X86997969Y-62555414D02*
X86997969Y-63198271D01*
X86997969Y-63198271D02*
X87033683Y-63269700D01*
X87033683Y-63269700D02*
X87105112Y-63305414D01*
X87105112Y-63305414D02*
X87176540Y-63305414D01*
X87533683Y-63305414D02*
X87462254Y-63269700D01*
X87462254Y-63269700D02*
X87426540Y-63233985D01*
X87426540Y-63233985D02*
X87390826Y-63162557D01*
X87390826Y-63162557D02*
X87390826Y-62948271D01*
X87390826Y-62948271D02*
X87426540Y-62876842D01*
X87426540Y-62876842D02*
X87462254Y-62841128D01*
X87462254Y-62841128D02*
X87533683Y-62805414D01*
X87533683Y-62805414D02*
X87640826Y-62805414D01*
X87640826Y-62805414D02*
X87712254Y-62841128D01*
X87712254Y-62841128D02*
X87747969Y-62876842D01*
X87747969Y-62876842D02*
X87783683Y-62948271D01*
X87783683Y-62948271D02*
X87783683Y-63162557D01*
X87783683Y-63162557D02*
X87747969Y-63233985D01*
X87747969Y-63233985D02*
X87712254Y-63269700D01*
X87712254Y-63269700D02*
X87640826Y-63305414D01*
X87640826Y-63305414D02*
X87533683Y-63305414D01*
X88105111Y-63305414D02*
X88105111Y-62805414D01*
X88105111Y-62948271D02*
X88140825Y-62876842D01*
X88140825Y-62876842D02*
X88176540Y-62841128D01*
X88176540Y-62841128D02*
X88247968Y-62805414D01*
X88247968Y-62805414D02*
X88319397Y-62805414D01*
X88569397Y-63305414D02*
X88569397Y-62805414D01*
X88569397Y-62555414D02*
X88533683Y-62591128D01*
X88533683Y-62591128D02*
X88569397Y-62626842D01*
X88569397Y-62626842D02*
X88605111Y-62591128D01*
X88605111Y-62591128D02*
X88569397Y-62555414D01*
X88569397Y-62555414D02*
X88569397Y-62626842D01*
X89140826Y-62555414D02*
X89140826Y-63091128D01*
X89140826Y-63091128D02*
X89105111Y-63198271D01*
X89105111Y-63198271D02*
X89033683Y-63269700D01*
X89033683Y-63269700D02*
X88926540Y-63305414D01*
X88926540Y-63305414D02*
X88855111Y-63305414D01*
X89605112Y-63305414D02*
X89533683Y-63269700D01*
X89533683Y-63269700D02*
X89497969Y-63233985D01*
X89497969Y-63233985D02*
X89462255Y-63162557D01*
X89462255Y-63162557D02*
X89462255Y-62948271D01*
X89462255Y-62948271D02*
X89497969Y-62876842D01*
X89497969Y-62876842D02*
X89533683Y-62841128D01*
X89533683Y-62841128D02*
X89605112Y-62805414D01*
X89605112Y-62805414D02*
X89712255Y-62805414D01*
X89712255Y-62805414D02*
X89783683Y-62841128D01*
X89783683Y-62841128D02*
X89819398Y-62876842D01*
X89819398Y-62876842D02*
X89855112Y-62948271D01*
X89855112Y-62948271D02*
X89855112Y-63162557D01*
X89855112Y-63162557D02*
X89819398Y-63233985D01*
X89819398Y-63233985D02*
X89783683Y-63269700D01*
X89783683Y-63269700D02*
X89712255Y-63305414D01*
X89712255Y-63305414D02*
X89605112Y-63305414D01*
X90462254Y-63269700D02*
X90390826Y-63305414D01*
X90390826Y-63305414D02*
X90247969Y-63305414D01*
X90247969Y-63305414D02*
X90176540Y-63269700D01*
X90176540Y-63269700D02*
X90140826Y-63198271D01*
X90140826Y-63198271D02*
X90140826Y-62912557D01*
X90140826Y-62912557D02*
X90176540Y-62841128D01*
X90176540Y-62841128D02*
X90247969Y-62805414D01*
X90247969Y-62805414D02*
X90390826Y-62805414D01*
X90390826Y-62805414D02*
X90462254Y-62841128D01*
X90462254Y-62841128D02*
X90497969Y-62912557D01*
X90497969Y-62912557D02*
X90497969Y-62983985D01*
X90497969Y-62983985D02*
X90140826Y-63055414D01*
X90926540Y-63305414D02*
X90855111Y-63269700D01*
X90855111Y-63269700D02*
X90819397Y-63198271D01*
X90819397Y-63198271D02*
X90819397Y-62555414D01*
X91676540Y-62948271D02*
X91640825Y-62912557D01*
X91640825Y-62912557D02*
X91569397Y-62876842D01*
X91569397Y-62876842D02*
X91497968Y-62876842D01*
X91497968Y-62876842D02*
X91426540Y-62912557D01*
X91426540Y-62912557D02*
X91390825Y-62948271D01*
X91390825Y-62948271D02*
X91355111Y-63019700D01*
X91355111Y-63019700D02*
X91355111Y-63091128D01*
X91355111Y-63091128D02*
X91390825Y-63162557D01*
X91390825Y-63162557D02*
X91426540Y-63198271D01*
X91426540Y-63198271D02*
X91497968Y-63233985D01*
X91497968Y-63233985D02*
X91569397Y-63233985D01*
X91569397Y-63233985D02*
X91640825Y-63198271D01*
X91640825Y-63198271D02*
X91676540Y-63162557D01*
X91676540Y-62876842D02*
X91676540Y-63162557D01*
X91676540Y-63162557D02*
X91712254Y-63198271D01*
X91712254Y-63198271D02*
X91747968Y-63198271D01*
X91747968Y-63198271D02*
X91819397Y-63162557D01*
X91819397Y-63162557D02*
X91855111Y-63091128D01*
X91855111Y-63091128D02*
X91855111Y-62912557D01*
X91855111Y-62912557D02*
X91783683Y-62805414D01*
X91783683Y-62805414D02*
X91676540Y-62733985D01*
X91676540Y-62733985D02*
X91533683Y-62698271D01*
X91533683Y-62698271D02*
X91390825Y-62733985D01*
X91390825Y-62733985D02*
X91283683Y-62805414D01*
X91283683Y-62805414D02*
X91212254Y-62912557D01*
X91212254Y-62912557D02*
X91176540Y-63055414D01*
X91176540Y-63055414D02*
X91212254Y-63198271D01*
X91212254Y-63198271D02*
X91283683Y-63305414D01*
X91283683Y-63305414D02*
X91390825Y-63376842D01*
X91390825Y-63376842D02*
X91533683Y-63412557D01*
X91533683Y-63412557D02*
X91676540Y-63376842D01*
X91676540Y-63376842D02*
X91783683Y-63305414D01*
X92497969Y-62805414D02*
X92497969Y-63412557D01*
X92497969Y-63412557D02*
X92462254Y-63483985D01*
X92462254Y-63483985D02*
X92426540Y-63519700D01*
X92426540Y-63519700D02*
X92355111Y-63555414D01*
X92355111Y-63555414D02*
X92247969Y-63555414D01*
X92247969Y-63555414D02*
X92176540Y-63519700D01*
X92497969Y-63269700D02*
X92426540Y-63305414D01*
X92426540Y-63305414D02*
X92283683Y-63305414D01*
X92283683Y-63305414D02*
X92212254Y-63269700D01*
X92212254Y-63269700D02*
X92176540Y-63233985D01*
X92176540Y-63233985D02*
X92140826Y-63162557D01*
X92140826Y-63162557D02*
X92140826Y-62948271D01*
X92140826Y-62948271D02*
X92176540Y-62876842D01*
X92176540Y-62876842D02*
X92212254Y-62841128D01*
X92212254Y-62841128D02*
X92283683Y-62805414D01*
X92283683Y-62805414D02*
X92426540Y-62805414D01*
X92426540Y-62805414D02*
X92497969Y-62841128D01*
X92855111Y-63305414D02*
X92855111Y-62805414D01*
X92855111Y-62876842D02*
X92890825Y-62841128D01*
X92890825Y-62841128D02*
X92962254Y-62805414D01*
X92962254Y-62805414D02*
X93069397Y-62805414D01*
X93069397Y-62805414D02*
X93140825Y-62841128D01*
X93140825Y-62841128D02*
X93176540Y-62912557D01*
X93176540Y-62912557D02*
X93176540Y-63305414D01*
X93176540Y-62912557D02*
X93212254Y-62841128D01*
X93212254Y-62841128D02*
X93283682Y-62805414D01*
X93283682Y-62805414D02*
X93390825Y-62805414D01*
X93390825Y-62805414D02*
X93462254Y-62841128D01*
X93462254Y-62841128D02*
X93497968Y-62912557D01*
X93497968Y-62912557D02*
X93497968Y-63305414D01*
X94176540Y-63305414D02*
X94176540Y-62912557D01*
X94176540Y-62912557D02*
X94140825Y-62841128D01*
X94140825Y-62841128D02*
X94069397Y-62805414D01*
X94069397Y-62805414D02*
X93926540Y-62805414D01*
X93926540Y-62805414D02*
X93855111Y-62841128D01*
X94176540Y-63269700D02*
X94105111Y-63305414D01*
X94105111Y-63305414D02*
X93926540Y-63305414D01*
X93926540Y-63305414D02*
X93855111Y-63269700D01*
X93855111Y-63269700D02*
X93819397Y-63198271D01*
X93819397Y-63198271D02*
X93819397Y-63126842D01*
X93819397Y-63126842D02*
X93855111Y-63055414D01*
X93855111Y-63055414D02*
X93926540Y-63019700D01*
X93926540Y-63019700D02*
X94105111Y-63019700D01*
X94105111Y-63019700D02*
X94176540Y-62983985D01*
X94533682Y-63305414D02*
X94533682Y-62805414D01*
X94533682Y-62555414D02*
X94497968Y-62591128D01*
X94497968Y-62591128D02*
X94533682Y-62626842D01*
X94533682Y-62626842D02*
X94569396Y-62591128D01*
X94569396Y-62591128D02*
X94533682Y-62555414D01*
X94533682Y-62555414D02*
X94533682Y-62626842D01*
X94997968Y-63305414D02*
X94926539Y-63269700D01*
X94926539Y-63269700D02*
X94890825Y-63198271D01*
X94890825Y-63198271D02*
X94890825Y-62555414D01*
X95283682Y-63233985D02*
X95319396Y-63269700D01*
X95319396Y-63269700D02*
X95283682Y-63305414D01*
X95283682Y-63305414D02*
X95247968Y-63269700D01*
X95247968Y-63269700D02*
X95283682Y-63233985D01*
X95283682Y-63233985D02*
X95283682Y-63305414D01*
X95962254Y-63269700D02*
X95890825Y-63305414D01*
X95890825Y-63305414D02*
X95747968Y-63305414D01*
X95747968Y-63305414D02*
X95676539Y-63269700D01*
X95676539Y-63269700D02*
X95640825Y-63233985D01*
X95640825Y-63233985D02*
X95605111Y-63162557D01*
X95605111Y-63162557D02*
X95605111Y-62948271D01*
X95605111Y-62948271D02*
X95640825Y-62876842D01*
X95640825Y-62876842D02*
X95676539Y-62841128D01*
X95676539Y-62841128D02*
X95747968Y-62805414D01*
X95747968Y-62805414D02*
X95890825Y-62805414D01*
X95890825Y-62805414D02*
X95962254Y-62841128D01*
X96390825Y-63305414D02*
X96319396Y-63269700D01*
X96319396Y-63269700D02*
X96283682Y-63233985D01*
X96283682Y-63233985D02*
X96247968Y-63162557D01*
X96247968Y-63162557D02*
X96247968Y-62948271D01*
X96247968Y-62948271D02*
X96283682Y-62876842D01*
X96283682Y-62876842D02*
X96319396Y-62841128D01*
X96319396Y-62841128D02*
X96390825Y-62805414D01*
X96390825Y-62805414D02*
X96497968Y-62805414D01*
X96497968Y-62805414D02*
X96569396Y-62841128D01*
X96569396Y-62841128D02*
X96605111Y-62876842D01*
X96605111Y-62876842D02*
X96640825Y-62948271D01*
X96640825Y-62948271D02*
X96640825Y-63162557D01*
X96640825Y-63162557D02*
X96605111Y-63233985D01*
X96605111Y-63233985D02*
X96569396Y-63269700D01*
X96569396Y-63269700D02*
X96497968Y-63305414D01*
X96497968Y-63305414D02*
X96390825Y-63305414D01*
X96962253Y-63305414D02*
X96962253Y-62805414D01*
X96962253Y-62876842D02*
X96997967Y-62841128D01*
X96997967Y-62841128D02*
X97069396Y-62805414D01*
X97069396Y-62805414D02*
X97176539Y-62805414D01*
X97176539Y-62805414D02*
X97247967Y-62841128D01*
X97247967Y-62841128D02*
X97283682Y-62912557D01*
X97283682Y-62912557D02*
X97283682Y-63305414D01*
X97283682Y-62912557D02*
X97319396Y-62841128D01*
X97319396Y-62841128D02*
X97390824Y-62805414D01*
X97390824Y-62805414D02*
X97497967Y-62805414D01*
X97497967Y-62805414D02*
X97569396Y-62841128D01*
X97569396Y-62841128D02*
X97605110Y-62912557D01*
X97605110Y-62912557D02*
X97605110Y-63305414D01*
X105320414Y-63199173D02*
X105320414Y-62734887D01*
X105320414Y-62734887D02*
X105606128Y-62984887D01*
X105606128Y-62984887D02*
X105606128Y-62877744D01*
X105606128Y-62877744D02*
X105641842Y-62806316D01*
X105641842Y-62806316D02*
X105677557Y-62770601D01*
X105677557Y-62770601D02*
X105748985Y-62734887D01*
X105748985Y-62734887D02*
X105927557Y-62734887D01*
X105927557Y-62734887D02*
X105998985Y-62770601D01*
X105998985Y-62770601D02*
X106034700Y-62806316D01*
X106034700Y-62806316D02*
X106070414Y-62877744D01*
X106070414Y-62877744D02*
X106070414Y-63092030D01*
X106070414Y-63092030D02*
X106034700Y-63163458D01*
X106034700Y-63163458D02*
X105998985Y-63199173D01*
X105784700Y-62413458D02*
X105784700Y-61842030D01*
X105320414Y-60659173D02*
X105320414Y-60194887D01*
X105320414Y-60194887D02*
X105606128Y-60444887D01*
X105606128Y-60444887D02*
X105606128Y-60337744D01*
X105606128Y-60337744D02*
X105641842Y-60266316D01*
X105641842Y-60266316D02*
X105677557Y-60230601D01*
X105677557Y-60230601D02*
X105748985Y-60194887D01*
X105748985Y-60194887D02*
X105927557Y-60194887D01*
X105927557Y-60194887D02*
X105998985Y-60230601D01*
X105998985Y-60230601D02*
X106034700Y-60266316D01*
X106034700Y-60266316D02*
X106070414Y-60337744D01*
X106070414Y-60337744D02*
X106070414Y-60552030D01*
X106070414Y-60552030D02*
X106034700Y-60623458D01*
X106034700Y-60623458D02*
X105998985Y-60659173D01*
X105784700Y-59873458D02*
X105784700Y-59302030D01*
X106070414Y-59587744D02*
X105498985Y-59587744D01*
X105391842Y-58083458D02*
X105356128Y-58047744D01*
X105356128Y-58047744D02*
X105320414Y-57976316D01*
X105320414Y-57976316D02*
X105320414Y-57797744D01*
X105320414Y-57797744D02*
X105356128Y-57726316D01*
X105356128Y-57726316D02*
X105391842Y-57690601D01*
X105391842Y-57690601D02*
X105463271Y-57654887D01*
X105463271Y-57654887D02*
X105534700Y-57654887D01*
X105534700Y-57654887D02*
X105641842Y-57690601D01*
X105641842Y-57690601D02*
X106070414Y-58119173D01*
X106070414Y-58119173D02*
X106070414Y-57654887D01*
X105784700Y-57333458D02*
X105784700Y-56762030D01*
X105391842Y-55543458D02*
X105356128Y-55507744D01*
X105356128Y-55507744D02*
X105320414Y-55436316D01*
X105320414Y-55436316D02*
X105320414Y-55257744D01*
X105320414Y-55257744D02*
X105356128Y-55186316D01*
X105356128Y-55186316D02*
X105391842Y-55150601D01*
X105391842Y-55150601D02*
X105463271Y-55114887D01*
X105463271Y-55114887D02*
X105534700Y-55114887D01*
X105534700Y-55114887D02*
X105641842Y-55150601D01*
X105641842Y-55150601D02*
X106070414Y-55579173D01*
X106070414Y-55579173D02*
X106070414Y-55114887D01*
X105784700Y-54793458D02*
X105784700Y-54222030D01*
X106070414Y-54507744D02*
X105498985Y-54507744D01*
X106070414Y-52574887D02*
X106070414Y-53003458D01*
X106070414Y-52789173D02*
X105320414Y-52789173D01*
X105320414Y-52789173D02*
X105427557Y-52860601D01*
X105427557Y-52860601D02*
X105498985Y-52932030D01*
X105498985Y-52932030D02*
X105534700Y-53003458D01*
X105784700Y-52253458D02*
X105784700Y-51682030D01*
X106132914Y-50034887D02*
X106132914Y-50463458D01*
X106132914Y-50249173D02*
X105382914Y-50249173D01*
X105382914Y-50249173D02*
X105490057Y-50320601D01*
X105490057Y-50320601D02*
X105561485Y-50392030D01*
X105561485Y-50392030D02*
X105597200Y-50463458D01*
X105847200Y-49713458D02*
X105847200Y-49142030D01*
X106132914Y-49427744D02*
X105561485Y-49427744D01*
X105320414Y-47744887D02*
X105320414Y-47673458D01*
X105320414Y-47673458D02*
X105356128Y-47602030D01*
X105356128Y-47602030D02*
X105391842Y-47566316D01*
X105391842Y-47566316D02*
X105463271Y-47530601D01*
X105463271Y-47530601D02*
X105606128Y-47494887D01*
X105606128Y-47494887D02*
X105784700Y-47494887D01*
X105784700Y-47494887D02*
X105927557Y-47530601D01*
X105927557Y-47530601D02*
X105998985Y-47566316D01*
X105998985Y-47566316D02*
X106034700Y-47602030D01*
X106034700Y-47602030D02*
X106070414Y-47673458D01*
X106070414Y-47673458D02*
X106070414Y-47744887D01*
X106070414Y-47744887D02*
X106034700Y-47816316D01*
X106034700Y-47816316D02*
X105998985Y-47852030D01*
X105998985Y-47852030D02*
X105927557Y-47887744D01*
X105927557Y-47887744D02*
X105784700Y-47923458D01*
X105784700Y-47923458D02*
X105606128Y-47923458D01*
X105606128Y-47923458D02*
X105463271Y-47887744D01*
X105463271Y-47887744D02*
X105391842Y-47852030D01*
X105391842Y-47852030D02*
X105356128Y-47816316D01*
X105356128Y-47816316D02*
X105320414Y-47744887D01*
X105784700Y-47173458D02*
X105784700Y-46602030D01*
X105320414Y-45204887D02*
X105320414Y-45133458D01*
X105320414Y-45133458D02*
X105356128Y-45062030D01*
X105356128Y-45062030D02*
X105391842Y-45026316D01*
X105391842Y-45026316D02*
X105463271Y-44990601D01*
X105463271Y-44990601D02*
X105606128Y-44954887D01*
X105606128Y-44954887D02*
X105784700Y-44954887D01*
X105784700Y-44954887D02*
X105927557Y-44990601D01*
X105927557Y-44990601D02*
X105998985Y-45026316D01*
X105998985Y-45026316D02*
X106034700Y-45062030D01*
X106034700Y-45062030D02*
X106070414Y-45133458D01*
X106070414Y-45133458D02*
X106070414Y-45204887D01*
X106070414Y-45204887D02*
X106034700Y-45276316D01*
X106034700Y-45276316D02*
X105998985Y-45312030D01*
X105998985Y-45312030D02*
X105927557Y-45347744D01*
X105927557Y-45347744D02*
X105784700Y-45383458D01*
X105784700Y-45383458D02*
X105606128Y-45383458D01*
X105606128Y-45383458D02*
X105463271Y-45347744D01*
X105463271Y-45347744D02*
X105391842Y-45312030D01*
X105391842Y-45312030D02*
X105356128Y-45276316D01*
X105356128Y-45276316D02*
X105320414Y-45204887D01*
X105784700Y-44633458D02*
X105784700Y-44062030D01*
X106070414Y-44347744D02*
X105498985Y-44347744D01*
X79366371Y-62170112D02*
X79402085Y-62098684D01*
X79402085Y-62098684D02*
X79402085Y-61991541D01*
X79402085Y-61991541D02*
X79366371Y-61884398D01*
X79366371Y-61884398D02*
X79294942Y-61812969D01*
X79294942Y-61812969D02*
X79223514Y-61777255D01*
X79223514Y-61777255D02*
X79080657Y-61741541D01*
X79080657Y-61741541D02*
X78973514Y-61741541D01*
X78973514Y-61741541D02*
X78830657Y-61777255D01*
X78830657Y-61777255D02*
X78759228Y-61812969D01*
X78759228Y-61812969D02*
X78687800Y-61884398D01*
X78687800Y-61884398D02*
X78652085Y-61991541D01*
X78652085Y-61991541D02*
X78652085Y-62062969D01*
X78652085Y-62062969D02*
X78687800Y-62170112D01*
X78687800Y-62170112D02*
X78723514Y-62205826D01*
X78723514Y-62205826D02*
X78973514Y-62205826D01*
X78973514Y-62205826D02*
X78973514Y-62062969D01*
X78652085Y-62527255D02*
X79402085Y-62527255D01*
X79402085Y-62527255D02*
X78652085Y-62955826D01*
X78652085Y-62955826D02*
X79402085Y-62955826D01*
X78652085Y-63312969D02*
X79402085Y-63312969D01*
X79402085Y-63312969D02*
X79402085Y-63491540D01*
X79402085Y-63491540D02*
X79366371Y-63598683D01*
X79366371Y-63598683D02*
X79294942Y-63670112D01*
X79294942Y-63670112D02*
X79223514Y-63705826D01*
X79223514Y-63705826D02*
X79080657Y-63741540D01*
X79080657Y-63741540D02*
X78973514Y-63741540D01*
X78973514Y-63741540D02*
X78830657Y-63705826D01*
X78830657Y-63705826D02*
X78759228Y-63670112D01*
X78759228Y-63670112D02*
X78687800Y-63598683D01*
X78687800Y-63598683D02*
X78652085Y-63491540D01*
X78652085Y-63491540D02*
X78652085Y-63312969D01*
X79366371Y-59630112D02*
X79402085Y-59558684D01*
X79402085Y-59558684D02*
X79402085Y-59451541D01*
X79402085Y-59451541D02*
X79366371Y-59344398D01*
X79366371Y-59344398D02*
X79294942Y-59272969D01*
X79294942Y-59272969D02*
X79223514Y-59237255D01*
X79223514Y-59237255D02*
X79080657Y-59201541D01*
X79080657Y-59201541D02*
X78973514Y-59201541D01*
X78973514Y-59201541D02*
X78830657Y-59237255D01*
X78830657Y-59237255D02*
X78759228Y-59272969D01*
X78759228Y-59272969D02*
X78687800Y-59344398D01*
X78687800Y-59344398D02*
X78652085Y-59451541D01*
X78652085Y-59451541D02*
X78652085Y-59522969D01*
X78652085Y-59522969D02*
X78687800Y-59630112D01*
X78687800Y-59630112D02*
X78723514Y-59665826D01*
X78723514Y-59665826D02*
X78973514Y-59665826D01*
X78973514Y-59665826D02*
X78973514Y-59522969D01*
X78652085Y-59987255D02*
X79402085Y-59987255D01*
X79402085Y-59987255D02*
X78652085Y-60415826D01*
X78652085Y-60415826D02*
X79402085Y-60415826D01*
X78652085Y-60772969D02*
X79402085Y-60772969D01*
X79402085Y-60772969D02*
X79402085Y-60951540D01*
X79402085Y-60951540D02*
X79366371Y-61058683D01*
X79366371Y-61058683D02*
X79294942Y-61130112D01*
X79294942Y-61130112D02*
X79223514Y-61165826D01*
X79223514Y-61165826D02*
X79080657Y-61201540D01*
X79080657Y-61201540D02*
X78973514Y-61201540D01*
X78973514Y-61201540D02*
X78830657Y-61165826D01*
X78830657Y-61165826D02*
X78759228Y-61130112D01*
X78759228Y-61130112D02*
X78687800Y-61058683D01*
X78687800Y-61058683D02*
X78652085Y-60951540D01*
X78652085Y-60951540D02*
X78652085Y-60772969D01*
X79366371Y-57090112D02*
X79402085Y-57018684D01*
X79402085Y-57018684D02*
X79402085Y-56911541D01*
X79402085Y-56911541D02*
X79366371Y-56804398D01*
X79366371Y-56804398D02*
X79294942Y-56732969D01*
X79294942Y-56732969D02*
X79223514Y-56697255D01*
X79223514Y-56697255D02*
X79080657Y-56661541D01*
X79080657Y-56661541D02*
X78973514Y-56661541D01*
X78973514Y-56661541D02*
X78830657Y-56697255D01*
X78830657Y-56697255D02*
X78759228Y-56732969D01*
X78759228Y-56732969D02*
X78687800Y-56804398D01*
X78687800Y-56804398D02*
X78652085Y-56911541D01*
X78652085Y-56911541D02*
X78652085Y-56982969D01*
X78652085Y-56982969D02*
X78687800Y-57090112D01*
X78687800Y-57090112D02*
X78723514Y-57125826D01*
X78723514Y-57125826D02*
X78973514Y-57125826D01*
X78973514Y-57125826D02*
X78973514Y-56982969D01*
X78652085Y-57447255D02*
X79402085Y-57447255D01*
X79402085Y-57447255D02*
X78652085Y-57875826D01*
X78652085Y-57875826D02*
X79402085Y-57875826D01*
X78652085Y-58232969D02*
X79402085Y-58232969D01*
X79402085Y-58232969D02*
X79402085Y-58411540D01*
X79402085Y-58411540D02*
X79366371Y-58518683D01*
X79366371Y-58518683D02*
X79294942Y-58590112D01*
X79294942Y-58590112D02*
X79223514Y-58625826D01*
X79223514Y-58625826D02*
X79080657Y-58661540D01*
X79080657Y-58661540D02*
X78973514Y-58661540D01*
X78973514Y-58661540D02*
X78830657Y-58625826D01*
X78830657Y-58625826D02*
X78759228Y-58590112D01*
X78759228Y-58590112D02*
X78687800Y-58518683D01*
X78687800Y-58518683D02*
X78652085Y-58411540D01*
X78652085Y-58411540D02*
X78652085Y-58232969D01*
X78714585Y-54157255D02*
X79464585Y-54157255D01*
X79214585Y-54514398D02*
X78714585Y-54514398D01*
X79143157Y-54514398D02*
X79178871Y-54550112D01*
X79178871Y-54550112D02*
X79214585Y-54621541D01*
X79214585Y-54621541D02*
X79214585Y-54728684D01*
X79214585Y-54728684D02*
X79178871Y-54800112D01*
X79178871Y-54800112D02*
X79107442Y-54835827D01*
X79107442Y-54835827D02*
X78714585Y-54835827D01*
X79214585Y-55514398D02*
X78714585Y-55514398D01*
X79500300Y-55335826D02*
X78964585Y-55157255D01*
X78964585Y-55157255D02*
X78964585Y-55621540D01*
X78777085Y-51617255D02*
X79527085Y-51617255D01*
X79277085Y-51974398D02*
X78777085Y-51974398D01*
X79205657Y-51974398D02*
X79241371Y-52010112D01*
X79241371Y-52010112D02*
X79277085Y-52081541D01*
X79277085Y-52081541D02*
X79277085Y-52188684D01*
X79277085Y-52188684D02*
X79241371Y-52260112D01*
X79241371Y-52260112D02*
X79169942Y-52295827D01*
X79169942Y-52295827D02*
X78777085Y-52295827D01*
X79527085Y-52581540D02*
X79527085Y-53045826D01*
X79527085Y-53045826D02*
X79241371Y-52795826D01*
X79241371Y-52795826D02*
X79241371Y-52902969D01*
X79241371Y-52902969D02*
X79205657Y-52974398D01*
X79205657Y-52974398D02*
X79169942Y-53010112D01*
X79169942Y-53010112D02*
X79098514Y-53045826D01*
X79098514Y-53045826D02*
X78919942Y-53045826D01*
X78919942Y-53045826D02*
X78848514Y-53010112D01*
X78848514Y-53010112D02*
X78812800Y-52974398D01*
X78812800Y-52974398D02*
X78777085Y-52902969D01*
X78777085Y-52902969D02*
X78777085Y-52688683D01*
X78777085Y-52688683D02*
X78812800Y-52617255D01*
X78812800Y-52617255D02*
X78848514Y-52581540D01*
X78777085Y-49077255D02*
X79527085Y-49077255D01*
X79277085Y-49434398D02*
X78777085Y-49434398D01*
X79205657Y-49434398D02*
X79241371Y-49470112D01*
X79241371Y-49470112D02*
X79277085Y-49541541D01*
X79277085Y-49541541D02*
X79277085Y-49648684D01*
X79277085Y-49648684D02*
X79241371Y-49720112D01*
X79241371Y-49720112D02*
X79169942Y-49755827D01*
X79169942Y-49755827D02*
X78777085Y-49755827D01*
X79455657Y-50077255D02*
X79491371Y-50112969D01*
X79491371Y-50112969D02*
X79527085Y-50184398D01*
X79527085Y-50184398D02*
X79527085Y-50362969D01*
X79527085Y-50362969D02*
X79491371Y-50434398D01*
X79491371Y-50434398D02*
X79455657Y-50470112D01*
X79455657Y-50470112D02*
X79384228Y-50505826D01*
X79384228Y-50505826D02*
X79312800Y-50505826D01*
X79312800Y-50505826D02*
X79205657Y-50470112D01*
X79205657Y-50470112D02*
X78777085Y-50041540D01*
X78777085Y-50041540D02*
X78777085Y-50505826D01*
X78777085Y-46537255D02*
X79527085Y-46537255D01*
X79277085Y-46894398D02*
X78777085Y-46894398D01*
X79205657Y-46894398D02*
X79241371Y-46930112D01*
X79241371Y-46930112D02*
X79277085Y-47001541D01*
X79277085Y-47001541D02*
X79277085Y-47108684D01*
X79277085Y-47108684D02*
X79241371Y-47180112D01*
X79241371Y-47180112D02*
X79169942Y-47215827D01*
X79169942Y-47215827D02*
X78777085Y-47215827D01*
X78777085Y-47965826D02*
X78777085Y-47537255D01*
X78777085Y-47751540D02*
X79527085Y-47751540D01*
X79527085Y-47751540D02*
X79419942Y-47680112D01*
X79419942Y-47680112D02*
X79348514Y-47608683D01*
X79348514Y-47608683D02*
X79312800Y-47537255D01*
X78839585Y-43362255D02*
X79589585Y-43362255D01*
X79589585Y-43362255D02*
X79589585Y-43647969D01*
X79589585Y-43647969D02*
X79553871Y-43719398D01*
X79553871Y-43719398D02*
X79518157Y-43755112D01*
X79518157Y-43755112D02*
X79446728Y-43790826D01*
X79446728Y-43790826D02*
X79339585Y-43790826D01*
X79339585Y-43790826D02*
X79268157Y-43755112D01*
X79268157Y-43755112D02*
X79232442Y-43719398D01*
X79232442Y-43719398D02*
X79196728Y-43647969D01*
X79196728Y-43647969D02*
X79196728Y-43362255D01*
X79589585Y-44040826D02*
X78839585Y-44219398D01*
X78839585Y-44219398D02*
X79375300Y-44362255D01*
X79375300Y-44362255D02*
X78839585Y-44505112D01*
X78839585Y-44505112D02*
X79589585Y-44683684D01*
X78839585Y-45397969D02*
X79196728Y-45147969D01*
X78839585Y-44969398D02*
X79589585Y-44969398D01*
X79589585Y-44969398D02*
X79589585Y-45255112D01*
X79589585Y-45255112D02*
X79553871Y-45326541D01*
X79553871Y-45326541D02*
X79518157Y-45362255D01*
X79518157Y-45362255D02*
X79446728Y-45397969D01*
X79446728Y-45397969D02*
X79339585Y-45397969D01*
X79339585Y-45397969D02*
X79268157Y-45362255D01*
X79268157Y-45362255D02*
X79232442Y-45326541D01*
X79232442Y-45326541D02*
X79196728Y-45255112D01*
X79196728Y-45255112D02*
X79196728Y-44969398D01*
X92058261Y-43775057D02*
X91963023Y-43727438D01*
X91963023Y-43727438D02*
X91867785Y-43632200D01*
X91867785Y-43632200D02*
X91724928Y-43489342D01*
X91724928Y-43489342D02*
X91629690Y-43441723D01*
X91629690Y-43441723D02*
X91534452Y-43441723D01*
X91582071Y-43679819D02*
X91486833Y-43632200D01*
X91486833Y-43632200D02*
X91391595Y-43536961D01*
X91391595Y-43536961D02*
X91343976Y-43346485D01*
X91343976Y-43346485D02*
X91343976Y-43013152D01*
X91343976Y-43013152D02*
X91391595Y-42822676D01*
X91391595Y-42822676D02*
X91486833Y-42727438D01*
X91486833Y-42727438D02*
X91582071Y-42679819D01*
X91582071Y-42679819D02*
X91772547Y-42679819D01*
X91772547Y-42679819D02*
X91867785Y-42727438D01*
X91867785Y-42727438D02*
X91963023Y-42822676D01*
X91963023Y-42822676D02*
X92010642Y-43013152D01*
X92010642Y-43013152D02*
X92010642Y-43346485D01*
X92010642Y-43346485D02*
X91963023Y-43536961D01*
X91963023Y-43536961D02*
X91867785Y-43632200D01*
X91867785Y-43632200D02*
X91772547Y-43679819D01*
X91772547Y-43679819D02*
X91582071Y-43679819D01*
X92867785Y-43013152D02*
X92867785Y-43679819D01*
X92629690Y-42632200D02*
X92391595Y-43346485D01*
X92391595Y-43346485D02*
X93010642Y-43346485D01*
X88169761Y-58240057D02*
X88074523Y-58192438D01*
X88074523Y-58192438D02*
X87979285Y-58097200D01*
X87979285Y-58097200D02*
X87836428Y-57954342D01*
X87836428Y-57954342D02*
X87741190Y-57906723D01*
X87741190Y-57906723D02*
X87645952Y-57906723D01*
X87693571Y-58144819D02*
X87598333Y-58097200D01*
X87598333Y-58097200D02*
X87503095Y-58001961D01*
X87503095Y-58001961D02*
X87455476Y-57811485D01*
X87455476Y-57811485D02*
X87455476Y-57478152D01*
X87455476Y-57478152D02*
X87503095Y-57287676D01*
X87503095Y-57287676D02*
X87598333Y-57192438D01*
X87598333Y-57192438D02*
X87693571Y-57144819D01*
X87693571Y-57144819D02*
X87884047Y-57144819D01*
X87884047Y-57144819D02*
X87979285Y-57192438D01*
X87979285Y-57192438D02*
X88074523Y-57287676D01*
X88074523Y-57287676D02*
X88122142Y-57478152D01*
X88122142Y-57478152D02*
X88122142Y-57811485D01*
X88122142Y-57811485D02*
X88074523Y-58001961D01*
X88074523Y-58001961D02*
X87979285Y-58097200D01*
X87979285Y-58097200D02*
X87884047Y-58144819D01*
X87884047Y-58144819D02*
X87693571Y-58144819D01*
X88455476Y-57144819D02*
X89074523Y-57144819D01*
X89074523Y-57144819D02*
X88741190Y-57525771D01*
X88741190Y-57525771D02*
X88884047Y-57525771D01*
X88884047Y-57525771D02*
X88979285Y-57573390D01*
X88979285Y-57573390D02*
X89026904Y-57621009D01*
X89026904Y-57621009D02*
X89074523Y-57716247D01*
X89074523Y-57716247D02*
X89074523Y-57954342D01*
X89074523Y-57954342D02*
X89026904Y-58049580D01*
X89026904Y-58049580D02*
X88979285Y-58097200D01*
X88979285Y-58097200D02*
X88884047Y-58144819D01*
X88884047Y-58144819D02*
X88598333Y-58144819D01*
X88598333Y-58144819D02*
X88503095Y-58097200D01*
X88503095Y-58097200D02*
X88455476Y-58049580D01*
X88169761Y-56335057D02*
X88074523Y-56287438D01*
X88074523Y-56287438D02*
X87979285Y-56192200D01*
X87979285Y-56192200D02*
X87836428Y-56049342D01*
X87836428Y-56049342D02*
X87741190Y-56001723D01*
X87741190Y-56001723D02*
X87645952Y-56001723D01*
X87693571Y-56239819D02*
X87598333Y-56192200D01*
X87598333Y-56192200D02*
X87503095Y-56096961D01*
X87503095Y-56096961D02*
X87455476Y-55906485D01*
X87455476Y-55906485D02*
X87455476Y-55573152D01*
X87455476Y-55573152D02*
X87503095Y-55382676D01*
X87503095Y-55382676D02*
X87598333Y-55287438D01*
X87598333Y-55287438D02*
X87693571Y-55239819D01*
X87693571Y-55239819D02*
X87884047Y-55239819D01*
X87884047Y-55239819D02*
X87979285Y-55287438D01*
X87979285Y-55287438D02*
X88074523Y-55382676D01*
X88074523Y-55382676D02*
X88122142Y-55573152D01*
X88122142Y-55573152D02*
X88122142Y-55906485D01*
X88122142Y-55906485D02*
X88074523Y-56096961D01*
X88074523Y-56096961D02*
X87979285Y-56192200D01*
X87979285Y-56192200D02*
X87884047Y-56239819D01*
X87884047Y-56239819D02*
X87693571Y-56239819D01*
X88503095Y-55335057D02*
X88550714Y-55287438D01*
X88550714Y-55287438D02*
X88645952Y-55239819D01*
X88645952Y-55239819D02*
X88884047Y-55239819D01*
X88884047Y-55239819D02*
X88979285Y-55287438D01*
X88979285Y-55287438D02*
X89026904Y-55335057D01*
X89026904Y-55335057D02*
X89074523Y-55430295D01*
X89074523Y-55430295D02*
X89074523Y-55525533D01*
X89074523Y-55525533D02*
X89026904Y-55668390D01*
X89026904Y-55668390D02*
X88455476Y-56239819D01*
X88455476Y-56239819D02*
X89074523Y-56239819D01*
X91550261Y-48474057D02*
X91455023Y-48426438D01*
X91455023Y-48426438D02*
X91359785Y-48331200D01*
X91359785Y-48331200D02*
X91216928Y-48188342D01*
X91216928Y-48188342D02*
X91121690Y-48140723D01*
X91121690Y-48140723D02*
X91026452Y-48140723D01*
X91074071Y-48378819D02*
X90978833Y-48331200D01*
X90978833Y-48331200D02*
X90883595Y-48235961D01*
X90883595Y-48235961D02*
X90835976Y-48045485D01*
X90835976Y-48045485D02*
X90835976Y-47712152D01*
X90835976Y-47712152D02*
X90883595Y-47521676D01*
X90883595Y-47521676D02*
X90978833Y-47426438D01*
X90978833Y-47426438D02*
X91074071Y-47378819D01*
X91074071Y-47378819D02*
X91264547Y-47378819D01*
X91264547Y-47378819D02*
X91359785Y-47426438D01*
X91359785Y-47426438D02*
X91455023Y-47521676D01*
X91455023Y-47521676D02*
X91502642Y-47712152D01*
X91502642Y-47712152D02*
X91502642Y-48045485D01*
X91502642Y-48045485D02*
X91455023Y-48235961D01*
X91455023Y-48235961D02*
X91359785Y-48331200D01*
X91359785Y-48331200D02*
X91264547Y-48378819D01*
X91264547Y-48378819D02*
X91074071Y-48378819D01*
X92455023Y-48378819D02*
X91883595Y-48378819D01*
X92169309Y-48378819D02*
X92169309Y-47378819D01*
X92169309Y-47378819D02*
X92074071Y-47521676D01*
X92074071Y-47521676D02*
X91978833Y-47616914D01*
X91978833Y-47616914D02*
X91883595Y-47664533D01*
X99996666Y-62859819D02*
X99996666Y-63574104D01*
X99996666Y-63574104D02*
X99949047Y-63716961D01*
X99949047Y-63716961D02*
X99853809Y-63812200D01*
X99853809Y-63812200D02*
X99710952Y-63859819D01*
X99710952Y-63859819D02*
X99615714Y-63859819D01*
X100425238Y-62955057D02*
X100472857Y-62907438D01*
X100472857Y-62907438D02*
X100568095Y-62859819D01*
X100568095Y-62859819D02*
X100806190Y-62859819D01*
X100806190Y-62859819D02*
X100901428Y-62907438D01*
X100901428Y-62907438D02*
X100949047Y-62955057D01*
X100949047Y-62955057D02*
X100996666Y-63050295D01*
X100996666Y-63050295D02*
X100996666Y-63145533D01*
X100996666Y-63145533D02*
X100949047Y-63288390D01*
X100949047Y-63288390D02*
X100377619Y-63859819D01*
X100377619Y-63859819D02*
X100996666Y-63859819D01*
X83486666Y-43809819D02*
X83486666Y-44524104D01*
X83486666Y-44524104D02*
X83439047Y-44666961D01*
X83439047Y-44666961D02*
X83343809Y-44762200D01*
X83343809Y-44762200D02*
X83200952Y-44809819D01*
X83200952Y-44809819D02*
X83105714Y-44809819D01*
X84486666Y-44809819D02*
X83915238Y-44809819D01*
X84200952Y-44809819D02*
X84200952Y-43809819D01*
X84200952Y-43809819D02*
X84105714Y-43952676D01*
X84105714Y-43952676D02*
X84010476Y-44047914D01*
X84010476Y-44047914D02*
X83915238Y-44095533D01*
X96670905Y-60644819D02*
X96670905Y-59644819D01*
X96670905Y-59644819D02*
X96909000Y-59644819D01*
X96909000Y-59644819D02*
X97051857Y-59692438D01*
X97051857Y-59692438D02*
X97147095Y-59787676D01*
X97147095Y-59787676D02*
X97194714Y-59882914D01*
X97194714Y-59882914D02*
X97242333Y-60073390D01*
X97242333Y-60073390D02*
X97242333Y-60216247D01*
X97242333Y-60216247D02*
X97194714Y-60406723D01*
X97194714Y-60406723D02*
X97147095Y-60501961D01*
X97147095Y-60501961D02*
X97051857Y-60597200D01*
X97051857Y-60597200D02*
X96909000Y-60644819D01*
X96909000Y-60644819D02*
X96670905Y-60644819D01*
X98099476Y-59978152D02*
X98099476Y-60644819D01*
X97861381Y-59597200D02*
X97623286Y-60311485D01*
X97623286Y-60311485D02*
X98242333Y-60311485D01*
X102054819Y-54618094D02*
X101054819Y-54618094D01*
X101054819Y-54618094D02*
X101054819Y-54379999D01*
X101054819Y-54379999D02*
X101102438Y-54237142D01*
X101102438Y-54237142D02*
X101197676Y-54141904D01*
X101197676Y-54141904D02*
X101292914Y-54094285D01*
X101292914Y-54094285D02*
X101483390Y-54046666D01*
X101483390Y-54046666D02*
X101626247Y-54046666D01*
X101626247Y-54046666D02*
X101816723Y-54094285D01*
X101816723Y-54094285D02*
X101911961Y-54141904D01*
X101911961Y-54141904D02*
X102007200Y-54237142D01*
X102007200Y-54237142D02*
X102054819Y-54379999D01*
X102054819Y-54379999D02*
X102054819Y-54618094D01*
X101054819Y-53713332D02*
X101054819Y-53094285D01*
X101054819Y-53094285D02*
X101435771Y-53427618D01*
X101435771Y-53427618D02*
X101435771Y-53284761D01*
X101435771Y-53284761D02*
X101483390Y-53189523D01*
X101483390Y-53189523D02*
X101531009Y-53141904D01*
X101531009Y-53141904D02*
X101626247Y-53094285D01*
X101626247Y-53094285D02*
X101864342Y-53094285D01*
X101864342Y-53094285D02*
X101959580Y-53141904D01*
X101959580Y-53141904D02*
X102007200Y-53189523D01*
X102007200Y-53189523D02*
X102054819Y-53284761D01*
X102054819Y-53284761D02*
X102054819Y-53570475D01*
X102054819Y-53570475D02*
X102007200Y-53665713D01*
X102007200Y-53665713D02*
X101959580Y-53713332D01*
X101962295Y-50660475D02*
X101162295Y-50660475D01*
X101162295Y-50660475D02*
X101162295Y-50469999D01*
X101162295Y-50469999D02*
X101200390Y-50355713D01*
X101200390Y-50355713D02*
X101276580Y-50279523D01*
X101276580Y-50279523D02*
X101352771Y-50241428D01*
X101352771Y-50241428D02*
X101505152Y-50203332D01*
X101505152Y-50203332D02*
X101619438Y-50203332D01*
X101619438Y-50203332D02*
X101771819Y-50241428D01*
X101771819Y-50241428D02*
X101848009Y-50279523D01*
X101848009Y-50279523D02*
X101924200Y-50355713D01*
X101924200Y-50355713D02*
X101962295Y-50469999D01*
X101962295Y-50469999D02*
X101962295Y-50660475D01*
X101238485Y-49898571D02*
X101200390Y-49860475D01*
X101200390Y-49860475D02*
X101162295Y-49784285D01*
X101162295Y-49784285D02*
X101162295Y-49593809D01*
X101162295Y-49593809D02*
X101200390Y-49517618D01*
X101200390Y-49517618D02*
X101238485Y-49479523D01*
X101238485Y-49479523D02*
X101314676Y-49441428D01*
X101314676Y-49441428D02*
X101390866Y-49441428D01*
X101390866Y-49441428D02*
X101505152Y-49479523D01*
X101505152Y-49479523D02*
X101962295Y-49936666D01*
X101962295Y-49936666D02*
X101962295Y-49441428D01*
X96924905Y-48325819D02*
X96924905Y-47325819D01*
X96924905Y-47325819D02*
X97163000Y-47325819D01*
X97163000Y-47325819D02*
X97305857Y-47373438D01*
X97305857Y-47373438D02*
X97401095Y-47468676D01*
X97401095Y-47468676D02*
X97448714Y-47563914D01*
X97448714Y-47563914D02*
X97496333Y-47754390D01*
X97496333Y-47754390D02*
X97496333Y-47897247D01*
X97496333Y-47897247D02*
X97448714Y-48087723D01*
X97448714Y-48087723D02*
X97401095Y-48182961D01*
X97401095Y-48182961D02*
X97305857Y-48278200D01*
X97305857Y-48278200D02*
X97163000Y-48325819D01*
X97163000Y-48325819D02*
X96924905Y-48325819D01*
X98448714Y-48325819D02*
X97877286Y-48325819D01*
X98163000Y-48325819D02*
X98163000Y-47325819D01*
X98163000Y-47325819D02*
X98067762Y-47468676D01*
X98067762Y-47468676D02*
X97972524Y-47563914D01*
X97972524Y-47563914D02*
X97877286Y-47611533D01*
D11*
%TO.C,R8*%
X87710742Y-46528500D02*
X88185258Y-46528500D01*
X87710742Y-45483500D02*
X88185258Y-45483500D01*
%TO.C,R7*%
X87646742Y-54148500D02*
X88121258Y-54148500D01*
X87646742Y-53103500D02*
X88121258Y-53103500D01*
%TO.C,R6*%
X87646742Y-51608500D02*
X88121258Y-51608500D01*
X87646742Y-50563500D02*
X88121258Y-50563500D01*
%TO.C,R5*%
X87710742Y-48941500D02*
X88185258Y-48941500D01*
X87710742Y-47896500D02*
X88185258Y-47896500D01*
%TO.C,R4*%
X84535742Y-55291500D02*
X85010258Y-55291500D01*
X84535742Y-54246500D02*
X85010258Y-54246500D01*
%TO.C,R3*%
X84535742Y-52751500D02*
X85010258Y-52751500D01*
X84535742Y-51706500D02*
X85010258Y-51706500D01*
%TO.C,R2*%
X84535742Y-50211500D02*
X85010258Y-50211500D01*
X84535742Y-49166500D02*
X85010258Y-49166500D01*
%TO.C,R1*%
X84535742Y-47671500D02*
X85010258Y-47671500D01*
X84535742Y-46626500D02*
X85010258Y-46626500D01*
%TO.C,Q4*%
X92153500Y-44065000D02*
X92803500Y-44065000D01*
X92153500Y-47185000D02*
X92803500Y-47185000D01*
X92153500Y-44065000D02*
X90478500Y-44065000D01*
X92153500Y-47185000D02*
X91503500Y-47185000D01*
%TO.C,Q3*%
X91645500Y-56003000D02*
X92295500Y-56003000D01*
X91645500Y-59123000D02*
X92295500Y-59123000D01*
X91645500Y-56003000D02*
X89970500Y-56003000D01*
X91645500Y-59123000D02*
X90995500Y-59123000D01*
%TO.C,Q2*%
X91645500Y-52320000D02*
X92295500Y-52320000D01*
X91645500Y-55440000D02*
X92295500Y-55440000D01*
X91645500Y-52320000D02*
X89970500Y-52320000D01*
X91645500Y-55440000D02*
X90995500Y-55440000D01*
%TO.C,Q1*%
X91645500Y-48764000D02*
X92295500Y-48764000D01*
X91645500Y-51884000D02*
X92295500Y-51884000D01*
X91645500Y-48764000D02*
X89970500Y-48764000D01*
X91645500Y-51884000D02*
X90995500Y-51884000D01*
%TO.C,J2*%
X104962000Y-61119000D02*
X102302000Y-61119000D01*
X104962000Y-43279000D02*
X102302000Y-43279000D01*
X104962000Y-61119000D02*
X104962000Y-43279000D01*
X104962000Y-62389000D02*
X104962000Y-63719000D01*
X102302000Y-61119000D02*
X102302000Y-43279000D01*
X104962000Y-63719000D02*
X103632000Y-63719000D01*
%TO.C,J1*%
X79950000Y-45894000D02*
X82610000Y-45894000D01*
X79950000Y-63734000D02*
X82610000Y-63734000D01*
X79950000Y-45894000D02*
X79950000Y-63734000D01*
X79950000Y-44624000D02*
X79950000Y-43294000D01*
X82610000Y-45894000D02*
X82610000Y-63734000D01*
X79950000Y-43294000D02*
X81280000Y-43294000D01*
%TO.C,D4*%
X95009000Y-59300000D02*
X100819000Y-59300000D01*
X100819000Y-59300000D02*
X100819000Y-56080000D01*
X100819000Y-56080000D02*
X95009000Y-56080000D01*
%TO.C,D3*%
X94996000Y-55617000D02*
X100806000Y-55617000D01*
X100806000Y-55617000D02*
X100806000Y-52397000D01*
X100806000Y-52397000D02*
X94996000Y-52397000D01*
%TO.C,D2*%
X95136000Y-51807000D02*
X100946000Y-51807000D01*
X100946000Y-51807000D02*
X100946000Y-48587000D01*
X100946000Y-48587000D02*
X95136000Y-48587000D01*
%TO.C,D1*%
X95263000Y-46981000D02*
X101073000Y-46981000D01*
X101073000Y-46981000D02*
X101073000Y-43761000D01*
X101073000Y-43761000D02*
X95263000Y-43761000D01*
%TD*%
M02*
