%TF.GenerationSoftware,KiCad,Pcbnew,7.0.7*%
%TF.CreationDate,2023-10-13T16:46:10-07:00*%
%TF.ProjectId,555Trigger,35353554-7269-4676-9765-722e6b696361,0*%
%TF.SameCoordinates,Original*%
%TF.FileFunction,Paste,Top*%
%TF.FilePolarity,Positive*%
%FSLAX46Y46*%
G04 Gerber Fmt 4.6, Leading zero omitted, Abs format (unit mm)*
G04 Created by KiCad (PCBNEW 7.0.7) date 2023-10-13 16:46:10*
%MOMM*%
%LPD*%
G01*
G04 APERTURE LIST*
G04 Aperture macros list*
%AMRoundRect*
0 Rectangle with rounded corners*
0 $1 Rounding radius*
0 $2 $3 $4 $5 $6 $7 $8 $9 X,Y pos of 4 corners*
0 Add a 4 corners polygon primitive as box body*
4,1,4,$2,$3,$4,$5,$6,$7,$8,$9,$2,$3,0*
0 Add four circle primitives for the rounded corners*
1,1,$1+$1,$2,$3*
1,1,$1+$1,$4,$5*
1,1,$1+$1,$6,$7*
1,1,$1+$1,$8,$9*
0 Add four rect primitives between the rounded corners*
20,1,$1+$1,$2,$3,$4,$5,0*
20,1,$1+$1,$4,$5,$6,$7,0*
20,1,$1+$1,$6,$7,$8,$9,0*
20,1,$1+$1,$8,$9,$2,$3,0*%
G04 Aperture macros list end*
%ADD10R,1.600000X1.600000*%
%ADD11R,2.500000X2.500000*%
%ADD12R,0.300000X1.600000*%
%ADD13RoundRect,0.150000X-0.825000X-0.150000X0.825000X-0.150000X0.825000X0.150000X-0.825000X0.150000X0*%
%ADD14RoundRect,0.237500X-0.300000X-0.237500X0.300000X-0.237500X0.300000X0.237500X-0.300000X0.237500X0*%
%ADD15RoundRect,0.250000X0.450000X-0.350000X0.450000X0.350000X-0.450000X0.350000X-0.450000X-0.350000X0*%
%ADD16RoundRect,0.250000X-0.350000X-0.450000X0.350000X-0.450000X0.350000X0.450000X-0.350000X0.450000X0*%
%ADD17RoundRect,0.250000X-0.650000X0.412500X-0.650000X-0.412500X0.650000X-0.412500X0.650000X0.412500X0*%
%ADD18R,1.120000X2.440000*%
%ADD19RoundRect,0.237500X0.300000X0.237500X-0.300000X0.237500X-0.300000X-0.237500X0.300000X-0.237500X0*%
%ADD20R,0.800000X0.300000*%
G04 APERTURE END LIST*
D10*
%TO.C,U9*%
X52070000Y-38354000D03*
X49530000Y-38354000D03*
X46990000Y-38354000D03*
X44450000Y-38354000D03*
X44450000Y-45974000D03*
X46990000Y-45974000D03*
X49530000Y-45974000D03*
X52070000Y-45974000D03*
%TD*%
D11*
%TO.C,Behav_Timing1*%
X61000000Y-83365000D03*
X63500000Y-74115000D03*
X66000000Y-83365000D03*
%TD*%
%TO.C,Brain_Timing1*%
X61000000Y-55425000D03*
X63500000Y-46175000D03*
X66000000Y-55425000D03*
%TD*%
%TO.C,Output_Voltage1*%
X40720000Y-58420000D03*
X43220000Y-49170000D03*
X45720000Y-58420000D03*
%TD*%
%TO.C,Strobe_Timing1*%
X61000000Y-111305000D03*
X63500000Y-102055000D03*
X66000000Y-111305000D03*
%TD*%
D12*
%TO.C,U7*%
X46695000Y-92280000D03*
X46045000Y-92280000D03*
X45395000Y-92280000D03*
X44745000Y-92280000D03*
X44745000Y-95680000D03*
X45395000Y-95680000D03*
X46045000Y-95680000D03*
X46695000Y-95680000D03*
%TD*%
D13*
%TO.C,Brain_555*%
X63435000Y-38735000D03*
X63435000Y-40005000D03*
X63435000Y-41275000D03*
X63435000Y-42545000D03*
X58485000Y-42545000D03*
X58485000Y-41275000D03*
X58485000Y-40005000D03*
X58485000Y-38735000D03*
%TD*%
D14*
%TO.C,Brain_Filter_C1*%
X55065000Y-30480000D03*
X53340000Y-30480000D03*
%TD*%
D15*
%TO.C,Behav_Filter_R1*%
X53340000Y-61500000D03*
X53340000Y-63500000D03*
%TD*%
D16*
%TO.C,R4*%
X43180000Y-63500000D03*
X41180000Y-63500000D03*
%TD*%
D17*
%TO.C,Behav_Timing_C1*%
X71120000Y-77762500D03*
X71120000Y-74637500D03*
%TD*%
D13*
%TO.C,In_Buffer_Strobe1*%
X63435000Y-86995000D03*
X63435000Y-88265000D03*
X63435000Y-89535000D03*
X63435000Y-90805000D03*
X58485000Y-90805000D03*
X58485000Y-89535000D03*
X58485000Y-88265000D03*
X58485000Y-86995000D03*
%TD*%
D14*
%TO.C,Behav_Filter_C1*%
X55880000Y-58420000D03*
X54155000Y-58420000D03*
%TD*%
D13*
%TO.C,In_Buffer_Brain1*%
X63435000Y-31115000D03*
X63435000Y-32385000D03*
X63435000Y-33655000D03*
X63435000Y-34925000D03*
X58485000Y-34925000D03*
X58485000Y-33655000D03*
X58485000Y-32385000D03*
X58485000Y-31115000D03*
%TD*%
D15*
%TO.C,Strobe_Filter_R1*%
X53340000Y-88900000D03*
X53340000Y-90900000D03*
%TD*%
D18*
%TO.C,SW_Behav1*%
X68580000Y-70345000D03*
X68580000Y-61735000D03*
%TD*%
D13*
%TO.C,Strobe_555*%
X63370000Y-94615000D03*
X63370000Y-95885000D03*
X63370000Y-97155000D03*
X63370000Y-98425000D03*
X58420000Y-98425000D03*
X58420000Y-97155000D03*
X58420000Y-95885000D03*
X58420000Y-94615000D03*
%TD*%
D15*
%TO.C,R3*%
X41656000Y-43180000D03*
X41656000Y-45180000D03*
%TD*%
D13*
%TO.C,Behav_555*%
X63435000Y-66675000D03*
X63435000Y-67945000D03*
X63435000Y-69215000D03*
X63435000Y-70485000D03*
X58485000Y-70485000D03*
X58485000Y-69215000D03*
X58485000Y-67945000D03*
X58485000Y-66675000D03*
%TD*%
D17*
%TO.C,Strobe_Timing_C1*%
X71120000Y-105702500D03*
X71120000Y-102577500D03*
%TD*%
D19*
%TO.C,Strobe_Filter_C1*%
X54155000Y-86360000D03*
X55880000Y-86360000D03*
%TD*%
D17*
%TO.C,Brain_Timing_C1*%
X71120000Y-49822500D03*
X71120000Y-46697500D03*
%TD*%
D18*
%TO.C,SW_Strobe1*%
X68580000Y-98285000D03*
X68580000Y-89675000D03*
%TD*%
D15*
%TO.C,Brain_Filter_R1*%
X53340000Y-33560000D03*
X53340000Y-35560000D03*
%TD*%
%TO.C,R2*%
X39116000Y-43180000D03*
X39116000Y-45180000D03*
%TD*%
D20*
%TO.C,U8*%
X48820000Y-84860000D03*
X48820000Y-85360000D03*
X48820000Y-85860000D03*
X48820000Y-86360000D03*
X45720000Y-86360000D03*
X45720000Y-85860000D03*
X45720000Y-85360000D03*
X45720000Y-84860000D03*
%TD*%
D18*
%TO.C,SW_Brain1*%
X68580000Y-42405000D03*
X68580000Y-33795000D03*
%TD*%
D13*
%TO.C,In_Buffer_Behav1*%
X63435000Y-59055000D03*
X63435000Y-60325000D03*
X63435000Y-61595000D03*
X63435000Y-62865000D03*
X58485000Y-62865000D03*
X58485000Y-61595000D03*
X58485000Y-60325000D03*
X58485000Y-59055000D03*
%TD*%
M02*
