%TF.GenerationSoftware,KiCad,Pcbnew,7.0.8-7.0.8~ubuntu22.04.1*%
%TF.CreationDate,2023-10-18T15:00:40-07:00*%
%TF.ProjectId,555Trigger,35353554-7269-4676-9765-722e6b696361,0*%
%TF.SameCoordinates,Original*%
%TF.FileFunction,Copper,L1,Top*%
%TF.FilePolarity,Positive*%
%FSLAX46Y46*%
G04 Gerber Fmt 4.6, Leading zero omitted, Abs format (unit mm)*
G04 Created by KiCad (PCBNEW 7.0.8-7.0.8~ubuntu22.04.1) date 2023-10-18 15:00:40*
%MOMM*%
%LPD*%
G01*
G04 APERTURE LIST*
G04 Aperture macros list*
%AMRoundRect*
0 Rectangle with rounded corners*
0 $1 Rounding radius*
0 $2 $3 $4 $5 $6 $7 $8 $9 X,Y pos of 4 corners*
0 Add a 4 corners polygon primitive as box body*
4,1,4,$2,$3,$4,$5,$6,$7,$8,$9,$2,$3,0*
0 Add four circle primitives for the rounded corners*
1,1,$1+$1,$2,$3*
1,1,$1+$1,$4,$5*
1,1,$1+$1,$6,$7*
1,1,$1+$1,$8,$9*
0 Add four rect primitives between the rounded corners*
20,1,$1+$1,$2,$3,$4,$5,0*
20,1,$1+$1,$4,$5,$6,$7,0*
20,1,$1+$1,$6,$7,$8,$9,0*
20,1,$1+$1,$8,$9,$2,$3,0*%
G04 Aperture macros list end*
%TA.AperFunction,SMDPad,CuDef*%
%ADD10R,0.300000X1.600000*%
%TD*%
%TA.AperFunction,SMDPad,CuDef*%
%ADD11RoundRect,0.150000X-0.825000X-0.150000X0.825000X-0.150000X0.825000X0.150000X-0.825000X0.150000X0*%
%TD*%
%TA.AperFunction,ComponentPad*%
%ADD12RoundRect,0.250000X-0.750000X0.600000X-0.750000X-0.600000X0.750000X-0.600000X0.750000X0.600000X0*%
%TD*%
%TA.AperFunction,ComponentPad*%
%ADD13O,2.000000X1.700000*%
%TD*%
%TA.AperFunction,SMDPad,CuDef*%
%ADD14R,2.500000X2.500000*%
%TD*%
%TA.AperFunction,SMDPad,CuDef*%
%ADD15RoundRect,0.237500X-0.300000X-0.237500X0.300000X-0.237500X0.300000X0.237500X-0.300000X0.237500X0*%
%TD*%
%TA.AperFunction,SMDPad,CuDef*%
%ADD16RoundRect,0.250000X0.450000X-0.350000X0.450000X0.350000X-0.450000X0.350000X-0.450000X-0.350000X0*%
%TD*%
%TA.AperFunction,SMDPad,CuDef*%
%ADD17RoundRect,0.250000X-0.350000X-0.450000X0.350000X-0.450000X0.350000X0.450000X-0.350000X0.450000X0*%
%TD*%
%TA.AperFunction,SMDPad,CuDef*%
%ADD18R,1.600000X1.600000*%
%TD*%
%TA.AperFunction,ComponentPad*%
%ADD19RoundRect,0.250000X-0.725000X0.600000X-0.725000X-0.600000X0.725000X-0.600000X0.725000X0.600000X0*%
%TD*%
%TA.AperFunction,ComponentPad*%
%ADD20O,1.950000X1.700000*%
%TD*%
%TA.AperFunction,SMDPad,CuDef*%
%ADD21RoundRect,0.250000X-0.650000X0.412500X-0.650000X-0.412500X0.650000X-0.412500X0.650000X0.412500X0*%
%TD*%
%TA.AperFunction,SMDPad,CuDef*%
%ADD22R,1.120000X2.440000*%
%TD*%
%TA.AperFunction,SMDPad,CuDef*%
%ADD23RoundRect,0.237500X0.300000X0.237500X-0.300000X0.237500X-0.300000X-0.237500X0.300000X-0.237500X0*%
%TD*%
%TA.AperFunction,SMDPad,CuDef*%
%ADD24R,0.800000X0.300000*%
%TD*%
%TA.AperFunction,ViaPad*%
%ADD25C,0.800000*%
%TD*%
%TA.AperFunction,ViaPad*%
%ADD26C,0.300000*%
%TD*%
%TA.AperFunction,Conductor*%
%ADD27C,0.250000*%
%TD*%
G04 APERTURE END LIST*
D10*
%TO.P,U7,1,C*%
%TO.N,/Strobing_Trigger/Trigger_Out*%
X46695000Y-92280000D03*
%TO.P,U7,2,D*%
%TO.N,Net-(U7-D)*%
X46045000Y-92280000D03*
%TO.P,U7,3,~{Q}*%
X45395000Y-92280000D03*
%TO.P,U7,4,GND*%
%TO.N,GND*%
X44745000Y-92280000D03*
%TO.P,U7,5,Q*%
%TO.N,Net-(U7-Q)*%
X44745000Y-95680000D03*
%TO.P,U7,6,~{CLR}*%
%TO.N,+5V*%
X45395000Y-95680000D03*
%TO.P,U7,7,~{PRE}*%
X46045000Y-95680000D03*
%TO.P,U7,8,VCC*%
X46695000Y-95680000D03*
%TD*%
D11*
%TO.P,Brain_555,1,GND*%
%TO.N,GND*%
X58485000Y-38735000D03*
%TO.P,Brain_555,2,TR*%
%TO.N,VAC*%
X58485000Y-40005000D03*
%TO.P,Brain_555,3,Q*%
%TO.N,/Brain_Camera_Unit/Trigger_Out*%
X58485000Y-41275000D03*
%TO.P,Brain_555,4,R*%
%TO.N,+5V*%
X58485000Y-42545000D03*
%TO.P,Brain_555,5,CV*%
%TO.N,Net-(Brain_555-CV)*%
X63435000Y-42545000D03*
%TO.P,Brain_555,6,THR*%
%TO.N,Net-(Brain_555-DIS)*%
X63435000Y-41275000D03*
%TO.P,Brain_555,7,DIS*%
X63435000Y-40005000D03*
%TO.P,Brain_555,8,VCC*%
%TO.N,+5V*%
X63435000Y-38735000D03*
%TD*%
D12*
%TO.P,Behavior2,1,Pin_1*%
%TO.N,Net-(Behavior1-Pin_1)*%
X78740000Y-71120000D03*
D13*
%TO.P,Behavior2,2,Pin_2*%
%TO.N,GND*%
X78740000Y-73620000D03*
%TD*%
D14*
%TO.P,Strobe_Timing1,1,1*%
%TO.N,GND*%
X66000000Y-111305000D03*
%TO.P,Strobe_Timing1,2,2*%
%TO.N,Net-(Strobe_555-DIS)*%
X63500000Y-102055000D03*
%TO.P,Strobe_Timing1,3,3*%
%TO.N,+5V*%
X61000000Y-111305000D03*
%TD*%
D15*
%TO.P,Brain_Filter_C1,1*%
%TO.N,Net-(In_Buffer_Brain1-+)*%
X53340000Y-30480000D03*
%TO.P,Brain_Filter_C1,2*%
%TO.N,GND*%
X55065000Y-30480000D03*
%TD*%
D16*
%TO.P,Behav_Filter_R1,1*%
%TO.N,/Behavior_Camera_Unit/CV_In*%
X53340000Y-63500000D03*
%TO.P,Behav_Filter_R1,2*%
%TO.N,Net-(In_Buffer_Behav1-+)*%
X53340000Y-61500000D03*
%TD*%
D17*
%TO.P,R4,1*%
%TO.N,Net-(Output_Voltage1-Pad3)*%
X41180000Y-63500000D03*
%TO.P,R4,2*%
%TO.N,GND*%
X43180000Y-63500000D03*
%TD*%
D12*
%TO.P,Strobing2,1,Pin_1*%
%TO.N,Net-(Strobing2-Pin_1)*%
X78747500Y-110002000D03*
D13*
%TO.P,Strobing2,2,Pin_2*%
%TO.N,GND*%
X78747500Y-112502000D03*
%TD*%
D18*
%TO.P,U9,1*%
%TO.N,Net-(Brain1-Pin_1)*%
X52070000Y-38354000D03*
%TO.P,U9,2,-*%
%TO.N,/Brain_Camera_Unit/Trigger_Out*%
X49530000Y-38354000D03*
%TO.P,U9,3,+*%
%TO.N,Net-(U9A-+)*%
X46990000Y-38354000D03*
%TO.P,U9,4,V-*%
%TO.N,GND*%
X44450000Y-38354000D03*
%TO.P,U9,5,+*%
%TO.N,Net-(U9A-+)*%
X44450000Y-45974000D03*
%TO.P,U9,6,-*%
%TO.N,/Behavior_Camera_Unit/Trigger_Out*%
X46990000Y-45974000D03*
%TO.P,U9,7*%
%TO.N,Net-(Behavior1-Pin_1)*%
X49530000Y-45974000D03*
%TO.P,U9,8,V+*%
%TO.N,Net-(U9C-V+)*%
X52070000Y-45974000D03*
%TD*%
D19*
%TO.P,WidthControlSignal1,1,Pin_1*%
%TO.N,/Strobing_Trigger/CV_In*%
X30480000Y-48300000D03*
D20*
%TO.P,WidthControlSignal1,2,Pin_2*%
%TO.N,/Behavior_Camera_Unit/CV_In*%
X30480000Y-50800000D03*
%TO.P,WidthControlSignal1,3,Pin_3*%
%TO.N,/Brain_Camera_Unit/CV_In*%
X30480000Y-53300000D03*
%TD*%
D21*
%TO.P,Behav_Timing_C1,1*%
%TO.N,Net-(Behav_555-DIS)*%
X71120000Y-74637500D03*
%TO.P,Behav_Timing_C1,2*%
%TO.N,GND*%
X71120000Y-77762500D03*
%TD*%
D12*
%TO.P,Brain1,1,Pin_1*%
%TO.N,Net-(Brain1-Pin_1)*%
X78740000Y-91440000D03*
D13*
%TO.P,Brain1,2,Pin_2*%
%TO.N,GND*%
X78740000Y-93940000D03*
%TD*%
D11*
%TO.P,In_Buffer_Strobe1,1,NC*%
%TO.N,unconnected-(In_Buffer_Strobe1-NC-Pad1)*%
X58485000Y-86995000D03*
%TO.P,In_Buffer_Strobe1,2,-*%
%TO.N,Net-(In_Buffer_Strobe1--)*%
X58485000Y-88265000D03*
%TO.P,In_Buffer_Strobe1,3,+*%
%TO.N,Net-(In_Buffer_Strobe1-+)*%
X58485000Y-89535000D03*
%TO.P,In_Buffer_Strobe1,4,V-*%
%TO.N,GND*%
X58485000Y-90805000D03*
%TO.P,In_Buffer_Strobe1,5,NC*%
%TO.N,unconnected-(In_Buffer_Strobe1-NC-Pad5)*%
X63435000Y-90805000D03*
%TO.P,In_Buffer_Strobe1,6*%
%TO.N,Net-(In_Buffer_Strobe1--)*%
X63435000Y-89535000D03*
%TO.P,In_Buffer_Strobe1,7,V+*%
%TO.N,+5V*%
X63435000Y-88265000D03*
%TO.P,In_Buffer_Strobe1,8,NC*%
%TO.N,unconnected-(In_Buffer_Strobe1-NC-Pad8)*%
X63435000Y-86995000D03*
%TD*%
D12*
%TO.P,Behavior1,1,Pin_1*%
%TO.N,Net-(Behavior1-Pin_1)*%
X78740000Y-81280000D03*
D13*
%TO.P,Behavior1,2,Pin_2*%
%TO.N,GND*%
X78740000Y-83780000D03*
%TD*%
D15*
%TO.P,Behav_Filter_C1,1*%
%TO.N,Net-(In_Buffer_Behav1-+)*%
X54155000Y-58420000D03*
%TO.P,Behav_Filter_C1,2*%
%TO.N,GND*%
X55880000Y-58420000D03*
%TD*%
D19*
%TO.P,Power_In1,1,Pin_1*%
%TO.N,+5V*%
X30480000Y-30520000D03*
D20*
%TO.P,Power_In1,2,Pin_2*%
%TO.N,GND*%
X30480000Y-33020000D03*
%TO.P,Power_In1,3,Pin_3*%
%TO.N,VAC*%
X30480000Y-35520000D03*
%TD*%
D11*
%TO.P,In_Buffer_Brain1,1,NC*%
%TO.N,unconnected-(In_Buffer_Brain1-NC-Pad1)*%
X58485000Y-31115000D03*
%TO.P,In_Buffer_Brain1,2,-*%
%TO.N,Net-(In_Buffer_Brain1--)*%
X58485000Y-32385000D03*
%TO.P,In_Buffer_Brain1,3,+*%
%TO.N,Net-(In_Buffer_Brain1-+)*%
X58485000Y-33655000D03*
%TO.P,In_Buffer_Brain1,4,V-*%
%TO.N,GND*%
X58485000Y-34925000D03*
%TO.P,In_Buffer_Brain1,5,NC*%
%TO.N,unconnected-(In_Buffer_Brain1-NC-Pad5)*%
X63435000Y-34925000D03*
%TO.P,In_Buffer_Brain1,6*%
%TO.N,Net-(In_Buffer_Brain1--)*%
X63435000Y-33655000D03*
%TO.P,In_Buffer_Brain1,7,V+*%
%TO.N,+5V*%
X63435000Y-32385000D03*
%TO.P,In_Buffer_Brain1,8,NC*%
%TO.N,unconnected-(In_Buffer_Brain1-NC-Pad8)*%
X63435000Y-31115000D03*
%TD*%
D16*
%TO.P,Strobe_Filter_R1,1*%
%TO.N,/Strobing_Trigger/CV_In*%
X53340000Y-90900000D03*
%TO.P,Strobe_Filter_R1,2*%
%TO.N,Net-(In_Buffer_Strobe1-+)*%
X53340000Y-88900000D03*
%TD*%
D22*
%TO.P,SW_Behav1,1*%
%TO.N,Net-(In_Buffer_Behav1--)*%
X68580000Y-61735000D03*
%TO.P,SW_Behav1,2*%
%TO.N,Net-(Behav_555-CV)*%
X68580000Y-70345000D03*
%TD*%
D11*
%TO.P,Strobe_555,1,GND*%
%TO.N,GND*%
X58420000Y-94615000D03*
%TO.P,Strobe_555,2,TR*%
%TO.N,VAC*%
X58420000Y-95885000D03*
%TO.P,Strobe_555,3,Q*%
%TO.N,/Strobing_Trigger/Trigger_Out*%
X58420000Y-97155000D03*
%TO.P,Strobe_555,4,R*%
%TO.N,+5V*%
X58420000Y-98425000D03*
%TO.P,Strobe_555,5,CV*%
%TO.N,Net-(Strobe_555-CV)*%
X63370000Y-98425000D03*
%TO.P,Strobe_555,6,THR*%
%TO.N,Net-(Strobe_555-DIS)*%
X63370000Y-97155000D03*
%TO.P,Strobe_555,7,DIS*%
X63370000Y-95885000D03*
%TO.P,Strobe_555,8,VCC*%
%TO.N,+5V*%
X63370000Y-94615000D03*
%TD*%
D12*
%TO.P,Behavior4,1,Pin_1*%
%TO.N,Net-(Behavior1-Pin_1)*%
X78740000Y-50800000D03*
D13*
%TO.P,Behavior4,2,Pin_2*%
%TO.N,GND*%
X78740000Y-53300000D03*
%TD*%
D16*
%TO.P,R3,1*%
%TO.N,Net-(U9A-+)*%
X41656000Y-45180000D03*
%TO.P,R3,2*%
%TO.N,GND*%
X41656000Y-43180000D03*
%TD*%
D12*
%TO.P,Brain2,1,Pin_1*%
%TO.N,Net-(Brain1-Pin_1)*%
X78747500Y-100350000D03*
D13*
%TO.P,Brain2,2,Pin_2*%
%TO.N,GND*%
X78747500Y-102850000D03*
%TD*%
D11*
%TO.P,Behav_555,1,GND*%
%TO.N,GND*%
X58485000Y-66675000D03*
%TO.P,Behav_555,2,TR*%
%TO.N,VAC*%
X58485000Y-67945000D03*
%TO.P,Behav_555,3,Q*%
%TO.N,/Behavior_Camera_Unit/Trigger_Out*%
X58485000Y-69215000D03*
%TO.P,Behav_555,4,R*%
%TO.N,+5V*%
X58485000Y-70485000D03*
%TO.P,Behav_555,5,CV*%
%TO.N,Net-(Behav_555-CV)*%
X63435000Y-70485000D03*
%TO.P,Behav_555,6,THR*%
%TO.N,Net-(Behav_555-DIS)*%
X63435000Y-69215000D03*
%TO.P,Behav_555,7,DIS*%
X63435000Y-67945000D03*
%TO.P,Behav_555,8,VCC*%
%TO.N,+5V*%
X63435000Y-66675000D03*
%TD*%
D21*
%TO.P,Strobe_Timing_C1,1*%
%TO.N,Net-(Strobe_555-DIS)*%
X71120000Y-102577500D03*
%TO.P,Strobe_Timing_C1,2*%
%TO.N,GND*%
X71120000Y-105702500D03*
%TD*%
D23*
%TO.P,Strobe_Filter_C1,1*%
%TO.N,Net-(In_Buffer_Strobe1-+)*%
X55880000Y-86360000D03*
%TO.P,Strobe_Filter_C1,2*%
%TO.N,GND*%
X54155000Y-86360000D03*
%TD*%
D12*
%TO.P,Strobing1,1,Pin_1*%
%TO.N,Net-(Strobing1-Pin_1)*%
X78747500Y-120924000D03*
D13*
%TO.P,Strobing1,2,Pin_2*%
%TO.N,GND*%
X78747500Y-123424000D03*
%TD*%
D14*
%TO.P,Output_Voltage1,1,1*%
%TO.N,+5V*%
X45720000Y-58420000D03*
%TO.P,Output_Voltage1,2,2*%
%TO.N,Net-(U9C-V+)*%
X43220000Y-49170000D03*
%TO.P,Output_Voltage1,3,3*%
%TO.N,Net-(Output_Voltage1-Pad3)*%
X40720000Y-58420000D03*
%TD*%
D21*
%TO.P,Brain_Timing_C1,1*%
%TO.N,Net-(Brain_555-DIS)*%
X71120000Y-46697500D03*
%TO.P,Brain_Timing_C1,2*%
%TO.N,GND*%
X71120000Y-49822500D03*
%TD*%
D12*
%TO.P,Behavior5,1,Pin_1*%
%TO.N,Net-(Behavior1-Pin_1)*%
X78740000Y-40640000D03*
D13*
%TO.P,Behavior5,2,Pin_2*%
%TO.N,GND*%
X78740000Y-43140000D03*
%TD*%
D22*
%TO.P,SW_Strobe1,1*%
%TO.N,Net-(In_Buffer_Strobe1--)*%
X68580000Y-89675000D03*
%TO.P,SW_Strobe1,2*%
%TO.N,Net-(Strobe_555-CV)*%
X68580000Y-98285000D03*
%TD*%
D14*
%TO.P,Behav_Timing1,1,1*%
%TO.N,GND*%
X66000000Y-83365000D03*
%TO.P,Behav_Timing1,2,2*%
%TO.N,Net-(Behav_555-DIS)*%
X63500000Y-74115000D03*
%TO.P,Behav_Timing1,3,3*%
%TO.N,+5V*%
X61000000Y-83365000D03*
%TD*%
%TO.P,Brain_Timing1,1,1*%
%TO.N,GND*%
X66000000Y-55425000D03*
%TO.P,Brain_Timing1,2,2*%
%TO.N,Net-(Brain_555-DIS)*%
X63500000Y-46175000D03*
%TO.P,Brain_Timing1,3,3*%
%TO.N,+5V*%
X61000000Y-55425000D03*
%TD*%
D12*
%TO.P,Behavior3,1,Pin_1*%
%TO.N,Net-(Behavior1-Pin_1)*%
X78740000Y-60960000D03*
D13*
%TO.P,Behavior3,2,Pin_2*%
%TO.N,GND*%
X78740000Y-63460000D03*
%TD*%
D16*
%TO.P,Brain_Filter_R1,1*%
%TO.N,/Brain_Camera_Unit/CV_In*%
X53340000Y-35560000D03*
%TO.P,Brain_Filter_R1,2*%
%TO.N,Net-(In_Buffer_Brain1-+)*%
X53340000Y-33560000D03*
%TD*%
%TO.P,R2,1*%
%TO.N,+5V*%
X39116000Y-45180000D03*
%TO.P,R2,2*%
%TO.N,Net-(U9A-+)*%
X39116000Y-43180000D03*
%TD*%
D24*
%TO.P,U8,1*%
%TO.N,/Strobing_Trigger/Trigger_Out*%
X45720000Y-84860000D03*
%TO.P,U8,2*%
%TO.N,Net-(U7-Q)*%
X45720000Y-85360000D03*
%TO.P,U8,3*%
%TO.N,Net-(Strobing2-Pin_1)*%
X45720000Y-85860000D03*
%TO.P,U8,4,GND*%
%TO.N,GND*%
X45720000Y-86360000D03*
%TO.P,U8,5*%
%TO.N,/Strobing_Trigger/Trigger_Out*%
X48820000Y-86360000D03*
%TO.P,U8,6*%
%TO.N,Net-(U7-D)*%
X48820000Y-85860000D03*
%TO.P,U8,7*%
%TO.N,Net-(Strobing1-Pin_1)*%
X48820000Y-85360000D03*
%TO.P,U8,8,VCC*%
%TO.N,+5V*%
X48820000Y-84860000D03*
%TD*%
D22*
%TO.P,SW_Brain1,1*%
%TO.N,Net-(In_Buffer_Brain1--)*%
X68580000Y-33795000D03*
%TO.P,SW_Brain1,2*%
%TO.N,Net-(Brain_555-CV)*%
X68580000Y-42405000D03*
%TD*%
D11*
%TO.P,In_Buffer_Behav1,1,NC*%
%TO.N,unconnected-(In_Buffer_Behav1-NC-Pad1)*%
X58485000Y-59055000D03*
%TO.P,In_Buffer_Behav1,2,-*%
%TO.N,Net-(In_Buffer_Behav1--)*%
X58485000Y-60325000D03*
%TO.P,In_Buffer_Behav1,3,+*%
%TO.N,Net-(In_Buffer_Behav1-+)*%
X58485000Y-61595000D03*
%TO.P,In_Buffer_Behav1,4,V-*%
%TO.N,GND*%
X58485000Y-62865000D03*
%TO.P,In_Buffer_Behav1,5,NC*%
%TO.N,unconnected-(In_Buffer_Behav1-NC-Pad5)*%
X63435000Y-62865000D03*
%TO.P,In_Buffer_Behav1,6*%
%TO.N,Net-(In_Buffer_Behav1--)*%
X63435000Y-61595000D03*
%TO.P,In_Buffer_Behav1,7,V+*%
%TO.N,+5V*%
X63435000Y-60325000D03*
%TO.P,In_Buffer_Behav1,8,NC*%
%TO.N,unconnected-(In_Buffer_Behav1-NC-Pad8)*%
X63435000Y-59055000D03*
%TD*%
D12*
%TO.P,Behavior6,1,Pin_1*%
%TO.N,Net-(Behavior1-Pin_1)*%
X78740000Y-30480000D03*
D13*
%TO.P,Behavior6,2,Pin_2*%
%TO.N,GND*%
X78740000Y-32980000D03*
%TD*%
D25*
%TO.N,GND*%
X53340000Y-86360000D03*
X43180000Y-86360000D03*
X71120000Y-50800000D03*
X55880000Y-30480000D03*
X71120000Y-78740000D03*
X45720000Y-63500000D03*
X71120000Y-106680000D03*
X58420000Y-35560000D03*
X66040000Y-53340000D03*
X58420000Y-91440000D03*
D26*
X55880000Y-55899500D03*
D25*
X43180000Y-43180000D03*
X58420000Y-93980000D03*
X59243157Y-64355899D03*
X66040000Y-81280000D03*
X58420000Y-38100000D03*
X66040000Y-109220000D03*
%TO.N,+5V*%
X60960000Y-48260000D03*
X56973937Y-83344887D03*
D26*
X60884660Y-87224801D03*
D25*
X48260000Y-96520000D03*
X60960000Y-53340000D03*
X50800000Y-99060000D03*
%TO.N,/Strobing_Trigger/CV_In*%
X50800000Y-83820000D03*
X50800000Y-86360000D03*
%TO.N,/Behavior_Camera_Unit/CV_In*%
X33020000Y-60960000D03*
X26645580Y-57356380D03*
%TO.N,/Brain_Camera_Unit/CV_In*%
X35560000Y-43180000D03*
X33020000Y-45720000D03*
%TO.N,Net-(U9C-V+)*%
X51816000Y-45720000D03*
X48801551Y-49224210D03*
%TO.N,VAC*%
X54341745Y-39231717D03*
X55880000Y-66040000D03*
D26*
X55880000Y-88900000D03*
D25*
X50029036Y-34555297D03*
X55880000Y-78740000D03*
%TO.N,/Behavior_Camera_Unit/Trigger_Out*%
X60602576Y-67247783D03*
X46228000Y-47752000D03*
%TD*%
D27*
%TO.N,GND*%
X71120000Y-105702500D02*
X71120000Y-106680000D01*
X58485000Y-63500000D02*
X58485000Y-62865000D01*
X71120000Y-49822500D02*
X71120000Y-50800000D01*
X58485000Y-66675000D02*
X58485000Y-63500000D01*
X54155000Y-86360000D02*
X53340000Y-86360000D01*
X44450000Y-87630000D02*
X44450000Y-90842500D01*
X44745000Y-92280000D02*
X44745000Y-91137500D01*
X66000000Y-109260000D02*
X66040000Y-109220000D01*
X58485000Y-63597742D02*
X59243157Y-64355899D01*
X43180000Y-63500000D02*
X45720000Y-63500000D01*
X44745000Y-91137500D02*
X44450000Y-90842500D01*
X66000000Y-81320000D02*
X66040000Y-81280000D01*
X71120000Y-77762500D02*
X71120000Y-78740000D01*
X44450000Y-39370000D02*
X44450000Y-38354000D01*
X41656000Y-42164000D02*
X44450000Y-39370000D01*
X58485000Y-91375000D02*
X58420000Y-91440000D01*
X41656000Y-43180000D02*
X41656000Y-42164000D01*
X58485000Y-34925000D02*
X58485000Y-35495000D01*
X58485000Y-35495000D02*
X58420000Y-35560000D01*
X58485000Y-38165000D02*
X58420000Y-38100000D01*
X66000000Y-111305000D02*
X66000000Y-109260000D01*
X58485000Y-63500000D02*
X58485000Y-63597742D01*
X45720000Y-86360000D02*
X44450000Y-87630000D01*
X58485000Y-38735000D02*
X58485000Y-38165000D01*
X55880000Y-58420000D02*
X55880000Y-55899500D01*
X55065000Y-30480000D02*
X55880000Y-30480000D01*
X66000000Y-83365000D02*
X66000000Y-81320000D01*
X66000000Y-55425000D02*
X66000000Y-53380000D01*
X41656000Y-43180000D02*
X43180000Y-43180000D01*
X58485000Y-90805000D02*
X58485000Y-91375000D01*
X66000000Y-53380000D02*
X66040000Y-53340000D01*
X45720000Y-86360000D02*
X43180000Y-86360000D01*
X58420000Y-94615000D02*
X58420000Y-93980000D01*
%TO.N,+5V*%
X61000000Y-83365000D02*
X61000000Y-73000000D01*
X62993249Y-94615000D02*
X59183249Y-98425000D01*
X58420000Y-100125000D02*
X61000000Y-102705000D01*
X45720000Y-56834126D02*
X39116000Y-50230126D01*
X61411073Y-39995678D02*
X61533795Y-39995678D01*
X70929461Y-59102355D02*
X70880721Y-59053615D01*
X61000000Y-55425000D02*
X61000000Y-58266751D01*
X50800000Y-99060000D02*
X57785000Y-99060000D01*
X69852521Y-88268917D02*
X68756179Y-87172575D01*
X63435000Y-66675000D02*
X66622369Y-66675000D01*
X28575000Y-26035000D02*
X30480000Y-27940000D01*
X60960000Y-48260000D02*
X58485000Y-45785000D01*
X67956344Y-59053615D02*
X66494156Y-60515803D01*
X65835719Y-88265000D02*
X63435000Y-88265000D01*
X62794473Y-38735000D02*
X63435000Y-38735000D01*
X27292005Y-27317995D02*
X28575000Y-26035000D01*
X61533795Y-39995678D02*
X62794473Y-38735000D01*
X48715000Y-55425000D02*
X61000000Y-55425000D01*
X66928144Y-87172575D02*
X65835719Y-88265000D01*
X61000000Y-53380000D02*
X60960000Y-53340000D01*
X39116000Y-50230126D02*
X39116000Y-45180000D01*
X45720000Y-58420000D02*
X45720000Y-56834126D01*
X35812500Y-45180000D02*
X27292005Y-36659505D01*
X61000000Y-58266751D02*
X63058249Y-60325000D01*
X62846170Y-32385000D02*
X60337464Y-29876294D01*
X63435000Y-32385000D02*
X62846170Y-32385000D01*
X60337464Y-28487215D02*
X46592893Y-28487215D01*
X27292005Y-36659505D02*
X27292005Y-27317995D01*
X57785000Y-99060000D02*
X58420000Y-98425000D01*
X61000000Y-102705000D02*
X61000000Y-111305000D01*
X39116000Y-45180000D02*
X35812500Y-45180000D01*
X46045000Y-95680000D02*
X46695000Y-95680000D01*
X58861751Y-70485000D02*
X62671751Y-66675000D01*
X45720000Y-58420000D02*
X48715000Y-55425000D01*
X46695000Y-95680000D02*
X47420000Y-95680000D01*
X58420000Y-98425000D02*
X58420000Y-100125000D01*
X30480000Y-27940000D02*
X30480000Y-29291419D01*
X58485000Y-42545000D02*
X58861751Y-42545000D01*
X66303353Y-60325000D02*
X63435000Y-60325000D01*
X58485000Y-45785000D02*
X58485000Y-42545000D01*
X59505000Y-84860000D02*
X61000000Y-83365000D01*
X61000000Y-73000000D02*
X58485000Y-70485000D01*
X69852521Y-91851578D02*
X69852521Y-88268917D01*
X66622369Y-66675000D02*
X70929461Y-62367908D01*
X60337464Y-29876294D02*
X60337464Y-28487215D01*
X63058249Y-60325000D02*
X63435000Y-60325000D01*
X56994050Y-83365000D02*
X56973937Y-83344887D01*
X62671751Y-66675000D02*
X63435000Y-66675000D01*
X63370000Y-94615000D02*
X66133422Y-91851578D01*
X66133422Y-91851578D02*
X69852521Y-91851578D01*
X30480000Y-29291419D02*
X30480000Y-30520000D01*
X45788689Y-29291419D02*
X30480000Y-29291419D01*
X70929461Y-62367908D02*
X70929461Y-59102355D01*
X59183249Y-98425000D02*
X58420000Y-98425000D01*
X61000000Y-83365000D02*
X56994050Y-83365000D01*
X63435000Y-88265000D02*
X62810000Y-87640000D01*
X70880721Y-59053615D02*
X67956344Y-59053615D01*
X46592893Y-28487215D02*
X45788689Y-29291419D01*
X66494156Y-60515803D02*
X66303353Y-60325000D01*
X58861751Y-42545000D02*
X61411073Y-39995678D01*
X48820000Y-84860000D02*
X59505000Y-84860000D01*
X62810000Y-87640000D02*
X61299859Y-87640000D01*
X61000000Y-55425000D02*
X61000000Y-53380000D01*
X63370000Y-94615000D02*
X62993249Y-94615000D01*
X58485000Y-70485000D02*
X58861751Y-70485000D01*
X45395000Y-95680000D02*
X46045000Y-95680000D01*
X61299859Y-87640000D02*
X60884660Y-87224801D01*
X68756179Y-87172575D02*
X66928144Y-87172575D01*
X47420000Y-95680000D02*
X48260000Y-96520000D01*
%TO.N,Net-(Behavior1-Pin_1)*%
X49530000Y-45974000D02*
X49530000Y-48514000D01*
X77415000Y-31805000D02*
X78740000Y-30480000D01*
X77415000Y-79955000D02*
X77415000Y-72445000D01*
X77415000Y-39315000D02*
X77415000Y-31805000D01*
X78740000Y-71120000D02*
X77415000Y-69795000D01*
X78740000Y-50800000D02*
X77415000Y-49475000D01*
X78740000Y-40640000D02*
X77415000Y-39315000D01*
X77415000Y-41965000D02*
X78740000Y-40640000D01*
X78740000Y-50800000D02*
X76200000Y-53340000D01*
X77415000Y-59635000D02*
X77415000Y-52125000D01*
X77415000Y-49475000D02*
X77415000Y-41965000D01*
X78740000Y-81280000D02*
X77415000Y-79955000D01*
X77415000Y-62285000D02*
X78740000Y-60960000D01*
X49530000Y-48514000D02*
X51816000Y-50800000D01*
X71120000Y-53340000D02*
X68580000Y-50800000D01*
X76200000Y-53340000D02*
X71120000Y-53340000D01*
X77415000Y-52125000D02*
X78740000Y-50800000D01*
X78740000Y-60960000D02*
X77415000Y-59635000D01*
X77415000Y-69795000D02*
X77415000Y-62285000D01*
X68580000Y-50800000D02*
X51816000Y-50800000D01*
X77415000Y-72445000D02*
X78740000Y-71120000D01*
%TO.N,Net-(Brain1-Pin_1)*%
X53944710Y-36735290D02*
X53944710Y-36987290D01*
X65458470Y-37962666D02*
X64231094Y-36735290D01*
X78740000Y-91440000D02*
X80065000Y-90115000D01*
X78747500Y-100350000D02*
X74422000Y-96024500D01*
X70221647Y-37962666D02*
X65458470Y-37962666D01*
X81788000Y-27940000D02*
X78051030Y-27940000D01*
X53944710Y-36987290D02*
X52324000Y-38608000D01*
X80065000Y-90115000D02*
X80065000Y-89969885D01*
X78232000Y-91948000D02*
X78740000Y-91440000D01*
X80065000Y-89969885D02*
X83162015Y-86872870D01*
X64231094Y-36735290D02*
X53944710Y-36735290D01*
X78051030Y-27940000D02*
X70221647Y-35769383D01*
X70221647Y-35769383D02*
X70221647Y-37962666D01*
X83162015Y-29314015D02*
X81788000Y-27940000D01*
X74422000Y-91948000D02*
X78232000Y-91948000D01*
X83162015Y-86872870D02*
X83162015Y-29314015D01*
X74422000Y-96024500D02*
X74422000Y-91948000D01*
%TO.N,Net-(In_Buffer_Behav1-+)*%
X58390000Y-61500000D02*
X53340000Y-61500000D01*
X58485000Y-61595000D02*
X58390000Y-61500000D01*
X53340000Y-59235000D02*
X53340000Y-61500000D01*
X54155000Y-58420000D02*
X53340000Y-59235000D01*
%TO.N,Net-(Brain_555-DIS)*%
X71120000Y-40640000D02*
X71120000Y-46697500D01*
X70597500Y-46175000D02*
X63500000Y-46175000D01*
X64070000Y-40640000D02*
X71120000Y-40640000D01*
X63435000Y-40005000D02*
X63435000Y-41275000D01*
X63435000Y-41275000D02*
X64070000Y-40640000D01*
X71120000Y-46697500D02*
X70597500Y-46175000D01*
%TO.N,Net-(Brain_555-CV)*%
X63575000Y-42405000D02*
X68580000Y-42405000D01*
X63435000Y-42545000D02*
X63575000Y-42405000D01*
%TO.N,/Strobing_Trigger/CV_In*%
X30480000Y-48300000D02*
X29562935Y-48300000D01*
X53340000Y-90900000D02*
X50800000Y-88360000D01*
X29562935Y-48300000D02*
X27734459Y-50128476D01*
X27734459Y-60754459D02*
X50800000Y-83820000D01*
X27734459Y-50128476D02*
X27734459Y-60754459D01*
X50800000Y-88360000D02*
X50800000Y-86360000D01*
%TO.N,/Behavior_Camera_Unit/CV_In*%
X30480000Y-50800000D02*
X32407686Y-48872314D01*
X32407686Y-47647686D02*
X30460000Y-45700000D01*
X33020000Y-60960000D02*
X33020000Y-62200277D01*
X32407686Y-48872314D02*
X32407686Y-47647686D01*
X30460000Y-45700000D02*
X28465786Y-45700000D01*
X28465786Y-45700000D02*
X26645580Y-47520206D01*
X48004849Y-68835151D02*
X53340000Y-63500000D01*
X26645580Y-47520206D02*
X26645580Y-57356380D01*
X39654874Y-68835151D02*
X48004849Y-68835151D01*
X33020000Y-62200277D02*
X39654874Y-68835151D01*
%TO.N,/Brain_Camera_Unit/CV_In*%
X33020000Y-50760000D02*
X33020000Y-45720000D01*
X35560000Y-43180000D02*
X43180000Y-35560000D01*
X43180000Y-35560000D02*
X53340000Y-35560000D01*
X30480000Y-53300000D02*
X33020000Y-50760000D01*
%TO.N,Net-(U9A-+)*%
X43180000Y-45180000D02*
X41656000Y-45180000D01*
X39116000Y-43180000D02*
X41116000Y-45180000D01*
X43180000Y-45180000D02*
X44450000Y-46450000D01*
X43180000Y-45180000D02*
X46990000Y-41370000D01*
X46990000Y-41370000D02*
X46990000Y-38354000D01*
X41116000Y-45180000D02*
X41656000Y-45180000D01*
%TO.N,Net-(U9C-V+)*%
X43220000Y-49170000D02*
X48747341Y-49170000D01*
X51816000Y-45720000D02*
X51816000Y-46736000D01*
X48747341Y-49170000D02*
X48801551Y-49224210D01*
%TO.N,Net-(In_Buffer_Brain1-+)*%
X53435000Y-33655000D02*
X58485000Y-33655000D01*
X53340000Y-33560000D02*
X53435000Y-33655000D01*
X53340000Y-30480000D02*
X53340000Y-33560000D01*
%TO.N,Net-(In_Buffer_Behav1--)*%
X68580000Y-61735000D02*
X63575000Y-61735000D01*
X63435000Y-61595000D02*
X61595000Y-61595000D01*
X61595000Y-61595000D02*
X60325000Y-60325000D01*
X60325000Y-60325000D02*
X58485000Y-60325000D01*
X63575000Y-61735000D02*
X63435000Y-61595000D01*
%TO.N,VAC*%
X58420000Y-95885000D02*
X58043249Y-95885000D01*
X31444703Y-34555297D02*
X50029036Y-34555297D01*
X58043249Y-95885000D02*
X55880000Y-93721751D01*
X55115028Y-40005000D02*
X58485000Y-40005000D01*
X55880000Y-66040000D02*
X57785000Y-67945000D01*
X55880000Y-70173249D02*
X58108249Y-67945000D01*
X55880000Y-78740000D02*
X55880000Y-70173249D01*
X55880000Y-93721751D02*
X55880000Y-88900000D01*
X57785000Y-67945000D02*
X58485000Y-67945000D01*
X58108249Y-67945000D02*
X58485000Y-67945000D01*
X30480000Y-35520000D02*
X31444703Y-34555297D01*
X54341745Y-39231717D02*
X55115028Y-40005000D01*
%TO.N,/Behavior_Camera_Unit/Trigger_Out*%
X58861751Y-69215000D02*
X60602576Y-67474175D01*
X58485000Y-69215000D02*
X58861751Y-69215000D01*
X60602576Y-67474175D02*
X60602576Y-67247783D01*
X46228000Y-46736000D02*
X46990000Y-45974000D01*
X46228000Y-47752000D02*
X46228000Y-46736000D01*
%TO.N,Net-(In_Buffer_Brain1--)*%
X60325000Y-32385000D02*
X58485000Y-32385000D01*
X63435000Y-33655000D02*
X61595000Y-33655000D01*
X61595000Y-33655000D02*
X60325000Y-32385000D01*
X63435000Y-33655000D02*
X63575000Y-33795000D01*
X63575000Y-33795000D02*
X68580000Y-33795000D01*
%TO.N,/Brain_Camera_Unit/Trigger_Out*%
X53534958Y-42351799D02*
X54611757Y-41275000D01*
X49530000Y-39370000D02*
X49530000Y-38354000D01*
X52511799Y-42351799D02*
X53534958Y-42351799D01*
X54611757Y-41275000D02*
X58485000Y-41275000D01*
X49530000Y-39370000D02*
X52511799Y-42351799D01*
%TO.N,Net-(Behav_555-DIS)*%
X70597500Y-74115000D02*
X71120000Y-74637500D01*
X63435000Y-69215000D02*
X63435000Y-67945000D01*
X62135000Y-72750000D02*
X62135000Y-70138249D01*
X63500000Y-74115000D02*
X70597500Y-74115000D01*
X63500000Y-74115000D02*
X62135000Y-72750000D01*
X63058249Y-69215000D02*
X63435000Y-69215000D01*
X62135000Y-70138249D02*
X63058249Y-69215000D01*
%TO.N,Net-(Behav_555-CV)*%
X63435000Y-70485000D02*
X63575000Y-70345000D01*
X63575000Y-70345000D02*
X68580000Y-70345000D01*
%TO.N,/Strobing_Trigger/Trigger_Out*%
X48260000Y-88472796D02*
X48820000Y-87912796D01*
X43088309Y-99649917D02*
X41506979Y-98068587D01*
X48260000Y-90842500D02*
X48260000Y-88472796D01*
X41506979Y-98068587D02*
X41506979Y-84854736D01*
X48460498Y-97852002D02*
X48460498Y-99649917D01*
X50202500Y-90842500D02*
X50202500Y-96110000D01*
X41506979Y-84854736D02*
X41512243Y-84860000D01*
X41512243Y-84860000D02*
X45720000Y-84860000D01*
X50202500Y-96110000D02*
X48460498Y-97852002D01*
X58420000Y-97155000D02*
X56878213Y-97155000D01*
X50202500Y-90842500D02*
X48260000Y-90842500D01*
X48460498Y-99649917D02*
X43088309Y-99649917D01*
X48820000Y-87912796D02*
X48820000Y-86360000D01*
X48132500Y-90842500D02*
X48260000Y-90842500D01*
X56878213Y-97155000D02*
X50565713Y-90842500D01*
X46695000Y-92280000D02*
X48132500Y-90842500D01*
X50565713Y-90842500D02*
X50202500Y-90842500D01*
%TO.N,Net-(U7-D)*%
X45395000Y-91167500D02*
X45395000Y-92280000D01*
X46990000Y-86990000D02*
X48120000Y-85860000D01*
X45720000Y-90842500D02*
X46045000Y-91167500D01*
X45720000Y-90842500D02*
X45395000Y-91167500D01*
X46045000Y-91167500D02*
X46045000Y-92280000D01*
X46990000Y-90842500D02*
X46990000Y-86990000D01*
X45720000Y-90842500D02*
X46990000Y-90842500D01*
X48120000Y-85860000D02*
X48820000Y-85860000D01*
%TO.N,Net-(U7-Q)*%
X42189627Y-85360000D02*
X45720000Y-85360000D01*
X44745000Y-94630000D02*
X43180000Y-93065000D01*
X44745000Y-95680000D02*
X44745000Y-94630000D01*
X43180000Y-87871530D02*
X42023009Y-86714539D01*
X43180000Y-93065000D02*
X43180000Y-87871530D01*
X42186678Y-85357051D02*
X42189627Y-85360000D01*
X42023009Y-86714539D02*
X42023009Y-85520720D01*
X42023009Y-85520720D02*
X42186678Y-85357051D01*
%TO.N,Net-(In_Buffer_Strobe1--)*%
X63575000Y-89675000D02*
X63435000Y-89535000D01*
X61595000Y-89535000D02*
X63435000Y-89535000D01*
X60325000Y-88265000D02*
X61595000Y-89535000D01*
X58485000Y-88265000D02*
X60325000Y-88265000D01*
X68580000Y-89675000D02*
X63575000Y-89675000D01*
%TO.N,Net-(In_Buffer_Strobe1-+)*%
X58108249Y-89535000D02*
X55880000Y-87306751D01*
X58485000Y-89535000D02*
X58108249Y-89535000D01*
X55880000Y-87306751D02*
X55880000Y-86360000D01*
X54286751Y-88900000D02*
X53340000Y-88900000D01*
X55880000Y-87306751D02*
X54286751Y-88900000D01*
%TO.N,Net-(Strobe_555-DIS)*%
X70597500Y-102055000D02*
X71120000Y-102577500D01*
X71120000Y-102577500D02*
X71120000Y-96520000D01*
X63370000Y-95885000D02*
X63370000Y-97155000D01*
X64005000Y-96520000D02*
X63370000Y-97155000D01*
X71120000Y-96520000D02*
X64005000Y-96520000D01*
X63500000Y-102055000D02*
X70597500Y-102055000D01*
%TO.N,Net-(Strobe_555-CV)*%
X63510000Y-98285000D02*
X68580000Y-98285000D01*
X63370000Y-98425000D02*
X63510000Y-98285000D01*
%TO.N,Net-(Strobing1-Pin_1)*%
X67580000Y-85360000D02*
X48820000Y-85360000D01*
X73660000Y-99020000D02*
X71570000Y-96930000D01*
X71570000Y-89350000D02*
X67580000Y-85360000D01*
X71570000Y-96930000D02*
X71570000Y-89350000D01*
X73660000Y-115836500D02*
X73660000Y-99020000D01*
X78747500Y-120924000D02*
X73660000Y-115836500D01*
%TO.N,Net-(Strobing2-Pin_1)*%
X41542107Y-84183212D02*
X46554237Y-84183212D01*
X80792000Y-110002000D02*
X81026000Y-110236000D01*
X46554237Y-84183212D02*
X46792520Y-84421495D01*
X81026000Y-110236000D02*
X81026000Y-126492000D01*
X46792520Y-85487480D02*
X46420000Y-85860000D01*
X55880000Y-104140000D02*
X45720000Y-104140000D01*
X46792520Y-84421495D02*
X46792520Y-85487480D01*
X55880000Y-111760000D02*
X55880000Y-104140000D01*
X81026000Y-126492000D02*
X70612000Y-126492000D01*
X70612000Y-126492000D02*
X55880000Y-111760000D01*
X46420000Y-85860000D02*
X45720000Y-85860000D01*
X40943766Y-99363766D02*
X40943766Y-84781553D01*
X79034000Y-109514000D02*
X79074000Y-109474000D01*
X45720000Y-104140000D02*
X40943766Y-99363766D01*
X40943766Y-84781553D02*
X41542107Y-84183212D01*
X78747500Y-110002000D02*
X80792000Y-110002000D01*
%TO.N,Net-(Output_Voltage1-Pad3)*%
X40720000Y-58420000D02*
X40720000Y-63040000D01*
X40720000Y-63040000D02*
X41180000Y-63500000D01*
%TD*%
M02*
