%TF.GenerationSoftware,KiCad,Pcbnew,7.0.7*%
%TF.CreationDate,2023-10-19T13:35:15-07:00*%
%TF.ProjectId,555Trigger,35353554-7269-4676-9765-722e6b696361,0*%
%TF.SameCoordinates,Original*%
%TF.FileFunction,Legend,Top*%
%TF.FilePolarity,Positive*%
%FSLAX46Y46*%
G04 Gerber Fmt 4.6, Leading zero omitted, Abs format (unit mm)*
G04 Created by KiCad (PCBNEW 7.0.7) date 2023-10-19 13:35:15*
%MOMM*%
%LPD*%
G01*
G04 APERTURE LIST*
%ADD10C,0.150000*%
%ADD11C,0.120000*%
G04 APERTURE END LIST*
D10*
X30313333Y-67794819D02*
X29980000Y-67318628D01*
X29741905Y-67794819D02*
X29741905Y-66794819D01*
X29741905Y-66794819D02*
X30122857Y-66794819D01*
X30122857Y-66794819D02*
X30218095Y-66842438D01*
X30218095Y-66842438D02*
X30265714Y-66890057D01*
X30265714Y-66890057D02*
X30313333Y-66985295D01*
X30313333Y-66985295D02*
X30313333Y-67128152D01*
X30313333Y-67128152D02*
X30265714Y-67223390D01*
X30265714Y-67223390D02*
X30218095Y-67271009D01*
X30218095Y-67271009D02*
X30122857Y-67318628D01*
X30122857Y-67318628D02*
X29741905Y-67318628D01*
X31170476Y-66794819D02*
X30980000Y-66794819D01*
X30980000Y-66794819D02*
X30884762Y-66842438D01*
X30884762Y-66842438D02*
X30837143Y-66890057D01*
X30837143Y-66890057D02*
X30741905Y-67032914D01*
X30741905Y-67032914D02*
X30694286Y-67223390D01*
X30694286Y-67223390D02*
X30694286Y-67604342D01*
X30694286Y-67604342D02*
X30741905Y-67699580D01*
X30741905Y-67699580D02*
X30789524Y-67747200D01*
X30789524Y-67747200D02*
X30884762Y-67794819D01*
X30884762Y-67794819D02*
X31075238Y-67794819D01*
X31075238Y-67794819D02*
X31170476Y-67747200D01*
X31170476Y-67747200D02*
X31218095Y-67699580D01*
X31218095Y-67699580D02*
X31265714Y-67604342D01*
X31265714Y-67604342D02*
X31265714Y-67366247D01*
X31265714Y-67366247D02*
X31218095Y-67271009D01*
X31218095Y-67271009D02*
X31170476Y-67223390D01*
X31170476Y-67223390D02*
X31075238Y-67175771D01*
X31075238Y-67175771D02*
X30884762Y-67175771D01*
X30884762Y-67175771D02*
X30789524Y-67223390D01*
X30789524Y-67223390D02*
X30741905Y-67271009D01*
X30741905Y-67271009D02*
X30694286Y-67366247D01*
X36255833Y-64969580D02*
X36208214Y-65017200D01*
X36208214Y-65017200D02*
X36065357Y-65064819D01*
X36065357Y-65064819D02*
X35970119Y-65064819D01*
X35970119Y-65064819D02*
X35827262Y-65017200D01*
X35827262Y-65017200D02*
X35732024Y-64921961D01*
X35732024Y-64921961D02*
X35684405Y-64826723D01*
X35684405Y-64826723D02*
X35636786Y-64636247D01*
X35636786Y-64636247D02*
X35636786Y-64493390D01*
X35636786Y-64493390D02*
X35684405Y-64302914D01*
X35684405Y-64302914D02*
X35732024Y-64207676D01*
X35732024Y-64207676D02*
X35827262Y-64112438D01*
X35827262Y-64112438D02*
X35970119Y-64064819D01*
X35970119Y-64064819D02*
X36065357Y-64064819D01*
X36065357Y-64064819D02*
X36208214Y-64112438D01*
X36208214Y-64112438D02*
X36255833Y-64160057D01*
X36636786Y-64160057D02*
X36684405Y-64112438D01*
X36684405Y-64112438D02*
X36779643Y-64064819D01*
X36779643Y-64064819D02*
X37017738Y-64064819D01*
X37017738Y-64064819D02*
X37112976Y-64112438D01*
X37112976Y-64112438D02*
X37160595Y-64160057D01*
X37160595Y-64160057D02*
X37208214Y-64255295D01*
X37208214Y-64255295D02*
X37208214Y-64350533D01*
X37208214Y-64350533D02*
X37160595Y-64493390D01*
X37160595Y-64493390D02*
X36589167Y-65064819D01*
X36589167Y-65064819D02*
X37208214Y-65064819D01*
X47574819Y-94741904D02*
X48384342Y-94741904D01*
X48384342Y-94741904D02*
X48479580Y-94694285D01*
X48479580Y-94694285D02*
X48527200Y-94646666D01*
X48527200Y-94646666D02*
X48574819Y-94551428D01*
X48574819Y-94551428D02*
X48574819Y-94360952D01*
X48574819Y-94360952D02*
X48527200Y-94265714D01*
X48527200Y-94265714D02*
X48479580Y-94218095D01*
X48479580Y-94218095D02*
X48384342Y-94170476D01*
X48384342Y-94170476D02*
X47574819Y-94170476D01*
X47574819Y-93789523D02*
X47574819Y-93122857D01*
X47574819Y-93122857D02*
X48574819Y-93551428D01*
X57769523Y-37171009D02*
X57912380Y-37218628D01*
X57912380Y-37218628D02*
X57959999Y-37266247D01*
X57959999Y-37266247D02*
X58007618Y-37361485D01*
X58007618Y-37361485D02*
X58007618Y-37504342D01*
X58007618Y-37504342D02*
X57959999Y-37599580D01*
X57959999Y-37599580D02*
X57912380Y-37647200D01*
X57912380Y-37647200D02*
X57817142Y-37694819D01*
X57817142Y-37694819D02*
X57436190Y-37694819D01*
X57436190Y-37694819D02*
X57436190Y-36694819D01*
X57436190Y-36694819D02*
X57769523Y-36694819D01*
X57769523Y-36694819D02*
X57864761Y-36742438D01*
X57864761Y-36742438D02*
X57912380Y-36790057D01*
X57912380Y-36790057D02*
X57959999Y-36885295D01*
X57959999Y-36885295D02*
X57959999Y-36980533D01*
X57959999Y-36980533D02*
X57912380Y-37075771D01*
X57912380Y-37075771D02*
X57864761Y-37123390D01*
X57864761Y-37123390D02*
X57769523Y-37171009D01*
X57769523Y-37171009D02*
X57436190Y-37171009D01*
X58436190Y-37694819D02*
X58436190Y-37028152D01*
X58436190Y-37218628D02*
X58483809Y-37123390D01*
X58483809Y-37123390D02*
X58531428Y-37075771D01*
X58531428Y-37075771D02*
X58626666Y-37028152D01*
X58626666Y-37028152D02*
X58721904Y-37028152D01*
X59483809Y-37694819D02*
X59483809Y-37171009D01*
X59483809Y-37171009D02*
X59436190Y-37075771D01*
X59436190Y-37075771D02*
X59340952Y-37028152D01*
X59340952Y-37028152D02*
X59150476Y-37028152D01*
X59150476Y-37028152D02*
X59055238Y-37075771D01*
X59483809Y-37647200D02*
X59388571Y-37694819D01*
X59388571Y-37694819D02*
X59150476Y-37694819D01*
X59150476Y-37694819D02*
X59055238Y-37647200D01*
X59055238Y-37647200D02*
X59007619Y-37551961D01*
X59007619Y-37551961D02*
X59007619Y-37456723D01*
X59007619Y-37456723D02*
X59055238Y-37361485D01*
X59055238Y-37361485D02*
X59150476Y-37313866D01*
X59150476Y-37313866D02*
X59388571Y-37313866D01*
X59388571Y-37313866D02*
X59483809Y-37266247D01*
X59960000Y-37694819D02*
X59960000Y-37028152D01*
X59960000Y-36694819D02*
X59912381Y-36742438D01*
X59912381Y-36742438D02*
X59960000Y-36790057D01*
X59960000Y-36790057D02*
X60007619Y-36742438D01*
X60007619Y-36742438D02*
X59960000Y-36694819D01*
X59960000Y-36694819D02*
X59960000Y-36790057D01*
X60436190Y-37028152D02*
X60436190Y-37694819D01*
X60436190Y-37123390D02*
X60483809Y-37075771D01*
X60483809Y-37075771D02*
X60579047Y-37028152D01*
X60579047Y-37028152D02*
X60721904Y-37028152D01*
X60721904Y-37028152D02*
X60817142Y-37075771D01*
X60817142Y-37075771D02*
X60864761Y-37171009D01*
X60864761Y-37171009D02*
X60864761Y-37694819D01*
X61102857Y-37790057D02*
X61864761Y-37790057D01*
X62579047Y-36694819D02*
X62102857Y-36694819D01*
X62102857Y-36694819D02*
X62055238Y-37171009D01*
X62055238Y-37171009D02*
X62102857Y-37123390D01*
X62102857Y-37123390D02*
X62198095Y-37075771D01*
X62198095Y-37075771D02*
X62436190Y-37075771D01*
X62436190Y-37075771D02*
X62531428Y-37123390D01*
X62531428Y-37123390D02*
X62579047Y-37171009D01*
X62579047Y-37171009D02*
X62626666Y-37266247D01*
X62626666Y-37266247D02*
X62626666Y-37504342D01*
X62626666Y-37504342D02*
X62579047Y-37599580D01*
X62579047Y-37599580D02*
X62531428Y-37647200D01*
X62531428Y-37647200D02*
X62436190Y-37694819D01*
X62436190Y-37694819D02*
X62198095Y-37694819D01*
X62198095Y-37694819D02*
X62102857Y-37647200D01*
X62102857Y-37647200D02*
X62055238Y-37599580D01*
X63531428Y-36694819D02*
X63055238Y-36694819D01*
X63055238Y-36694819D02*
X63007619Y-37171009D01*
X63007619Y-37171009D02*
X63055238Y-37123390D01*
X63055238Y-37123390D02*
X63150476Y-37075771D01*
X63150476Y-37075771D02*
X63388571Y-37075771D01*
X63388571Y-37075771D02*
X63483809Y-37123390D01*
X63483809Y-37123390D02*
X63531428Y-37171009D01*
X63531428Y-37171009D02*
X63579047Y-37266247D01*
X63579047Y-37266247D02*
X63579047Y-37504342D01*
X63579047Y-37504342D02*
X63531428Y-37599580D01*
X63531428Y-37599580D02*
X63483809Y-37647200D01*
X63483809Y-37647200D02*
X63388571Y-37694819D01*
X63388571Y-37694819D02*
X63150476Y-37694819D01*
X63150476Y-37694819D02*
X63055238Y-37647200D01*
X63055238Y-37647200D02*
X63007619Y-37599580D01*
X64483809Y-36694819D02*
X64007619Y-36694819D01*
X64007619Y-36694819D02*
X63960000Y-37171009D01*
X63960000Y-37171009D02*
X64007619Y-37123390D01*
X64007619Y-37123390D02*
X64102857Y-37075771D01*
X64102857Y-37075771D02*
X64340952Y-37075771D01*
X64340952Y-37075771D02*
X64436190Y-37123390D01*
X64436190Y-37123390D02*
X64483809Y-37171009D01*
X64483809Y-37171009D02*
X64531428Y-37266247D01*
X64531428Y-37266247D02*
X64531428Y-37504342D01*
X64531428Y-37504342D02*
X64483809Y-37599580D01*
X64483809Y-37599580D02*
X64436190Y-37647200D01*
X64436190Y-37647200D02*
X64340952Y-37694819D01*
X64340952Y-37694819D02*
X64102857Y-37694819D01*
X64102857Y-37694819D02*
X64007619Y-37647200D01*
X64007619Y-37647200D02*
X63960000Y-37599580D01*
X86571009Y-75489047D02*
X86618628Y-75346190D01*
X86618628Y-75346190D02*
X86666247Y-75298571D01*
X86666247Y-75298571D02*
X86761485Y-75250952D01*
X86761485Y-75250952D02*
X86904342Y-75250952D01*
X86904342Y-75250952D02*
X86999580Y-75298571D01*
X86999580Y-75298571D02*
X87047200Y-75346190D01*
X87047200Y-75346190D02*
X87094819Y-75441428D01*
X87094819Y-75441428D02*
X87094819Y-75822380D01*
X87094819Y-75822380D02*
X86094819Y-75822380D01*
X86094819Y-75822380D02*
X86094819Y-75489047D01*
X86094819Y-75489047D02*
X86142438Y-75393809D01*
X86142438Y-75393809D02*
X86190057Y-75346190D01*
X86190057Y-75346190D02*
X86285295Y-75298571D01*
X86285295Y-75298571D02*
X86380533Y-75298571D01*
X86380533Y-75298571D02*
X86475771Y-75346190D01*
X86475771Y-75346190D02*
X86523390Y-75393809D01*
X86523390Y-75393809D02*
X86571009Y-75489047D01*
X86571009Y-75489047D02*
X86571009Y-75822380D01*
X87047200Y-74441428D02*
X87094819Y-74536666D01*
X87094819Y-74536666D02*
X87094819Y-74727142D01*
X87094819Y-74727142D02*
X87047200Y-74822380D01*
X87047200Y-74822380D02*
X86951961Y-74869999D01*
X86951961Y-74869999D02*
X86571009Y-74869999D01*
X86571009Y-74869999D02*
X86475771Y-74822380D01*
X86475771Y-74822380D02*
X86428152Y-74727142D01*
X86428152Y-74727142D02*
X86428152Y-74536666D01*
X86428152Y-74536666D02*
X86475771Y-74441428D01*
X86475771Y-74441428D02*
X86571009Y-74393809D01*
X86571009Y-74393809D02*
X86666247Y-74393809D01*
X86666247Y-74393809D02*
X86761485Y-74869999D01*
X87094819Y-73965237D02*
X86094819Y-73965237D01*
X87094819Y-73536666D02*
X86571009Y-73536666D01*
X86571009Y-73536666D02*
X86475771Y-73584285D01*
X86475771Y-73584285D02*
X86428152Y-73679523D01*
X86428152Y-73679523D02*
X86428152Y-73822380D01*
X86428152Y-73822380D02*
X86475771Y-73917618D01*
X86475771Y-73917618D02*
X86523390Y-73965237D01*
X87094819Y-72631904D02*
X86571009Y-72631904D01*
X86571009Y-72631904D02*
X86475771Y-72679523D01*
X86475771Y-72679523D02*
X86428152Y-72774761D01*
X86428152Y-72774761D02*
X86428152Y-72965237D01*
X86428152Y-72965237D02*
X86475771Y-73060475D01*
X87047200Y-72631904D02*
X87094819Y-72727142D01*
X87094819Y-72727142D02*
X87094819Y-72965237D01*
X87094819Y-72965237D02*
X87047200Y-73060475D01*
X87047200Y-73060475D02*
X86951961Y-73108094D01*
X86951961Y-73108094D02*
X86856723Y-73108094D01*
X86856723Y-73108094D02*
X86761485Y-73060475D01*
X86761485Y-73060475D02*
X86713866Y-72965237D01*
X86713866Y-72965237D02*
X86713866Y-72727142D01*
X86713866Y-72727142D02*
X86666247Y-72631904D01*
X86428152Y-72250951D02*
X87094819Y-72012856D01*
X87094819Y-72012856D02*
X86428152Y-71774761D01*
X87094819Y-71393808D02*
X86428152Y-71393808D01*
X86094819Y-71393808D02*
X86142438Y-71441427D01*
X86142438Y-71441427D02*
X86190057Y-71393808D01*
X86190057Y-71393808D02*
X86142438Y-71346189D01*
X86142438Y-71346189D02*
X86094819Y-71393808D01*
X86094819Y-71393808D02*
X86190057Y-71393808D01*
X87094819Y-70774761D02*
X87047200Y-70869999D01*
X87047200Y-70869999D02*
X86999580Y-70917618D01*
X86999580Y-70917618D02*
X86904342Y-70965237D01*
X86904342Y-70965237D02*
X86618628Y-70965237D01*
X86618628Y-70965237D02*
X86523390Y-70917618D01*
X86523390Y-70917618D02*
X86475771Y-70869999D01*
X86475771Y-70869999D02*
X86428152Y-70774761D01*
X86428152Y-70774761D02*
X86428152Y-70631904D01*
X86428152Y-70631904D02*
X86475771Y-70536666D01*
X86475771Y-70536666D02*
X86523390Y-70489047D01*
X86523390Y-70489047D02*
X86618628Y-70441428D01*
X86618628Y-70441428D02*
X86904342Y-70441428D01*
X86904342Y-70441428D02*
X86999580Y-70489047D01*
X86999580Y-70489047D02*
X87047200Y-70536666D01*
X87047200Y-70536666D02*
X87094819Y-70631904D01*
X87094819Y-70631904D02*
X87094819Y-70774761D01*
X87094819Y-70012856D02*
X86428152Y-70012856D01*
X86618628Y-70012856D02*
X86523390Y-69965237D01*
X86523390Y-69965237D02*
X86475771Y-69917618D01*
X86475771Y-69917618D02*
X86428152Y-69822380D01*
X86428152Y-69822380D02*
X86428152Y-69727142D01*
X86190057Y-69441427D02*
X86142438Y-69393808D01*
X86142438Y-69393808D02*
X86094819Y-69298570D01*
X86094819Y-69298570D02*
X86094819Y-69060475D01*
X86094819Y-69060475D02*
X86142438Y-68965237D01*
X86142438Y-68965237D02*
X86190057Y-68917618D01*
X86190057Y-68917618D02*
X86285295Y-68869999D01*
X86285295Y-68869999D02*
X86380533Y-68869999D01*
X86380533Y-68869999D02*
X86523390Y-68917618D01*
X86523390Y-68917618D02*
X87094819Y-69489046D01*
X87094819Y-69489046D02*
X87094819Y-68869999D01*
X57757200Y-112179999D02*
X57804819Y-112037142D01*
X57804819Y-112037142D02*
X57804819Y-111799047D01*
X57804819Y-111799047D02*
X57757200Y-111703809D01*
X57757200Y-111703809D02*
X57709580Y-111656190D01*
X57709580Y-111656190D02*
X57614342Y-111608571D01*
X57614342Y-111608571D02*
X57519104Y-111608571D01*
X57519104Y-111608571D02*
X57423866Y-111656190D01*
X57423866Y-111656190D02*
X57376247Y-111703809D01*
X57376247Y-111703809D02*
X57328628Y-111799047D01*
X57328628Y-111799047D02*
X57281009Y-111989523D01*
X57281009Y-111989523D02*
X57233390Y-112084761D01*
X57233390Y-112084761D02*
X57185771Y-112132380D01*
X57185771Y-112132380D02*
X57090533Y-112179999D01*
X57090533Y-112179999D02*
X56995295Y-112179999D01*
X56995295Y-112179999D02*
X56900057Y-112132380D01*
X56900057Y-112132380D02*
X56852438Y-112084761D01*
X56852438Y-112084761D02*
X56804819Y-111989523D01*
X56804819Y-111989523D02*
X56804819Y-111751428D01*
X56804819Y-111751428D02*
X56852438Y-111608571D01*
X57138152Y-111322856D02*
X57138152Y-110941904D01*
X56804819Y-111179999D02*
X57661961Y-111179999D01*
X57661961Y-111179999D02*
X57757200Y-111132380D01*
X57757200Y-111132380D02*
X57804819Y-111037142D01*
X57804819Y-111037142D02*
X57804819Y-110941904D01*
X57804819Y-110608570D02*
X57138152Y-110608570D01*
X57328628Y-110608570D02*
X57233390Y-110560951D01*
X57233390Y-110560951D02*
X57185771Y-110513332D01*
X57185771Y-110513332D02*
X57138152Y-110418094D01*
X57138152Y-110418094D02*
X57138152Y-110322856D01*
X57804819Y-109846665D02*
X57757200Y-109941903D01*
X57757200Y-109941903D02*
X57709580Y-109989522D01*
X57709580Y-109989522D02*
X57614342Y-110037141D01*
X57614342Y-110037141D02*
X57328628Y-110037141D01*
X57328628Y-110037141D02*
X57233390Y-109989522D01*
X57233390Y-109989522D02*
X57185771Y-109941903D01*
X57185771Y-109941903D02*
X57138152Y-109846665D01*
X57138152Y-109846665D02*
X57138152Y-109703808D01*
X57138152Y-109703808D02*
X57185771Y-109608570D01*
X57185771Y-109608570D02*
X57233390Y-109560951D01*
X57233390Y-109560951D02*
X57328628Y-109513332D01*
X57328628Y-109513332D02*
X57614342Y-109513332D01*
X57614342Y-109513332D02*
X57709580Y-109560951D01*
X57709580Y-109560951D02*
X57757200Y-109608570D01*
X57757200Y-109608570D02*
X57804819Y-109703808D01*
X57804819Y-109703808D02*
X57804819Y-109846665D01*
X57804819Y-109084760D02*
X56804819Y-109084760D01*
X57185771Y-109084760D02*
X57138152Y-108989522D01*
X57138152Y-108989522D02*
X57138152Y-108799046D01*
X57138152Y-108799046D02*
X57185771Y-108703808D01*
X57185771Y-108703808D02*
X57233390Y-108656189D01*
X57233390Y-108656189D02*
X57328628Y-108608570D01*
X57328628Y-108608570D02*
X57614342Y-108608570D01*
X57614342Y-108608570D02*
X57709580Y-108656189D01*
X57709580Y-108656189D02*
X57757200Y-108703808D01*
X57757200Y-108703808D02*
X57804819Y-108799046D01*
X57804819Y-108799046D02*
X57804819Y-108989522D01*
X57804819Y-108989522D02*
X57757200Y-109084760D01*
X57757200Y-107799046D02*
X57804819Y-107894284D01*
X57804819Y-107894284D02*
X57804819Y-108084760D01*
X57804819Y-108084760D02*
X57757200Y-108179998D01*
X57757200Y-108179998D02*
X57661961Y-108227617D01*
X57661961Y-108227617D02*
X57281009Y-108227617D01*
X57281009Y-108227617D02*
X57185771Y-108179998D01*
X57185771Y-108179998D02*
X57138152Y-108084760D01*
X57138152Y-108084760D02*
X57138152Y-107894284D01*
X57138152Y-107894284D02*
X57185771Y-107799046D01*
X57185771Y-107799046D02*
X57281009Y-107751427D01*
X57281009Y-107751427D02*
X57376247Y-107751427D01*
X57376247Y-107751427D02*
X57471485Y-108227617D01*
X57900057Y-107560951D02*
X57900057Y-106799046D01*
X56804819Y-106703807D02*
X56804819Y-106132379D01*
X57804819Y-106418093D02*
X56804819Y-106418093D01*
X57804819Y-105799045D02*
X57138152Y-105799045D01*
X56804819Y-105799045D02*
X56852438Y-105846664D01*
X56852438Y-105846664D02*
X56900057Y-105799045D01*
X56900057Y-105799045D02*
X56852438Y-105751426D01*
X56852438Y-105751426D02*
X56804819Y-105799045D01*
X56804819Y-105799045D02*
X56900057Y-105799045D01*
X57804819Y-105322855D02*
X57138152Y-105322855D01*
X57233390Y-105322855D02*
X57185771Y-105275236D01*
X57185771Y-105275236D02*
X57138152Y-105179998D01*
X57138152Y-105179998D02*
X57138152Y-105037141D01*
X57138152Y-105037141D02*
X57185771Y-104941903D01*
X57185771Y-104941903D02*
X57281009Y-104894284D01*
X57281009Y-104894284D02*
X57804819Y-104894284D01*
X57281009Y-104894284D02*
X57185771Y-104846665D01*
X57185771Y-104846665D02*
X57138152Y-104751427D01*
X57138152Y-104751427D02*
X57138152Y-104608570D01*
X57138152Y-104608570D02*
X57185771Y-104513331D01*
X57185771Y-104513331D02*
X57281009Y-104465712D01*
X57281009Y-104465712D02*
X57804819Y-104465712D01*
X57804819Y-103989522D02*
X57138152Y-103989522D01*
X56804819Y-103989522D02*
X56852438Y-104037141D01*
X56852438Y-104037141D02*
X56900057Y-103989522D01*
X56900057Y-103989522D02*
X56852438Y-103941903D01*
X56852438Y-103941903D02*
X56804819Y-103989522D01*
X56804819Y-103989522D02*
X56900057Y-103989522D01*
X57138152Y-103513332D02*
X57804819Y-103513332D01*
X57233390Y-103513332D02*
X57185771Y-103465713D01*
X57185771Y-103465713D02*
X57138152Y-103370475D01*
X57138152Y-103370475D02*
X57138152Y-103227618D01*
X57138152Y-103227618D02*
X57185771Y-103132380D01*
X57185771Y-103132380D02*
X57281009Y-103084761D01*
X57281009Y-103084761D02*
X57804819Y-103084761D01*
X57138152Y-102179999D02*
X57947676Y-102179999D01*
X57947676Y-102179999D02*
X58042914Y-102227618D01*
X58042914Y-102227618D02*
X58090533Y-102275237D01*
X58090533Y-102275237D02*
X58138152Y-102370475D01*
X58138152Y-102370475D02*
X58138152Y-102513332D01*
X58138152Y-102513332D02*
X58090533Y-102608570D01*
X57757200Y-102179999D02*
X57804819Y-102275237D01*
X57804819Y-102275237D02*
X57804819Y-102465713D01*
X57804819Y-102465713D02*
X57757200Y-102560951D01*
X57757200Y-102560951D02*
X57709580Y-102608570D01*
X57709580Y-102608570D02*
X57614342Y-102656189D01*
X57614342Y-102656189D02*
X57328628Y-102656189D01*
X57328628Y-102656189D02*
X57233390Y-102608570D01*
X57233390Y-102608570D02*
X57185771Y-102560951D01*
X57185771Y-102560951D02*
X57138152Y-102465713D01*
X57138152Y-102465713D02*
X57138152Y-102275237D01*
X57138152Y-102275237D02*
X57185771Y-102179999D01*
X57804819Y-101179999D02*
X57804819Y-101751427D01*
X57804819Y-101465713D02*
X56804819Y-101465713D01*
X56804819Y-101465713D02*
X56947676Y-101560951D01*
X56947676Y-101560951D02*
X57042914Y-101656189D01*
X57042914Y-101656189D02*
X57090533Y-101751427D01*
X34226667Y-73187200D02*
X34369524Y-73234819D01*
X34369524Y-73234819D02*
X34607619Y-73234819D01*
X34607619Y-73234819D02*
X34702857Y-73187200D01*
X34702857Y-73187200D02*
X34750476Y-73139580D01*
X34750476Y-73139580D02*
X34798095Y-73044342D01*
X34798095Y-73044342D02*
X34798095Y-72949104D01*
X34798095Y-72949104D02*
X34750476Y-72853866D01*
X34750476Y-72853866D02*
X34702857Y-72806247D01*
X34702857Y-72806247D02*
X34607619Y-72758628D01*
X34607619Y-72758628D02*
X34417143Y-72711009D01*
X34417143Y-72711009D02*
X34321905Y-72663390D01*
X34321905Y-72663390D02*
X34274286Y-72615771D01*
X34274286Y-72615771D02*
X34226667Y-72520533D01*
X34226667Y-72520533D02*
X34226667Y-72425295D01*
X34226667Y-72425295D02*
X34274286Y-72330057D01*
X34274286Y-72330057D02*
X34321905Y-72282438D01*
X34321905Y-72282438D02*
X34417143Y-72234819D01*
X34417143Y-72234819D02*
X34655238Y-72234819D01*
X34655238Y-72234819D02*
X34798095Y-72282438D01*
X35131429Y-72234819D02*
X35369524Y-73234819D01*
X35369524Y-73234819D02*
X35560000Y-72520533D01*
X35560000Y-72520533D02*
X35750476Y-73234819D01*
X35750476Y-73234819D02*
X35988572Y-72234819D01*
X36893333Y-73234819D02*
X36321905Y-73234819D01*
X36607619Y-73234819D02*
X36607619Y-72234819D01*
X36607619Y-72234819D02*
X36512381Y-72377676D01*
X36512381Y-72377676D02*
X36417143Y-72472914D01*
X36417143Y-72472914D02*
X36321905Y-72520533D01*
X44958095Y-64584819D02*
X44958095Y-65394342D01*
X44958095Y-65394342D02*
X45005714Y-65489580D01*
X45005714Y-65489580D02*
X45053333Y-65537200D01*
X45053333Y-65537200D02*
X45148571Y-65584819D01*
X45148571Y-65584819D02*
X45339047Y-65584819D01*
X45339047Y-65584819D02*
X45434285Y-65537200D01*
X45434285Y-65537200D02*
X45481904Y-65489580D01*
X45481904Y-65489580D02*
X45529523Y-65394342D01*
X45529523Y-65394342D02*
X45529523Y-64584819D01*
X46529523Y-65584819D02*
X45958095Y-65584819D01*
X46243809Y-65584819D02*
X46243809Y-64584819D01*
X46243809Y-64584819D02*
X46148571Y-64727676D01*
X46148571Y-64727676D02*
X46053333Y-64822914D01*
X46053333Y-64822914D02*
X45958095Y-64870533D01*
X36255833Y-62459580D02*
X36208214Y-62507200D01*
X36208214Y-62507200D02*
X36065357Y-62554819D01*
X36065357Y-62554819D02*
X35970119Y-62554819D01*
X35970119Y-62554819D02*
X35827262Y-62507200D01*
X35827262Y-62507200D02*
X35732024Y-62411961D01*
X35732024Y-62411961D02*
X35684405Y-62316723D01*
X35684405Y-62316723D02*
X35636786Y-62126247D01*
X35636786Y-62126247D02*
X35636786Y-61983390D01*
X35636786Y-61983390D02*
X35684405Y-61792914D01*
X35684405Y-61792914D02*
X35732024Y-61697676D01*
X35732024Y-61697676D02*
X35827262Y-61602438D01*
X35827262Y-61602438D02*
X35970119Y-61554819D01*
X35970119Y-61554819D02*
X36065357Y-61554819D01*
X36065357Y-61554819D02*
X36208214Y-61602438D01*
X36208214Y-61602438D02*
X36255833Y-61650057D01*
X37208214Y-62554819D02*
X36636786Y-62554819D01*
X36922500Y-62554819D02*
X36922500Y-61554819D01*
X36922500Y-61554819D02*
X36827262Y-61697676D01*
X36827262Y-61697676D02*
X36732024Y-61792914D01*
X36732024Y-61792914D02*
X36636786Y-61840533D01*
X42013333Y-62304819D02*
X41680000Y-61828628D01*
X41441905Y-62304819D02*
X41441905Y-61304819D01*
X41441905Y-61304819D02*
X41822857Y-61304819D01*
X41822857Y-61304819D02*
X41918095Y-61352438D01*
X41918095Y-61352438D02*
X41965714Y-61400057D01*
X41965714Y-61400057D02*
X42013333Y-61495295D01*
X42013333Y-61495295D02*
X42013333Y-61638152D01*
X42013333Y-61638152D02*
X41965714Y-61733390D01*
X41965714Y-61733390D02*
X41918095Y-61781009D01*
X41918095Y-61781009D02*
X41822857Y-61828628D01*
X41822857Y-61828628D02*
X41441905Y-61828628D01*
X42870476Y-61638152D02*
X42870476Y-62304819D01*
X42632381Y-61257200D02*
X42394286Y-61971485D01*
X42394286Y-61971485D02*
X43013333Y-61971485D01*
X87054700Y-114656761D02*
X87102319Y-114513904D01*
X87102319Y-114513904D02*
X87102319Y-114275809D01*
X87102319Y-114275809D02*
X87054700Y-114180571D01*
X87054700Y-114180571D02*
X87007080Y-114132952D01*
X87007080Y-114132952D02*
X86911842Y-114085333D01*
X86911842Y-114085333D02*
X86816604Y-114085333D01*
X86816604Y-114085333D02*
X86721366Y-114132952D01*
X86721366Y-114132952D02*
X86673747Y-114180571D01*
X86673747Y-114180571D02*
X86626128Y-114275809D01*
X86626128Y-114275809D02*
X86578509Y-114466285D01*
X86578509Y-114466285D02*
X86530890Y-114561523D01*
X86530890Y-114561523D02*
X86483271Y-114609142D01*
X86483271Y-114609142D02*
X86388033Y-114656761D01*
X86388033Y-114656761D02*
X86292795Y-114656761D01*
X86292795Y-114656761D02*
X86197557Y-114609142D01*
X86197557Y-114609142D02*
X86149938Y-114561523D01*
X86149938Y-114561523D02*
X86102319Y-114466285D01*
X86102319Y-114466285D02*
X86102319Y-114228190D01*
X86102319Y-114228190D02*
X86149938Y-114085333D01*
X86435652Y-113799618D02*
X86435652Y-113418666D01*
X86102319Y-113656761D02*
X86959461Y-113656761D01*
X86959461Y-113656761D02*
X87054700Y-113609142D01*
X87054700Y-113609142D02*
X87102319Y-113513904D01*
X87102319Y-113513904D02*
X87102319Y-113418666D01*
X87102319Y-113085332D02*
X86435652Y-113085332D01*
X86626128Y-113085332D02*
X86530890Y-113037713D01*
X86530890Y-113037713D02*
X86483271Y-112990094D01*
X86483271Y-112990094D02*
X86435652Y-112894856D01*
X86435652Y-112894856D02*
X86435652Y-112799618D01*
X87102319Y-112323427D02*
X87054700Y-112418665D01*
X87054700Y-112418665D02*
X87007080Y-112466284D01*
X87007080Y-112466284D02*
X86911842Y-112513903D01*
X86911842Y-112513903D02*
X86626128Y-112513903D01*
X86626128Y-112513903D02*
X86530890Y-112466284D01*
X86530890Y-112466284D02*
X86483271Y-112418665D01*
X86483271Y-112418665D02*
X86435652Y-112323427D01*
X86435652Y-112323427D02*
X86435652Y-112180570D01*
X86435652Y-112180570D02*
X86483271Y-112085332D01*
X86483271Y-112085332D02*
X86530890Y-112037713D01*
X86530890Y-112037713D02*
X86626128Y-111990094D01*
X86626128Y-111990094D02*
X86911842Y-111990094D01*
X86911842Y-111990094D02*
X87007080Y-112037713D01*
X87007080Y-112037713D02*
X87054700Y-112085332D01*
X87054700Y-112085332D02*
X87102319Y-112180570D01*
X87102319Y-112180570D02*
X87102319Y-112323427D01*
X87102319Y-111561522D02*
X86102319Y-111561522D01*
X86483271Y-111561522D02*
X86435652Y-111466284D01*
X86435652Y-111466284D02*
X86435652Y-111275808D01*
X86435652Y-111275808D02*
X86483271Y-111180570D01*
X86483271Y-111180570D02*
X86530890Y-111132951D01*
X86530890Y-111132951D02*
X86626128Y-111085332D01*
X86626128Y-111085332D02*
X86911842Y-111085332D01*
X86911842Y-111085332D02*
X87007080Y-111132951D01*
X87007080Y-111132951D02*
X87054700Y-111180570D01*
X87054700Y-111180570D02*
X87102319Y-111275808D01*
X87102319Y-111275808D02*
X87102319Y-111466284D01*
X87102319Y-111466284D02*
X87054700Y-111561522D01*
X87102319Y-110656760D02*
X86435652Y-110656760D01*
X86102319Y-110656760D02*
X86149938Y-110704379D01*
X86149938Y-110704379D02*
X86197557Y-110656760D01*
X86197557Y-110656760D02*
X86149938Y-110609141D01*
X86149938Y-110609141D02*
X86102319Y-110656760D01*
X86102319Y-110656760D02*
X86197557Y-110656760D01*
X86435652Y-110180570D02*
X87102319Y-110180570D01*
X86530890Y-110180570D02*
X86483271Y-110132951D01*
X86483271Y-110132951D02*
X86435652Y-110037713D01*
X86435652Y-110037713D02*
X86435652Y-109894856D01*
X86435652Y-109894856D02*
X86483271Y-109799618D01*
X86483271Y-109799618D02*
X86578509Y-109751999D01*
X86578509Y-109751999D02*
X87102319Y-109751999D01*
X86435652Y-108847237D02*
X87245176Y-108847237D01*
X87245176Y-108847237D02*
X87340414Y-108894856D01*
X87340414Y-108894856D02*
X87388033Y-108942475D01*
X87388033Y-108942475D02*
X87435652Y-109037713D01*
X87435652Y-109037713D02*
X87435652Y-109180570D01*
X87435652Y-109180570D02*
X87388033Y-109275808D01*
X87054700Y-108847237D02*
X87102319Y-108942475D01*
X87102319Y-108942475D02*
X87102319Y-109132951D01*
X87102319Y-109132951D02*
X87054700Y-109228189D01*
X87054700Y-109228189D02*
X87007080Y-109275808D01*
X87007080Y-109275808D02*
X86911842Y-109323427D01*
X86911842Y-109323427D02*
X86626128Y-109323427D01*
X86626128Y-109323427D02*
X86530890Y-109275808D01*
X86530890Y-109275808D02*
X86483271Y-109228189D01*
X86483271Y-109228189D02*
X86435652Y-109132951D01*
X86435652Y-109132951D02*
X86435652Y-108942475D01*
X86435652Y-108942475D02*
X86483271Y-108847237D01*
X86197557Y-108418665D02*
X86149938Y-108371046D01*
X86149938Y-108371046D02*
X86102319Y-108275808D01*
X86102319Y-108275808D02*
X86102319Y-108037713D01*
X86102319Y-108037713D02*
X86149938Y-107942475D01*
X86149938Y-107942475D02*
X86197557Y-107894856D01*
X86197557Y-107894856D02*
X86292795Y-107847237D01*
X86292795Y-107847237D02*
X86388033Y-107847237D01*
X86388033Y-107847237D02*
X86530890Y-107894856D01*
X86530890Y-107894856D02*
X87102319Y-108466284D01*
X87102319Y-108466284D02*
X87102319Y-107847237D01*
X53854819Y-42925904D02*
X54664342Y-42925904D01*
X54664342Y-42925904D02*
X54759580Y-42878285D01*
X54759580Y-42878285D02*
X54807200Y-42830666D01*
X54807200Y-42830666D02*
X54854819Y-42735428D01*
X54854819Y-42735428D02*
X54854819Y-42544952D01*
X54854819Y-42544952D02*
X54807200Y-42449714D01*
X54807200Y-42449714D02*
X54759580Y-42402095D01*
X54759580Y-42402095D02*
X54664342Y-42354476D01*
X54664342Y-42354476D02*
X53854819Y-42354476D01*
X54854819Y-41830666D02*
X54854819Y-41640190D01*
X54854819Y-41640190D02*
X54807200Y-41544952D01*
X54807200Y-41544952D02*
X54759580Y-41497333D01*
X54759580Y-41497333D02*
X54616723Y-41402095D01*
X54616723Y-41402095D02*
X54426247Y-41354476D01*
X54426247Y-41354476D02*
X54045295Y-41354476D01*
X54045295Y-41354476D02*
X53950057Y-41402095D01*
X53950057Y-41402095D02*
X53902438Y-41449714D01*
X53902438Y-41449714D02*
X53854819Y-41544952D01*
X53854819Y-41544952D02*
X53854819Y-41735428D01*
X53854819Y-41735428D02*
X53902438Y-41830666D01*
X53902438Y-41830666D02*
X53950057Y-41878285D01*
X53950057Y-41878285D02*
X54045295Y-41925904D01*
X54045295Y-41925904D02*
X54283390Y-41925904D01*
X54283390Y-41925904D02*
X54378628Y-41878285D01*
X54378628Y-41878285D02*
X54426247Y-41830666D01*
X54426247Y-41830666D02*
X54473866Y-41735428D01*
X54473866Y-41735428D02*
X54473866Y-41544952D01*
X54473866Y-41544952D02*
X54426247Y-41449714D01*
X54426247Y-41449714D02*
X54378628Y-41402095D01*
X54378628Y-41402095D02*
X54283390Y-41354476D01*
X34334819Y-58180952D02*
X35334819Y-57942857D01*
X35334819Y-57942857D02*
X34620533Y-57752381D01*
X34620533Y-57752381D02*
X35334819Y-57561905D01*
X35334819Y-57561905D02*
X34334819Y-57323810D01*
X35334819Y-56942857D02*
X34668152Y-56942857D01*
X34334819Y-56942857D02*
X34382438Y-56990476D01*
X34382438Y-56990476D02*
X34430057Y-56942857D01*
X34430057Y-56942857D02*
X34382438Y-56895238D01*
X34382438Y-56895238D02*
X34334819Y-56942857D01*
X34334819Y-56942857D02*
X34430057Y-56942857D01*
X35334819Y-56038096D02*
X34334819Y-56038096D01*
X35287200Y-56038096D02*
X35334819Y-56133334D01*
X35334819Y-56133334D02*
X35334819Y-56323810D01*
X35334819Y-56323810D02*
X35287200Y-56419048D01*
X35287200Y-56419048D02*
X35239580Y-56466667D01*
X35239580Y-56466667D02*
X35144342Y-56514286D01*
X35144342Y-56514286D02*
X34858628Y-56514286D01*
X34858628Y-56514286D02*
X34763390Y-56466667D01*
X34763390Y-56466667D02*
X34715771Y-56419048D01*
X34715771Y-56419048D02*
X34668152Y-56323810D01*
X34668152Y-56323810D02*
X34668152Y-56133334D01*
X34668152Y-56133334D02*
X34715771Y-56038096D01*
X34668152Y-55704762D02*
X34668152Y-55323810D01*
X34334819Y-55561905D02*
X35191961Y-55561905D01*
X35191961Y-55561905D02*
X35287200Y-55514286D01*
X35287200Y-55514286D02*
X35334819Y-55419048D01*
X35334819Y-55419048D02*
X35334819Y-55323810D01*
X35334819Y-54990476D02*
X34334819Y-54990476D01*
X35334819Y-54561905D02*
X34811009Y-54561905D01*
X34811009Y-54561905D02*
X34715771Y-54609524D01*
X34715771Y-54609524D02*
X34668152Y-54704762D01*
X34668152Y-54704762D02*
X34668152Y-54847619D01*
X34668152Y-54847619D02*
X34715771Y-54942857D01*
X34715771Y-54942857D02*
X34763390Y-54990476D01*
X35239580Y-53514286D02*
X35287200Y-53561905D01*
X35287200Y-53561905D02*
X35334819Y-53704762D01*
X35334819Y-53704762D02*
X35334819Y-53800000D01*
X35334819Y-53800000D02*
X35287200Y-53942857D01*
X35287200Y-53942857D02*
X35191961Y-54038095D01*
X35191961Y-54038095D02*
X35096723Y-54085714D01*
X35096723Y-54085714D02*
X34906247Y-54133333D01*
X34906247Y-54133333D02*
X34763390Y-54133333D01*
X34763390Y-54133333D02*
X34572914Y-54085714D01*
X34572914Y-54085714D02*
X34477676Y-54038095D01*
X34477676Y-54038095D02*
X34382438Y-53942857D01*
X34382438Y-53942857D02*
X34334819Y-53800000D01*
X34334819Y-53800000D02*
X34334819Y-53704762D01*
X34334819Y-53704762D02*
X34382438Y-53561905D01*
X34382438Y-53561905D02*
X34430057Y-53514286D01*
X35334819Y-52942857D02*
X35287200Y-53038095D01*
X35287200Y-53038095D02*
X35239580Y-53085714D01*
X35239580Y-53085714D02*
X35144342Y-53133333D01*
X35144342Y-53133333D02*
X34858628Y-53133333D01*
X34858628Y-53133333D02*
X34763390Y-53085714D01*
X34763390Y-53085714D02*
X34715771Y-53038095D01*
X34715771Y-53038095D02*
X34668152Y-52942857D01*
X34668152Y-52942857D02*
X34668152Y-52800000D01*
X34668152Y-52800000D02*
X34715771Y-52704762D01*
X34715771Y-52704762D02*
X34763390Y-52657143D01*
X34763390Y-52657143D02*
X34858628Y-52609524D01*
X34858628Y-52609524D02*
X35144342Y-52609524D01*
X35144342Y-52609524D02*
X35239580Y-52657143D01*
X35239580Y-52657143D02*
X35287200Y-52704762D01*
X35287200Y-52704762D02*
X35334819Y-52800000D01*
X35334819Y-52800000D02*
X35334819Y-52942857D01*
X34668152Y-52180952D02*
X35334819Y-52180952D01*
X34763390Y-52180952D02*
X34715771Y-52133333D01*
X34715771Y-52133333D02*
X34668152Y-52038095D01*
X34668152Y-52038095D02*
X34668152Y-51895238D01*
X34668152Y-51895238D02*
X34715771Y-51800000D01*
X34715771Y-51800000D02*
X34811009Y-51752381D01*
X34811009Y-51752381D02*
X35334819Y-51752381D01*
X34668152Y-51419047D02*
X34668152Y-51038095D01*
X34334819Y-51276190D02*
X35191961Y-51276190D01*
X35191961Y-51276190D02*
X35287200Y-51228571D01*
X35287200Y-51228571D02*
X35334819Y-51133333D01*
X35334819Y-51133333D02*
X35334819Y-51038095D01*
X35334819Y-50704761D02*
X34668152Y-50704761D01*
X34858628Y-50704761D02*
X34763390Y-50657142D01*
X34763390Y-50657142D02*
X34715771Y-50609523D01*
X34715771Y-50609523D02*
X34668152Y-50514285D01*
X34668152Y-50514285D02*
X34668152Y-50419047D01*
X35334819Y-49942856D02*
X35287200Y-50038094D01*
X35287200Y-50038094D02*
X35239580Y-50085713D01*
X35239580Y-50085713D02*
X35144342Y-50133332D01*
X35144342Y-50133332D02*
X34858628Y-50133332D01*
X34858628Y-50133332D02*
X34763390Y-50085713D01*
X34763390Y-50085713D02*
X34715771Y-50038094D01*
X34715771Y-50038094D02*
X34668152Y-49942856D01*
X34668152Y-49942856D02*
X34668152Y-49799999D01*
X34668152Y-49799999D02*
X34715771Y-49704761D01*
X34715771Y-49704761D02*
X34763390Y-49657142D01*
X34763390Y-49657142D02*
X34858628Y-49609523D01*
X34858628Y-49609523D02*
X35144342Y-49609523D01*
X35144342Y-49609523D02*
X35239580Y-49657142D01*
X35239580Y-49657142D02*
X35287200Y-49704761D01*
X35287200Y-49704761D02*
X35334819Y-49799999D01*
X35334819Y-49799999D02*
X35334819Y-49942856D01*
X35334819Y-49038094D02*
X35287200Y-49133332D01*
X35287200Y-49133332D02*
X35191961Y-49180951D01*
X35191961Y-49180951D02*
X34334819Y-49180951D01*
X35287200Y-48704760D02*
X35334819Y-48561903D01*
X35334819Y-48561903D02*
X35334819Y-48323808D01*
X35334819Y-48323808D02*
X35287200Y-48228570D01*
X35287200Y-48228570D02*
X35239580Y-48180951D01*
X35239580Y-48180951D02*
X35144342Y-48133332D01*
X35144342Y-48133332D02*
X35049104Y-48133332D01*
X35049104Y-48133332D02*
X34953866Y-48180951D01*
X34953866Y-48180951D02*
X34906247Y-48228570D01*
X34906247Y-48228570D02*
X34858628Y-48323808D01*
X34858628Y-48323808D02*
X34811009Y-48514284D01*
X34811009Y-48514284D02*
X34763390Y-48609522D01*
X34763390Y-48609522D02*
X34715771Y-48657141D01*
X34715771Y-48657141D02*
X34620533Y-48704760D01*
X34620533Y-48704760D02*
X34525295Y-48704760D01*
X34525295Y-48704760D02*
X34430057Y-48657141D01*
X34430057Y-48657141D02*
X34382438Y-48609522D01*
X34382438Y-48609522D02*
X34334819Y-48514284D01*
X34334819Y-48514284D02*
X34334819Y-48276189D01*
X34334819Y-48276189D02*
X34382438Y-48133332D01*
X35334819Y-47704760D02*
X34668152Y-47704760D01*
X34334819Y-47704760D02*
X34382438Y-47752379D01*
X34382438Y-47752379D02*
X34430057Y-47704760D01*
X34430057Y-47704760D02*
X34382438Y-47657141D01*
X34382438Y-47657141D02*
X34334819Y-47704760D01*
X34334819Y-47704760D02*
X34430057Y-47704760D01*
X34668152Y-46799999D02*
X35477676Y-46799999D01*
X35477676Y-46799999D02*
X35572914Y-46847618D01*
X35572914Y-46847618D02*
X35620533Y-46895237D01*
X35620533Y-46895237D02*
X35668152Y-46990475D01*
X35668152Y-46990475D02*
X35668152Y-47133332D01*
X35668152Y-47133332D02*
X35620533Y-47228570D01*
X35287200Y-46799999D02*
X35334819Y-46895237D01*
X35334819Y-46895237D02*
X35334819Y-47085713D01*
X35334819Y-47085713D02*
X35287200Y-47180951D01*
X35287200Y-47180951D02*
X35239580Y-47228570D01*
X35239580Y-47228570D02*
X35144342Y-47276189D01*
X35144342Y-47276189D02*
X34858628Y-47276189D01*
X34858628Y-47276189D02*
X34763390Y-47228570D01*
X34763390Y-47228570D02*
X34715771Y-47180951D01*
X34715771Y-47180951D02*
X34668152Y-47085713D01*
X34668152Y-47085713D02*
X34668152Y-46895237D01*
X34668152Y-46895237D02*
X34715771Y-46799999D01*
X34668152Y-46323808D02*
X35334819Y-46323808D01*
X34763390Y-46323808D02*
X34715771Y-46276189D01*
X34715771Y-46276189D02*
X34668152Y-46180951D01*
X34668152Y-46180951D02*
X34668152Y-46038094D01*
X34668152Y-46038094D02*
X34715771Y-45942856D01*
X34715771Y-45942856D02*
X34811009Y-45895237D01*
X34811009Y-45895237D02*
X35334819Y-45895237D01*
X35334819Y-44990475D02*
X34811009Y-44990475D01*
X34811009Y-44990475D02*
X34715771Y-45038094D01*
X34715771Y-45038094D02*
X34668152Y-45133332D01*
X34668152Y-45133332D02*
X34668152Y-45323808D01*
X34668152Y-45323808D02*
X34715771Y-45419046D01*
X35287200Y-44990475D02*
X35334819Y-45085713D01*
X35334819Y-45085713D02*
X35334819Y-45323808D01*
X35334819Y-45323808D02*
X35287200Y-45419046D01*
X35287200Y-45419046D02*
X35191961Y-45466665D01*
X35191961Y-45466665D02*
X35096723Y-45466665D01*
X35096723Y-45466665D02*
X35001485Y-45419046D01*
X35001485Y-45419046D02*
X34953866Y-45323808D01*
X34953866Y-45323808D02*
X34953866Y-45085713D01*
X34953866Y-45085713D02*
X34906247Y-44990475D01*
X35334819Y-44371427D02*
X35287200Y-44466665D01*
X35287200Y-44466665D02*
X35191961Y-44514284D01*
X35191961Y-44514284D02*
X34334819Y-44514284D01*
X35334819Y-43466665D02*
X35334819Y-44038093D01*
X35334819Y-43752379D02*
X34334819Y-43752379D01*
X34334819Y-43752379D02*
X34477676Y-43847617D01*
X34477676Y-43847617D02*
X34572914Y-43942855D01*
X34572914Y-43942855D02*
X34620533Y-44038093D01*
X72901009Y-82009523D02*
X72948628Y-81866666D01*
X72948628Y-81866666D02*
X72996247Y-81819047D01*
X72996247Y-81819047D02*
X73091485Y-81771428D01*
X73091485Y-81771428D02*
X73234342Y-81771428D01*
X73234342Y-81771428D02*
X73329580Y-81819047D01*
X73329580Y-81819047D02*
X73377200Y-81866666D01*
X73377200Y-81866666D02*
X73424819Y-81961904D01*
X73424819Y-81961904D02*
X73424819Y-82342856D01*
X73424819Y-82342856D02*
X72424819Y-82342856D01*
X72424819Y-82342856D02*
X72424819Y-82009523D01*
X72424819Y-82009523D02*
X72472438Y-81914285D01*
X72472438Y-81914285D02*
X72520057Y-81866666D01*
X72520057Y-81866666D02*
X72615295Y-81819047D01*
X72615295Y-81819047D02*
X72710533Y-81819047D01*
X72710533Y-81819047D02*
X72805771Y-81866666D01*
X72805771Y-81866666D02*
X72853390Y-81914285D01*
X72853390Y-81914285D02*
X72901009Y-82009523D01*
X72901009Y-82009523D02*
X72901009Y-82342856D01*
X73377200Y-80961904D02*
X73424819Y-81057142D01*
X73424819Y-81057142D02*
X73424819Y-81247618D01*
X73424819Y-81247618D02*
X73377200Y-81342856D01*
X73377200Y-81342856D02*
X73281961Y-81390475D01*
X73281961Y-81390475D02*
X72901009Y-81390475D01*
X72901009Y-81390475D02*
X72805771Y-81342856D01*
X72805771Y-81342856D02*
X72758152Y-81247618D01*
X72758152Y-81247618D02*
X72758152Y-81057142D01*
X72758152Y-81057142D02*
X72805771Y-80961904D01*
X72805771Y-80961904D02*
X72901009Y-80914285D01*
X72901009Y-80914285D02*
X72996247Y-80914285D01*
X72996247Y-80914285D02*
X73091485Y-81390475D01*
X73424819Y-80485713D02*
X72424819Y-80485713D01*
X73424819Y-80057142D02*
X72901009Y-80057142D01*
X72901009Y-80057142D02*
X72805771Y-80104761D01*
X72805771Y-80104761D02*
X72758152Y-80199999D01*
X72758152Y-80199999D02*
X72758152Y-80342856D01*
X72758152Y-80342856D02*
X72805771Y-80438094D01*
X72805771Y-80438094D02*
X72853390Y-80485713D01*
X73424819Y-79152380D02*
X72901009Y-79152380D01*
X72901009Y-79152380D02*
X72805771Y-79199999D01*
X72805771Y-79199999D02*
X72758152Y-79295237D01*
X72758152Y-79295237D02*
X72758152Y-79485713D01*
X72758152Y-79485713D02*
X72805771Y-79580951D01*
X73377200Y-79152380D02*
X73424819Y-79247618D01*
X73424819Y-79247618D02*
X73424819Y-79485713D01*
X73424819Y-79485713D02*
X73377200Y-79580951D01*
X73377200Y-79580951D02*
X73281961Y-79628570D01*
X73281961Y-79628570D02*
X73186723Y-79628570D01*
X73186723Y-79628570D02*
X73091485Y-79580951D01*
X73091485Y-79580951D02*
X73043866Y-79485713D01*
X73043866Y-79485713D02*
X73043866Y-79247618D01*
X73043866Y-79247618D02*
X72996247Y-79152380D01*
X72758152Y-78771427D02*
X73424819Y-78533332D01*
X73424819Y-78533332D02*
X72758152Y-78295237D01*
X73520057Y-78152380D02*
X73520057Y-77390475D01*
X72424819Y-77295236D02*
X72424819Y-76723808D01*
X73424819Y-77009522D02*
X72424819Y-77009522D01*
X73424819Y-76390474D02*
X72758152Y-76390474D01*
X72424819Y-76390474D02*
X72472438Y-76438093D01*
X72472438Y-76438093D02*
X72520057Y-76390474D01*
X72520057Y-76390474D02*
X72472438Y-76342855D01*
X72472438Y-76342855D02*
X72424819Y-76390474D01*
X72424819Y-76390474D02*
X72520057Y-76390474D01*
X73424819Y-75914284D02*
X72758152Y-75914284D01*
X72853390Y-75914284D02*
X72805771Y-75866665D01*
X72805771Y-75866665D02*
X72758152Y-75771427D01*
X72758152Y-75771427D02*
X72758152Y-75628570D01*
X72758152Y-75628570D02*
X72805771Y-75533332D01*
X72805771Y-75533332D02*
X72901009Y-75485713D01*
X72901009Y-75485713D02*
X73424819Y-75485713D01*
X72901009Y-75485713D02*
X72805771Y-75438094D01*
X72805771Y-75438094D02*
X72758152Y-75342856D01*
X72758152Y-75342856D02*
X72758152Y-75199999D01*
X72758152Y-75199999D02*
X72805771Y-75104760D01*
X72805771Y-75104760D02*
X72901009Y-75057141D01*
X72901009Y-75057141D02*
X73424819Y-75057141D01*
X73424819Y-74580951D02*
X72758152Y-74580951D01*
X72424819Y-74580951D02*
X72472438Y-74628570D01*
X72472438Y-74628570D02*
X72520057Y-74580951D01*
X72520057Y-74580951D02*
X72472438Y-74533332D01*
X72472438Y-74533332D02*
X72424819Y-74580951D01*
X72424819Y-74580951D02*
X72520057Y-74580951D01*
X72758152Y-74104761D02*
X73424819Y-74104761D01*
X72853390Y-74104761D02*
X72805771Y-74057142D01*
X72805771Y-74057142D02*
X72758152Y-73961904D01*
X72758152Y-73961904D02*
X72758152Y-73819047D01*
X72758152Y-73819047D02*
X72805771Y-73723809D01*
X72805771Y-73723809D02*
X72901009Y-73676190D01*
X72901009Y-73676190D02*
X73424819Y-73676190D01*
X72758152Y-72771428D02*
X73567676Y-72771428D01*
X73567676Y-72771428D02*
X73662914Y-72819047D01*
X73662914Y-72819047D02*
X73710533Y-72866666D01*
X73710533Y-72866666D02*
X73758152Y-72961904D01*
X73758152Y-72961904D02*
X73758152Y-73104761D01*
X73758152Y-73104761D02*
X73710533Y-73199999D01*
X73377200Y-72771428D02*
X73424819Y-72866666D01*
X73424819Y-72866666D02*
X73424819Y-73057142D01*
X73424819Y-73057142D02*
X73377200Y-73152380D01*
X73377200Y-73152380D02*
X73329580Y-73199999D01*
X73329580Y-73199999D02*
X73234342Y-73247618D01*
X73234342Y-73247618D02*
X72948628Y-73247618D01*
X72948628Y-73247618D02*
X72853390Y-73199999D01*
X72853390Y-73199999D02*
X72805771Y-73152380D01*
X72805771Y-73152380D02*
X72758152Y-73057142D01*
X72758152Y-73057142D02*
X72758152Y-72866666D01*
X72758152Y-72866666D02*
X72805771Y-72771428D01*
X73520057Y-72533333D02*
X73520057Y-71771428D01*
X73329580Y-70961904D02*
X73377200Y-71009523D01*
X73377200Y-71009523D02*
X73424819Y-71152380D01*
X73424819Y-71152380D02*
X73424819Y-71247618D01*
X73424819Y-71247618D02*
X73377200Y-71390475D01*
X73377200Y-71390475D02*
X73281961Y-71485713D01*
X73281961Y-71485713D02*
X73186723Y-71533332D01*
X73186723Y-71533332D02*
X72996247Y-71580951D01*
X72996247Y-71580951D02*
X72853390Y-71580951D01*
X72853390Y-71580951D02*
X72662914Y-71533332D01*
X72662914Y-71533332D02*
X72567676Y-71485713D01*
X72567676Y-71485713D02*
X72472438Y-71390475D01*
X72472438Y-71390475D02*
X72424819Y-71247618D01*
X72424819Y-71247618D02*
X72424819Y-71152380D01*
X72424819Y-71152380D02*
X72472438Y-71009523D01*
X72472438Y-71009523D02*
X72520057Y-70961904D01*
X73424819Y-70009523D02*
X73424819Y-70580951D01*
X73424819Y-70295237D02*
X72424819Y-70295237D01*
X72424819Y-70295237D02*
X72567676Y-70390475D01*
X72567676Y-70390475D02*
X72662914Y-70485713D01*
X72662914Y-70485713D02*
X72710533Y-70580951D01*
X86571009Y-94547142D02*
X86618628Y-94404285D01*
X86618628Y-94404285D02*
X86666247Y-94356666D01*
X86666247Y-94356666D02*
X86761485Y-94309047D01*
X86761485Y-94309047D02*
X86904342Y-94309047D01*
X86904342Y-94309047D02*
X86999580Y-94356666D01*
X86999580Y-94356666D02*
X87047200Y-94404285D01*
X87047200Y-94404285D02*
X87094819Y-94499523D01*
X87094819Y-94499523D02*
X87094819Y-94880475D01*
X87094819Y-94880475D02*
X86094819Y-94880475D01*
X86094819Y-94880475D02*
X86094819Y-94547142D01*
X86094819Y-94547142D02*
X86142438Y-94451904D01*
X86142438Y-94451904D02*
X86190057Y-94404285D01*
X86190057Y-94404285D02*
X86285295Y-94356666D01*
X86285295Y-94356666D02*
X86380533Y-94356666D01*
X86380533Y-94356666D02*
X86475771Y-94404285D01*
X86475771Y-94404285D02*
X86523390Y-94451904D01*
X86523390Y-94451904D02*
X86571009Y-94547142D01*
X86571009Y-94547142D02*
X86571009Y-94880475D01*
X87094819Y-93880475D02*
X86428152Y-93880475D01*
X86618628Y-93880475D02*
X86523390Y-93832856D01*
X86523390Y-93832856D02*
X86475771Y-93785237D01*
X86475771Y-93785237D02*
X86428152Y-93689999D01*
X86428152Y-93689999D02*
X86428152Y-93594761D01*
X87094819Y-92832856D02*
X86571009Y-92832856D01*
X86571009Y-92832856D02*
X86475771Y-92880475D01*
X86475771Y-92880475D02*
X86428152Y-92975713D01*
X86428152Y-92975713D02*
X86428152Y-93166189D01*
X86428152Y-93166189D02*
X86475771Y-93261427D01*
X87047200Y-92832856D02*
X87094819Y-92928094D01*
X87094819Y-92928094D02*
X87094819Y-93166189D01*
X87094819Y-93166189D02*
X87047200Y-93261427D01*
X87047200Y-93261427D02*
X86951961Y-93309046D01*
X86951961Y-93309046D02*
X86856723Y-93309046D01*
X86856723Y-93309046D02*
X86761485Y-93261427D01*
X86761485Y-93261427D02*
X86713866Y-93166189D01*
X86713866Y-93166189D02*
X86713866Y-92928094D01*
X86713866Y-92928094D02*
X86666247Y-92832856D01*
X87094819Y-92356665D02*
X86428152Y-92356665D01*
X86094819Y-92356665D02*
X86142438Y-92404284D01*
X86142438Y-92404284D02*
X86190057Y-92356665D01*
X86190057Y-92356665D02*
X86142438Y-92309046D01*
X86142438Y-92309046D02*
X86094819Y-92356665D01*
X86094819Y-92356665D02*
X86190057Y-92356665D01*
X86428152Y-91880475D02*
X87094819Y-91880475D01*
X86523390Y-91880475D02*
X86475771Y-91832856D01*
X86475771Y-91832856D02*
X86428152Y-91737618D01*
X86428152Y-91737618D02*
X86428152Y-91594761D01*
X86428152Y-91594761D02*
X86475771Y-91499523D01*
X86475771Y-91499523D02*
X86571009Y-91451904D01*
X86571009Y-91451904D02*
X87094819Y-91451904D01*
X87094819Y-90451904D02*
X87094819Y-91023332D01*
X87094819Y-90737618D02*
X86094819Y-90737618D01*
X86094819Y-90737618D02*
X86237676Y-90832856D01*
X86237676Y-90832856D02*
X86332914Y-90928094D01*
X86332914Y-90928094D02*
X86380533Y-91023332D01*
X86571009Y-85649047D02*
X86618628Y-85506190D01*
X86618628Y-85506190D02*
X86666247Y-85458571D01*
X86666247Y-85458571D02*
X86761485Y-85410952D01*
X86761485Y-85410952D02*
X86904342Y-85410952D01*
X86904342Y-85410952D02*
X86999580Y-85458571D01*
X86999580Y-85458571D02*
X87047200Y-85506190D01*
X87047200Y-85506190D02*
X87094819Y-85601428D01*
X87094819Y-85601428D02*
X87094819Y-85982380D01*
X87094819Y-85982380D02*
X86094819Y-85982380D01*
X86094819Y-85982380D02*
X86094819Y-85649047D01*
X86094819Y-85649047D02*
X86142438Y-85553809D01*
X86142438Y-85553809D02*
X86190057Y-85506190D01*
X86190057Y-85506190D02*
X86285295Y-85458571D01*
X86285295Y-85458571D02*
X86380533Y-85458571D01*
X86380533Y-85458571D02*
X86475771Y-85506190D01*
X86475771Y-85506190D02*
X86523390Y-85553809D01*
X86523390Y-85553809D02*
X86571009Y-85649047D01*
X86571009Y-85649047D02*
X86571009Y-85982380D01*
X87047200Y-84601428D02*
X87094819Y-84696666D01*
X87094819Y-84696666D02*
X87094819Y-84887142D01*
X87094819Y-84887142D02*
X87047200Y-84982380D01*
X87047200Y-84982380D02*
X86951961Y-85029999D01*
X86951961Y-85029999D02*
X86571009Y-85029999D01*
X86571009Y-85029999D02*
X86475771Y-84982380D01*
X86475771Y-84982380D02*
X86428152Y-84887142D01*
X86428152Y-84887142D02*
X86428152Y-84696666D01*
X86428152Y-84696666D02*
X86475771Y-84601428D01*
X86475771Y-84601428D02*
X86571009Y-84553809D01*
X86571009Y-84553809D02*
X86666247Y-84553809D01*
X86666247Y-84553809D02*
X86761485Y-85029999D01*
X87094819Y-84125237D02*
X86094819Y-84125237D01*
X87094819Y-83696666D02*
X86571009Y-83696666D01*
X86571009Y-83696666D02*
X86475771Y-83744285D01*
X86475771Y-83744285D02*
X86428152Y-83839523D01*
X86428152Y-83839523D02*
X86428152Y-83982380D01*
X86428152Y-83982380D02*
X86475771Y-84077618D01*
X86475771Y-84077618D02*
X86523390Y-84125237D01*
X87094819Y-82791904D02*
X86571009Y-82791904D01*
X86571009Y-82791904D02*
X86475771Y-82839523D01*
X86475771Y-82839523D02*
X86428152Y-82934761D01*
X86428152Y-82934761D02*
X86428152Y-83125237D01*
X86428152Y-83125237D02*
X86475771Y-83220475D01*
X87047200Y-82791904D02*
X87094819Y-82887142D01*
X87094819Y-82887142D02*
X87094819Y-83125237D01*
X87094819Y-83125237D02*
X87047200Y-83220475D01*
X87047200Y-83220475D02*
X86951961Y-83268094D01*
X86951961Y-83268094D02*
X86856723Y-83268094D01*
X86856723Y-83268094D02*
X86761485Y-83220475D01*
X86761485Y-83220475D02*
X86713866Y-83125237D01*
X86713866Y-83125237D02*
X86713866Y-82887142D01*
X86713866Y-82887142D02*
X86666247Y-82791904D01*
X86428152Y-82410951D02*
X87094819Y-82172856D01*
X87094819Y-82172856D02*
X86428152Y-81934761D01*
X87094819Y-81553808D02*
X86428152Y-81553808D01*
X86094819Y-81553808D02*
X86142438Y-81601427D01*
X86142438Y-81601427D02*
X86190057Y-81553808D01*
X86190057Y-81553808D02*
X86142438Y-81506189D01*
X86142438Y-81506189D02*
X86094819Y-81553808D01*
X86094819Y-81553808D02*
X86190057Y-81553808D01*
X87094819Y-80934761D02*
X87047200Y-81029999D01*
X87047200Y-81029999D02*
X86999580Y-81077618D01*
X86999580Y-81077618D02*
X86904342Y-81125237D01*
X86904342Y-81125237D02*
X86618628Y-81125237D01*
X86618628Y-81125237D02*
X86523390Y-81077618D01*
X86523390Y-81077618D02*
X86475771Y-81029999D01*
X86475771Y-81029999D02*
X86428152Y-80934761D01*
X86428152Y-80934761D02*
X86428152Y-80791904D01*
X86428152Y-80791904D02*
X86475771Y-80696666D01*
X86475771Y-80696666D02*
X86523390Y-80649047D01*
X86523390Y-80649047D02*
X86618628Y-80601428D01*
X86618628Y-80601428D02*
X86904342Y-80601428D01*
X86904342Y-80601428D02*
X86999580Y-80649047D01*
X86999580Y-80649047D02*
X87047200Y-80696666D01*
X87047200Y-80696666D02*
X87094819Y-80791904D01*
X87094819Y-80791904D02*
X87094819Y-80934761D01*
X87094819Y-80172856D02*
X86428152Y-80172856D01*
X86618628Y-80172856D02*
X86523390Y-80125237D01*
X86523390Y-80125237D02*
X86475771Y-80077618D01*
X86475771Y-80077618D02*
X86428152Y-79982380D01*
X86428152Y-79982380D02*
X86428152Y-79887142D01*
X87094819Y-79029999D02*
X87094819Y-79601427D01*
X87094819Y-79315713D02*
X86094819Y-79315713D01*
X86094819Y-79315713D02*
X86237676Y-79410951D01*
X86237676Y-79410951D02*
X86332914Y-79506189D01*
X86332914Y-79506189D02*
X86380533Y-79601427D01*
X30313333Y-61894819D02*
X29980000Y-61418628D01*
X29741905Y-61894819D02*
X29741905Y-60894819D01*
X29741905Y-60894819D02*
X30122857Y-60894819D01*
X30122857Y-60894819D02*
X30218095Y-60942438D01*
X30218095Y-60942438D02*
X30265714Y-60990057D01*
X30265714Y-60990057D02*
X30313333Y-61085295D01*
X30313333Y-61085295D02*
X30313333Y-61228152D01*
X30313333Y-61228152D02*
X30265714Y-61323390D01*
X30265714Y-61323390D02*
X30218095Y-61371009D01*
X30218095Y-61371009D02*
X30122857Y-61418628D01*
X30122857Y-61418628D02*
X29741905Y-61418628D01*
X31265714Y-61894819D02*
X30694286Y-61894819D01*
X30980000Y-61894819D02*
X30980000Y-60894819D01*
X30980000Y-60894819D02*
X30884762Y-61037676D01*
X30884762Y-61037676D02*
X30789524Y-61132914D01*
X30789524Y-61132914D02*
X30694286Y-61180533D01*
X35334819Y-36543809D02*
X34334819Y-36543809D01*
X34334819Y-36543809D02*
X34334819Y-36162857D01*
X34334819Y-36162857D02*
X34382438Y-36067619D01*
X34382438Y-36067619D02*
X34430057Y-36020000D01*
X34430057Y-36020000D02*
X34525295Y-35972381D01*
X34525295Y-35972381D02*
X34668152Y-35972381D01*
X34668152Y-35972381D02*
X34763390Y-36020000D01*
X34763390Y-36020000D02*
X34811009Y-36067619D01*
X34811009Y-36067619D02*
X34858628Y-36162857D01*
X34858628Y-36162857D02*
X34858628Y-36543809D01*
X35334819Y-35400952D02*
X35287200Y-35496190D01*
X35287200Y-35496190D02*
X35239580Y-35543809D01*
X35239580Y-35543809D02*
X35144342Y-35591428D01*
X35144342Y-35591428D02*
X34858628Y-35591428D01*
X34858628Y-35591428D02*
X34763390Y-35543809D01*
X34763390Y-35543809D02*
X34715771Y-35496190D01*
X34715771Y-35496190D02*
X34668152Y-35400952D01*
X34668152Y-35400952D02*
X34668152Y-35258095D01*
X34668152Y-35258095D02*
X34715771Y-35162857D01*
X34715771Y-35162857D02*
X34763390Y-35115238D01*
X34763390Y-35115238D02*
X34858628Y-35067619D01*
X34858628Y-35067619D02*
X35144342Y-35067619D01*
X35144342Y-35067619D02*
X35239580Y-35115238D01*
X35239580Y-35115238D02*
X35287200Y-35162857D01*
X35287200Y-35162857D02*
X35334819Y-35258095D01*
X35334819Y-35258095D02*
X35334819Y-35400952D01*
X34668152Y-34734285D02*
X35334819Y-34543809D01*
X35334819Y-34543809D02*
X34858628Y-34353333D01*
X34858628Y-34353333D02*
X35334819Y-34162857D01*
X35334819Y-34162857D02*
X34668152Y-33972381D01*
X35287200Y-33210476D02*
X35334819Y-33305714D01*
X35334819Y-33305714D02*
X35334819Y-33496190D01*
X35334819Y-33496190D02*
X35287200Y-33591428D01*
X35287200Y-33591428D02*
X35191961Y-33639047D01*
X35191961Y-33639047D02*
X34811009Y-33639047D01*
X34811009Y-33639047D02*
X34715771Y-33591428D01*
X34715771Y-33591428D02*
X34668152Y-33496190D01*
X34668152Y-33496190D02*
X34668152Y-33305714D01*
X34668152Y-33305714D02*
X34715771Y-33210476D01*
X34715771Y-33210476D02*
X34811009Y-33162857D01*
X34811009Y-33162857D02*
X34906247Y-33162857D01*
X34906247Y-33162857D02*
X35001485Y-33639047D01*
X35334819Y-32734285D02*
X34668152Y-32734285D01*
X34858628Y-32734285D02*
X34763390Y-32686666D01*
X34763390Y-32686666D02*
X34715771Y-32639047D01*
X34715771Y-32639047D02*
X34668152Y-32543809D01*
X34668152Y-32543809D02*
X34668152Y-32448571D01*
X35430057Y-32353333D02*
X35430057Y-31591428D01*
X35334819Y-31353332D02*
X34334819Y-31353332D01*
X34668152Y-30877142D02*
X35334819Y-30877142D01*
X34763390Y-30877142D02*
X34715771Y-30829523D01*
X34715771Y-30829523D02*
X34668152Y-30734285D01*
X34668152Y-30734285D02*
X34668152Y-30591428D01*
X34668152Y-30591428D02*
X34715771Y-30496190D01*
X34715771Y-30496190D02*
X34811009Y-30448571D01*
X34811009Y-30448571D02*
X35334819Y-30448571D01*
X35334819Y-29448571D02*
X35334819Y-30019999D01*
X35334819Y-29734285D02*
X34334819Y-29734285D01*
X34334819Y-29734285D02*
X34477676Y-29829523D01*
X34477676Y-29829523D02*
X34572914Y-29924761D01*
X34572914Y-29924761D02*
X34620533Y-30019999D01*
X56936190Y-92863200D02*
X57079047Y-92910819D01*
X57079047Y-92910819D02*
X57317142Y-92910819D01*
X57317142Y-92910819D02*
X57412380Y-92863200D01*
X57412380Y-92863200D02*
X57459999Y-92815580D01*
X57459999Y-92815580D02*
X57507618Y-92720342D01*
X57507618Y-92720342D02*
X57507618Y-92625104D01*
X57507618Y-92625104D02*
X57459999Y-92529866D01*
X57459999Y-92529866D02*
X57412380Y-92482247D01*
X57412380Y-92482247D02*
X57317142Y-92434628D01*
X57317142Y-92434628D02*
X57126666Y-92387009D01*
X57126666Y-92387009D02*
X57031428Y-92339390D01*
X57031428Y-92339390D02*
X56983809Y-92291771D01*
X56983809Y-92291771D02*
X56936190Y-92196533D01*
X56936190Y-92196533D02*
X56936190Y-92101295D01*
X56936190Y-92101295D02*
X56983809Y-92006057D01*
X56983809Y-92006057D02*
X57031428Y-91958438D01*
X57031428Y-91958438D02*
X57126666Y-91910819D01*
X57126666Y-91910819D02*
X57364761Y-91910819D01*
X57364761Y-91910819D02*
X57507618Y-91958438D01*
X57793333Y-92244152D02*
X58174285Y-92244152D01*
X57936190Y-91910819D02*
X57936190Y-92767961D01*
X57936190Y-92767961D02*
X57983809Y-92863200D01*
X57983809Y-92863200D02*
X58079047Y-92910819D01*
X58079047Y-92910819D02*
X58174285Y-92910819D01*
X58507619Y-92910819D02*
X58507619Y-92244152D01*
X58507619Y-92434628D02*
X58555238Y-92339390D01*
X58555238Y-92339390D02*
X58602857Y-92291771D01*
X58602857Y-92291771D02*
X58698095Y-92244152D01*
X58698095Y-92244152D02*
X58793333Y-92244152D01*
X59269524Y-92910819D02*
X59174286Y-92863200D01*
X59174286Y-92863200D02*
X59126667Y-92815580D01*
X59126667Y-92815580D02*
X59079048Y-92720342D01*
X59079048Y-92720342D02*
X59079048Y-92434628D01*
X59079048Y-92434628D02*
X59126667Y-92339390D01*
X59126667Y-92339390D02*
X59174286Y-92291771D01*
X59174286Y-92291771D02*
X59269524Y-92244152D01*
X59269524Y-92244152D02*
X59412381Y-92244152D01*
X59412381Y-92244152D02*
X59507619Y-92291771D01*
X59507619Y-92291771D02*
X59555238Y-92339390D01*
X59555238Y-92339390D02*
X59602857Y-92434628D01*
X59602857Y-92434628D02*
X59602857Y-92720342D01*
X59602857Y-92720342D02*
X59555238Y-92815580D01*
X59555238Y-92815580D02*
X59507619Y-92863200D01*
X59507619Y-92863200D02*
X59412381Y-92910819D01*
X59412381Y-92910819D02*
X59269524Y-92910819D01*
X60031429Y-92910819D02*
X60031429Y-91910819D01*
X60031429Y-92291771D02*
X60126667Y-92244152D01*
X60126667Y-92244152D02*
X60317143Y-92244152D01*
X60317143Y-92244152D02*
X60412381Y-92291771D01*
X60412381Y-92291771D02*
X60460000Y-92339390D01*
X60460000Y-92339390D02*
X60507619Y-92434628D01*
X60507619Y-92434628D02*
X60507619Y-92720342D01*
X60507619Y-92720342D02*
X60460000Y-92815580D01*
X60460000Y-92815580D02*
X60412381Y-92863200D01*
X60412381Y-92863200D02*
X60317143Y-92910819D01*
X60317143Y-92910819D02*
X60126667Y-92910819D01*
X60126667Y-92910819D02*
X60031429Y-92863200D01*
X61317143Y-92863200D02*
X61221905Y-92910819D01*
X61221905Y-92910819D02*
X61031429Y-92910819D01*
X61031429Y-92910819D02*
X60936191Y-92863200D01*
X60936191Y-92863200D02*
X60888572Y-92767961D01*
X60888572Y-92767961D02*
X60888572Y-92387009D01*
X60888572Y-92387009D02*
X60936191Y-92291771D01*
X60936191Y-92291771D02*
X61031429Y-92244152D01*
X61031429Y-92244152D02*
X61221905Y-92244152D01*
X61221905Y-92244152D02*
X61317143Y-92291771D01*
X61317143Y-92291771D02*
X61364762Y-92387009D01*
X61364762Y-92387009D02*
X61364762Y-92482247D01*
X61364762Y-92482247D02*
X60888572Y-92577485D01*
X61555239Y-93006057D02*
X62317143Y-93006057D01*
X63031429Y-91910819D02*
X62555239Y-91910819D01*
X62555239Y-91910819D02*
X62507620Y-92387009D01*
X62507620Y-92387009D02*
X62555239Y-92339390D01*
X62555239Y-92339390D02*
X62650477Y-92291771D01*
X62650477Y-92291771D02*
X62888572Y-92291771D01*
X62888572Y-92291771D02*
X62983810Y-92339390D01*
X62983810Y-92339390D02*
X63031429Y-92387009D01*
X63031429Y-92387009D02*
X63079048Y-92482247D01*
X63079048Y-92482247D02*
X63079048Y-92720342D01*
X63079048Y-92720342D02*
X63031429Y-92815580D01*
X63031429Y-92815580D02*
X62983810Y-92863200D01*
X62983810Y-92863200D02*
X62888572Y-92910819D01*
X62888572Y-92910819D02*
X62650477Y-92910819D01*
X62650477Y-92910819D02*
X62555239Y-92863200D01*
X62555239Y-92863200D02*
X62507620Y-92815580D01*
X63983810Y-91910819D02*
X63507620Y-91910819D01*
X63507620Y-91910819D02*
X63460001Y-92387009D01*
X63460001Y-92387009D02*
X63507620Y-92339390D01*
X63507620Y-92339390D02*
X63602858Y-92291771D01*
X63602858Y-92291771D02*
X63840953Y-92291771D01*
X63840953Y-92291771D02*
X63936191Y-92339390D01*
X63936191Y-92339390D02*
X63983810Y-92387009D01*
X63983810Y-92387009D02*
X64031429Y-92482247D01*
X64031429Y-92482247D02*
X64031429Y-92720342D01*
X64031429Y-92720342D02*
X63983810Y-92815580D01*
X63983810Y-92815580D02*
X63936191Y-92863200D01*
X63936191Y-92863200D02*
X63840953Y-92910819D01*
X63840953Y-92910819D02*
X63602858Y-92910819D01*
X63602858Y-92910819D02*
X63507620Y-92863200D01*
X63507620Y-92863200D02*
X63460001Y-92815580D01*
X64936191Y-91910819D02*
X64460001Y-91910819D01*
X64460001Y-91910819D02*
X64412382Y-92387009D01*
X64412382Y-92387009D02*
X64460001Y-92339390D01*
X64460001Y-92339390D02*
X64555239Y-92291771D01*
X64555239Y-92291771D02*
X64793334Y-92291771D01*
X64793334Y-92291771D02*
X64888572Y-92339390D01*
X64888572Y-92339390D02*
X64936191Y-92387009D01*
X64936191Y-92387009D02*
X64983810Y-92482247D01*
X64983810Y-92482247D02*
X64983810Y-92720342D01*
X64983810Y-92720342D02*
X64936191Y-92815580D01*
X64936191Y-92815580D02*
X64888572Y-92863200D01*
X64888572Y-92863200D02*
X64793334Y-92910819D01*
X64793334Y-92910819D02*
X64555239Y-92910819D01*
X64555239Y-92910819D02*
X64460001Y-92863200D01*
X64460001Y-92863200D02*
X64412382Y-92815580D01*
X86571009Y-55169047D02*
X86618628Y-55026190D01*
X86618628Y-55026190D02*
X86666247Y-54978571D01*
X86666247Y-54978571D02*
X86761485Y-54930952D01*
X86761485Y-54930952D02*
X86904342Y-54930952D01*
X86904342Y-54930952D02*
X86999580Y-54978571D01*
X86999580Y-54978571D02*
X87047200Y-55026190D01*
X87047200Y-55026190D02*
X87094819Y-55121428D01*
X87094819Y-55121428D02*
X87094819Y-55502380D01*
X87094819Y-55502380D02*
X86094819Y-55502380D01*
X86094819Y-55502380D02*
X86094819Y-55169047D01*
X86094819Y-55169047D02*
X86142438Y-55073809D01*
X86142438Y-55073809D02*
X86190057Y-55026190D01*
X86190057Y-55026190D02*
X86285295Y-54978571D01*
X86285295Y-54978571D02*
X86380533Y-54978571D01*
X86380533Y-54978571D02*
X86475771Y-55026190D01*
X86475771Y-55026190D02*
X86523390Y-55073809D01*
X86523390Y-55073809D02*
X86571009Y-55169047D01*
X86571009Y-55169047D02*
X86571009Y-55502380D01*
X87047200Y-54121428D02*
X87094819Y-54216666D01*
X87094819Y-54216666D02*
X87094819Y-54407142D01*
X87094819Y-54407142D02*
X87047200Y-54502380D01*
X87047200Y-54502380D02*
X86951961Y-54549999D01*
X86951961Y-54549999D02*
X86571009Y-54549999D01*
X86571009Y-54549999D02*
X86475771Y-54502380D01*
X86475771Y-54502380D02*
X86428152Y-54407142D01*
X86428152Y-54407142D02*
X86428152Y-54216666D01*
X86428152Y-54216666D02*
X86475771Y-54121428D01*
X86475771Y-54121428D02*
X86571009Y-54073809D01*
X86571009Y-54073809D02*
X86666247Y-54073809D01*
X86666247Y-54073809D02*
X86761485Y-54549999D01*
X87094819Y-53645237D02*
X86094819Y-53645237D01*
X87094819Y-53216666D02*
X86571009Y-53216666D01*
X86571009Y-53216666D02*
X86475771Y-53264285D01*
X86475771Y-53264285D02*
X86428152Y-53359523D01*
X86428152Y-53359523D02*
X86428152Y-53502380D01*
X86428152Y-53502380D02*
X86475771Y-53597618D01*
X86475771Y-53597618D02*
X86523390Y-53645237D01*
X87094819Y-52311904D02*
X86571009Y-52311904D01*
X86571009Y-52311904D02*
X86475771Y-52359523D01*
X86475771Y-52359523D02*
X86428152Y-52454761D01*
X86428152Y-52454761D02*
X86428152Y-52645237D01*
X86428152Y-52645237D02*
X86475771Y-52740475D01*
X87047200Y-52311904D02*
X87094819Y-52407142D01*
X87094819Y-52407142D02*
X87094819Y-52645237D01*
X87094819Y-52645237D02*
X87047200Y-52740475D01*
X87047200Y-52740475D02*
X86951961Y-52788094D01*
X86951961Y-52788094D02*
X86856723Y-52788094D01*
X86856723Y-52788094D02*
X86761485Y-52740475D01*
X86761485Y-52740475D02*
X86713866Y-52645237D01*
X86713866Y-52645237D02*
X86713866Y-52407142D01*
X86713866Y-52407142D02*
X86666247Y-52311904D01*
X86428152Y-51930951D02*
X87094819Y-51692856D01*
X87094819Y-51692856D02*
X86428152Y-51454761D01*
X87094819Y-51073808D02*
X86428152Y-51073808D01*
X86094819Y-51073808D02*
X86142438Y-51121427D01*
X86142438Y-51121427D02*
X86190057Y-51073808D01*
X86190057Y-51073808D02*
X86142438Y-51026189D01*
X86142438Y-51026189D02*
X86094819Y-51073808D01*
X86094819Y-51073808D02*
X86190057Y-51073808D01*
X87094819Y-50454761D02*
X87047200Y-50549999D01*
X87047200Y-50549999D02*
X86999580Y-50597618D01*
X86999580Y-50597618D02*
X86904342Y-50645237D01*
X86904342Y-50645237D02*
X86618628Y-50645237D01*
X86618628Y-50645237D02*
X86523390Y-50597618D01*
X86523390Y-50597618D02*
X86475771Y-50549999D01*
X86475771Y-50549999D02*
X86428152Y-50454761D01*
X86428152Y-50454761D02*
X86428152Y-50311904D01*
X86428152Y-50311904D02*
X86475771Y-50216666D01*
X86475771Y-50216666D02*
X86523390Y-50169047D01*
X86523390Y-50169047D02*
X86618628Y-50121428D01*
X86618628Y-50121428D02*
X86904342Y-50121428D01*
X86904342Y-50121428D02*
X86999580Y-50169047D01*
X86999580Y-50169047D02*
X87047200Y-50216666D01*
X87047200Y-50216666D02*
X87094819Y-50311904D01*
X87094819Y-50311904D02*
X87094819Y-50454761D01*
X87094819Y-49692856D02*
X86428152Y-49692856D01*
X86618628Y-49692856D02*
X86523390Y-49645237D01*
X86523390Y-49645237D02*
X86475771Y-49597618D01*
X86475771Y-49597618D02*
X86428152Y-49502380D01*
X86428152Y-49502380D02*
X86428152Y-49407142D01*
X86428152Y-48645237D02*
X87094819Y-48645237D01*
X86047200Y-48883332D02*
X86761485Y-49121427D01*
X86761485Y-49121427D02*
X86761485Y-48502380D01*
X41489333Y-42110819D02*
X41156000Y-41634628D01*
X40917905Y-42110819D02*
X40917905Y-41110819D01*
X40917905Y-41110819D02*
X41298857Y-41110819D01*
X41298857Y-41110819D02*
X41394095Y-41158438D01*
X41394095Y-41158438D02*
X41441714Y-41206057D01*
X41441714Y-41206057D02*
X41489333Y-41301295D01*
X41489333Y-41301295D02*
X41489333Y-41444152D01*
X41489333Y-41444152D02*
X41441714Y-41539390D01*
X41441714Y-41539390D02*
X41394095Y-41587009D01*
X41394095Y-41587009D02*
X41298857Y-41634628D01*
X41298857Y-41634628D02*
X40917905Y-41634628D01*
X41822667Y-41110819D02*
X42441714Y-41110819D01*
X42441714Y-41110819D02*
X42108381Y-41491771D01*
X42108381Y-41491771D02*
X42251238Y-41491771D01*
X42251238Y-41491771D02*
X42346476Y-41539390D01*
X42346476Y-41539390D02*
X42394095Y-41587009D01*
X42394095Y-41587009D02*
X42441714Y-41682247D01*
X42441714Y-41682247D02*
X42441714Y-41920342D01*
X42441714Y-41920342D02*
X42394095Y-42015580D01*
X42394095Y-42015580D02*
X42346476Y-42063200D01*
X42346476Y-42063200D02*
X42251238Y-42110819D01*
X42251238Y-42110819D02*
X41965524Y-42110819D01*
X41965524Y-42110819D02*
X41870286Y-42063200D01*
X41870286Y-42063200D02*
X41822667Y-42015580D01*
X86578509Y-103457142D02*
X86626128Y-103314285D01*
X86626128Y-103314285D02*
X86673747Y-103266666D01*
X86673747Y-103266666D02*
X86768985Y-103219047D01*
X86768985Y-103219047D02*
X86911842Y-103219047D01*
X86911842Y-103219047D02*
X87007080Y-103266666D01*
X87007080Y-103266666D02*
X87054700Y-103314285D01*
X87054700Y-103314285D02*
X87102319Y-103409523D01*
X87102319Y-103409523D02*
X87102319Y-103790475D01*
X87102319Y-103790475D02*
X86102319Y-103790475D01*
X86102319Y-103790475D02*
X86102319Y-103457142D01*
X86102319Y-103457142D02*
X86149938Y-103361904D01*
X86149938Y-103361904D02*
X86197557Y-103314285D01*
X86197557Y-103314285D02*
X86292795Y-103266666D01*
X86292795Y-103266666D02*
X86388033Y-103266666D01*
X86388033Y-103266666D02*
X86483271Y-103314285D01*
X86483271Y-103314285D02*
X86530890Y-103361904D01*
X86530890Y-103361904D02*
X86578509Y-103457142D01*
X86578509Y-103457142D02*
X86578509Y-103790475D01*
X87102319Y-102790475D02*
X86435652Y-102790475D01*
X86626128Y-102790475D02*
X86530890Y-102742856D01*
X86530890Y-102742856D02*
X86483271Y-102695237D01*
X86483271Y-102695237D02*
X86435652Y-102599999D01*
X86435652Y-102599999D02*
X86435652Y-102504761D01*
X87102319Y-101742856D02*
X86578509Y-101742856D01*
X86578509Y-101742856D02*
X86483271Y-101790475D01*
X86483271Y-101790475D02*
X86435652Y-101885713D01*
X86435652Y-101885713D02*
X86435652Y-102076189D01*
X86435652Y-102076189D02*
X86483271Y-102171427D01*
X87054700Y-101742856D02*
X87102319Y-101838094D01*
X87102319Y-101838094D02*
X87102319Y-102076189D01*
X87102319Y-102076189D02*
X87054700Y-102171427D01*
X87054700Y-102171427D02*
X86959461Y-102219046D01*
X86959461Y-102219046D02*
X86864223Y-102219046D01*
X86864223Y-102219046D02*
X86768985Y-102171427D01*
X86768985Y-102171427D02*
X86721366Y-102076189D01*
X86721366Y-102076189D02*
X86721366Y-101838094D01*
X86721366Y-101838094D02*
X86673747Y-101742856D01*
X87102319Y-101266665D02*
X86435652Y-101266665D01*
X86102319Y-101266665D02*
X86149938Y-101314284D01*
X86149938Y-101314284D02*
X86197557Y-101266665D01*
X86197557Y-101266665D02*
X86149938Y-101219046D01*
X86149938Y-101219046D02*
X86102319Y-101266665D01*
X86102319Y-101266665D02*
X86197557Y-101266665D01*
X86435652Y-100790475D02*
X87102319Y-100790475D01*
X86530890Y-100790475D02*
X86483271Y-100742856D01*
X86483271Y-100742856D02*
X86435652Y-100647618D01*
X86435652Y-100647618D02*
X86435652Y-100504761D01*
X86435652Y-100504761D02*
X86483271Y-100409523D01*
X86483271Y-100409523D02*
X86578509Y-100361904D01*
X86578509Y-100361904D02*
X87102319Y-100361904D01*
X86197557Y-99933332D02*
X86149938Y-99885713D01*
X86149938Y-99885713D02*
X86102319Y-99790475D01*
X86102319Y-99790475D02*
X86102319Y-99552380D01*
X86102319Y-99552380D02*
X86149938Y-99457142D01*
X86149938Y-99457142D02*
X86197557Y-99409523D01*
X86197557Y-99409523D02*
X86292795Y-99361904D01*
X86292795Y-99361904D02*
X86388033Y-99361904D01*
X86388033Y-99361904D02*
X86530890Y-99409523D01*
X86530890Y-99409523D02*
X87102319Y-99980951D01*
X87102319Y-99980951D02*
X87102319Y-99361904D01*
X57507618Y-65111009D02*
X57650475Y-65158628D01*
X57650475Y-65158628D02*
X57698094Y-65206247D01*
X57698094Y-65206247D02*
X57745713Y-65301485D01*
X57745713Y-65301485D02*
X57745713Y-65444342D01*
X57745713Y-65444342D02*
X57698094Y-65539580D01*
X57698094Y-65539580D02*
X57650475Y-65587200D01*
X57650475Y-65587200D02*
X57555237Y-65634819D01*
X57555237Y-65634819D02*
X57174285Y-65634819D01*
X57174285Y-65634819D02*
X57174285Y-64634819D01*
X57174285Y-64634819D02*
X57507618Y-64634819D01*
X57507618Y-64634819D02*
X57602856Y-64682438D01*
X57602856Y-64682438D02*
X57650475Y-64730057D01*
X57650475Y-64730057D02*
X57698094Y-64825295D01*
X57698094Y-64825295D02*
X57698094Y-64920533D01*
X57698094Y-64920533D02*
X57650475Y-65015771D01*
X57650475Y-65015771D02*
X57602856Y-65063390D01*
X57602856Y-65063390D02*
X57507618Y-65111009D01*
X57507618Y-65111009D02*
X57174285Y-65111009D01*
X58555237Y-65587200D02*
X58459999Y-65634819D01*
X58459999Y-65634819D02*
X58269523Y-65634819D01*
X58269523Y-65634819D02*
X58174285Y-65587200D01*
X58174285Y-65587200D02*
X58126666Y-65491961D01*
X58126666Y-65491961D02*
X58126666Y-65111009D01*
X58126666Y-65111009D02*
X58174285Y-65015771D01*
X58174285Y-65015771D02*
X58269523Y-64968152D01*
X58269523Y-64968152D02*
X58459999Y-64968152D01*
X58459999Y-64968152D02*
X58555237Y-65015771D01*
X58555237Y-65015771D02*
X58602856Y-65111009D01*
X58602856Y-65111009D02*
X58602856Y-65206247D01*
X58602856Y-65206247D02*
X58126666Y-65301485D01*
X59031428Y-65634819D02*
X59031428Y-64634819D01*
X59459999Y-65634819D02*
X59459999Y-65111009D01*
X59459999Y-65111009D02*
X59412380Y-65015771D01*
X59412380Y-65015771D02*
X59317142Y-64968152D01*
X59317142Y-64968152D02*
X59174285Y-64968152D01*
X59174285Y-64968152D02*
X59079047Y-65015771D01*
X59079047Y-65015771D02*
X59031428Y-65063390D01*
X60364761Y-65634819D02*
X60364761Y-65111009D01*
X60364761Y-65111009D02*
X60317142Y-65015771D01*
X60317142Y-65015771D02*
X60221904Y-64968152D01*
X60221904Y-64968152D02*
X60031428Y-64968152D01*
X60031428Y-64968152D02*
X59936190Y-65015771D01*
X60364761Y-65587200D02*
X60269523Y-65634819D01*
X60269523Y-65634819D02*
X60031428Y-65634819D01*
X60031428Y-65634819D02*
X59936190Y-65587200D01*
X59936190Y-65587200D02*
X59888571Y-65491961D01*
X59888571Y-65491961D02*
X59888571Y-65396723D01*
X59888571Y-65396723D02*
X59936190Y-65301485D01*
X59936190Y-65301485D02*
X60031428Y-65253866D01*
X60031428Y-65253866D02*
X60269523Y-65253866D01*
X60269523Y-65253866D02*
X60364761Y-65206247D01*
X60745714Y-64968152D02*
X60983809Y-65634819D01*
X60983809Y-65634819D02*
X61221904Y-64968152D01*
X61364762Y-65730057D02*
X62126666Y-65730057D01*
X62840952Y-64634819D02*
X62364762Y-64634819D01*
X62364762Y-64634819D02*
X62317143Y-65111009D01*
X62317143Y-65111009D02*
X62364762Y-65063390D01*
X62364762Y-65063390D02*
X62460000Y-65015771D01*
X62460000Y-65015771D02*
X62698095Y-65015771D01*
X62698095Y-65015771D02*
X62793333Y-65063390D01*
X62793333Y-65063390D02*
X62840952Y-65111009D01*
X62840952Y-65111009D02*
X62888571Y-65206247D01*
X62888571Y-65206247D02*
X62888571Y-65444342D01*
X62888571Y-65444342D02*
X62840952Y-65539580D01*
X62840952Y-65539580D02*
X62793333Y-65587200D01*
X62793333Y-65587200D02*
X62698095Y-65634819D01*
X62698095Y-65634819D02*
X62460000Y-65634819D01*
X62460000Y-65634819D02*
X62364762Y-65587200D01*
X62364762Y-65587200D02*
X62317143Y-65539580D01*
X63793333Y-64634819D02*
X63317143Y-64634819D01*
X63317143Y-64634819D02*
X63269524Y-65111009D01*
X63269524Y-65111009D02*
X63317143Y-65063390D01*
X63317143Y-65063390D02*
X63412381Y-65015771D01*
X63412381Y-65015771D02*
X63650476Y-65015771D01*
X63650476Y-65015771D02*
X63745714Y-65063390D01*
X63745714Y-65063390D02*
X63793333Y-65111009D01*
X63793333Y-65111009D02*
X63840952Y-65206247D01*
X63840952Y-65206247D02*
X63840952Y-65444342D01*
X63840952Y-65444342D02*
X63793333Y-65539580D01*
X63793333Y-65539580D02*
X63745714Y-65587200D01*
X63745714Y-65587200D02*
X63650476Y-65634819D01*
X63650476Y-65634819D02*
X63412381Y-65634819D01*
X63412381Y-65634819D02*
X63317143Y-65587200D01*
X63317143Y-65587200D02*
X63269524Y-65539580D01*
X64745714Y-64634819D02*
X64269524Y-64634819D01*
X64269524Y-64634819D02*
X64221905Y-65111009D01*
X64221905Y-65111009D02*
X64269524Y-65063390D01*
X64269524Y-65063390D02*
X64364762Y-65015771D01*
X64364762Y-65015771D02*
X64602857Y-65015771D01*
X64602857Y-65015771D02*
X64698095Y-65063390D01*
X64698095Y-65063390D02*
X64745714Y-65111009D01*
X64745714Y-65111009D02*
X64793333Y-65206247D01*
X64793333Y-65206247D02*
X64793333Y-65444342D01*
X64793333Y-65444342D02*
X64745714Y-65539580D01*
X64745714Y-65539580D02*
X64698095Y-65587200D01*
X64698095Y-65587200D02*
X64602857Y-65634819D01*
X64602857Y-65634819D02*
X64364762Y-65634819D01*
X64364762Y-65634819D02*
X64269524Y-65587200D01*
X64269524Y-65587200D02*
X64221905Y-65539580D01*
X74067200Y-115600952D02*
X74114819Y-115458095D01*
X74114819Y-115458095D02*
X74114819Y-115220000D01*
X74114819Y-115220000D02*
X74067200Y-115124762D01*
X74067200Y-115124762D02*
X74019580Y-115077143D01*
X74019580Y-115077143D02*
X73924342Y-115029524D01*
X73924342Y-115029524D02*
X73829104Y-115029524D01*
X73829104Y-115029524D02*
X73733866Y-115077143D01*
X73733866Y-115077143D02*
X73686247Y-115124762D01*
X73686247Y-115124762D02*
X73638628Y-115220000D01*
X73638628Y-115220000D02*
X73591009Y-115410476D01*
X73591009Y-115410476D02*
X73543390Y-115505714D01*
X73543390Y-115505714D02*
X73495771Y-115553333D01*
X73495771Y-115553333D02*
X73400533Y-115600952D01*
X73400533Y-115600952D02*
X73305295Y-115600952D01*
X73305295Y-115600952D02*
X73210057Y-115553333D01*
X73210057Y-115553333D02*
X73162438Y-115505714D01*
X73162438Y-115505714D02*
X73114819Y-115410476D01*
X73114819Y-115410476D02*
X73114819Y-115172381D01*
X73114819Y-115172381D02*
X73162438Y-115029524D01*
X73448152Y-114743809D02*
X73448152Y-114362857D01*
X73114819Y-114600952D02*
X73971961Y-114600952D01*
X73971961Y-114600952D02*
X74067200Y-114553333D01*
X74067200Y-114553333D02*
X74114819Y-114458095D01*
X74114819Y-114458095D02*
X74114819Y-114362857D01*
X74114819Y-114029523D02*
X73448152Y-114029523D01*
X73638628Y-114029523D02*
X73543390Y-113981904D01*
X73543390Y-113981904D02*
X73495771Y-113934285D01*
X73495771Y-113934285D02*
X73448152Y-113839047D01*
X73448152Y-113839047D02*
X73448152Y-113743809D01*
X74114819Y-113267618D02*
X74067200Y-113362856D01*
X74067200Y-113362856D02*
X74019580Y-113410475D01*
X74019580Y-113410475D02*
X73924342Y-113458094D01*
X73924342Y-113458094D02*
X73638628Y-113458094D01*
X73638628Y-113458094D02*
X73543390Y-113410475D01*
X73543390Y-113410475D02*
X73495771Y-113362856D01*
X73495771Y-113362856D02*
X73448152Y-113267618D01*
X73448152Y-113267618D02*
X73448152Y-113124761D01*
X73448152Y-113124761D02*
X73495771Y-113029523D01*
X73495771Y-113029523D02*
X73543390Y-112981904D01*
X73543390Y-112981904D02*
X73638628Y-112934285D01*
X73638628Y-112934285D02*
X73924342Y-112934285D01*
X73924342Y-112934285D02*
X74019580Y-112981904D01*
X74019580Y-112981904D02*
X74067200Y-113029523D01*
X74067200Y-113029523D02*
X74114819Y-113124761D01*
X74114819Y-113124761D02*
X74114819Y-113267618D01*
X74114819Y-112505713D02*
X73114819Y-112505713D01*
X73495771Y-112505713D02*
X73448152Y-112410475D01*
X73448152Y-112410475D02*
X73448152Y-112219999D01*
X73448152Y-112219999D02*
X73495771Y-112124761D01*
X73495771Y-112124761D02*
X73543390Y-112077142D01*
X73543390Y-112077142D02*
X73638628Y-112029523D01*
X73638628Y-112029523D02*
X73924342Y-112029523D01*
X73924342Y-112029523D02*
X74019580Y-112077142D01*
X74019580Y-112077142D02*
X74067200Y-112124761D01*
X74067200Y-112124761D02*
X74114819Y-112219999D01*
X74114819Y-112219999D02*
X74114819Y-112410475D01*
X74114819Y-112410475D02*
X74067200Y-112505713D01*
X74067200Y-111219999D02*
X74114819Y-111315237D01*
X74114819Y-111315237D02*
X74114819Y-111505713D01*
X74114819Y-111505713D02*
X74067200Y-111600951D01*
X74067200Y-111600951D02*
X73971961Y-111648570D01*
X73971961Y-111648570D02*
X73591009Y-111648570D01*
X73591009Y-111648570D02*
X73495771Y-111600951D01*
X73495771Y-111600951D02*
X73448152Y-111505713D01*
X73448152Y-111505713D02*
X73448152Y-111315237D01*
X73448152Y-111315237D02*
X73495771Y-111219999D01*
X73495771Y-111219999D02*
X73591009Y-111172380D01*
X73591009Y-111172380D02*
X73686247Y-111172380D01*
X73686247Y-111172380D02*
X73781485Y-111648570D01*
X74210057Y-110981904D02*
X74210057Y-110219999D01*
X73114819Y-110124760D02*
X73114819Y-109553332D01*
X74114819Y-109839046D02*
X73114819Y-109839046D01*
X74114819Y-109219998D02*
X73448152Y-109219998D01*
X73114819Y-109219998D02*
X73162438Y-109267617D01*
X73162438Y-109267617D02*
X73210057Y-109219998D01*
X73210057Y-109219998D02*
X73162438Y-109172379D01*
X73162438Y-109172379D02*
X73114819Y-109219998D01*
X73114819Y-109219998D02*
X73210057Y-109219998D01*
X74114819Y-108743808D02*
X73448152Y-108743808D01*
X73543390Y-108743808D02*
X73495771Y-108696189D01*
X73495771Y-108696189D02*
X73448152Y-108600951D01*
X73448152Y-108600951D02*
X73448152Y-108458094D01*
X73448152Y-108458094D02*
X73495771Y-108362856D01*
X73495771Y-108362856D02*
X73591009Y-108315237D01*
X73591009Y-108315237D02*
X74114819Y-108315237D01*
X73591009Y-108315237D02*
X73495771Y-108267618D01*
X73495771Y-108267618D02*
X73448152Y-108172380D01*
X73448152Y-108172380D02*
X73448152Y-108029523D01*
X73448152Y-108029523D02*
X73495771Y-107934284D01*
X73495771Y-107934284D02*
X73591009Y-107886665D01*
X73591009Y-107886665D02*
X74114819Y-107886665D01*
X74114819Y-107410475D02*
X73448152Y-107410475D01*
X73114819Y-107410475D02*
X73162438Y-107458094D01*
X73162438Y-107458094D02*
X73210057Y-107410475D01*
X73210057Y-107410475D02*
X73162438Y-107362856D01*
X73162438Y-107362856D02*
X73114819Y-107410475D01*
X73114819Y-107410475D02*
X73210057Y-107410475D01*
X73448152Y-106934285D02*
X74114819Y-106934285D01*
X73543390Y-106934285D02*
X73495771Y-106886666D01*
X73495771Y-106886666D02*
X73448152Y-106791428D01*
X73448152Y-106791428D02*
X73448152Y-106648571D01*
X73448152Y-106648571D02*
X73495771Y-106553333D01*
X73495771Y-106553333D02*
X73591009Y-106505714D01*
X73591009Y-106505714D02*
X74114819Y-106505714D01*
X73448152Y-105600952D02*
X74257676Y-105600952D01*
X74257676Y-105600952D02*
X74352914Y-105648571D01*
X74352914Y-105648571D02*
X74400533Y-105696190D01*
X74400533Y-105696190D02*
X74448152Y-105791428D01*
X74448152Y-105791428D02*
X74448152Y-105934285D01*
X74448152Y-105934285D02*
X74400533Y-106029523D01*
X74067200Y-105600952D02*
X74114819Y-105696190D01*
X74114819Y-105696190D02*
X74114819Y-105886666D01*
X74114819Y-105886666D02*
X74067200Y-105981904D01*
X74067200Y-105981904D02*
X74019580Y-106029523D01*
X74019580Y-106029523D02*
X73924342Y-106077142D01*
X73924342Y-106077142D02*
X73638628Y-106077142D01*
X73638628Y-106077142D02*
X73543390Y-106029523D01*
X73543390Y-106029523D02*
X73495771Y-105981904D01*
X73495771Y-105981904D02*
X73448152Y-105886666D01*
X73448152Y-105886666D02*
X73448152Y-105696190D01*
X73448152Y-105696190D02*
X73495771Y-105600952D01*
X74210057Y-105362857D02*
X74210057Y-104600952D01*
X74019580Y-103791428D02*
X74067200Y-103839047D01*
X74067200Y-103839047D02*
X74114819Y-103981904D01*
X74114819Y-103981904D02*
X74114819Y-104077142D01*
X74114819Y-104077142D02*
X74067200Y-104219999D01*
X74067200Y-104219999D02*
X73971961Y-104315237D01*
X73971961Y-104315237D02*
X73876723Y-104362856D01*
X73876723Y-104362856D02*
X73686247Y-104410475D01*
X73686247Y-104410475D02*
X73543390Y-104410475D01*
X73543390Y-104410475D02*
X73352914Y-104362856D01*
X73352914Y-104362856D02*
X73257676Y-104315237D01*
X73257676Y-104315237D02*
X73162438Y-104219999D01*
X73162438Y-104219999D02*
X73114819Y-104077142D01*
X73114819Y-104077142D02*
X73114819Y-103981904D01*
X73114819Y-103981904D02*
X73162438Y-103839047D01*
X73162438Y-103839047D02*
X73210057Y-103791428D01*
X74114819Y-102839047D02*
X74114819Y-103410475D01*
X74114819Y-103124761D02*
X73114819Y-103124761D01*
X73114819Y-103124761D02*
X73257676Y-103219999D01*
X73257676Y-103219999D02*
X73352914Y-103315237D01*
X73352914Y-103315237D02*
X73400533Y-103410475D01*
X87054700Y-125578761D02*
X87102319Y-125435904D01*
X87102319Y-125435904D02*
X87102319Y-125197809D01*
X87102319Y-125197809D02*
X87054700Y-125102571D01*
X87054700Y-125102571D02*
X87007080Y-125054952D01*
X87007080Y-125054952D02*
X86911842Y-125007333D01*
X86911842Y-125007333D02*
X86816604Y-125007333D01*
X86816604Y-125007333D02*
X86721366Y-125054952D01*
X86721366Y-125054952D02*
X86673747Y-125102571D01*
X86673747Y-125102571D02*
X86626128Y-125197809D01*
X86626128Y-125197809D02*
X86578509Y-125388285D01*
X86578509Y-125388285D02*
X86530890Y-125483523D01*
X86530890Y-125483523D02*
X86483271Y-125531142D01*
X86483271Y-125531142D02*
X86388033Y-125578761D01*
X86388033Y-125578761D02*
X86292795Y-125578761D01*
X86292795Y-125578761D02*
X86197557Y-125531142D01*
X86197557Y-125531142D02*
X86149938Y-125483523D01*
X86149938Y-125483523D02*
X86102319Y-125388285D01*
X86102319Y-125388285D02*
X86102319Y-125150190D01*
X86102319Y-125150190D02*
X86149938Y-125007333D01*
X86435652Y-124721618D02*
X86435652Y-124340666D01*
X86102319Y-124578761D02*
X86959461Y-124578761D01*
X86959461Y-124578761D02*
X87054700Y-124531142D01*
X87054700Y-124531142D02*
X87102319Y-124435904D01*
X87102319Y-124435904D02*
X87102319Y-124340666D01*
X87102319Y-124007332D02*
X86435652Y-124007332D01*
X86626128Y-124007332D02*
X86530890Y-123959713D01*
X86530890Y-123959713D02*
X86483271Y-123912094D01*
X86483271Y-123912094D02*
X86435652Y-123816856D01*
X86435652Y-123816856D02*
X86435652Y-123721618D01*
X87102319Y-123245427D02*
X87054700Y-123340665D01*
X87054700Y-123340665D02*
X87007080Y-123388284D01*
X87007080Y-123388284D02*
X86911842Y-123435903D01*
X86911842Y-123435903D02*
X86626128Y-123435903D01*
X86626128Y-123435903D02*
X86530890Y-123388284D01*
X86530890Y-123388284D02*
X86483271Y-123340665D01*
X86483271Y-123340665D02*
X86435652Y-123245427D01*
X86435652Y-123245427D02*
X86435652Y-123102570D01*
X86435652Y-123102570D02*
X86483271Y-123007332D01*
X86483271Y-123007332D02*
X86530890Y-122959713D01*
X86530890Y-122959713D02*
X86626128Y-122912094D01*
X86626128Y-122912094D02*
X86911842Y-122912094D01*
X86911842Y-122912094D02*
X87007080Y-122959713D01*
X87007080Y-122959713D02*
X87054700Y-123007332D01*
X87054700Y-123007332D02*
X87102319Y-123102570D01*
X87102319Y-123102570D02*
X87102319Y-123245427D01*
X87102319Y-122483522D02*
X86102319Y-122483522D01*
X86483271Y-122483522D02*
X86435652Y-122388284D01*
X86435652Y-122388284D02*
X86435652Y-122197808D01*
X86435652Y-122197808D02*
X86483271Y-122102570D01*
X86483271Y-122102570D02*
X86530890Y-122054951D01*
X86530890Y-122054951D02*
X86626128Y-122007332D01*
X86626128Y-122007332D02*
X86911842Y-122007332D01*
X86911842Y-122007332D02*
X87007080Y-122054951D01*
X87007080Y-122054951D02*
X87054700Y-122102570D01*
X87054700Y-122102570D02*
X87102319Y-122197808D01*
X87102319Y-122197808D02*
X87102319Y-122388284D01*
X87102319Y-122388284D02*
X87054700Y-122483522D01*
X87102319Y-121578760D02*
X86435652Y-121578760D01*
X86102319Y-121578760D02*
X86149938Y-121626379D01*
X86149938Y-121626379D02*
X86197557Y-121578760D01*
X86197557Y-121578760D02*
X86149938Y-121531141D01*
X86149938Y-121531141D02*
X86102319Y-121578760D01*
X86102319Y-121578760D02*
X86197557Y-121578760D01*
X86435652Y-121102570D02*
X87102319Y-121102570D01*
X86530890Y-121102570D02*
X86483271Y-121054951D01*
X86483271Y-121054951D02*
X86435652Y-120959713D01*
X86435652Y-120959713D02*
X86435652Y-120816856D01*
X86435652Y-120816856D02*
X86483271Y-120721618D01*
X86483271Y-120721618D02*
X86578509Y-120673999D01*
X86578509Y-120673999D02*
X87102319Y-120673999D01*
X86435652Y-119769237D02*
X87245176Y-119769237D01*
X87245176Y-119769237D02*
X87340414Y-119816856D01*
X87340414Y-119816856D02*
X87388033Y-119864475D01*
X87388033Y-119864475D02*
X87435652Y-119959713D01*
X87435652Y-119959713D02*
X87435652Y-120102570D01*
X87435652Y-120102570D02*
X87388033Y-120197808D01*
X87054700Y-119769237D02*
X87102319Y-119864475D01*
X87102319Y-119864475D02*
X87102319Y-120054951D01*
X87102319Y-120054951D02*
X87054700Y-120150189D01*
X87054700Y-120150189D02*
X87007080Y-120197808D01*
X87007080Y-120197808D02*
X86911842Y-120245427D01*
X86911842Y-120245427D02*
X86626128Y-120245427D01*
X86626128Y-120245427D02*
X86530890Y-120197808D01*
X86530890Y-120197808D02*
X86483271Y-120150189D01*
X86483271Y-120150189D02*
X86435652Y-120054951D01*
X86435652Y-120054951D02*
X86435652Y-119864475D01*
X86435652Y-119864475D02*
X86483271Y-119769237D01*
X87102319Y-118769237D02*
X87102319Y-119340665D01*
X87102319Y-119054951D02*
X86102319Y-119054951D01*
X86102319Y-119054951D02*
X86245176Y-119150189D01*
X86245176Y-119150189D02*
X86340414Y-119245427D01*
X86340414Y-119245427D02*
X86388033Y-119340665D01*
X36524819Y-59437858D02*
X36524819Y-59247382D01*
X36524819Y-59247382D02*
X36572438Y-59152144D01*
X36572438Y-59152144D02*
X36667676Y-59056906D01*
X36667676Y-59056906D02*
X36858152Y-59009287D01*
X36858152Y-59009287D02*
X37191485Y-59009287D01*
X37191485Y-59009287D02*
X37381961Y-59056906D01*
X37381961Y-59056906D02*
X37477200Y-59152144D01*
X37477200Y-59152144D02*
X37524819Y-59247382D01*
X37524819Y-59247382D02*
X37524819Y-59437858D01*
X37524819Y-59437858D02*
X37477200Y-59533096D01*
X37477200Y-59533096D02*
X37381961Y-59628334D01*
X37381961Y-59628334D02*
X37191485Y-59675953D01*
X37191485Y-59675953D02*
X36858152Y-59675953D01*
X36858152Y-59675953D02*
X36667676Y-59628334D01*
X36667676Y-59628334D02*
X36572438Y-59533096D01*
X36572438Y-59533096D02*
X36524819Y-59437858D01*
X36858152Y-58152144D02*
X37524819Y-58152144D01*
X36858152Y-58580715D02*
X37381961Y-58580715D01*
X37381961Y-58580715D02*
X37477200Y-58533096D01*
X37477200Y-58533096D02*
X37524819Y-58437858D01*
X37524819Y-58437858D02*
X37524819Y-58295001D01*
X37524819Y-58295001D02*
X37477200Y-58199763D01*
X37477200Y-58199763D02*
X37429580Y-58152144D01*
X36858152Y-57818810D02*
X36858152Y-57437858D01*
X36524819Y-57675953D02*
X37381961Y-57675953D01*
X37381961Y-57675953D02*
X37477200Y-57628334D01*
X37477200Y-57628334D02*
X37524819Y-57533096D01*
X37524819Y-57533096D02*
X37524819Y-57437858D01*
X36858152Y-57104524D02*
X37858152Y-57104524D01*
X36905771Y-57104524D02*
X36858152Y-57009286D01*
X36858152Y-57009286D02*
X36858152Y-56818810D01*
X36858152Y-56818810D02*
X36905771Y-56723572D01*
X36905771Y-56723572D02*
X36953390Y-56675953D01*
X36953390Y-56675953D02*
X37048628Y-56628334D01*
X37048628Y-56628334D02*
X37334342Y-56628334D01*
X37334342Y-56628334D02*
X37429580Y-56675953D01*
X37429580Y-56675953D02*
X37477200Y-56723572D01*
X37477200Y-56723572D02*
X37524819Y-56818810D01*
X37524819Y-56818810D02*
X37524819Y-57009286D01*
X37524819Y-57009286D02*
X37477200Y-57104524D01*
X36858152Y-55771191D02*
X37524819Y-55771191D01*
X36858152Y-56199762D02*
X37381961Y-56199762D01*
X37381961Y-56199762D02*
X37477200Y-56152143D01*
X37477200Y-56152143D02*
X37524819Y-56056905D01*
X37524819Y-56056905D02*
X37524819Y-55914048D01*
X37524819Y-55914048D02*
X37477200Y-55818810D01*
X37477200Y-55818810D02*
X37429580Y-55771191D01*
X36858152Y-55437857D02*
X36858152Y-55056905D01*
X36524819Y-55295000D02*
X37381961Y-55295000D01*
X37381961Y-55295000D02*
X37477200Y-55247381D01*
X37477200Y-55247381D02*
X37524819Y-55152143D01*
X37524819Y-55152143D02*
X37524819Y-55056905D01*
X37620057Y-54961667D02*
X37620057Y-54199762D01*
X36524819Y-54104523D02*
X37524819Y-53771190D01*
X37524819Y-53771190D02*
X36524819Y-53437857D01*
X37524819Y-52961666D02*
X37477200Y-53056904D01*
X37477200Y-53056904D02*
X37429580Y-53104523D01*
X37429580Y-53104523D02*
X37334342Y-53152142D01*
X37334342Y-53152142D02*
X37048628Y-53152142D01*
X37048628Y-53152142D02*
X36953390Y-53104523D01*
X36953390Y-53104523D02*
X36905771Y-53056904D01*
X36905771Y-53056904D02*
X36858152Y-52961666D01*
X36858152Y-52961666D02*
X36858152Y-52818809D01*
X36858152Y-52818809D02*
X36905771Y-52723571D01*
X36905771Y-52723571D02*
X36953390Y-52675952D01*
X36953390Y-52675952D02*
X37048628Y-52628333D01*
X37048628Y-52628333D02*
X37334342Y-52628333D01*
X37334342Y-52628333D02*
X37429580Y-52675952D01*
X37429580Y-52675952D02*
X37477200Y-52723571D01*
X37477200Y-52723571D02*
X37524819Y-52818809D01*
X37524819Y-52818809D02*
X37524819Y-52961666D01*
X37524819Y-52056904D02*
X37477200Y-52152142D01*
X37477200Y-52152142D02*
X37381961Y-52199761D01*
X37381961Y-52199761D02*
X36524819Y-52199761D01*
X36858152Y-51818808D02*
X36858152Y-51437856D01*
X36524819Y-51675951D02*
X37381961Y-51675951D01*
X37381961Y-51675951D02*
X37477200Y-51628332D01*
X37477200Y-51628332D02*
X37524819Y-51533094D01*
X37524819Y-51533094D02*
X37524819Y-51437856D01*
X37524819Y-50675951D02*
X37001009Y-50675951D01*
X37001009Y-50675951D02*
X36905771Y-50723570D01*
X36905771Y-50723570D02*
X36858152Y-50818808D01*
X36858152Y-50818808D02*
X36858152Y-51009284D01*
X36858152Y-51009284D02*
X36905771Y-51104522D01*
X37477200Y-50675951D02*
X37524819Y-50771189D01*
X37524819Y-50771189D02*
X37524819Y-51009284D01*
X37524819Y-51009284D02*
X37477200Y-51104522D01*
X37477200Y-51104522D02*
X37381961Y-51152141D01*
X37381961Y-51152141D02*
X37286723Y-51152141D01*
X37286723Y-51152141D02*
X37191485Y-51104522D01*
X37191485Y-51104522D02*
X37143866Y-51009284D01*
X37143866Y-51009284D02*
X37143866Y-50771189D01*
X37143866Y-50771189D02*
X37096247Y-50675951D01*
X36858152Y-49771189D02*
X37667676Y-49771189D01*
X37667676Y-49771189D02*
X37762914Y-49818808D01*
X37762914Y-49818808D02*
X37810533Y-49866427D01*
X37810533Y-49866427D02*
X37858152Y-49961665D01*
X37858152Y-49961665D02*
X37858152Y-50104522D01*
X37858152Y-50104522D02*
X37810533Y-50199760D01*
X37477200Y-49771189D02*
X37524819Y-49866427D01*
X37524819Y-49866427D02*
X37524819Y-50056903D01*
X37524819Y-50056903D02*
X37477200Y-50152141D01*
X37477200Y-50152141D02*
X37429580Y-50199760D01*
X37429580Y-50199760D02*
X37334342Y-50247379D01*
X37334342Y-50247379D02*
X37048628Y-50247379D01*
X37048628Y-50247379D02*
X36953390Y-50199760D01*
X36953390Y-50199760D02*
X36905771Y-50152141D01*
X36905771Y-50152141D02*
X36858152Y-50056903D01*
X36858152Y-50056903D02*
X36858152Y-49866427D01*
X36858152Y-49866427D02*
X36905771Y-49771189D01*
X37477200Y-48914046D02*
X37524819Y-49009284D01*
X37524819Y-49009284D02*
X37524819Y-49199760D01*
X37524819Y-49199760D02*
X37477200Y-49294998D01*
X37477200Y-49294998D02*
X37381961Y-49342617D01*
X37381961Y-49342617D02*
X37001009Y-49342617D01*
X37001009Y-49342617D02*
X36905771Y-49294998D01*
X36905771Y-49294998D02*
X36858152Y-49199760D01*
X36858152Y-49199760D02*
X36858152Y-49009284D01*
X36858152Y-49009284D02*
X36905771Y-48914046D01*
X36905771Y-48914046D02*
X37001009Y-48866427D01*
X37001009Y-48866427D02*
X37096247Y-48866427D01*
X37096247Y-48866427D02*
X37191485Y-49342617D01*
X37524819Y-47914046D02*
X37524819Y-48485474D01*
X37524819Y-48199760D02*
X36524819Y-48199760D01*
X36524819Y-48199760D02*
X36667676Y-48294998D01*
X36667676Y-48294998D02*
X36762914Y-48390236D01*
X36762914Y-48390236D02*
X36810533Y-48485474D01*
X73591009Y-56347618D02*
X73638628Y-56204761D01*
X73638628Y-56204761D02*
X73686247Y-56157142D01*
X73686247Y-56157142D02*
X73781485Y-56109523D01*
X73781485Y-56109523D02*
X73924342Y-56109523D01*
X73924342Y-56109523D02*
X74019580Y-56157142D01*
X74019580Y-56157142D02*
X74067200Y-56204761D01*
X74067200Y-56204761D02*
X74114819Y-56299999D01*
X74114819Y-56299999D02*
X74114819Y-56680951D01*
X74114819Y-56680951D02*
X73114819Y-56680951D01*
X73114819Y-56680951D02*
X73114819Y-56347618D01*
X73114819Y-56347618D02*
X73162438Y-56252380D01*
X73162438Y-56252380D02*
X73210057Y-56204761D01*
X73210057Y-56204761D02*
X73305295Y-56157142D01*
X73305295Y-56157142D02*
X73400533Y-56157142D01*
X73400533Y-56157142D02*
X73495771Y-56204761D01*
X73495771Y-56204761D02*
X73543390Y-56252380D01*
X73543390Y-56252380D02*
X73591009Y-56347618D01*
X73591009Y-56347618D02*
X73591009Y-56680951D01*
X74114819Y-55680951D02*
X73448152Y-55680951D01*
X73638628Y-55680951D02*
X73543390Y-55633332D01*
X73543390Y-55633332D02*
X73495771Y-55585713D01*
X73495771Y-55585713D02*
X73448152Y-55490475D01*
X73448152Y-55490475D02*
X73448152Y-55395237D01*
X74114819Y-54633332D02*
X73591009Y-54633332D01*
X73591009Y-54633332D02*
X73495771Y-54680951D01*
X73495771Y-54680951D02*
X73448152Y-54776189D01*
X73448152Y-54776189D02*
X73448152Y-54966665D01*
X73448152Y-54966665D02*
X73495771Y-55061903D01*
X74067200Y-54633332D02*
X74114819Y-54728570D01*
X74114819Y-54728570D02*
X74114819Y-54966665D01*
X74114819Y-54966665D02*
X74067200Y-55061903D01*
X74067200Y-55061903D02*
X73971961Y-55109522D01*
X73971961Y-55109522D02*
X73876723Y-55109522D01*
X73876723Y-55109522D02*
X73781485Y-55061903D01*
X73781485Y-55061903D02*
X73733866Y-54966665D01*
X73733866Y-54966665D02*
X73733866Y-54728570D01*
X73733866Y-54728570D02*
X73686247Y-54633332D01*
X74114819Y-54157141D02*
X73448152Y-54157141D01*
X73114819Y-54157141D02*
X73162438Y-54204760D01*
X73162438Y-54204760D02*
X73210057Y-54157141D01*
X73210057Y-54157141D02*
X73162438Y-54109522D01*
X73162438Y-54109522D02*
X73114819Y-54157141D01*
X73114819Y-54157141D02*
X73210057Y-54157141D01*
X73448152Y-53680951D02*
X74114819Y-53680951D01*
X73543390Y-53680951D02*
X73495771Y-53633332D01*
X73495771Y-53633332D02*
X73448152Y-53538094D01*
X73448152Y-53538094D02*
X73448152Y-53395237D01*
X73448152Y-53395237D02*
X73495771Y-53299999D01*
X73495771Y-53299999D02*
X73591009Y-53252380D01*
X73591009Y-53252380D02*
X74114819Y-53252380D01*
X74210057Y-53014285D02*
X74210057Y-52252380D01*
X73114819Y-52157141D02*
X73114819Y-51585713D01*
X74114819Y-51871427D02*
X73114819Y-51871427D01*
X74114819Y-51252379D02*
X73448152Y-51252379D01*
X73114819Y-51252379D02*
X73162438Y-51299998D01*
X73162438Y-51299998D02*
X73210057Y-51252379D01*
X73210057Y-51252379D02*
X73162438Y-51204760D01*
X73162438Y-51204760D02*
X73114819Y-51252379D01*
X73114819Y-51252379D02*
X73210057Y-51252379D01*
X74114819Y-50776189D02*
X73448152Y-50776189D01*
X73543390Y-50776189D02*
X73495771Y-50728570D01*
X73495771Y-50728570D02*
X73448152Y-50633332D01*
X73448152Y-50633332D02*
X73448152Y-50490475D01*
X73448152Y-50490475D02*
X73495771Y-50395237D01*
X73495771Y-50395237D02*
X73591009Y-50347618D01*
X73591009Y-50347618D02*
X74114819Y-50347618D01*
X73591009Y-50347618D02*
X73495771Y-50299999D01*
X73495771Y-50299999D02*
X73448152Y-50204761D01*
X73448152Y-50204761D02*
X73448152Y-50061904D01*
X73448152Y-50061904D02*
X73495771Y-49966665D01*
X73495771Y-49966665D02*
X73591009Y-49919046D01*
X73591009Y-49919046D02*
X74114819Y-49919046D01*
X74114819Y-49442856D02*
X73448152Y-49442856D01*
X73114819Y-49442856D02*
X73162438Y-49490475D01*
X73162438Y-49490475D02*
X73210057Y-49442856D01*
X73210057Y-49442856D02*
X73162438Y-49395237D01*
X73162438Y-49395237D02*
X73114819Y-49442856D01*
X73114819Y-49442856D02*
X73210057Y-49442856D01*
X73448152Y-48966666D02*
X74114819Y-48966666D01*
X73543390Y-48966666D02*
X73495771Y-48919047D01*
X73495771Y-48919047D02*
X73448152Y-48823809D01*
X73448152Y-48823809D02*
X73448152Y-48680952D01*
X73448152Y-48680952D02*
X73495771Y-48585714D01*
X73495771Y-48585714D02*
X73591009Y-48538095D01*
X73591009Y-48538095D02*
X74114819Y-48538095D01*
X73448152Y-47633333D02*
X74257676Y-47633333D01*
X74257676Y-47633333D02*
X74352914Y-47680952D01*
X74352914Y-47680952D02*
X74400533Y-47728571D01*
X74400533Y-47728571D02*
X74448152Y-47823809D01*
X74448152Y-47823809D02*
X74448152Y-47966666D01*
X74448152Y-47966666D02*
X74400533Y-48061904D01*
X74067200Y-47633333D02*
X74114819Y-47728571D01*
X74114819Y-47728571D02*
X74114819Y-47919047D01*
X74114819Y-47919047D02*
X74067200Y-48014285D01*
X74067200Y-48014285D02*
X74019580Y-48061904D01*
X74019580Y-48061904D02*
X73924342Y-48109523D01*
X73924342Y-48109523D02*
X73638628Y-48109523D01*
X73638628Y-48109523D02*
X73543390Y-48061904D01*
X73543390Y-48061904D02*
X73495771Y-48014285D01*
X73495771Y-48014285D02*
X73448152Y-47919047D01*
X73448152Y-47919047D02*
X73448152Y-47728571D01*
X73448152Y-47728571D02*
X73495771Y-47633333D01*
X74210057Y-47395238D02*
X74210057Y-46633333D01*
X74019580Y-45823809D02*
X74067200Y-45871428D01*
X74067200Y-45871428D02*
X74114819Y-46014285D01*
X74114819Y-46014285D02*
X74114819Y-46109523D01*
X74114819Y-46109523D02*
X74067200Y-46252380D01*
X74067200Y-46252380D02*
X73971961Y-46347618D01*
X73971961Y-46347618D02*
X73876723Y-46395237D01*
X73876723Y-46395237D02*
X73686247Y-46442856D01*
X73686247Y-46442856D02*
X73543390Y-46442856D01*
X73543390Y-46442856D02*
X73352914Y-46395237D01*
X73352914Y-46395237D02*
X73257676Y-46347618D01*
X73257676Y-46347618D02*
X73162438Y-46252380D01*
X73162438Y-46252380D02*
X73114819Y-46109523D01*
X73114819Y-46109523D02*
X73114819Y-46014285D01*
X73114819Y-46014285D02*
X73162438Y-45871428D01*
X73162438Y-45871428D02*
X73210057Y-45823809D01*
X74114819Y-44871428D02*
X74114819Y-45442856D01*
X74114819Y-45157142D02*
X73114819Y-45157142D01*
X73114819Y-45157142D02*
X73257676Y-45252380D01*
X73257676Y-45252380D02*
X73352914Y-45347618D01*
X73352914Y-45347618D02*
X73400533Y-45442856D01*
X86571009Y-45009047D02*
X86618628Y-44866190D01*
X86618628Y-44866190D02*
X86666247Y-44818571D01*
X86666247Y-44818571D02*
X86761485Y-44770952D01*
X86761485Y-44770952D02*
X86904342Y-44770952D01*
X86904342Y-44770952D02*
X86999580Y-44818571D01*
X86999580Y-44818571D02*
X87047200Y-44866190D01*
X87047200Y-44866190D02*
X87094819Y-44961428D01*
X87094819Y-44961428D02*
X87094819Y-45342380D01*
X87094819Y-45342380D02*
X86094819Y-45342380D01*
X86094819Y-45342380D02*
X86094819Y-45009047D01*
X86094819Y-45009047D02*
X86142438Y-44913809D01*
X86142438Y-44913809D02*
X86190057Y-44866190D01*
X86190057Y-44866190D02*
X86285295Y-44818571D01*
X86285295Y-44818571D02*
X86380533Y-44818571D01*
X86380533Y-44818571D02*
X86475771Y-44866190D01*
X86475771Y-44866190D02*
X86523390Y-44913809D01*
X86523390Y-44913809D02*
X86571009Y-45009047D01*
X86571009Y-45009047D02*
X86571009Y-45342380D01*
X87047200Y-43961428D02*
X87094819Y-44056666D01*
X87094819Y-44056666D02*
X87094819Y-44247142D01*
X87094819Y-44247142D02*
X87047200Y-44342380D01*
X87047200Y-44342380D02*
X86951961Y-44389999D01*
X86951961Y-44389999D02*
X86571009Y-44389999D01*
X86571009Y-44389999D02*
X86475771Y-44342380D01*
X86475771Y-44342380D02*
X86428152Y-44247142D01*
X86428152Y-44247142D02*
X86428152Y-44056666D01*
X86428152Y-44056666D02*
X86475771Y-43961428D01*
X86475771Y-43961428D02*
X86571009Y-43913809D01*
X86571009Y-43913809D02*
X86666247Y-43913809D01*
X86666247Y-43913809D02*
X86761485Y-44389999D01*
X87094819Y-43485237D02*
X86094819Y-43485237D01*
X87094819Y-43056666D02*
X86571009Y-43056666D01*
X86571009Y-43056666D02*
X86475771Y-43104285D01*
X86475771Y-43104285D02*
X86428152Y-43199523D01*
X86428152Y-43199523D02*
X86428152Y-43342380D01*
X86428152Y-43342380D02*
X86475771Y-43437618D01*
X86475771Y-43437618D02*
X86523390Y-43485237D01*
X87094819Y-42151904D02*
X86571009Y-42151904D01*
X86571009Y-42151904D02*
X86475771Y-42199523D01*
X86475771Y-42199523D02*
X86428152Y-42294761D01*
X86428152Y-42294761D02*
X86428152Y-42485237D01*
X86428152Y-42485237D02*
X86475771Y-42580475D01*
X87047200Y-42151904D02*
X87094819Y-42247142D01*
X87094819Y-42247142D02*
X87094819Y-42485237D01*
X87094819Y-42485237D02*
X87047200Y-42580475D01*
X87047200Y-42580475D02*
X86951961Y-42628094D01*
X86951961Y-42628094D02*
X86856723Y-42628094D01*
X86856723Y-42628094D02*
X86761485Y-42580475D01*
X86761485Y-42580475D02*
X86713866Y-42485237D01*
X86713866Y-42485237D02*
X86713866Y-42247142D01*
X86713866Y-42247142D02*
X86666247Y-42151904D01*
X86428152Y-41770951D02*
X87094819Y-41532856D01*
X87094819Y-41532856D02*
X86428152Y-41294761D01*
X87094819Y-40913808D02*
X86428152Y-40913808D01*
X86094819Y-40913808D02*
X86142438Y-40961427D01*
X86142438Y-40961427D02*
X86190057Y-40913808D01*
X86190057Y-40913808D02*
X86142438Y-40866189D01*
X86142438Y-40866189D02*
X86094819Y-40913808D01*
X86094819Y-40913808D02*
X86190057Y-40913808D01*
X87094819Y-40294761D02*
X87047200Y-40389999D01*
X87047200Y-40389999D02*
X86999580Y-40437618D01*
X86999580Y-40437618D02*
X86904342Y-40485237D01*
X86904342Y-40485237D02*
X86618628Y-40485237D01*
X86618628Y-40485237D02*
X86523390Y-40437618D01*
X86523390Y-40437618D02*
X86475771Y-40389999D01*
X86475771Y-40389999D02*
X86428152Y-40294761D01*
X86428152Y-40294761D02*
X86428152Y-40151904D01*
X86428152Y-40151904D02*
X86475771Y-40056666D01*
X86475771Y-40056666D02*
X86523390Y-40009047D01*
X86523390Y-40009047D02*
X86618628Y-39961428D01*
X86618628Y-39961428D02*
X86904342Y-39961428D01*
X86904342Y-39961428D02*
X86999580Y-40009047D01*
X86999580Y-40009047D02*
X87047200Y-40056666D01*
X87047200Y-40056666D02*
X87094819Y-40151904D01*
X87094819Y-40151904D02*
X87094819Y-40294761D01*
X87094819Y-39532856D02*
X86428152Y-39532856D01*
X86618628Y-39532856D02*
X86523390Y-39485237D01*
X86523390Y-39485237D02*
X86475771Y-39437618D01*
X86475771Y-39437618D02*
X86428152Y-39342380D01*
X86428152Y-39342380D02*
X86428152Y-39247142D01*
X86094819Y-38437618D02*
X86094819Y-38913808D01*
X86094819Y-38913808D02*
X86571009Y-38961427D01*
X86571009Y-38961427D02*
X86523390Y-38913808D01*
X86523390Y-38913808D02*
X86475771Y-38818570D01*
X86475771Y-38818570D02*
X86475771Y-38580475D01*
X86475771Y-38580475D02*
X86523390Y-38485237D01*
X86523390Y-38485237D02*
X86571009Y-38437618D01*
X86571009Y-38437618D02*
X86666247Y-38389999D01*
X86666247Y-38389999D02*
X86904342Y-38389999D01*
X86904342Y-38389999D02*
X86999580Y-38437618D01*
X86999580Y-38437618D02*
X87047200Y-38485237D01*
X87047200Y-38485237D02*
X87094819Y-38580475D01*
X87094819Y-38580475D02*
X87094819Y-38818570D01*
X87094819Y-38818570D02*
X87047200Y-38913808D01*
X87047200Y-38913808D02*
X86999580Y-38961427D01*
X30313333Y-64844819D02*
X29980000Y-64368628D01*
X29741905Y-64844819D02*
X29741905Y-63844819D01*
X29741905Y-63844819D02*
X30122857Y-63844819D01*
X30122857Y-63844819D02*
X30218095Y-63892438D01*
X30218095Y-63892438D02*
X30265714Y-63940057D01*
X30265714Y-63940057D02*
X30313333Y-64035295D01*
X30313333Y-64035295D02*
X30313333Y-64178152D01*
X30313333Y-64178152D02*
X30265714Y-64273390D01*
X30265714Y-64273390D02*
X30218095Y-64321009D01*
X30218095Y-64321009D02*
X30122857Y-64368628D01*
X30122857Y-64368628D02*
X29741905Y-64368628D01*
X31218095Y-63844819D02*
X30741905Y-63844819D01*
X30741905Y-63844819D02*
X30694286Y-64321009D01*
X30694286Y-64321009D02*
X30741905Y-64273390D01*
X30741905Y-64273390D02*
X30837143Y-64225771D01*
X30837143Y-64225771D02*
X31075238Y-64225771D01*
X31075238Y-64225771D02*
X31170476Y-64273390D01*
X31170476Y-64273390D02*
X31218095Y-64321009D01*
X31218095Y-64321009D02*
X31265714Y-64416247D01*
X31265714Y-64416247D02*
X31265714Y-64654342D01*
X31265714Y-64654342D02*
X31218095Y-64749580D01*
X31218095Y-64749580D02*
X31170476Y-64797200D01*
X31170476Y-64797200D02*
X31075238Y-64844819D01*
X31075238Y-64844819D02*
X30837143Y-64844819D01*
X30837143Y-64844819D02*
X30741905Y-64797200D01*
X30741905Y-64797200D02*
X30694286Y-64749580D01*
X36255833Y-67479580D02*
X36208214Y-67527200D01*
X36208214Y-67527200D02*
X36065357Y-67574819D01*
X36065357Y-67574819D02*
X35970119Y-67574819D01*
X35970119Y-67574819D02*
X35827262Y-67527200D01*
X35827262Y-67527200D02*
X35732024Y-67431961D01*
X35732024Y-67431961D02*
X35684405Y-67336723D01*
X35684405Y-67336723D02*
X35636786Y-67146247D01*
X35636786Y-67146247D02*
X35636786Y-67003390D01*
X35636786Y-67003390D02*
X35684405Y-66812914D01*
X35684405Y-66812914D02*
X35732024Y-66717676D01*
X35732024Y-66717676D02*
X35827262Y-66622438D01*
X35827262Y-66622438D02*
X35970119Y-66574819D01*
X35970119Y-66574819D02*
X36065357Y-66574819D01*
X36065357Y-66574819D02*
X36208214Y-66622438D01*
X36208214Y-66622438D02*
X36255833Y-66670057D01*
X36589167Y-66574819D02*
X37208214Y-66574819D01*
X37208214Y-66574819D02*
X36874881Y-66955771D01*
X36874881Y-66955771D02*
X37017738Y-66955771D01*
X37017738Y-66955771D02*
X37112976Y-67003390D01*
X37112976Y-67003390D02*
X37160595Y-67051009D01*
X37160595Y-67051009D02*
X37208214Y-67146247D01*
X37208214Y-67146247D02*
X37208214Y-67384342D01*
X37208214Y-67384342D02*
X37160595Y-67479580D01*
X37160595Y-67479580D02*
X37112976Y-67527200D01*
X37112976Y-67527200D02*
X37017738Y-67574819D01*
X37017738Y-67574819D02*
X36732024Y-67574819D01*
X36732024Y-67574819D02*
X36636786Y-67527200D01*
X36636786Y-67527200D02*
X36589167Y-67479580D01*
X57281009Y-83668571D02*
X57328628Y-83525714D01*
X57328628Y-83525714D02*
X57376247Y-83478095D01*
X57376247Y-83478095D02*
X57471485Y-83430476D01*
X57471485Y-83430476D02*
X57614342Y-83430476D01*
X57614342Y-83430476D02*
X57709580Y-83478095D01*
X57709580Y-83478095D02*
X57757200Y-83525714D01*
X57757200Y-83525714D02*
X57804819Y-83620952D01*
X57804819Y-83620952D02*
X57804819Y-84001904D01*
X57804819Y-84001904D02*
X56804819Y-84001904D01*
X56804819Y-84001904D02*
X56804819Y-83668571D01*
X56804819Y-83668571D02*
X56852438Y-83573333D01*
X56852438Y-83573333D02*
X56900057Y-83525714D01*
X56900057Y-83525714D02*
X56995295Y-83478095D01*
X56995295Y-83478095D02*
X57090533Y-83478095D01*
X57090533Y-83478095D02*
X57185771Y-83525714D01*
X57185771Y-83525714D02*
X57233390Y-83573333D01*
X57233390Y-83573333D02*
X57281009Y-83668571D01*
X57281009Y-83668571D02*
X57281009Y-84001904D01*
X57757200Y-82620952D02*
X57804819Y-82716190D01*
X57804819Y-82716190D02*
X57804819Y-82906666D01*
X57804819Y-82906666D02*
X57757200Y-83001904D01*
X57757200Y-83001904D02*
X57661961Y-83049523D01*
X57661961Y-83049523D02*
X57281009Y-83049523D01*
X57281009Y-83049523D02*
X57185771Y-83001904D01*
X57185771Y-83001904D02*
X57138152Y-82906666D01*
X57138152Y-82906666D02*
X57138152Y-82716190D01*
X57138152Y-82716190D02*
X57185771Y-82620952D01*
X57185771Y-82620952D02*
X57281009Y-82573333D01*
X57281009Y-82573333D02*
X57376247Y-82573333D01*
X57376247Y-82573333D02*
X57471485Y-83049523D01*
X57804819Y-82144761D02*
X56804819Y-82144761D01*
X57804819Y-81716190D02*
X57281009Y-81716190D01*
X57281009Y-81716190D02*
X57185771Y-81763809D01*
X57185771Y-81763809D02*
X57138152Y-81859047D01*
X57138152Y-81859047D02*
X57138152Y-82001904D01*
X57138152Y-82001904D02*
X57185771Y-82097142D01*
X57185771Y-82097142D02*
X57233390Y-82144761D01*
X57804819Y-80811428D02*
X57281009Y-80811428D01*
X57281009Y-80811428D02*
X57185771Y-80859047D01*
X57185771Y-80859047D02*
X57138152Y-80954285D01*
X57138152Y-80954285D02*
X57138152Y-81144761D01*
X57138152Y-81144761D02*
X57185771Y-81239999D01*
X57757200Y-80811428D02*
X57804819Y-80906666D01*
X57804819Y-80906666D02*
X57804819Y-81144761D01*
X57804819Y-81144761D02*
X57757200Y-81239999D01*
X57757200Y-81239999D02*
X57661961Y-81287618D01*
X57661961Y-81287618D02*
X57566723Y-81287618D01*
X57566723Y-81287618D02*
X57471485Y-81239999D01*
X57471485Y-81239999D02*
X57423866Y-81144761D01*
X57423866Y-81144761D02*
X57423866Y-80906666D01*
X57423866Y-80906666D02*
X57376247Y-80811428D01*
X57138152Y-80430475D02*
X57804819Y-80192380D01*
X57804819Y-80192380D02*
X57138152Y-79954285D01*
X57900057Y-79811428D02*
X57900057Y-79049523D01*
X56804819Y-78954284D02*
X56804819Y-78382856D01*
X57804819Y-78668570D02*
X56804819Y-78668570D01*
X57804819Y-78049522D02*
X57138152Y-78049522D01*
X56804819Y-78049522D02*
X56852438Y-78097141D01*
X56852438Y-78097141D02*
X56900057Y-78049522D01*
X56900057Y-78049522D02*
X56852438Y-78001903D01*
X56852438Y-78001903D02*
X56804819Y-78049522D01*
X56804819Y-78049522D02*
X56900057Y-78049522D01*
X57804819Y-77573332D02*
X57138152Y-77573332D01*
X57233390Y-77573332D02*
X57185771Y-77525713D01*
X57185771Y-77525713D02*
X57138152Y-77430475D01*
X57138152Y-77430475D02*
X57138152Y-77287618D01*
X57138152Y-77287618D02*
X57185771Y-77192380D01*
X57185771Y-77192380D02*
X57281009Y-77144761D01*
X57281009Y-77144761D02*
X57804819Y-77144761D01*
X57281009Y-77144761D02*
X57185771Y-77097142D01*
X57185771Y-77097142D02*
X57138152Y-77001904D01*
X57138152Y-77001904D02*
X57138152Y-76859047D01*
X57138152Y-76859047D02*
X57185771Y-76763808D01*
X57185771Y-76763808D02*
X57281009Y-76716189D01*
X57281009Y-76716189D02*
X57804819Y-76716189D01*
X57804819Y-76239999D02*
X57138152Y-76239999D01*
X56804819Y-76239999D02*
X56852438Y-76287618D01*
X56852438Y-76287618D02*
X56900057Y-76239999D01*
X56900057Y-76239999D02*
X56852438Y-76192380D01*
X56852438Y-76192380D02*
X56804819Y-76239999D01*
X56804819Y-76239999D02*
X56900057Y-76239999D01*
X57138152Y-75763809D02*
X57804819Y-75763809D01*
X57233390Y-75763809D02*
X57185771Y-75716190D01*
X57185771Y-75716190D02*
X57138152Y-75620952D01*
X57138152Y-75620952D02*
X57138152Y-75478095D01*
X57138152Y-75478095D02*
X57185771Y-75382857D01*
X57185771Y-75382857D02*
X57281009Y-75335238D01*
X57281009Y-75335238D02*
X57804819Y-75335238D01*
X57138152Y-74430476D02*
X57947676Y-74430476D01*
X57947676Y-74430476D02*
X58042914Y-74478095D01*
X58042914Y-74478095D02*
X58090533Y-74525714D01*
X58090533Y-74525714D02*
X58138152Y-74620952D01*
X58138152Y-74620952D02*
X58138152Y-74763809D01*
X58138152Y-74763809D02*
X58090533Y-74859047D01*
X57757200Y-74430476D02*
X57804819Y-74525714D01*
X57804819Y-74525714D02*
X57804819Y-74716190D01*
X57804819Y-74716190D02*
X57757200Y-74811428D01*
X57757200Y-74811428D02*
X57709580Y-74859047D01*
X57709580Y-74859047D02*
X57614342Y-74906666D01*
X57614342Y-74906666D02*
X57328628Y-74906666D01*
X57328628Y-74906666D02*
X57233390Y-74859047D01*
X57233390Y-74859047D02*
X57185771Y-74811428D01*
X57185771Y-74811428D02*
X57138152Y-74716190D01*
X57138152Y-74716190D02*
X57138152Y-74525714D01*
X57138152Y-74525714D02*
X57185771Y-74430476D01*
X57804819Y-73430476D02*
X57804819Y-74001904D01*
X57804819Y-73716190D02*
X56804819Y-73716190D01*
X56804819Y-73716190D02*
X56947676Y-73811428D01*
X56947676Y-73811428D02*
X57042914Y-73906666D01*
X57042914Y-73906666D02*
X57090533Y-74001904D01*
X57281009Y-55466666D02*
X57328628Y-55323809D01*
X57328628Y-55323809D02*
X57376247Y-55276190D01*
X57376247Y-55276190D02*
X57471485Y-55228571D01*
X57471485Y-55228571D02*
X57614342Y-55228571D01*
X57614342Y-55228571D02*
X57709580Y-55276190D01*
X57709580Y-55276190D02*
X57757200Y-55323809D01*
X57757200Y-55323809D02*
X57804819Y-55419047D01*
X57804819Y-55419047D02*
X57804819Y-55799999D01*
X57804819Y-55799999D02*
X56804819Y-55799999D01*
X56804819Y-55799999D02*
X56804819Y-55466666D01*
X56804819Y-55466666D02*
X56852438Y-55371428D01*
X56852438Y-55371428D02*
X56900057Y-55323809D01*
X56900057Y-55323809D02*
X56995295Y-55276190D01*
X56995295Y-55276190D02*
X57090533Y-55276190D01*
X57090533Y-55276190D02*
X57185771Y-55323809D01*
X57185771Y-55323809D02*
X57233390Y-55371428D01*
X57233390Y-55371428D02*
X57281009Y-55466666D01*
X57281009Y-55466666D02*
X57281009Y-55799999D01*
X57804819Y-54799999D02*
X57138152Y-54799999D01*
X57328628Y-54799999D02*
X57233390Y-54752380D01*
X57233390Y-54752380D02*
X57185771Y-54704761D01*
X57185771Y-54704761D02*
X57138152Y-54609523D01*
X57138152Y-54609523D02*
X57138152Y-54514285D01*
X57804819Y-53752380D02*
X57281009Y-53752380D01*
X57281009Y-53752380D02*
X57185771Y-53799999D01*
X57185771Y-53799999D02*
X57138152Y-53895237D01*
X57138152Y-53895237D02*
X57138152Y-54085713D01*
X57138152Y-54085713D02*
X57185771Y-54180951D01*
X57757200Y-53752380D02*
X57804819Y-53847618D01*
X57804819Y-53847618D02*
X57804819Y-54085713D01*
X57804819Y-54085713D02*
X57757200Y-54180951D01*
X57757200Y-54180951D02*
X57661961Y-54228570D01*
X57661961Y-54228570D02*
X57566723Y-54228570D01*
X57566723Y-54228570D02*
X57471485Y-54180951D01*
X57471485Y-54180951D02*
X57423866Y-54085713D01*
X57423866Y-54085713D02*
X57423866Y-53847618D01*
X57423866Y-53847618D02*
X57376247Y-53752380D01*
X57804819Y-53276189D02*
X57138152Y-53276189D01*
X56804819Y-53276189D02*
X56852438Y-53323808D01*
X56852438Y-53323808D02*
X56900057Y-53276189D01*
X56900057Y-53276189D02*
X56852438Y-53228570D01*
X56852438Y-53228570D02*
X56804819Y-53276189D01*
X56804819Y-53276189D02*
X56900057Y-53276189D01*
X57138152Y-52799999D02*
X57804819Y-52799999D01*
X57233390Y-52799999D02*
X57185771Y-52752380D01*
X57185771Y-52752380D02*
X57138152Y-52657142D01*
X57138152Y-52657142D02*
X57138152Y-52514285D01*
X57138152Y-52514285D02*
X57185771Y-52419047D01*
X57185771Y-52419047D02*
X57281009Y-52371428D01*
X57281009Y-52371428D02*
X57804819Y-52371428D01*
X57900057Y-52133333D02*
X57900057Y-51371428D01*
X56804819Y-51276189D02*
X56804819Y-50704761D01*
X57804819Y-50990475D02*
X56804819Y-50990475D01*
X57804819Y-50371427D02*
X57138152Y-50371427D01*
X56804819Y-50371427D02*
X56852438Y-50419046D01*
X56852438Y-50419046D02*
X56900057Y-50371427D01*
X56900057Y-50371427D02*
X56852438Y-50323808D01*
X56852438Y-50323808D02*
X56804819Y-50371427D01*
X56804819Y-50371427D02*
X56900057Y-50371427D01*
X57804819Y-49895237D02*
X57138152Y-49895237D01*
X57233390Y-49895237D02*
X57185771Y-49847618D01*
X57185771Y-49847618D02*
X57138152Y-49752380D01*
X57138152Y-49752380D02*
X57138152Y-49609523D01*
X57138152Y-49609523D02*
X57185771Y-49514285D01*
X57185771Y-49514285D02*
X57281009Y-49466666D01*
X57281009Y-49466666D02*
X57804819Y-49466666D01*
X57281009Y-49466666D02*
X57185771Y-49419047D01*
X57185771Y-49419047D02*
X57138152Y-49323809D01*
X57138152Y-49323809D02*
X57138152Y-49180952D01*
X57138152Y-49180952D02*
X57185771Y-49085713D01*
X57185771Y-49085713D02*
X57281009Y-49038094D01*
X57281009Y-49038094D02*
X57804819Y-49038094D01*
X57804819Y-48561904D02*
X57138152Y-48561904D01*
X56804819Y-48561904D02*
X56852438Y-48609523D01*
X56852438Y-48609523D02*
X56900057Y-48561904D01*
X56900057Y-48561904D02*
X56852438Y-48514285D01*
X56852438Y-48514285D02*
X56804819Y-48561904D01*
X56804819Y-48561904D02*
X56900057Y-48561904D01*
X57138152Y-48085714D02*
X57804819Y-48085714D01*
X57233390Y-48085714D02*
X57185771Y-48038095D01*
X57185771Y-48038095D02*
X57138152Y-47942857D01*
X57138152Y-47942857D02*
X57138152Y-47800000D01*
X57138152Y-47800000D02*
X57185771Y-47704762D01*
X57185771Y-47704762D02*
X57281009Y-47657143D01*
X57281009Y-47657143D02*
X57804819Y-47657143D01*
X57138152Y-46752381D02*
X57947676Y-46752381D01*
X57947676Y-46752381D02*
X58042914Y-46800000D01*
X58042914Y-46800000D02*
X58090533Y-46847619D01*
X58090533Y-46847619D02*
X58138152Y-46942857D01*
X58138152Y-46942857D02*
X58138152Y-47085714D01*
X58138152Y-47085714D02*
X58090533Y-47180952D01*
X57757200Y-46752381D02*
X57804819Y-46847619D01*
X57804819Y-46847619D02*
X57804819Y-47038095D01*
X57804819Y-47038095D02*
X57757200Y-47133333D01*
X57757200Y-47133333D02*
X57709580Y-47180952D01*
X57709580Y-47180952D02*
X57614342Y-47228571D01*
X57614342Y-47228571D02*
X57328628Y-47228571D01*
X57328628Y-47228571D02*
X57233390Y-47180952D01*
X57233390Y-47180952D02*
X57185771Y-47133333D01*
X57185771Y-47133333D02*
X57138152Y-47038095D01*
X57138152Y-47038095D02*
X57138152Y-46847619D01*
X57138152Y-46847619D02*
X57185771Y-46752381D01*
X57804819Y-45752381D02*
X57804819Y-46323809D01*
X57804819Y-46038095D02*
X56804819Y-46038095D01*
X56804819Y-46038095D02*
X56947676Y-46133333D01*
X56947676Y-46133333D02*
X57042914Y-46228571D01*
X57042914Y-46228571D02*
X57090533Y-46323809D01*
X86571009Y-65329047D02*
X86618628Y-65186190D01*
X86618628Y-65186190D02*
X86666247Y-65138571D01*
X86666247Y-65138571D02*
X86761485Y-65090952D01*
X86761485Y-65090952D02*
X86904342Y-65090952D01*
X86904342Y-65090952D02*
X86999580Y-65138571D01*
X86999580Y-65138571D02*
X87047200Y-65186190D01*
X87047200Y-65186190D02*
X87094819Y-65281428D01*
X87094819Y-65281428D02*
X87094819Y-65662380D01*
X87094819Y-65662380D02*
X86094819Y-65662380D01*
X86094819Y-65662380D02*
X86094819Y-65329047D01*
X86094819Y-65329047D02*
X86142438Y-65233809D01*
X86142438Y-65233809D02*
X86190057Y-65186190D01*
X86190057Y-65186190D02*
X86285295Y-65138571D01*
X86285295Y-65138571D02*
X86380533Y-65138571D01*
X86380533Y-65138571D02*
X86475771Y-65186190D01*
X86475771Y-65186190D02*
X86523390Y-65233809D01*
X86523390Y-65233809D02*
X86571009Y-65329047D01*
X86571009Y-65329047D02*
X86571009Y-65662380D01*
X87047200Y-64281428D02*
X87094819Y-64376666D01*
X87094819Y-64376666D02*
X87094819Y-64567142D01*
X87094819Y-64567142D02*
X87047200Y-64662380D01*
X87047200Y-64662380D02*
X86951961Y-64709999D01*
X86951961Y-64709999D02*
X86571009Y-64709999D01*
X86571009Y-64709999D02*
X86475771Y-64662380D01*
X86475771Y-64662380D02*
X86428152Y-64567142D01*
X86428152Y-64567142D02*
X86428152Y-64376666D01*
X86428152Y-64376666D02*
X86475771Y-64281428D01*
X86475771Y-64281428D02*
X86571009Y-64233809D01*
X86571009Y-64233809D02*
X86666247Y-64233809D01*
X86666247Y-64233809D02*
X86761485Y-64709999D01*
X87094819Y-63805237D02*
X86094819Y-63805237D01*
X87094819Y-63376666D02*
X86571009Y-63376666D01*
X86571009Y-63376666D02*
X86475771Y-63424285D01*
X86475771Y-63424285D02*
X86428152Y-63519523D01*
X86428152Y-63519523D02*
X86428152Y-63662380D01*
X86428152Y-63662380D02*
X86475771Y-63757618D01*
X86475771Y-63757618D02*
X86523390Y-63805237D01*
X87094819Y-62471904D02*
X86571009Y-62471904D01*
X86571009Y-62471904D02*
X86475771Y-62519523D01*
X86475771Y-62519523D02*
X86428152Y-62614761D01*
X86428152Y-62614761D02*
X86428152Y-62805237D01*
X86428152Y-62805237D02*
X86475771Y-62900475D01*
X87047200Y-62471904D02*
X87094819Y-62567142D01*
X87094819Y-62567142D02*
X87094819Y-62805237D01*
X87094819Y-62805237D02*
X87047200Y-62900475D01*
X87047200Y-62900475D02*
X86951961Y-62948094D01*
X86951961Y-62948094D02*
X86856723Y-62948094D01*
X86856723Y-62948094D02*
X86761485Y-62900475D01*
X86761485Y-62900475D02*
X86713866Y-62805237D01*
X86713866Y-62805237D02*
X86713866Y-62567142D01*
X86713866Y-62567142D02*
X86666247Y-62471904D01*
X86428152Y-62090951D02*
X87094819Y-61852856D01*
X87094819Y-61852856D02*
X86428152Y-61614761D01*
X87094819Y-61233808D02*
X86428152Y-61233808D01*
X86094819Y-61233808D02*
X86142438Y-61281427D01*
X86142438Y-61281427D02*
X86190057Y-61233808D01*
X86190057Y-61233808D02*
X86142438Y-61186189D01*
X86142438Y-61186189D02*
X86094819Y-61233808D01*
X86094819Y-61233808D02*
X86190057Y-61233808D01*
X87094819Y-60614761D02*
X87047200Y-60709999D01*
X87047200Y-60709999D02*
X86999580Y-60757618D01*
X86999580Y-60757618D02*
X86904342Y-60805237D01*
X86904342Y-60805237D02*
X86618628Y-60805237D01*
X86618628Y-60805237D02*
X86523390Y-60757618D01*
X86523390Y-60757618D02*
X86475771Y-60709999D01*
X86475771Y-60709999D02*
X86428152Y-60614761D01*
X86428152Y-60614761D02*
X86428152Y-60471904D01*
X86428152Y-60471904D02*
X86475771Y-60376666D01*
X86475771Y-60376666D02*
X86523390Y-60329047D01*
X86523390Y-60329047D02*
X86618628Y-60281428D01*
X86618628Y-60281428D02*
X86904342Y-60281428D01*
X86904342Y-60281428D02*
X86999580Y-60329047D01*
X86999580Y-60329047D02*
X87047200Y-60376666D01*
X87047200Y-60376666D02*
X87094819Y-60471904D01*
X87094819Y-60471904D02*
X87094819Y-60614761D01*
X87094819Y-59852856D02*
X86428152Y-59852856D01*
X86618628Y-59852856D02*
X86523390Y-59805237D01*
X86523390Y-59805237D02*
X86475771Y-59757618D01*
X86475771Y-59757618D02*
X86428152Y-59662380D01*
X86428152Y-59662380D02*
X86428152Y-59567142D01*
X86094819Y-59329046D02*
X86094819Y-58709999D01*
X86094819Y-58709999D02*
X86475771Y-59043332D01*
X86475771Y-59043332D02*
X86475771Y-58900475D01*
X86475771Y-58900475D02*
X86523390Y-58805237D01*
X86523390Y-58805237D02*
X86571009Y-58757618D01*
X86571009Y-58757618D02*
X86666247Y-58709999D01*
X86666247Y-58709999D02*
X86904342Y-58709999D01*
X86904342Y-58709999D02*
X86999580Y-58757618D01*
X86999580Y-58757618D02*
X87047200Y-58805237D01*
X87047200Y-58805237D02*
X87094819Y-58900475D01*
X87094819Y-58900475D02*
X87094819Y-59186189D01*
X87094819Y-59186189D02*
X87047200Y-59281427D01*
X87047200Y-59281427D02*
X86999580Y-59329046D01*
X37920819Y-44346666D02*
X37444628Y-44679999D01*
X37920819Y-44918094D02*
X36920819Y-44918094D01*
X36920819Y-44918094D02*
X36920819Y-44537142D01*
X36920819Y-44537142D02*
X36968438Y-44441904D01*
X36968438Y-44441904D02*
X37016057Y-44394285D01*
X37016057Y-44394285D02*
X37111295Y-44346666D01*
X37111295Y-44346666D02*
X37254152Y-44346666D01*
X37254152Y-44346666D02*
X37349390Y-44394285D01*
X37349390Y-44394285D02*
X37397009Y-44441904D01*
X37397009Y-44441904D02*
X37444628Y-44537142D01*
X37444628Y-44537142D02*
X37444628Y-44918094D01*
X37016057Y-43965713D02*
X36968438Y-43918094D01*
X36968438Y-43918094D02*
X36920819Y-43822856D01*
X36920819Y-43822856D02*
X36920819Y-43584761D01*
X36920819Y-43584761D02*
X36968438Y-43489523D01*
X36968438Y-43489523D02*
X37016057Y-43441904D01*
X37016057Y-43441904D02*
X37111295Y-43394285D01*
X37111295Y-43394285D02*
X37206533Y-43394285D01*
X37206533Y-43394285D02*
X37349390Y-43441904D01*
X37349390Y-43441904D02*
X37920819Y-44013332D01*
X37920819Y-44013332D02*
X37920819Y-43394285D01*
X46508095Y-83064819D02*
X46508095Y-83874342D01*
X46508095Y-83874342D02*
X46555714Y-83969580D01*
X46555714Y-83969580D02*
X46603333Y-84017200D01*
X46603333Y-84017200D02*
X46698571Y-84064819D01*
X46698571Y-84064819D02*
X46889047Y-84064819D01*
X46889047Y-84064819D02*
X46984285Y-84017200D01*
X46984285Y-84017200D02*
X47031904Y-83969580D01*
X47031904Y-83969580D02*
X47079523Y-83874342D01*
X47079523Y-83874342D02*
X47079523Y-83064819D01*
X47698571Y-83493390D02*
X47603333Y-83445771D01*
X47603333Y-83445771D02*
X47555714Y-83398152D01*
X47555714Y-83398152D02*
X47508095Y-83302914D01*
X47508095Y-83302914D02*
X47508095Y-83255295D01*
X47508095Y-83255295D02*
X47555714Y-83160057D01*
X47555714Y-83160057D02*
X47603333Y-83112438D01*
X47603333Y-83112438D02*
X47698571Y-83064819D01*
X47698571Y-83064819D02*
X47889047Y-83064819D01*
X47889047Y-83064819D02*
X47984285Y-83112438D01*
X47984285Y-83112438D02*
X48031904Y-83160057D01*
X48031904Y-83160057D02*
X48079523Y-83255295D01*
X48079523Y-83255295D02*
X48079523Y-83302914D01*
X48079523Y-83302914D02*
X48031904Y-83398152D01*
X48031904Y-83398152D02*
X47984285Y-83445771D01*
X47984285Y-83445771D02*
X47889047Y-83493390D01*
X47889047Y-83493390D02*
X47698571Y-83493390D01*
X47698571Y-83493390D02*
X47603333Y-83541009D01*
X47603333Y-83541009D02*
X47555714Y-83588628D01*
X47555714Y-83588628D02*
X47508095Y-83683866D01*
X47508095Y-83683866D02*
X47508095Y-83874342D01*
X47508095Y-83874342D02*
X47555714Y-83969580D01*
X47555714Y-83969580D02*
X47603333Y-84017200D01*
X47603333Y-84017200D02*
X47698571Y-84064819D01*
X47698571Y-84064819D02*
X47889047Y-84064819D01*
X47889047Y-84064819D02*
X47984285Y-84017200D01*
X47984285Y-84017200D02*
X48031904Y-83969580D01*
X48031904Y-83969580D02*
X48079523Y-83874342D01*
X48079523Y-83874342D02*
X48079523Y-83683866D01*
X48079523Y-83683866D02*
X48031904Y-83588628D01*
X48031904Y-83588628D02*
X47984285Y-83541009D01*
X47984285Y-83541009D02*
X47889047Y-83493390D01*
X86571009Y-34849047D02*
X86618628Y-34706190D01*
X86618628Y-34706190D02*
X86666247Y-34658571D01*
X86666247Y-34658571D02*
X86761485Y-34610952D01*
X86761485Y-34610952D02*
X86904342Y-34610952D01*
X86904342Y-34610952D02*
X86999580Y-34658571D01*
X86999580Y-34658571D02*
X87047200Y-34706190D01*
X87047200Y-34706190D02*
X87094819Y-34801428D01*
X87094819Y-34801428D02*
X87094819Y-35182380D01*
X87094819Y-35182380D02*
X86094819Y-35182380D01*
X86094819Y-35182380D02*
X86094819Y-34849047D01*
X86094819Y-34849047D02*
X86142438Y-34753809D01*
X86142438Y-34753809D02*
X86190057Y-34706190D01*
X86190057Y-34706190D02*
X86285295Y-34658571D01*
X86285295Y-34658571D02*
X86380533Y-34658571D01*
X86380533Y-34658571D02*
X86475771Y-34706190D01*
X86475771Y-34706190D02*
X86523390Y-34753809D01*
X86523390Y-34753809D02*
X86571009Y-34849047D01*
X86571009Y-34849047D02*
X86571009Y-35182380D01*
X87047200Y-33801428D02*
X87094819Y-33896666D01*
X87094819Y-33896666D02*
X87094819Y-34087142D01*
X87094819Y-34087142D02*
X87047200Y-34182380D01*
X87047200Y-34182380D02*
X86951961Y-34229999D01*
X86951961Y-34229999D02*
X86571009Y-34229999D01*
X86571009Y-34229999D02*
X86475771Y-34182380D01*
X86475771Y-34182380D02*
X86428152Y-34087142D01*
X86428152Y-34087142D02*
X86428152Y-33896666D01*
X86428152Y-33896666D02*
X86475771Y-33801428D01*
X86475771Y-33801428D02*
X86571009Y-33753809D01*
X86571009Y-33753809D02*
X86666247Y-33753809D01*
X86666247Y-33753809D02*
X86761485Y-34229999D01*
X87094819Y-33325237D02*
X86094819Y-33325237D01*
X87094819Y-32896666D02*
X86571009Y-32896666D01*
X86571009Y-32896666D02*
X86475771Y-32944285D01*
X86475771Y-32944285D02*
X86428152Y-33039523D01*
X86428152Y-33039523D02*
X86428152Y-33182380D01*
X86428152Y-33182380D02*
X86475771Y-33277618D01*
X86475771Y-33277618D02*
X86523390Y-33325237D01*
X87094819Y-31991904D02*
X86571009Y-31991904D01*
X86571009Y-31991904D02*
X86475771Y-32039523D01*
X86475771Y-32039523D02*
X86428152Y-32134761D01*
X86428152Y-32134761D02*
X86428152Y-32325237D01*
X86428152Y-32325237D02*
X86475771Y-32420475D01*
X87047200Y-31991904D02*
X87094819Y-32087142D01*
X87094819Y-32087142D02*
X87094819Y-32325237D01*
X87094819Y-32325237D02*
X87047200Y-32420475D01*
X87047200Y-32420475D02*
X86951961Y-32468094D01*
X86951961Y-32468094D02*
X86856723Y-32468094D01*
X86856723Y-32468094D02*
X86761485Y-32420475D01*
X86761485Y-32420475D02*
X86713866Y-32325237D01*
X86713866Y-32325237D02*
X86713866Y-32087142D01*
X86713866Y-32087142D02*
X86666247Y-31991904D01*
X86428152Y-31610951D02*
X87094819Y-31372856D01*
X87094819Y-31372856D02*
X86428152Y-31134761D01*
X87094819Y-30753808D02*
X86428152Y-30753808D01*
X86094819Y-30753808D02*
X86142438Y-30801427D01*
X86142438Y-30801427D02*
X86190057Y-30753808D01*
X86190057Y-30753808D02*
X86142438Y-30706189D01*
X86142438Y-30706189D02*
X86094819Y-30753808D01*
X86094819Y-30753808D02*
X86190057Y-30753808D01*
X87094819Y-30134761D02*
X87047200Y-30229999D01*
X87047200Y-30229999D02*
X86999580Y-30277618D01*
X86999580Y-30277618D02*
X86904342Y-30325237D01*
X86904342Y-30325237D02*
X86618628Y-30325237D01*
X86618628Y-30325237D02*
X86523390Y-30277618D01*
X86523390Y-30277618D02*
X86475771Y-30229999D01*
X86475771Y-30229999D02*
X86428152Y-30134761D01*
X86428152Y-30134761D02*
X86428152Y-29991904D01*
X86428152Y-29991904D02*
X86475771Y-29896666D01*
X86475771Y-29896666D02*
X86523390Y-29849047D01*
X86523390Y-29849047D02*
X86618628Y-29801428D01*
X86618628Y-29801428D02*
X86904342Y-29801428D01*
X86904342Y-29801428D02*
X86999580Y-29849047D01*
X86999580Y-29849047D02*
X87047200Y-29896666D01*
X87047200Y-29896666D02*
X87094819Y-29991904D01*
X87094819Y-29991904D02*
X87094819Y-30134761D01*
X87094819Y-29372856D02*
X86428152Y-29372856D01*
X86618628Y-29372856D02*
X86523390Y-29325237D01*
X86523390Y-29325237D02*
X86475771Y-29277618D01*
X86475771Y-29277618D02*
X86428152Y-29182380D01*
X86428152Y-29182380D02*
X86428152Y-29087142D01*
X86094819Y-28325237D02*
X86094819Y-28515713D01*
X86094819Y-28515713D02*
X86142438Y-28610951D01*
X86142438Y-28610951D02*
X86190057Y-28658570D01*
X86190057Y-28658570D02*
X86332914Y-28753808D01*
X86332914Y-28753808D02*
X86523390Y-28801427D01*
X86523390Y-28801427D02*
X86904342Y-28801427D01*
X86904342Y-28801427D02*
X86999580Y-28753808D01*
X86999580Y-28753808D02*
X87047200Y-28706189D01*
X87047200Y-28706189D02*
X87094819Y-28610951D01*
X87094819Y-28610951D02*
X87094819Y-28420475D01*
X87094819Y-28420475D02*
X87047200Y-28325237D01*
X87047200Y-28325237D02*
X86999580Y-28277618D01*
X86999580Y-28277618D02*
X86904342Y-28229999D01*
X86904342Y-28229999D02*
X86666247Y-28229999D01*
X86666247Y-28229999D02*
X86571009Y-28277618D01*
X86571009Y-28277618D02*
X86523390Y-28325237D01*
X86523390Y-28325237D02*
X86475771Y-28420475D01*
X86475771Y-28420475D02*
X86475771Y-28610951D01*
X86475771Y-28610951D02*
X86523390Y-28706189D01*
X86523390Y-28706189D02*
X86571009Y-28753808D01*
X86571009Y-28753808D02*
X86666247Y-28801427D01*
D11*
%TO.C,R6*%
X30252936Y-68255000D02*
X30707064Y-68255000D01*
X30252936Y-69725000D02*
X30707064Y-69725000D01*
%TO.C,C2*%
X36276233Y-65530000D02*
X36568767Y-65530000D01*
X36276233Y-66550000D02*
X36568767Y-66550000D01*
%TO.C,U7*%
X47220000Y-95480000D02*
X47220000Y-91480000D01*
X44220000Y-95480000D02*
X44220000Y-92480000D01*
%TO.C,Brain_555*%
X60960000Y-38080000D02*
X57510000Y-38080000D01*
X60960000Y-38080000D02*
X62910000Y-38080000D01*
X60960000Y-43200000D02*
X59010000Y-43200000D01*
X60960000Y-43200000D02*
X62910000Y-43200000D01*
%TO.C,Behavior2*%
X85550000Y-68510000D02*
X85550000Y-76230000D01*
X84330000Y-68510000D02*
X84330000Y-69730000D01*
X77130000Y-68510000D02*
X85550000Y-68510000D01*
X84330000Y-69730000D02*
X79330000Y-69730000D01*
X80330000Y-69730000D02*
X80330000Y-75010000D01*
X79330000Y-69730000D02*
X79330000Y-68510000D01*
X79330000Y-69730000D02*
X77130000Y-69730000D01*
X77130000Y-69730000D02*
X77130000Y-68510000D01*
X83750000Y-70800000D02*
X83830000Y-71120000D01*
X80330000Y-70800000D02*
X83750000Y-70800000D01*
X76640000Y-70820000D02*
X76640000Y-71420000D01*
X83830000Y-71120000D02*
X83750000Y-71440000D01*
X80330000Y-71120000D02*
X80330000Y-70800000D01*
X77240000Y-71120000D02*
X76640000Y-70820000D01*
X76640000Y-71420000D02*
X77240000Y-71120000D01*
X83750000Y-71440000D02*
X80330000Y-71440000D01*
X80330000Y-71440000D02*
X80330000Y-71120000D01*
X79330000Y-72290000D02*
X79330000Y-72450000D01*
X83750000Y-73300000D02*
X83830000Y-73620000D01*
X80330000Y-73300000D02*
X83750000Y-73300000D01*
X83830000Y-73620000D02*
X83750000Y-73940000D01*
X80330000Y-73620000D02*
X80330000Y-73300000D01*
X83750000Y-73940000D02*
X80330000Y-73940000D01*
X80330000Y-73940000D02*
X80330000Y-73620000D01*
X84330000Y-75010000D02*
X79330000Y-75010000D01*
X79330000Y-75010000D02*
X79330000Y-76230000D01*
X77130000Y-75010000D02*
X79330000Y-75010000D01*
X85550000Y-76230000D02*
X77130000Y-76230000D01*
X84330000Y-76230000D02*
X84330000Y-75010000D01*
X77130000Y-76230000D02*
X77130000Y-75010000D01*
%TO.C,Strobe_Timing1*%
X58479000Y-111800000D02*
X59509000Y-111800000D01*
X58479000Y-111800000D02*
X58479000Y-101560000D01*
X62491000Y-111800000D02*
X64510000Y-111800000D01*
X67490000Y-111800000D02*
X68520000Y-111800000D01*
X68520000Y-111800000D02*
X68520000Y-101560000D01*
X58479000Y-101560000D02*
X62010000Y-101560000D01*
X64990000Y-101560000D02*
X68520000Y-101560000D01*
%TO.C,SW1*%
X30370000Y-73540000D02*
X30370000Y-74923000D01*
X30370000Y-73540000D02*
X31754000Y-73540000D01*
X30610000Y-73780000D02*
X30610000Y-75400000D01*
X30610000Y-73780000D02*
X40510000Y-73780000D01*
X30610000Y-77000000D02*
X30610000Y-77940000D01*
X30610000Y-79540000D02*
X30610000Y-80480000D01*
X30610000Y-82080000D02*
X30610000Y-83700000D01*
X30610000Y-83700000D02*
X40510000Y-83700000D01*
X33530000Y-75565000D02*
X33530000Y-76835000D01*
X33530000Y-75685000D02*
X34883333Y-75685000D01*
X33530000Y-75805000D02*
X34883333Y-75805000D01*
X33530000Y-75925000D02*
X34883333Y-75925000D01*
X33530000Y-76045000D02*
X34883333Y-76045000D01*
X33530000Y-76165000D02*
X34883333Y-76165000D01*
X33530000Y-76285000D02*
X34883333Y-76285000D01*
X33530000Y-76405000D02*
X34883333Y-76405000D01*
X33530000Y-76525000D02*
X34883333Y-76525000D01*
X33530000Y-76645000D02*
X34883333Y-76645000D01*
X33530000Y-76765000D02*
X34883333Y-76765000D01*
X33530000Y-76835000D02*
X37590000Y-76835000D01*
X33530000Y-78105000D02*
X33530000Y-79375000D01*
X33530000Y-78225000D02*
X34883333Y-78225000D01*
X33530000Y-78345000D02*
X34883333Y-78345000D01*
X33530000Y-78465000D02*
X34883333Y-78465000D01*
X33530000Y-78585000D02*
X34883333Y-78585000D01*
X33530000Y-78705000D02*
X34883333Y-78705000D01*
X33530000Y-78825000D02*
X34883333Y-78825000D01*
X33530000Y-78945000D02*
X34883333Y-78945000D01*
X33530000Y-79065000D02*
X34883333Y-79065000D01*
X33530000Y-79185000D02*
X34883333Y-79185000D01*
X33530000Y-79305000D02*
X34883333Y-79305000D01*
X33530000Y-79375000D02*
X37590000Y-79375000D01*
X33530000Y-80645000D02*
X33530000Y-81915000D01*
X33530000Y-80765000D02*
X34883333Y-80765000D01*
X33530000Y-80885000D02*
X34883333Y-80885000D01*
X33530000Y-81005000D02*
X34883333Y-81005000D01*
X33530000Y-81125000D02*
X34883333Y-81125000D01*
X33530000Y-81245000D02*
X34883333Y-81245000D01*
X33530000Y-81365000D02*
X34883333Y-81365000D01*
X33530000Y-81485000D02*
X34883333Y-81485000D01*
X33530000Y-81605000D02*
X34883333Y-81605000D01*
X33530000Y-81725000D02*
X34883333Y-81725000D01*
X33530000Y-81845000D02*
X34883333Y-81845000D01*
X33530000Y-81915000D02*
X37590000Y-81915000D01*
X34883333Y-75565000D02*
X34883333Y-76835000D01*
X34883333Y-78105000D02*
X34883333Y-79375000D01*
X34883333Y-80645000D02*
X34883333Y-81915000D01*
X37590000Y-75565000D02*
X33530000Y-75565000D01*
X37590000Y-76835000D02*
X37590000Y-75565000D01*
X37590000Y-78105000D02*
X33530000Y-78105000D01*
X37590000Y-79375000D02*
X37590000Y-78105000D01*
X37590000Y-80645000D02*
X33530000Y-80645000D01*
X37590000Y-81915000D02*
X37590000Y-80645000D01*
X40510000Y-73780000D02*
X40510000Y-75400000D01*
X40510000Y-77000000D02*
X40510000Y-77940000D01*
X40510000Y-79540000D02*
X40510000Y-80480000D01*
X40510000Y-82080000D02*
X40510000Y-83700000D01*
%TO.C,U1*%
X45720000Y-65970000D02*
X42120000Y-65970000D01*
X45720000Y-65970000D02*
X47920000Y-65970000D01*
X45720000Y-71190000D02*
X43520000Y-71190000D01*
X45720000Y-71190000D02*
X47920000Y-71190000D01*
%TO.C,C1*%
X36276233Y-63020000D02*
X36568767Y-63020000D01*
X36276233Y-64040000D02*
X36568767Y-64040000D01*
%TO.C,R4*%
X41952936Y-62765000D02*
X42407064Y-62765000D01*
X41952936Y-64235000D02*
X42407064Y-64235000D01*
%TO.C,Strobing2*%
X85557500Y-107392000D02*
X85557500Y-115112000D01*
X84337500Y-107392000D02*
X84337500Y-108612000D01*
X77137500Y-107392000D02*
X85557500Y-107392000D01*
X84337500Y-108612000D02*
X79337500Y-108612000D01*
X80337500Y-108612000D02*
X80337500Y-113892000D01*
X79337500Y-108612000D02*
X79337500Y-107392000D01*
X79337500Y-108612000D02*
X77137500Y-108612000D01*
X77137500Y-108612000D02*
X77137500Y-107392000D01*
X83757500Y-109682000D02*
X83837500Y-110002000D01*
X80337500Y-109682000D02*
X83757500Y-109682000D01*
X76647500Y-109702000D02*
X76647500Y-110302000D01*
X83837500Y-110002000D02*
X83757500Y-110322000D01*
X80337500Y-110002000D02*
X80337500Y-109682000D01*
X77247500Y-110002000D02*
X76647500Y-109702000D01*
X76647500Y-110302000D02*
X77247500Y-110002000D01*
X83757500Y-110322000D02*
X80337500Y-110322000D01*
X80337500Y-110322000D02*
X80337500Y-110002000D01*
X79337500Y-111172000D02*
X79337500Y-111332000D01*
X83757500Y-112182000D02*
X83837500Y-112502000D01*
X80337500Y-112182000D02*
X83757500Y-112182000D01*
X83837500Y-112502000D02*
X83757500Y-112822000D01*
X80337500Y-112502000D02*
X80337500Y-112182000D01*
X83757500Y-112822000D02*
X80337500Y-112822000D01*
X80337500Y-112822000D02*
X80337500Y-112502000D01*
X84337500Y-113892000D02*
X79337500Y-113892000D01*
X79337500Y-113892000D02*
X79337500Y-115112000D01*
X77137500Y-113892000D02*
X79337500Y-113892000D01*
X85557500Y-115112000D02*
X77137500Y-115112000D01*
X84337500Y-115112000D02*
X84337500Y-113892000D01*
X77137500Y-115112000D02*
X77137500Y-113892000D01*
%TO.C,U9*%
X53460000Y-37024000D02*
X43060000Y-37024000D01*
X43060000Y-37024000D02*
X43060000Y-47304000D01*
X53400000Y-39514000D02*
X43120000Y-39514000D01*
X43120000Y-39514000D02*
X43120000Y-44814000D01*
X53400000Y-41164000D02*
X53400000Y-39514000D01*
X53400000Y-44814000D02*
X53400000Y-43164000D01*
X43120000Y-44814000D02*
X53400000Y-44814000D01*
X53460000Y-47304000D02*
X53460000Y-37024000D01*
X43060000Y-47304000D02*
X53460000Y-47304000D01*
X53400000Y-41164000D02*
G75*
G03*
X53400000Y-43164000I0J-1000000D01*
G01*
%TO.C,WidthControlSignal1*%
X34090000Y-45390000D02*
X32840000Y-45390000D01*
X33790000Y-45690000D02*
X27170000Y-45690000D01*
X30480000Y-45690000D02*
X30480000Y-46700000D01*
X27170000Y-45690000D02*
X27170000Y-55910000D01*
X34090000Y-46640000D02*
X34090000Y-45390000D01*
X32180000Y-46700000D02*
X32180000Y-54900000D01*
X29880000Y-46700000D02*
X32180000Y-46700000D01*
X33790000Y-48400000D02*
X33790000Y-45690000D01*
X32790000Y-48400000D02*
X33790000Y-48400000D01*
X33390000Y-50000000D02*
X32790000Y-50000000D01*
X32790000Y-50000000D02*
X32790000Y-48400000D01*
X33390000Y-51600000D02*
X33390000Y-50000000D01*
X32790000Y-51600000D02*
X33390000Y-51600000D01*
X33790000Y-53200000D02*
X32790000Y-53200000D01*
X32790000Y-53200000D02*
X32790000Y-51600000D01*
X32180000Y-54900000D02*
X27880000Y-54900000D01*
X27880000Y-54900000D02*
X27880000Y-46700000D01*
X33790000Y-55910000D02*
X33790000Y-53200000D01*
X30480000Y-55910000D02*
X30480000Y-54900000D01*
X27170000Y-55910000D02*
X33790000Y-55910000D01*
%TO.C,Behav_Timing_C1*%
X72030000Y-75488748D02*
X72030000Y-76911252D01*
X70210000Y-75488748D02*
X70210000Y-76911252D01*
%TO.C,Brain1*%
X85550000Y-88830000D02*
X85550000Y-96550000D01*
X84330000Y-88830000D02*
X84330000Y-90050000D01*
X77130000Y-88830000D02*
X85550000Y-88830000D01*
X84330000Y-90050000D02*
X79330000Y-90050000D01*
X80330000Y-90050000D02*
X80330000Y-95330000D01*
X79330000Y-90050000D02*
X79330000Y-88830000D01*
X79330000Y-90050000D02*
X77130000Y-90050000D01*
X77130000Y-90050000D02*
X77130000Y-88830000D01*
X83750000Y-91120000D02*
X83830000Y-91440000D01*
X80330000Y-91120000D02*
X83750000Y-91120000D01*
X76640000Y-91140000D02*
X76640000Y-91740000D01*
X83830000Y-91440000D02*
X83750000Y-91760000D01*
X80330000Y-91440000D02*
X80330000Y-91120000D01*
X77240000Y-91440000D02*
X76640000Y-91140000D01*
X76640000Y-91740000D02*
X77240000Y-91440000D01*
X83750000Y-91760000D02*
X80330000Y-91760000D01*
X80330000Y-91760000D02*
X80330000Y-91440000D01*
X79330000Y-92610000D02*
X79330000Y-92770000D01*
X83750000Y-93620000D02*
X83830000Y-93940000D01*
X80330000Y-93620000D02*
X83750000Y-93620000D01*
X83830000Y-93940000D02*
X83750000Y-94260000D01*
X80330000Y-93940000D02*
X80330000Y-93620000D01*
X83750000Y-94260000D02*
X80330000Y-94260000D01*
X80330000Y-94260000D02*
X80330000Y-93940000D01*
X84330000Y-95330000D02*
X79330000Y-95330000D01*
X79330000Y-95330000D02*
X79330000Y-96550000D01*
X77130000Y-95330000D02*
X79330000Y-95330000D01*
X85550000Y-96550000D02*
X77130000Y-96550000D01*
X84330000Y-96550000D02*
X84330000Y-95330000D01*
X77130000Y-96550000D02*
X77130000Y-95330000D01*
%TO.C,Behavior1*%
X85550000Y-78670000D02*
X85550000Y-86390000D01*
X84330000Y-78670000D02*
X84330000Y-79890000D01*
X77130000Y-78670000D02*
X85550000Y-78670000D01*
X84330000Y-79890000D02*
X79330000Y-79890000D01*
X80330000Y-79890000D02*
X80330000Y-85170000D01*
X79330000Y-79890000D02*
X79330000Y-78670000D01*
X79330000Y-79890000D02*
X77130000Y-79890000D01*
X77130000Y-79890000D02*
X77130000Y-78670000D01*
X83750000Y-80960000D02*
X83830000Y-81280000D01*
X80330000Y-80960000D02*
X83750000Y-80960000D01*
X76640000Y-80980000D02*
X76640000Y-81580000D01*
X83830000Y-81280000D02*
X83750000Y-81600000D01*
X80330000Y-81280000D02*
X80330000Y-80960000D01*
X77240000Y-81280000D02*
X76640000Y-80980000D01*
X76640000Y-81580000D02*
X77240000Y-81280000D01*
X83750000Y-81600000D02*
X80330000Y-81600000D01*
X80330000Y-81600000D02*
X80330000Y-81280000D01*
X79330000Y-82450000D02*
X79330000Y-82610000D01*
X83750000Y-83460000D02*
X83830000Y-83780000D01*
X80330000Y-83460000D02*
X83750000Y-83460000D01*
X83830000Y-83780000D02*
X83750000Y-84100000D01*
X80330000Y-83780000D02*
X80330000Y-83460000D01*
X83750000Y-84100000D02*
X80330000Y-84100000D01*
X80330000Y-84100000D02*
X80330000Y-83780000D01*
X84330000Y-85170000D02*
X79330000Y-85170000D01*
X79330000Y-85170000D02*
X79330000Y-86390000D01*
X77130000Y-85170000D02*
X79330000Y-85170000D01*
X85550000Y-86390000D02*
X77130000Y-86390000D01*
X84330000Y-86390000D02*
X84330000Y-85170000D01*
X77130000Y-86390000D02*
X77130000Y-85170000D01*
%TO.C,R1*%
X30252936Y-62355000D02*
X30707064Y-62355000D01*
X30252936Y-63825000D02*
X30707064Y-63825000D01*
%TO.C,Power_In1*%
X34090000Y-27610000D02*
X32840000Y-27610000D01*
X33790000Y-27910000D02*
X27170000Y-27910000D01*
X30480000Y-27910000D02*
X30480000Y-28920000D01*
X27170000Y-27910000D02*
X27170000Y-38130000D01*
X34090000Y-28860000D02*
X34090000Y-27610000D01*
X32180000Y-28920000D02*
X32180000Y-37120000D01*
X29880000Y-28920000D02*
X32180000Y-28920000D01*
X33790000Y-30620000D02*
X33790000Y-27910000D01*
X32790000Y-30620000D02*
X33790000Y-30620000D01*
X33390000Y-32220000D02*
X32790000Y-32220000D01*
X32790000Y-32220000D02*
X32790000Y-30620000D01*
X33390000Y-33820000D02*
X33390000Y-32220000D01*
X32790000Y-33820000D02*
X33390000Y-33820000D01*
X33790000Y-35420000D02*
X32790000Y-35420000D01*
X32790000Y-35420000D02*
X32790000Y-33820000D01*
X32180000Y-37120000D02*
X27880000Y-37120000D01*
X27880000Y-37120000D02*
X27880000Y-28920000D01*
X33790000Y-38130000D02*
X33790000Y-35420000D01*
X30480000Y-38130000D02*
X30480000Y-37120000D01*
X27170000Y-38130000D02*
X33790000Y-38130000D01*
%TO.C,Strobe_555*%
X60895000Y-93960000D02*
X57445000Y-93960000D01*
X60895000Y-93960000D02*
X62845000Y-93960000D01*
X60895000Y-99080000D02*
X58945000Y-99080000D01*
X60895000Y-99080000D02*
X62845000Y-99080000D01*
%TO.C,Behavior4*%
X85550000Y-48190000D02*
X85550000Y-55910000D01*
X84330000Y-48190000D02*
X84330000Y-49410000D01*
X77130000Y-48190000D02*
X85550000Y-48190000D01*
X84330000Y-49410000D02*
X79330000Y-49410000D01*
X80330000Y-49410000D02*
X80330000Y-54690000D01*
X79330000Y-49410000D02*
X79330000Y-48190000D01*
X79330000Y-49410000D02*
X77130000Y-49410000D01*
X77130000Y-49410000D02*
X77130000Y-48190000D01*
X83750000Y-50480000D02*
X83830000Y-50800000D01*
X80330000Y-50480000D02*
X83750000Y-50480000D01*
X76640000Y-50500000D02*
X76640000Y-51100000D01*
X83830000Y-50800000D02*
X83750000Y-51120000D01*
X80330000Y-50800000D02*
X80330000Y-50480000D01*
X77240000Y-50800000D02*
X76640000Y-50500000D01*
X76640000Y-51100000D02*
X77240000Y-50800000D01*
X83750000Y-51120000D02*
X80330000Y-51120000D01*
X80330000Y-51120000D02*
X80330000Y-50800000D01*
X79330000Y-51970000D02*
X79330000Y-52130000D01*
X83750000Y-52980000D02*
X83830000Y-53300000D01*
X80330000Y-52980000D02*
X83750000Y-52980000D01*
X83830000Y-53300000D02*
X83750000Y-53620000D01*
X80330000Y-53300000D02*
X80330000Y-52980000D01*
X83750000Y-53620000D02*
X80330000Y-53620000D01*
X80330000Y-53620000D02*
X80330000Y-53300000D01*
X84330000Y-54690000D02*
X79330000Y-54690000D01*
X79330000Y-54690000D02*
X79330000Y-55910000D01*
X77130000Y-54690000D02*
X79330000Y-54690000D01*
X85550000Y-55910000D02*
X77130000Y-55910000D01*
X84330000Y-55910000D02*
X84330000Y-54690000D01*
X77130000Y-55910000D02*
X77130000Y-54690000D01*
%TO.C,R3*%
X40921000Y-44407064D02*
X40921000Y-43952936D01*
X42391000Y-44407064D02*
X42391000Y-43952936D01*
%TO.C,Brain2*%
X85557500Y-97740000D02*
X85557500Y-105460000D01*
X84337500Y-97740000D02*
X84337500Y-98960000D01*
X77137500Y-97740000D02*
X85557500Y-97740000D01*
X84337500Y-98960000D02*
X79337500Y-98960000D01*
X80337500Y-98960000D02*
X80337500Y-104240000D01*
X79337500Y-98960000D02*
X79337500Y-97740000D01*
X79337500Y-98960000D02*
X77137500Y-98960000D01*
X77137500Y-98960000D02*
X77137500Y-97740000D01*
X83757500Y-100030000D02*
X83837500Y-100350000D01*
X80337500Y-100030000D02*
X83757500Y-100030000D01*
X76647500Y-100050000D02*
X76647500Y-100650000D01*
X83837500Y-100350000D02*
X83757500Y-100670000D01*
X80337500Y-100350000D02*
X80337500Y-100030000D01*
X77247500Y-100350000D02*
X76647500Y-100050000D01*
X76647500Y-100650000D02*
X77247500Y-100350000D01*
X83757500Y-100670000D02*
X80337500Y-100670000D01*
X80337500Y-100670000D02*
X80337500Y-100350000D01*
X79337500Y-101520000D02*
X79337500Y-101680000D01*
X83757500Y-102530000D02*
X83837500Y-102850000D01*
X80337500Y-102530000D02*
X83757500Y-102530000D01*
X83837500Y-102850000D02*
X83757500Y-103170000D01*
X80337500Y-102850000D02*
X80337500Y-102530000D01*
X83757500Y-103170000D02*
X80337500Y-103170000D01*
X80337500Y-103170000D02*
X80337500Y-102850000D01*
X84337500Y-104240000D02*
X79337500Y-104240000D01*
X79337500Y-104240000D02*
X79337500Y-105460000D01*
X77137500Y-104240000D02*
X79337500Y-104240000D01*
X85557500Y-105460000D02*
X77137500Y-105460000D01*
X84337500Y-105460000D02*
X84337500Y-104240000D01*
X77137500Y-105460000D02*
X77137500Y-104240000D01*
%TO.C,Behav_555*%
X60960000Y-66020000D02*
X57510000Y-66020000D01*
X60960000Y-66020000D02*
X62910000Y-66020000D01*
X60960000Y-71140000D02*
X59010000Y-71140000D01*
X60960000Y-71140000D02*
X62910000Y-71140000D01*
%TO.C,Strobe_Timing_C1*%
X72030000Y-103428748D02*
X72030000Y-104851252D01*
X70210000Y-103428748D02*
X70210000Y-104851252D01*
%TO.C,Strobing1*%
X85557500Y-118314000D02*
X85557500Y-126034000D01*
X84337500Y-118314000D02*
X84337500Y-119534000D01*
X77137500Y-118314000D02*
X85557500Y-118314000D01*
X84337500Y-119534000D02*
X79337500Y-119534000D01*
X80337500Y-119534000D02*
X80337500Y-124814000D01*
X79337500Y-119534000D02*
X79337500Y-118314000D01*
X79337500Y-119534000D02*
X77137500Y-119534000D01*
X77137500Y-119534000D02*
X77137500Y-118314000D01*
X83757500Y-120604000D02*
X83837500Y-120924000D01*
X80337500Y-120604000D02*
X83757500Y-120604000D01*
X76647500Y-120624000D02*
X76647500Y-121224000D01*
X83837500Y-120924000D02*
X83757500Y-121244000D01*
X80337500Y-120924000D02*
X80337500Y-120604000D01*
X77247500Y-120924000D02*
X76647500Y-120624000D01*
X76647500Y-121224000D02*
X77247500Y-120924000D01*
X83757500Y-121244000D02*
X80337500Y-121244000D01*
X80337500Y-121244000D02*
X80337500Y-120924000D01*
X79337500Y-122094000D02*
X79337500Y-122254000D01*
X83757500Y-123104000D02*
X83837500Y-123424000D01*
X80337500Y-123104000D02*
X83757500Y-123104000D01*
X83837500Y-123424000D02*
X83757500Y-123744000D01*
X80337500Y-123424000D02*
X80337500Y-123104000D01*
X83757500Y-123744000D02*
X80337500Y-123744000D01*
X80337500Y-123744000D02*
X80337500Y-123424000D01*
X84337500Y-124814000D02*
X79337500Y-124814000D01*
X79337500Y-124814000D02*
X79337500Y-126034000D01*
X77137500Y-124814000D02*
X79337500Y-124814000D01*
X85557500Y-126034000D02*
X77137500Y-126034000D01*
X84337500Y-126034000D02*
X84337500Y-124814000D01*
X77137500Y-126034000D02*
X77137500Y-124814000D01*
%TO.C,Output_Voltage1*%
X38199000Y-58915000D02*
X39229000Y-58915000D01*
X38199000Y-58915000D02*
X38199000Y-48675000D01*
X42211000Y-58915000D02*
X44230000Y-58915000D01*
X47210000Y-58915000D02*
X48240000Y-58915000D01*
X48240000Y-58915000D02*
X48240000Y-48675000D01*
X38199000Y-48675000D02*
X41730000Y-48675000D01*
X44710000Y-48675000D02*
X48240000Y-48675000D01*
%TO.C,Brain_Timing_C1*%
X72030000Y-47548748D02*
X72030000Y-48971252D01*
X70210000Y-47548748D02*
X70210000Y-48971252D01*
%TO.C,Behavior5*%
X85550000Y-38030000D02*
X85550000Y-45750000D01*
X84330000Y-38030000D02*
X84330000Y-39250000D01*
X77130000Y-38030000D02*
X85550000Y-38030000D01*
X84330000Y-39250000D02*
X79330000Y-39250000D01*
X80330000Y-39250000D02*
X80330000Y-44530000D01*
X79330000Y-39250000D02*
X79330000Y-38030000D01*
X79330000Y-39250000D02*
X77130000Y-39250000D01*
X77130000Y-39250000D02*
X77130000Y-38030000D01*
X83750000Y-40320000D02*
X83830000Y-40640000D01*
X80330000Y-40320000D02*
X83750000Y-40320000D01*
X76640000Y-40340000D02*
X76640000Y-40940000D01*
X83830000Y-40640000D02*
X83750000Y-40960000D01*
X80330000Y-40640000D02*
X80330000Y-40320000D01*
X77240000Y-40640000D02*
X76640000Y-40340000D01*
X76640000Y-40940000D02*
X77240000Y-40640000D01*
X83750000Y-40960000D02*
X80330000Y-40960000D01*
X80330000Y-40960000D02*
X80330000Y-40640000D01*
X79330000Y-41810000D02*
X79330000Y-41970000D01*
X83750000Y-42820000D02*
X83830000Y-43140000D01*
X80330000Y-42820000D02*
X83750000Y-42820000D01*
X83830000Y-43140000D02*
X83750000Y-43460000D01*
X80330000Y-43140000D02*
X80330000Y-42820000D01*
X83750000Y-43460000D02*
X80330000Y-43460000D01*
X80330000Y-43460000D02*
X80330000Y-43140000D01*
X84330000Y-44530000D02*
X79330000Y-44530000D01*
X79330000Y-44530000D02*
X79330000Y-45750000D01*
X77130000Y-44530000D02*
X79330000Y-44530000D01*
X85550000Y-45750000D02*
X77130000Y-45750000D01*
X84330000Y-45750000D02*
X84330000Y-44530000D01*
X77130000Y-45750000D02*
X77130000Y-44530000D01*
%TO.C,R5*%
X30252936Y-65305000D02*
X30707064Y-65305000D01*
X30252936Y-66775000D02*
X30707064Y-66775000D01*
%TO.C,C3*%
X36276233Y-68040000D02*
X36568767Y-68040000D01*
X36276233Y-69060000D02*
X36568767Y-69060000D01*
%TO.C,Behav_Timing1*%
X58479000Y-83860000D02*
X59509000Y-83860000D01*
X58479000Y-83860000D02*
X58479000Y-73620000D01*
X62491000Y-83860000D02*
X64510000Y-83860000D01*
X67490000Y-83860000D02*
X68520000Y-83860000D01*
X68520000Y-83860000D02*
X68520000Y-73620000D01*
X58479000Y-73620000D02*
X62010000Y-73620000D01*
X64990000Y-73620000D02*
X68520000Y-73620000D01*
%TO.C,Brain_Timing1*%
X58479000Y-55920000D02*
X59509000Y-55920000D01*
X58479000Y-55920000D02*
X58479000Y-45680000D01*
X62491000Y-55920000D02*
X64510000Y-55920000D01*
X67490000Y-55920000D02*
X68520000Y-55920000D01*
X68520000Y-55920000D02*
X68520000Y-45680000D01*
X58479000Y-45680000D02*
X62010000Y-45680000D01*
X64990000Y-45680000D02*
X68520000Y-45680000D01*
%TO.C,Behavior3*%
X85550000Y-58350000D02*
X85550000Y-66070000D01*
X84330000Y-58350000D02*
X84330000Y-59570000D01*
X77130000Y-58350000D02*
X85550000Y-58350000D01*
X84330000Y-59570000D02*
X79330000Y-59570000D01*
X80330000Y-59570000D02*
X80330000Y-64850000D01*
X79330000Y-59570000D02*
X79330000Y-58350000D01*
X79330000Y-59570000D02*
X77130000Y-59570000D01*
X77130000Y-59570000D02*
X77130000Y-58350000D01*
X83750000Y-60640000D02*
X83830000Y-60960000D01*
X80330000Y-60640000D02*
X83750000Y-60640000D01*
X76640000Y-60660000D02*
X76640000Y-61260000D01*
X83830000Y-60960000D02*
X83750000Y-61280000D01*
X80330000Y-60960000D02*
X80330000Y-60640000D01*
X77240000Y-60960000D02*
X76640000Y-60660000D01*
X76640000Y-61260000D02*
X77240000Y-60960000D01*
X83750000Y-61280000D02*
X80330000Y-61280000D01*
X80330000Y-61280000D02*
X80330000Y-60960000D01*
X79330000Y-62130000D02*
X79330000Y-62290000D01*
X83750000Y-63140000D02*
X83830000Y-63460000D01*
X80330000Y-63140000D02*
X83750000Y-63140000D01*
X83830000Y-63460000D02*
X83750000Y-63780000D01*
X80330000Y-63460000D02*
X80330000Y-63140000D01*
X83750000Y-63780000D02*
X80330000Y-63780000D01*
X80330000Y-63780000D02*
X80330000Y-63460000D01*
X84330000Y-64850000D02*
X79330000Y-64850000D01*
X79330000Y-64850000D02*
X79330000Y-66070000D01*
X77130000Y-64850000D02*
X79330000Y-64850000D01*
X85550000Y-66070000D02*
X77130000Y-66070000D01*
X84330000Y-66070000D02*
X84330000Y-64850000D01*
X77130000Y-66070000D02*
X77130000Y-64850000D01*
%TO.C,R2*%
X38381000Y-44407064D02*
X38381000Y-43952936D01*
X39851000Y-44407064D02*
X39851000Y-43952936D01*
%TO.C,U8*%
X48370000Y-84510000D02*
X45370000Y-84510000D01*
X48370000Y-86710000D02*
X46170000Y-86710000D01*
%TO.C,Behavior6*%
X85550000Y-27870000D02*
X85550000Y-35590000D01*
X84330000Y-27870000D02*
X84330000Y-29090000D01*
X77130000Y-27870000D02*
X85550000Y-27870000D01*
X84330000Y-29090000D02*
X79330000Y-29090000D01*
X80330000Y-29090000D02*
X80330000Y-34370000D01*
X79330000Y-29090000D02*
X79330000Y-27870000D01*
X79330000Y-29090000D02*
X77130000Y-29090000D01*
X77130000Y-29090000D02*
X77130000Y-27870000D01*
X83750000Y-30160000D02*
X83830000Y-30480000D01*
X80330000Y-30160000D02*
X83750000Y-30160000D01*
X76640000Y-30180000D02*
X76640000Y-30780000D01*
X83830000Y-30480000D02*
X83750000Y-30800000D01*
X80330000Y-30480000D02*
X80330000Y-30160000D01*
X77240000Y-30480000D02*
X76640000Y-30180000D01*
X76640000Y-30780000D02*
X77240000Y-30480000D01*
X83750000Y-30800000D02*
X80330000Y-30800000D01*
X80330000Y-30800000D02*
X80330000Y-30480000D01*
X79330000Y-31650000D02*
X79330000Y-31810000D01*
X83750000Y-32660000D02*
X83830000Y-32980000D01*
X80330000Y-32660000D02*
X83750000Y-32660000D01*
X83830000Y-32980000D02*
X83750000Y-33300000D01*
X80330000Y-32980000D02*
X80330000Y-32660000D01*
X83750000Y-33300000D02*
X80330000Y-33300000D01*
X80330000Y-33300000D02*
X80330000Y-32980000D01*
X84330000Y-34370000D02*
X79330000Y-34370000D01*
X79330000Y-34370000D02*
X79330000Y-35590000D01*
X77130000Y-34370000D02*
X79330000Y-34370000D01*
X85550000Y-35590000D02*
X77130000Y-35590000D01*
X84330000Y-35590000D02*
X84330000Y-34370000D01*
X77130000Y-35590000D02*
X77130000Y-34370000D01*
%TD*%
M02*
