M48
; DRILL file {KiCad 7.0.7} date Fri Oct 13 16:46:07 2023
; FORMAT={-:-/ absolute / metric / decimal}
; #@! TF.CreationDate,2023-10-13T16:46:07-07:00
; #@! TF.GenerationSoftware,Kicad,Pcbnew,7.0.7
; #@! TF.FileFunction,Plated,1,2,PTH
FMAT,2
METRIC
; #@! TA.AperFunction,Plated,PTH,ViaDrill
T1C0.100
; #@! TA.AperFunction,Plated,PTH,ViaDrill
T2C0.400
; #@! TA.AperFunction,Plated,PTH,ComponentDrill
T3C0.950
; #@! TA.AperFunction,Plated,PTH,ComponentDrill
T4C1.000
%
G90
G05
T1
X55.88Y-55.899
X55.88Y-88.9
X60.885Y-87.225
T2
X26.646Y-57.356
X33.02Y-45.72
X33.02Y-60.96
X35.56Y-43.18
X43.18Y-43.18
X43.18Y-86.36
X45.72Y-63.5
X46.228Y-47.752
X48.26Y-96.52
X48.802Y-49.224
X50.029Y-34.555
X50.8Y-83.82
X50.8Y-86.36
X50.8Y-99.06
X51.816Y-45.72
X53.34Y-86.36
X54.342Y-39.232
X55.88Y-30.48
X55.88Y-66.04
X55.88Y-78.74
X56.974Y-83.345
X58.42Y-35.56
X58.42Y-38.1
X58.42Y-91.44
X58.42Y-93.98
X59.243Y-64.356
X60.603Y-67.248
X60.96Y-48.26
X60.96Y-53.34
X66.04Y-53.34
X66.04Y-81.28
X66.04Y-109.22
X71.12Y-50.8
X71.12Y-78.74
X71.12Y-106.68
T3
X30.48Y-30.52
X30.48Y-33.02
X30.48Y-35.52
X30.48Y-48.3
X30.48Y-50.8
X30.48Y-53.3
T4
X78.74Y-30.48
X78.74Y-32.98
X78.74Y-40.64
X78.74Y-43.14
X78.74Y-50.8
X78.74Y-53.3
X78.74Y-60.96
X78.74Y-63.46
X78.74Y-71.12
X78.74Y-73.62
X78.74Y-81.28
X78.74Y-83.78
X78.74Y-91.44
X78.74Y-93.94
X78.748Y-100.35
X78.748Y-102.85
X78.748Y-110.002
X78.748Y-112.502
X78.748Y-120.924
X78.748Y-123.424
T0
M30
