M48
; DRILL file {KiCad 7.0.7} date Thu Oct 19 13:35:08 2023
; FORMAT={-:-/ absolute / inch / decimal}
; #@! TF.CreationDate,2023-10-19T13:35:08-07:00
; #@! TF.GenerationSoftware,Kicad,Pcbnew,7.0.7
; #@! TF.FileFunction,Plated,1,2,PTH
FMAT,2
INCH
; #@! TA.AperFunction,Plated,PTH,ViaDrill
T1C0.0039
; #@! TA.AperFunction,Plated,PTH,ViaDrill
T2C0.0157
; #@! TA.AperFunction,Plated,PTH,ComponentDrill
T3C0.0374
; #@! TA.AperFunction,Plated,PTH,ComponentDrill
T4C0.0394
%
G90
G05
T1
X2.2Y-2.2008
T2
X1.479Y-2.8454
X1.5Y-2.5
X1.516Y-2.8735
X1.5274Y-2.7165
X1.5286Y-2.6216
X1.5769Y-2.8273
X1.7Y-1.7
X1.7Y-3.4
X1.7635Y-2.5933
X1.8Y-2.5
X1.82Y-1.88
X1.9Y-3.8
X1.9213Y-1.938
X2.0Y-2.6
X2.0Y-3.9
X2.04Y-1.8
X2.0592Y-1.4
X2.1Y-3.3
X2.1394Y-1.5446
X2.1504Y-2.9307
X2.2Y-2.6
X2.2Y-3.1
X2.2Y-3.5
X2.2038Y-2.2309
X2.2431Y-3.2813
X2.3Y-1.5
X2.3Y-3.7
X2.3324Y-2.5337
X2.3821Y-1.742
X2.3859Y-2.6476
X2.397Y-3.434
X2.4Y-1.9
X2.4Y-2.1
X2.4Y-3.9
X2.5Y-2.8
X2.6Y-2.1
X2.6Y-3.2
X2.6Y-4.3
X2.8Y-2.0
X2.8Y-3.1
X2.8Y-4.2
T3
X1.2Y-1.2016
X1.2Y-1.3
X1.2Y-1.3984
X1.2Y-1.9016
X1.2Y-2.0
X1.2Y-2.0984
T4
X3.1Y-1.2
X3.1Y-1.2984
X3.1Y-1.6
X3.1Y-1.6984
X3.1Y-2.0
X3.1Y-2.0984
X3.1Y-2.4
X3.1Y-2.4984
X3.1Y-2.8
X3.1Y-2.8984
X3.1Y-3.2
X3.1Y-3.2984
X3.1Y-3.6
X3.1Y-3.6984
X3.1003Y-3.9508
X3.1003Y-4.0492
X3.1003Y-4.3308
X3.1003Y-4.4292
X3.1003Y-4.7608
X3.1003Y-4.8592
T0
M30
