%TF.GenerationSoftware,KiCad,Pcbnew,7.0.8-7.0.8~ubuntu22.04.1*%
%TF.CreationDate,2023-10-18T15:00:40-07:00*%
%TF.ProjectId,555Trigger,35353554-7269-4676-9765-722e6b696361,0*%
%TF.SameCoordinates,Original*%
%TF.FileFunction,Copper,L2,Bot*%
%TF.FilePolarity,Positive*%
%FSLAX46Y46*%
G04 Gerber Fmt 4.6, Leading zero omitted, Abs format (unit mm)*
G04 Created by KiCad (PCBNEW 7.0.8-7.0.8~ubuntu22.04.1) date 2023-10-18 15:00:40*
%MOMM*%
%LPD*%
G01*
G04 APERTURE LIST*
G04 Aperture macros list*
%AMRoundRect*
0 Rectangle with rounded corners*
0 $1 Rounding radius*
0 $2 $3 $4 $5 $6 $7 $8 $9 X,Y pos of 4 corners*
0 Add a 4 corners polygon primitive as box body*
4,1,4,$2,$3,$4,$5,$6,$7,$8,$9,$2,$3,0*
0 Add four circle primitives for the rounded corners*
1,1,$1+$1,$2,$3*
1,1,$1+$1,$4,$5*
1,1,$1+$1,$6,$7*
1,1,$1+$1,$8,$9*
0 Add four rect primitives between the rounded corners*
20,1,$1+$1,$2,$3,$4,$5,0*
20,1,$1+$1,$4,$5,$6,$7,0*
20,1,$1+$1,$6,$7,$8,$9,0*
20,1,$1+$1,$8,$9,$2,$3,0*%
G04 Aperture macros list end*
%TA.AperFunction,ComponentPad*%
%ADD10RoundRect,0.250000X-0.750000X0.600000X-0.750000X-0.600000X0.750000X-0.600000X0.750000X0.600000X0*%
%TD*%
%TA.AperFunction,ComponentPad*%
%ADD11O,2.000000X1.700000*%
%TD*%
%TA.AperFunction,ComponentPad*%
%ADD12RoundRect,0.250000X-0.725000X0.600000X-0.725000X-0.600000X0.725000X-0.600000X0.725000X0.600000X0*%
%TD*%
%TA.AperFunction,ComponentPad*%
%ADD13O,1.950000X1.700000*%
%TD*%
%TA.AperFunction,ViaPad*%
%ADD14C,0.800000*%
%TD*%
%TA.AperFunction,ViaPad*%
%ADD15C,0.300000*%
%TD*%
%TA.AperFunction,Conductor*%
%ADD16C,0.250000*%
%TD*%
G04 APERTURE END LIST*
D10*
%TO.P,Behavior2,1,Pin_1*%
%TO.N,Net-(Behavior1-Pin_1)*%
X78740000Y-71120000D03*
D11*
%TO.P,Behavior2,2,Pin_2*%
%TO.N,GND*%
X78740000Y-73620000D03*
%TD*%
D10*
%TO.P,Strobing2,1,Pin_1*%
%TO.N,Net-(Strobing2-Pin_1)*%
X78747500Y-110002000D03*
D11*
%TO.P,Strobing2,2,Pin_2*%
%TO.N,GND*%
X78747500Y-112502000D03*
%TD*%
D12*
%TO.P,WidthControlSignal1,1,Pin_1*%
%TO.N,/Strobing_Trigger/CV_In*%
X30480000Y-48300000D03*
D13*
%TO.P,WidthControlSignal1,2,Pin_2*%
%TO.N,/Behavior_Camera_Unit/CV_In*%
X30480000Y-50800000D03*
%TO.P,WidthControlSignal1,3,Pin_3*%
%TO.N,/Brain_Camera_Unit/CV_In*%
X30480000Y-53300000D03*
%TD*%
D10*
%TO.P,Brain1,1,Pin_1*%
%TO.N,Net-(Brain1-Pin_1)*%
X78740000Y-91440000D03*
D11*
%TO.P,Brain1,2,Pin_2*%
%TO.N,GND*%
X78740000Y-93940000D03*
%TD*%
D10*
%TO.P,Behavior1,1,Pin_1*%
%TO.N,Net-(Behavior1-Pin_1)*%
X78740000Y-81280000D03*
D11*
%TO.P,Behavior1,2,Pin_2*%
%TO.N,GND*%
X78740000Y-83780000D03*
%TD*%
D12*
%TO.P,Power_In1,1,Pin_1*%
%TO.N,+5V*%
X30480000Y-30520000D03*
D13*
%TO.P,Power_In1,2,Pin_2*%
%TO.N,GND*%
X30480000Y-33020000D03*
%TO.P,Power_In1,3,Pin_3*%
%TO.N,VAC*%
X30480000Y-35520000D03*
%TD*%
D10*
%TO.P,Behavior4,1,Pin_1*%
%TO.N,Net-(Behavior1-Pin_1)*%
X78740000Y-50800000D03*
D11*
%TO.P,Behavior4,2,Pin_2*%
%TO.N,GND*%
X78740000Y-53300000D03*
%TD*%
D10*
%TO.P,Brain2,1,Pin_1*%
%TO.N,Net-(Brain1-Pin_1)*%
X78747500Y-100350000D03*
D11*
%TO.P,Brain2,2,Pin_2*%
%TO.N,GND*%
X78747500Y-102850000D03*
%TD*%
D10*
%TO.P,Strobing1,1,Pin_1*%
%TO.N,Net-(Strobing1-Pin_1)*%
X78747500Y-120924000D03*
D11*
%TO.P,Strobing1,2,Pin_2*%
%TO.N,GND*%
X78747500Y-123424000D03*
%TD*%
D10*
%TO.P,Behavior5,1,Pin_1*%
%TO.N,Net-(Behavior1-Pin_1)*%
X78740000Y-40640000D03*
D11*
%TO.P,Behavior5,2,Pin_2*%
%TO.N,GND*%
X78740000Y-43140000D03*
%TD*%
D10*
%TO.P,Behavior3,1,Pin_1*%
%TO.N,Net-(Behavior1-Pin_1)*%
X78740000Y-60960000D03*
D11*
%TO.P,Behavior3,2,Pin_2*%
%TO.N,GND*%
X78740000Y-63460000D03*
%TD*%
D10*
%TO.P,Behavior6,1,Pin_1*%
%TO.N,Net-(Behavior1-Pin_1)*%
X78740000Y-30480000D03*
D11*
%TO.P,Behavior6,2,Pin_2*%
%TO.N,GND*%
X78740000Y-32980000D03*
%TD*%
D14*
%TO.N,GND*%
X53340000Y-86360000D03*
X43180000Y-86360000D03*
X71120000Y-50800000D03*
X55880000Y-30480000D03*
X71120000Y-78740000D03*
X45720000Y-63500000D03*
X71120000Y-106680000D03*
X58420000Y-35560000D03*
X66040000Y-53340000D03*
X58420000Y-91440000D03*
D15*
X55880000Y-55899500D03*
D14*
X43180000Y-43180000D03*
X58420000Y-93980000D03*
X59243157Y-64355899D03*
X66040000Y-81280000D03*
X58420000Y-38100000D03*
X66040000Y-109220000D03*
%TO.N,+5V*%
X60960000Y-48260000D03*
X56973937Y-83344887D03*
D15*
X60884660Y-87224801D03*
D14*
X48260000Y-96520000D03*
X60960000Y-53340000D03*
X50800000Y-99060000D03*
%TO.N,/Strobing_Trigger/CV_In*%
X50800000Y-83820000D03*
X50800000Y-86360000D03*
%TO.N,/Behavior_Camera_Unit/CV_In*%
X33020000Y-60960000D03*
X26645580Y-57356380D03*
%TO.N,/Brain_Camera_Unit/CV_In*%
X35560000Y-43180000D03*
X33020000Y-45720000D03*
%TO.N,Net-(U9C-V+)*%
X51816000Y-45720000D03*
X48801551Y-49224210D03*
%TO.N,VAC*%
X54341745Y-39231717D03*
X55880000Y-66040000D03*
D15*
X55880000Y-88900000D03*
D14*
X50029036Y-34555297D03*
X55880000Y-78740000D03*
%TO.N,/Behavior_Camera_Unit/Trigger_Out*%
X60602576Y-67247783D03*
X46228000Y-47752000D03*
%TD*%
D16*
%TO.N,+5V*%
X60853851Y-87224801D02*
X56973937Y-83344887D01*
X60960000Y-53340000D02*
X60960000Y-48260000D01*
X48260000Y-96520000D02*
X50800000Y-99060000D01*
X60884660Y-87224801D02*
X60853851Y-87224801D01*
%TO.N,/Strobing_Trigger/CV_In*%
X50800000Y-86360000D02*
X50800000Y-83820000D01*
%TO.N,/Behavior_Camera_Unit/CV_In*%
X26645580Y-57356380D02*
X29416380Y-57356380D01*
X29416380Y-57356380D02*
X33020000Y-60960000D01*
%TO.N,/Brain_Camera_Unit/CV_In*%
X33020000Y-45720000D02*
X35560000Y-43180000D01*
%TO.N,Net-(U9C-V+)*%
X50984375Y-45720000D02*
X51816000Y-45720000D01*
X48801551Y-47902824D02*
X50984375Y-45720000D01*
X48801551Y-49224210D02*
X48801551Y-47902824D01*
%TO.N,VAC*%
X54341745Y-64501745D02*
X55880000Y-66040000D01*
X50029036Y-34555297D02*
X50029036Y-34919008D01*
X50029036Y-34919008D02*
X54341745Y-39231717D01*
X54341745Y-39231717D02*
X54341745Y-64501745D01*
X55880000Y-88900000D02*
X55880000Y-78740000D01*
%TO.N,/Behavior_Camera_Unit/Trigger_Out*%
X46403101Y-58409667D02*
X46403101Y-47524485D01*
X60602576Y-67247783D02*
X55241217Y-67247783D01*
X46403101Y-47576899D02*
X46228000Y-47752000D01*
X46403101Y-47524485D02*
X46403101Y-47576899D01*
X46403101Y-58409667D02*
X55241217Y-67247783D01*
%TD*%
%TA.AperFunction,Conductor*%
%TO.N,GND*%
G36*
X87980020Y-25351058D02*
G01*
X88025833Y-25403811D01*
X88037096Y-25455447D01*
X88037096Y-129347446D01*
X88017411Y-129414485D01*
X87964607Y-129460240D01*
X87913233Y-129471446D01*
X86575199Y-129472925D01*
X86569725Y-129472689D01*
X86418967Y-129459500D01*
X86418966Y-129459500D01*
X86301034Y-129459500D01*
X86301033Y-129459500D01*
X86144767Y-129473171D01*
X86139429Y-129473407D01*
X28424308Y-129537217D01*
X28392078Y-129532992D01*
X28175413Y-129474938D01*
X28175403Y-129474936D01*
X27998966Y-129459500D01*
X27881034Y-129459500D01*
X27704596Y-129474936D01*
X27704586Y-129474938D01*
X27483910Y-129534067D01*
X27451954Y-129538292D01*
X26032137Y-129539862D01*
X25965076Y-129520252D01*
X25919263Y-129467498D01*
X25908000Y-129415862D01*
X25908000Y-121574001D01*
X77247000Y-121574001D01*
X77247001Y-121574018D01*
X77257500Y-121676796D01*
X77257501Y-121676799D01*
X77312685Y-121843331D01*
X77312687Y-121843336D01*
X77404789Y-121992657D01*
X77528844Y-122116712D01*
X77684058Y-122212448D01*
X77730783Y-122264396D01*
X77742006Y-122333358D01*
X77714163Y-122397441D01*
X77706644Y-122405668D01*
X77559391Y-122552921D01*
X77423899Y-122746421D01*
X77324070Y-122960507D01*
X77324067Y-122960513D01*
X77266864Y-123173999D01*
X77266864Y-123174000D01*
X78313814Y-123174000D01*
X78288007Y-123214156D01*
X78247500Y-123352111D01*
X78247500Y-123495889D01*
X78288007Y-123633844D01*
X78313814Y-123674000D01*
X77266864Y-123674000D01*
X77324067Y-123887486D01*
X77324070Y-123887492D01*
X77423899Y-124101577D01*
X77423900Y-124101579D01*
X77559386Y-124295073D01*
X77559391Y-124295079D01*
X77726420Y-124462108D01*
X77726426Y-124462113D01*
X77919920Y-124597599D01*
X77919922Y-124597600D01*
X78134007Y-124697429D01*
X78134016Y-124697433D01*
X78362173Y-124758567D01*
X78362184Y-124758569D01*
X78497499Y-124770407D01*
X78497500Y-124770407D01*
X78497500Y-123859501D01*
X78605185Y-123908680D01*
X78711737Y-123924000D01*
X78783263Y-123924000D01*
X78889815Y-123908680D01*
X78997500Y-123859501D01*
X78997500Y-124770407D01*
X79132815Y-124758569D01*
X79132826Y-124758567D01*
X79360983Y-124697433D01*
X79360992Y-124697429D01*
X79575077Y-124597600D01*
X79575079Y-124597599D01*
X79768573Y-124462113D01*
X79768579Y-124462108D01*
X79935605Y-124295082D01*
X80071100Y-124101578D01*
X80170929Y-123887492D01*
X80170932Y-123887486D01*
X80228136Y-123674000D01*
X79181186Y-123674000D01*
X79206993Y-123633844D01*
X79247500Y-123495889D01*
X79247500Y-123352111D01*
X79206993Y-123214156D01*
X79181186Y-123174000D01*
X80228136Y-123174000D01*
X80228135Y-123173999D01*
X80170932Y-122960513D01*
X80170929Y-122960507D01*
X80071100Y-122746422D01*
X80071099Y-122746420D01*
X79935613Y-122552926D01*
X79788356Y-122405668D01*
X79754872Y-122344345D01*
X79759856Y-122274653D01*
X79801728Y-122218720D01*
X79810942Y-122212448D01*
X79816834Y-122208814D01*
X79966156Y-122116712D01*
X80090212Y-121992656D01*
X80182314Y-121843334D01*
X80237499Y-121676797D01*
X80248000Y-121574009D01*
X80247999Y-120273992D01*
X80237499Y-120171203D01*
X80182314Y-120004666D01*
X80090212Y-119855344D01*
X79966156Y-119731288D01*
X79816834Y-119639186D01*
X79650297Y-119584001D01*
X79650295Y-119584000D01*
X79547510Y-119573500D01*
X77947498Y-119573500D01*
X77947481Y-119573501D01*
X77844703Y-119584000D01*
X77844700Y-119584001D01*
X77678168Y-119639185D01*
X77678163Y-119639187D01*
X77528842Y-119731289D01*
X77404789Y-119855342D01*
X77312687Y-120004663D01*
X77312686Y-120004666D01*
X77257501Y-120171203D01*
X77257501Y-120171204D01*
X77257500Y-120171204D01*
X77247000Y-120273983D01*
X77247000Y-121574001D01*
X25908000Y-121574001D01*
X25908000Y-110652001D01*
X77247000Y-110652001D01*
X77247001Y-110652018D01*
X77257500Y-110754796D01*
X77257501Y-110754799D01*
X77312685Y-110921331D01*
X77312687Y-110921336D01*
X77404789Y-111070657D01*
X77528844Y-111194712D01*
X77684058Y-111290448D01*
X77730783Y-111342396D01*
X77742006Y-111411358D01*
X77714163Y-111475441D01*
X77706644Y-111483668D01*
X77559391Y-111630921D01*
X77423899Y-111824421D01*
X77324070Y-112038507D01*
X77324067Y-112038513D01*
X77266864Y-112251999D01*
X77266864Y-112252000D01*
X78313814Y-112252000D01*
X78288007Y-112292156D01*
X78247500Y-112430111D01*
X78247500Y-112573889D01*
X78288007Y-112711844D01*
X78313814Y-112752000D01*
X77266864Y-112752000D01*
X77324067Y-112965486D01*
X77324070Y-112965492D01*
X77423899Y-113179577D01*
X77423900Y-113179579D01*
X77559386Y-113373073D01*
X77559391Y-113373079D01*
X77726420Y-113540108D01*
X77726426Y-113540113D01*
X77919920Y-113675599D01*
X77919922Y-113675600D01*
X78134007Y-113775429D01*
X78134016Y-113775433D01*
X78362173Y-113836567D01*
X78362184Y-113836569D01*
X78497499Y-113848407D01*
X78497500Y-113848407D01*
X78497500Y-112937501D01*
X78605185Y-112986680D01*
X78711737Y-113002000D01*
X78783263Y-113002000D01*
X78889815Y-112986680D01*
X78997500Y-112937501D01*
X78997500Y-113848407D01*
X79132815Y-113836569D01*
X79132826Y-113836567D01*
X79360983Y-113775433D01*
X79360992Y-113775429D01*
X79575077Y-113675600D01*
X79575079Y-113675599D01*
X79768573Y-113540113D01*
X79768579Y-113540108D01*
X79935605Y-113373082D01*
X80071100Y-113179578D01*
X80170929Y-112965492D01*
X80170932Y-112965486D01*
X80228136Y-112752000D01*
X79181186Y-112752000D01*
X79206993Y-112711844D01*
X79247500Y-112573889D01*
X79247500Y-112430111D01*
X79206993Y-112292156D01*
X79181186Y-112252000D01*
X80228136Y-112252000D01*
X80228135Y-112251999D01*
X80170932Y-112038513D01*
X80170929Y-112038507D01*
X80071100Y-111824422D01*
X80071099Y-111824420D01*
X79935613Y-111630926D01*
X79788356Y-111483668D01*
X79754872Y-111422345D01*
X79759856Y-111352653D01*
X79801728Y-111296720D01*
X79810942Y-111290448D01*
X79816834Y-111286814D01*
X79966156Y-111194712D01*
X80090212Y-111070656D01*
X80182314Y-110921334D01*
X80237499Y-110754797D01*
X80248000Y-110652009D01*
X80247999Y-109351992D01*
X80237499Y-109249203D01*
X80182314Y-109082666D01*
X80090212Y-108933344D01*
X79966156Y-108809288D01*
X79816834Y-108717186D01*
X79650297Y-108662001D01*
X79650295Y-108662000D01*
X79547510Y-108651500D01*
X77947498Y-108651500D01*
X77947481Y-108651501D01*
X77844703Y-108662000D01*
X77844700Y-108662001D01*
X77678168Y-108717185D01*
X77678163Y-108717187D01*
X77528842Y-108809289D01*
X77404789Y-108933342D01*
X77312687Y-109082663D01*
X77312686Y-109082666D01*
X77257501Y-109249203D01*
X77257501Y-109249204D01*
X77257500Y-109249204D01*
X77247000Y-109351983D01*
X77247000Y-110652001D01*
X25908000Y-110652001D01*
X25908000Y-101000001D01*
X77247000Y-101000001D01*
X77247001Y-101000018D01*
X77257500Y-101102796D01*
X77257501Y-101102799D01*
X77312685Y-101269331D01*
X77312687Y-101269336D01*
X77404789Y-101418657D01*
X77528844Y-101542712D01*
X77684058Y-101638448D01*
X77730783Y-101690396D01*
X77742006Y-101759358D01*
X77714163Y-101823441D01*
X77706644Y-101831668D01*
X77559391Y-101978921D01*
X77423899Y-102172421D01*
X77324070Y-102386507D01*
X77324067Y-102386513D01*
X77266864Y-102599999D01*
X77266864Y-102600000D01*
X78313814Y-102600000D01*
X78288007Y-102640156D01*
X78247500Y-102778111D01*
X78247500Y-102921889D01*
X78288007Y-103059844D01*
X78313814Y-103100000D01*
X77266864Y-103100000D01*
X77324067Y-103313486D01*
X77324070Y-103313492D01*
X77423899Y-103527577D01*
X77423900Y-103527579D01*
X77559386Y-103721073D01*
X77559391Y-103721079D01*
X77726420Y-103888108D01*
X77726426Y-103888113D01*
X77919920Y-104023599D01*
X77919922Y-104023600D01*
X78134007Y-104123429D01*
X78134016Y-104123433D01*
X78362173Y-104184567D01*
X78362184Y-104184569D01*
X78497499Y-104196407D01*
X78497500Y-104196407D01*
X78497500Y-103285501D01*
X78605185Y-103334680D01*
X78711737Y-103350000D01*
X78783263Y-103350000D01*
X78889815Y-103334680D01*
X78997500Y-103285501D01*
X78997500Y-104196407D01*
X79132815Y-104184569D01*
X79132826Y-104184567D01*
X79360983Y-104123433D01*
X79360992Y-104123429D01*
X79575077Y-104023600D01*
X79575079Y-104023599D01*
X79768573Y-103888113D01*
X79768579Y-103888108D01*
X79935605Y-103721082D01*
X80071100Y-103527578D01*
X80170929Y-103313492D01*
X80170932Y-103313486D01*
X80228136Y-103100000D01*
X79181186Y-103100000D01*
X79206993Y-103059844D01*
X79247500Y-102921889D01*
X79247500Y-102778111D01*
X79206993Y-102640156D01*
X79181186Y-102600000D01*
X80228136Y-102600000D01*
X80228135Y-102599999D01*
X80170932Y-102386513D01*
X80170929Y-102386507D01*
X80071100Y-102172422D01*
X80071099Y-102172420D01*
X79935613Y-101978926D01*
X79788356Y-101831668D01*
X79754872Y-101770345D01*
X79759856Y-101700653D01*
X79801728Y-101644720D01*
X79810942Y-101638448D01*
X79816834Y-101634814D01*
X79966156Y-101542712D01*
X80090212Y-101418656D01*
X80182314Y-101269334D01*
X80237499Y-101102797D01*
X80248000Y-101000009D01*
X80247999Y-99699992D01*
X80237499Y-99597203D01*
X80182314Y-99430666D01*
X80090212Y-99281344D01*
X79966156Y-99157288D01*
X79841416Y-99080348D01*
X79816836Y-99065187D01*
X79816831Y-99065185D01*
X79801184Y-99060000D01*
X79650297Y-99010001D01*
X79650295Y-99010000D01*
X79547510Y-98999500D01*
X77947498Y-98999500D01*
X77947481Y-98999501D01*
X77844703Y-99010000D01*
X77844700Y-99010001D01*
X77678168Y-99065185D01*
X77678163Y-99065187D01*
X77528842Y-99157289D01*
X77404789Y-99281342D01*
X77312687Y-99430663D01*
X77312686Y-99430666D01*
X77257501Y-99597203D01*
X77257501Y-99597204D01*
X77257500Y-99597204D01*
X77247000Y-99699983D01*
X77247000Y-101000001D01*
X25908000Y-101000001D01*
X25908000Y-96520000D01*
X47354540Y-96520000D01*
X47374326Y-96708256D01*
X47374327Y-96708259D01*
X47432818Y-96888277D01*
X47432821Y-96888284D01*
X47527467Y-97052216D01*
X47654129Y-97192888D01*
X47807265Y-97304148D01*
X47807270Y-97304151D01*
X47980192Y-97381142D01*
X47980197Y-97381144D01*
X48165354Y-97420500D01*
X48224548Y-97420500D01*
X48291587Y-97440185D01*
X48312229Y-97456819D01*
X49861038Y-99005629D01*
X49894523Y-99066952D01*
X49896678Y-99080348D01*
X49904765Y-99157288D01*
X49914326Y-99248256D01*
X49914327Y-99248259D01*
X49972818Y-99428277D01*
X49972821Y-99428284D01*
X50067467Y-99592216D01*
X50164509Y-99699992D01*
X50194129Y-99732888D01*
X50347265Y-99844148D01*
X50347270Y-99844151D01*
X50520192Y-99921142D01*
X50520197Y-99921144D01*
X50705354Y-99960500D01*
X50705355Y-99960500D01*
X50894644Y-99960500D01*
X50894646Y-99960500D01*
X51079803Y-99921144D01*
X51252730Y-99844151D01*
X51405871Y-99732888D01*
X51532533Y-99592216D01*
X51627179Y-99428284D01*
X51685674Y-99248256D01*
X51705460Y-99060000D01*
X51685674Y-98871744D01*
X51627179Y-98691716D01*
X51532533Y-98527784D01*
X51405871Y-98387112D01*
X51405870Y-98387111D01*
X51252734Y-98275851D01*
X51252729Y-98275848D01*
X51079807Y-98198857D01*
X51079802Y-98198855D01*
X50934001Y-98167865D01*
X50894646Y-98159500D01*
X50894645Y-98159500D01*
X50835453Y-98159500D01*
X50768414Y-98139815D01*
X50747772Y-98123181D01*
X49198960Y-96574369D01*
X49165475Y-96513046D01*
X49163323Y-96499668D01*
X49145674Y-96331744D01*
X49087179Y-96151716D01*
X48992533Y-95987784D01*
X48865871Y-95847112D01*
X48865870Y-95847111D01*
X48712734Y-95735851D01*
X48712729Y-95735848D01*
X48539807Y-95658857D01*
X48539802Y-95658855D01*
X48394001Y-95627865D01*
X48354646Y-95619500D01*
X48165354Y-95619500D01*
X48132897Y-95626398D01*
X47980197Y-95658855D01*
X47980192Y-95658857D01*
X47807270Y-95735848D01*
X47807265Y-95735851D01*
X47654129Y-95847111D01*
X47527466Y-95987785D01*
X47432821Y-96151715D01*
X47432818Y-96151722D01*
X47374327Y-96331740D01*
X47374326Y-96331744D01*
X47354540Y-96520000D01*
X25908000Y-96520000D01*
X25908000Y-92090001D01*
X77239500Y-92090001D01*
X77239501Y-92090018D01*
X77250000Y-92192796D01*
X77250001Y-92192799D01*
X77305185Y-92359331D01*
X77305187Y-92359336D01*
X77397289Y-92508657D01*
X77521344Y-92632712D01*
X77676558Y-92728448D01*
X77723283Y-92780396D01*
X77734506Y-92849358D01*
X77706663Y-92913441D01*
X77699144Y-92921668D01*
X77551891Y-93068921D01*
X77416399Y-93262421D01*
X77316570Y-93476507D01*
X77316567Y-93476513D01*
X77259364Y-93689999D01*
X77259364Y-93690000D01*
X78306314Y-93690000D01*
X78280507Y-93730156D01*
X78240000Y-93868111D01*
X78240000Y-94011889D01*
X78280507Y-94149844D01*
X78306314Y-94190000D01*
X77259364Y-94190000D01*
X77316567Y-94403486D01*
X77316570Y-94403492D01*
X77416399Y-94617577D01*
X77416400Y-94617579D01*
X77551886Y-94811073D01*
X77551891Y-94811079D01*
X77718920Y-94978108D01*
X77718926Y-94978113D01*
X77912420Y-95113599D01*
X77912422Y-95113600D01*
X78126507Y-95213429D01*
X78126516Y-95213433D01*
X78354673Y-95274567D01*
X78354684Y-95274569D01*
X78489999Y-95286407D01*
X78490000Y-95286407D01*
X78490000Y-94375501D01*
X78597685Y-94424680D01*
X78704237Y-94440000D01*
X78775763Y-94440000D01*
X78882315Y-94424680D01*
X78990000Y-94375501D01*
X78990000Y-95286407D01*
X79125315Y-95274569D01*
X79125326Y-95274567D01*
X79353483Y-95213433D01*
X79353492Y-95213429D01*
X79567577Y-95113600D01*
X79567579Y-95113599D01*
X79761073Y-94978113D01*
X79761079Y-94978108D01*
X79928105Y-94811082D01*
X80063600Y-94617578D01*
X80163429Y-94403492D01*
X80163432Y-94403486D01*
X80220636Y-94190000D01*
X79173686Y-94190000D01*
X79199493Y-94149844D01*
X79240000Y-94011889D01*
X79240000Y-93868111D01*
X79199493Y-93730156D01*
X79173686Y-93690000D01*
X80220636Y-93690000D01*
X80220635Y-93689999D01*
X80163432Y-93476513D01*
X80163429Y-93476507D01*
X80063600Y-93262422D01*
X80063599Y-93262420D01*
X79928113Y-93068926D01*
X79780856Y-92921668D01*
X79747372Y-92860345D01*
X79752356Y-92790653D01*
X79794228Y-92734720D01*
X79803442Y-92728448D01*
X79809334Y-92724814D01*
X79958656Y-92632712D01*
X80082712Y-92508656D01*
X80174814Y-92359334D01*
X80229999Y-92192797D01*
X80240500Y-92090009D01*
X80240499Y-90789992D01*
X80229999Y-90687203D01*
X80174814Y-90520666D01*
X80082712Y-90371344D01*
X79958656Y-90247288D01*
X79809334Y-90155186D01*
X79642797Y-90100001D01*
X79642795Y-90100000D01*
X79540010Y-90089500D01*
X77939998Y-90089500D01*
X77939981Y-90089501D01*
X77837203Y-90100000D01*
X77837200Y-90100001D01*
X77670668Y-90155185D01*
X77670663Y-90155187D01*
X77521342Y-90247289D01*
X77397289Y-90371342D01*
X77305187Y-90520663D01*
X77305186Y-90520666D01*
X77250001Y-90687203D01*
X77250001Y-90687204D01*
X77250000Y-90687204D01*
X77239500Y-90789983D01*
X77239500Y-92090001D01*
X25908000Y-92090001D01*
X25908000Y-86360000D01*
X49894540Y-86360000D01*
X49914326Y-86548256D01*
X49914327Y-86548259D01*
X49972818Y-86728277D01*
X49972821Y-86728284D01*
X50067467Y-86892216D01*
X50194129Y-87032888D01*
X50347265Y-87144148D01*
X50347270Y-87144151D01*
X50520192Y-87221142D01*
X50520197Y-87221144D01*
X50705354Y-87260500D01*
X50705355Y-87260500D01*
X50894644Y-87260500D01*
X50894646Y-87260500D01*
X51079803Y-87221144D01*
X51252730Y-87144151D01*
X51405871Y-87032888D01*
X51532533Y-86892216D01*
X51627179Y-86728284D01*
X51685674Y-86548256D01*
X51705460Y-86360000D01*
X51685674Y-86171744D01*
X51627179Y-85991716D01*
X51532533Y-85827784D01*
X51457350Y-85744284D01*
X51427120Y-85681292D01*
X51425500Y-85661312D01*
X51425500Y-84518687D01*
X51445185Y-84451648D01*
X51457350Y-84435715D01*
X51475891Y-84415122D01*
X51532533Y-84352216D01*
X51627179Y-84188284D01*
X51685674Y-84008256D01*
X51705460Y-83820000D01*
X51685674Y-83631744D01*
X51627179Y-83451716D01*
X51532533Y-83287784D01*
X51405871Y-83147112D01*
X51405870Y-83147111D01*
X51252734Y-83035851D01*
X51252729Y-83035848D01*
X51079807Y-82958857D01*
X51079802Y-82958855D01*
X50934001Y-82927865D01*
X50894646Y-82919500D01*
X50705354Y-82919500D01*
X50672897Y-82926398D01*
X50520197Y-82958855D01*
X50520192Y-82958857D01*
X50347270Y-83035848D01*
X50347265Y-83035851D01*
X50194129Y-83147111D01*
X50067466Y-83287785D01*
X49972821Y-83451715D01*
X49972818Y-83451722D01*
X49934337Y-83570156D01*
X49914326Y-83631744D01*
X49894540Y-83820000D01*
X49914326Y-84008256D01*
X49914327Y-84008259D01*
X49972818Y-84188277D01*
X49972821Y-84188284D01*
X50067467Y-84352216D01*
X50110772Y-84400310D01*
X50142650Y-84435715D01*
X50172880Y-84498706D01*
X50174500Y-84518687D01*
X50174500Y-85661312D01*
X50154815Y-85728351D01*
X50142650Y-85744284D01*
X50067466Y-85827784D01*
X49972821Y-85991715D01*
X49972818Y-85991722D01*
X49914327Y-86171740D01*
X49914326Y-86171744D01*
X49894540Y-86360000D01*
X25908000Y-86360000D01*
X25908000Y-78740000D01*
X54974540Y-78740000D01*
X54994326Y-78928256D01*
X54994327Y-78928259D01*
X55052818Y-79108277D01*
X55052821Y-79108284D01*
X55147467Y-79272216D01*
X55190772Y-79320310D01*
X55222650Y-79355715D01*
X55252880Y-79418706D01*
X55254500Y-79438687D01*
X55254500Y-88692147D01*
X55246442Y-88736117D01*
X55243764Y-88743176D01*
X55243762Y-88743185D01*
X55224722Y-88899999D01*
X55224722Y-88900000D01*
X55243762Y-89056818D01*
X55299780Y-89204523D01*
X55389517Y-89334530D01*
X55507760Y-89439283D01*
X55507762Y-89439284D01*
X55647634Y-89512696D01*
X55801014Y-89550500D01*
X55801015Y-89550500D01*
X55958985Y-89550500D01*
X56112365Y-89512696D01*
X56252240Y-89439283D01*
X56370483Y-89334530D01*
X56460220Y-89204523D01*
X56516237Y-89056818D01*
X56535278Y-88900000D01*
X56516237Y-88743182D01*
X56513558Y-88736117D01*
X56505500Y-88692147D01*
X56505500Y-84312989D01*
X56525185Y-84245950D01*
X56577989Y-84200195D01*
X56647147Y-84190251D01*
X56679936Y-84199709D01*
X56694134Y-84206031D01*
X56879291Y-84245387D01*
X56938485Y-84245387D01*
X57005524Y-84265072D01*
X57026166Y-84281706D01*
X60353048Y-87608589D01*
X60362869Y-87620848D01*
X60363091Y-87620665D01*
X60368063Y-87626675D01*
X60368065Y-87626678D01*
X60368067Y-87626680D01*
X60368068Y-87626681D01*
X60368576Y-87627158D01*
X60385738Y-87647105D01*
X60394175Y-87659329D01*
X60394177Y-87659331D01*
X60512420Y-87764084D01*
X60512422Y-87764085D01*
X60652294Y-87837497D01*
X60805674Y-87875301D01*
X60805675Y-87875301D01*
X60963645Y-87875301D01*
X61117025Y-87837497D01*
X61256900Y-87764084D01*
X61375143Y-87659331D01*
X61464880Y-87529324D01*
X61520897Y-87381619D01*
X61539938Y-87224801D01*
X61530146Y-87144151D01*
X61520897Y-87067982D01*
X61499652Y-87011965D01*
X61464880Y-86920278D01*
X61375143Y-86790271D01*
X61256900Y-86685518D01*
X61256898Y-86685517D01*
X61256897Y-86685516D01*
X61152087Y-86630507D01*
X61122032Y-86608392D01*
X57912897Y-83399256D01*
X57879412Y-83337933D01*
X57877260Y-83324555D01*
X57859611Y-83156631D01*
X57801116Y-82976603D01*
X57706470Y-82812671D01*
X57579808Y-82671999D01*
X57579807Y-82671998D01*
X57426671Y-82560738D01*
X57426666Y-82560735D01*
X57253744Y-82483744D01*
X57253739Y-82483742D01*
X57107938Y-82452752D01*
X57068583Y-82444387D01*
X56879291Y-82444387D01*
X56846834Y-82451285D01*
X56694134Y-82483742D01*
X56694129Y-82483744D01*
X56679932Y-82490065D01*
X56610682Y-82499348D01*
X56547406Y-82469717D01*
X56510195Y-82410581D01*
X56505500Y-82376784D01*
X56505500Y-81930001D01*
X77239500Y-81930001D01*
X77239501Y-81930018D01*
X77250000Y-82032796D01*
X77250001Y-82032799D01*
X77305185Y-82199331D01*
X77305186Y-82199334D01*
X77397288Y-82348656D01*
X77521344Y-82472712D01*
X77664054Y-82560736D01*
X77676558Y-82568448D01*
X77723283Y-82620396D01*
X77734506Y-82689358D01*
X77706663Y-82753441D01*
X77699144Y-82761668D01*
X77551891Y-82908921D01*
X77416399Y-83102421D01*
X77316570Y-83316507D01*
X77316567Y-83316513D01*
X77259364Y-83529999D01*
X77259364Y-83530000D01*
X78306314Y-83530000D01*
X78280507Y-83570156D01*
X78240000Y-83708111D01*
X78240000Y-83851889D01*
X78280507Y-83989844D01*
X78306314Y-84030000D01*
X77259364Y-84030000D01*
X77316567Y-84243486D01*
X77316570Y-84243492D01*
X77416399Y-84457577D01*
X77416400Y-84457579D01*
X77551886Y-84651073D01*
X77551891Y-84651079D01*
X77718920Y-84818108D01*
X77718926Y-84818113D01*
X77912420Y-84953599D01*
X77912422Y-84953600D01*
X78126507Y-85053429D01*
X78126516Y-85053433D01*
X78354673Y-85114567D01*
X78354684Y-85114569D01*
X78489999Y-85126407D01*
X78490000Y-85126407D01*
X78490000Y-84215501D01*
X78597685Y-84264680D01*
X78704237Y-84280000D01*
X78775763Y-84280000D01*
X78882315Y-84264680D01*
X78990000Y-84215501D01*
X78990000Y-85126407D01*
X79125315Y-85114569D01*
X79125326Y-85114567D01*
X79353483Y-85053433D01*
X79353492Y-85053429D01*
X79567577Y-84953600D01*
X79567579Y-84953599D01*
X79761073Y-84818113D01*
X79761079Y-84818108D01*
X79928105Y-84651082D01*
X80063600Y-84457578D01*
X80163429Y-84243492D01*
X80163432Y-84243486D01*
X80220636Y-84030000D01*
X79173686Y-84030000D01*
X79199493Y-83989844D01*
X79240000Y-83851889D01*
X79240000Y-83708111D01*
X79199493Y-83570156D01*
X79173686Y-83530000D01*
X80220636Y-83530000D01*
X80220635Y-83529999D01*
X80163432Y-83316513D01*
X80163429Y-83316507D01*
X80063600Y-83102422D01*
X80063599Y-83102420D01*
X79928113Y-82908926D01*
X79780856Y-82761668D01*
X79747372Y-82700345D01*
X79752356Y-82630653D01*
X79794228Y-82574720D01*
X79803442Y-82568448D01*
X79815942Y-82560738D01*
X79958656Y-82472712D01*
X80082712Y-82348656D01*
X80174814Y-82199334D01*
X80229999Y-82032797D01*
X80240500Y-81930009D01*
X80240499Y-80629992D01*
X80229999Y-80527203D01*
X80174814Y-80360666D01*
X80082712Y-80211344D01*
X79958656Y-80087288D01*
X79809334Y-79995186D01*
X79642797Y-79940001D01*
X79642795Y-79940000D01*
X79540010Y-79929500D01*
X77939998Y-79929500D01*
X77939981Y-79929501D01*
X77837203Y-79940000D01*
X77837200Y-79940001D01*
X77670668Y-79995185D01*
X77670663Y-79995187D01*
X77521342Y-80087289D01*
X77397289Y-80211342D01*
X77305187Y-80360663D01*
X77305186Y-80360666D01*
X77250001Y-80527203D01*
X77250001Y-80527204D01*
X77250000Y-80527204D01*
X77239500Y-80629983D01*
X77239500Y-81930001D01*
X56505500Y-81930001D01*
X56505500Y-79438687D01*
X56525185Y-79371648D01*
X56537350Y-79355715D01*
X56555891Y-79335122D01*
X56612533Y-79272216D01*
X56707179Y-79108284D01*
X56765674Y-78928256D01*
X56785460Y-78740000D01*
X56765674Y-78551744D01*
X56707179Y-78371716D01*
X56612533Y-78207784D01*
X56485871Y-78067112D01*
X56485870Y-78067111D01*
X56332734Y-77955851D01*
X56332729Y-77955848D01*
X56159807Y-77878857D01*
X56159802Y-77878855D01*
X56014001Y-77847865D01*
X55974646Y-77839500D01*
X55785354Y-77839500D01*
X55752897Y-77846398D01*
X55600197Y-77878855D01*
X55600192Y-77878857D01*
X55427270Y-77955848D01*
X55427265Y-77955851D01*
X55274129Y-78067111D01*
X55147466Y-78207785D01*
X55052821Y-78371715D01*
X55052818Y-78371722D01*
X54994327Y-78551740D01*
X54994326Y-78551744D01*
X54974540Y-78740000D01*
X25908000Y-78740000D01*
X25908000Y-71770001D01*
X77239500Y-71770001D01*
X77239501Y-71770018D01*
X77250000Y-71872796D01*
X77250001Y-71872799D01*
X77305185Y-72039331D01*
X77305187Y-72039336D01*
X77397289Y-72188657D01*
X77521344Y-72312712D01*
X77676558Y-72408448D01*
X77723283Y-72460396D01*
X77734506Y-72529358D01*
X77706663Y-72593441D01*
X77699144Y-72601668D01*
X77551891Y-72748921D01*
X77416399Y-72942421D01*
X77316570Y-73156507D01*
X77316567Y-73156513D01*
X77259364Y-73369999D01*
X77259364Y-73370000D01*
X78306314Y-73370000D01*
X78280507Y-73410156D01*
X78240000Y-73548111D01*
X78240000Y-73691889D01*
X78280507Y-73829844D01*
X78306314Y-73870000D01*
X77259364Y-73870000D01*
X77316567Y-74083486D01*
X77316570Y-74083492D01*
X77416399Y-74297577D01*
X77416400Y-74297579D01*
X77551886Y-74491073D01*
X77551891Y-74491079D01*
X77718920Y-74658108D01*
X77718926Y-74658113D01*
X77912420Y-74793599D01*
X77912422Y-74793600D01*
X78126507Y-74893429D01*
X78126516Y-74893433D01*
X78354673Y-74954567D01*
X78354684Y-74954569D01*
X78489999Y-74966407D01*
X78490000Y-74966407D01*
X78490000Y-74055501D01*
X78597685Y-74104680D01*
X78704237Y-74120000D01*
X78775763Y-74120000D01*
X78882315Y-74104680D01*
X78990000Y-74055501D01*
X78990000Y-74966407D01*
X79125315Y-74954569D01*
X79125326Y-74954567D01*
X79353483Y-74893433D01*
X79353492Y-74893429D01*
X79567577Y-74793600D01*
X79567579Y-74793599D01*
X79761073Y-74658113D01*
X79761079Y-74658108D01*
X79928105Y-74491082D01*
X80063600Y-74297578D01*
X80163429Y-74083492D01*
X80163432Y-74083486D01*
X80220636Y-73870000D01*
X79173686Y-73870000D01*
X79199493Y-73829844D01*
X79240000Y-73691889D01*
X79240000Y-73548111D01*
X79199493Y-73410156D01*
X79173686Y-73370000D01*
X80220636Y-73370000D01*
X80220635Y-73369999D01*
X80163432Y-73156513D01*
X80163429Y-73156507D01*
X80063600Y-72942422D01*
X80063599Y-72942420D01*
X79928113Y-72748926D01*
X79780856Y-72601668D01*
X79747372Y-72540345D01*
X79752356Y-72470653D01*
X79794228Y-72414720D01*
X79803442Y-72408448D01*
X79809334Y-72404814D01*
X79958656Y-72312712D01*
X80082712Y-72188656D01*
X80174814Y-72039334D01*
X80229999Y-71872797D01*
X80240500Y-71770009D01*
X80240499Y-70469992D01*
X80229999Y-70367203D01*
X80174814Y-70200666D01*
X80082712Y-70051344D01*
X79958656Y-69927288D01*
X79809334Y-69835186D01*
X79642797Y-69780001D01*
X79642795Y-69780000D01*
X79540010Y-69769500D01*
X77939998Y-69769500D01*
X77939981Y-69769501D01*
X77837203Y-69780000D01*
X77837200Y-69780001D01*
X77670668Y-69835185D01*
X77670663Y-69835187D01*
X77521342Y-69927289D01*
X77397289Y-70051342D01*
X77305187Y-70200663D01*
X77305186Y-70200666D01*
X77250001Y-70367203D01*
X77250001Y-70367204D01*
X77250000Y-70367204D01*
X77239500Y-70469983D01*
X77239500Y-71770001D01*
X25908000Y-71770001D01*
X25908000Y-58176939D01*
X25927685Y-58109900D01*
X25980489Y-58064145D01*
X26049647Y-58054201D01*
X26104883Y-58076620D01*
X26135982Y-58099214D01*
X26192850Y-58140531D01*
X26365772Y-58217522D01*
X26365777Y-58217524D01*
X26550934Y-58256880D01*
X26550935Y-58256880D01*
X26740224Y-58256880D01*
X26740226Y-58256880D01*
X26925383Y-58217524D01*
X27098310Y-58140531D01*
X27251451Y-58029268D01*
X27254368Y-58026027D01*
X27257180Y-58022906D01*
X27316667Y-57986259D01*
X27349328Y-57981880D01*
X29105928Y-57981880D01*
X29172967Y-58001565D01*
X29193609Y-58018199D01*
X32081038Y-60905629D01*
X32114523Y-60966952D01*
X32116678Y-60980348D01*
X32124968Y-61059227D01*
X32134326Y-61148256D01*
X32134327Y-61148259D01*
X32192818Y-61328277D01*
X32192821Y-61328284D01*
X32287467Y-61492216D01*
X32393528Y-61610008D01*
X32414129Y-61632888D01*
X32567265Y-61744148D01*
X32567270Y-61744151D01*
X32740192Y-61821142D01*
X32740197Y-61821144D01*
X32925354Y-61860500D01*
X32925355Y-61860500D01*
X33114644Y-61860500D01*
X33114646Y-61860500D01*
X33299803Y-61821144D01*
X33472730Y-61744151D01*
X33625871Y-61632888D01*
X33752533Y-61492216D01*
X33847179Y-61328284D01*
X33905674Y-61148256D01*
X33925460Y-60960000D01*
X33905674Y-60771744D01*
X33847179Y-60591716D01*
X33752533Y-60427784D01*
X33625871Y-60287112D01*
X33625870Y-60287111D01*
X33472734Y-60175851D01*
X33472729Y-60175848D01*
X33299807Y-60098857D01*
X33299802Y-60098855D01*
X33154001Y-60067865D01*
X33114646Y-60059500D01*
X33114645Y-60059500D01*
X33055453Y-60059500D01*
X32988414Y-60039815D01*
X32967772Y-60023181D01*
X29917183Y-56972592D01*
X29907360Y-56960330D01*
X29907139Y-56960514D01*
X29902166Y-56954503D01*
X29851744Y-56907153D01*
X29841299Y-56896708D01*
X29830855Y-56886263D01*
X29825366Y-56882005D01*
X29820941Y-56878227D01*
X29786962Y-56846318D01*
X29786960Y-56846316D01*
X29786957Y-56846315D01*
X29769409Y-56836668D01*
X29753143Y-56825984D01*
X29737313Y-56813705D01*
X29694548Y-56795198D01*
X29689302Y-56792628D01*
X29648473Y-56770183D01*
X29648472Y-56770182D01*
X29629073Y-56765202D01*
X29610661Y-56758898D01*
X29592278Y-56750942D01*
X29592272Y-56750940D01*
X29546254Y-56743652D01*
X29540532Y-56742467D01*
X29495401Y-56730880D01*
X29495399Y-56730880D01*
X29475364Y-56730880D01*
X29455966Y-56729353D01*
X29448542Y-56728177D01*
X29436185Y-56726220D01*
X29436184Y-56726220D01*
X29389796Y-56730605D01*
X29383958Y-56730880D01*
X27349328Y-56730880D01*
X27282289Y-56711195D01*
X27257180Y-56689854D01*
X27251453Y-56683494D01*
X27251449Y-56683490D01*
X27098314Y-56572231D01*
X27098309Y-56572228D01*
X26925387Y-56495237D01*
X26925382Y-56495235D01*
X26779581Y-56464245D01*
X26740226Y-56455880D01*
X26550934Y-56455880D01*
X26518477Y-56462778D01*
X26365777Y-56495235D01*
X26365772Y-56495237D01*
X26192850Y-56572228D01*
X26192845Y-56572231D01*
X26104885Y-56636138D01*
X26039078Y-56659618D01*
X25971025Y-56643792D01*
X25922330Y-56593686D01*
X25908000Y-56535820D01*
X25908000Y-46652322D01*
X28000630Y-46652322D01*
X28010939Y-46842475D01*
X28058892Y-47015185D01*
X28061887Y-47025969D01*
X28061888Y-47025972D01*
X28105000Y-47107288D01*
X28148693Y-47189703D01*
X28151087Y-47194217D01*
X28151088Y-47194220D01*
X28274368Y-47339356D01*
X28274369Y-47339357D01*
X28425971Y-47454602D01*
X28425972Y-47454602D01*
X28425973Y-47454603D01*
X28425974Y-47454604D01*
X28510785Y-47493841D01*
X28598803Y-47534562D01*
X28598804Y-47534562D01*
X28598806Y-47534563D01*
X28655227Y-47546982D01*
X28784784Y-47575500D01*
X28784785Y-47575500D01*
X28880500Y-47575500D01*
X28947539Y-47595185D01*
X28993294Y-47647989D01*
X29004500Y-47699500D01*
X29004500Y-48950001D01*
X29004501Y-48950018D01*
X29015000Y-49052796D01*
X29015001Y-49052799D01*
X29070185Y-49219331D01*
X29070187Y-49219336D01*
X29162289Y-49368657D01*
X29286344Y-49492712D01*
X29441120Y-49588178D01*
X29487845Y-49640126D01*
X29499068Y-49709088D01*
X29471224Y-49773171D01*
X29463706Y-49781398D01*
X29316501Y-49928603D01*
X29316501Y-49928604D01*
X29180967Y-50122165D01*
X29180965Y-50122169D01*
X29081098Y-50336335D01*
X29081094Y-50336344D01*
X29019938Y-50564586D01*
X29019936Y-50564596D01*
X28999341Y-50799999D01*
X28999341Y-50800000D01*
X29019936Y-51035403D01*
X29019938Y-51035413D01*
X29081094Y-51263655D01*
X29081096Y-51263659D01*
X29081097Y-51263663D01*
X29131031Y-51370746D01*
X29180964Y-51477828D01*
X29180965Y-51477830D01*
X29316505Y-51671402D01*
X29483597Y-51838494D01*
X29640595Y-51948425D01*
X29684220Y-52003002D01*
X29691414Y-52072500D01*
X29659891Y-52134855D01*
X29640595Y-52151575D01*
X29483597Y-52261505D01*
X29316506Y-52428597D01*
X29316501Y-52428604D01*
X29180967Y-52622165D01*
X29180965Y-52622169D01*
X29081098Y-52836335D01*
X29081094Y-52836344D01*
X29019938Y-53064586D01*
X29019936Y-53064596D01*
X28999341Y-53299999D01*
X28999341Y-53300000D01*
X29019936Y-53535403D01*
X29019938Y-53535413D01*
X29081094Y-53763655D01*
X29081096Y-53763659D01*
X29081097Y-53763663D01*
X29131031Y-53870746D01*
X29180964Y-53977828D01*
X29180965Y-53977830D01*
X29316505Y-54171402D01*
X29483597Y-54338494D01*
X29677169Y-54474034D01*
X29677171Y-54474035D01*
X29891337Y-54573903D01*
X30119592Y-54635063D01*
X30296034Y-54650500D01*
X30663966Y-54650500D01*
X30840408Y-54635063D01*
X31068663Y-54573903D01*
X31282829Y-54474035D01*
X31476401Y-54338495D01*
X31643495Y-54171401D01*
X31779035Y-53977830D01*
X31878903Y-53763663D01*
X31940063Y-53535408D01*
X31960659Y-53300000D01*
X31940063Y-53064592D01*
X31878903Y-52836337D01*
X31779035Y-52622171D01*
X31779034Y-52622169D01*
X31643494Y-52428597D01*
X31476403Y-52261506D01*
X31401927Y-52209358D01*
X31319401Y-52151573D01*
X31275778Y-52096999D01*
X31268584Y-52027500D01*
X31300106Y-51965145D01*
X31319398Y-51948428D01*
X31476401Y-51838495D01*
X31643495Y-51671401D01*
X31779035Y-51477830D01*
X31878903Y-51263663D01*
X31940063Y-51035408D01*
X31960659Y-50800000D01*
X31940063Y-50564592D01*
X31878903Y-50336337D01*
X31779035Y-50122171D01*
X31779034Y-50122169D01*
X31643494Y-49928597D01*
X31496295Y-49781398D01*
X31462810Y-49720075D01*
X31467794Y-49650383D01*
X31509666Y-49594450D01*
X31518880Y-49588178D01*
X31524334Y-49584814D01*
X31673656Y-49492712D01*
X31797712Y-49368656D01*
X31889814Y-49219334D01*
X31944999Y-49052797D01*
X31955500Y-48950009D01*
X31955499Y-47752000D01*
X45322540Y-47752000D01*
X45342326Y-47940256D01*
X45342327Y-47940259D01*
X45400818Y-48120277D01*
X45400819Y-48120279D01*
X45400821Y-48120284D01*
X45495467Y-48284216D01*
X45622129Y-48424888D01*
X45726488Y-48500709D01*
X45769152Y-48556036D01*
X45777601Y-48601025D01*
X45777601Y-58326922D01*
X45775876Y-58342539D01*
X45776162Y-58342566D01*
X45775427Y-58350332D01*
X45777601Y-58419481D01*
X45777601Y-58449010D01*
X45777602Y-58449027D01*
X45778469Y-58455898D01*
X45778927Y-58461717D01*
X45780391Y-58508291D01*
X45780392Y-58508294D01*
X45785981Y-58527534D01*
X45789925Y-58546578D01*
X45792437Y-58566458D01*
X45809591Y-58609786D01*
X45811483Y-58615314D01*
X45824482Y-58660055D01*
X45834681Y-58677301D01*
X45843239Y-58694770D01*
X45850615Y-58713399D01*
X45877999Y-58751090D01*
X45881207Y-58755974D01*
X45904928Y-58796083D01*
X45904934Y-58796091D01*
X45919091Y-58810247D01*
X45931729Y-58825043D01*
X45943506Y-58841253D01*
X45943507Y-58841254D01*
X45979410Y-58870955D01*
X45983721Y-58874877D01*
X50496955Y-63388111D01*
X54740411Y-67631567D01*
X54750236Y-67643831D01*
X54750457Y-67643649D01*
X54755427Y-67649656D01*
X54755430Y-67649659D01*
X54755431Y-67649660D01*
X54805868Y-67697024D01*
X54826747Y-67717903D01*
X54832221Y-67722149D01*
X54836659Y-67725939D01*
X54870635Y-67757845D01*
X54870639Y-67757847D01*
X54888190Y-67767496D01*
X54904448Y-67778175D01*
X54920281Y-67790457D01*
X54942232Y-67799955D01*
X54963054Y-67808966D01*
X54968298Y-67811535D01*
X55009125Y-67833980D01*
X55028529Y-67838962D01*
X55046927Y-67845261D01*
X55065322Y-67853221D01*
X55111346Y-67860509D01*
X55117049Y-67861690D01*
X55162198Y-67873283D01*
X55182233Y-67873283D01*
X55201630Y-67874809D01*
X55221413Y-67877943D01*
X55267801Y-67873558D01*
X55273639Y-67873283D01*
X59898828Y-67873283D01*
X59965867Y-67892968D01*
X59990976Y-67914309D01*
X59996702Y-67920668D01*
X59996706Y-67920672D01*
X60149841Y-68031931D01*
X60149846Y-68031934D01*
X60322768Y-68108925D01*
X60322773Y-68108927D01*
X60507930Y-68148283D01*
X60507931Y-68148283D01*
X60697220Y-68148283D01*
X60697222Y-68148283D01*
X60882379Y-68108927D01*
X61055306Y-68031934D01*
X61208447Y-67920671D01*
X61335109Y-67779999D01*
X61429755Y-67616067D01*
X61488250Y-67436039D01*
X61508036Y-67247783D01*
X61488250Y-67059527D01*
X61429755Y-66879499D01*
X61335109Y-66715567D01*
X61208447Y-66574895D01*
X61208446Y-66574894D01*
X61055310Y-66463634D01*
X61055305Y-66463631D01*
X60882383Y-66386640D01*
X60882378Y-66386638D01*
X60736577Y-66355648D01*
X60697222Y-66347283D01*
X60507930Y-66347283D01*
X60475473Y-66354181D01*
X60322773Y-66386638D01*
X60322768Y-66386640D01*
X60149846Y-66463631D01*
X60149841Y-66463634D01*
X59996706Y-66574893D01*
X59996702Y-66574897D01*
X59990976Y-66581257D01*
X59931489Y-66617904D01*
X59898828Y-66622283D01*
X56798401Y-66622283D01*
X56731362Y-66602598D01*
X56685607Y-66549794D01*
X56675663Y-66480636D01*
X56691013Y-66436284D01*
X56707179Y-66408284D01*
X56765674Y-66228256D01*
X56785460Y-66040000D01*
X56765674Y-65851744D01*
X56707179Y-65671716D01*
X56612533Y-65507784D01*
X56485871Y-65367112D01*
X56485870Y-65367111D01*
X56332734Y-65255851D01*
X56332729Y-65255848D01*
X56159807Y-65178857D01*
X56159802Y-65178855D01*
X56014001Y-65147865D01*
X55974646Y-65139500D01*
X55974645Y-65139500D01*
X55915452Y-65139500D01*
X55848413Y-65119815D01*
X55827771Y-65103181D01*
X55003564Y-64278973D01*
X54970079Y-64217650D01*
X54967245Y-64191292D01*
X54967245Y-61610001D01*
X77239500Y-61610001D01*
X77239501Y-61610018D01*
X77250000Y-61712796D01*
X77250001Y-61712799D01*
X77305185Y-61879331D01*
X77305187Y-61879336D01*
X77397289Y-62028657D01*
X77521344Y-62152712D01*
X77676558Y-62248448D01*
X77723283Y-62300396D01*
X77734506Y-62369358D01*
X77706663Y-62433441D01*
X77699144Y-62441668D01*
X77551891Y-62588921D01*
X77416399Y-62782421D01*
X77316570Y-62996507D01*
X77316567Y-62996513D01*
X77259364Y-63209999D01*
X77259364Y-63210000D01*
X78306314Y-63210000D01*
X78280507Y-63250156D01*
X78240000Y-63388111D01*
X78240000Y-63531889D01*
X78280507Y-63669844D01*
X78306314Y-63710000D01*
X77259364Y-63710000D01*
X77316567Y-63923486D01*
X77316570Y-63923492D01*
X77416399Y-64137577D01*
X77416400Y-64137579D01*
X77551886Y-64331073D01*
X77551891Y-64331079D01*
X77718920Y-64498108D01*
X77718926Y-64498113D01*
X77912420Y-64633599D01*
X77912422Y-64633600D01*
X78126507Y-64733429D01*
X78126516Y-64733433D01*
X78354673Y-64794567D01*
X78354684Y-64794569D01*
X78489999Y-64806407D01*
X78490000Y-64806407D01*
X78490000Y-63895501D01*
X78597685Y-63944680D01*
X78704237Y-63960000D01*
X78775763Y-63960000D01*
X78882315Y-63944680D01*
X78990000Y-63895501D01*
X78990000Y-64806407D01*
X79125315Y-64794569D01*
X79125326Y-64794567D01*
X79353483Y-64733433D01*
X79353492Y-64733429D01*
X79567577Y-64633600D01*
X79567579Y-64633599D01*
X79761073Y-64498113D01*
X79761079Y-64498108D01*
X79928105Y-64331082D01*
X80063600Y-64137578D01*
X80163429Y-63923492D01*
X80163432Y-63923486D01*
X80220636Y-63710000D01*
X79173686Y-63710000D01*
X79199493Y-63669844D01*
X79240000Y-63531889D01*
X79240000Y-63388111D01*
X79199493Y-63250156D01*
X79173686Y-63210000D01*
X80220636Y-63210000D01*
X80220635Y-63209999D01*
X80163432Y-62996513D01*
X80163429Y-62996507D01*
X80063600Y-62782422D01*
X80063599Y-62782420D01*
X79928113Y-62588926D01*
X79780856Y-62441668D01*
X79747372Y-62380345D01*
X79752356Y-62310653D01*
X79794228Y-62254720D01*
X79803442Y-62248448D01*
X79809334Y-62244814D01*
X79958656Y-62152712D01*
X80082712Y-62028656D01*
X80174814Y-61879334D01*
X80229999Y-61712797D01*
X80240500Y-61610009D01*
X80240499Y-60309992D01*
X80229999Y-60207203D01*
X80174814Y-60040666D01*
X80082712Y-59891344D01*
X79958656Y-59767288D01*
X79809334Y-59675186D01*
X79642797Y-59620001D01*
X79642795Y-59620000D01*
X79540010Y-59609500D01*
X77939998Y-59609500D01*
X77939981Y-59609501D01*
X77837203Y-59620000D01*
X77837200Y-59620001D01*
X77670668Y-59675185D01*
X77670663Y-59675187D01*
X77521342Y-59767289D01*
X77397289Y-59891342D01*
X77305187Y-60040663D01*
X77305186Y-60040666D01*
X77250001Y-60207203D01*
X77250001Y-60207204D01*
X77250000Y-60207204D01*
X77239500Y-60309983D01*
X77239500Y-61610001D01*
X54967245Y-61610001D01*
X54967245Y-53340000D01*
X60054540Y-53340000D01*
X60074326Y-53528256D01*
X60074327Y-53528259D01*
X60132818Y-53708277D01*
X60132821Y-53708284D01*
X60227467Y-53872216D01*
X60322335Y-53977577D01*
X60354129Y-54012888D01*
X60507265Y-54124148D01*
X60507270Y-54124151D01*
X60680192Y-54201142D01*
X60680197Y-54201144D01*
X60865354Y-54240500D01*
X60865355Y-54240500D01*
X61054644Y-54240500D01*
X61054646Y-54240500D01*
X61239803Y-54201144D01*
X61412730Y-54124151D01*
X61565871Y-54012888D01*
X61692533Y-53872216D01*
X61787179Y-53708284D01*
X61845674Y-53528256D01*
X61865460Y-53340000D01*
X61845674Y-53151744D01*
X61787179Y-52971716D01*
X61692533Y-52807784D01*
X61685524Y-52800000D01*
X61617350Y-52724284D01*
X61587120Y-52661292D01*
X61585500Y-52641312D01*
X61585500Y-51450001D01*
X77239500Y-51450001D01*
X77239501Y-51450018D01*
X77250000Y-51552796D01*
X77250001Y-51552799D01*
X77289303Y-51671402D01*
X77305186Y-51719334D01*
X77378683Y-51838493D01*
X77397289Y-51868657D01*
X77521344Y-51992712D01*
X77676558Y-52088448D01*
X77723283Y-52140396D01*
X77734506Y-52209358D01*
X77706663Y-52273441D01*
X77699144Y-52281668D01*
X77551891Y-52428921D01*
X77416399Y-52622421D01*
X77316570Y-52836507D01*
X77316567Y-52836513D01*
X77259364Y-53049999D01*
X77259364Y-53050000D01*
X78306314Y-53050000D01*
X78280507Y-53090156D01*
X78240000Y-53228111D01*
X78240000Y-53371889D01*
X78280507Y-53509844D01*
X78306314Y-53550000D01*
X77259364Y-53550000D01*
X77316567Y-53763486D01*
X77316570Y-53763492D01*
X77416399Y-53977577D01*
X77416400Y-53977579D01*
X77551886Y-54171073D01*
X77551891Y-54171079D01*
X77718920Y-54338108D01*
X77718926Y-54338113D01*
X77912420Y-54473599D01*
X77912422Y-54473600D01*
X78126507Y-54573429D01*
X78126516Y-54573433D01*
X78354673Y-54634567D01*
X78354684Y-54634569D01*
X78489999Y-54646407D01*
X78490000Y-54646407D01*
X78490000Y-53735501D01*
X78597685Y-53784680D01*
X78704237Y-53800000D01*
X78775763Y-53800000D01*
X78882315Y-53784680D01*
X78990000Y-53735501D01*
X78990000Y-54646407D01*
X79125315Y-54634569D01*
X79125326Y-54634567D01*
X79353483Y-54573433D01*
X79353492Y-54573429D01*
X79567577Y-54473600D01*
X79567579Y-54473599D01*
X79761073Y-54338113D01*
X79761079Y-54338108D01*
X79928105Y-54171082D01*
X80063600Y-53977578D01*
X80163429Y-53763492D01*
X80163432Y-53763486D01*
X80220636Y-53550000D01*
X79173686Y-53550000D01*
X79199493Y-53509844D01*
X79240000Y-53371889D01*
X79240000Y-53228111D01*
X79199493Y-53090156D01*
X79173686Y-53050000D01*
X80220636Y-53050000D01*
X80220635Y-53049999D01*
X80163432Y-52836513D01*
X80163429Y-52836507D01*
X80063600Y-52622422D01*
X80063599Y-52622420D01*
X79928113Y-52428926D01*
X79780856Y-52281668D01*
X79747372Y-52220345D01*
X79752356Y-52150653D01*
X79794228Y-52094720D01*
X79803442Y-52088448D01*
X79829298Y-52072500D01*
X79958656Y-51992712D01*
X80082712Y-51868656D01*
X80174814Y-51719334D01*
X80229999Y-51552797D01*
X80240500Y-51450009D01*
X80240499Y-50149992D01*
X80237916Y-50124710D01*
X80229999Y-50047203D01*
X80229998Y-50047200D01*
X80190699Y-49928604D01*
X80174814Y-49880666D01*
X80082712Y-49731344D01*
X79958656Y-49607288D01*
X79809334Y-49515186D01*
X79642797Y-49460001D01*
X79642795Y-49460000D01*
X79540010Y-49449500D01*
X77939998Y-49449500D01*
X77939981Y-49449501D01*
X77837203Y-49460000D01*
X77837200Y-49460001D01*
X77670668Y-49515185D01*
X77670663Y-49515187D01*
X77521342Y-49607289D01*
X77397289Y-49731342D01*
X77305187Y-49880663D01*
X77305185Y-49880668D01*
X77289301Y-49928603D01*
X77250001Y-50047203D01*
X77250001Y-50047204D01*
X77250000Y-50047204D01*
X77239500Y-50149983D01*
X77239500Y-51450001D01*
X61585500Y-51450001D01*
X61585500Y-48958687D01*
X61605185Y-48891648D01*
X61617350Y-48875715D01*
X61635891Y-48855122D01*
X61692533Y-48792216D01*
X61787179Y-48628284D01*
X61845674Y-48448256D01*
X61865460Y-48260000D01*
X61845674Y-48071744D01*
X61787179Y-47891716D01*
X61692533Y-47727784D01*
X61565871Y-47587112D01*
X61565870Y-47587111D01*
X61412734Y-47475851D01*
X61412729Y-47475848D01*
X61239807Y-47398857D01*
X61239802Y-47398855D01*
X61094001Y-47367865D01*
X61054646Y-47359500D01*
X60865354Y-47359500D01*
X60832897Y-47366398D01*
X60680197Y-47398855D01*
X60680192Y-47398857D01*
X60507270Y-47475848D01*
X60507265Y-47475851D01*
X60354129Y-47587111D01*
X60227466Y-47727785D01*
X60132821Y-47891715D01*
X60132818Y-47891722D01*
X60074327Y-48071740D01*
X60074326Y-48071744D01*
X60054540Y-48260000D01*
X60074326Y-48448256D01*
X60074327Y-48448259D01*
X60132818Y-48628277D01*
X60132821Y-48628284D01*
X60227467Y-48792216D01*
X60270772Y-48840310D01*
X60302650Y-48875715D01*
X60332880Y-48938706D01*
X60334500Y-48958687D01*
X60334500Y-52641312D01*
X60314815Y-52708351D01*
X60302650Y-52724284D01*
X60227466Y-52807784D01*
X60132821Y-52971715D01*
X60132818Y-52971722D01*
X60102642Y-53064596D01*
X60074326Y-53151744D01*
X60054540Y-53340000D01*
X54967245Y-53340000D01*
X54967245Y-41290001D01*
X77239500Y-41290001D01*
X77239501Y-41290018D01*
X77250000Y-41392796D01*
X77250001Y-41392799D01*
X77305185Y-41559331D01*
X77305187Y-41559336D01*
X77397289Y-41708657D01*
X77521344Y-41832712D01*
X77676558Y-41928448D01*
X77723283Y-41980396D01*
X77734506Y-42049358D01*
X77706663Y-42113441D01*
X77699144Y-42121668D01*
X77551891Y-42268921D01*
X77416399Y-42462421D01*
X77316570Y-42676507D01*
X77316567Y-42676513D01*
X77259364Y-42889999D01*
X77259364Y-42890000D01*
X78306314Y-42890000D01*
X78280507Y-42930156D01*
X78240000Y-43068111D01*
X78240000Y-43211889D01*
X78280507Y-43349844D01*
X78306314Y-43390000D01*
X77259364Y-43390000D01*
X77316567Y-43603486D01*
X77316570Y-43603492D01*
X77416399Y-43817577D01*
X77416400Y-43817579D01*
X77551886Y-44011073D01*
X77551891Y-44011079D01*
X77718920Y-44178108D01*
X77718926Y-44178113D01*
X77912420Y-44313599D01*
X77912422Y-44313600D01*
X78126507Y-44413429D01*
X78126516Y-44413433D01*
X78354673Y-44474567D01*
X78354684Y-44474569D01*
X78489999Y-44486407D01*
X78490000Y-44486407D01*
X78490000Y-43575501D01*
X78597685Y-43624680D01*
X78704237Y-43640000D01*
X78775763Y-43640000D01*
X78882315Y-43624680D01*
X78990000Y-43575501D01*
X78990000Y-44486407D01*
X79125315Y-44474569D01*
X79125326Y-44474567D01*
X79353483Y-44413433D01*
X79353492Y-44413429D01*
X79567577Y-44313600D01*
X79567579Y-44313599D01*
X79761073Y-44178113D01*
X79761079Y-44178108D01*
X79928105Y-44011082D01*
X80063600Y-43817578D01*
X80163429Y-43603492D01*
X80163432Y-43603486D01*
X80220636Y-43390000D01*
X79173686Y-43390000D01*
X79199493Y-43349844D01*
X79240000Y-43211889D01*
X79240000Y-43068111D01*
X79199493Y-42930156D01*
X79173686Y-42890000D01*
X80220636Y-42890000D01*
X80220635Y-42889999D01*
X80163432Y-42676513D01*
X80163429Y-42676507D01*
X80063600Y-42462422D01*
X80063599Y-42462420D01*
X79928113Y-42268926D01*
X79780856Y-42121668D01*
X79747372Y-42060345D01*
X79752356Y-41990653D01*
X79794228Y-41934720D01*
X79803442Y-41928448D01*
X79809334Y-41924814D01*
X79958656Y-41832712D01*
X80082712Y-41708656D01*
X80174814Y-41559334D01*
X80229999Y-41392797D01*
X80240500Y-41290009D01*
X80240499Y-39989992D01*
X80229999Y-39887203D01*
X80174814Y-39720666D01*
X80082712Y-39571344D01*
X79958656Y-39447288D01*
X79809334Y-39355186D01*
X79642797Y-39300001D01*
X79642795Y-39300000D01*
X79540010Y-39289500D01*
X77939998Y-39289500D01*
X77939981Y-39289501D01*
X77837203Y-39300000D01*
X77837200Y-39300001D01*
X77670668Y-39355185D01*
X77670663Y-39355187D01*
X77521342Y-39447289D01*
X77397289Y-39571342D01*
X77305187Y-39720663D01*
X77305186Y-39720666D01*
X77250001Y-39887203D01*
X77250001Y-39887204D01*
X77250000Y-39887204D01*
X77239500Y-39989983D01*
X77239500Y-41290001D01*
X54967245Y-41290001D01*
X54967245Y-39930404D01*
X54986930Y-39863365D01*
X54999095Y-39847432D01*
X55017636Y-39826839D01*
X55074278Y-39763933D01*
X55168924Y-39600001D01*
X55227419Y-39419973D01*
X55247205Y-39231717D01*
X55227419Y-39043461D01*
X55168924Y-38863433D01*
X55074278Y-38699501D01*
X54947616Y-38558829D01*
X54947615Y-38558828D01*
X54794479Y-38447568D01*
X54794474Y-38447565D01*
X54621552Y-38370574D01*
X54621547Y-38370572D01*
X54475746Y-38339582D01*
X54436391Y-38331217D01*
X54436390Y-38331217D01*
X54377197Y-38331217D01*
X54310158Y-38311532D01*
X54289516Y-38294898D01*
X50925147Y-34930528D01*
X50891662Y-34869205D01*
X50894896Y-34804531D01*
X50914710Y-34743553D01*
X50934496Y-34555297D01*
X50914710Y-34367041D01*
X50856215Y-34187013D01*
X50761569Y-34023081D01*
X50634907Y-33882409D01*
X50634906Y-33882408D01*
X50481770Y-33771148D01*
X50481765Y-33771145D01*
X50308843Y-33694154D01*
X50308838Y-33694152D01*
X50136770Y-33657579D01*
X50123682Y-33654797D01*
X49934390Y-33654797D01*
X49921302Y-33657579D01*
X49749233Y-33694152D01*
X49749228Y-33694154D01*
X49576306Y-33771145D01*
X49576301Y-33771148D01*
X49423165Y-33882408D01*
X49296502Y-34023082D01*
X49201857Y-34187012D01*
X49201854Y-34187019D01*
X49150210Y-34345965D01*
X49143362Y-34367041D01*
X49123576Y-34555297D01*
X49143362Y-34743553D01*
X49143363Y-34743556D01*
X49201854Y-34923574D01*
X49201857Y-34923581D01*
X49296503Y-35087513D01*
X49423165Y-35228185D01*
X49423169Y-35228189D01*
X49526648Y-35303369D01*
X49541445Y-35316007D01*
X49545027Y-35319589D01*
X49557662Y-35334382D01*
X49569440Y-35350592D01*
X49569442Y-35350595D01*
X49605345Y-35380296D01*
X49609656Y-35384218D01*
X52520336Y-38294898D01*
X53402783Y-39177345D01*
X53436268Y-39238668D01*
X53438423Y-39252064D01*
X53443462Y-39300001D01*
X53456071Y-39419973D01*
X53456072Y-39419976D01*
X53514563Y-39599994D01*
X53514566Y-39600001D01*
X53609212Y-39763933D01*
X53652517Y-39812027D01*
X53684395Y-39847432D01*
X53714625Y-39910423D01*
X53716245Y-39930404D01*
X53716245Y-64419000D01*
X53714520Y-64434617D01*
X53714806Y-64434644D01*
X53714071Y-64442410D01*
X53716245Y-64511559D01*
X53716245Y-64538858D01*
X53696560Y-64605897D01*
X53643756Y-64651652D01*
X53574598Y-64661596D01*
X53511042Y-64632571D01*
X53504564Y-64626539D01*
X47064920Y-58186895D01*
X47031435Y-58125572D01*
X47028601Y-58099214D01*
X47028601Y-49224210D01*
X47896091Y-49224210D01*
X47915877Y-49412466D01*
X47915878Y-49412469D01*
X47974369Y-49592487D01*
X47974372Y-49592494D01*
X48069018Y-49756426D01*
X48180882Y-49880663D01*
X48195680Y-49897098D01*
X48348816Y-50008358D01*
X48348821Y-50008361D01*
X48521743Y-50085352D01*
X48521748Y-50085354D01*
X48706905Y-50124710D01*
X48706906Y-50124710D01*
X48896195Y-50124710D01*
X48896197Y-50124710D01*
X49081354Y-50085354D01*
X49254281Y-50008361D01*
X49407422Y-49897098D01*
X49534084Y-49756426D01*
X49628730Y-49592494D01*
X49687225Y-49412466D01*
X49707011Y-49224210D01*
X49687225Y-49035954D01*
X49628730Y-48855926D01*
X49534084Y-48691994D01*
X49458901Y-48608494D01*
X49428671Y-48545502D01*
X49427051Y-48525522D01*
X49427051Y-48213276D01*
X49446736Y-48146237D01*
X49463370Y-48125595D01*
X50249609Y-47339356D01*
X51127105Y-46461859D01*
X51188426Y-46428376D01*
X51258118Y-46433360D01*
X51287666Y-46449222D01*
X51363266Y-46504148D01*
X51363270Y-46504151D01*
X51536192Y-46581142D01*
X51536197Y-46581144D01*
X51721354Y-46620500D01*
X51721355Y-46620500D01*
X51910644Y-46620500D01*
X51910646Y-46620500D01*
X52095803Y-46581144D01*
X52268730Y-46504151D01*
X52421871Y-46392888D01*
X52548533Y-46252216D01*
X52643179Y-46088284D01*
X52701674Y-45908256D01*
X52721460Y-45720000D01*
X52701674Y-45531744D01*
X52643179Y-45351716D01*
X52548533Y-45187784D01*
X52421871Y-45047112D01*
X52421870Y-45047111D01*
X52268734Y-44935851D01*
X52268729Y-44935848D01*
X52095807Y-44858857D01*
X52095802Y-44858855D01*
X51950001Y-44827865D01*
X51910646Y-44819500D01*
X51721354Y-44819500D01*
X51688897Y-44826398D01*
X51536197Y-44858855D01*
X51536192Y-44858857D01*
X51363270Y-44935848D01*
X51363265Y-44935851D01*
X51210130Y-45047110D01*
X51210126Y-45047114D01*
X51204400Y-45053474D01*
X51144913Y-45090121D01*
X51112252Y-45094500D01*
X51067112Y-45094500D01*
X51051495Y-45092776D01*
X51051468Y-45093062D01*
X51043706Y-45092327D01*
X50974578Y-45094500D01*
X50945025Y-45094500D01*
X50944304Y-45094590D01*
X50938132Y-45095369D01*
X50932320Y-45095826D01*
X50885753Y-45097290D01*
X50885742Y-45097292D01*
X50866509Y-45102879D01*
X50847469Y-45106822D01*
X50827592Y-45109334D01*
X50827585Y-45109335D01*
X50827583Y-45109336D01*
X50827581Y-45109336D01*
X50827580Y-45109337D01*
X50784243Y-45126494D01*
X50778717Y-45128386D01*
X50733986Y-45141382D01*
X50733983Y-45141383D01*
X50716738Y-45151581D01*
X50699276Y-45160135D01*
X50680647Y-45167511D01*
X50680642Y-45167513D01*
X50642939Y-45194906D01*
X50638057Y-45198112D01*
X50597955Y-45221828D01*
X50583783Y-45236000D01*
X50568998Y-45248628D01*
X50552787Y-45260407D01*
X50523084Y-45296310D01*
X50519152Y-45300631D01*
X48417759Y-47402023D01*
X48405502Y-47411844D01*
X48405685Y-47412065D01*
X48399674Y-47417037D01*
X48352323Y-47467460D01*
X48331440Y-47488343D01*
X48331428Y-47488356D01*
X48327172Y-47493841D01*
X48323388Y-47498271D01*
X48291488Y-47532242D01*
X48291487Y-47532244D01*
X48281835Y-47549800D01*
X48271161Y-47566050D01*
X48258880Y-47581885D01*
X48258875Y-47581892D01*
X48240366Y-47624662D01*
X48237796Y-47629908D01*
X48215354Y-47670730D01*
X48210373Y-47690131D01*
X48204072Y-47708534D01*
X48196113Y-47726926D01*
X48196112Y-47726929D01*
X48188822Y-47772951D01*
X48187638Y-47778670D01*
X48176052Y-47823796D01*
X48176051Y-47823806D01*
X48176051Y-47843840D01*
X48174524Y-47863239D01*
X48171391Y-47883018D01*
X48171391Y-47883019D01*
X48175776Y-47929407D01*
X48176051Y-47935245D01*
X48176051Y-48525522D01*
X48156366Y-48592561D01*
X48144201Y-48608494D01*
X48069017Y-48691994D01*
X47974372Y-48855925D01*
X47974369Y-48855932D01*
X47915878Y-49035950D01*
X47915877Y-49035954D01*
X47896091Y-49224210D01*
X47028601Y-49224210D01*
X47028601Y-48199543D01*
X47045213Y-48137545D01*
X47055179Y-48120284D01*
X47113674Y-47940256D01*
X47133460Y-47752000D01*
X47113674Y-47563744D01*
X47055179Y-47383716D01*
X46960533Y-47219784D01*
X46933443Y-47189698D01*
X46929368Y-47184666D01*
X46862695Y-47092898D01*
X46862695Y-47092897D01*
X46740922Y-46992159D01*
X46597928Y-46924871D01*
X46597928Y-46924870D01*
X46587998Y-46922976D01*
X46560807Y-46914454D01*
X46507806Y-46890857D01*
X46507801Y-46890855D01*
X46372624Y-46862123D01*
X46322646Y-46851500D01*
X46133354Y-46851500D01*
X46100897Y-46858398D01*
X45948197Y-46890855D01*
X45948192Y-46890857D01*
X45775270Y-46967848D01*
X45775265Y-46967851D01*
X45622129Y-47079111D01*
X45495466Y-47219785D01*
X45400821Y-47383715D01*
X45400818Y-47383722D01*
X45344079Y-47558349D01*
X45342326Y-47563744D01*
X45322540Y-47752000D01*
X31955499Y-47752000D01*
X31955499Y-47649992D01*
X31955294Y-47647989D01*
X31944999Y-47547203D01*
X31944998Y-47547200D01*
X31889814Y-47380666D01*
X31797712Y-47231344D01*
X31673656Y-47107288D01*
X31524334Y-47015186D01*
X31357797Y-46960001D01*
X31357795Y-46960000D01*
X31255016Y-46949500D01*
X31255009Y-46949500D01*
X29872267Y-46949500D01*
X29805228Y-46929815D01*
X29759473Y-46877011D01*
X29749529Y-46807853D01*
X29749888Y-46805511D01*
X29759370Y-46747678D01*
X29749061Y-46557525D01*
X29698114Y-46374033D01*
X29608914Y-46205784D01*
X29608911Y-46205781D01*
X29608911Y-46205779D01*
X29485631Y-46060643D01*
X29334026Y-45945396D01*
X29334025Y-45945395D01*
X29161193Y-45865436D01*
X28975216Y-45824500D01*
X28832535Y-45824500D01*
X28832533Y-45824500D01*
X28690683Y-45839927D01*
X28510217Y-45900734D01*
X28347048Y-45998909D01*
X28208791Y-46129872D01*
X28101922Y-46287493D01*
X28031438Y-46464393D01*
X28016171Y-46557523D01*
X28000630Y-46652322D01*
X25908000Y-46652322D01*
X25908000Y-45720000D01*
X32114540Y-45720000D01*
X32134326Y-45908256D01*
X32134327Y-45908259D01*
X32192818Y-46088277D01*
X32192821Y-46088284D01*
X32287467Y-46252216D01*
X32397149Y-46374030D01*
X32414129Y-46392888D01*
X32567265Y-46504148D01*
X32567270Y-46504151D01*
X32740192Y-46581142D01*
X32740197Y-46581144D01*
X32925354Y-46620500D01*
X32925355Y-46620500D01*
X33114644Y-46620500D01*
X33114646Y-46620500D01*
X33299803Y-46581144D01*
X33472730Y-46504151D01*
X33625871Y-46392888D01*
X33752533Y-46252216D01*
X33847179Y-46088284D01*
X33905674Y-45908256D01*
X33923321Y-45740344D01*
X33949904Y-45675734D01*
X33958951Y-45665638D01*
X35507772Y-44116819D01*
X35569095Y-44083334D01*
X35595453Y-44080500D01*
X35654644Y-44080500D01*
X35654646Y-44080500D01*
X35839803Y-44041144D01*
X36012730Y-43964151D01*
X36165871Y-43852888D01*
X36292533Y-43712216D01*
X36387179Y-43548284D01*
X36445674Y-43368256D01*
X36465460Y-43180000D01*
X36445674Y-42991744D01*
X36387179Y-42811716D01*
X36292533Y-42647784D01*
X36165871Y-42507112D01*
X36165870Y-42507111D01*
X36012734Y-42395851D01*
X36012729Y-42395848D01*
X35839807Y-42318857D01*
X35839802Y-42318855D01*
X35694001Y-42287865D01*
X35654646Y-42279500D01*
X35465354Y-42279500D01*
X35432897Y-42286398D01*
X35280197Y-42318855D01*
X35280192Y-42318857D01*
X35107270Y-42395848D01*
X35107265Y-42395851D01*
X34954129Y-42507111D01*
X34827466Y-42647785D01*
X34732821Y-42811715D01*
X34732818Y-42811722D01*
X34694337Y-42930156D01*
X34674326Y-42991744D01*
X34666300Y-43068111D01*
X34656679Y-43159649D01*
X34630094Y-43224263D01*
X34621039Y-43234368D01*
X33072228Y-44783181D01*
X33010905Y-44816666D01*
X32984547Y-44819500D01*
X32925354Y-44819500D01*
X32892897Y-44826398D01*
X32740197Y-44858855D01*
X32740192Y-44858857D01*
X32567270Y-44935848D01*
X32567265Y-44935851D01*
X32414129Y-45047111D01*
X32287466Y-45187785D01*
X32192821Y-45351715D01*
X32192818Y-45351722D01*
X32134327Y-45531740D01*
X32134326Y-45531744D01*
X32114540Y-45720000D01*
X25908000Y-45720000D01*
X25908000Y-28872322D01*
X28000630Y-28872322D01*
X28010939Y-29062475D01*
X28058892Y-29235185D01*
X28061887Y-29245969D01*
X28061888Y-29245972D01*
X28105000Y-29327288D01*
X28149563Y-29411344D01*
X28151087Y-29414217D01*
X28151088Y-29414220D01*
X28274368Y-29559356D01*
X28274369Y-29559357D01*
X28425971Y-29674602D01*
X28425972Y-29674602D01*
X28425973Y-29674603D01*
X28425974Y-29674604D01*
X28531758Y-29723543D01*
X28598803Y-29754562D01*
X28598804Y-29754562D01*
X28598806Y-29754563D01*
X28655227Y-29766982D01*
X28784784Y-29795500D01*
X28784785Y-29795500D01*
X28880500Y-29795500D01*
X28947539Y-29815185D01*
X28993294Y-29867989D01*
X29004500Y-29919500D01*
X29004500Y-31170001D01*
X29004501Y-31170018D01*
X29015000Y-31272796D01*
X29015001Y-31272799D01*
X29070185Y-31439331D01*
X29070187Y-31439336D01*
X29162289Y-31588657D01*
X29286344Y-31712712D01*
X29441558Y-31808448D01*
X29488283Y-31860396D01*
X29499506Y-31929358D01*
X29471663Y-31993441D01*
X29464144Y-32001668D01*
X29316891Y-32148921D01*
X29181399Y-32342421D01*
X29081570Y-32556507D01*
X29081567Y-32556513D01*
X29024364Y-32769999D01*
X29024364Y-32770000D01*
X30076031Y-32770000D01*
X30043481Y-32820649D01*
X30005000Y-32951705D01*
X30005000Y-33088295D01*
X30043481Y-33219351D01*
X30076031Y-33270000D01*
X29024364Y-33270000D01*
X29081567Y-33483486D01*
X29081570Y-33483492D01*
X29181399Y-33697577D01*
X29181400Y-33697579D01*
X29316886Y-33891073D01*
X29316891Y-33891079D01*
X29483920Y-34058108D01*
X29483926Y-34058113D01*
X29641031Y-34168119D01*
X29684656Y-34222696D01*
X29691850Y-34292194D01*
X29660327Y-34354549D01*
X29641032Y-34371269D01*
X29483594Y-34481508D01*
X29316506Y-34648597D01*
X29316501Y-34648604D01*
X29180967Y-34842165D01*
X29180965Y-34842169D01*
X29081098Y-35056335D01*
X29081094Y-35056344D01*
X29019938Y-35284586D01*
X29019936Y-35284596D01*
X28999341Y-35519999D01*
X28999341Y-35520000D01*
X29019936Y-35755403D01*
X29019938Y-35755413D01*
X29081094Y-35983655D01*
X29081096Y-35983659D01*
X29081097Y-35983663D01*
X29131031Y-36090746D01*
X29180964Y-36197828D01*
X29180965Y-36197830D01*
X29316505Y-36391402D01*
X29483597Y-36558494D01*
X29677169Y-36694034D01*
X29677171Y-36694035D01*
X29891337Y-36793903D01*
X30119592Y-36855063D01*
X30296034Y-36870500D01*
X30663966Y-36870500D01*
X30840408Y-36855063D01*
X31068663Y-36793903D01*
X31282829Y-36694035D01*
X31476401Y-36558495D01*
X31643495Y-36391401D01*
X31779035Y-36197830D01*
X31878903Y-35983663D01*
X31940063Y-35755408D01*
X31960659Y-35520000D01*
X31940063Y-35284592D01*
X31893626Y-35111285D01*
X31878905Y-35056344D01*
X31878904Y-35056343D01*
X31878903Y-35056337D01*
X31779035Y-34842171D01*
X31779034Y-34842169D01*
X31643494Y-34648597D01*
X31476403Y-34481506D01*
X31318967Y-34371269D01*
X31275342Y-34316692D01*
X31268148Y-34247194D01*
X31299671Y-34184839D01*
X31318967Y-34168119D01*
X31476073Y-34058113D01*
X31476079Y-34058108D01*
X31643105Y-33891082D01*
X31778600Y-33697578D01*
X31878429Y-33483492D01*
X31878432Y-33483486D01*
X31935636Y-33270000D01*
X30883969Y-33270000D01*
X30916519Y-33219351D01*
X30955000Y-33088295D01*
X30955000Y-32951705D01*
X30916519Y-32820649D01*
X30883969Y-32770000D01*
X31935636Y-32770000D01*
X31935635Y-32769999D01*
X31878432Y-32556513D01*
X31878429Y-32556507D01*
X31778600Y-32342422D01*
X31778599Y-32342420D01*
X31643113Y-32148926D01*
X31495856Y-32001668D01*
X31462372Y-31940345D01*
X31467356Y-31870653D01*
X31509228Y-31814720D01*
X31518442Y-31808448D01*
X31573124Y-31774720D01*
X31673656Y-31712712D01*
X31797712Y-31588656D01*
X31889814Y-31439334D01*
X31944999Y-31272797D01*
X31955500Y-31170009D01*
X31955500Y-31130001D01*
X77239500Y-31130001D01*
X77239501Y-31130018D01*
X77250000Y-31232796D01*
X77250001Y-31232799D01*
X77305185Y-31399331D01*
X77305187Y-31399336D01*
X77397289Y-31548657D01*
X77521344Y-31672712D01*
X77676558Y-31768448D01*
X77723283Y-31820396D01*
X77734506Y-31889358D01*
X77706663Y-31953441D01*
X77699144Y-31961668D01*
X77551891Y-32108921D01*
X77416399Y-32302421D01*
X77316570Y-32516507D01*
X77316567Y-32516513D01*
X77259364Y-32729999D01*
X77259364Y-32730000D01*
X78306314Y-32730000D01*
X78280507Y-32770156D01*
X78240000Y-32908111D01*
X78240000Y-33051889D01*
X78280507Y-33189844D01*
X78306314Y-33230000D01*
X77259364Y-33230000D01*
X77316567Y-33443486D01*
X77316570Y-33443492D01*
X77416399Y-33657577D01*
X77416400Y-33657579D01*
X77551886Y-33851073D01*
X77551891Y-33851079D01*
X77718920Y-34018108D01*
X77718926Y-34018113D01*
X77912420Y-34153599D01*
X77912422Y-34153600D01*
X78126507Y-34253429D01*
X78126516Y-34253433D01*
X78354673Y-34314567D01*
X78354684Y-34314569D01*
X78489999Y-34326407D01*
X78490000Y-34326407D01*
X78490000Y-33415501D01*
X78597685Y-33464680D01*
X78704237Y-33480000D01*
X78775763Y-33480000D01*
X78882315Y-33464680D01*
X78990000Y-33415501D01*
X78990000Y-34326407D01*
X79125315Y-34314569D01*
X79125326Y-34314567D01*
X79353483Y-34253433D01*
X79353492Y-34253429D01*
X79567577Y-34153600D01*
X79567579Y-34153599D01*
X79761073Y-34018113D01*
X79761079Y-34018108D01*
X79928105Y-33851082D01*
X80063600Y-33657578D01*
X80163429Y-33443492D01*
X80163432Y-33443486D01*
X80220636Y-33230000D01*
X79173686Y-33230000D01*
X79199493Y-33189844D01*
X79240000Y-33051889D01*
X79240000Y-32908111D01*
X79199493Y-32770156D01*
X79173686Y-32730000D01*
X80220636Y-32730000D01*
X80220635Y-32729999D01*
X80163432Y-32516513D01*
X80163429Y-32516507D01*
X80063600Y-32302422D01*
X80063599Y-32302420D01*
X79928113Y-32108926D01*
X79780856Y-31961668D01*
X79747372Y-31900345D01*
X79752356Y-31830653D01*
X79794228Y-31774720D01*
X79803442Y-31768448D01*
X79893805Y-31712712D01*
X79958656Y-31672712D01*
X80082712Y-31548656D01*
X80174814Y-31399334D01*
X80229999Y-31232797D01*
X80240500Y-31130009D01*
X80240499Y-29829992D01*
X80238986Y-29815185D01*
X80229999Y-29727203D01*
X80229998Y-29727200D01*
X80188069Y-29600668D01*
X80174814Y-29560666D01*
X80082712Y-29411344D01*
X79958656Y-29287288D01*
X79809334Y-29195186D01*
X79642797Y-29140001D01*
X79642795Y-29140000D01*
X79540010Y-29129500D01*
X77939998Y-29129500D01*
X77939981Y-29129501D01*
X77837203Y-29140000D01*
X77837200Y-29140001D01*
X77670668Y-29195185D01*
X77670663Y-29195187D01*
X77521342Y-29287289D01*
X77397289Y-29411342D01*
X77305187Y-29560663D01*
X77305185Y-29560668D01*
X77277349Y-29644670D01*
X77250001Y-29727203D01*
X77250001Y-29727204D01*
X77250000Y-29727204D01*
X77239500Y-29829983D01*
X77239500Y-31130001D01*
X31955500Y-31130001D01*
X31955499Y-29869992D01*
X31955294Y-29867989D01*
X31944999Y-29767203D01*
X31944998Y-29767200D01*
X31889814Y-29600666D01*
X31797712Y-29451344D01*
X31673656Y-29327288D01*
X31524334Y-29235186D01*
X31357797Y-29180001D01*
X31357795Y-29180000D01*
X31255016Y-29169500D01*
X31255009Y-29169500D01*
X29872267Y-29169500D01*
X29805228Y-29149815D01*
X29759473Y-29097011D01*
X29749529Y-29027853D01*
X29749888Y-29025511D01*
X29759370Y-28967678D01*
X29749061Y-28777525D01*
X29698114Y-28594033D01*
X29608914Y-28425784D01*
X29608911Y-28425781D01*
X29608911Y-28425779D01*
X29485631Y-28280643D01*
X29334026Y-28165396D01*
X29334025Y-28165395D01*
X29161193Y-28085436D01*
X28975216Y-28044500D01*
X28832535Y-28044500D01*
X28832533Y-28044500D01*
X28690683Y-28059927D01*
X28510217Y-28120734D01*
X28347048Y-28218909D01*
X28208791Y-28349872D01*
X28101922Y-28507493D01*
X28031438Y-28684393D01*
X28016171Y-28777523D01*
X28000630Y-28872322D01*
X25908000Y-28872322D01*
X25908000Y-25523863D01*
X25927685Y-25456824D01*
X25980489Y-25411069D01*
X26031862Y-25399863D01*
X87912959Y-25331447D01*
X87980020Y-25351058D01*
G37*
%TD.AperFunction*%
%TD*%
M02*
