%TF.GenerationSoftware,KiCad,Pcbnew,7.0.7*%
%TF.CreationDate,2023-10-19T13:35:15-07:00*%
%TF.ProjectId,555Trigger,35353554-7269-4676-9765-722e6b696361,0*%
%TF.SameCoordinates,Original*%
%TF.FileFunction,Copper,L2,Bot*%
%TF.FilePolarity,Positive*%
%FSLAX46Y46*%
G04 Gerber Fmt 4.6, Leading zero omitted, Abs format (unit mm)*
G04 Created by KiCad (PCBNEW 7.0.7) date 2023-10-19 13:35:15*
%MOMM*%
%LPD*%
G01*
G04 APERTURE LIST*
G04 Aperture macros list*
%AMRoundRect*
0 Rectangle with rounded corners*
0 $1 Rounding radius*
0 $2 $3 $4 $5 $6 $7 $8 $9 X,Y pos of 4 corners*
0 Add a 4 corners polygon primitive as box body*
4,1,4,$2,$3,$4,$5,$6,$7,$8,$9,$2,$3,0*
0 Add four circle primitives for the rounded corners*
1,1,$1+$1,$2,$3*
1,1,$1+$1,$4,$5*
1,1,$1+$1,$6,$7*
1,1,$1+$1,$8,$9*
0 Add four rect primitives between the rounded corners*
20,1,$1+$1,$2,$3,$4,$5,0*
20,1,$1+$1,$4,$5,$6,$7,0*
20,1,$1+$1,$6,$7,$8,$9,0*
20,1,$1+$1,$8,$9,$2,$3,0*%
G04 Aperture macros list end*
%TA.AperFunction,ComponentPad*%
%ADD10RoundRect,0.250000X-0.750000X0.600000X-0.750000X-0.600000X0.750000X-0.600000X0.750000X0.600000X0*%
%TD*%
%TA.AperFunction,ComponentPad*%
%ADD11O,2.000000X1.700000*%
%TD*%
%TA.AperFunction,ComponentPad*%
%ADD12RoundRect,0.250000X-0.725000X0.600000X-0.725000X-0.600000X0.725000X-0.600000X0.725000X0.600000X0*%
%TD*%
%TA.AperFunction,ComponentPad*%
%ADD13O,1.950000X1.700000*%
%TD*%
%TA.AperFunction,ViaPad*%
%ADD14C,0.800000*%
%TD*%
%TA.AperFunction,ViaPad*%
%ADD15C,0.300000*%
%TD*%
%TA.AperFunction,Conductor*%
%ADD16C,0.250000*%
%TD*%
%TA.AperFunction,Conductor*%
%ADD17C,0.300000*%
%TD*%
G04 APERTURE END LIST*
D10*
%TO.P,Behavior2,1,Pin_1*%
%TO.N,Net-(Behavior1-Pin_1)*%
X78740000Y-71120000D03*
D11*
%TO.P,Behavior2,2,Pin_2*%
%TO.N,GND*%
X78740000Y-73620000D03*
%TD*%
D10*
%TO.P,Strobing2,1,Pin_1*%
%TO.N,Net-(Strobing2-Pin_1)*%
X78747500Y-110002000D03*
D11*
%TO.P,Strobing2,2,Pin_2*%
%TO.N,GND*%
X78747500Y-112502000D03*
%TD*%
D12*
%TO.P,WidthControlSignal1,1,Pin_1*%
%TO.N,Net-(WidthControlSignal1-Pin_1)*%
X30480000Y-48300000D03*
D13*
%TO.P,WidthControlSignal1,2,Pin_2*%
%TO.N,Net-(WidthControlSignal1-Pin_2)*%
X30480000Y-50800000D03*
%TO.P,WidthControlSignal1,3,Pin_3*%
%TO.N,Net-(WidthControlSignal1-Pin_3)*%
X30480000Y-53300000D03*
%TD*%
D10*
%TO.P,Brain1,1,Pin_1*%
%TO.N,Net-(Brain1-Pin_1)*%
X78740000Y-91440000D03*
D11*
%TO.P,Brain1,2,Pin_2*%
%TO.N,GND*%
X78740000Y-93940000D03*
%TD*%
D10*
%TO.P,Behavior1,1,Pin_1*%
%TO.N,Net-(Behavior1-Pin_1)*%
X78740000Y-81280000D03*
D11*
%TO.P,Behavior1,2,Pin_2*%
%TO.N,GND*%
X78740000Y-83780000D03*
%TD*%
D12*
%TO.P,Power_In1,1,Pin_1*%
%TO.N,+5V*%
X30480000Y-30520000D03*
D13*
%TO.P,Power_In1,2,Pin_2*%
%TO.N,GND*%
X30480000Y-33020000D03*
%TO.P,Power_In1,3,Pin_3*%
%TO.N,VAC*%
X30480000Y-35520000D03*
%TD*%
D10*
%TO.P,Behavior4,1,Pin_1*%
%TO.N,Net-(Behavior1-Pin_1)*%
X78740000Y-50800000D03*
D11*
%TO.P,Behavior4,2,Pin_2*%
%TO.N,GND*%
X78740000Y-53300000D03*
%TD*%
D10*
%TO.P,Brain2,1,Pin_1*%
%TO.N,Net-(Brain1-Pin_1)*%
X78747500Y-100350000D03*
D11*
%TO.P,Brain2,2,Pin_2*%
%TO.N,GND*%
X78747500Y-102850000D03*
%TD*%
D10*
%TO.P,Strobing1,1,Pin_1*%
%TO.N,Net-(Strobing1-Pin_1)*%
X78747500Y-120924000D03*
D11*
%TO.P,Strobing1,2,Pin_2*%
%TO.N,GND*%
X78747500Y-123424000D03*
%TD*%
D10*
%TO.P,Behavior5,1,Pin_1*%
%TO.N,Net-(Behavior1-Pin_1)*%
X78740000Y-40640000D03*
D11*
%TO.P,Behavior5,2,Pin_2*%
%TO.N,GND*%
X78740000Y-43140000D03*
%TD*%
D10*
%TO.P,Behavior3,1,Pin_1*%
%TO.N,Net-(Behavior1-Pin_1)*%
X78740000Y-60960000D03*
D11*
%TO.P,Behavior3,2,Pin_2*%
%TO.N,GND*%
X78740000Y-63460000D03*
%TD*%
D10*
%TO.P,Behavior6,1,Pin_1*%
%TO.N,Net-(Behavior1-Pin_1)*%
X78740000Y-30480000D03*
D11*
%TO.P,Behavior6,2,Pin_2*%
%TO.N,GND*%
X78740000Y-32980000D03*
%TD*%
D14*
%TO.N,+5V*%
X60884660Y-87224801D03*
%TO.N,GND*%
X38795437Y-69000066D03*
X38825854Y-66589783D03*
X38100000Y-63500000D03*
%TO.N,/Strobing_Trigger/CV_In*%
X53340000Y-83820000D03*
X60960000Y-99060000D03*
%TO.N,/Behavior_Camera_Unit/CV_In*%
X54620821Y-74439764D03*
X63500000Y-71120000D03*
%TO.N,/Brain_Camera_Unit/CV_In*%
X60506312Y-44245819D03*
X55976291Y-56663948D03*
%TO.N,Net-(U1B--)*%
X40053595Y-71814416D03*
X38505289Y-72988062D03*
%TO.N,Net-(U1A--)*%
X37567420Y-72272883D03*
X44792750Y-65869577D03*
%TO.N,GND*%
X50800000Y-66040000D03*
%TO.N,VAC*%
X55880000Y-88900000D03*
%TO.N,GND*%
X43180000Y-86360000D03*
X71120000Y-50800000D03*
X71120000Y-78740000D03*
X45720000Y-63500000D03*
X71120000Y-106680000D03*
X66040000Y-53340000D03*
D15*
X55880000Y-55899500D03*
D14*
X43180000Y-43180000D03*
X58420000Y-93980000D03*
X59243157Y-64355899D03*
X66040000Y-81280000D03*
X58420000Y-38100000D03*
X66040000Y-109220000D03*
%TO.N,+5V*%
X60960000Y-48260000D03*
X56973937Y-83344887D03*
X48260000Y-96520000D03*
X60960000Y-53340000D03*
X50800000Y-99060000D03*
%TO.N,Net-(U9C-V+)*%
X51816000Y-45720000D03*
X48801551Y-49224210D03*
%TO.N,VAC*%
X54341745Y-39231717D03*
X55880000Y-66040000D03*
X52302970Y-35560000D03*
X55880000Y-78740000D03*
%TO.N,/Behavior_Camera_Unit/Trigger_Out*%
X60602576Y-67247783D03*
X46228000Y-47752000D03*
%TD*%
D16*
%TO.N,VAC*%
X52302970Y-35560000D02*
X52302970Y-37192942D01*
X52302970Y-37192942D02*
X54341745Y-39231717D01*
D17*
%TO.N,/Strobing_Trigger/CV_In*%
X60960000Y-99060000D02*
X58660728Y-96760728D01*
X54008689Y-96760728D02*
X58660728Y-96760728D01*
X54008689Y-88089350D02*
X54008689Y-96760728D01*
X53340000Y-87420661D02*
X54008689Y-88089350D01*
X53340000Y-83820000D02*
X53340000Y-87420661D01*
D16*
%TO.N,/Behavior_Camera_Unit/CV_In*%
X57940585Y-71120000D02*
X54620821Y-74439764D01*
X63500000Y-71120000D02*
X57940585Y-71120000D01*
D17*
%TO.N,/Brain_Camera_Unit/CV_In*%
X56380000Y-48372131D02*
X60506312Y-44245819D01*
X56380000Y-56260239D02*
X56380000Y-48372131D01*
X55976291Y-56663948D02*
X56380000Y-56260239D01*
D16*
%TO.N,Net-(U1B--)*%
X38879949Y-72988062D02*
X40053595Y-71814416D01*
X38505289Y-72988062D02*
X38879949Y-72988062D01*
%TO.N,Net-(U1A--)*%
X44792750Y-65869577D02*
X38389444Y-72272883D01*
X38389444Y-72272883D02*
X37567420Y-72272883D01*
%TO.N,+5V*%
X60853851Y-87224801D02*
X56973937Y-83344887D01*
X60960000Y-53340000D02*
X60960000Y-48260000D01*
X48260000Y-96520000D02*
X50800000Y-99060000D01*
X60884660Y-87224801D02*
X60853851Y-87224801D01*
%TO.N,Net-(U9C-V+)*%
X50984375Y-45720000D02*
X51816000Y-45720000D01*
X48801551Y-47902824D02*
X50984375Y-45720000D01*
X48801551Y-49224210D02*
X48801551Y-47902824D01*
%TO.N,VAC*%
X54341745Y-64501745D02*
X55880000Y-66040000D01*
X54341745Y-39231717D02*
X54341745Y-64501745D01*
X55880000Y-88900000D02*
X55880000Y-78740000D01*
%TO.N,/Behavior_Camera_Unit/Trigger_Out*%
X46403101Y-58409667D02*
X46403101Y-47524485D01*
X60602576Y-67247783D02*
X55241217Y-67247783D01*
X46403101Y-47576899D02*
X46228000Y-47752000D01*
X46403101Y-47524485D02*
X46403101Y-47576899D01*
X46403101Y-58409667D02*
X55241217Y-67247783D01*
%TD*%
%TA.AperFunction,Conductor*%
%TO.N,GND*%
G36*
X87980020Y-25351058D02*
G01*
X88025833Y-25403811D01*
X88037096Y-25455447D01*
X88037096Y-129347446D01*
X88017411Y-129414485D01*
X87964607Y-129460240D01*
X87913233Y-129471446D01*
X86575199Y-129472925D01*
X86569725Y-129472689D01*
X86418967Y-129459500D01*
X86418966Y-129459500D01*
X86301034Y-129459500D01*
X86301033Y-129459500D01*
X86144767Y-129473171D01*
X86139429Y-129473407D01*
X28424308Y-129537217D01*
X28392078Y-129532992D01*
X28175413Y-129474938D01*
X28175403Y-129474936D01*
X27998966Y-129459500D01*
X27881034Y-129459500D01*
X27704596Y-129474936D01*
X27704586Y-129474938D01*
X27483910Y-129534067D01*
X27451954Y-129538292D01*
X26032137Y-129539862D01*
X25965076Y-129520252D01*
X25919263Y-129467498D01*
X25908000Y-129415862D01*
X25908000Y-121574001D01*
X77247000Y-121574001D01*
X77247001Y-121574018D01*
X77257500Y-121676796D01*
X77257501Y-121676799D01*
X77312685Y-121843331D01*
X77312687Y-121843336D01*
X77404789Y-121992657D01*
X77528844Y-122116712D01*
X77684058Y-122212448D01*
X77730783Y-122264396D01*
X77742006Y-122333358D01*
X77714163Y-122397441D01*
X77706644Y-122405668D01*
X77559391Y-122552921D01*
X77423899Y-122746421D01*
X77324070Y-122960507D01*
X77324067Y-122960513D01*
X77266864Y-123173999D01*
X77266864Y-123174000D01*
X78134153Y-123174000D01*
X78201192Y-123193685D01*
X78246947Y-123246489D01*
X78256891Y-123315647D01*
X78253131Y-123332933D01*
X78247500Y-123352111D01*
X78247500Y-123495888D01*
X78253131Y-123515067D01*
X78253130Y-123584936D01*
X78215355Y-123643714D01*
X78151799Y-123672738D01*
X78134153Y-123674000D01*
X77266864Y-123674000D01*
X77324067Y-123887486D01*
X77324070Y-123887492D01*
X77423899Y-124101577D01*
X77423900Y-124101579D01*
X77559386Y-124295073D01*
X77559391Y-124295079D01*
X77726420Y-124462108D01*
X77726426Y-124462113D01*
X77919920Y-124597599D01*
X77919922Y-124597600D01*
X78134007Y-124697429D01*
X78134016Y-124697433D01*
X78362173Y-124758567D01*
X78362184Y-124758569D01*
X78497499Y-124770407D01*
X78497500Y-124770407D01*
X78497500Y-124036301D01*
X78517185Y-123969262D01*
X78569989Y-123923507D01*
X78639147Y-123913563D01*
X78711737Y-123924000D01*
X78711738Y-123924000D01*
X78783262Y-123924000D01*
X78783263Y-123924000D01*
X78855853Y-123913563D01*
X78925012Y-123923507D01*
X78977815Y-123969262D01*
X78997500Y-124036301D01*
X78997500Y-124770407D01*
X79132815Y-124758569D01*
X79132826Y-124758567D01*
X79360983Y-124697433D01*
X79360992Y-124697429D01*
X79575077Y-124597600D01*
X79575079Y-124597599D01*
X79768573Y-124462113D01*
X79768579Y-124462108D01*
X79935605Y-124295082D01*
X80071100Y-124101578D01*
X80170929Y-123887492D01*
X80170932Y-123887486D01*
X80228136Y-123674000D01*
X79360847Y-123674000D01*
X79293808Y-123654315D01*
X79248053Y-123601511D01*
X79238109Y-123532353D01*
X79241869Y-123515067D01*
X79247500Y-123495888D01*
X79247500Y-123352111D01*
X79241869Y-123332933D01*
X79241870Y-123263064D01*
X79279645Y-123204286D01*
X79343201Y-123175262D01*
X79360847Y-123174000D01*
X80228136Y-123174000D01*
X80228135Y-123173999D01*
X80170932Y-122960513D01*
X80170929Y-122960507D01*
X80071100Y-122746422D01*
X80071099Y-122746420D01*
X79935613Y-122552926D01*
X79788356Y-122405668D01*
X79754872Y-122344345D01*
X79759856Y-122274653D01*
X79801728Y-122218720D01*
X79810942Y-122212448D01*
X79816834Y-122208814D01*
X79966156Y-122116712D01*
X80090212Y-121992656D01*
X80182314Y-121843334D01*
X80237499Y-121676797D01*
X80248000Y-121574009D01*
X80247999Y-120273992D01*
X80237499Y-120171203D01*
X80182314Y-120004666D01*
X80090212Y-119855344D01*
X79966156Y-119731288D01*
X79816834Y-119639186D01*
X79650297Y-119584001D01*
X79650295Y-119584000D01*
X79547510Y-119573500D01*
X77947498Y-119573500D01*
X77947481Y-119573501D01*
X77844703Y-119584000D01*
X77844700Y-119584001D01*
X77678168Y-119639185D01*
X77678163Y-119639187D01*
X77528842Y-119731289D01*
X77404789Y-119855342D01*
X77312687Y-120004663D01*
X77312685Y-120004666D01*
X77312686Y-120004666D01*
X77257501Y-120171203D01*
X77257501Y-120171204D01*
X77257500Y-120171204D01*
X77247000Y-120273983D01*
X77247000Y-121574001D01*
X25908000Y-121574001D01*
X25908000Y-110652001D01*
X77247000Y-110652001D01*
X77247001Y-110652018D01*
X77257500Y-110754796D01*
X77257501Y-110754799D01*
X77312685Y-110921331D01*
X77312687Y-110921336D01*
X77404789Y-111070657D01*
X77528844Y-111194712D01*
X77684058Y-111290448D01*
X77730783Y-111342396D01*
X77742006Y-111411358D01*
X77714163Y-111475441D01*
X77706644Y-111483668D01*
X77559391Y-111630921D01*
X77423899Y-111824421D01*
X77324070Y-112038507D01*
X77324067Y-112038513D01*
X77266864Y-112251999D01*
X77266864Y-112252000D01*
X78134153Y-112252000D01*
X78201192Y-112271685D01*
X78246947Y-112324489D01*
X78256891Y-112393647D01*
X78253131Y-112410933D01*
X78247500Y-112430111D01*
X78247500Y-112573888D01*
X78253131Y-112593067D01*
X78253130Y-112662936D01*
X78215355Y-112721714D01*
X78151799Y-112750738D01*
X78134153Y-112752000D01*
X77266864Y-112752000D01*
X77324067Y-112965486D01*
X77324070Y-112965492D01*
X77423899Y-113179577D01*
X77423900Y-113179579D01*
X77559386Y-113373073D01*
X77559391Y-113373079D01*
X77726420Y-113540108D01*
X77726426Y-113540113D01*
X77919920Y-113675599D01*
X77919922Y-113675600D01*
X78134007Y-113775429D01*
X78134016Y-113775433D01*
X78362173Y-113836567D01*
X78362184Y-113836569D01*
X78497499Y-113848407D01*
X78497500Y-113848407D01*
X78497500Y-113114301D01*
X78517185Y-113047262D01*
X78569989Y-113001507D01*
X78639147Y-112991563D01*
X78711737Y-113002000D01*
X78711738Y-113002000D01*
X78783262Y-113002000D01*
X78783263Y-113002000D01*
X78855853Y-112991563D01*
X78925012Y-113001507D01*
X78977815Y-113047262D01*
X78997500Y-113114301D01*
X78997500Y-113848407D01*
X79132815Y-113836569D01*
X79132826Y-113836567D01*
X79360983Y-113775433D01*
X79360992Y-113775429D01*
X79575077Y-113675600D01*
X79575079Y-113675599D01*
X79768573Y-113540113D01*
X79768579Y-113540108D01*
X79935605Y-113373082D01*
X80071100Y-113179578D01*
X80170929Y-112965492D01*
X80170932Y-112965486D01*
X80228136Y-112752000D01*
X79360847Y-112752000D01*
X79293808Y-112732315D01*
X79248053Y-112679511D01*
X79238109Y-112610353D01*
X79241869Y-112593067D01*
X79247500Y-112573888D01*
X79247500Y-112430111D01*
X79241869Y-112410933D01*
X79241870Y-112341064D01*
X79279645Y-112282286D01*
X79343201Y-112253262D01*
X79360847Y-112252000D01*
X80228136Y-112252000D01*
X80228135Y-112251999D01*
X80170932Y-112038513D01*
X80170929Y-112038507D01*
X80071100Y-111824422D01*
X80071099Y-111824420D01*
X79935613Y-111630926D01*
X79788356Y-111483668D01*
X79754872Y-111422345D01*
X79759856Y-111352653D01*
X79801728Y-111296720D01*
X79810942Y-111290448D01*
X79816834Y-111286814D01*
X79966156Y-111194712D01*
X80090212Y-111070656D01*
X80182314Y-110921334D01*
X80237499Y-110754797D01*
X80248000Y-110652009D01*
X80247999Y-109351992D01*
X80237499Y-109249203D01*
X80182314Y-109082666D01*
X80090212Y-108933344D01*
X79966156Y-108809288D01*
X79816834Y-108717186D01*
X79650297Y-108662001D01*
X79650295Y-108662000D01*
X79547510Y-108651500D01*
X77947498Y-108651500D01*
X77947481Y-108651501D01*
X77844703Y-108662000D01*
X77844700Y-108662001D01*
X77678168Y-108717185D01*
X77678163Y-108717187D01*
X77528842Y-108809289D01*
X77404789Y-108933342D01*
X77312687Y-109082663D01*
X77312685Y-109082666D01*
X77312686Y-109082666D01*
X77257501Y-109249203D01*
X77257501Y-109249204D01*
X77257500Y-109249204D01*
X77247000Y-109351983D01*
X77247000Y-110652001D01*
X25908000Y-110652001D01*
X25908000Y-101000001D01*
X77247000Y-101000001D01*
X77247001Y-101000018D01*
X77257500Y-101102796D01*
X77257501Y-101102799D01*
X77312685Y-101269331D01*
X77312687Y-101269336D01*
X77404789Y-101418657D01*
X77528844Y-101542712D01*
X77684058Y-101638448D01*
X77730783Y-101690396D01*
X77742006Y-101759358D01*
X77714163Y-101823441D01*
X77706644Y-101831668D01*
X77559391Y-101978921D01*
X77423899Y-102172421D01*
X77324070Y-102386507D01*
X77324067Y-102386513D01*
X77266864Y-102599999D01*
X77266864Y-102600000D01*
X78134153Y-102600000D01*
X78201192Y-102619685D01*
X78246947Y-102672489D01*
X78256891Y-102741647D01*
X78253131Y-102758933D01*
X78247500Y-102778111D01*
X78247500Y-102921888D01*
X78253131Y-102941067D01*
X78253130Y-103010936D01*
X78215355Y-103069714D01*
X78151799Y-103098738D01*
X78134153Y-103100000D01*
X77266864Y-103100000D01*
X77324067Y-103313486D01*
X77324070Y-103313492D01*
X77423899Y-103527577D01*
X77423900Y-103527579D01*
X77559386Y-103721073D01*
X77559391Y-103721079D01*
X77726420Y-103888108D01*
X77726426Y-103888113D01*
X77919920Y-104023599D01*
X77919922Y-104023600D01*
X78134007Y-104123429D01*
X78134016Y-104123433D01*
X78362173Y-104184567D01*
X78362184Y-104184569D01*
X78497499Y-104196407D01*
X78497500Y-104196406D01*
X78497500Y-103462301D01*
X78517185Y-103395262D01*
X78569989Y-103349507D01*
X78639147Y-103339563D01*
X78711737Y-103350000D01*
X78711738Y-103350000D01*
X78783262Y-103350000D01*
X78783263Y-103350000D01*
X78855853Y-103339563D01*
X78925012Y-103349507D01*
X78977815Y-103395262D01*
X78997500Y-103462301D01*
X78997500Y-104196407D01*
X79132815Y-104184569D01*
X79132826Y-104184567D01*
X79360983Y-104123433D01*
X79360992Y-104123429D01*
X79575077Y-104023600D01*
X79575079Y-104023599D01*
X79768573Y-103888113D01*
X79768579Y-103888108D01*
X79935605Y-103721082D01*
X80071100Y-103527578D01*
X80170929Y-103313492D01*
X80170932Y-103313486D01*
X80228136Y-103100000D01*
X79360847Y-103100000D01*
X79293808Y-103080315D01*
X79248053Y-103027511D01*
X79238109Y-102958353D01*
X79241869Y-102941067D01*
X79247500Y-102921888D01*
X79247500Y-102778111D01*
X79241869Y-102758933D01*
X79241870Y-102689064D01*
X79279645Y-102630286D01*
X79343201Y-102601262D01*
X79360847Y-102600000D01*
X80228136Y-102600000D01*
X80228135Y-102599999D01*
X80170932Y-102386513D01*
X80170929Y-102386507D01*
X80071100Y-102172422D01*
X80071099Y-102172420D01*
X79935613Y-101978926D01*
X79788356Y-101831668D01*
X79754872Y-101770345D01*
X79759856Y-101700653D01*
X79801728Y-101644720D01*
X79810942Y-101638448D01*
X79816834Y-101634814D01*
X79966156Y-101542712D01*
X80090212Y-101418656D01*
X80182314Y-101269334D01*
X80237499Y-101102797D01*
X80248000Y-101000009D01*
X80247999Y-99699992D01*
X80237499Y-99597203D01*
X80182314Y-99430666D01*
X80090212Y-99281344D01*
X79966156Y-99157288D01*
X79834670Y-99076187D01*
X79816836Y-99065187D01*
X79816831Y-99065185D01*
X79756330Y-99045137D01*
X79650297Y-99010001D01*
X79650295Y-99010000D01*
X79547510Y-98999500D01*
X77947498Y-98999500D01*
X77947481Y-98999501D01*
X77844703Y-99010000D01*
X77844700Y-99010001D01*
X77678168Y-99065185D01*
X77678163Y-99065187D01*
X77528842Y-99157289D01*
X77404789Y-99281342D01*
X77312687Y-99430663D01*
X77312685Y-99430666D01*
X77312686Y-99430666D01*
X77257501Y-99597203D01*
X77257501Y-99597204D01*
X77257500Y-99597204D01*
X77247000Y-99699983D01*
X77247000Y-101000001D01*
X25908000Y-101000001D01*
X25908000Y-96520000D01*
X47354540Y-96520000D01*
X47374326Y-96708256D01*
X47374327Y-96708259D01*
X47432818Y-96888277D01*
X47432821Y-96888284D01*
X47527467Y-97052216D01*
X47592981Y-97124976D01*
X47654129Y-97192888D01*
X47807265Y-97304148D01*
X47807270Y-97304151D01*
X47980192Y-97381142D01*
X47980197Y-97381144D01*
X48165354Y-97420500D01*
X48224548Y-97420500D01*
X48291587Y-97440185D01*
X48312229Y-97456819D01*
X49861038Y-99005629D01*
X49894523Y-99066952D01*
X49896678Y-99080348D01*
X49899423Y-99106460D01*
X49914326Y-99248256D01*
X49914327Y-99248259D01*
X49972818Y-99428277D01*
X49972821Y-99428284D01*
X50067467Y-99592216D01*
X50164509Y-99699992D01*
X50194129Y-99732888D01*
X50347265Y-99844148D01*
X50347270Y-99844151D01*
X50520192Y-99921142D01*
X50520197Y-99921144D01*
X50705354Y-99960500D01*
X50705355Y-99960500D01*
X50894644Y-99960500D01*
X50894646Y-99960500D01*
X51079803Y-99921144D01*
X51252730Y-99844151D01*
X51405871Y-99732888D01*
X51532533Y-99592216D01*
X51627179Y-99428284D01*
X51685674Y-99248256D01*
X51705460Y-99060000D01*
X51685674Y-98871744D01*
X51627179Y-98691716D01*
X51532533Y-98527784D01*
X51405871Y-98387112D01*
X51405870Y-98387111D01*
X51252734Y-98275851D01*
X51252729Y-98275848D01*
X51079807Y-98198857D01*
X51079802Y-98198855D01*
X50934001Y-98167865D01*
X50894646Y-98159500D01*
X50894645Y-98159500D01*
X50835453Y-98159500D01*
X50768414Y-98139815D01*
X50747772Y-98123181D01*
X49198960Y-96574369D01*
X49165475Y-96513046D01*
X49163323Y-96499668D01*
X49145674Y-96331744D01*
X49087179Y-96151716D01*
X48992533Y-95987784D01*
X48865871Y-95847112D01*
X48865870Y-95847111D01*
X48712734Y-95735851D01*
X48712729Y-95735848D01*
X48539807Y-95658857D01*
X48539802Y-95658855D01*
X48394000Y-95627865D01*
X48354646Y-95619500D01*
X48165354Y-95619500D01*
X48132897Y-95626398D01*
X47980197Y-95658855D01*
X47980192Y-95658857D01*
X47807270Y-95735848D01*
X47807265Y-95735851D01*
X47654129Y-95847111D01*
X47527466Y-95987785D01*
X47432821Y-96151715D01*
X47432818Y-96151722D01*
X47374327Y-96331740D01*
X47374326Y-96331744D01*
X47354540Y-96520000D01*
X25908000Y-96520000D01*
X25908000Y-83820000D01*
X52434540Y-83820000D01*
X52454326Y-84008256D01*
X52454327Y-84008259D01*
X52512818Y-84188277D01*
X52512821Y-84188284D01*
X52607466Y-84352215D01*
X52657649Y-84407948D01*
X52687880Y-84470940D01*
X52689500Y-84490921D01*
X52689500Y-87335155D01*
X52687732Y-87351166D01*
X52687974Y-87351189D01*
X52687240Y-87358955D01*
X52689500Y-87430864D01*
X52689500Y-87461581D01*
X52689501Y-87461601D01*
X52690418Y-87468867D01*
X52690876Y-87474685D01*
X52692402Y-87523228D01*
X52692403Y-87523231D01*
X52698323Y-87543609D01*
X52702268Y-87562657D01*
X52704928Y-87583715D01*
X52704931Y-87583725D01*
X52722813Y-87628891D01*
X52724705Y-87634419D01*
X52738254Y-87681056D01*
X52738255Y-87681058D01*
X52749060Y-87699327D01*
X52757617Y-87716795D01*
X52762569Y-87729301D01*
X52765432Y-87736533D01*
X52793983Y-87775831D01*
X52797188Y-87780710D01*
X52821919Y-87822526D01*
X52821923Y-87822530D01*
X52836925Y-87837532D01*
X52849563Y-87852330D01*
X52862033Y-87869494D01*
X52862036Y-87869497D01*
X52862037Y-87869498D01*
X52899476Y-87900470D01*
X52903776Y-87904383D01*
X53124694Y-88125301D01*
X53321870Y-88322477D01*
X53355355Y-88383800D01*
X53358189Y-88410158D01*
X53358189Y-96687517D01*
X53355993Y-96710748D01*
X53354313Y-96719554D01*
X53354313Y-96719558D01*
X53358067Y-96779235D01*
X53358189Y-96783108D01*
X53358189Y-96801657D01*
X53360512Y-96820055D01*
X53360878Y-96823927D01*
X53364633Y-96883587D01*
X53367403Y-96892112D01*
X53372494Y-96914887D01*
X53373617Y-96923781D01*
X53373619Y-96923789D01*
X53395626Y-96979377D01*
X53396945Y-96983039D01*
X53415420Y-97039897D01*
X53415422Y-97039902D01*
X53420223Y-97047466D01*
X53430818Y-97068258D01*
X53434121Y-97076599D01*
X53434125Y-97076606D01*
X53469268Y-97124976D01*
X53471447Y-97128182D01*
X53492399Y-97161197D01*
X53503486Y-97178667D01*
X53510021Y-97184804D01*
X53525450Y-97202305D01*
X53530722Y-97209561D01*
X53530724Y-97209563D01*
X53530725Y-97209564D01*
X53530726Y-97209565D01*
X53576807Y-97247687D01*
X53579711Y-97250248D01*
X53623296Y-97291176D01*
X53623300Y-97291178D01*
X53623301Y-97291179D01*
X53631148Y-97295493D01*
X53650452Y-97308611D01*
X53657363Y-97314328D01*
X53657364Y-97314329D01*
X53674343Y-97322318D01*
X53711474Y-97339791D01*
X53714902Y-97341537D01*
X53767321Y-97370355D01*
X53776010Y-97372586D01*
X53797960Y-97380488D01*
X53806076Y-97384307D01*
X53864820Y-97395512D01*
X53868564Y-97396349D01*
X53926512Y-97411228D01*
X53935479Y-97411228D01*
X53958711Y-97413424D01*
X53960395Y-97413745D01*
X53967519Y-97415104D01*
X54027197Y-97411349D01*
X54031070Y-97411228D01*
X58339920Y-97411228D01*
X58406959Y-97430913D01*
X58427601Y-97447547D01*
X60025191Y-99045137D01*
X60058676Y-99106460D01*
X60060830Y-99119851D01*
X60074326Y-99248256D01*
X60074327Y-99248259D01*
X60132818Y-99428277D01*
X60132821Y-99428284D01*
X60227467Y-99592216D01*
X60324509Y-99699992D01*
X60354129Y-99732888D01*
X60507265Y-99844148D01*
X60507270Y-99844151D01*
X60680192Y-99921142D01*
X60680197Y-99921144D01*
X60865354Y-99960500D01*
X60865355Y-99960500D01*
X61054644Y-99960500D01*
X61054646Y-99960500D01*
X61239803Y-99921144D01*
X61412730Y-99844151D01*
X61565871Y-99732888D01*
X61692533Y-99592216D01*
X61787179Y-99428284D01*
X61845674Y-99248256D01*
X61865460Y-99060000D01*
X61845674Y-98871744D01*
X61787179Y-98691716D01*
X61692533Y-98527784D01*
X61565871Y-98387112D01*
X61565870Y-98387111D01*
X61412734Y-98275851D01*
X61412729Y-98275848D01*
X61239807Y-98198857D01*
X61239802Y-98198855D01*
X61094001Y-98167865D01*
X61054646Y-98159500D01*
X61054645Y-98159500D01*
X61030808Y-98159500D01*
X60963769Y-98139815D01*
X60943127Y-98123181D01*
X59181162Y-96361216D01*
X59171089Y-96348642D01*
X59170902Y-96348798D01*
X59165929Y-96342787D01*
X59113484Y-96293538D01*
X59091763Y-96271817D01*
X59085968Y-96267322D01*
X59081526Y-96263527D01*
X59046124Y-96230282D01*
X59046116Y-96230276D01*
X59027520Y-96220053D01*
X59011259Y-96209372D01*
X58994491Y-96196365D01*
X58971023Y-96186210D01*
X58949906Y-96177071D01*
X58944684Y-96174514D01*
X58902096Y-96151101D01*
X58902093Y-96151100D01*
X58881529Y-96145820D01*
X58863124Y-96139518D01*
X58843655Y-96131093D01*
X58843649Y-96131091D01*
X58795679Y-96123494D01*
X58789964Y-96122310D01*
X58773500Y-96118083D01*
X58742908Y-96110228D01*
X58742905Y-96110228D01*
X58721683Y-96110228D01*
X58702283Y-96108701D01*
X58681324Y-96105381D01*
X58681323Y-96105381D01*
X58657514Y-96107631D01*
X58632958Y-96109953D01*
X58627120Y-96110228D01*
X54783189Y-96110228D01*
X54716150Y-96090543D01*
X54670395Y-96037739D01*
X54659189Y-95986228D01*
X54659189Y-92090001D01*
X77239500Y-92090001D01*
X77239501Y-92090018D01*
X77250000Y-92192796D01*
X77250001Y-92192799D01*
X77305185Y-92359331D01*
X77305187Y-92359336D01*
X77397289Y-92508657D01*
X77521344Y-92632712D01*
X77676558Y-92728448D01*
X77723283Y-92780396D01*
X77734506Y-92849358D01*
X77706663Y-92913441D01*
X77699144Y-92921668D01*
X77551891Y-93068921D01*
X77416399Y-93262421D01*
X77316570Y-93476507D01*
X77316567Y-93476513D01*
X77259364Y-93689999D01*
X77259364Y-93690000D01*
X78126653Y-93690000D01*
X78193692Y-93709685D01*
X78239447Y-93762489D01*
X78249391Y-93831647D01*
X78245631Y-93848933D01*
X78240000Y-93868111D01*
X78240000Y-94011888D01*
X78245631Y-94031067D01*
X78245630Y-94100936D01*
X78207855Y-94159714D01*
X78144299Y-94188738D01*
X78126653Y-94190000D01*
X77259364Y-94190000D01*
X77316567Y-94403486D01*
X77316570Y-94403492D01*
X77416399Y-94617577D01*
X77416400Y-94617579D01*
X77551886Y-94811073D01*
X77551891Y-94811079D01*
X77718920Y-94978108D01*
X77718926Y-94978113D01*
X77912420Y-95113599D01*
X77912422Y-95113600D01*
X78126507Y-95213429D01*
X78126516Y-95213433D01*
X78354673Y-95274567D01*
X78354684Y-95274569D01*
X78489999Y-95286407D01*
X78490000Y-95286406D01*
X78490000Y-94552301D01*
X78509685Y-94485262D01*
X78562489Y-94439507D01*
X78631647Y-94429563D01*
X78704237Y-94440000D01*
X78704238Y-94440000D01*
X78775762Y-94440000D01*
X78775763Y-94440000D01*
X78848353Y-94429563D01*
X78917512Y-94439507D01*
X78970315Y-94485262D01*
X78990000Y-94552301D01*
X78990000Y-95286407D01*
X79125315Y-95274569D01*
X79125326Y-95274567D01*
X79353483Y-95213433D01*
X79353492Y-95213429D01*
X79567577Y-95113600D01*
X79567579Y-95113599D01*
X79761073Y-94978113D01*
X79761079Y-94978108D01*
X79928105Y-94811082D01*
X80063600Y-94617578D01*
X80163429Y-94403492D01*
X80163432Y-94403486D01*
X80220636Y-94190000D01*
X79353347Y-94190000D01*
X79286308Y-94170315D01*
X79240553Y-94117511D01*
X79230609Y-94048353D01*
X79234369Y-94031067D01*
X79240000Y-94011888D01*
X79240000Y-93868111D01*
X79234369Y-93848933D01*
X79234370Y-93779064D01*
X79272145Y-93720286D01*
X79335701Y-93691262D01*
X79353347Y-93690000D01*
X80220636Y-93690000D01*
X80220635Y-93689999D01*
X80163432Y-93476513D01*
X80163429Y-93476507D01*
X80063600Y-93262422D01*
X80063599Y-93262420D01*
X79928113Y-93068926D01*
X79780856Y-92921668D01*
X79747372Y-92860345D01*
X79752356Y-92790653D01*
X79794228Y-92734720D01*
X79803442Y-92728448D01*
X79809334Y-92724814D01*
X79958656Y-92632712D01*
X80082712Y-92508656D01*
X80174814Y-92359334D01*
X80229999Y-92192797D01*
X80240500Y-92090009D01*
X80240499Y-90789992D01*
X80229999Y-90687203D01*
X80174814Y-90520666D01*
X80082712Y-90371344D01*
X79958656Y-90247288D01*
X79809334Y-90155186D01*
X79642797Y-90100001D01*
X79642795Y-90100000D01*
X79540010Y-90089500D01*
X77939998Y-90089500D01*
X77939981Y-90089501D01*
X77837203Y-90100000D01*
X77837200Y-90100001D01*
X77670668Y-90155185D01*
X77670663Y-90155187D01*
X77521342Y-90247289D01*
X77397289Y-90371342D01*
X77305187Y-90520663D01*
X77305185Y-90520666D01*
X77305186Y-90520666D01*
X77250001Y-90687203D01*
X77250001Y-90687204D01*
X77250000Y-90687204D01*
X77239500Y-90789983D01*
X77239500Y-92090001D01*
X54659189Y-92090001D01*
X54659189Y-88900000D01*
X54974540Y-88900000D01*
X54994326Y-89088256D01*
X54994327Y-89088259D01*
X55052818Y-89268277D01*
X55052821Y-89268284D01*
X55147467Y-89432216D01*
X55274128Y-89572887D01*
X55274129Y-89572888D01*
X55427265Y-89684148D01*
X55427270Y-89684151D01*
X55600192Y-89761142D01*
X55600197Y-89761144D01*
X55785354Y-89800500D01*
X55785355Y-89800500D01*
X55974644Y-89800500D01*
X55974646Y-89800500D01*
X56159803Y-89761144D01*
X56332730Y-89684151D01*
X56485871Y-89572888D01*
X56612533Y-89432216D01*
X56707179Y-89268284D01*
X56765674Y-89088256D01*
X56785460Y-88900000D01*
X56765674Y-88711744D01*
X56707179Y-88531716D01*
X56612533Y-88367784D01*
X56604440Y-88358796D01*
X56537350Y-88284284D01*
X56507120Y-88221292D01*
X56505500Y-88201312D01*
X56505500Y-84312989D01*
X56525185Y-84245950D01*
X56577989Y-84200195D01*
X56647147Y-84190251D01*
X56679936Y-84199709D01*
X56694134Y-84206031D01*
X56879291Y-84245387D01*
X56938485Y-84245387D01*
X57005524Y-84265072D01*
X57026166Y-84281706D01*
X59949317Y-87204858D01*
X59982802Y-87266181D01*
X59984956Y-87279572D01*
X59998986Y-87413057D01*
X59998987Y-87413060D01*
X60057478Y-87593078D01*
X60057481Y-87593085D01*
X60152127Y-87757017D01*
X60253402Y-87869494D01*
X60278789Y-87897689D01*
X60431925Y-88008949D01*
X60431930Y-88008952D01*
X60604852Y-88085943D01*
X60604857Y-88085945D01*
X60790014Y-88125301D01*
X60790015Y-88125301D01*
X60979304Y-88125301D01*
X60979306Y-88125301D01*
X61164463Y-88085945D01*
X61337390Y-88008952D01*
X61490531Y-87897689D01*
X61617193Y-87757017D01*
X61711839Y-87593085D01*
X61770334Y-87413057D01*
X61790120Y-87224801D01*
X61770334Y-87036545D01*
X61711839Y-86856517D01*
X61617193Y-86692585D01*
X61490531Y-86551913D01*
X61490530Y-86551912D01*
X61337394Y-86440652D01*
X61337389Y-86440649D01*
X61164467Y-86363658D01*
X61164462Y-86363656D01*
X61018661Y-86332666D01*
X60979306Y-86324301D01*
X60979305Y-86324301D01*
X60889303Y-86324301D01*
X60822264Y-86304616D01*
X60801622Y-86287982D01*
X57912897Y-83399256D01*
X57879412Y-83337933D01*
X57877260Y-83324555D01*
X57859611Y-83156631D01*
X57801116Y-82976603D01*
X57706470Y-82812671D01*
X57579808Y-82671999D01*
X57579807Y-82671998D01*
X57426671Y-82560738D01*
X57426666Y-82560735D01*
X57253744Y-82483744D01*
X57253739Y-82483742D01*
X57107938Y-82452752D01*
X57068583Y-82444387D01*
X56879291Y-82444387D01*
X56846834Y-82451285D01*
X56694134Y-82483742D01*
X56694129Y-82483744D01*
X56679932Y-82490065D01*
X56610682Y-82499348D01*
X56547406Y-82469717D01*
X56510195Y-82410581D01*
X56505500Y-82376784D01*
X56505500Y-81930001D01*
X77239500Y-81930001D01*
X77239501Y-81930018D01*
X77250000Y-82032796D01*
X77250001Y-82032799D01*
X77305185Y-82199331D01*
X77305186Y-82199334D01*
X77397288Y-82348656D01*
X77521344Y-82472712D01*
X77664054Y-82560736D01*
X77676558Y-82568448D01*
X77723283Y-82620396D01*
X77734506Y-82689358D01*
X77706663Y-82753441D01*
X77699144Y-82761668D01*
X77551891Y-82908921D01*
X77416399Y-83102421D01*
X77316570Y-83316507D01*
X77316567Y-83316513D01*
X77259364Y-83529999D01*
X77259364Y-83530000D01*
X78126653Y-83530000D01*
X78193692Y-83549685D01*
X78239447Y-83602489D01*
X78249391Y-83671647D01*
X78245631Y-83688933D01*
X78240000Y-83708111D01*
X78240000Y-83851888D01*
X78245631Y-83871067D01*
X78245630Y-83940936D01*
X78207855Y-83999714D01*
X78144299Y-84028738D01*
X78126653Y-84030000D01*
X77259364Y-84030000D01*
X77316567Y-84243486D01*
X77316570Y-84243492D01*
X77416399Y-84457577D01*
X77416400Y-84457579D01*
X77551886Y-84651073D01*
X77551891Y-84651079D01*
X77718920Y-84818108D01*
X77718926Y-84818113D01*
X77912420Y-84953599D01*
X77912422Y-84953600D01*
X78126507Y-85053429D01*
X78126516Y-85053433D01*
X78354673Y-85114567D01*
X78354684Y-85114569D01*
X78489999Y-85126407D01*
X78490000Y-85126407D01*
X78490000Y-84392301D01*
X78509685Y-84325262D01*
X78562489Y-84279507D01*
X78631647Y-84269563D01*
X78704237Y-84280000D01*
X78704238Y-84280000D01*
X78775762Y-84280000D01*
X78775763Y-84280000D01*
X78848353Y-84269563D01*
X78917512Y-84279507D01*
X78970315Y-84325262D01*
X78990000Y-84392301D01*
X78990000Y-85126407D01*
X79125315Y-85114569D01*
X79125326Y-85114567D01*
X79353483Y-85053433D01*
X79353492Y-85053429D01*
X79567577Y-84953600D01*
X79567579Y-84953599D01*
X79761073Y-84818113D01*
X79761079Y-84818108D01*
X79928105Y-84651082D01*
X80063600Y-84457578D01*
X80163429Y-84243492D01*
X80163432Y-84243486D01*
X80220636Y-84030000D01*
X79353347Y-84030000D01*
X79286308Y-84010315D01*
X79240553Y-83957511D01*
X79230609Y-83888353D01*
X79234369Y-83871067D01*
X79240000Y-83851888D01*
X79240000Y-83708111D01*
X79234369Y-83688933D01*
X79234370Y-83619064D01*
X79272145Y-83560286D01*
X79335701Y-83531262D01*
X79353347Y-83530000D01*
X80220636Y-83530000D01*
X80220635Y-83529999D01*
X80163432Y-83316513D01*
X80163429Y-83316507D01*
X80063600Y-83102422D01*
X80063599Y-83102420D01*
X79928113Y-82908926D01*
X79780856Y-82761668D01*
X79747372Y-82700345D01*
X79752356Y-82630653D01*
X79794228Y-82574720D01*
X79803442Y-82568448D01*
X79815942Y-82560738D01*
X79958656Y-82472712D01*
X80082712Y-82348656D01*
X80174814Y-82199334D01*
X80229999Y-82032797D01*
X80240500Y-81930009D01*
X80240499Y-80629992D01*
X80229999Y-80527203D01*
X80174814Y-80360666D01*
X80082712Y-80211344D01*
X79958656Y-80087288D01*
X79809334Y-79995186D01*
X79642797Y-79940001D01*
X79642795Y-79940000D01*
X79540010Y-79929500D01*
X77939998Y-79929500D01*
X77939981Y-79929501D01*
X77837203Y-79940000D01*
X77837200Y-79940001D01*
X77670668Y-79995185D01*
X77670663Y-79995187D01*
X77521342Y-80087289D01*
X77397289Y-80211342D01*
X77305187Y-80360663D01*
X77305185Y-80360666D01*
X77305186Y-80360666D01*
X77250001Y-80527203D01*
X77250001Y-80527204D01*
X77250000Y-80527204D01*
X77239500Y-80629983D01*
X77239500Y-81930001D01*
X56505500Y-81930001D01*
X56505500Y-79438687D01*
X56525185Y-79371648D01*
X56537350Y-79355715D01*
X56555891Y-79335122D01*
X56612533Y-79272216D01*
X56707179Y-79108284D01*
X56765674Y-78928256D01*
X56785460Y-78740000D01*
X56765674Y-78551744D01*
X56707179Y-78371716D01*
X56612533Y-78207784D01*
X56485871Y-78067112D01*
X56485870Y-78067111D01*
X56332734Y-77955851D01*
X56332729Y-77955848D01*
X56159807Y-77878857D01*
X56159802Y-77878855D01*
X56014001Y-77847865D01*
X55974646Y-77839500D01*
X55785354Y-77839500D01*
X55752897Y-77846398D01*
X55600197Y-77878855D01*
X55600192Y-77878857D01*
X55427270Y-77955848D01*
X55427265Y-77955851D01*
X55274129Y-78067111D01*
X55147466Y-78207785D01*
X55052821Y-78371715D01*
X55052818Y-78371722D01*
X54994327Y-78551740D01*
X54994326Y-78551744D01*
X54974540Y-78740000D01*
X54994326Y-78928256D01*
X54994327Y-78928259D01*
X55052818Y-79108277D01*
X55052821Y-79108284D01*
X55147467Y-79272216D01*
X55190772Y-79320310D01*
X55222650Y-79355715D01*
X55252880Y-79418706D01*
X55254500Y-79438687D01*
X55254500Y-88201312D01*
X55234815Y-88268351D01*
X55222650Y-88284284D01*
X55147466Y-88367784D01*
X55052821Y-88531715D01*
X55052818Y-88531722D01*
X54994327Y-88711740D01*
X54994326Y-88711744D01*
X54974540Y-88900000D01*
X54659189Y-88900000D01*
X54659189Y-88174852D01*
X54660957Y-88158839D01*
X54660715Y-88158817D01*
X54661447Y-88151061D01*
X54661449Y-88151054D01*
X54659189Y-88079146D01*
X54659189Y-88048425D01*
X54658268Y-88041138D01*
X54657811Y-88035329D01*
X54656286Y-87986781D01*
X54650365Y-87966403D01*
X54646420Y-87947354D01*
X54643760Y-87926292D01*
X54625874Y-87881119D01*
X54623985Y-87875599D01*
X54614931Y-87844434D01*
X54610433Y-87828952D01*
X54599629Y-87810684D01*
X54591067Y-87793206D01*
X54583257Y-87773479D01*
X54583254Y-87773475D01*
X54571295Y-87757015D01*
X54554703Y-87734177D01*
X54551500Y-87729301D01*
X54526770Y-87687485D01*
X54526768Y-87687483D01*
X54526767Y-87687481D01*
X54511764Y-87672479D01*
X54499124Y-87657680D01*
X54486650Y-87640510D01*
X54449217Y-87609544D01*
X54444895Y-87605610D01*
X54026819Y-87187534D01*
X53993334Y-87126211D01*
X53990500Y-87099853D01*
X53990500Y-84490921D01*
X54010185Y-84423882D01*
X54022351Y-84407948D01*
X54036440Y-84392301D01*
X54072533Y-84352216D01*
X54167179Y-84188284D01*
X54225674Y-84008256D01*
X54245460Y-83820000D01*
X54225674Y-83631744D01*
X54167179Y-83451716D01*
X54072533Y-83287784D01*
X53945871Y-83147112D01*
X53945870Y-83147111D01*
X53792734Y-83035851D01*
X53792729Y-83035848D01*
X53619807Y-82958857D01*
X53619802Y-82958855D01*
X53474001Y-82927865D01*
X53434646Y-82919500D01*
X53245354Y-82919500D01*
X53212897Y-82926398D01*
X53060197Y-82958855D01*
X53060192Y-82958857D01*
X52887270Y-83035848D01*
X52887265Y-83035851D01*
X52734129Y-83147111D01*
X52607466Y-83287785D01*
X52512821Y-83451715D01*
X52512818Y-83451722D01*
X52458446Y-83619064D01*
X52454326Y-83631744D01*
X52434540Y-83820000D01*
X25908000Y-83820000D01*
X25908000Y-77839500D01*
X25908000Y-74439764D01*
X53715361Y-74439764D01*
X53735147Y-74628020D01*
X53735148Y-74628023D01*
X53793639Y-74808041D01*
X53793642Y-74808048D01*
X53888288Y-74971980D01*
X54014949Y-75112651D01*
X54014950Y-75112652D01*
X54168086Y-75223912D01*
X54168091Y-75223915D01*
X54341013Y-75300906D01*
X54341018Y-75300908D01*
X54526175Y-75340264D01*
X54526176Y-75340264D01*
X54715465Y-75340264D01*
X54715467Y-75340264D01*
X54900624Y-75300908D01*
X55073551Y-75223915D01*
X55226692Y-75112652D01*
X55353354Y-74971980D01*
X55448000Y-74808048D01*
X55506495Y-74628020D01*
X55524142Y-74460109D01*
X55550726Y-74395496D01*
X55559773Y-74385400D01*
X58163356Y-71781819D01*
X58224680Y-71748334D01*
X58251038Y-71745500D01*
X62796252Y-71745500D01*
X62863291Y-71765185D01*
X62888400Y-71786526D01*
X62894126Y-71792885D01*
X62894130Y-71792889D01*
X63047265Y-71904148D01*
X63047270Y-71904151D01*
X63220192Y-71981142D01*
X63220197Y-71981144D01*
X63405354Y-72020500D01*
X63405355Y-72020500D01*
X63594644Y-72020500D01*
X63594646Y-72020500D01*
X63779803Y-71981144D01*
X63952730Y-71904151D01*
X64105871Y-71792888D01*
X64126479Y-71770001D01*
X77239500Y-71770001D01*
X77239501Y-71770018D01*
X77250000Y-71872796D01*
X77250001Y-71872799D01*
X77293037Y-72002672D01*
X77305186Y-72039334D01*
X77397288Y-72188656D01*
X77521344Y-72312712D01*
X77576337Y-72346632D01*
X77676558Y-72408448D01*
X77723283Y-72460396D01*
X77734506Y-72529358D01*
X77706663Y-72593441D01*
X77699144Y-72601668D01*
X77551891Y-72748921D01*
X77416399Y-72942421D01*
X77316570Y-73156507D01*
X77316567Y-73156513D01*
X77259364Y-73369999D01*
X77259364Y-73370000D01*
X78126653Y-73370000D01*
X78193692Y-73389685D01*
X78239447Y-73442489D01*
X78249391Y-73511647D01*
X78245631Y-73528933D01*
X78240000Y-73548111D01*
X78240000Y-73691888D01*
X78245631Y-73711067D01*
X78245630Y-73780936D01*
X78207855Y-73839714D01*
X78144299Y-73868738D01*
X78126653Y-73870000D01*
X77259364Y-73870000D01*
X77316567Y-74083486D01*
X77316570Y-74083492D01*
X77416399Y-74297577D01*
X77416400Y-74297579D01*
X77551886Y-74491073D01*
X77551891Y-74491079D01*
X77718920Y-74658108D01*
X77718926Y-74658113D01*
X77912420Y-74793599D01*
X77912422Y-74793600D01*
X78126507Y-74893429D01*
X78126516Y-74893433D01*
X78354673Y-74954567D01*
X78354684Y-74954569D01*
X78489999Y-74966407D01*
X78490000Y-74966406D01*
X78490000Y-74232301D01*
X78509685Y-74165262D01*
X78562489Y-74119507D01*
X78631647Y-74109563D01*
X78704237Y-74120000D01*
X78704238Y-74120000D01*
X78775762Y-74120000D01*
X78775763Y-74120000D01*
X78848353Y-74109563D01*
X78917512Y-74119507D01*
X78970315Y-74165262D01*
X78990000Y-74232301D01*
X78990000Y-74966407D01*
X79125315Y-74954569D01*
X79125326Y-74954567D01*
X79353483Y-74893433D01*
X79353492Y-74893429D01*
X79567577Y-74793600D01*
X79567579Y-74793599D01*
X79761073Y-74658113D01*
X79761079Y-74658108D01*
X79928105Y-74491082D01*
X80063600Y-74297578D01*
X80163429Y-74083492D01*
X80163432Y-74083486D01*
X80220636Y-73870000D01*
X79353347Y-73870000D01*
X79286308Y-73850315D01*
X79240553Y-73797511D01*
X79230609Y-73728353D01*
X79234369Y-73711067D01*
X79240000Y-73691888D01*
X79240000Y-73548111D01*
X79234369Y-73528933D01*
X79234370Y-73459064D01*
X79272145Y-73400286D01*
X79335701Y-73371262D01*
X79353347Y-73370000D01*
X80220636Y-73370000D01*
X80220635Y-73369999D01*
X80163432Y-73156513D01*
X80163429Y-73156507D01*
X80063600Y-72942422D01*
X80063599Y-72942420D01*
X79928113Y-72748926D01*
X79780856Y-72601668D01*
X79747372Y-72540345D01*
X79752356Y-72470653D01*
X79794228Y-72414720D01*
X79803442Y-72408448D01*
X79809334Y-72404814D01*
X79958656Y-72312712D01*
X80082712Y-72188656D01*
X80174814Y-72039334D01*
X80229999Y-71872797D01*
X80240500Y-71770009D01*
X80240499Y-70469992D01*
X80229999Y-70367203D01*
X80174814Y-70200666D01*
X80082712Y-70051344D01*
X79958656Y-69927288D01*
X79809334Y-69835186D01*
X79642797Y-69780001D01*
X79642795Y-69780000D01*
X79540010Y-69769500D01*
X77939998Y-69769500D01*
X77939981Y-69769501D01*
X77837203Y-69780000D01*
X77837200Y-69780001D01*
X77670668Y-69835185D01*
X77670663Y-69835187D01*
X77521342Y-69927289D01*
X77397289Y-70051342D01*
X77305187Y-70200663D01*
X77305185Y-70200666D01*
X77305186Y-70200666D01*
X77250001Y-70367203D01*
X77250001Y-70367204D01*
X77250000Y-70367204D01*
X77239500Y-70469983D01*
X77239500Y-71770001D01*
X64126479Y-71770001D01*
X64232533Y-71652216D01*
X64327179Y-71488284D01*
X64385674Y-71308256D01*
X64405460Y-71120000D01*
X64385674Y-70931744D01*
X64327179Y-70751716D01*
X64232533Y-70587784D01*
X64105871Y-70447112D01*
X64105870Y-70447111D01*
X63952734Y-70335851D01*
X63952729Y-70335848D01*
X63779807Y-70258857D01*
X63779802Y-70258855D01*
X63634001Y-70227865D01*
X63594646Y-70219500D01*
X63405354Y-70219500D01*
X63372897Y-70226398D01*
X63220197Y-70258855D01*
X63220192Y-70258857D01*
X63047270Y-70335848D01*
X63047265Y-70335851D01*
X62894130Y-70447110D01*
X62894126Y-70447114D01*
X62888400Y-70453474D01*
X62828913Y-70490121D01*
X62796252Y-70494500D01*
X58023322Y-70494500D01*
X58007705Y-70492776D01*
X58007678Y-70493062D01*
X57999916Y-70492327D01*
X57930788Y-70494500D01*
X57901235Y-70494500D01*
X57900514Y-70494590D01*
X57894342Y-70495369D01*
X57888530Y-70495826D01*
X57841958Y-70497290D01*
X57841957Y-70497290D01*
X57822714Y-70502881D01*
X57803664Y-70506825D01*
X57783796Y-70509334D01*
X57783794Y-70509335D01*
X57740469Y-70526488D01*
X57734942Y-70528380D01*
X57690195Y-70541381D01*
X57690194Y-70541382D01*
X57672952Y-70551579D01*
X57655484Y-70560137D01*
X57636854Y-70567513D01*
X57636852Y-70567514D01*
X57599161Y-70594898D01*
X57594279Y-70598105D01*
X57554164Y-70621830D01*
X57539993Y-70636000D01*
X57525208Y-70648628D01*
X57508997Y-70660407D01*
X57479294Y-70696310D01*
X57475362Y-70700631D01*
X54673049Y-73502945D01*
X54611726Y-73536430D01*
X54585368Y-73539264D01*
X54526175Y-73539264D01*
X54493718Y-73546162D01*
X54341018Y-73578619D01*
X54341013Y-73578621D01*
X54168091Y-73655612D01*
X54168086Y-73655615D01*
X54014950Y-73766875D01*
X53888287Y-73907549D01*
X53793642Y-74071479D01*
X53793639Y-74071486D01*
X53735148Y-74251504D01*
X53735147Y-74251508D01*
X53715361Y-74439764D01*
X25908000Y-74439764D01*
X25908000Y-72272883D01*
X36661960Y-72272883D01*
X36681746Y-72461139D01*
X36681747Y-72461142D01*
X36740238Y-72641160D01*
X36740241Y-72641167D01*
X36834887Y-72805099D01*
X36958532Y-72942420D01*
X36961549Y-72945771D01*
X37114685Y-73057031D01*
X37114690Y-73057034D01*
X37287612Y-73134025D01*
X37287617Y-73134027D01*
X37472774Y-73173383D01*
X37528570Y-73173383D01*
X37595609Y-73193068D01*
X37641364Y-73245872D01*
X37646501Y-73259065D01*
X37678107Y-73356339D01*
X37678110Y-73356346D01*
X37772756Y-73520278D01*
X37894612Y-73655612D01*
X37899418Y-73660950D01*
X38052554Y-73772210D01*
X38052559Y-73772213D01*
X38225481Y-73849204D01*
X38225486Y-73849206D01*
X38410643Y-73888562D01*
X38410644Y-73888562D01*
X38599933Y-73888562D01*
X38599935Y-73888562D01*
X38785092Y-73849206D01*
X38958019Y-73772213D01*
X39111160Y-73660950D01*
X39237822Y-73520278D01*
X39238093Y-73519806D01*
X39238516Y-73519322D01*
X39241644Y-73515018D01*
X39242028Y-73515297D01*
X39261765Y-73492673D01*
X39260846Y-73491755D01*
X39266366Y-73486233D01*
X39266369Y-73486232D01*
X39280538Y-73472061D01*
X39295328Y-73459430D01*
X39311536Y-73447656D01*
X39341248Y-73411738D01*
X39345161Y-73407438D01*
X40001366Y-72751235D01*
X40062690Y-72717750D01*
X40089048Y-72714916D01*
X40148239Y-72714916D01*
X40148241Y-72714916D01*
X40333398Y-72675560D01*
X40506325Y-72598567D01*
X40659466Y-72487304D01*
X40786128Y-72346632D01*
X40880774Y-72182700D01*
X40939269Y-72002672D01*
X40959055Y-71814416D01*
X40939269Y-71626160D01*
X40880774Y-71446132D01*
X40786128Y-71282200D01*
X40659466Y-71141528D01*
X40629761Y-71119946D01*
X40587097Y-71064616D01*
X40581118Y-70995003D01*
X40613724Y-70933208D01*
X40614890Y-70932025D01*
X44740521Y-66806396D01*
X44801845Y-66772911D01*
X44828203Y-66770077D01*
X44887394Y-66770077D01*
X44887396Y-66770077D01*
X45072553Y-66730721D01*
X45245480Y-66653728D01*
X45398621Y-66542465D01*
X45525283Y-66401793D01*
X45619929Y-66237861D01*
X45678424Y-66057833D01*
X45698210Y-65869577D01*
X45678424Y-65681321D01*
X45619929Y-65501293D01*
X45525283Y-65337361D01*
X45398621Y-65196689D01*
X45398620Y-65196688D01*
X45245484Y-65085428D01*
X45245479Y-65085425D01*
X45072557Y-65008434D01*
X45072552Y-65008432D01*
X44926750Y-64977442D01*
X44887396Y-64969077D01*
X44698104Y-64969077D01*
X44665647Y-64975975D01*
X44512947Y-65008432D01*
X44512942Y-65008434D01*
X44340020Y-65085425D01*
X44340015Y-65085428D01*
X44186879Y-65196688D01*
X44060216Y-65337362D01*
X43965571Y-65501292D01*
X43965568Y-65501299D01*
X43910197Y-65671715D01*
X43907076Y-65681321D01*
X43889429Y-65849226D01*
X43862844Y-65913840D01*
X43853789Y-65923945D01*
X38250754Y-71526980D01*
X38189431Y-71560465D01*
X38119739Y-71555481D01*
X38090188Y-71539617D01*
X38020154Y-71488734D01*
X38020149Y-71488731D01*
X37847227Y-71411740D01*
X37847222Y-71411738D01*
X37701420Y-71380748D01*
X37662066Y-71372383D01*
X37472774Y-71372383D01*
X37440317Y-71379281D01*
X37287617Y-71411738D01*
X37287612Y-71411740D01*
X37114690Y-71488731D01*
X37114685Y-71488734D01*
X36961549Y-71599994D01*
X36834886Y-71740668D01*
X36740241Y-71904598D01*
X36740238Y-71904605D01*
X36696462Y-72039336D01*
X36681746Y-72084627D01*
X36661960Y-72272883D01*
X25908000Y-72272883D01*
X25908000Y-46652322D01*
X28000630Y-46652322D01*
X28010939Y-46842475D01*
X28058892Y-47015185D01*
X28061887Y-47025969D01*
X28061888Y-47025972D01*
X28105000Y-47107288D01*
X28148693Y-47189703D01*
X28151087Y-47194217D01*
X28151088Y-47194220D01*
X28274368Y-47339356D01*
X28274369Y-47339357D01*
X28425971Y-47454602D01*
X28425972Y-47454602D01*
X28425973Y-47454603D01*
X28425974Y-47454604D01*
X28510785Y-47493841D01*
X28598803Y-47534562D01*
X28598804Y-47534562D01*
X28598806Y-47534563D01*
X28655227Y-47546982D01*
X28784784Y-47575500D01*
X28784785Y-47575500D01*
X28880500Y-47575500D01*
X28947539Y-47595185D01*
X28993294Y-47647989D01*
X29004500Y-47699500D01*
X29004500Y-48950001D01*
X29004501Y-48950018D01*
X29015000Y-49052796D01*
X29015001Y-49052799D01*
X29070185Y-49219331D01*
X29070187Y-49219336D01*
X29162289Y-49368657D01*
X29286344Y-49492712D01*
X29441120Y-49588178D01*
X29487845Y-49640126D01*
X29499068Y-49709088D01*
X29471224Y-49773171D01*
X29463706Y-49781398D01*
X29316501Y-49928603D01*
X29316501Y-49928604D01*
X29180967Y-50122165D01*
X29180965Y-50122169D01*
X29081098Y-50336335D01*
X29081094Y-50336344D01*
X29019938Y-50564586D01*
X29019936Y-50564596D01*
X28999341Y-50799999D01*
X28999341Y-50800000D01*
X29019936Y-51035403D01*
X29019938Y-51035413D01*
X29081094Y-51263655D01*
X29081096Y-51263659D01*
X29081097Y-51263663D01*
X29131031Y-51370746D01*
X29180964Y-51477828D01*
X29180965Y-51477830D01*
X29316505Y-51671402D01*
X29483596Y-51838493D01*
X29640595Y-51948424D01*
X29684220Y-52003000D01*
X29691414Y-52072499D01*
X29659891Y-52134854D01*
X29640596Y-52151574D01*
X29483594Y-52261508D01*
X29316506Y-52428597D01*
X29316501Y-52428604D01*
X29180967Y-52622165D01*
X29180965Y-52622169D01*
X29081098Y-52836335D01*
X29081094Y-52836344D01*
X29019938Y-53064586D01*
X29019936Y-53064596D01*
X28999341Y-53299999D01*
X28999341Y-53300000D01*
X29019936Y-53535403D01*
X29019938Y-53535413D01*
X29081094Y-53763655D01*
X29081096Y-53763659D01*
X29081097Y-53763663D01*
X29119148Y-53845262D01*
X29180964Y-53977828D01*
X29180965Y-53977830D01*
X29316505Y-54171402D01*
X29483597Y-54338494D01*
X29677169Y-54474034D01*
X29677171Y-54474035D01*
X29891337Y-54573903D01*
X30119592Y-54635063D01*
X30296034Y-54650500D01*
X30663966Y-54650500D01*
X30840408Y-54635063D01*
X31068663Y-54573903D01*
X31282829Y-54474035D01*
X31476401Y-54338495D01*
X31643495Y-54171401D01*
X31779035Y-53977830D01*
X31878903Y-53763663D01*
X31940063Y-53535408D01*
X31960659Y-53300000D01*
X31940063Y-53064592D01*
X31878903Y-52836337D01*
X31779035Y-52622171D01*
X31779034Y-52622169D01*
X31643494Y-52428597D01*
X31476403Y-52261506D01*
X31401927Y-52209358D01*
X31319401Y-52151573D01*
X31275778Y-52096999D01*
X31268584Y-52027500D01*
X31300106Y-51965145D01*
X31319398Y-51948428D01*
X31476401Y-51838495D01*
X31643495Y-51671401D01*
X31779035Y-51477830D01*
X31878903Y-51263663D01*
X31940063Y-51035408D01*
X31960659Y-50800000D01*
X31940063Y-50564592D01*
X31878903Y-50336337D01*
X31779035Y-50122171D01*
X31779034Y-50122169D01*
X31643494Y-49928597D01*
X31496295Y-49781398D01*
X31462810Y-49720075D01*
X31467794Y-49650383D01*
X31509666Y-49594450D01*
X31518880Y-49588178D01*
X31524334Y-49584814D01*
X31673656Y-49492712D01*
X31797712Y-49368656D01*
X31889814Y-49219334D01*
X31944999Y-49052797D01*
X31955500Y-48950009D01*
X31955499Y-47752000D01*
X45322540Y-47752000D01*
X45342326Y-47940256D01*
X45342327Y-47940259D01*
X45400818Y-48120277D01*
X45400819Y-48120279D01*
X45400821Y-48120284D01*
X45495467Y-48284216D01*
X45622129Y-48424888D01*
X45726488Y-48500709D01*
X45769152Y-48556036D01*
X45777601Y-48601025D01*
X45777601Y-58326922D01*
X45775876Y-58342539D01*
X45776162Y-58342566D01*
X45775427Y-58350332D01*
X45777601Y-58419481D01*
X45777601Y-58449010D01*
X45777602Y-58449027D01*
X45778469Y-58455898D01*
X45778927Y-58461717D01*
X45780391Y-58508291D01*
X45780392Y-58508294D01*
X45785981Y-58527534D01*
X45789925Y-58546578D01*
X45792437Y-58566458D01*
X45809591Y-58609786D01*
X45811483Y-58615314D01*
X45824482Y-58660055D01*
X45834681Y-58677301D01*
X45843239Y-58694770D01*
X45850615Y-58713399D01*
X45877999Y-58751090D01*
X45881207Y-58755974D01*
X45904928Y-58796083D01*
X45904934Y-58796091D01*
X45919091Y-58810247D01*
X45931729Y-58825043D01*
X45943506Y-58841253D01*
X45943507Y-58841254D01*
X45979410Y-58870955D01*
X45983721Y-58874877D01*
X50391333Y-63282489D01*
X54740411Y-67631567D01*
X54750236Y-67643831D01*
X54750457Y-67643649D01*
X54755427Y-67649656D01*
X54755430Y-67649659D01*
X54755431Y-67649660D01*
X54805868Y-67697024D01*
X54826747Y-67717903D01*
X54832221Y-67722149D01*
X54836659Y-67725939D01*
X54870635Y-67757845D01*
X54870639Y-67757847D01*
X54888190Y-67767496D01*
X54904448Y-67778175D01*
X54920281Y-67790457D01*
X54942232Y-67799955D01*
X54963054Y-67808966D01*
X54968298Y-67811535D01*
X55009125Y-67833980D01*
X55028529Y-67838962D01*
X55046927Y-67845261D01*
X55065322Y-67853221D01*
X55111346Y-67860509D01*
X55117049Y-67861690D01*
X55162198Y-67873283D01*
X55182233Y-67873283D01*
X55201630Y-67874809D01*
X55221413Y-67877943D01*
X55267800Y-67873558D01*
X55273639Y-67873283D01*
X59898828Y-67873283D01*
X59965867Y-67892968D01*
X59990976Y-67914309D01*
X59996702Y-67920668D01*
X59996706Y-67920672D01*
X60149841Y-68031931D01*
X60149846Y-68031934D01*
X60322768Y-68108925D01*
X60322773Y-68108927D01*
X60507930Y-68148283D01*
X60507931Y-68148283D01*
X60697220Y-68148283D01*
X60697222Y-68148283D01*
X60882379Y-68108927D01*
X61055306Y-68031934D01*
X61208447Y-67920671D01*
X61335109Y-67779999D01*
X61429755Y-67616067D01*
X61488250Y-67436039D01*
X61508036Y-67247783D01*
X61488250Y-67059527D01*
X61429755Y-66879499D01*
X61335109Y-66715567D01*
X61208447Y-66574895D01*
X61208446Y-66574894D01*
X61055310Y-66463634D01*
X61055305Y-66463631D01*
X60882383Y-66386640D01*
X60882378Y-66386638D01*
X60736577Y-66355648D01*
X60697222Y-66347283D01*
X60507930Y-66347283D01*
X60475473Y-66354181D01*
X60322773Y-66386638D01*
X60322768Y-66386640D01*
X60149846Y-66463631D01*
X60149841Y-66463634D01*
X59996706Y-66574893D01*
X59996702Y-66574897D01*
X59990976Y-66581257D01*
X59931489Y-66617904D01*
X59898828Y-66622283D01*
X56798401Y-66622283D01*
X56731362Y-66602598D01*
X56685607Y-66549794D01*
X56675663Y-66480636D01*
X56691013Y-66436284D01*
X56707179Y-66408284D01*
X56765674Y-66228256D01*
X56785460Y-66040000D01*
X56765674Y-65851744D01*
X56707179Y-65671716D01*
X56612533Y-65507784D01*
X56485871Y-65367112D01*
X56485870Y-65367111D01*
X56332734Y-65255851D01*
X56332729Y-65255848D01*
X56159807Y-65178857D01*
X56159802Y-65178855D01*
X56014001Y-65147865D01*
X55974646Y-65139500D01*
X55974645Y-65139500D01*
X55915452Y-65139500D01*
X55848413Y-65119815D01*
X55827771Y-65103181D01*
X55003564Y-64278973D01*
X54970079Y-64217650D01*
X54967245Y-64191292D01*
X54967245Y-61610001D01*
X77239500Y-61610001D01*
X77239501Y-61610018D01*
X77250000Y-61712796D01*
X77250001Y-61712799D01*
X77305185Y-61879331D01*
X77305187Y-61879336D01*
X77397289Y-62028657D01*
X77521344Y-62152712D01*
X77676558Y-62248448D01*
X77723283Y-62300396D01*
X77734506Y-62369358D01*
X77706663Y-62433441D01*
X77699144Y-62441668D01*
X77551891Y-62588921D01*
X77416399Y-62782421D01*
X77316570Y-62996507D01*
X77316567Y-62996513D01*
X77259364Y-63209999D01*
X77259364Y-63210000D01*
X78126653Y-63210000D01*
X78193692Y-63229685D01*
X78239447Y-63282489D01*
X78249391Y-63351647D01*
X78245631Y-63368933D01*
X78240000Y-63388111D01*
X78240000Y-63531888D01*
X78245631Y-63551067D01*
X78245630Y-63620936D01*
X78207855Y-63679714D01*
X78144299Y-63708738D01*
X78126653Y-63710000D01*
X77259364Y-63710000D01*
X77316567Y-63923486D01*
X77316570Y-63923492D01*
X77416399Y-64137577D01*
X77416400Y-64137579D01*
X77551886Y-64331073D01*
X77551891Y-64331079D01*
X77718920Y-64498108D01*
X77718926Y-64498113D01*
X77912420Y-64633599D01*
X77912422Y-64633600D01*
X78126507Y-64733429D01*
X78126516Y-64733433D01*
X78354673Y-64794567D01*
X78354684Y-64794569D01*
X78489999Y-64806407D01*
X78490000Y-64806406D01*
X78490000Y-64072301D01*
X78509685Y-64005262D01*
X78562489Y-63959507D01*
X78631647Y-63949563D01*
X78704237Y-63960000D01*
X78704238Y-63960000D01*
X78775762Y-63960000D01*
X78775763Y-63960000D01*
X78848353Y-63949563D01*
X78917512Y-63959507D01*
X78970315Y-64005262D01*
X78990000Y-64072301D01*
X78990000Y-64806407D01*
X79125315Y-64794569D01*
X79125326Y-64794567D01*
X79353483Y-64733433D01*
X79353492Y-64733429D01*
X79567577Y-64633600D01*
X79567579Y-64633599D01*
X79761073Y-64498113D01*
X79761079Y-64498108D01*
X79928105Y-64331082D01*
X80063600Y-64137578D01*
X80163429Y-63923492D01*
X80163432Y-63923486D01*
X80220636Y-63710000D01*
X79353347Y-63710000D01*
X79286308Y-63690315D01*
X79240553Y-63637511D01*
X79230609Y-63568353D01*
X79234369Y-63551067D01*
X79240000Y-63531888D01*
X79240000Y-63388111D01*
X79234369Y-63368933D01*
X79234370Y-63299064D01*
X79272145Y-63240286D01*
X79335701Y-63211262D01*
X79353347Y-63210000D01*
X80220636Y-63210000D01*
X80220635Y-63209999D01*
X80163432Y-62996513D01*
X80163429Y-62996507D01*
X80063600Y-62782422D01*
X80063599Y-62782420D01*
X79928113Y-62588926D01*
X79780856Y-62441668D01*
X79747372Y-62380345D01*
X79752356Y-62310653D01*
X79794228Y-62254720D01*
X79803442Y-62248448D01*
X79809334Y-62244814D01*
X79958656Y-62152712D01*
X80082712Y-62028656D01*
X80174814Y-61879334D01*
X80229999Y-61712797D01*
X80240500Y-61610009D01*
X80240499Y-60309992D01*
X80229999Y-60207203D01*
X80174814Y-60040666D01*
X80082712Y-59891344D01*
X79958656Y-59767288D01*
X79809334Y-59675186D01*
X79642797Y-59620001D01*
X79642795Y-59620000D01*
X79540010Y-59609500D01*
X77939998Y-59609500D01*
X77939981Y-59609501D01*
X77837203Y-59620000D01*
X77837200Y-59620001D01*
X77670668Y-59675185D01*
X77670663Y-59675187D01*
X77521342Y-59767289D01*
X77397289Y-59891342D01*
X77305187Y-60040663D01*
X77305185Y-60040666D01*
X77305186Y-60040666D01*
X77250001Y-60207203D01*
X77250001Y-60207204D01*
X77250000Y-60207204D01*
X77239500Y-60309983D01*
X77239500Y-61610001D01*
X54967245Y-61610001D01*
X54967245Y-57180003D01*
X54986930Y-57112964D01*
X55039734Y-57067209D01*
X55108892Y-57057265D01*
X55172448Y-57086290D01*
X55198632Y-57118004D01*
X55243754Y-57196159D01*
X55243756Y-57196162D01*
X55370420Y-57336836D01*
X55523556Y-57448096D01*
X55523561Y-57448099D01*
X55696483Y-57525090D01*
X55696488Y-57525092D01*
X55881645Y-57564448D01*
X55881646Y-57564448D01*
X56070935Y-57564448D01*
X56070937Y-57564448D01*
X56256094Y-57525092D01*
X56429021Y-57448099D01*
X56582162Y-57336836D01*
X56708824Y-57196164D01*
X56803470Y-57032232D01*
X56861965Y-56852204D01*
X56875940Y-56719233D01*
X56902523Y-56654622D01*
X56908861Y-56647321D01*
X56910448Y-56645632D01*
X56920670Y-56627035D01*
X56931355Y-56610770D01*
X56944363Y-56594002D01*
X56963651Y-56549426D01*
X56966224Y-56544175D01*
X56966561Y-56543560D01*
X56989627Y-56501607D01*
X56994904Y-56481047D01*
X57001206Y-56462642D01*
X57009636Y-56443165D01*
X57017235Y-56395184D01*
X57018417Y-56389473D01*
X57030500Y-56342416D01*
X57030500Y-56321193D01*
X57032027Y-56301793D01*
X57032998Y-56295664D01*
X57035347Y-56280834D01*
X57034448Y-56271331D01*
X57030775Y-56232478D01*
X57030499Y-56226638D01*
X57030499Y-53340000D01*
X60054540Y-53340000D01*
X60074326Y-53528256D01*
X60074327Y-53528259D01*
X60132818Y-53708277D01*
X60132821Y-53708284D01*
X60227467Y-53872216D01*
X60263560Y-53912301D01*
X60354129Y-54012888D01*
X60507265Y-54124148D01*
X60507270Y-54124151D01*
X60680192Y-54201142D01*
X60680197Y-54201144D01*
X60865354Y-54240500D01*
X60865355Y-54240500D01*
X61054644Y-54240500D01*
X61054646Y-54240500D01*
X61239803Y-54201144D01*
X61412730Y-54124151D01*
X61565871Y-54012888D01*
X61692533Y-53872216D01*
X61787179Y-53708284D01*
X61845674Y-53528256D01*
X61865460Y-53340000D01*
X61845674Y-53151744D01*
X61787179Y-52971716D01*
X61692533Y-52807784D01*
X61685524Y-52800000D01*
X61617350Y-52724284D01*
X61587120Y-52661292D01*
X61585500Y-52641312D01*
X61585500Y-51450001D01*
X77239500Y-51450001D01*
X77239501Y-51450018D01*
X77250000Y-51552796D01*
X77250001Y-51552799D01*
X77289303Y-51671402D01*
X77305186Y-51719334D01*
X77378683Y-51838493D01*
X77397289Y-51868657D01*
X77521344Y-51992712D01*
X77676558Y-52088448D01*
X77723283Y-52140396D01*
X77734506Y-52209358D01*
X77706663Y-52273441D01*
X77699144Y-52281668D01*
X77551891Y-52428921D01*
X77416399Y-52622421D01*
X77316570Y-52836507D01*
X77316567Y-52836513D01*
X77259364Y-53049999D01*
X77259364Y-53050000D01*
X78126653Y-53050000D01*
X78193692Y-53069685D01*
X78239447Y-53122489D01*
X78249391Y-53191647D01*
X78245631Y-53208933D01*
X78240000Y-53228111D01*
X78240000Y-53371888D01*
X78245631Y-53391067D01*
X78245630Y-53460936D01*
X78207855Y-53519714D01*
X78144299Y-53548738D01*
X78126653Y-53550000D01*
X77259364Y-53550000D01*
X77316567Y-53763486D01*
X77316570Y-53763492D01*
X77416399Y-53977577D01*
X77416400Y-53977579D01*
X77551886Y-54171073D01*
X77551891Y-54171079D01*
X77718920Y-54338108D01*
X77718926Y-54338113D01*
X77912420Y-54473599D01*
X77912422Y-54473600D01*
X78126507Y-54573429D01*
X78126516Y-54573433D01*
X78354673Y-54634567D01*
X78354684Y-54634569D01*
X78489999Y-54646407D01*
X78490000Y-54646406D01*
X78490000Y-53912301D01*
X78509685Y-53845262D01*
X78562489Y-53799507D01*
X78631647Y-53789563D01*
X78704237Y-53800000D01*
X78704238Y-53800000D01*
X78775762Y-53800000D01*
X78775763Y-53800000D01*
X78848353Y-53789563D01*
X78917512Y-53799507D01*
X78970315Y-53845262D01*
X78990000Y-53912301D01*
X78990000Y-54646407D01*
X79125315Y-54634569D01*
X79125326Y-54634567D01*
X79353483Y-54573433D01*
X79353492Y-54573429D01*
X79567577Y-54473600D01*
X79567579Y-54473599D01*
X79761073Y-54338113D01*
X79761079Y-54338108D01*
X79928105Y-54171082D01*
X80063600Y-53977578D01*
X80163429Y-53763492D01*
X80163432Y-53763486D01*
X80220636Y-53550000D01*
X79353347Y-53550000D01*
X79286308Y-53530315D01*
X79240553Y-53477511D01*
X79230609Y-53408353D01*
X79234369Y-53391067D01*
X79240000Y-53371888D01*
X79240000Y-53228111D01*
X79234369Y-53208933D01*
X79234370Y-53139064D01*
X79272145Y-53080286D01*
X79335701Y-53051262D01*
X79353347Y-53050000D01*
X80220636Y-53050000D01*
X80220635Y-53049999D01*
X80163432Y-52836513D01*
X80163429Y-52836507D01*
X80063600Y-52622422D01*
X80063599Y-52622420D01*
X79928113Y-52428926D01*
X79780856Y-52281668D01*
X79747372Y-52220345D01*
X79752356Y-52150653D01*
X79794228Y-52094720D01*
X79803442Y-52088448D01*
X79809334Y-52084814D01*
X79958656Y-51992712D01*
X80082712Y-51868656D01*
X80174814Y-51719334D01*
X80229999Y-51552797D01*
X80240500Y-51450009D01*
X80240499Y-50149992D01*
X80237916Y-50124710D01*
X80229999Y-50047203D01*
X80229998Y-50047200D01*
X80190699Y-49928604D01*
X80174814Y-49880666D01*
X80082712Y-49731344D01*
X79958656Y-49607288D01*
X79809334Y-49515186D01*
X79642797Y-49460001D01*
X79642795Y-49460000D01*
X79540010Y-49449500D01*
X77939998Y-49449500D01*
X77939981Y-49449501D01*
X77837203Y-49460000D01*
X77837200Y-49460001D01*
X77670668Y-49515185D01*
X77670663Y-49515187D01*
X77521342Y-49607289D01*
X77397289Y-49731342D01*
X77305187Y-49880663D01*
X77305185Y-49880668D01*
X77289301Y-49928603D01*
X77250001Y-50047203D01*
X77250001Y-50047204D01*
X77250000Y-50047204D01*
X77239500Y-50149983D01*
X77239500Y-51450001D01*
X61585500Y-51450001D01*
X61585500Y-48958687D01*
X61605185Y-48891648D01*
X61617350Y-48875715D01*
X61635891Y-48855122D01*
X61692533Y-48792216D01*
X61787179Y-48628284D01*
X61845674Y-48448256D01*
X61865460Y-48260000D01*
X61845674Y-48071744D01*
X61787179Y-47891716D01*
X61692533Y-47727784D01*
X61565871Y-47587112D01*
X61565870Y-47587111D01*
X61412734Y-47475851D01*
X61412729Y-47475848D01*
X61239807Y-47398857D01*
X61239802Y-47398855D01*
X61094000Y-47367865D01*
X61054646Y-47359500D01*
X60865354Y-47359500D01*
X60832897Y-47366398D01*
X60680197Y-47398855D01*
X60680192Y-47398857D01*
X60507270Y-47475848D01*
X60507265Y-47475851D01*
X60354129Y-47587111D01*
X60227466Y-47727785D01*
X60132821Y-47891715D01*
X60132818Y-47891722D01*
X60085170Y-48038369D01*
X60074326Y-48071744D01*
X60054540Y-48260000D01*
X60074326Y-48448256D01*
X60074327Y-48448259D01*
X60132818Y-48628277D01*
X60132821Y-48628284D01*
X60227467Y-48792216D01*
X60270772Y-48840310D01*
X60302650Y-48875715D01*
X60332880Y-48938706D01*
X60334500Y-48958687D01*
X60334500Y-52641312D01*
X60314815Y-52708351D01*
X60302650Y-52724284D01*
X60227466Y-52807784D01*
X60132821Y-52971715D01*
X60132818Y-52971722D01*
X60078446Y-53139064D01*
X60074326Y-53151744D01*
X60054540Y-53340000D01*
X57030499Y-53340000D01*
X57030499Y-52622165D01*
X57030499Y-48692935D01*
X57050184Y-48625900D01*
X57066813Y-48605263D01*
X60489439Y-45182637D01*
X60550762Y-45149153D01*
X60577120Y-45146319D01*
X60600956Y-45146319D01*
X60600958Y-45146319D01*
X60786115Y-45106963D01*
X60959042Y-45029970D01*
X61112183Y-44918707D01*
X61238845Y-44778035D01*
X61333491Y-44614103D01*
X61391986Y-44434075D01*
X61411772Y-44245819D01*
X61391986Y-44057563D01*
X61333491Y-43877535D01*
X61238845Y-43713603D01*
X61112183Y-43572931D01*
X61101201Y-43564952D01*
X60959046Y-43461670D01*
X60959041Y-43461667D01*
X60786119Y-43384676D01*
X60786114Y-43384674D01*
X60640313Y-43353684D01*
X60600958Y-43345319D01*
X60411666Y-43345319D01*
X60379209Y-43352217D01*
X60226509Y-43384674D01*
X60226504Y-43384676D01*
X60053582Y-43461667D01*
X60053577Y-43461670D01*
X59900441Y-43572930D01*
X59773778Y-43713604D01*
X59679133Y-43877534D01*
X59679130Y-43877541D01*
X59620639Y-44057558D01*
X59620638Y-44057560D01*
X59607143Y-44185961D01*
X59580558Y-44250576D01*
X59571503Y-44260680D01*
X55980483Y-47851700D01*
X55967910Y-47861774D01*
X55968065Y-47861961D01*
X55962059Y-47866929D01*
X55946951Y-47883018D01*
X55912809Y-47919375D01*
X55901948Y-47930235D01*
X55891088Y-47941096D01*
X55891078Y-47941108D01*
X55886587Y-47946896D01*
X55882801Y-47951328D01*
X55849552Y-47986737D01*
X55839322Y-48005344D01*
X55828646Y-48021595D01*
X55815640Y-48038363D01*
X55815636Y-48038369D01*
X55796348Y-48082942D01*
X55793777Y-48088189D01*
X55770372Y-48130761D01*
X55770372Y-48130762D01*
X55765091Y-48151330D01*
X55758791Y-48169732D01*
X55750364Y-48189204D01*
X55742766Y-48237178D01*
X55741581Y-48242901D01*
X55729500Y-48289949D01*
X55729500Y-48311175D01*
X55727973Y-48330575D01*
X55724653Y-48351534D01*
X55724652Y-48351536D01*
X55729224Y-48399900D01*
X55729499Y-48405737D01*
X55729499Y-55707580D01*
X55709814Y-55774619D01*
X55657010Y-55820374D01*
X55655935Y-55820859D01*
X55523561Y-55879796D01*
X55523556Y-55879799D01*
X55370420Y-55991059D01*
X55243756Y-56131733D01*
X55198632Y-56209892D01*
X55148065Y-56258108D01*
X55079458Y-56271331D01*
X55014593Y-56245363D01*
X54974065Y-56188448D01*
X54967245Y-56147892D01*
X54967245Y-41290001D01*
X77239500Y-41290001D01*
X77239501Y-41290018D01*
X77250000Y-41392796D01*
X77250001Y-41392799D01*
X77305185Y-41559331D01*
X77305187Y-41559336D01*
X77397289Y-41708657D01*
X77521344Y-41832712D01*
X77676558Y-41928448D01*
X77723283Y-41980396D01*
X77734506Y-42049358D01*
X77706663Y-42113441D01*
X77699144Y-42121668D01*
X77551891Y-42268921D01*
X77416399Y-42462421D01*
X77316570Y-42676507D01*
X77316567Y-42676513D01*
X77259364Y-42889999D01*
X77259364Y-42890000D01*
X78126653Y-42890000D01*
X78193692Y-42909685D01*
X78239447Y-42962489D01*
X78249391Y-43031647D01*
X78245631Y-43048933D01*
X78240000Y-43068111D01*
X78240000Y-43211888D01*
X78245631Y-43231067D01*
X78245630Y-43300936D01*
X78207855Y-43359714D01*
X78144299Y-43388738D01*
X78126653Y-43390000D01*
X77259364Y-43390000D01*
X77316567Y-43603486D01*
X77316570Y-43603492D01*
X77416399Y-43817577D01*
X77416400Y-43817579D01*
X77551886Y-44011073D01*
X77551891Y-44011079D01*
X77718920Y-44178108D01*
X77718926Y-44178113D01*
X77912420Y-44313599D01*
X77912422Y-44313600D01*
X78126507Y-44413429D01*
X78126516Y-44413433D01*
X78354673Y-44474567D01*
X78354684Y-44474569D01*
X78489999Y-44486407D01*
X78490000Y-44486406D01*
X78490000Y-43752301D01*
X78509685Y-43685262D01*
X78562489Y-43639507D01*
X78631647Y-43629563D01*
X78704237Y-43640000D01*
X78704238Y-43640000D01*
X78775762Y-43640000D01*
X78775763Y-43640000D01*
X78848353Y-43629563D01*
X78917512Y-43639507D01*
X78970315Y-43685262D01*
X78990000Y-43752301D01*
X78990000Y-44486407D01*
X79125315Y-44474569D01*
X79125326Y-44474567D01*
X79353483Y-44413433D01*
X79353492Y-44413429D01*
X79567577Y-44313600D01*
X79567579Y-44313599D01*
X79761073Y-44178113D01*
X79761079Y-44178108D01*
X79928105Y-44011082D01*
X80063600Y-43817578D01*
X80163429Y-43603492D01*
X80163432Y-43603486D01*
X80220636Y-43390000D01*
X79353347Y-43390000D01*
X79286308Y-43370315D01*
X79240553Y-43317511D01*
X79230609Y-43248353D01*
X79234369Y-43231067D01*
X79240000Y-43211888D01*
X79240000Y-43068111D01*
X79234369Y-43048933D01*
X79234370Y-42979064D01*
X79272145Y-42920286D01*
X79335701Y-42891262D01*
X79353347Y-42890000D01*
X80220636Y-42890000D01*
X80220635Y-42889999D01*
X80163432Y-42676513D01*
X80163429Y-42676507D01*
X80063600Y-42462422D01*
X80063599Y-42462420D01*
X79928113Y-42268926D01*
X79780856Y-42121668D01*
X79747372Y-42060345D01*
X79752356Y-41990653D01*
X79794228Y-41934720D01*
X79803442Y-41928448D01*
X79809334Y-41924814D01*
X79958656Y-41832712D01*
X80082712Y-41708656D01*
X80174814Y-41559334D01*
X80229999Y-41392797D01*
X80240500Y-41290009D01*
X80240499Y-39989992D01*
X80229999Y-39887203D01*
X80174814Y-39720666D01*
X80082712Y-39571344D01*
X79958656Y-39447288D01*
X79809334Y-39355186D01*
X79642797Y-39300001D01*
X79642795Y-39300000D01*
X79540010Y-39289500D01*
X77939998Y-39289500D01*
X77939981Y-39289501D01*
X77837203Y-39300000D01*
X77837200Y-39300001D01*
X77670668Y-39355185D01*
X77670663Y-39355187D01*
X77521342Y-39447289D01*
X77397289Y-39571342D01*
X77305187Y-39720663D01*
X77305185Y-39720666D01*
X77305186Y-39720666D01*
X77250001Y-39887203D01*
X77250001Y-39887204D01*
X77250000Y-39887204D01*
X77239500Y-39989983D01*
X77239500Y-41290001D01*
X54967245Y-41290001D01*
X54967245Y-39930404D01*
X54986930Y-39863365D01*
X54999095Y-39847432D01*
X55017636Y-39826839D01*
X55074278Y-39763933D01*
X55168924Y-39600001D01*
X55227419Y-39419973D01*
X55247205Y-39231717D01*
X55227419Y-39043461D01*
X55168924Y-38863433D01*
X55074278Y-38699501D01*
X54947616Y-38558829D01*
X54947615Y-38558828D01*
X54794479Y-38447568D01*
X54794474Y-38447565D01*
X54621552Y-38370574D01*
X54621547Y-38370572D01*
X54475746Y-38339582D01*
X54436391Y-38331217D01*
X54436390Y-38331217D01*
X54377198Y-38331217D01*
X54310159Y-38311532D01*
X54289517Y-38294898D01*
X52964788Y-36970169D01*
X52931303Y-36908846D01*
X52928470Y-36882497D01*
X52928470Y-36258686D01*
X52948155Y-36191647D01*
X52960320Y-36175715D01*
X52978861Y-36155122D01*
X53035503Y-36092216D01*
X53130149Y-35928284D01*
X53188644Y-35748256D01*
X53208430Y-35560000D01*
X53188644Y-35371744D01*
X53130149Y-35191716D01*
X53035503Y-35027784D01*
X52908841Y-34887112D01*
X52846985Y-34842171D01*
X52755704Y-34775851D01*
X52755699Y-34775848D01*
X52582777Y-34698857D01*
X52582772Y-34698855D01*
X52436971Y-34667865D01*
X52397616Y-34659500D01*
X52208324Y-34659500D01*
X52175867Y-34666398D01*
X52023167Y-34698855D01*
X52023162Y-34698857D01*
X51850240Y-34775848D01*
X51850235Y-34775851D01*
X51697099Y-34887111D01*
X51570436Y-35027785D01*
X51475791Y-35191715D01*
X51475788Y-35191722D01*
X51445612Y-35284596D01*
X51417296Y-35371744D01*
X51397510Y-35560000D01*
X51417296Y-35748256D01*
X51417297Y-35748259D01*
X51475788Y-35928277D01*
X51475791Y-35928284D01*
X51570437Y-36092216D01*
X51613742Y-36140310D01*
X51645620Y-36175715D01*
X51675850Y-36238706D01*
X51677470Y-36258687D01*
X51677470Y-37110197D01*
X51675745Y-37125814D01*
X51676031Y-37125841D01*
X51675296Y-37133607D01*
X51677470Y-37202756D01*
X51677470Y-37232285D01*
X51677471Y-37232302D01*
X51678338Y-37239173D01*
X51678796Y-37244992D01*
X51680260Y-37291566D01*
X51680261Y-37291569D01*
X51685850Y-37310809D01*
X51689794Y-37329853D01*
X51692306Y-37349733D01*
X51709460Y-37393061D01*
X51711352Y-37398589D01*
X51724351Y-37443330D01*
X51734550Y-37460576D01*
X51743108Y-37478045D01*
X51750484Y-37496674D01*
X51777868Y-37534365D01*
X51781076Y-37539249D01*
X51804797Y-37579358D01*
X51804803Y-37579366D01*
X51818960Y-37593522D01*
X51831598Y-37608318D01*
X51843375Y-37624528D01*
X51843376Y-37624529D01*
X51879279Y-37654230D01*
X51883590Y-37658152D01*
X53088869Y-38863432D01*
X53402783Y-39177346D01*
X53436268Y-39238669D01*
X53438423Y-39252065D01*
X53443462Y-39300001D01*
X53456071Y-39419973D01*
X53456072Y-39419976D01*
X53514563Y-39599994D01*
X53514566Y-39600001D01*
X53609210Y-39763931D01*
X53609212Y-39763933D01*
X53684393Y-39847430D01*
X53714624Y-39910421D01*
X53716244Y-39930402D01*
X53716244Y-64419006D01*
X53714521Y-64434623D01*
X53714805Y-64434650D01*
X53714071Y-64442409D01*
X53716245Y-64511559D01*
X53716245Y-64538858D01*
X53696560Y-64605897D01*
X53643756Y-64651652D01*
X53574598Y-64661596D01*
X53511042Y-64632571D01*
X53504564Y-64626539D01*
X47064920Y-58186894D01*
X47031435Y-58125571D01*
X47028601Y-58099213D01*
X47028601Y-49224210D01*
X47896091Y-49224210D01*
X47915877Y-49412466D01*
X47915878Y-49412469D01*
X47974369Y-49592487D01*
X47974372Y-49592494D01*
X48069018Y-49756426D01*
X48180882Y-49880663D01*
X48195680Y-49897098D01*
X48348816Y-50008358D01*
X48348821Y-50008361D01*
X48521743Y-50085352D01*
X48521748Y-50085354D01*
X48706905Y-50124710D01*
X48706906Y-50124710D01*
X48896195Y-50124710D01*
X48896197Y-50124710D01*
X49081354Y-50085354D01*
X49254281Y-50008361D01*
X49407422Y-49897098D01*
X49534084Y-49756426D01*
X49628730Y-49592494D01*
X49687225Y-49412466D01*
X49707011Y-49224210D01*
X49687225Y-49035954D01*
X49628730Y-48855926D01*
X49534084Y-48691994D01*
X49458901Y-48608494D01*
X49428671Y-48545502D01*
X49427051Y-48525522D01*
X49427051Y-48213276D01*
X49446736Y-48146237D01*
X49463370Y-48125595D01*
X50249609Y-47339356D01*
X51127105Y-46461859D01*
X51188426Y-46428376D01*
X51258118Y-46433360D01*
X51287666Y-46449222D01*
X51363266Y-46504148D01*
X51363270Y-46504151D01*
X51536192Y-46581142D01*
X51536197Y-46581144D01*
X51721354Y-46620500D01*
X51721355Y-46620500D01*
X51910644Y-46620500D01*
X51910646Y-46620500D01*
X52095803Y-46581144D01*
X52268730Y-46504151D01*
X52421871Y-46392888D01*
X52548533Y-46252216D01*
X52643179Y-46088284D01*
X52701674Y-45908256D01*
X52721460Y-45720000D01*
X52701674Y-45531744D01*
X52643179Y-45351716D01*
X52548533Y-45187784D01*
X52421871Y-45047112D01*
X52421870Y-45047111D01*
X52268734Y-44935851D01*
X52268729Y-44935848D01*
X52095807Y-44858857D01*
X52095802Y-44858855D01*
X51950001Y-44827865D01*
X51910646Y-44819500D01*
X51721354Y-44819500D01*
X51688897Y-44826398D01*
X51536197Y-44858855D01*
X51536192Y-44858857D01*
X51363270Y-44935848D01*
X51363265Y-44935851D01*
X51210130Y-45047110D01*
X51210126Y-45047114D01*
X51204400Y-45053474D01*
X51144913Y-45090121D01*
X51112252Y-45094500D01*
X51067112Y-45094500D01*
X51051495Y-45092776D01*
X51051468Y-45093062D01*
X51043706Y-45092327D01*
X50974578Y-45094500D01*
X50945025Y-45094500D01*
X50944304Y-45094590D01*
X50938132Y-45095369D01*
X50932320Y-45095826D01*
X50885753Y-45097290D01*
X50885742Y-45097292D01*
X50866509Y-45102879D01*
X50847469Y-45106822D01*
X50827592Y-45109334D01*
X50827585Y-45109335D01*
X50827583Y-45109336D01*
X50827581Y-45109336D01*
X50827580Y-45109337D01*
X50784243Y-45126494D01*
X50778717Y-45128386D01*
X50733986Y-45141382D01*
X50733983Y-45141383D01*
X50716738Y-45151581D01*
X50699276Y-45160135D01*
X50680647Y-45167511D01*
X50680642Y-45167513D01*
X50642939Y-45194906D01*
X50638057Y-45198112D01*
X50597955Y-45221828D01*
X50583783Y-45236000D01*
X50568998Y-45248628D01*
X50552787Y-45260407D01*
X50523084Y-45296310D01*
X50519152Y-45300631D01*
X48417759Y-47402023D01*
X48405502Y-47411844D01*
X48405685Y-47412065D01*
X48399674Y-47417037D01*
X48352323Y-47467460D01*
X48331440Y-47488343D01*
X48331428Y-47488356D01*
X48327172Y-47493841D01*
X48323388Y-47498271D01*
X48291488Y-47532242D01*
X48291487Y-47532244D01*
X48281835Y-47549800D01*
X48271161Y-47566050D01*
X48258880Y-47581885D01*
X48258875Y-47581892D01*
X48240366Y-47624662D01*
X48237796Y-47629908D01*
X48215354Y-47670730D01*
X48210373Y-47690131D01*
X48204072Y-47708534D01*
X48196113Y-47726926D01*
X48196112Y-47726929D01*
X48188822Y-47772951D01*
X48187638Y-47778670D01*
X48176052Y-47823796D01*
X48176051Y-47823806D01*
X48176051Y-47843840D01*
X48174524Y-47863237D01*
X48173800Y-47867807D01*
X48171391Y-47883018D01*
X48171391Y-47883019D01*
X48175776Y-47929407D01*
X48176051Y-47935245D01*
X48176051Y-48525522D01*
X48156366Y-48592561D01*
X48144201Y-48608494D01*
X48069017Y-48691994D01*
X47974372Y-48855925D01*
X47974369Y-48855932D01*
X47915878Y-49035950D01*
X47915877Y-49035954D01*
X47896091Y-49224210D01*
X47028601Y-49224210D01*
X47028601Y-48199543D01*
X47045213Y-48137545D01*
X47055179Y-48120284D01*
X47113674Y-47940256D01*
X47133460Y-47752000D01*
X47113674Y-47563744D01*
X47055179Y-47383716D01*
X46960533Y-47219784D01*
X46933443Y-47189698D01*
X46929368Y-47184666D01*
X46862695Y-47092898D01*
X46862695Y-47092897D01*
X46740922Y-46992159D01*
X46597928Y-46924871D01*
X46597928Y-46924870D01*
X46587998Y-46922976D01*
X46560807Y-46914454D01*
X46507806Y-46890857D01*
X46507801Y-46890855D01*
X46372624Y-46862123D01*
X46322646Y-46851500D01*
X46133354Y-46851500D01*
X46100897Y-46858398D01*
X45948197Y-46890855D01*
X45948192Y-46890857D01*
X45775270Y-46967848D01*
X45775265Y-46967851D01*
X45622129Y-47079111D01*
X45495466Y-47219785D01*
X45400821Y-47383715D01*
X45400818Y-47383722D01*
X45344079Y-47558349D01*
X45342326Y-47563744D01*
X45322540Y-47752000D01*
X31955499Y-47752000D01*
X31955499Y-47649992D01*
X31955294Y-47647989D01*
X31944999Y-47547203D01*
X31944998Y-47547200D01*
X31889814Y-47380666D01*
X31797712Y-47231344D01*
X31673656Y-47107288D01*
X31524334Y-47015186D01*
X31357797Y-46960001D01*
X31357795Y-46960000D01*
X31255016Y-46949500D01*
X31255009Y-46949500D01*
X29872267Y-46949500D01*
X29805228Y-46929815D01*
X29759473Y-46877011D01*
X29749529Y-46807853D01*
X29749888Y-46805511D01*
X29759370Y-46747678D01*
X29749061Y-46557525D01*
X29698114Y-46374033D01*
X29608914Y-46205784D01*
X29608911Y-46205781D01*
X29608911Y-46205779D01*
X29485631Y-46060643D01*
X29334026Y-45945396D01*
X29334025Y-45945395D01*
X29161193Y-45865436D01*
X28975216Y-45824500D01*
X28832535Y-45824500D01*
X28832533Y-45824500D01*
X28690683Y-45839927D01*
X28510217Y-45900734D01*
X28347048Y-45998909D01*
X28208791Y-46129872D01*
X28101922Y-46287493D01*
X28031438Y-46464393D01*
X28016171Y-46557523D01*
X28000630Y-46652322D01*
X25908000Y-46652322D01*
X25908000Y-28872322D01*
X28000630Y-28872322D01*
X28010939Y-29062475D01*
X28058892Y-29235185D01*
X28061887Y-29245969D01*
X28061888Y-29245972D01*
X28105000Y-29327288D01*
X28149563Y-29411344D01*
X28151087Y-29414217D01*
X28151088Y-29414220D01*
X28274368Y-29559356D01*
X28274369Y-29559357D01*
X28425971Y-29674602D01*
X28425972Y-29674602D01*
X28425973Y-29674603D01*
X28425974Y-29674604D01*
X28531758Y-29723543D01*
X28598803Y-29754562D01*
X28598804Y-29754562D01*
X28598806Y-29754563D01*
X28655227Y-29766982D01*
X28784784Y-29795500D01*
X28784785Y-29795500D01*
X28880500Y-29795500D01*
X28947539Y-29815185D01*
X28993294Y-29867989D01*
X29004500Y-29919500D01*
X29004500Y-31170001D01*
X29004501Y-31170018D01*
X29015000Y-31272796D01*
X29015001Y-31272799D01*
X29070185Y-31439331D01*
X29070187Y-31439336D01*
X29162289Y-31588657D01*
X29286344Y-31712712D01*
X29441558Y-31808448D01*
X29488283Y-31860396D01*
X29499506Y-31929358D01*
X29471663Y-31993441D01*
X29464144Y-32001668D01*
X29316891Y-32148921D01*
X29181399Y-32342421D01*
X29081570Y-32556507D01*
X29081567Y-32556513D01*
X29024364Y-32769999D01*
X29024364Y-32770000D01*
X29892708Y-32770000D01*
X29959747Y-32789685D01*
X30005502Y-32842489D01*
X30015446Y-32911647D01*
X30011686Y-32928933D01*
X30005000Y-32951705D01*
X30005000Y-33088294D01*
X30011686Y-33111067D01*
X30011684Y-33180937D01*
X29973909Y-33239714D01*
X29910353Y-33268738D01*
X29892708Y-33270000D01*
X29024364Y-33270000D01*
X29081567Y-33483486D01*
X29081570Y-33483492D01*
X29181399Y-33697577D01*
X29181400Y-33697579D01*
X29316886Y-33891073D01*
X29316891Y-33891079D01*
X29483920Y-34058108D01*
X29483926Y-34058113D01*
X29641031Y-34168119D01*
X29684656Y-34222696D01*
X29691850Y-34292194D01*
X29660327Y-34354549D01*
X29641032Y-34371269D01*
X29483594Y-34481508D01*
X29316506Y-34648597D01*
X29316501Y-34648604D01*
X29180967Y-34842165D01*
X29180965Y-34842169D01*
X29081098Y-35056335D01*
X29081094Y-35056344D01*
X29019938Y-35284586D01*
X29019936Y-35284596D01*
X28999341Y-35519999D01*
X28999341Y-35520000D01*
X29019936Y-35755403D01*
X29019938Y-35755413D01*
X29081094Y-35983655D01*
X29081096Y-35983659D01*
X29081097Y-35983663D01*
X29131030Y-36090745D01*
X29180964Y-36197828D01*
X29180965Y-36197830D01*
X29316505Y-36391402D01*
X29483597Y-36558494D01*
X29677169Y-36694034D01*
X29677171Y-36694035D01*
X29891337Y-36793903D01*
X30119592Y-36855063D01*
X30296034Y-36870500D01*
X30663966Y-36870500D01*
X30840408Y-36855063D01*
X31068663Y-36793903D01*
X31282829Y-36694035D01*
X31476401Y-36558495D01*
X31643495Y-36391401D01*
X31779035Y-36197830D01*
X31878903Y-35983663D01*
X31940063Y-35755408D01*
X31960659Y-35520000D01*
X31940063Y-35284592D01*
X31878903Y-35056337D01*
X31779035Y-34842171D01*
X31779034Y-34842169D01*
X31643494Y-34648597D01*
X31476403Y-34481506D01*
X31318967Y-34371269D01*
X31275342Y-34316692D01*
X31268148Y-34247194D01*
X31299671Y-34184839D01*
X31318967Y-34168119D01*
X31476073Y-34058113D01*
X31476079Y-34058108D01*
X31643105Y-33891082D01*
X31778600Y-33697578D01*
X31878429Y-33483492D01*
X31878432Y-33483486D01*
X31935636Y-33270000D01*
X31067292Y-33270000D01*
X31000253Y-33250315D01*
X30954498Y-33197511D01*
X30944554Y-33128353D01*
X30948314Y-33111067D01*
X30955000Y-33088294D01*
X30955000Y-32951705D01*
X30948314Y-32928933D01*
X30948316Y-32859063D01*
X30986091Y-32800286D01*
X31049647Y-32771262D01*
X31067292Y-32770000D01*
X31935636Y-32770000D01*
X31935635Y-32769999D01*
X31878432Y-32556513D01*
X31878429Y-32556507D01*
X31778600Y-32342422D01*
X31778599Y-32342420D01*
X31643113Y-32148926D01*
X31495856Y-32001668D01*
X31462372Y-31940345D01*
X31467356Y-31870653D01*
X31509228Y-31814720D01*
X31518442Y-31808448D01*
X31573124Y-31774720D01*
X31673656Y-31712712D01*
X31797712Y-31588656D01*
X31889814Y-31439334D01*
X31944999Y-31272797D01*
X31955500Y-31170009D01*
X31955500Y-31130001D01*
X77239500Y-31130001D01*
X77239501Y-31130018D01*
X77250000Y-31232796D01*
X77250001Y-31232799D01*
X77305185Y-31399331D01*
X77305187Y-31399336D01*
X77397289Y-31548657D01*
X77521344Y-31672712D01*
X77676558Y-31768448D01*
X77723283Y-31820396D01*
X77734506Y-31889358D01*
X77706663Y-31953441D01*
X77699144Y-31961668D01*
X77551891Y-32108921D01*
X77416399Y-32302421D01*
X77316570Y-32516507D01*
X77316567Y-32516513D01*
X77259364Y-32729999D01*
X77259364Y-32730000D01*
X78126653Y-32730000D01*
X78193692Y-32749685D01*
X78239447Y-32802489D01*
X78249391Y-32871647D01*
X78245631Y-32888933D01*
X78240000Y-32908111D01*
X78240000Y-33051888D01*
X78245631Y-33071067D01*
X78245630Y-33140936D01*
X78207855Y-33199714D01*
X78144299Y-33228738D01*
X78126653Y-33230000D01*
X77259364Y-33230000D01*
X77316567Y-33443486D01*
X77316570Y-33443492D01*
X77416399Y-33657577D01*
X77416400Y-33657579D01*
X77551886Y-33851073D01*
X77551891Y-33851079D01*
X77718920Y-34018108D01*
X77718926Y-34018113D01*
X77912420Y-34153599D01*
X77912422Y-34153600D01*
X78126507Y-34253429D01*
X78126516Y-34253433D01*
X78354673Y-34314567D01*
X78354684Y-34314569D01*
X78489999Y-34326407D01*
X78490000Y-34326406D01*
X78490000Y-33592301D01*
X78509685Y-33525262D01*
X78562489Y-33479507D01*
X78631647Y-33469563D01*
X78704237Y-33480000D01*
X78704238Y-33480000D01*
X78775762Y-33480000D01*
X78775763Y-33480000D01*
X78848353Y-33469563D01*
X78917512Y-33479507D01*
X78970315Y-33525262D01*
X78990000Y-33592301D01*
X78990000Y-34326407D01*
X79125315Y-34314569D01*
X79125326Y-34314567D01*
X79353483Y-34253433D01*
X79353492Y-34253429D01*
X79567577Y-34153600D01*
X79567579Y-34153599D01*
X79761073Y-34018113D01*
X79761079Y-34018108D01*
X79928105Y-33851082D01*
X80063600Y-33657578D01*
X80163429Y-33443492D01*
X80163432Y-33443486D01*
X80220636Y-33230000D01*
X79353347Y-33230000D01*
X79286308Y-33210315D01*
X79240553Y-33157511D01*
X79230609Y-33088353D01*
X79234369Y-33071067D01*
X79240000Y-33051888D01*
X79240000Y-32908111D01*
X79234369Y-32888933D01*
X79234370Y-32819064D01*
X79272145Y-32760286D01*
X79335701Y-32731262D01*
X79353347Y-32730000D01*
X80220636Y-32730000D01*
X80220635Y-32729999D01*
X80163432Y-32516513D01*
X80163429Y-32516507D01*
X80063600Y-32302422D01*
X80063599Y-32302420D01*
X79928113Y-32108926D01*
X79780856Y-31961668D01*
X79747372Y-31900345D01*
X79752356Y-31830653D01*
X79794228Y-31774720D01*
X79803442Y-31768448D01*
X79893805Y-31712712D01*
X79958656Y-31672712D01*
X80082712Y-31548656D01*
X80174814Y-31399334D01*
X80229999Y-31232797D01*
X80240500Y-31130009D01*
X80240499Y-29829992D01*
X80238986Y-29815185D01*
X80229999Y-29727203D01*
X80229998Y-29727200D01*
X80188069Y-29600668D01*
X80174814Y-29560666D01*
X80082712Y-29411344D01*
X79958656Y-29287288D01*
X79809334Y-29195186D01*
X79642797Y-29140001D01*
X79642795Y-29140000D01*
X79540010Y-29129500D01*
X77939998Y-29129500D01*
X77939981Y-29129501D01*
X77837203Y-29140000D01*
X77837200Y-29140001D01*
X77670668Y-29195185D01*
X77670663Y-29195187D01*
X77521342Y-29287289D01*
X77397289Y-29411342D01*
X77305187Y-29560663D01*
X77305185Y-29560668D01*
X77277349Y-29644670D01*
X77250001Y-29727203D01*
X77250001Y-29727204D01*
X77250000Y-29727204D01*
X77239500Y-29829983D01*
X77239500Y-31130001D01*
X31955500Y-31130001D01*
X31955499Y-29869992D01*
X31955294Y-29867989D01*
X31944999Y-29767203D01*
X31944998Y-29767200D01*
X31889814Y-29600666D01*
X31797712Y-29451344D01*
X31673656Y-29327288D01*
X31524334Y-29235186D01*
X31357797Y-29180001D01*
X31357795Y-29180000D01*
X31255016Y-29169500D01*
X31255009Y-29169500D01*
X29872267Y-29169500D01*
X29805228Y-29149815D01*
X29759473Y-29097011D01*
X29749529Y-29027853D01*
X29749888Y-29025511D01*
X29759370Y-28967678D01*
X29749061Y-28777525D01*
X29698114Y-28594033D01*
X29608914Y-28425784D01*
X29608911Y-28425781D01*
X29608911Y-28425779D01*
X29485631Y-28280643D01*
X29334026Y-28165396D01*
X29334025Y-28165395D01*
X29161193Y-28085436D01*
X28975216Y-28044500D01*
X28832535Y-28044500D01*
X28832533Y-28044500D01*
X28690683Y-28059927D01*
X28510217Y-28120734D01*
X28347048Y-28218909D01*
X28208791Y-28349872D01*
X28101922Y-28507493D01*
X28031438Y-28684393D01*
X28016171Y-28777523D01*
X28000630Y-28872322D01*
X25908000Y-28872322D01*
X25908000Y-25523859D01*
X25927684Y-25456824D01*
X25980488Y-25411069D01*
X26031861Y-25399863D01*
X87912959Y-25331447D01*
X87980020Y-25351058D01*
G37*
%TD.AperFunction*%
%TD*%
M02*
