%TF.GenerationSoftware,KiCad,Pcbnew,7.0.7*%
%TF.CreationDate,2023-10-19T13:35:15-07:00*%
%TF.ProjectId,555Trigger,35353554-7269-4676-9765-722e6b696361,0*%
%TF.SameCoordinates,Original*%
%TF.FileFunction,Copper,L1,Top*%
%TF.FilePolarity,Positive*%
%FSLAX46Y46*%
G04 Gerber Fmt 4.6, Leading zero omitted, Abs format (unit mm)*
G04 Created by KiCad (PCBNEW 7.0.7) date 2023-10-19 13:35:15*
%MOMM*%
%LPD*%
G01*
G04 APERTURE LIST*
G04 Aperture macros list*
%AMRoundRect*
0 Rectangle with rounded corners*
0 $1 Rounding radius*
0 $2 $3 $4 $5 $6 $7 $8 $9 X,Y pos of 4 corners*
0 Add a 4 corners polygon primitive as box body*
4,1,4,$2,$3,$4,$5,$6,$7,$8,$9,$2,$3,0*
0 Add four circle primitives for the rounded corners*
1,1,$1+$1,$2,$3*
1,1,$1+$1,$4,$5*
1,1,$1+$1,$6,$7*
1,1,$1+$1,$8,$9*
0 Add four rect primitives between the rounded corners*
20,1,$1+$1,$2,$3,$4,$5,0*
20,1,$1+$1,$4,$5,$6,$7,0*
20,1,$1+$1,$6,$7,$8,$9,0*
20,1,$1+$1,$8,$9,$2,$3,0*%
G04 Aperture macros list end*
%TA.AperFunction,SMDPad,CuDef*%
%ADD10RoundRect,0.250000X-0.350000X-0.450000X0.350000X-0.450000X0.350000X0.450000X-0.350000X0.450000X0*%
%TD*%
%TA.AperFunction,SMDPad,CuDef*%
%ADD11RoundRect,0.237500X-0.300000X-0.237500X0.300000X-0.237500X0.300000X0.237500X-0.300000X0.237500X0*%
%TD*%
%TA.AperFunction,SMDPad,CuDef*%
%ADD12R,0.300000X1.600000*%
%TD*%
%TA.AperFunction,SMDPad,CuDef*%
%ADD13RoundRect,0.150000X-0.825000X-0.150000X0.825000X-0.150000X0.825000X0.150000X-0.825000X0.150000X0*%
%TD*%
%TA.AperFunction,ComponentPad*%
%ADD14RoundRect,0.250000X-0.750000X0.600000X-0.750000X-0.600000X0.750000X-0.600000X0.750000X0.600000X0*%
%TD*%
%TA.AperFunction,ComponentPad*%
%ADD15O,2.000000X1.700000*%
%TD*%
%TA.AperFunction,SMDPad,CuDef*%
%ADD16R,2.500000X2.500000*%
%TD*%
%TA.AperFunction,SMDPad,CuDef*%
%ADD17R,2.440000X1.120000*%
%TD*%
%TA.AperFunction,SMDPad,CuDef*%
%ADD18RoundRect,0.100000X-0.637500X-0.100000X0.637500X-0.100000X0.637500X0.100000X-0.637500X0.100000X0*%
%TD*%
%TA.AperFunction,SMDPad,CuDef*%
%ADD19R,1.600000X1.600000*%
%TD*%
%TA.AperFunction,ComponentPad*%
%ADD20RoundRect,0.250000X-0.725000X0.600000X-0.725000X-0.600000X0.725000X-0.600000X0.725000X0.600000X0*%
%TD*%
%TA.AperFunction,ComponentPad*%
%ADD21O,1.950000X1.700000*%
%TD*%
%TA.AperFunction,SMDPad,CuDef*%
%ADD22RoundRect,0.250000X-0.650000X0.412500X-0.650000X-0.412500X0.650000X-0.412500X0.650000X0.412500X0*%
%TD*%
%TA.AperFunction,SMDPad,CuDef*%
%ADD23RoundRect,0.250000X0.450000X-0.350000X0.450000X0.350000X-0.450000X0.350000X-0.450000X-0.350000X0*%
%TD*%
%TA.AperFunction,SMDPad,CuDef*%
%ADD24R,0.800000X0.300000*%
%TD*%
%TA.AperFunction,ViaPad*%
%ADD25C,0.800000*%
%TD*%
%TA.AperFunction,ViaPad*%
%ADD26C,0.300000*%
%TD*%
%TA.AperFunction,Conductor*%
%ADD27C,0.300000*%
%TD*%
%TA.AperFunction,Conductor*%
%ADD28C,0.250000*%
%TD*%
G04 APERTURE END LIST*
D10*
%TO.P,R6,1*%
%TO.N,Net-(WidthControlSignal1-Pin_1)*%
X29480000Y-68990000D03*
%TO.P,R6,2*%
%TO.N,Net-(U1C-+)*%
X31480000Y-68990000D03*
%TD*%
D11*
%TO.P,C2,1*%
%TO.N,Net-(U1B-+)*%
X35560000Y-66040000D03*
%TO.P,C2,2*%
%TO.N,GND*%
X37285000Y-66040000D03*
%TD*%
D12*
%TO.P,U7,1,C*%
%TO.N,/Strobing_Trigger/Trigger_Out*%
X46695000Y-92280000D03*
%TO.P,U7,2,D*%
%TO.N,Net-(U7-D)*%
X46045000Y-92280000D03*
%TO.P,U7,3,~{Q}*%
X45395000Y-92280000D03*
%TO.P,U7,4,GND*%
%TO.N,GND*%
X44745000Y-92280000D03*
%TO.P,U7,5,Q*%
%TO.N,Net-(U7-Q)*%
X44745000Y-95680000D03*
%TO.P,U7,6,~{CLR}*%
%TO.N,+5V*%
X45395000Y-95680000D03*
%TO.P,U7,7,~{PRE}*%
X46045000Y-95680000D03*
%TO.P,U7,8,VCC*%
X46695000Y-95680000D03*
%TD*%
D13*
%TO.P,Brain_555,1,GND*%
%TO.N,GND*%
X58485000Y-38735000D03*
%TO.P,Brain_555,2,TR*%
%TO.N,VAC*%
X58485000Y-40005000D03*
%TO.P,Brain_555,3,Q*%
%TO.N,/Brain_Camera_Unit/Trigger_Out*%
X58485000Y-41275000D03*
%TO.P,Brain_555,4,R*%
%TO.N,+5V*%
X58485000Y-42545000D03*
%TO.P,Brain_555,5,CV*%
%TO.N,/Brain_Camera_Unit/CV_In*%
X63435000Y-42545000D03*
%TO.P,Brain_555,6,THR*%
%TO.N,Net-(Brain_555-DIS)*%
X63435000Y-41275000D03*
%TO.P,Brain_555,7,DIS*%
X63435000Y-40005000D03*
%TO.P,Brain_555,8,VCC*%
%TO.N,+5V*%
X63435000Y-38735000D03*
%TD*%
D14*
%TO.P,Behavior2,1,Pin_1*%
%TO.N,Net-(Behavior1-Pin_1)*%
X78740000Y-71120000D03*
D15*
%TO.P,Behavior2,2,Pin_2*%
%TO.N,GND*%
X78740000Y-73620000D03*
%TD*%
D16*
%TO.P,Strobe_Timing1,1,1*%
%TO.N,GND*%
X66000000Y-111305000D03*
%TO.P,Strobe_Timing1,2,2*%
%TO.N,Net-(Strobe_555-DIS)*%
X63500000Y-102055000D03*
%TO.P,Strobe_Timing1,3,3*%
%TO.N,+5V*%
X61000000Y-111305000D03*
%TD*%
D17*
%TO.P,SW1,1*%
%TO.N,Net-(U1A--)*%
X31255000Y-76200000D03*
%TO.P,SW1,2*%
%TO.N,Net-(U1B--)*%
X31255000Y-78740000D03*
%TO.P,SW1,3*%
%TO.N,Net-(U1C--)*%
X31255000Y-81280000D03*
%TO.P,SW1,4*%
%TO.N,/Strobing_Trigger/CV_In*%
X39865000Y-81280000D03*
%TO.P,SW1,5*%
%TO.N,/Behavior_Camera_Unit/CV_In*%
X39865000Y-78740000D03*
%TO.P,SW1,6*%
%TO.N,/Brain_Camera_Unit/CV_In*%
X39865000Y-76200000D03*
%TD*%
D18*
%TO.P,U1,1*%
%TO.N,Net-(U1A--)*%
X42857500Y-66630000D03*
%TO.P,U1,2,-*%
X42857500Y-67280000D03*
%TO.P,U1,3,+*%
%TO.N,Net-(U1A-+)*%
X42857500Y-67930000D03*
%TO.P,U1,4,V+*%
%TO.N,+5V*%
X42857500Y-68580000D03*
%TO.P,U1,5,+*%
%TO.N,Net-(U1B-+)*%
X42857500Y-69230000D03*
%TO.P,U1,6,-*%
%TO.N,Net-(U1B--)*%
X42857500Y-69880000D03*
%TO.P,U1,7*%
X42857500Y-70530000D03*
%TO.P,U1,8*%
%TO.N,Net-(U1C--)*%
X48582500Y-70530000D03*
%TO.P,U1,9,-*%
X48582500Y-69880000D03*
%TO.P,U1,10,+*%
%TO.N,Net-(U1C-+)*%
X48582500Y-69230000D03*
%TO.P,U1,11,V-*%
%TO.N,GND*%
X48582500Y-68580000D03*
%TO.P,U1,12,+*%
X48582500Y-67930000D03*
%TO.P,U1,13,-*%
X48582500Y-67280000D03*
%TO.P,U1,14*%
X48582500Y-66630000D03*
%TD*%
D11*
%TO.P,C1,1*%
%TO.N,Net-(U1A-+)*%
X35560000Y-63530000D03*
%TO.P,C1,2*%
%TO.N,GND*%
X37285000Y-63530000D03*
%TD*%
D10*
%TO.P,R4,1*%
%TO.N,Net-(Output_Voltage1-Pad3)*%
X41180000Y-63500000D03*
%TO.P,R4,2*%
%TO.N,GND*%
X43180000Y-63500000D03*
%TD*%
D14*
%TO.P,Strobing2,1,Pin_1*%
%TO.N,Net-(Strobing2-Pin_1)*%
X78747500Y-110002000D03*
D15*
%TO.P,Strobing2,2,Pin_2*%
%TO.N,GND*%
X78747500Y-112502000D03*
%TD*%
D19*
%TO.P,U9,1*%
%TO.N,Net-(Brain1-Pin_1)*%
X52070000Y-38354000D03*
%TO.P,U9,2,-*%
%TO.N,/Brain_Camera_Unit/Trigger_Out*%
X49530000Y-38354000D03*
%TO.P,U9,3,+*%
%TO.N,Net-(U9A-+)*%
X46990000Y-38354000D03*
%TO.P,U9,4,V-*%
%TO.N,GND*%
X44450000Y-38354000D03*
%TO.P,U9,5,+*%
%TO.N,Net-(U9A-+)*%
X44450000Y-45974000D03*
%TO.P,U9,6,-*%
%TO.N,/Behavior_Camera_Unit/Trigger_Out*%
X46990000Y-45974000D03*
%TO.P,U9,7*%
%TO.N,Net-(Behavior1-Pin_1)*%
X49530000Y-45974000D03*
%TO.P,U9,8,V+*%
%TO.N,Net-(U9C-V+)*%
X52070000Y-45974000D03*
%TD*%
D20*
%TO.P,WidthControlSignal1,1,Pin_1*%
%TO.N,Net-(WidthControlSignal1-Pin_1)*%
X30480000Y-48300000D03*
D21*
%TO.P,WidthControlSignal1,2,Pin_2*%
%TO.N,Net-(WidthControlSignal1-Pin_2)*%
X30480000Y-50800000D03*
%TO.P,WidthControlSignal1,3,Pin_3*%
%TO.N,Net-(WidthControlSignal1-Pin_3)*%
X30480000Y-53300000D03*
%TD*%
D22*
%TO.P,Behav_Timing_C1,1*%
%TO.N,Net-(Behav_555-DIS)*%
X71120000Y-74637500D03*
%TO.P,Behav_Timing_C1,2*%
%TO.N,GND*%
X71120000Y-77762500D03*
%TD*%
D14*
%TO.P,Brain1,1,Pin_1*%
%TO.N,Net-(Brain1-Pin_1)*%
X78740000Y-91440000D03*
D15*
%TO.P,Brain1,2,Pin_2*%
%TO.N,GND*%
X78740000Y-93940000D03*
%TD*%
D14*
%TO.P,Behavior1,1,Pin_1*%
%TO.N,Net-(Behavior1-Pin_1)*%
X78740000Y-81280000D03*
D15*
%TO.P,Behavior1,2,Pin_2*%
%TO.N,GND*%
X78740000Y-83780000D03*
%TD*%
D10*
%TO.P,R1,1*%
%TO.N,Net-(WidthControlSignal1-Pin_3)*%
X29480000Y-63090000D03*
%TO.P,R1,2*%
%TO.N,Net-(U1A-+)*%
X31480000Y-63090000D03*
%TD*%
D20*
%TO.P,Power_In1,1,Pin_1*%
%TO.N,+5V*%
X30480000Y-30520000D03*
D21*
%TO.P,Power_In1,2,Pin_2*%
%TO.N,GND*%
X30480000Y-33020000D03*
%TO.P,Power_In1,3,Pin_3*%
%TO.N,VAC*%
X30480000Y-35520000D03*
%TD*%
D13*
%TO.P,Strobe_555,1,GND*%
%TO.N,GND*%
X58420000Y-94615000D03*
%TO.P,Strobe_555,2,TR*%
%TO.N,VAC*%
X58420000Y-95885000D03*
%TO.P,Strobe_555,3,Q*%
%TO.N,/Strobing_Trigger/Trigger_Out*%
X58420000Y-97155000D03*
%TO.P,Strobe_555,4,R*%
%TO.N,+5V*%
X58420000Y-98425000D03*
%TO.P,Strobe_555,5,CV*%
%TO.N,/Strobing_Trigger/CV_In*%
X63370000Y-98425000D03*
%TO.P,Strobe_555,6,THR*%
%TO.N,Net-(Strobe_555-DIS)*%
X63370000Y-97155000D03*
%TO.P,Strobe_555,7,DIS*%
X63370000Y-95885000D03*
%TO.P,Strobe_555,8,VCC*%
%TO.N,+5V*%
X63370000Y-94615000D03*
%TD*%
D14*
%TO.P,Behavior4,1,Pin_1*%
%TO.N,Net-(Behavior1-Pin_1)*%
X78740000Y-50800000D03*
D15*
%TO.P,Behavior4,2,Pin_2*%
%TO.N,GND*%
X78740000Y-53300000D03*
%TD*%
D23*
%TO.P,R3,1*%
%TO.N,Net-(U9A-+)*%
X41656000Y-45180000D03*
%TO.P,R3,2*%
%TO.N,GND*%
X41656000Y-43180000D03*
%TD*%
D14*
%TO.P,Brain2,1,Pin_1*%
%TO.N,Net-(Brain1-Pin_1)*%
X78747500Y-100350000D03*
D15*
%TO.P,Brain2,2,Pin_2*%
%TO.N,GND*%
X78747500Y-102850000D03*
%TD*%
D13*
%TO.P,Behav_555,1,GND*%
%TO.N,GND*%
X58485000Y-66675000D03*
%TO.P,Behav_555,2,TR*%
%TO.N,VAC*%
X58485000Y-67945000D03*
%TO.P,Behav_555,3,Q*%
%TO.N,/Behavior_Camera_Unit/Trigger_Out*%
X58485000Y-69215000D03*
%TO.P,Behav_555,4,R*%
%TO.N,+5V*%
X58485000Y-70485000D03*
%TO.P,Behav_555,5,CV*%
%TO.N,/Behavior_Camera_Unit/CV_In*%
X63435000Y-70485000D03*
%TO.P,Behav_555,6,THR*%
%TO.N,Net-(Behav_555-DIS)*%
X63435000Y-69215000D03*
%TO.P,Behav_555,7,DIS*%
X63435000Y-67945000D03*
%TO.P,Behav_555,8,VCC*%
%TO.N,+5V*%
X63435000Y-66675000D03*
%TD*%
D22*
%TO.P,Strobe_Timing_C1,1*%
%TO.N,Net-(Strobe_555-DIS)*%
X71120000Y-102577500D03*
%TO.P,Strobe_Timing_C1,2*%
%TO.N,GND*%
X71120000Y-105702500D03*
%TD*%
D14*
%TO.P,Strobing1,1,Pin_1*%
%TO.N,Net-(Strobing1-Pin_1)*%
X78747500Y-120924000D03*
D15*
%TO.P,Strobing1,2,Pin_2*%
%TO.N,GND*%
X78747500Y-123424000D03*
%TD*%
D16*
%TO.P,Output_Voltage1,1,1*%
%TO.N,+5V*%
X45720000Y-58420000D03*
%TO.P,Output_Voltage1,2,2*%
%TO.N,Net-(U9C-V+)*%
X43220000Y-49170000D03*
%TO.P,Output_Voltage1,3,3*%
%TO.N,Net-(Output_Voltage1-Pad3)*%
X40720000Y-58420000D03*
%TD*%
D22*
%TO.P,Brain_Timing_C1,1*%
%TO.N,Net-(Brain_555-DIS)*%
X71120000Y-46697500D03*
%TO.P,Brain_Timing_C1,2*%
%TO.N,GND*%
X71120000Y-49822500D03*
%TD*%
D14*
%TO.P,Behavior5,1,Pin_1*%
%TO.N,Net-(Behavior1-Pin_1)*%
X78740000Y-40640000D03*
D15*
%TO.P,Behavior5,2,Pin_2*%
%TO.N,GND*%
X78740000Y-43140000D03*
%TD*%
D10*
%TO.P,R5,1*%
%TO.N,Net-(WidthControlSignal1-Pin_2)*%
X29480000Y-66040000D03*
%TO.P,R5,2*%
%TO.N,Net-(U1B-+)*%
X31480000Y-66040000D03*
%TD*%
D11*
%TO.P,C3,1*%
%TO.N,Net-(U1C-+)*%
X35560000Y-68550000D03*
%TO.P,C3,2*%
%TO.N,GND*%
X37285000Y-68550000D03*
%TD*%
D16*
%TO.P,Behav_Timing1,1,1*%
%TO.N,GND*%
X66000000Y-83365000D03*
%TO.P,Behav_Timing1,2,2*%
%TO.N,Net-(Behav_555-DIS)*%
X63500000Y-74115000D03*
%TO.P,Behav_Timing1,3,3*%
%TO.N,+5V*%
X61000000Y-83365000D03*
%TD*%
%TO.P,Brain_Timing1,1,1*%
%TO.N,GND*%
X66000000Y-55425000D03*
%TO.P,Brain_Timing1,2,2*%
%TO.N,Net-(Brain_555-DIS)*%
X63500000Y-46175000D03*
%TO.P,Brain_Timing1,3,3*%
%TO.N,+5V*%
X61000000Y-55425000D03*
%TD*%
D14*
%TO.P,Behavior3,1,Pin_1*%
%TO.N,Net-(Behavior1-Pin_1)*%
X78740000Y-60960000D03*
D15*
%TO.P,Behavior3,2,Pin_2*%
%TO.N,GND*%
X78740000Y-63460000D03*
%TD*%
D23*
%TO.P,R2,1*%
%TO.N,+5V*%
X39116000Y-45180000D03*
%TO.P,R2,2*%
%TO.N,Net-(U9A-+)*%
X39116000Y-43180000D03*
%TD*%
D24*
%TO.P,U8,1*%
%TO.N,/Strobing_Trigger/Trigger_Out*%
X45720000Y-84860000D03*
%TO.P,U8,2*%
%TO.N,Net-(U7-Q)*%
X45720000Y-85360000D03*
%TO.P,U8,3*%
%TO.N,Net-(Strobing2-Pin_1)*%
X45720000Y-85860000D03*
%TO.P,U8,4,GND*%
%TO.N,GND*%
X45720000Y-86360000D03*
%TO.P,U8,5*%
%TO.N,/Strobing_Trigger/Trigger_Out*%
X48820000Y-86360000D03*
%TO.P,U8,6*%
%TO.N,Net-(U7-D)*%
X48820000Y-85860000D03*
%TO.P,U8,7*%
%TO.N,Net-(Strobing1-Pin_1)*%
X48820000Y-85360000D03*
%TO.P,U8,8,VCC*%
%TO.N,+5V*%
X48820000Y-84860000D03*
%TD*%
D14*
%TO.P,Behavior6,1,Pin_1*%
%TO.N,Net-(Behavior1-Pin_1)*%
X78740000Y-30480000D03*
D15*
%TO.P,Behavior6,2,Pin_2*%
%TO.N,GND*%
X78740000Y-32980000D03*
%TD*%
D25*
%TO.N,+5V*%
X60884660Y-87224801D03*
%TO.N,GND*%
X38795437Y-69000066D03*
X38825854Y-66589783D03*
X38100000Y-63500000D03*
%TO.N,/Strobing_Trigger/CV_In*%
X53340000Y-83820000D03*
X60960000Y-99060000D03*
%TO.N,/Behavior_Camera_Unit/CV_In*%
X54620821Y-74439764D03*
X63500000Y-71120000D03*
%TO.N,/Brain_Camera_Unit/CV_In*%
X60506312Y-44245819D03*
X55976291Y-56663948D03*
%TO.N,Net-(U1B--)*%
X40053595Y-71814416D03*
X38505289Y-72988062D03*
%TO.N,Net-(U1A--)*%
X37567420Y-72272883D03*
X44792750Y-65869577D03*
%TO.N,GND*%
X50800000Y-66040000D03*
%TO.N,VAC*%
X55880000Y-88900000D03*
%TO.N,GND*%
X43180000Y-86360000D03*
X71120000Y-50800000D03*
X71120000Y-78740000D03*
X45720000Y-63500000D03*
X71120000Y-106680000D03*
X66040000Y-53340000D03*
D26*
X55880000Y-55899500D03*
D25*
X43180000Y-43180000D03*
X58420000Y-93980000D03*
X59243157Y-64355899D03*
X66040000Y-81280000D03*
X58420000Y-38100000D03*
X66040000Y-109220000D03*
%TO.N,+5V*%
X60960000Y-48260000D03*
X56973937Y-83344887D03*
X48260000Y-96520000D03*
X60960000Y-53340000D03*
X50800000Y-99060000D03*
%TO.N,Net-(U9C-V+)*%
X51816000Y-45720000D03*
X48801551Y-49224210D03*
%TO.N,VAC*%
X54341745Y-39231717D03*
X55880000Y-66040000D03*
X52302970Y-35560000D03*
X55880000Y-78740000D03*
%TO.N,/Behavior_Camera_Unit/Trigger_Out*%
X60602576Y-67247783D03*
X46228000Y-47752000D03*
%TD*%
D27*
%TO.N,+5V*%
X27413968Y-32261126D02*
X29155094Y-30520000D01*
X29155094Y-30520000D02*
X30480000Y-30520000D01*
D28*
X27413968Y-36781468D02*
X35812500Y-45180000D01*
X27413968Y-36255436D02*
X27413968Y-36781468D01*
X35812500Y-45180000D02*
X39116000Y-45180000D01*
D27*
X27413968Y-36255436D02*
X27413968Y-32261126D01*
%TO.N,VAC*%
X52262970Y-35520000D02*
X30480000Y-35520000D01*
X52302970Y-35560000D02*
X52262970Y-35520000D01*
%TO.N,GND*%
X38520066Y-69000066D02*
X38795437Y-69000066D01*
X38100000Y-68580000D02*
X38520066Y-69000066D01*
X38070000Y-68550000D02*
X38100000Y-68580000D01*
X37285000Y-68550000D02*
X38070000Y-68550000D01*
X38276071Y-66040000D02*
X38825854Y-66589783D01*
X37285000Y-66040000D02*
X38276071Y-66040000D01*
X38070000Y-63530000D02*
X38100000Y-63500000D01*
X37285000Y-63530000D02*
X38070000Y-63530000D01*
%TO.N,/Strobing_Trigger/CV_In*%
X63291730Y-98346730D02*
X63370000Y-98425000D01*
X61673270Y-98346730D02*
X63291730Y-98346730D01*
X60960000Y-99060000D02*
X61673270Y-98346730D01*
X50800000Y-81280000D02*
X53340000Y-83820000D01*
X39865000Y-81280000D02*
X50800000Y-81280000D01*
D28*
%TO.N,/Behavior_Camera_Unit/CV_In*%
X50320585Y-78740000D02*
X39865000Y-78740000D01*
X54620821Y-74439764D02*
X50320585Y-78740000D01*
X63435000Y-71055000D02*
X63500000Y-71120000D01*
X63435000Y-70485000D02*
X63435000Y-71055000D01*
%TO.N,+5V*%
X63435000Y-60701751D02*
X61000000Y-58266751D01*
X63435000Y-66675000D02*
X63435000Y-60701751D01*
D27*
%TO.N,GND*%
X58485000Y-65114056D02*
X59243157Y-64355899D01*
X58485000Y-66675000D02*
X58485000Y-65114056D01*
%TO.N,/Brain_Camera_Unit/CV_In*%
X62207131Y-42545000D02*
X63435000Y-42545000D01*
X60506312Y-44245819D02*
X62207131Y-42545000D01*
X53207915Y-59432324D02*
X55976291Y-56663948D01*
X53207915Y-68459635D02*
X53207915Y-59432324D01*
X45467550Y-76200000D02*
X53207915Y-68459635D01*
X39865000Y-76200000D02*
X45467550Y-76200000D01*
D28*
%TO.N,Net-(U1C--)*%
X45800219Y-73312281D02*
X48582500Y-70530000D01*
X39598886Y-73312281D02*
X45800219Y-73312281D01*
X37111360Y-75799807D02*
X39598886Y-73312281D01*
X37111360Y-77188640D02*
X37111360Y-75799807D01*
X33020000Y-81280000D02*
X37111360Y-77188640D01*
X31255000Y-81280000D02*
X33020000Y-81280000D01*
%TO.N,Net-(U1B--)*%
X41573084Y-71814416D02*
X42857500Y-70530000D01*
X40053595Y-71814416D02*
X41573084Y-71814416D01*
X32753351Y-78740000D02*
X38505289Y-72988062D01*
X31255000Y-78740000D02*
X32753351Y-78740000D01*
%TO.N,Net-(U1A--)*%
X31255000Y-74056067D02*
X31255000Y-76200000D01*
X31136111Y-73937178D02*
X31255000Y-74056067D01*
X35903125Y-73937178D02*
X31136111Y-73937178D01*
X37567420Y-72272883D02*
X35903125Y-73937178D01*
X44032327Y-66630000D02*
X44792750Y-65869577D01*
X42857500Y-66630000D02*
X44032327Y-66630000D01*
%TO.N,GND*%
X50210000Y-66630000D02*
X50800000Y-66040000D01*
X48582500Y-66630000D02*
X50210000Y-66630000D01*
X48582500Y-66630000D02*
X48582500Y-68580000D01*
%TO.N,Net-(U1C--)*%
X48582500Y-69880000D02*
X48582500Y-70530000D01*
%TO.N,Net-(U1B--)*%
X42857500Y-69880000D02*
X42857500Y-70530000D01*
%TO.N,Net-(U1A--)*%
X42857500Y-67280000D02*
X42857500Y-66630000D01*
%TO.N,+5V*%
X45720000Y-60497382D02*
X45720000Y-58420000D01*
X46856139Y-61633521D02*
X45720000Y-60497382D01*
X47355428Y-61633521D02*
X46856139Y-61633521D01*
X47355428Y-64770613D02*
X47355428Y-61633521D01*
X42857500Y-68580000D02*
X43546041Y-68580000D01*
X43546041Y-68580000D02*
X47355428Y-64770613D01*
%TO.N,Net-(U1C-+)*%
X46863273Y-69229836D02*
X48582336Y-69229836D01*
X39556538Y-72546538D02*
X43546571Y-72546538D01*
X35560000Y-68550000D02*
X39556538Y-72546538D01*
X43546571Y-72546538D02*
X46863273Y-69229836D01*
X48582336Y-69229836D02*
X48582500Y-69230000D01*
%TO.N,Net-(U1B-+)*%
X40616224Y-69245717D02*
X40631941Y-69230000D01*
X38666622Y-67296115D02*
X40616224Y-69245717D01*
X36816115Y-67296115D02*
X38666622Y-67296115D01*
X40631941Y-69230000D02*
X42857500Y-69230000D01*
X35560000Y-66040000D02*
X36816115Y-67296115D01*
%TO.N,Net-(U1A-+)*%
X41190670Y-67930000D02*
X42857500Y-67930000D01*
X38742963Y-64755094D02*
X38742963Y-65482293D01*
X38742963Y-65482293D02*
X41190670Y-67930000D01*
X36785094Y-64755094D02*
X38742963Y-64755094D01*
X35560000Y-63530000D02*
X36785094Y-64755094D01*
%TO.N,Net-(U1C-+)*%
X33868216Y-68550000D02*
X35560000Y-68550000D01*
X33491519Y-68926697D02*
X33868216Y-68550000D01*
X31543303Y-68926697D02*
X33491519Y-68926697D01*
X31480000Y-68990000D02*
X31543303Y-68926697D01*
%TO.N,Net-(U1B-+)*%
X31480000Y-66040000D02*
X35560000Y-66040000D01*
%TO.N,Net-(U1A-+)*%
X33783143Y-63530000D02*
X35560000Y-63530000D01*
X33343143Y-63090000D02*
X33783143Y-63530000D01*
X31480000Y-63090000D02*
X33343143Y-63090000D01*
%TO.N,Net-(WidthControlSignal1-Pin_1)*%
X27519933Y-67029933D02*
X29480000Y-68990000D01*
X27519933Y-51260067D02*
X27519933Y-67029933D01*
X30480000Y-48300000D02*
X27519933Y-51260067D01*
%TO.N,Net-(WidthControlSignal1-Pin_2)*%
X28268865Y-65124729D02*
X29184136Y-66040000D01*
X28268865Y-53011135D02*
X28268865Y-65124729D01*
X30480000Y-50800000D02*
X28268865Y-53011135D01*
X29184136Y-66040000D02*
X29480000Y-66040000D01*
%TO.N,Net-(WidthControlSignal1-Pin_3)*%
X29480000Y-59420000D02*
X29480000Y-63090000D01*
X30480000Y-58420000D02*
X29480000Y-59420000D01*
X30480000Y-53300000D02*
X30480000Y-58420000D01*
%TO.N,VAC*%
X55880000Y-93721751D02*
X55880000Y-88900000D01*
%TO.N,GND*%
X71120000Y-105702500D02*
X71120000Y-106680000D01*
X71120000Y-49822500D02*
X71120000Y-50800000D01*
X44450000Y-87630000D02*
X44450000Y-90842500D01*
X44745000Y-92280000D02*
X44745000Y-91137500D01*
X66000000Y-109260000D02*
X66040000Y-109220000D01*
X43180000Y-63500000D02*
X45720000Y-63500000D01*
X44745000Y-91137500D02*
X44450000Y-90842500D01*
X66000000Y-81320000D02*
X66040000Y-81280000D01*
X71120000Y-77762500D02*
X71120000Y-78740000D01*
X44450000Y-39370000D02*
X44450000Y-38354000D01*
X41656000Y-42164000D02*
X44450000Y-39370000D01*
X41656000Y-43180000D02*
X41656000Y-42164000D01*
X58485000Y-38165000D02*
X58420000Y-38100000D01*
X66000000Y-111305000D02*
X66000000Y-109260000D01*
X45720000Y-86360000D02*
X44450000Y-87630000D01*
X58485000Y-38735000D02*
X58485000Y-38165000D01*
X66000000Y-83365000D02*
X66000000Y-81320000D01*
X66000000Y-55425000D02*
X66000000Y-53380000D01*
X41656000Y-43180000D02*
X43180000Y-43180000D01*
X66000000Y-53380000D02*
X66040000Y-53340000D01*
X45720000Y-86360000D02*
X43180000Y-86360000D01*
X58420000Y-94615000D02*
X58420000Y-93980000D01*
%TO.N,+5V*%
X61000000Y-83365000D02*
X61000000Y-73000000D01*
X62993249Y-94615000D02*
X59183249Y-98425000D01*
X58420000Y-100125000D02*
X61000000Y-102705000D01*
X45720000Y-56834126D02*
X39116000Y-50230126D01*
X61411073Y-39995678D02*
X61533795Y-39995678D01*
X61000000Y-55425000D02*
X61000000Y-58266751D01*
X50800000Y-99060000D02*
X57785000Y-99060000D01*
X69852521Y-88268917D02*
X68756179Y-87172575D01*
X60960000Y-48260000D02*
X58485000Y-45785000D01*
X65835719Y-88265000D02*
X63435000Y-88265000D01*
X62794473Y-38735000D02*
X63435000Y-38735000D01*
X61533795Y-39995678D02*
X62794473Y-38735000D01*
X48715000Y-55425000D02*
X61000000Y-55425000D01*
X66928144Y-87172575D02*
X65835719Y-88265000D01*
X61000000Y-53380000D02*
X60960000Y-53340000D01*
X39116000Y-50230126D02*
X39116000Y-45180000D01*
X45720000Y-58420000D02*
X45720000Y-56834126D01*
X57785000Y-99060000D02*
X58420000Y-98425000D01*
X61000000Y-102705000D02*
X61000000Y-111305000D01*
X46045000Y-95680000D02*
X46695000Y-95680000D01*
X58861751Y-70485000D02*
X62671751Y-66675000D01*
X45720000Y-58420000D02*
X48715000Y-55425000D01*
X46695000Y-95680000D02*
X47420000Y-95680000D01*
X58420000Y-98425000D02*
X58420000Y-100125000D01*
X58485000Y-42545000D02*
X58861751Y-42545000D01*
X58485000Y-45785000D02*
X58485000Y-42545000D01*
X59505000Y-84860000D02*
X61000000Y-83365000D01*
X61000000Y-73000000D02*
X58485000Y-70485000D01*
X69852521Y-91851578D02*
X69852521Y-88268917D01*
X56994050Y-83365000D02*
X56973937Y-83344887D01*
X62671751Y-66675000D02*
X63435000Y-66675000D01*
X63370000Y-94615000D02*
X66133422Y-91851578D01*
X66133422Y-91851578D02*
X69852521Y-91851578D01*
X59183249Y-98425000D02*
X58420000Y-98425000D01*
X61000000Y-83365000D02*
X56994050Y-83365000D01*
X63435000Y-88265000D02*
X62810000Y-87640000D01*
X58861751Y-42545000D02*
X61411073Y-39995678D01*
X48820000Y-84860000D02*
X59505000Y-84860000D01*
X62810000Y-87640000D02*
X61299859Y-87640000D01*
X61000000Y-55425000D02*
X61000000Y-53380000D01*
X63370000Y-94615000D02*
X62993249Y-94615000D01*
X58485000Y-70485000D02*
X58861751Y-70485000D01*
X45395000Y-95680000D02*
X46045000Y-95680000D01*
X61299859Y-87640000D02*
X60884660Y-87224801D01*
X68756179Y-87172575D02*
X66928144Y-87172575D01*
X47420000Y-95680000D02*
X48260000Y-96520000D01*
%TO.N,Net-(Behavior1-Pin_1)*%
X49530000Y-45974000D02*
X49530000Y-48514000D01*
X77415000Y-31805000D02*
X78740000Y-30480000D01*
X77415000Y-79955000D02*
X77415000Y-72445000D01*
X77415000Y-39315000D02*
X77415000Y-31805000D01*
X78740000Y-71120000D02*
X77415000Y-69795000D01*
X78740000Y-50800000D02*
X77415000Y-49475000D01*
X78740000Y-40640000D02*
X77415000Y-39315000D01*
X77415000Y-41965000D02*
X78740000Y-40640000D01*
X78740000Y-50800000D02*
X76200000Y-53340000D01*
X77415000Y-59635000D02*
X77415000Y-52125000D01*
X77415000Y-49475000D02*
X77415000Y-41965000D01*
X78740000Y-81280000D02*
X77415000Y-79955000D01*
X77415000Y-62285000D02*
X78740000Y-60960000D01*
X49530000Y-48514000D02*
X51816000Y-50800000D01*
X71120000Y-53340000D02*
X68580000Y-50800000D01*
X76200000Y-53340000D02*
X71120000Y-53340000D01*
X77415000Y-52125000D02*
X78740000Y-50800000D01*
X78740000Y-60960000D02*
X77415000Y-59635000D01*
X77415000Y-69795000D02*
X77415000Y-62285000D01*
X68580000Y-50800000D02*
X51816000Y-50800000D01*
X77415000Y-72445000D02*
X78740000Y-71120000D01*
%TO.N,Net-(Brain1-Pin_1)*%
X53944710Y-36735290D02*
X53944710Y-36987290D01*
X65458470Y-37962666D02*
X64231094Y-36735290D01*
X78740000Y-91440000D02*
X80065000Y-90115000D01*
X78747500Y-100350000D02*
X74422000Y-96024500D01*
X70221647Y-37962666D02*
X65458470Y-37962666D01*
X81788000Y-27940000D02*
X78051030Y-27940000D01*
X53944710Y-36987290D02*
X52324000Y-38608000D01*
X80065000Y-90115000D02*
X80065000Y-89969885D01*
X78232000Y-91948000D02*
X78740000Y-91440000D01*
X80065000Y-89969885D02*
X83162015Y-86872870D01*
X64231094Y-36735290D02*
X53944710Y-36735290D01*
X78051030Y-27940000D02*
X70221647Y-35769383D01*
X70221647Y-35769383D02*
X70221647Y-37962666D01*
X83162015Y-29314015D02*
X81788000Y-27940000D01*
X74422000Y-91948000D02*
X78232000Y-91948000D01*
X83162015Y-86872870D02*
X83162015Y-29314015D01*
X74422000Y-96024500D02*
X74422000Y-91948000D01*
%TO.N,Net-(Brain_555-DIS)*%
X71120000Y-40640000D02*
X71120000Y-46697500D01*
X70597500Y-46175000D02*
X63500000Y-46175000D01*
X64070000Y-40640000D02*
X71120000Y-40640000D01*
X63435000Y-40005000D02*
X63435000Y-41275000D01*
X63435000Y-41275000D02*
X64070000Y-40640000D01*
X71120000Y-46697500D02*
X70597500Y-46175000D01*
%TO.N,/Strobing_Trigger/CV_In*%
X63370000Y-98425000D02*
X63510000Y-98285000D01*
%TO.N,/Behavior_Camera_Unit/CV_In*%
X63435000Y-70485000D02*
X63575000Y-70345000D01*
%TO.N,/Brain_Camera_Unit/CV_In*%
X63435000Y-42545000D02*
X63575000Y-42405000D01*
%TO.N,Net-(U9A-+)*%
X43180000Y-45180000D02*
X41656000Y-45180000D01*
X39116000Y-43180000D02*
X41116000Y-45180000D01*
X43180000Y-45180000D02*
X44450000Y-46450000D01*
X43180000Y-45180000D02*
X46990000Y-41370000D01*
X46990000Y-41370000D02*
X46990000Y-38354000D01*
X41116000Y-45180000D02*
X41656000Y-45180000D01*
%TO.N,Net-(U9C-V+)*%
X43220000Y-49170000D02*
X48747341Y-49170000D01*
X51816000Y-45720000D02*
X51816000Y-46736000D01*
X48747341Y-49170000D02*
X48801551Y-49224210D01*
%TO.N,VAC*%
X58420000Y-95885000D02*
X58043249Y-95885000D01*
X58043249Y-95885000D02*
X55880000Y-93721751D01*
X55115028Y-40005000D02*
X58485000Y-40005000D01*
X55880000Y-66040000D02*
X57785000Y-67945000D01*
X55880000Y-70173249D02*
X58108249Y-67945000D01*
X55880000Y-78740000D02*
X55880000Y-70173249D01*
X57785000Y-67945000D02*
X58485000Y-67945000D01*
X58108249Y-67945000D02*
X58485000Y-67945000D01*
X54341745Y-39231717D02*
X55115028Y-40005000D01*
%TO.N,/Behavior_Camera_Unit/Trigger_Out*%
X58861751Y-69215000D02*
X60602576Y-67474175D01*
X58485000Y-69215000D02*
X58861751Y-69215000D01*
X60602576Y-67474175D02*
X60602576Y-67247783D01*
X46228000Y-46736000D02*
X46990000Y-45974000D01*
X46228000Y-47752000D02*
X46228000Y-46736000D01*
%TO.N,/Brain_Camera_Unit/Trigger_Out*%
X53534958Y-42351799D02*
X54611757Y-41275000D01*
X49530000Y-39370000D02*
X49530000Y-38354000D01*
X52511799Y-42351799D02*
X53534958Y-42351799D01*
X54611757Y-41275000D02*
X58485000Y-41275000D01*
X49530000Y-39370000D02*
X52511799Y-42351799D01*
%TO.N,Net-(Behav_555-DIS)*%
X70597500Y-74115000D02*
X71120000Y-74637500D01*
X63435000Y-69215000D02*
X63435000Y-67945000D01*
X62135000Y-72750000D02*
X62135000Y-70138249D01*
X63500000Y-74115000D02*
X70597500Y-74115000D01*
X63500000Y-74115000D02*
X62135000Y-72750000D01*
X63058249Y-69215000D02*
X63435000Y-69215000D01*
X62135000Y-70138249D02*
X63058249Y-69215000D01*
%TO.N,/Strobing_Trigger/Trigger_Out*%
X48260000Y-88472796D02*
X48820000Y-87912796D01*
X43088309Y-99649917D02*
X41506979Y-98068587D01*
X48260000Y-90842500D02*
X48260000Y-88472796D01*
X41506979Y-98068587D02*
X41506979Y-84854736D01*
X48460498Y-97852002D02*
X48460498Y-99649917D01*
X50202500Y-90842500D02*
X50202500Y-96110000D01*
X41506979Y-84854736D02*
X41512243Y-84860000D01*
X41512243Y-84860000D02*
X45720000Y-84860000D01*
X50202500Y-96110000D02*
X48460498Y-97852002D01*
X58420000Y-97155000D02*
X56878213Y-97155000D01*
X50202500Y-90842500D02*
X48260000Y-90842500D01*
X48460498Y-99649917D02*
X43088309Y-99649917D01*
X48820000Y-87912796D02*
X48820000Y-86360000D01*
X48132500Y-90842500D02*
X48260000Y-90842500D01*
X56878213Y-97155000D02*
X50565713Y-90842500D01*
X46695000Y-92280000D02*
X48132500Y-90842500D01*
X50565713Y-90842500D02*
X50202500Y-90842500D01*
%TO.N,Net-(U7-D)*%
X45395000Y-91167500D02*
X45395000Y-92280000D01*
X46990000Y-86990000D02*
X48120000Y-85860000D01*
X45720000Y-90842500D02*
X46045000Y-91167500D01*
X45720000Y-90842500D02*
X45395000Y-91167500D01*
X46045000Y-91167500D02*
X46045000Y-92280000D01*
X46990000Y-90842500D02*
X46990000Y-86990000D01*
X45720000Y-90842500D02*
X46990000Y-90842500D01*
X48120000Y-85860000D02*
X48820000Y-85860000D01*
%TO.N,Net-(U7-Q)*%
X42189627Y-85360000D02*
X45720000Y-85360000D01*
X44745000Y-94630000D02*
X43180000Y-93065000D01*
X44745000Y-95680000D02*
X44745000Y-94630000D01*
X43180000Y-87871530D02*
X42023009Y-86714539D01*
X43180000Y-93065000D02*
X43180000Y-87871530D01*
X42186678Y-85357051D02*
X42189627Y-85360000D01*
X42023009Y-86714539D02*
X42023009Y-85520720D01*
X42023009Y-85520720D02*
X42186678Y-85357051D01*
%TO.N,Net-(Strobe_555-DIS)*%
X70597500Y-102055000D02*
X71120000Y-102577500D01*
X71120000Y-102577500D02*
X71120000Y-96520000D01*
X63370000Y-95885000D02*
X63370000Y-97155000D01*
X64005000Y-96520000D02*
X63370000Y-97155000D01*
X71120000Y-96520000D02*
X64005000Y-96520000D01*
X63500000Y-102055000D02*
X70597500Y-102055000D01*
%TO.N,Net-(Strobing1-Pin_1)*%
X67580000Y-85360000D02*
X48820000Y-85360000D01*
X73660000Y-99020000D02*
X71570000Y-96930000D01*
X71570000Y-89350000D02*
X67580000Y-85360000D01*
X71570000Y-96930000D02*
X71570000Y-89350000D01*
X73660000Y-115836500D02*
X73660000Y-99020000D01*
X78747500Y-120924000D02*
X73660000Y-115836500D01*
%TO.N,Net-(Strobing2-Pin_1)*%
X41542107Y-84183212D02*
X46554237Y-84183212D01*
X80792000Y-110002000D02*
X81026000Y-110236000D01*
X46554237Y-84183212D02*
X46792520Y-84421495D01*
X81026000Y-110236000D02*
X81026000Y-126492000D01*
X46792520Y-85487480D02*
X46420000Y-85860000D01*
X55880000Y-104140000D02*
X45720000Y-104140000D01*
X46792520Y-84421495D02*
X46792520Y-85487480D01*
X55880000Y-111760000D02*
X55880000Y-104140000D01*
X81026000Y-126492000D02*
X70612000Y-126492000D01*
X70612000Y-126492000D02*
X55880000Y-111760000D01*
X46420000Y-85860000D02*
X45720000Y-85860000D01*
X40943766Y-99363766D02*
X40943766Y-84781553D01*
X79034000Y-109514000D02*
X79074000Y-109474000D01*
X45720000Y-104140000D02*
X40943766Y-99363766D01*
X40943766Y-84781553D02*
X41542107Y-84183212D01*
X78747500Y-110002000D02*
X80792000Y-110002000D01*
%TO.N,Net-(Output_Voltage1-Pad3)*%
X40720000Y-58420000D02*
X40720000Y-63040000D01*
X40720000Y-63040000D02*
X41180000Y-63500000D01*
%TO.N,Net-(WidthControlSignal1-Pin_1)*%
X30480000Y-48300000D02*
X29562935Y-48300000D01*
%TD*%
M02*
