%TF.GenerationSoftware,KiCad,Pcbnew,7.0.8-7.0.8~ubuntu22.04.1*%
%TF.CreationDate,2023-10-16T16:43:54-07:00*%
%TF.ProjectId,SolenoidDriver,536f6c65-6e6f-4696-9444-72697665722e,rev?*%
%TF.SameCoordinates,Original*%
%TF.FileFunction,Copper,L1,Top*%
%TF.FilePolarity,Positive*%
%FSLAX46Y46*%
G04 Gerber Fmt 4.6, Leading zero omitted, Abs format (unit mm)*
G04 Created by KiCad (PCBNEW 7.0.8-7.0.8~ubuntu22.04.1) date 2023-10-16 16:43:54*
%MOMM*%
%LPD*%
G01*
G04 APERTURE LIST*
G04 Aperture macros list*
%AMRoundRect*
0 Rectangle with rounded corners*
0 $1 Rounding radius*
0 $2 $3 $4 $5 $6 $7 $8 $9 X,Y pos of 4 corners*
0 Add a 4 corners polygon primitive as box body*
4,1,4,$2,$3,$4,$5,$6,$7,$8,$9,$2,$3,0*
0 Add four circle primitives for the rounded corners*
1,1,$1+$1,$2,$3*
1,1,$1+$1,$4,$5*
1,1,$1+$1,$6,$7*
1,1,$1+$1,$8,$9*
0 Add four rect primitives between the rounded corners*
20,1,$1+$1,$2,$3,$4,$5,0*
20,1,$1+$1,$4,$5,$6,$7,0*
20,1,$1+$1,$6,$7,$8,$9,0*
20,1,$1+$1,$8,$9,$2,$3,0*%
G04 Aperture macros list end*
%TA.AperFunction,SMDPad,CuDef*%
%ADD10RoundRect,0.250000X0.337500X1.450000X-0.337500X1.450000X-0.337500X-1.450000X0.337500X-1.450000X0*%
%TD*%
%TA.AperFunction,SMDPad,CuDef*%
%ADD11RoundRect,0.250000X-1.450000X0.337500X-1.450000X-0.337500X1.450000X-0.337500X1.450000X0.337500X0*%
%TD*%
%TA.AperFunction,SMDPad,CuDef*%
%ADD12RoundRect,0.250000X-0.475000X0.337500X-0.475000X-0.337500X0.475000X-0.337500X0.475000X0.337500X0*%
%TD*%
%TA.AperFunction,SMDPad,CuDef*%
%ADD13RoundRect,0.250000X0.337500X0.475000X-0.337500X0.475000X-0.337500X-0.475000X0.337500X-0.475000X0*%
%TD*%
%TA.AperFunction,SMDPad,CuDef*%
%ADD14RoundRect,0.250000X-0.337500X-0.475000X0.337500X-0.475000X0.337500X0.475000X-0.337500X0.475000X0*%
%TD*%
%TA.AperFunction,ComponentPad*%
%ADD15RoundRect,0.250000X0.725000X-0.600000X0.725000X0.600000X-0.725000X0.600000X-0.725000X-0.600000X0*%
%TD*%
%TA.AperFunction,ComponentPad*%
%ADD16O,1.950000X1.700000*%
%TD*%
%TA.AperFunction,ComponentPad*%
%ADD17RoundRect,0.250000X0.750000X-0.600000X0.750000X0.600000X-0.750000X0.600000X-0.750000X-0.600000X0*%
%TD*%
%TA.AperFunction,ComponentPad*%
%ADD18O,2.000000X1.700000*%
%TD*%
%TA.AperFunction,ComponentPad*%
%ADD19RoundRect,0.250000X-0.600000X-0.750000X0.600000X-0.750000X0.600000X0.750000X-0.600000X0.750000X0*%
%TD*%
%TA.AperFunction,ComponentPad*%
%ADD20O,1.700000X2.000000*%
%TD*%
%TA.AperFunction,SMDPad,CuDef*%
%ADD21RoundRect,0.150000X-0.825000X-0.150000X0.825000X-0.150000X0.825000X0.150000X-0.825000X0.150000X0*%
%TD*%
%TA.AperFunction,SMDPad,CuDef*%
%ADD22RoundRect,0.150000X-0.512500X-0.150000X0.512500X-0.150000X0.512500X0.150000X-0.512500X0.150000X0*%
%TD*%
%TA.AperFunction,ComponentPad*%
%ADD23O,1.350000X1.350000*%
%TD*%
%TA.AperFunction,ComponentPad*%
%ADD24R,1.350000X1.350000*%
%TD*%
%TA.AperFunction,ComponentPad*%
%ADD25R,1.600000X1.600000*%
%TD*%
%TA.AperFunction,ComponentPad*%
%ADD26O,1.600000X1.600000*%
%TD*%
%TA.AperFunction,ViaPad*%
%ADD27C,0.800000*%
%TD*%
%TA.AperFunction,Conductor*%
%ADD28C,0.250000*%
%TD*%
G04 APERTURE END LIST*
D10*
%TO.P,R2,1*%
%TO.N,Net-(J4-Pin_2)*%
X116407500Y-33560000D03*
%TO.P,R2,2*%
%TO.N,Net-(U2-IN)*%
X114732500Y-33560000D03*
%TD*%
D11*
%TO.P,R1,1*%
%TO.N,Net-(J1-Pin_3)*%
X105410000Y-44990000D03*
%TO.P,R1,2*%
%TO.N,GND*%
X105410000Y-46665000D03*
%TD*%
D12*
%TO.P,C5,1*%
%TO.N,Net-(U2-IN)*%
X116840000Y-46060000D03*
%TO.P,C5,2*%
%TO.N,GND*%
X116840000Y-48135000D03*
%TD*%
D13*
%TO.P,C4,1*%
%TO.N,Net-(U2-CPC)*%
X114500000Y-47530000D03*
%TO.P,C4,2*%
%TO.N,GND*%
X112425000Y-47530000D03*
%TD*%
D12*
%TO.P,C3,1*%
%TO.N,Net-(U2-CLIN)*%
X121920000Y-40980000D03*
%TO.P,C3,2*%
%TO.N,GND*%
X121920000Y-43055000D03*
%TD*%
D14*
%TO.P,C2,1*%
%TO.N,Net-(U2-VDD(int))*%
X120045000Y-37370000D03*
%TO.P,C2,2*%
%TO.N,GND*%
X122120000Y-37370000D03*
%TD*%
D12*
%TO.P,C1,1*%
%TO.N,+12V*%
X101600000Y-39305000D03*
%TO.P,C1,2*%
%TO.N,GND*%
X101600000Y-41380000D03*
%TD*%
D15*
%TO.P,J1,1,Pin_1*%
%TO.N,VBUS*%
X96520000Y-47450000D03*
D16*
%TO.P,J1,2,Pin_2*%
%TO.N,GND*%
X96520000Y-44950000D03*
%TO.P,J1,3,Pin_3*%
%TO.N,Net-(J1-Pin_3)*%
X96520000Y-42450000D03*
%TD*%
D17*
%TO.P,J4,1,Pin_1*%
%TO.N,GND*%
X125730000Y-37330000D03*
D18*
%TO.P,J4,2,Pin_2*%
%TO.N,Net-(J4-Pin_2)*%
X125730000Y-34830000D03*
%TD*%
D19*
%TO.P,J3,1,Pin_1*%
%TO.N,GND*%
X97770000Y-34830000D03*
D20*
%TO.P,J3,2,Pin_2*%
%TO.N,+12V*%
X100270000Y-34830000D03*
%TD*%
D19*
%TO.P,J2,1,Pin_1*%
%TO.N,+12V*%
X107950000Y-34830000D03*
D20*
%TO.P,J2,2,Pin_2*%
%TO.N,Net-(D1-A)*%
X110450000Y-34830000D03*
%TD*%
D21*
%TO.P,U2,1,IN*%
%TO.N,Net-(U2-IN)*%
X114300000Y-39910000D03*
%TO.P,U2,2,TYPE*%
%TO.N,GND*%
X114300000Y-41180000D03*
%TO.P,U2,3,CPC*%
%TO.N,Net-(U2-CPC)*%
X114300000Y-42450000D03*
%TO.P,U2,4,VSS*%
%TO.N,GND*%
X114300000Y-43720000D03*
%TO.P,U2,5,VDD*%
%TO.N,+3.3V*%
X119250000Y-43720000D03*
%TO.P,U2,6,OUT*%
%TO.N,VBUS*%
X119250000Y-42450000D03*
%TO.P,U2,7,CLIN*%
%TO.N,Net-(U2-CLIN)*%
X119250000Y-41180000D03*
%TO.P,U2,8,VDD(int)*%
%TO.N,Net-(U2-VDD(int))*%
X119250000Y-39910000D03*
%TD*%
D22*
%TO.P,U1,1,IN*%
%TO.N,+12V*%
X104272500Y-40230000D03*
%TO.P,U1,2,GND*%
%TO.N,GND*%
X104272500Y-41180000D03*
%TO.P,U1,3,EN*%
%TO.N,+12V*%
X104272500Y-42130000D03*
%TO.P,U1,4,NC*%
%TO.N,unconnected-(U1-NC-Pad4)*%
X106547500Y-42130000D03*
%TO.P,U1,5,OUT*%
%TO.N,+3.3V*%
X106547500Y-40230000D03*
%TD*%
D23*
%TO.P,Q1,3,S*%
%TO.N,GND*%
X110490000Y-44990000D03*
%TO.P,Q1,2,G*%
%TO.N,Net-(J1-Pin_3)*%
X110490000Y-42990000D03*
D24*
%TO.P,Q1,1,D*%
%TO.N,Net-(D1-A)*%
X110490000Y-40990000D03*
%TD*%
D25*
%TO.P,D1,1,K*%
%TO.N,+12V*%
X105410000Y-29750000D03*
D26*
%TO.P,D1,2,A*%
%TO.N,Net-(D1-A)*%
X113030000Y-29750000D03*
%TD*%
D27*
%TO.N,+3.3V*%
X117564500Y-43669549D03*
X108831056Y-41923147D03*
%TO.N,GND*%
X102870000Y-41180000D03*
X121920000Y-38640000D03*
X123190000Y-42450000D03*
X114300000Y-41180000D03*
X116840000Y-47530000D03*
X113030000Y-43720000D03*
X104140000Y-46260000D03*
%TD*%
D28*
%TO.N,GND*%
X116840000Y-47530000D02*
X116840000Y-47505000D01*
%TO.N,Net-(J1-Pin_3)*%
X102512575Y-44115451D02*
X102512575Y-45397776D01*
X102512575Y-45397776D02*
X102534799Y-45420000D01*
X102534799Y-45420000D02*
X105410000Y-45420000D01*
X105410000Y-45420000D02*
X105814299Y-45015701D01*
X105814299Y-45015701D02*
X108108122Y-45015701D01*
X108108122Y-45015701D02*
X108108122Y-43745701D01*
X108108122Y-43745701D02*
X108863823Y-42990000D01*
X108863823Y-42990000D02*
X110490000Y-42990000D01*
%TO.N,+12V*%
X104272500Y-42130000D02*
X104935000Y-42130000D01*
X104935000Y-42130000D02*
X105838248Y-41226752D01*
X105838248Y-41226752D02*
X104272500Y-39661004D01*
X104272500Y-39661004D02*
X104272500Y-38640000D01*
%TO.N,GND*%
X104272500Y-41180000D02*
X102870000Y-41180000D01*
X101600000Y-41380000D02*
X101800000Y-41180000D01*
X101800000Y-41180000D02*
X104272500Y-41180000D01*
%TO.N,VBUS*%
X96520000Y-47450000D02*
X99140000Y-50070000D01*
X99140000Y-50070000D02*
X118713038Y-50070000D01*
X123915000Y-41349326D02*
X122633174Y-40067500D01*
X118713038Y-50070000D02*
X123915000Y-44868038D01*
X117950000Y-41526752D02*
X118873248Y-42450000D01*
X123915000Y-44868038D02*
X123915000Y-41349326D01*
X122633174Y-40067500D02*
X121206826Y-40067500D01*
X121206826Y-40067500D02*
X120719326Y-40555000D01*
X118228248Y-40555000D02*
X117950000Y-40833248D01*
X120719326Y-40555000D02*
X118228248Y-40555000D01*
X117950000Y-40833248D02*
X117950000Y-41526752D01*
X118873248Y-42450000D02*
X119250000Y-42450000D01*
%TO.N,+3.3V*%
X117564500Y-43669549D02*
X119199549Y-43669549D01*
X119199549Y-43669549D02*
X119250000Y-43720000D01*
X108240647Y-41923147D02*
X108831056Y-41923147D01*
X106547500Y-40230000D02*
X108240647Y-41923147D01*
%TO.N,GND*%
X121490000Y-38210000D02*
X121920000Y-38640000D01*
X121490000Y-37370000D02*
X121490000Y-38210000D01*
X123165000Y-42425000D02*
X123190000Y-42450000D01*
X121920000Y-42425000D02*
X123165000Y-42425000D01*
%TO.N,Net-(D1-A)*%
X110450000Y-34830000D02*
X110450000Y-40950000D01*
X110450000Y-40950000D02*
X110490000Y-40990000D01*
X110450000Y-34830000D02*
X110450000Y-33417226D01*
X110450000Y-33417226D02*
X113030000Y-30837226D01*
X113030000Y-30837226D02*
X113030000Y-29750000D01*
%TO.N,Net-(J4-Pin_2)*%
X125730000Y-34830000D02*
X118707418Y-34830000D01*
X118707418Y-34830000D02*
X117437418Y-33560000D01*
X117437418Y-33560000D02*
X115977500Y-33560000D01*
%TO.N,Net-(U2-CLIN)*%
X119250000Y-41180000D02*
X121490000Y-41180000D01*
X121490000Y-41180000D02*
X121920000Y-41610000D01*
%TO.N,Net-(U2-VDD(int))*%
X119250000Y-39910000D02*
X120675000Y-38485000D01*
X120675000Y-38485000D02*
X120675000Y-37370000D01*
%TO.N,Net-(U2-IN)*%
X114300000Y-39910000D02*
X114300000Y-36892841D01*
X114300000Y-36892841D02*
X115162500Y-36030341D01*
X115162500Y-36030341D02*
X115162500Y-33560000D01*
X114300000Y-39910000D02*
X115275000Y-39910000D01*
X115275000Y-39910000D02*
X116840000Y-41475000D01*
X116840000Y-41475000D02*
X116840000Y-46690000D01*
%TO.N,Net-(U2-CPC)*%
X113870000Y-47530000D02*
X113870000Y-47330000D01*
X112561722Y-42450000D02*
X114300000Y-42450000D01*
X113870000Y-47330000D02*
X112400990Y-45860990D01*
X112400990Y-45860990D02*
X112346101Y-45860990D01*
X112346101Y-45860990D02*
X112305000Y-45819889D01*
X112305000Y-45819889D02*
X112305000Y-42706722D01*
X112305000Y-42706722D02*
X112561722Y-42450000D01*
%TO.N,GND*%
X113055000Y-47530000D02*
X113030000Y-47530000D01*
X113030000Y-47530000D02*
X110490000Y-44990000D01*
X114300000Y-43720000D02*
X113030000Y-43720000D01*
X105410000Y-46260000D02*
X104140000Y-46260000D01*
X105410000Y-46235000D02*
X105410000Y-46260000D01*
%TO.N,Net-(J1-Pin_3)*%
X96520000Y-42450000D02*
X100847124Y-42450000D01*
X100847124Y-42450000D02*
X102512575Y-44115451D01*
X102512575Y-44115451D02*
X102512575Y-44127776D01*
X102512575Y-44127776D02*
X102534799Y-44150000D01*
%TO.N,+12V*%
X101600000Y-38640000D02*
X101600000Y-39935000D01*
X104272500Y-38640000D02*
X104272500Y-40230000D01*
X104272500Y-34962500D02*
X104272500Y-38640000D01*
X104272500Y-38640000D02*
X102895000Y-38640000D01*
X102895000Y-38640000D02*
X101600000Y-39935000D01*
X104140000Y-34830000D02*
X104272500Y-34962500D01*
X104140000Y-34830000D02*
X104140000Y-32290000D01*
X100270000Y-34830000D02*
X104140000Y-34830000D01*
X105410000Y-31020000D02*
X105410000Y-29750000D01*
X104140000Y-34830000D02*
X107950000Y-34830000D01*
X104140000Y-32290000D02*
X105410000Y-31020000D01*
%TD*%
%TA.AperFunction,Conductor*%
%TO.N,+12V*%
G36*
X104029334Y-29963180D02*
G01*
X104085267Y-30005052D01*
X104109684Y-30070516D01*
X104110000Y-30079362D01*
X104110000Y-30597844D01*
X104116401Y-30657372D01*
X104116403Y-30657379D01*
X104166645Y-30792086D01*
X104166649Y-30792093D01*
X104252809Y-30907187D01*
X104252812Y-30907190D01*
X104367906Y-30993350D01*
X104367913Y-30993354D01*
X104502620Y-31043596D01*
X104502627Y-31043598D01*
X104562155Y-31049999D01*
X104562172Y-31050000D01*
X105286000Y-31050000D01*
X105353039Y-31069685D01*
X105398794Y-31122489D01*
X105410000Y-31174000D01*
X105410000Y-32290000D01*
X106678424Y-33558424D01*
X106711909Y-33619747D01*
X106706925Y-33689439D01*
X106696283Y-33711200D01*
X106665642Y-33760878D01*
X106610494Y-33927302D01*
X106610493Y-33927309D01*
X106600000Y-34030013D01*
X106600000Y-34580000D01*
X107516314Y-34580000D01*
X107490507Y-34620156D01*
X107450000Y-34758111D01*
X107450000Y-34901889D01*
X107490507Y-35039844D01*
X107516314Y-35080000D01*
X106600001Y-35080000D01*
X106600001Y-35629986D01*
X106610494Y-35732697D01*
X106665641Y-35899119D01*
X106665643Y-35899124D01*
X106757684Y-36048345D01*
X106881654Y-36172315D01*
X107030875Y-36264356D01*
X107030880Y-36264358D01*
X107197302Y-36319505D01*
X107197309Y-36319506D01*
X107300019Y-36329999D01*
X107826000Y-36329999D01*
X107893039Y-36349683D01*
X107938794Y-36402487D01*
X107950000Y-36453999D01*
X107950000Y-37280625D01*
X107930315Y-37347664D01*
X107877511Y-37393419D01*
X107865212Y-37398262D01*
X104140000Y-38640000D01*
X104140000Y-39306000D01*
X104120315Y-39373039D01*
X104067511Y-39418794D01*
X104016000Y-39430000D01*
X103694356Y-39430000D01*
X103657510Y-39432899D01*
X103657504Y-39432900D01*
X103499806Y-39478716D01*
X103499803Y-39478717D01*
X103358447Y-39562314D01*
X103358438Y-39562321D01*
X103242321Y-39678438D01*
X103242314Y-39678447D01*
X103158717Y-39819803D01*
X103158716Y-39819806D01*
X103158487Y-39820595D01*
X103158138Y-39821139D01*
X103155618Y-39826965D01*
X103154678Y-39826558D01*
X103120881Y-39879481D01*
X103057409Y-39908687D01*
X103039411Y-39910000D01*
X102940091Y-39910000D01*
X102873052Y-39890315D01*
X102827297Y-39837511D01*
X102816733Y-39773397D01*
X102824999Y-39692486D01*
X102825000Y-39692473D01*
X102825000Y-39555000D01*
X101474000Y-39555000D01*
X101406961Y-39535315D01*
X101361206Y-39482511D01*
X101350000Y-39431000D01*
X101350000Y-38217500D01*
X101850000Y-38217500D01*
X101850000Y-39055000D01*
X102824999Y-39055000D01*
X102824999Y-38917528D01*
X102824998Y-38917513D01*
X102814505Y-38814802D01*
X102759358Y-38648380D01*
X102759356Y-38648375D01*
X102667315Y-38499154D01*
X102543345Y-38375184D01*
X102394124Y-38283143D01*
X102394119Y-38283141D01*
X102227697Y-38227994D01*
X102227690Y-38227993D01*
X102124986Y-38217500D01*
X101850000Y-38217500D01*
X101350000Y-38217500D01*
X101075029Y-38217500D01*
X101075012Y-38217501D01*
X100972302Y-38227994D01*
X100805880Y-38283141D01*
X100805875Y-38283143D01*
X100656654Y-38375184D01*
X100541681Y-38490158D01*
X100480358Y-38523643D01*
X100410666Y-38518659D01*
X100354733Y-38476787D01*
X100330316Y-38411323D01*
X100330000Y-38402477D01*
X100330000Y-36443532D01*
X100349685Y-36376493D01*
X100402489Y-36330738D01*
X100443193Y-36320004D01*
X100505319Y-36314568D01*
X100505323Y-36314568D01*
X100733483Y-36253433D01*
X100733492Y-36253429D01*
X100947577Y-36153600D01*
X100947579Y-36153599D01*
X101141073Y-36018113D01*
X101141079Y-36018108D01*
X101308108Y-35851079D01*
X101308113Y-35851073D01*
X101443599Y-35657579D01*
X101443600Y-35657577D01*
X101543429Y-35443492D01*
X101543433Y-35443483D01*
X101604567Y-35215326D01*
X101604569Y-35215315D01*
X101616407Y-35080000D01*
X100703686Y-35080000D01*
X100729493Y-35039844D01*
X100770000Y-34901889D01*
X100770000Y-34758111D01*
X100732078Y-34628960D01*
X100830000Y-34580000D01*
X101616407Y-34580000D01*
X101616407Y-34579999D01*
X101604569Y-34444684D01*
X101604568Y-34444677D01*
X101571222Y-34320230D01*
X101572885Y-34250380D01*
X101612047Y-34192518D01*
X101635533Y-34177233D01*
X102870000Y-33560000D01*
X102870000Y-31071362D01*
X102889685Y-31004323D01*
X102906319Y-30983681D01*
X103898319Y-29991681D01*
X103959642Y-29958196D01*
X104029334Y-29963180D01*
G37*
%TD.AperFunction*%
%TD*%
M02*
