%TF.GenerationSoftware,KiCad,Pcbnew,7.0.8-7.0.8~ubuntu22.04.1*%
%TF.CreationDate,2023-10-16T16:43:54-07:00*%
%TF.ProjectId,SolenoidDriver,536f6c65-6e6f-4696-9444-72697665722e,rev?*%
%TF.SameCoordinates,Original*%
%TF.FileFunction,Soldermask,Top*%
%TF.FilePolarity,Negative*%
%FSLAX46Y46*%
G04 Gerber Fmt 4.6, Leading zero omitted, Abs format (unit mm)*
G04 Created by KiCad (PCBNEW 7.0.8-7.0.8~ubuntu22.04.1) date 2023-10-16 16:43:54*
%MOMM*%
%LPD*%
G01*
G04 APERTURE LIST*
G04 Aperture macros list*
%AMRoundRect*
0 Rectangle with rounded corners*
0 $1 Rounding radius*
0 $2 $3 $4 $5 $6 $7 $8 $9 X,Y pos of 4 corners*
0 Add a 4 corners polygon primitive as box body*
4,1,4,$2,$3,$4,$5,$6,$7,$8,$9,$2,$3,0*
0 Add four circle primitives for the rounded corners*
1,1,$1+$1,$2,$3*
1,1,$1+$1,$4,$5*
1,1,$1+$1,$6,$7*
1,1,$1+$1,$8,$9*
0 Add four rect primitives between the rounded corners*
20,1,$1+$1,$2,$3,$4,$5,0*
20,1,$1+$1,$4,$5,$6,$7,0*
20,1,$1+$1,$6,$7,$8,$9,0*
20,1,$1+$1,$8,$9,$2,$3,0*%
G04 Aperture macros list end*
%ADD10RoundRect,0.250000X0.337500X1.450000X-0.337500X1.450000X-0.337500X-1.450000X0.337500X-1.450000X0*%
%ADD11RoundRect,0.250000X-1.450000X0.337500X-1.450000X-0.337500X1.450000X-0.337500X1.450000X0.337500X0*%
%ADD12RoundRect,0.250000X-0.475000X0.337500X-0.475000X-0.337500X0.475000X-0.337500X0.475000X0.337500X0*%
%ADD13RoundRect,0.250000X0.337500X0.475000X-0.337500X0.475000X-0.337500X-0.475000X0.337500X-0.475000X0*%
%ADD14RoundRect,0.250000X-0.337500X-0.475000X0.337500X-0.475000X0.337500X0.475000X-0.337500X0.475000X0*%
%ADD15RoundRect,0.250000X0.725000X-0.600000X0.725000X0.600000X-0.725000X0.600000X-0.725000X-0.600000X0*%
%ADD16O,1.950000X1.700000*%
%ADD17RoundRect,0.250000X0.750000X-0.600000X0.750000X0.600000X-0.750000X0.600000X-0.750000X-0.600000X0*%
%ADD18O,2.000000X1.700000*%
%ADD19RoundRect,0.250000X-0.600000X-0.750000X0.600000X-0.750000X0.600000X0.750000X-0.600000X0.750000X0*%
%ADD20O,1.700000X2.000000*%
%ADD21RoundRect,0.150000X-0.825000X-0.150000X0.825000X-0.150000X0.825000X0.150000X-0.825000X0.150000X0*%
%ADD22RoundRect,0.150000X-0.512500X-0.150000X0.512500X-0.150000X0.512500X0.150000X-0.512500X0.150000X0*%
%ADD23O,1.350000X1.350000*%
%ADD24R,1.350000X1.350000*%
%ADD25R,1.600000X1.600000*%
%ADD26O,1.600000X1.600000*%
G04 APERTURE END LIST*
D10*
%TO.C,R2*%
X116407500Y-33560000D03*
X114732500Y-33560000D03*
%TD*%
D11*
%TO.C,R1*%
X105410000Y-44990000D03*
X105410000Y-46665000D03*
%TD*%
D12*
%TO.C,C5*%
X116840000Y-46060000D03*
X116840000Y-48135000D03*
%TD*%
D13*
%TO.C,C4*%
X114500000Y-47530000D03*
X112425000Y-47530000D03*
%TD*%
D12*
%TO.C,C3*%
X121920000Y-40980000D03*
X121920000Y-43055000D03*
%TD*%
D14*
%TO.C,C2*%
X120045000Y-37370000D03*
X122120000Y-37370000D03*
%TD*%
D12*
%TO.C,C1*%
X101600000Y-39305000D03*
X101600000Y-41380000D03*
%TD*%
D15*
%TO.C,J1*%
X96520000Y-47450000D03*
D16*
X96520000Y-44950000D03*
X96520000Y-42450000D03*
%TD*%
D17*
%TO.C,J4*%
X125730000Y-37330000D03*
D18*
X125730000Y-34830000D03*
%TD*%
D19*
%TO.C,J3*%
X97770000Y-34830000D03*
D20*
X100270000Y-34830000D03*
%TD*%
D19*
%TO.C,J2*%
X107950000Y-34830000D03*
D20*
X110450000Y-34830000D03*
%TD*%
D21*
%TO.C,U2*%
X114300000Y-39910000D03*
X114300000Y-41180000D03*
X114300000Y-42450000D03*
X114300000Y-43720000D03*
X119250000Y-43720000D03*
X119250000Y-42450000D03*
X119250000Y-41180000D03*
X119250000Y-39910000D03*
%TD*%
D22*
%TO.C,U1*%
X104272500Y-40230000D03*
X104272500Y-41180000D03*
X104272500Y-42130000D03*
X106547500Y-42130000D03*
X106547500Y-40230000D03*
%TD*%
D23*
%TO.C,Q1*%
X110490000Y-44990000D03*
X110490000Y-42990000D03*
D24*
X110490000Y-40990000D03*
%TD*%
D25*
%TO.C,D1*%
X105410000Y-29750000D03*
D26*
X113030000Y-29750000D03*
%TD*%
M02*
