%TF.GenerationSoftware,KiCad,Pcbnew,7.0.8-7.0.8~ubuntu22.04.1*%
%TF.CreationDate,2023-10-16T16:43:54-07:00*%
%TF.ProjectId,SolenoidDriver,536f6c65-6e6f-4696-9444-72697665722e,rev?*%
%TF.SameCoordinates,Original*%
%TF.FileFunction,Copper,L2,Bot*%
%TF.FilePolarity,Positive*%
%FSLAX46Y46*%
G04 Gerber Fmt 4.6, Leading zero omitted, Abs format (unit mm)*
G04 Created by KiCad (PCBNEW 7.0.8-7.0.8~ubuntu22.04.1) date 2023-10-16 16:43:54*
%MOMM*%
%LPD*%
G01*
G04 APERTURE LIST*
G04 Aperture macros list*
%AMRoundRect*
0 Rectangle with rounded corners*
0 $1 Rounding radius*
0 $2 $3 $4 $5 $6 $7 $8 $9 X,Y pos of 4 corners*
0 Add a 4 corners polygon primitive as box body*
4,1,4,$2,$3,$4,$5,$6,$7,$8,$9,$2,$3,0*
0 Add four circle primitives for the rounded corners*
1,1,$1+$1,$2,$3*
1,1,$1+$1,$4,$5*
1,1,$1+$1,$6,$7*
1,1,$1+$1,$8,$9*
0 Add four rect primitives between the rounded corners*
20,1,$1+$1,$2,$3,$4,$5,0*
20,1,$1+$1,$4,$5,$6,$7,0*
20,1,$1+$1,$6,$7,$8,$9,0*
20,1,$1+$1,$8,$9,$2,$3,0*%
G04 Aperture macros list end*
%TA.AperFunction,ComponentPad*%
%ADD10RoundRect,0.250000X0.725000X-0.600000X0.725000X0.600000X-0.725000X0.600000X-0.725000X-0.600000X0*%
%TD*%
%TA.AperFunction,ComponentPad*%
%ADD11O,1.950000X1.700000*%
%TD*%
%TA.AperFunction,ComponentPad*%
%ADD12RoundRect,0.250000X0.750000X-0.600000X0.750000X0.600000X-0.750000X0.600000X-0.750000X-0.600000X0*%
%TD*%
%TA.AperFunction,ComponentPad*%
%ADD13O,2.000000X1.700000*%
%TD*%
%TA.AperFunction,ComponentPad*%
%ADD14RoundRect,0.250000X-0.600000X-0.750000X0.600000X-0.750000X0.600000X0.750000X-0.600000X0.750000X0*%
%TD*%
%TA.AperFunction,ComponentPad*%
%ADD15O,1.700000X2.000000*%
%TD*%
%TA.AperFunction,ComponentPad*%
%ADD16O,1.350000X1.350000*%
%TD*%
%TA.AperFunction,ComponentPad*%
%ADD17R,1.350000X1.350000*%
%TD*%
%TA.AperFunction,ComponentPad*%
%ADD18R,1.600000X1.600000*%
%TD*%
%TA.AperFunction,ComponentPad*%
%ADD19O,1.600000X1.600000*%
%TD*%
%TA.AperFunction,ViaPad*%
%ADD20C,0.800000*%
%TD*%
%TA.AperFunction,Conductor*%
%ADD21C,0.250000*%
%TD*%
G04 APERTURE END LIST*
D10*
%TO.P,J1,1,Pin_1*%
%TO.N,VBUS*%
X96520000Y-47450000D03*
D11*
%TO.P,J1,2,Pin_2*%
%TO.N,GND*%
X96520000Y-44950000D03*
%TO.P,J1,3,Pin_3*%
%TO.N,Net-(J1-Pin_3)*%
X96520000Y-42450000D03*
%TD*%
D12*
%TO.P,J4,1,Pin_1*%
%TO.N,GND*%
X125730000Y-37330000D03*
D13*
%TO.P,J4,2,Pin_2*%
%TO.N,Net-(J4-Pin_2)*%
X125730000Y-34830000D03*
%TD*%
D14*
%TO.P,J3,1,Pin_1*%
%TO.N,GND*%
X97770000Y-34830000D03*
D15*
%TO.P,J3,2,Pin_2*%
%TO.N,+12V*%
X100270000Y-34830000D03*
%TD*%
D14*
%TO.P,J2,1,Pin_1*%
%TO.N,+12V*%
X107950000Y-34830000D03*
D15*
%TO.P,J2,2,Pin_2*%
%TO.N,Net-(D1-A)*%
X110450000Y-34830000D03*
%TD*%
D16*
%TO.P,Q1,3,S*%
%TO.N,GND*%
X110490000Y-44990000D03*
%TO.P,Q1,2,G*%
%TO.N,Net-(J1-Pin_3)*%
X110490000Y-42990000D03*
D17*
%TO.P,Q1,1,D*%
%TO.N,Net-(D1-A)*%
X110490000Y-40990000D03*
%TD*%
D18*
%TO.P,D1,1,K*%
%TO.N,+12V*%
X105410000Y-29750000D03*
D19*
%TO.P,D1,2,A*%
%TO.N,Net-(D1-A)*%
X113030000Y-29750000D03*
%TD*%
D20*
%TO.N,+3.3V*%
X117564500Y-43669549D03*
X108831056Y-41923147D03*
%TO.N,GND*%
X102870000Y-41180000D03*
X121920000Y-38640000D03*
X123190000Y-42450000D03*
X114300000Y-41180000D03*
X116840000Y-47530000D03*
X113030000Y-43720000D03*
X104140000Y-46260000D03*
%TD*%
D21*
%TO.N,+3.3V*%
X108831056Y-41923147D02*
X108897909Y-41990000D01*
X108897909Y-41990000D02*
X113221320Y-41990000D01*
X113221320Y-41990000D02*
X114900869Y-43669549D01*
X114900869Y-43669549D02*
X117564500Y-43669549D01*
%TD*%
%TA.AperFunction,Conductor*%
%TO.N,GND*%
G36*
X104155954Y-28499685D02*
G01*
X104201709Y-28552489D01*
X104211653Y-28621647D01*
X104188181Y-28678312D01*
X104166204Y-28707668D01*
X104166202Y-28707671D01*
X104115908Y-28842517D01*
X104109501Y-28902116D01*
X104109501Y-28902123D01*
X104109500Y-28902135D01*
X104109500Y-30597870D01*
X104109501Y-30597876D01*
X104115908Y-30657483D01*
X104166202Y-30792328D01*
X104166206Y-30792335D01*
X104252452Y-30907544D01*
X104252455Y-30907547D01*
X104367664Y-30993793D01*
X104367671Y-30993797D01*
X104502517Y-31044091D01*
X104502516Y-31044091D01*
X104509444Y-31044835D01*
X104562127Y-31050500D01*
X106257872Y-31050499D01*
X106317483Y-31044091D01*
X106452331Y-30993796D01*
X106567546Y-30907546D01*
X106653796Y-30792331D01*
X106704091Y-30657483D01*
X106710500Y-30597873D01*
X106710499Y-28902128D01*
X106704091Y-28842517D01*
X106669567Y-28749954D01*
X106653797Y-28707671D01*
X106653795Y-28707668D01*
X106631819Y-28678312D01*
X106607401Y-28612848D01*
X106622252Y-28544575D01*
X106671656Y-28495169D01*
X106731085Y-28480000D01*
X112183117Y-28480000D01*
X112250156Y-28499685D01*
X112295911Y-28552489D01*
X112305855Y-28621647D01*
X112276830Y-28685203D01*
X112254240Y-28705575D01*
X112190858Y-28749954D01*
X112029954Y-28910858D01*
X111899432Y-29097265D01*
X111899431Y-29097267D01*
X111803261Y-29303502D01*
X111803258Y-29303511D01*
X111744366Y-29523302D01*
X111744364Y-29523313D01*
X111724532Y-29749998D01*
X111724532Y-29750001D01*
X111744364Y-29976686D01*
X111744366Y-29976697D01*
X111803258Y-30196488D01*
X111803261Y-30196497D01*
X111899431Y-30402732D01*
X111899432Y-30402734D01*
X112029954Y-30589141D01*
X112190858Y-30750045D01*
X112190861Y-30750047D01*
X112377266Y-30880568D01*
X112583504Y-30976739D01*
X112803308Y-31035635D01*
X112965230Y-31049801D01*
X113029998Y-31055468D01*
X113030000Y-31055468D01*
X113030002Y-31055468D01*
X113086807Y-31050498D01*
X113256692Y-31035635D01*
X113476496Y-30976739D01*
X113682734Y-30880568D01*
X113869139Y-30750047D01*
X114030047Y-30589139D01*
X114160568Y-30402734D01*
X114256739Y-30196496D01*
X114315635Y-29976692D01*
X114335468Y-29750000D01*
X114315635Y-29523308D01*
X114256739Y-29303504D01*
X114160568Y-29097266D01*
X114030047Y-28910861D01*
X114030045Y-28910858D01*
X113869141Y-28749954D01*
X113805760Y-28705575D01*
X113762135Y-28650999D01*
X113754941Y-28581501D01*
X113786463Y-28519146D01*
X113846693Y-28483731D01*
X113876883Y-28480000D01*
X131956000Y-28480000D01*
X132023039Y-28499685D01*
X132068794Y-28552489D01*
X132080000Y-28604000D01*
X132080000Y-51216000D01*
X132060315Y-51283039D01*
X132007511Y-51328794D01*
X131956000Y-51340000D01*
X92834000Y-51340000D01*
X92766961Y-51320315D01*
X92721206Y-51267511D01*
X92710000Y-51216000D01*
X92710000Y-42450000D01*
X95039341Y-42450000D01*
X95059936Y-42685403D01*
X95059938Y-42685413D01*
X95121094Y-42913655D01*
X95121096Y-42913659D01*
X95121097Y-42913663D01*
X95171031Y-43020746D01*
X95220964Y-43127828D01*
X95220965Y-43127830D01*
X95356505Y-43321402D01*
X95523597Y-43488494D01*
X95681031Y-43598730D01*
X95724656Y-43653307D01*
X95731850Y-43722805D01*
X95700327Y-43785160D01*
X95681032Y-43801880D01*
X95523922Y-43911890D01*
X95523920Y-43911891D01*
X95356894Y-44078917D01*
X95221399Y-44272421D01*
X95121570Y-44486507D01*
X95121567Y-44486513D01*
X95064364Y-44699999D01*
X95064364Y-44700000D01*
X96116031Y-44700000D01*
X96083481Y-44750649D01*
X96045000Y-44881705D01*
X96045000Y-45018295D01*
X96083481Y-45149351D01*
X96116031Y-45200000D01*
X95064364Y-45200000D01*
X95121567Y-45413486D01*
X95121570Y-45413492D01*
X95221399Y-45627577D01*
X95221400Y-45627579D01*
X95356886Y-45821073D01*
X95504143Y-45968331D01*
X95537627Y-46029654D01*
X95532643Y-46099346D01*
X95490771Y-46155279D01*
X95481558Y-46161550D01*
X95326347Y-46257285D01*
X95326343Y-46257288D01*
X95202289Y-46381342D01*
X95110187Y-46530663D01*
X95110186Y-46530666D01*
X95055001Y-46697203D01*
X95055001Y-46697204D01*
X95055000Y-46697204D01*
X95044500Y-46799983D01*
X95044500Y-48100001D01*
X95044501Y-48100018D01*
X95055000Y-48202796D01*
X95055001Y-48202799D01*
X95110185Y-48369331D01*
X95110186Y-48369334D01*
X95202288Y-48518656D01*
X95326344Y-48642712D01*
X95475666Y-48734814D01*
X95642203Y-48789999D01*
X95744991Y-48800500D01*
X97295008Y-48800499D01*
X97397797Y-48789999D01*
X97564334Y-48734814D01*
X97713656Y-48642712D01*
X97837712Y-48518656D01*
X97929814Y-48369334D01*
X97984999Y-48202797D01*
X97995500Y-48100009D01*
X97995499Y-46799992D01*
X97984999Y-46697203D01*
X97929814Y-46530666D01*
X97837712Y-46381344D01*
X97713656Y-46257288D01*
X97564334Y-46165186D01*
X97558441Y-46161551D01*
X97511717Y-46109603D01*
X97500494Y-46040640D01*
X97528338Y-45976558D01*
X97535857Y-45968331D01*
X97683105Y-45821082D01*
X97818600Y-45627578D01*
X97918429Y-45413492D01*
X97918432Y-45413486D01*
X97975636Y-45200000D01*
X96923969Y-45200000D01*
X96956519Y-45149351D01*
X96995000Y-45018295D01*
X96995000Y-44881705D01*
X96956519Y-44750649D01*
X96923969Y-44700000D01*
X97975636Y-44700000D01*
X97975635Y-44699999D01*
X97918432Y-44486513D01*
X97918429Y-44486507D01*
X97818600Y-44272422D01*
X97818599Y-44272420D01*
X97683113Y-44078926D01*
X97683108Y-44078920D01*
X97516079Y-43911891D01*
X97516073Y-43911886D01*
X97358967Y-43801880D01*
X97315342Y-43747303D01*
X97308148Y-43677805D01*
X97339671Y-43615450D01*
X97358960Y-43598735D01*
X97516401Y-43488495D01*
X97683495Y-43321401D01*
X97819035Y-43127830D01*
X97918903Y-42913663D01*
X97980063Y-42685408D01*
X98000659Y-42450000D01*
X97980063Y-42214592D01*
X97918903Y-41986337D01*
X97889437Y-41923147D01*
X107925596Y-41923147D01*
X107945382Y-42111403D01*
X107945383Y-42111406D01*
X108003874Y-42291424D01*
X108003877Y-42291431D01*
X108098523Y-42455363D01*
X108225185Y-42596035D01*
X108378321Y-42707295D01*
X108378326Y-42707298D01*
X108551248Y-42784289D01*
X108551253Y-42784291D01*
X108736410Y-42823647D01*
X108736411Y-42823647D01*
X108925700Y-42823647D01*
X108925702Y-42823647D01*
X109110859Y-42784291D01*
X109144446Y-42769336D01*
X109213694Y-42760050D01*
X109276972Y-42789677D01*
X109314186Y-42848811D01*
X109318354Y-42894056D01*
X109309464Y-42989998D01*
X109309464Y-42990000D01*
X109329564Y-43206918D01*
X109329564Y-43206920D01*
X109329565Y-43206923D01*
X109362135Y-43321395D01*
X109389184Y-43416462D01*
X109486288Y-43611472D01*
X109617574Y-43785324D01*
X109741944Y-43898701D01*
X109778226Y-43958412D01*
X109776465Y-44028259D01*
X109741944Y-44081975D01*
X109617945Y-44195013D01*
X109486715Y-44368791D01*
X109389651Y-44563719D01*
X109339494Y-44739999D01*
X109339495Y-44740000D01*
X110174314Y-44740000D01*
X110162359Y-44751955D01*
X110104835Y-44864852D01*
X110085014Y-44990000D01*
X110104835Y-45115148D01*
X110162359Y-45228045D01*
X110174314Y-45240000D01*
X109339495Y-45240000D01*
X109389651Y-45416280D01*
X109486715Y-45611208D01*
X109617945Y-45784985D01*
X109778868Y-45931685D01*
X109964012Y-46046322D01*
X109964023Y-46046327D01*
X110167060Y-46124984D01*
X110240000Y-46138619D01*
X110240000Y-45305686D01*
X110251955Y-45317641D01*
X110364852Y-45375165D01*
X110458519Y-45390000D01*
X110521481Y-45390000D01*
X110615148Y-45375165D01*
X110728045Y-45317641D01*
X110740000Y-45305686D01*
X110740000Y-46138619D01*
X110812939Y-46124984D01*
X111015976Y-46046327D01*
X111015987Y-46046322D01*
X111201130Y-45931685D01*
X111201131Y-45931685D01*
X111362054Y-45784985D01*
X111493284Y-45611208D01*
X111590348Y-45416280D01*
X111640505Y-45240000D01*
X110805686Y-45240000D01*
X110817641Y-45228045D01*
X110875165Y-45115148D01*
X110894986Y-44990000D01*
X110875165Y-44864852D01*
X110817641Y-44751955D01*
X110805686Y-44740000D01*
X111640505Y-44740000D01*
X111640505Y-44739999D01*
X111590348Y-44563719D01*
X111493284Y-44368791D01*
X111362056Y-44195017D01*
X111238055Y-44081976D01*
X111201774Y-44022265D01*
X111203534Y-43952417D01*
X111238052Y-43898704D01*
X111362427Y-43785322D01*
X111493712Y-43611472D01*
X111590817Y-43416459D01*
X111650435Y-43206923D01*
X111670536Y-42990000D01*
X111650435Y-42773077D01*
X111649382Y-42767445D01*
X111650587Y-42767219D01*
X111651125Y-42703561D01*
X111689395Y-42645104D01*
X111753194Y-42616617D01*
X111769803Y-42615500D01*
X112910868Y-42615500D01*
X112977907Y-42635185D01*
X112998549Y-42651819D01*
X114400066Y-44053337D01*
X114409891Y-44065600D01*
X114410112Y-44065418D01*
X114415083Y-44071427D01*
X114426316Y-44081975D01*
X114465504Y-44118775D01*
X114486398Y-44139669D01*
X114491880Y-44143922D01*
X114496312Y-44147706D01*
X114530287Y-44179611D01*
X114547845Y-44189263D01*
X114564102Y-44199942D01*
X114579933Y-44212222D01*
X114599606Y-44220735D01*
X114622702Y-44230731D01*
X114627946Y-44233299D01*
X114668777Y-44255746D01*
X114681392Y-44258984D01*
X114688174Y-44260726D01*
X114706588Y-44267030D01*
X114724973Y-44274987D01*
X114771026Y-44282281D01*
X114776695Y-44283455D01*
X114821850Y-44295049D01*
X114841885Y-44295049D01*
X114861282Y-44296575D01*
X114881065Y-44299709D01*
X114927453Y-44295324D01*
X114933291Y-44295049D01*
X116860752Y-44295049D01*
X116927791Y-44314734D01*
X116952900Y-44336075D01*
X116958626Y-44342434D01*
X116958630Y-44342438D01*
X117111765Y-44453697D01*
X117111770Y-44453700D01*
X117284692Y-44530691D01*
X117284697Y-44530693D01*
X117469854Y-44570049D01*
X117469855Y-44570049D01*
X117659144Y-44570049D01*
X117659146Y-44570049D01*
X117844303Y-44530693D01*
X118017230Y-44453700D01*
X118170371Y-44342437D01*
X118297033Y-44201765D01*
X118391679Y-44037833D01*
X118450174Y-43857805D01*
X118469960Y-43669549D01*
X118450174Y-43481293D01*
X118391679Y-43301265D01*
X118297033Y-43137333D01*
X118170371Y-42996661D01*
X118170370Y-42996660D01*
X118017234Y-42885400D01*
X118017229Y-42885397D01*
X117844307Y-42808406D01*
X117844302Y-42808404D01*
X117678096Y-42773077D01*
X117659146Y-42769049D01*
X117469854Y-42769049D01*
X117450904Y-42773077D01*
X117284697Y-42808404D01*
X117284692Y-42808406D01*
X117111770Y-42885397D01*
X117111765Y-42885400D01*
X116958630Y-42996659D01*
X116958626Y-42996663D01*
X116952900Y-43003023D01*
X116893413Y-43039670D01*
X116860752Y-43044049D01*
X115211321Y-43044049D01*
X115144282Y-43024364D01*
X115123640Y-43007730D01*
X113722123Y-41606212D01*
X113712300Y-41593950D01*
X113712079Y-41594134D01*
X113707106Y-41588123D01*
X113696962Y-41578597D01*
X113656684Y-41540773D01*
X113646239Y-41530328D01*
X113635795Y-41519883D01*
X113630306Y-41515625D01*
X113625881Y-41511847D01*
X113591902Y-41479938D01*
X113591900Y-41479936D01*
X113591897Y-41479935D01*
X113574349Y-41470288D01*
X113558083Y-41459604D01*
X113542253Y-41447325D01*
X113499488Y-41428818D01*
X113494242Y-41426248D01*
X113453413Y-41403803D01*
X113453412Y-41403802D01*
X113434013Y-41398822D01*
X113415601Y-41392518D01*
X113397218Y-41384562D01*
X113397212Y-41384560D01*
X113351194Y-41377272D01*
X113345472Y-41376087D01*
X113300341Y-41364500D01*
X113300339Y-41364500D01*
X113280304Y-41364500D01*
X113260906Y-41362973D01*
X113253482Y-41361797D01*
X113241125Y-41359840D01*
X113241124Y-41359840D01*
X113194736Y-41364225D01*
X113188898Y-41364500D01*
X111789500Y-41364500D01*
X111722461Y-41344815D01*
X111676706Y-41292011D01*
X111665500Y-41240500D01*
X111665499Y-40267129D01*
X111665498Y-40267123D01*
X111665497Y-40267116D01*
X111659091Y-40207517D01*
X111608796Y-40072669D01*
X111608795Y-40072668D01*
X111608793Y-40072664D01*
X111522547Y-39957455D01*
X111522544Y-39957452D01*
X111407335Y-39871206D01*
X111407328Y-39871202D01*
X111272482Y-39820908D01*
X111272483Y-39820908D01*
X111212883Y-39814501D01*
X111212881Y-39814500D01*
X111212873Y-39814500D01*
X111212864Y-39814500D01*
X109767129Y-39814500D01*
X109767123Y-39814501D01*
X109707516Y-39820908D01*
X109572671Y-39871202D01*
X109572664Y-39871206D01*
X109457455Y-39957452D01*
X109457452Y-39957455D01*
X109371206Y-40072664D01*
X109371202Y-40072671D01*
X109320908Y-40207517D01*
X109314501Y-40267116D01*
X109314501Y-40267123D01*
X109314500Y-40267135D01*
X109314500Y-40961726D01*
X109294815Y-41028765D01*
X109242011Y-41074520D01*
X109172853Y-41084464D01*
X109140065Y-41075006D01*
X109110858Y-41062002D01*
X108954485Y-41028765D01*
X108925702Y-41022647D01*
X108736410Y-41022647D01*
X108707627Y-41028765D01*
X108551253Y-41062002D01*
X108551248Y-41062004D01*
X108378326Y-41138995D01*
X108378321Y-41138998D01*
X108225185Y-41250258D01*
X108098522Y-41390932D01*
X108003877Y-41554862D01*
X108003874Y-41554869D01*
X107945383Y-41734887D01*
X107945382Y-41734891D01*
X107925596Y-41923147D01*
X97889437Y-41923147D01*
X97819035Y-41772171D01*
X97819034Y-41772169D01*
X97683494Y-41578597D01*
X97516402Y-41411505D01*
X97322830Y-41275965D01*
X97322828Y-41275964D01*
X97215746Y-41226031D01*
X97108663Y-41176097D01*
X97108659Y-41176096D01*
X97108655Y-41176094D01*
X96880413Y-41114938D01*
X96880403Y-41114936D01*
X96703966Y-41099500D01*
X96336034Y-41099500D01*
X96159596Y-41114936D01*
X96159586Y-41114938D01*
X95931344Y-41176094D01*
X95931335Y-41176098D01*
X95717171Y-41275964D01*
X95717169Y-41275965D01*
X95523597Y-41411505D01*
X95356506Y-41578597D01*
X95356501Y-41578604D01*
X95220967Y-41772165D01*
X95220965Y-41772169D01*
X95121098Y-41986335D01*
X95121094Y-41986344D01*
X95059938Y-42214586D01*
X95059936Y-42214596D01*
X95039341Y-42449999D01*
X95039341Y-42450000D01*
X92710000Y-42450000D01*
X92710000Y-34580000D01*
X96420000Y-34580000D01*
X97336314Y-34580000D01*
X97310507Y-34620156D01*
X97270000Y-34758111D01*
X97270000Y-34901889D01*
X97310507Y-35039844D01*
X97336314Y-35080000D01*
X96420001Y-35080000D01*
X96420001Y-35629986D01*
X96430494Y-35732697D01*
X96485641Y-35899119D01*
X96485643Y-35899124D01*
X96577684Y-36048345D01*
X96701654Y-36172315D01*
X96850875Y-36264356D01*
X96850880Y-36264358D01*
X97017302Y-36319505D01*
X97017309Y-36319506D01*
X97120019Y-36329999D01*
X97519999Y-36329999D01*
X97520000Y-36329998D01*
X97520000Y-35265501D01*
X97627685Y-35314680D01*
X97734237Y-35330000D01*
X97805763Y-35330000D01*
X97912315Y-35314680D01*
X98020000Y-35265501D01*
X98020000Y-36329999D01*
X98419972Y-36329999D01*
X98419986Y-36329998D01*
X98522697Y-36319505D01*
X98689119Y-36264358D01*
X98689124Y-36264356D01*
X98838345Y-36172315D01*
X98962315Y-36048345D01*
X99057815Y-35893516D01*
X99109763Y-35846792D01*
X99178726Y-35835569D01*
X99242808Y-35863413D01*
X99251035Y-35870931D01*
X99398599Y-36018495D01*
X99398602Y-36018497D01*
X99398603Y-36018498D01*
X99592165Y-36154032D01*
X99592167Y-36154033D01*
X99592170Y-36154035D01*
X99806337Y-36253903D01*
X99806343Y-36253904D01*
X99806344Y-36253905D01*
X99845356Y-36264358D01*
X100034592Y-36315063D01*
X100211034Y-36330500D01*
X100269999Y-36335659D01*
X100270000Y-36335659D01*
X100270001Y-36335659D01*
X100328966Y-36330500D01*
X100505408Y-36315063D01*
X100733663Y-36253903D01*
X100947829Y-36154035D01*
X101141401Y-36018495D01*
X101308495Y-35851401D01*
X101444035Y-35657829D01*
X101457012Y-35630001D01*
X106599500Y-35630001D01*
X106599501Y-35630018D01*
X106610000Y-35732796D01*
X106610001Y-35732799D01*
X106654967Y-35868495D01*
X106665186Y-35899334D01*
X106757288Y-36048656D01*
X106881344Y-36172712D01*
X107030666Y-36264814D01*
X107197203Y-36319999D01*
X107299991Y-36330500D01*
X108600008Y-36330499D01*
X108702797Y-36319999D01*
X108869334Y-36264814D01*
X109018656Y-36172712D01*
X109142712Y-36048656D01*
X109234814Y-35899334D01*
X109234814Y-35899331D01*
X109238178Y-35893879D01*
X109290126Y-35847154D01*
X109359088Y-35835931D01*
X109423170Y-35863774D01*
X109431398Y-35871294D01*
X109578599Y-36018495D01*
X109621675Y-36048657D01*
X109772165Y-36154032D01*
X109772167Y-36154033D01*
X109772170Y-36154035D01*
X109986337Y-36253903D01*
X109986343Y-36253904D01*
X109986344Y-36253905D01*
X110025356Y-36264358D01*
X110214592Y-36315063D01*
X110391034Y-36330500D01*
X110449999Y-36335659D01*
X110450000Y-36335659D01*
X110450001Y-36335659D01*
X110508966Y-36330500D01*
X110685408Y-36315063D01*
X110913663Y-36253903D01*
X111127829Y-36154035D01*
X111321401Y-36018495D01*
X111488495Y-35851401D01*
X111624035Y-35657829D01*
X111723903Y-35443663D01*
X111785063Y-35215408D01*
X111800500Y-35038966D01*
X111800500Y-34830000D01*
X124224341Y-34830000D01*
X124244936Y-35065403D01*
X124244938Y-35065413D01*
X124306094Y-35293655D01*
X124306096Y-35293659D01*
X124306097Y-35293663D01*
X124356031Y-35400746D01*
X124405964Y-35507828D01*
X124405965Y-35507830D01*
X124541505Y-35701402D01*
X124689067Y-35848964D01*
X124722552Y-35910287D01*
X124717568Y-35979979D01*
X124675696Y-36035912D01*
X124666483Y-36042183D01*
X124511659Y-36137680D01*
X124511655Y-36137683D01*
X124387684Y-36261654D01*
X124295643Y-36410875D01*
X124295641Y-36410880D01*
X124240494Y-36577302D01*
X124240493Y-36577309D01*
X124230000Y-36680013D01*
X124230000Y-37080000D01*
X125296314Y-37080000D01*
X125270507Y-37120156D01*
X125230000Y-37258111D01*
X125230000Y-37401889D01*
X125270507Y-37539844D01*
X125296314Y-37580000D01*
X124230001Y-37580000D01*
X124230001Y-37979986D01*
X124240494Y-38082697D01*
X124295641Y-38249119D01*
X124295643Y-38249124D01*
X124387684Y-38398345D01*
X124511654Y-38522315D01*
X124660875Y-38614356D01*
X124660880Y-38614358D01*
X124827302Y-38669505D01*
X124827309Y-38669506D01*
X124930019Y-38679999D01*
X125479999Y-38679999D01*
X125480000Y-38679998D01*
X125480000Y-37765501D01*
X125587685Y-37814680D01*
X125694237Y-37830000D01*
X125765763Y-37830000D01*
X125872315Y-37814680D01*
X125980000Y-37765501D01*
X125980000Y-38679999D01*
X126529972Y-38679999D01*
X126529986Y-38679998D01*
X126632697Y-38669505D01*
X126799119Y-38614358D01*
X126799124Y-38614356D01*
X126948345Y-38522315D01*
X127072315Y-38398345D01*
X127164356Y-38249124D01*
X127164358Y-38249119D01*
X127219505Y-38082697D01*
X127219506Y-38082690D01*
X127229999Y-37979986D01*
X127230000Y-37979973D01*
X127230000Y-37580000D01*
X126163686Y-37580000D01*
X126189493Y-37539844D01*
X126230000Y-37401889D01*
X126230000Y-37258111D01*
X126189493Y-37120156D01*
X126163686Y-37080000D01*
X127229999Y-37080000D01*
X127229999Y-36680028D01*
X127229998Y-36680013D01*
X127219505Y-36577302D01*
X127164358Y-36410880D01*
X127164356Y-36410875D01*
X127072315Y-36261654D01*
X126948344Y-36137683D01*
X126948340Y-36137680D01*
X126793516Y-36042183D01*
X126746791Y-35990235D01*
X126735570Y-35921273D01*
X126763413Y-35857191D01*
X126770932Y-35848964D01*
X126784327Y-35835569D01*
X126918495Y-35701401D01*
X127054035Y-35507830D01*
X127153903Y-35293663D01*
X127215063Y-35065408D01*
X127235659Y-34830000D01*
X127215063Y-34594592D01*
X127153903Y-34366337D01*
X127054035Y-34152171D01*
X127054034Y-34152169D01*
X126918494Y-33958597D01*
X126751402Y-33791505D01*
X126557830Y-33655965D01*
X126557828Y-33655964D01*
X126450746Y-33606031D01*
X126343663Y-33556097D01*
X126343659Y-33556096D01*
X126343655Y-33556094D01*
X126115413Y-33494938D01*
X126115403Y-33494936D01*
X125938966Y-33479500D01*
X125521034Y-33479500D01*
X125344596Y-33494936D01*
X125344586Y-33494938D01*
X125116344Y-33556094D01*
X125116335Y-33556098D01*
X124902171Y-33655964D01*
X124902169Y-33655965D01*
X124708597Y-33791505D01*
X124541506Y-33958597D01*
X124541501Y-33958604D01*
X124405967Y-34152165D01*
X124405965Y-34152169D01*
X124306098Y-34366335D01*
X124306094Y-34366344D01*
X124244938Y-34594586D01*
X124244936Y-34594596D01*
X124224341Y-34829999D01*
X124224341Y-34830000D01*
X111800500Y-34830000D01*
X111800500Y-34621034D01*
X111785063Y-34444592D01*
X111723903Y-34216337D01*
X111624035Y-34002171D01*
X111605105Y-33975135D01*
X111488494Y-33808597D01*
X111321402Y-33641506D01*
X111321395Y-33641501D01*
X111127834Y-33505967D01*
X111127830Y-33505965D01*
X111127828Y-33505964D01*
X110913663Y-33406097D01*
X110913659Y-33406096D01*
X110913655Y-33406094D01*
X110685413Y-33344938D01*
X110685403Y-33344936D01*
X110450001Y-33324341D01*
X110449999Y-33324341D01*
X110214596Y-33344936D01*
X110214586Y-33344938D01*
X109986344Y-33406094D01*
X109986335Y-33406098D01*
X109772171Y-33505964D01*
X109772169Y-33505965D01*
X109578597Y-33641505D01*
X109431398Y-33788705D01*
X109370075Y-33822190D01*
X109300383Y-33817206D01*
X109244450Y-33775334D01*
X109238178Y-33766120D01*
X109142712Y-33611344D01*
X109018657Y-33487289D01*
X109018656Y-33487288D01*
X108925888Y-33430069D01*
X108869336Y-33395187D01*
X108869331Y-33395185D01*
X108867862Y-33394698D01*
X108702797Y-33340001D01*
X108702795Y-33340000D01*
X108600010Y-33329500D01*
X107299998Y-33329500D01*
X107299981Y-33329501D01*
X107197203Y-33340000D01*
X107197200Y-33340001D01*
X107030668Y-33395185D01*
X107030663Y-33395187D01*
X106881342Y-33487289D01*
X106757289Y-33611342D01*
X106665187Y-33760663D01*
X106665185Y-33760668D01*
X106646450Y-33817206D01*
X106610001Y-33927203D01*
X106610001Y-33927204D01*
X106610000Y-33927204D01*
X106599500Y-34029983D01*
X106599500Y-35630001D01*
X101457012Y-35630001D01*
X101543903Y-35443663D01*
X101605063Y-35215408D01*
X101620500Y-35038966D01*
X101620500Y-34621034D01*
X101605063Y-34444592D01*
X101543903Y-34216337D01*
X101444035Y-34002171D01*
X101425105Y-33975135D01*
X101308494Y-33808597D01*
X101141402Y-33641506D01*
X101141395Y-33641501D01*
X100947834Y-33505967D01*
X100947830Y-33505965D01*
X100947828Y-33505964D01*
X100733663Y-33406097D01*
X100733659Y-33406096D01*
X100733655Y-33406094D01*
X100505413Y-33344938D01*
X100505403Y-33344936D01*
X100270001Y-33324341D01*
X100269999Y-33324341D01*
X100034596Y-33344936D01*
X100034586Y-33344938D01*
X99806344Y-33406094D01*
X99806335Y-33406098D01*
X99592171Y-33505964D01*
X99592169Y-33505965D01*
X99398597Y-33641505D01*
X99251035Y-33789068D01*
X99189712Y-33822553D01*
X99120020Y-33817569D01*
X99064087Y-33775697D01*
X99057815Y-33766484D01*
X98962315Y-33611654D01*
X98838345Y-33487684D01*
X98689124Y-33395643D01*
X98689119Y-33395641D01*
X98522697Y-33340494D01*
X98522690Y-33340493D01*
X98419986Y-33330000D01*
X98020000Y-33330000D01*
X98020000Y-34394498D01*
X97912315Y-34345320D01*
X97805763Y-34330000D01*
X97734237Y-34330000D01*
X97627685Y-34345320D01*
X97520000Y-34394498D01*
X97520000Y-33330000D01*
X97120028Y-33330000D01*
X97120012Y-33330001D01*
X97017302Y-33340494D01*
X96850880Y-33395641D01*
X96850875Y-33395643D01*
X96701654Y-33487684D01*
X96577684Y-33611654D01*
X96485643Y-33760875D01*
X96485641Y-33760880D01*
X96430494Y-33927302D01*
X96430493Y-33927309D01*
X96420000Y-34030013D01*
X96420000Y-34580000D01*
X92710000Y-34580000D01*
X92710000Y-28604000D01*
X92729685Y-28536961D01*
X92782489Y-28491206D01*
X92834000Y-28480000D01*
X104088915Y-28480000D01*
X104155954Y-28499685D01*
G37*
%TD.AperFunction*%
%TD*%
M02*
