M48
; DRILL file {KiCad 7.0.8-7.0.8~ubuntu22.04.1} date Mon 16 Oct 2023 04:43:27 PM
; FORMAT={-:-/ absolute / inch / decimal}
; #@! TF.CreationDate,2023-10-16T16:43:27-07:00
; #@! TF.GenerationSoftware,Kicad,Pcbnew,7.0.8-7.0.8~ubuntu22.04.1
; #@! TF.FileFunction,Plated,1,2,PTH
FMAT,2
INCH
; #@! TA.AperFunction,Plated,PTH,ViaDrill
T1C0.0157
; #@! TA.AperFunction,Plated,PTH,ComponentDrill
T2C0.0315
; #@! TA.AperFunction,Plated,PTH,ComponentDrill
T3C0.0374
; #@! TA.AperFunction,Plated,PTH,ComponentDrill
T4C0.0394
%
G90
G05
T1
X4.05Y-1.6213
X4.1Y-1.8213
X4.2847Y-1.6505
X4.45Y-1.7213
X4.5Y-1.6213
X4.6Y-1.8713
X4.6285Y-1.7193
X4.8Y-1.5213
X4.85Y-1.6713
T2
X4.15Y-1.1713
X4.35Y-1.6138
X4.35Y-1.6925
X4.35Y-1.7713
X4.45Y-1.1713
T3
X3.8Y-1.6713
X3.8Y-1.7697
X3.8Y-1.8681
T4
X3.8492Y-1.3713
X3.9476Y-1.3713
X4.25Y-1.3713
X4.3484Y-1.3713
X4.95Y-1.3713
X4.95Y-1.4697
T0
M30
