%TF.GenerationSoftware,KiCad,Pcbnew,7.0.8-7.0.8~ubuntu22.04.1*%
%TF.CreationDate,2023-10-16T16:43:54-07:00*%
%TF.ProjectId,SolenoidDriver,536f6c65-6e6f-4696-9444-72697665722e,rev?*%
%TF.SameCoordinates,Original*%
%TF.FileFunction,Legend,Top*%
%TF.FilePolarity,Positive*%
%FSLAX46Y46*%
G04 Gerber Fmt 4.6, Leading zero omitted, Abs format (unit mm)*
G04 Created by KiCad (PCBNEW 7.0.8-7.0.8~ubuntu22.04.1) date 2023-10-16 16:43:54*
%MOMM*%
%LPD*%
G01*
G04 APERTURE LIST*
%ADD10C,0.150000*%
%ADD11C,0.120000*%
G04 APERTURE END LIST*
D10*
X115403333Y-36664819D02*
X115070000Y-36188628D01*
X114831905Y-36664819D02*
X114831905Y-35664819D01*
X114831905Y-35664819D02*
X115212857Y-35664819D01*
X115212857Y-35664819D02*
X115308095Y-35712438D01*
X115308095Y-35712438D02*
X115355714Y-35760057D01*
X115355714Y-35760057D02*
X115403333Y-35855295D01*
X115403333Y-35855295D02*
X115403333Y-35998152D01*
X115403333Y-35998152D02*
X115355714Y-36093390D01*
X115355714Y-36093390D02*
X115308095Y-36141009D01*
X115308095Y-36141009D02*
X115212857Y-36188628D01*
X115212857Y-36188628D02*
X114831905Y-36188628D01*
X115784286Y-35760057D02*
X115831905Y-35712438D01*
X115831905Y-35712438D02*
X115927143Y-35664819D01*
X115927143Y-35664819D02*
X116165238Y-35664819D01*
X116165238Y-35664819D02*
X116260476Y-35712438D01*
X116260476Y-35712438D02*
X116308095Y-35760057D01*
X116308095Y-35760057D02*
X116355714Y-35855295D01*
X116355714Y-35855295D02*
X116355714Y-35950533D01*
X116355714Y-35950533D02*
X116308095Y-36093390D01*
X116308095Y-36093390D02*
X115736667Y-36664819D01*
X115736667Y-36664819D02*
X116355714Y-36664819D01*
X108514819Y-45994166D02*
X108038628Y-46327499D01*
X108514819Y-46565594D02*
X107514819Y-46565594D01*
X107514819Y-46565594D02*
X107514819Y-46184642D01*
X107514819Y-46184642D02*
X107562438Y-46089404D01*
X107562438Y-46089404D02*
X107610057Y-46041785D01*
X107610057Y-46041785D02*
X107705295Y-45994166D01*
X107705295Y-45994166D02*
X107848152Y-45994166D01*
X107848152Y-45994166D02*
X107943390Y-46041785D01*
X107943390Y-46041785D02*
X107991009Y-46089404D01*
X107991009Y-46089404D02*
X108038628Y-46184642D01*
X108038628Y-46184642D02*
X108038628Y-46565594D01*
X108514819Y-45041785D02*
X108514819Y-45613213D01*
X108514819Y-45327499D02*
X107514819Y-45327499D01*
X107514819Y-45327499D02*
X107657676Y-45422737D01*
X107657676Y-45422737D02*
X107752914Y-45517975D01*
X107752914Y-45517975D02*
X107800533Y-45613213D01*
X118879580Y-47264166D02*
X118927200Y-47311785D01*
X118927200Y-47311785D02*
X118974819Y-47454642D01*
X118974819Y-47454642D02*
X118974819Y-47549880D01*
X118974819Y-47549880D02*
X118927200Y-47692737D01*
X118927200Y-47692737D02*
X118831961Y-47787975D01*
X118831961Y-47787975D02*
X118736723Y-47835594D01*
X118736723Y-47835594D02*
X118546247Y-47883213D01*
X118546247Y-47883213D02*
X118403390Y-47883213D01*
X118403390Y-47883213D02*
X118212914Y-47835594D01*
X118212914Y-47835594D02*
X118117676Y-47787975D01*
X118117676Y-47787975D02*
X118022438Y-47692737D01*
X118022438Y-47692737D02*
X117974819Y-47549880D01*
X117974819Y-47549880D02*
X117974819Y-47454642D01*
X117974819Y-47454642D02*
X118022438Y-47311785D01*
X118022438Y-47311785D02*
X118070057Y-47264166D01*
X117974819Y-46359404D02*
X117974819Y-46835594D01*
X117974819Y-46835594D02*
X118451009Y-46883213D01*
X118451009Y-46883213D02*
X118403390Y-46835594D01*
X118403390Y-46835594D02*
X118355771Y-46740356D01*
X118355771Y-46740356D02*
X118355771Y-46502261D01*
X118355771Y-46502261D02*
X118403390Y-46407023D01*
X118403390Y-46407023D02*
X118451009Y-46359404D01*
X118451009Y-46359404D02*
X118546247Y-46311785D01*
X118546247Y-46311785D02*
X118784342Y-46311785D01*
X118784342Y-46311785D02*
X118879580Y-46359404D01*
X118879580Y-46359404D02*
X118927200Y-46407023D01*
X118927200Y-46407023D02*
X118974819Y-46502261D01*
X118974819Y-46502261D02*
X118974819Y-46740356D01*
X118974819Y-46740356D02*
X118927200Y-46835594D01*
X118927200Y-46835594D02*
X118879580Y-46883213D01*
X113295833Y-49569580D02*
X113248214Y-49617200D01*
X113248214Y-49617200D02*
X113105357Y-49664819D01*
X113105357Y-49664819D02*
X113010119Y-49664819D01*
X113010119Y-49664819D02*
X112867262Y-49617200D01*
X112867262Y-49617200D02*
X112772024Y-49521961D01*
X112772024Y-49521961D02*
X112724405Y-49426723D01*
X112724405Y-49426723D02*
X112676786Y-49236247D01*
X112676786Y-49236247D02*
X112676786Y-49093390D01*
X112676786Y-49093390D02*
X112724405Y-48902914D01*
X112724405Y-48902914D02*
X112772024Y-48807676D01*
X112772024Y-48807676D02*
X112867262Y-48712438D01*
X112867262Y-48712438D02*
X113010119Y-48664819D01*
X113010119Y-48664819D02*
X113105357Y-48664819D01*
X113105357Y-48664819D02*
X113248214Y-48712438D01*
X113248214Y-48712438D02*
X113295833Y-48760057D01*
X114152976Y-48998152D02*
X114152976Y-49664819D01*
X113914881Y-48617200D02*
X113676786Y-49331485D01*
X113676786Y-49331485D02*
X114295833Y-49331485D01*
X124819580Y-42184166D02*
X124867200Y-42231785D01*
X124867200Y-42231785D02*
X124914819Y-42374642D01*
X124914819Y-42374642D02*
X124914819Y-42469880D01*
X124914819Y-42469880D02*
X124867200Y-42612737D01*
X124867200Y-42612737D02*
X124771961Y-42707975D01*
X124771961Y-42707975D02*
X124676723Y-42755594D01*
X124676723Y-42755594D02*
X124486247Y-42803213D01*
X124486247Y-42803213D02*
X124343390Y-42803213D01*
X124343390Y-42803213D02*
X124152914Y-42755594D01*
X124152914Y-42755594D02*
X124057676Y-42707975D01*
X124057676Y-42707975D02*
X123962438Y-42612737D01*
X123962438Y-42612737D02*
X123914819Y-42469880D01*
X123914819Y-42469880D02*
X123914819Y-42374642D01*
X123914819Y-42374642D02*
X123962438Y-42231785D01*
X123962438Y-42231785D02*
X124010057Y-42184166D01*
X123914819Y-41850832D02*
X123914819Y-41231785D01*
X123914819Y-41231785D02*
X124295771Y-41565118D01*
X124295771Y-41565118D02*
X124295771Y-41422261D01*
X124295771Y-41422261D02*
X124343390Y-41327023D01*
X124343390Y-41327023D02*
X124391009Y-41279404D01*
X124391009Y-41279404D02*
X124486247Y-41231785D01*
X124486247Y-41231785D02*
X124724342Y-41231785D01*
X124724342Y-41231785D02*
X124819580Y-41279404D01*
X124819580Y-41279404D02*
X124867200Y-41327023D01*
X124867200Y-41327023D02*
X124914819Y-41422261D01*
X124914819Y-41422261D02*
X124914819Y-41707975D01*
X124914819Y-41707975D02*
X124867200Y-41803213D01*
X124867200Y-41803213D02*
X124819580Y-41850832D01*
X120915833Y-36049580D02*
X120868214Y-36097200D01*
X120868214Y-36097200D02*
X120725357Y-36144819D01*
X120725357Y-36144819D02*
X120630119Y-36144819D01*
X120630119Y-36144819D02*
X120487262Y-36097200D01*
X120487262Y-36097200D02*
X120392024Y-36001961D01*
X120392024Y-36001961D02*
X120344405Y-35906723D01*
X120344405Y-35906723D02*
X120296786Y-35716247D01*
X120296786Y-35716247D02*
X120296786Y-35573390D01*
X120296786Y-35573390D02*
X120344405Y-35382914D01*
X120344405Y-35382914D02*
X120392024Y-35287676D01*
X120392024Y-35287676D02*
X120487262Y-35192438D01*
X120487262Y-35192438D02*
X120630119Y-35144819D01*
X120630119Y-35144819D02*
X120725357Y-35144819D01*
X120725357Y-35144819D02*
X120868214Y-35192438D01*
X120868214Y-35192438D02*
X120915833Y-35240057D01*
X121296786Y-35240057D02*
X121344405Y-35192438D01*
X121344405Y-35192438D02*
X121439643Y-35144819D01*
X121439643Y-35144819D02*
X121677738Y-35144819D01*
X121677738Y-35144819D02*
X121772976Y-35192438D01*
X121772976Y-35192438D02*
X121820595Y-35240057D01*
X121820595Y-35240057D02*
X121868214Y-35335295D01*
X121868214Y-35335295D02*
X121868214Y-35430533D01*
X121868214Y-35430533D02*
X121820595Y-35573390D01*
X121820595Y-35573390D02*
X121249167Y-36144819D01*
X121249167Y-36144819D02*
X121868214Y-36144819D01*
X101433333Y-44079580D02*
X101385714Y-44127200D01*
X101385714Y-44127200D02*
X101242857Y-44174819D01*
X101242857Y-44174819D02*
X101147619Y-44174819D01*
X101147619Y-44174819D02*
X101004762Y-44127200D01*
X101004762Y-44127200D02*
X100909524Y-44031961D01*
X100909524Y-44031961D02*
X100861905Y-43936723D01*
X100861905Y-43936723D02*
X100814286Y-43746247D01*
X100814286Y-43746247D02*
X100814286Y-43603390D01*
X100814286Y-43603390D02*
X100861905Y-43412914D01*
X100861905Y-43412914D02*
X100909524Y-43317676D01*
X100909524Y-43317676D02*
X101004762Y-43222438D01*
X101004762Y-43222438D02*
X101147619Y-43174819D01*
X101147619Y-43174819D02*
X101242857Y-43174819D01*
X101242857Y-43174819D02*
X101385714Y-43222438D01*
X101385714Y-43222438D02*
X101433333Y-43270057D01*
X102385714Y-44174819D02*
X101814286Y-44174819D01*
X102100000Y-44174819D02*
X102100000Y-43174819D01*
X102100000Y-43174819D02*
X102004762Y-43317676D01*
X102004762Y-43317676D02*
X101909524Y-43412914D01*
X101909524Y-43412914D02*
X101814286Y-43460533D01*
X93174819Y-45283333D02*
X93889104Y-45283333D01*
X93889104Y-45283333D02*
X94031961Y-45330952D01*
X94031961Y-45330952D02*
X94127200Y-45426190D01*
X94127200Y-45426190D02*
X94174819Y-45569047D01*
X94174819Y-45569047D02*
X94174819Y-45664285D01*
X94174819Y-44283333D02*
X94174819Y-44854761D01*
X94174819Y-44569047D02*
X93174819Y-44569047D01*
X93174819Y-44569047D02*
X93317676Y-44664285D01*
X93317676Y-44664285D02*
X93412914Y-44759523D01*
X93412914Y-44759523D02*
X93460533Y-44854761D01*
X122384819Y-36413333D02*
X123099104Y-36413333D01*
X123099104Y-36413333D02*
X123241961Y-36460952D01*
X123241961Y-36460952D02*
X123337200Y-36556190D01*
X123337200Y-36556190D02*
X123384819Y-36699047D01*
X123384819Y-36699047D02*
X123384819Y-36794285D01*
X122718152Y-35508571D02*
X123384819Y-35508571D01*
X122337200Y-35746666D02*
X123051485Y-35984761D01*
X123051485Y-35984761D02*
X123051485Y-35365714D01*
X98686666Y-31484819D02*
X98686666Y-32199104D01*
X98686666Y-32199104D02*
X98639047Y-32341961D01*
X98639047Y-32341961D02*
X98543809Y-32437200D01*
X98543809Y-32437200D02*
X98400952Y-32484819D01*
X98400952Y-32484819D02*
X98305714Y-32484819D01*
X99067619Y-31484819D02*
X99686666Y-31484819D01*
X99686666Y-31484819D02*
X99353333Y-31865771D01*
X99353333Y-31865771D02*
X99496190Y-31865771D01*
X99496190Y-31865771D02*
X99591428Y-31913390D01*
X99591428Y-31913390D02*
X99639047Y-31961009D01*
X99639047Y-31961009D02*
X99686666Y-32056247D01*
X99686666Y-32056247D02*
X99686666Y-32294342D01*
X99686666Y-32294342D02*
X99639047Y-32389580D01*
X99639047Y-32389580D02*
X99591428Y-32437200D01*
X99591428Y-32437200D02*
X99496190Y-32484819D01*
X99496190Y-32484819D02*
X99210476Y-32484819D01*
X99210476Y-32484819D02*
X99115238Y-32437200D01*
X99115238Y-32437200D02*
X99067619Y-32389580D01*
X108866666Y-31484819D02*
X108866666Y-32199104D01*
X108866666Y-32199104D02*
X108819047Y-32341961D01*
X108819047Y-32341961D02*
X108723809Y-32437200D01*
X108723809Y-32437200D02*
X108580952Y-32484819D01*
X108580952Y-32484819D02*
X108485714Y-32484819D01*
X109295238Y-31580057D02*
X109342857Y-31532438D01*
X109342857Y-31532438D02*
X109438095Y-31484819D01*
X109438095Y-31484819D02*
X109676190Y-31484819D01*
X109676190Y-31484819D02*
X109771428Y-31532438D01*
X109771428Y-31532438D02*
X109819047Y-31580057D01*
X109819047Y-31580057D02*
X109866666Y-31675295D01*
X109866666Y-31675295D02*
X109866666Y-31770533D01*
X109866666Y-31770533D02*
X109819047Y-31913390D01*
X109819047Y-31913390D02*
X109247619Y-32484819D01*
X109247619Y-32484819D02*
X109866666Y-32484819D01*
X116013095Y-37869819D02*
X116013095Y-38679342D01*
X116013095Y-38679342D02*
X116060714Y-38774580D01*
X116060714Y-38774580D02*
X116108333Y-38822200D01*
X116108333Y-38822200D02*
X116203571Y-38869819D01*
X116203571Y-38869819D02*
X116394047Y-38869819D01*
X116394047Y-38869819D02*
X116489285Y-38822200D01*
X116489285Y-38822200D02*
X116536904Y-38774580D01*
X116536904Y-38774580D02*
X116584523Y-38679342D01*
X116584523Y-38679342D02*
X116584523Y-37869819D01*
X117013095Y-37965057D02*
X117060714Y-37917438D01*
X117060714Y-37917438D02*
X117155952Y-37869819D01*
X117155952Y-37869819D02*
X117394047Y-37869819D01*
X117394047Y-37869819D02*
X117489285Y-37917438D01*
X117489285Y-37917438D02*
X117536904Y-37965057D01*
X117536904Y-37965057D02*
X117584523Y-38060295D01*
X117584523Y-38060295D02*
X117584523Y-38155533D01*
X117584523Y-38155533D02*
X117536904Y-38298390D01*
X117536904Y-38298390D02*
X116965476Y-38869819D01*
X116965476Y-38869819D02*
X117584523Y-38869819D01*
X104648095Y-38234819D02*
X104648095Y-39044342D01*
X104648095Y-39044342D02*
X104695714Y-39139580D01*
X104695714Y-39139580D02*
X104743333Y-39187200D01*
X104743333Y-39187200D02*
X104838571Y-39234819D01*
X104838571Y-39234819D02*
X105029047Y-39234819D01*
X105029047Y-39234819D02*
X105124285Y-39187200D01*
X105124285Y-39187200D02*
X105171904Y-39139580D01*
X105171904Y-39139580D02*
X105219523Y-39044342D01*
X105219523Y-39044342D02*
X105219523Y-38234819D01*
X106219523Y-39234819D02*
X105648095Y-39234819D01*
X105933809Y-39234819D02*
X105933809Y-38234819D01*
X105933809Y-38234819D02*
X105838571Y-38377676D01*
X105838571Y-38377676D02*
X105743333Y-38472914D01*
X105743333Y-38472914D02*
X105648095Y-38520533D01*
X110394761Y-39040057D02*
X110299523Y-38992438D01*
X110299523Y-38992438D02*
X110204285Y-38897200D01*
X110204285Y-38897200D02*
X110061428Y-38754342D01*
X110061428Y-38754342D02*
X109966190Y-38706723D01*
X109966190Y-38706723D02*
X109870952Y-38706723D01*
X109918571Y-38944819D02*
X109823333Y-38897200D01*
X109823333Y-38897200D02*
X109728095Y-38801961D01*
X109728095Y-38801961D02*
X109680476Y-38611485D01*
X109680476Y-38611485D02*
X109680476Y-38278152D01*
X109680476Y-38278152D02*
X109728095Y-38087676D01*
X109728095Y-38087676D02*
X109823333Y-37992438D01*
X109823333Y-37992438D02*
X109918571Y-37944819D01*
X109918571Y-37944819D02*
X110109047Y-37944819D01*
X110109047Y-37944819D02*
X110204285Y-37992438D01*
X110204285Y-37992438D02*
X110299523Y-38087676D01*
X110299523Y-38087676D02*
X110347142Y-38278152D01*
X110347142Y-38278152D02*
X110347142Y-38611485D01*
X110347142Y-38611485D02*
X110299523Y-38801961D01*
X110299523Y-38801961D02*
X110204285Y-38897200D01*
X110204285Y-38897200D02*
X110109047Y-38944819D01*
X110109047Y-38944819D02*
X109918571Y-38944819D01*
X111299523Y-38944819D02*
X110728095Y-38944819D01*
X111013809Y-38944819D02*
X111013809Y-37944819D01*
X111013809Y-37944819D02*
X110918571Y-38087676D01*
X110918571Y-38087676D02*
X110823333Y-38182914D01*
X110823333Y-38182914D02*
X110728095Y-38230533D01*
X108481905Y-28084819D02*
X108481905Y-27084819D01*
X108481905Y-27084819D02*
X108720000Y-27084819D01*
X108720000Y-27084819D02*
X108862857Y-27132438D01*
X108862857Y-27132438D02*
X108958095Y-27227676D01*
X108958095Y-27227676D02*
X109005714Y-27322914D01*
X109005714Y-27322914D02*
X109053333Y-27513390D01*
X109053333Y-27513390D02*
X109053333Y-27656247D01*
X109053333Y-27656247D02*
X109005714Y-27846723D01*
X109005714Y-27846723D02*
X108958095Y-27941961D01*
X108958095Y-27941961D02*
X108862857Y-28037200D01*
X108862857Y-28037200D02*
X108720000Y-28084819D01*
X108720000Y-28084819D02*
X108481905Y-28084819D01*
X110005714Y-28084819D02*
X109434286Y-28084819D01*
X109720000Y-28084819D02*
X109720000Y-27084819D01*
X109720000Y-27084819D02*
X109624762Y-27227676D01*
X109624762Y-27227676D02*
X109529524Y-27322914D01*
X109529524Y-27322914D02*
X109434286Y-27370533D01*
X105148095Y-28404819D02*
X105148095Y-27404819D01*
X105719523Y-28404819D02*
X105290952Y-27833390D01*
X105719523Y-27404819D02*
X105148095Y-27976247D01*
D11*
%TO.C,R2*%
X115752983Y-31850000D02*
X115387017Y-31850000D01*
X115752983Y-35270000D02*
X115387017Y-35270000D01*
%TO.C,R1*%
X103700000Y-45644517D02*
X103700000Y-46010483D01*
X107120000Y-45644517D02*
X107120000Y-46010483D01*
%TO.C,C5*%
X117575000Y-46836248D02*
X117575000Y-47358752D01*
X116105000Y-46836248D02*
X116105000Y-47358752D01*
%TO.C,C4*%
X113723752Y-48265000D02*
X113201248Y-48265000D01*
X113723752Y-46795000D02*
X113201248Y-46795000D01*
%TO.C,C3*%
X122655000Y-41756248D02*
X122655000Y-42278752D01*
X121185000Y-41756248D02*
X121185000Y-42278752D01*
%TO.C,C2*%
X120821248Y-36635000D02*
X121343752Y-36635000D01*
X120821248Y-38105000D02*
X121343752Y-38105000D01*
%TO.C,C1*%
X102335000Y-40081248D02*
X102335000Y-40603752D01*
X100865000Y-40081248D02*
X100865000Y-40603752D01*
%TO.C,J1*%
X98830000Y-50060000D02*
X98830000Y-39840000D01*
X96520000Y-40340000D02*
X96520000Y-39840000D01*
X97330000Y-40840000D02*
X98830000Y-40840000D01*
X95310000Y-40340000D02*
X96520000Y-40340000D01*
X96630000Y-50360000D02*
X99130000Y-50360000D01*
X97330000Y-39840000D02*
X97330000Y-40840000D01*
X96520000Y-49560000D02*
X95310000Y-49560000D01*
X99130000Y-50360000D02*
X99130000Y-47860000D01*
X94810000Y-39840000D02*
X94810000Y-50060000D01*
X97330000Y-50060000D02*
X97330000Y-49060000D01*
X97330000Y-49060000D02*
X98830000Y-49060000D01*
X94810000Y-50060000D02*
X98830000Y-50060000D01*
X96520000Y-50060000D02*
X96520000Y-49560000D01*
X98830000Y-39840000D02*
X94810000Y-39840000D01*
X95310000Y-49560000D02*
X95310000Y-40340000D01*
%TO.C,J4*%
X125730000Y-39440000D02*
X124520000Y-39440000D01*
X124020000Y-32220000D02*
X124020000Y-39940000D01*
X124520000Y-39440000D02*
X124520000Y-32720000D01*
X126540000Y-39940000D02*
X126540000Y-38940000D01*
X126540000Y-38940000D02*
X128040000Y-38940000D01*
X124520000Y-32720000D02*
X125730000Y-32720000D01*
X125730000Y-32720000D02*
X125730000Y-32220000D01*
X124020000Y-39940000D02*
X128040000Y-39940000D01*
X128340000Y-40240000D02*
X128340000Y-37740000D01*
X125730000Y-39940000D02*
X125730000Y-39440000D01*
X128040000Y-32220000D02*
X124020000Y-32220000D01*
X125840000Y-40240000D02*
X128340000Y-40240000D01*
X128040000Y-39940000D02*
X128040000Y-32220000D01*
X126540000Y-33220000D02*
X128040000Y-33220000D01*
X126540000Y-32220000D02*
X126540000Y-33220000D01*
%TO.C,J3*%
X95660000Y-34830000D02*
X95660000Y-33620000D01*
X102880000Y-33120000D02*
X95160000Y-33120000D01*
X95660000Y-33620000D02*
X102380000Y-33620000D01*
X95160000Y-35640000D02*
X96160000Y-35640000D01*
X96160000Y-35640000D02*
X96160000Y-37140000D01*
X102380000Y-33620000D02*
X102380000Y-34830000D01*
X102380000Y-34830000D02*
X102880000Y-34830000D01*
X95160000Y-33120000D02*
X95160000Y-37140000D01*
X94860000Y-37440000D02*
X97360000Y-37440000D01*
X95160000Y-34830000D02*
X95660000Y-34830000D01*
X102880000Y-37140000D02*
X102880000Y-33120000D01*
X94860000Y-34940000D02*
X94860000Y-37440000D01*
X95160000Y-37140000D02*
X102880000Y-37140000D01*
X101880000Y-35640000D02*
X101880000Y-37140000D01*
X102880000Y-35640000D02*
X101880000Y-35640000D01*
%TO.C,J2*%
X105840000Y-34830000D02*
X105840000Y-33620000D01*
X113060000Y-33120000D02*
X105340000Y-33120000D01*
X105840000Y-33620000D02*
X112560000Y-33620000D01*
X105340000Y-35640000D02*
X106340000Y-35640000D01*
X106340000Y-35640000D02*
X106340000Y-37140000D01*
X112560000Y-33620000D02*
X112560000Y-34830000D01*
X112560000Y-34830000D02*
X113060000Y-34830000D01*
X105340000Y-33120000D02*
X105340000Y-37140000D01*
X105040000Y-37440000D02*
X107540000Y-37440000D01*
X105340000Y-34830000D02*
X105840000Y-34830000D01*
X113060000Y-37140000D02*
X113060000Y-33120000D01*
X105040000Y-34940000D02*
X105040000Y-37440000D01*
X105340000Y-37140000D02*
X113060000Y-37140000D01*
X112060000Y-35640000D02*
X112060000Y-37140000D01*
X113060000Y-35640000D02*
X112060000Y-35640000D01*
%TO.C,U2*%
X116775000Y-39255000D02*
X118725000Y-39255000D01*
X116775000Y-44375000D02*
X118725000Y-44375000D01*
X116775000Y-39255000D02*
X113325000Y-39255000D01*
X116775000Y-44375000D02*
X114825000Y-44375000D01*
%TO.C,U1*%
X105410000Y-42740000D02*
X104610000Y-42740000D01*
X105410000Y-39620000D02*
X103610000Y-39620000D01*
X105410000Y-39620000D02*
X106210000Y-39620000D01*
X105410000Y-42740000D02*
X106210000Y-42740000D01*
%TO.C,Q1*%
X109430000Y-41990000D02*
X109430000Y-46050000D01*
X109430000Y-46050000D02*
X111550000Y-46050000D01*
X110490000Y-39930000D02*
X111550000Y-39930000D01*
X111550000Y-41990000D02*
X111550000Y-46050000D01*
X109430000Y-41990000D02*
X111550000Y-41990000D01*
X111550000Y-39930000D02*
X111550000Y-40990000D01*
%TO.C,D1*%
X111340000Y-28630000D02*
X107100000Y-28630000D01*
X107820000Y-28630000D02*
X107820000Y-30870000D01*
X107700000Y-28630000D02*
X107700000Y-30870000D01*
X111340000Y-30870000D02*
X111340000Y-28630000D01*
X107940000Y-28630000D02*
X107940000Y-30870000D01*
X106450000Y-29750000D02*
X107100000Y-29750000D01*
X107100000Y-28630000D02*
X107100000Y-30870000D01*
X107100000Y-30870000D02*
X111340000Y-30870000D01*
X111990000Y-29750000D02*
X111340000Y-29750000D01*
%TD*%
M02*
